G04*
G04 #@! TF.GenerationSoftware,Altium Limited,Altium Designer,21.0.9 (235)*
G04*
G04 Layer_Color=8421504*
%FSLAX25Y25*%
%MOIN*%
G70*
G04*
G04 #@! TF.SameCoordinates,ED66E9C7-4F28-4913-B563-96F2E2C7BF46*
G04*
G04*
G04 #@! TF.FilePolarity,Positive*
G04*
G01*
G75*
G04:AMPARAMS|DCode=16|XSize=31.5mil|YSize=29.53mil|CornerRadius=7.38mil|HoleSize=0mil|Usage=FLASHONLY|Rotation=270.000|XOffset=0mil|YOffset=0mil|HoleType=Round|Shape=RoundedRectangle|*
%AMROUNDEDRECTD16*
21,1,0.03150,0.01476,0,0,270.0*
21,1,0.01673,0.02953,0,0,270.0*
1,1,0.01476,-0.00738,-0.00837*
1,1,0.01476,-0.00738,0.00837*
1,1,0.01476,0.00738,0.00837*
1,1,0.01476,0.00738,-0.00837*
%
%ADD16ROUNDEDRECTD16*%
%ADD17R,0.03543X0.03740*%
G04:AMPARAMS|DCode=18|XSize=23.62mil|YSize=39.37mil|CornerRadius=5.91mil|HoleSize=0mil|Usage=FLASHONLY|Rotation=90.000|XOffset=0mil|YOffset=0mil|HoleType=Round|Shape=RoundedRectangle|*
%AMROUNDEDRECTD18*
21,1,0.02362,0.02756,0,0,90.0*
21,1,0.01181,0.03937,0,0,90.0*
1,1,0.01181,0.01378,0.00591*
1,1,0.01181,0.01378,-0.00591*
1,1,0.01181,-0.01378,-0.00591*
1,1,0.01181,-0.01378,0.00591*
%
%ADD18ROUNDEDRECTD18*%
%ADD19R,0.03937X0.04134*%
%ADD20O,0.05512X0.01181*%
%ADD21O,0.01181X0.05512*%
G04:AMPARAMS|DCode=22|XSize=31.5mil|YSize=29.53mil|CornerRadius=7.38mil|HoleSize=0mil|Usage=FLASHONLY|Rotation=0.000|XOffset=0mil|YOffset=0mil|HoleType=Round|Shape=RoundedRectangle|*
%AMROUNDEDRECTD22*
21,1,0.03150,0.01476,0,0,0.0*
21,1,0.01673,0.02953,0,0,0.0*
1,1,0.01476,0.00837,-0.00738*
1,1,0.01476,-0.00837,-0.00738*
1,1,0.01476,-0.00837,0.00738*
1,1,0.01476,0.00837,0.00738*
%
%ADD22ROUNDEDRECTD22*%
%ADD23R,0.04134X0.03937*%
G04:AMPARAMS|DCode=24|XSize=45.28mil|YSize=57.09mil|CornerRadius=11.32mil|HoleSize=0mil|Usage=FLASHONLY|Rotation=0.000|XOffset=0mil|YOffset=0mil|HoleType=Round|Shape=RoundedRectangle|*
%AMROUNDEDRECTD24*
21,1,0.04528,0.03445,0,0,0.0*
21,1,0.02264,0.05709,0,0,0.0*
1,1,0.02264,0.01132,-0.01722*
1,1,0.02264,-0.01132,-0.01722*
1,1,0.02264,-0.01132,0.01722*
1,1,0.02264,0.01132,0.01722*
%
%ADD24ROUNDEDRECTD24*%
%ADD25O,0.02362X0.07480*%
%ADD26R,0.01260X0.01968*%
D16*
X10000Y262447D02*
D03*
Y256147D02*
D03*
Y276047D02*
D03*
Y282347D02*
D03*
Y295307D02*
D03*
Y301606D02*
D03*
D17*
X136386Y283268D02*
D03*
X130087D02*
D03*
Y289173D02*
D03*
X136386D02*
D03*
X130087Y277362D02*
D03*
X136386D02*
D03*
X130087Y271457D02*
D03*
X136386D02*
D03*
D18*
X107740Y47362D02*
D03*
Y54842D02*
D03*
X100260Y51000D02*
D03*
X82827Y35740D02*
D03*
Y32000D02*
D03*
Y28260D02*
D03*
X91173Y35740D02*
D03*
Y28260D02*
D03*
X100260Y65000D02*
D03*
X107740Y68842D02*
D03*
Y61362D02*
D03*
D19*
X51236Y245866D02*
D03*
Y239961D02*
D03*
X133236Y258441D02*
D03*
Y264347D02*
D03*
Y234441D02*
D03*
Y240347D02*
D03*
X51236Y257047D02*
D03*
Y262953D02*
D03*
D20*
X122551Y265551D02*
D03*
Y232087D02*
D03*
Y234055D02*
D03*
Y236024D02*
D03*
Y237992D02*
D03*
Y239961D02*
D03*
Y241929D02*
D03*
Y243898D02*
D03*
Y245866D02*
D03*
Y247835D02*
D03*
Y249803D02*
D03*
Y251772D02*
D03*
Y253740D02*
D03*
Y255709D02*
D03*
Y257677D02*
D03*
Y259646D02*
D03*
Y261614D02*
D03*
Y263583D02*
D03*
Y267520D02*
D03*
Y269488D02*
D03*
Y271457D02*
D03*
Y273425D02*
D03*
Y275394D02*
D03*
Y277362D02*
D03*
Y279331D02*
D03*
X61921D02*
D03*
Y277362D02*
D03*
Y275394D02*
D03*
Y273425D02*
D03*
Y271457D02*
D03*
Y269488D02*
D03*
Y267520D02*
D03*
Y265551D02*
D03*
Y263583D02*
D03*
Y261614D02*
D03*
Y259646D02*
D03*
Y257677D02*
D03*
Y255709D02*
D03*
Y253740D02*
D03*
Y251772D02*
D03*
Y249803D02*
D03*
Y247835D02*
D03*
Y245866D02*
D03*
Y243898D02*
D03*
Y241929D02*
D03*
Y239961D02*
D03*
Y237992D02*
D03*
Y236024D02*
D03*
Y234055D02*
D03*
Y232087D02*
D03*
D21*
X68614Y225394D02*
D03*
X70583D02*
D03*
X72551D02*
D03*
X74520D02*
D03*
X76488D02*
D03*
X78457D02*
D03*
X80425D02*
D03*
X82394D02*
D03*
X84362D02*
D03*
X86331D02*
D03*
X88299D02*
D03*
X90268D02*
D03*
X92236D02*
D03*
X94205D02*
D03*
X96173D02*
D03*
X98142D02*
D03*
X100110D02*
D03*
X102079D02*
D03*
X104047D02*
D03*
X106016D02*
D03*
X107984D02*
D03*
X109953D02*
D03*
X111921D02*
D03*
X113890D02*
D03*
X115858D02*
D03*
Y286024D02*
D03*
X113890D02*
D03*
X111921D02*
D03*
X109953D02*
D03*
X107984D02*
D03*
X106016D02*
D03*
X104047D02*
D03*
X102079D02*
D03*
X100110D02*
D03*
X98142D02*
D03*
X96173D02*
D03*
X94205D02*
D03*
X92236D02*
D03*
X90268D02*
D03*
X88299D02*
D03*
X86331D02*
D03*
X84362D02*
D03*
X82394D02*
D03*
X80425D02*
D03*
X78457D02*
D03*
X76488D02*
D03*
X74520D02*
D03*
X72551D02*
D03*
X70583D02*
D03*
X68614D02*
D03*
D22*
X26150Y309000D02*
D03*
X19850D02*
D03*
D23*
X6760Y134000D02*
D03*
X12665D02*
D03*
X6578Y238000D02*
D03*
X12483D02*
D03*
X102079Y297394D02*
D03*
X96173D02*
D03*
X115947Y297400D02*
D03*
X121853D02*
D03*
X76488Y214394D02*
D03*
X82394D02*
D03*
X82047Y12000D02*
D03*
X87953D02*
D03*
D24*
X90000Y43000D02*
D03*
X82913D02*
D03*
X82457Y20906D02*
D03*
X89543D02*
D03*
D25*
X6760Y193000D02*
D03*
X11760D02*
D03*
X16760D02*
D03*
X21760D02*
D03*
X26760D02*
D03*
X31760D02*
D03*
X36760D02*
D03*
X41760D02*
D03*
X46760D02*
D03*
X51760D02*
D03*
X6760Y230402D02*
D03*
X11760D02*
D03*
X16760D02*
D03*
X21760D02*
D03*
X26760D02*
D03*
X31760D02*
D03*
X36760D02*
D03*
X41760D02*
D03*
X46760D02*
D03*
X51760D02*
D03*
Y179402D02*
D03*
X46760D02*
D03*
X41760D02*
D03*
X36760D02*
D03*
X31760D02*
D03*
X26760D02*
D03*
X21760D02*
D03*
X16760D02*
D03*
X11760D02*
D03*
X6760D02*
D03*
X51760Y142000D02*
D03*
X46760D02*
D03*
X41760D02*
D03*
X36760D02*
D03*
X31760D02*
D03*
X26760D02*
D03*
X21760D02*
D03*
X16760D02*
D03*
X11760D02*
D03*
X6760D02*
D03*
D26*
X46047Y294032D02*
D03*
X48016D02*
D03*
X49984D02*
D03*
X51953D02*
D03*
X46047Y297969D02*
D03*
X48016D02*
D03*
X49984D02*
D03*
X51953D02*
D03*
M02*
