G04*
G04 #@! TF.GenerationSoftware,Altium Limited,Altium Designer,21.1.0 (24)*
G04*
G04 Layer_Color=16711935*
%FSLAX25Y25*%
%MOIN*%
G70*
G04*
G04 #@! TF.SameCoordinates,593A92C0-0D7A-4823-B9BF-B5AAC7A53552*
G04*
G04*
G04 #@! TF.FilePolarity,Negative*
G04*
G01*
G75*
%ADD38C,0.06992*%
%ADD39R,0.06992X0.06992*%
%ADD40O,0.08173X0.05811*%
%ADD41O,0.10142X0.06598*%
%ADD42R,0.10142X0.06598*%
%ADD43R,0.06992X0.06992*%
D38*
X73000Y317000D02*
D03*
Y307000D02*
D03*
X63000Y317000D02*
D03*
Y307000D02*
D03*
X53000Y317000D02*
D03*
Y307000D02*
D03*
X43000Y317000D02*
D03*
X125000Y319000D02*
D03*
X115000D02*
D03*
X85000Y307000D02*
D03*
X95000D02*
D03*
X105000D02*
D03*
X115000D02*
D03*
X125000D02*
D03*
X73000Y10905D02*
D03*
Y20906D02*
D03*
Y30906D02*
D03*
Y40905D02*
D03*
Y50906D02*
D03*
Y130905D02*
D03*
Y140905D02*
D03*
Y150906D02*
D03*
Y160906D02*
D03*
Y170905D02*
D03*
Y180905D02*
D03*
Y190905D02*
D03*
Y120905D02*
D03*
Y110906D02*
D03*
Y100906D02*
D03*
Y90905D02*
D03*
Y80905D02*
D03*
Y70906D02*
D03*
Y60905D02*
D03*
X133000Y10905D02*
D03*
Y20906D02*
D03*
Y30906D02*
D03*
Y40905D02*
D03*
Y50906D02*
D03*
Y130905D02*
D03*
Y140905D02*
D03*
Y150906D02*
D03*
Y160906D02*
D03*
Y170905D02*
D03*
Y180905D02*
D03*
Y190905D02*
D03*
Y120905D02*
D03*
Y110906D02*
D03*
Y100906D02*
D03*
Y90905D02*
D03*
Y80905D02*
D03*
Y70906D02*
D03*
Y60905D02*
D03*
D39*
X43000Y307000D02*
D03*
X135000Y319000D02*
D03*
Y307000D02*
D03*
D40*
X19299Y284197D02*
D03*
X29299Y289197D02*
D03*
Y249197D02*
D03*
X19299Y254197D02*
D03*
X29299Y259197D02*
D03*
X19299Y264197D02*
D03*
X29299Y269197D02*
D03*
X19299Y274197D02*
D03*
X29299Y279197D02*
D03*
X19299Y294197D02*
D03*
X32409Y125906D02*
D03*
X42409Y110906D02*
D03*
X32409Y105905D02*
D03*
X42409Y100906D02*
D03*
X32409Y95906D02*
D03*
X42409Y90905D02*
D03*
X32409Y85905D02*
D03*
X42409Y80905D02*
D03*
Y120905D02*
D03*
X32409Y115905D02*
D03*
X42409Y70906D02*
D03*
X32409Y65905D02*
D03*
X42409Y60905D02*
D03*
X32409Y75906D02*
D03*
Y55905D02*
D03*
X42409Y40905D02*
D03*
X32409Y35906D02*
D03*
X42409Y30906D02*
D03*
X32409Y25905D02*
D03*
X42409Y20906D02*
D03*
X32409Y15905D02*
D03*
X42409Y10905D02*
D03*
Y50906D02*
D03*
X32409Y45906D02*
D03*
D41*
X123000Y10905D02*
D03*
Y20906D02*
D03*
Y30906D02*
D03*
Y40905D02*
D03*
Y50906D02*
D03*
Y60905D02*
D03*
Y70906D02*
D03*
Y80905D02*
D03*
Y90905D02*
D03*
Y100906D02*
D03*
Y110906D02*
D03*
Y120905D02*
D03*
Y130905D02*
D03*
Y140905D02*
D03*
Y150906D02*
D03*
Y160906D02*
D03*
Y170905D02*
D03*
Y180905D02*
D03*
Y190905D02*
D03*
Y200905D02*
D03*
X63000Y10905D02*
D03*
Y20906D02*
D03*
Y30906D02*
D03*
Y40905D02*
D03*
Y50906D02*
D03*
Y60905D02*
D03*
Y70906D02*
D03*
Y80905D02*
D03*
Y90905D02*
D03*
Y100906D02*
D03*
Y110906D02*
D03*
Y120905D02*
D03*
Y130905D02*
D03*
Y140905D02*
D03*
Y150906D02*
D03*
Y160906D02*
D03*
Y170905D02*
D03*
Y180905D02*
D03*
Y190905D02*
D03*
D42*
Y200905D02*
D03*
D43*
X73000D02*
D03*
X133000D02*
D03*
M02*
