G04*
G04 #@! TF.GenerationSoftware,Altium Limited,Altium Designer,21.1.0 (24)*
G04*
G04 Layer_Color=8388736*
%FSLAX25Y25*%
%MOIN*%
G70*
G04*
G04 #@! TF.SameCoordinates,593A92C0-0D7A-4823-B9BF-B5AAC7A53552*
G04*
G04*
G04 #@! TF.FilePolarity,Negative*
G04*
G01*
G75*
G04:AMPARAMS|DCode=27|XSize=34.49mil|YSize=32.52mil|CornerRadius=8.88mil|HoleSize=0mil|Usage=FLASHONLY|Rotation=270.000|XOffset=0mil|YOffset=0mil|HoleType=Round|Shape=RoundedRectangle|*
%AMROUNDEDRECTD27*
21,1,0.03449,0.01476,0,0,270.0*
21,1,0.01673,0.03252,0,0,270.0*
1,1,0.01776,-0.00738,-0.00837*
1,1,0.01776,-0.00738,0.00837*
1,1,0.01776,0.00738,0.00837*
1,1,0.01776,0.00738,-0.00837*
%
%ADD27ROUNDEDRECTD27*%
%ADD28R,0.03842X0.04039*%
G04:AMPARAMS|DCode=29|XSize=26.61mil|YSize=42.36mil|CornerRadius=7.4mil|HoleSize=0mil|Usage=FLASHONLY|Rotation=90.000|XOffset=0mil|YOffset=0mil|HoleType=Round|Shape=RoundedRectangle|*
%AMROUNDEDRECTD29*
21,1,0.02661,0.02756,0,0,90.0*
21,1,0.01181,0.04236,0,0,90.0*
1,1,0.01480,0.01378,0.00591*
1,1,0.01480,0.01378,-0.00591*
1,1,0.01480,-0.01378,-0.00591*
1,1,0.01480,-0.01378,0.00591*
%
%ADD29ROUNDEDRECTD29*%
%ADD30R,0.04236X0.04433*%
%ADD31O,0.05811X0.01480*%
%ADD32O,0.01480X0.05811*%
G04:AMPARAMS|DCode=33|XSize=34.49mil|YSize=32.52mil|CornerRadius=8.88mil|HoleSize=0mil|Usage=FLASHONLY|Rotation=0.000|XOffset=0mil|YOffset=0mil|HoleType=Round|Shape=RoundedRectangle|*
%AMROUNDEDRECTD33*
21,1,0.03449,0.01476,0,0,0.0*
21,1,0.01673,0.03252,0,0,0.0*
1,1,0.01776,0.00837,-0.00738*
1,1,0.01776,-0.00837,-0.00738*
1,1,0.01776,-0.00837,0.00738*
1,1,0.01776,0.00837,0.00738*
%
%ADD33ROUNDEDRECTD33*%
%ADD34R,0.04433X0.04236*%
G04:AMPARAMS|DCode=35|XSize=48.27mil|YSize=60.08mil|CornerRadius=12.82mil|HoleSize=0mil|Usage=FLASHONLY|Rotation=0.000|XOffset=0mil|YOffset=0mil|HoleType=Round|Shape=RoundedRectangle|*
%AMROUNDEDRECTD35*
21,1,0.04827,0.03445,0,0,0.0*
21,1,0.02264,0.06008,0,0,0.0*
1,1,0.02563,0.01132,-0.01722*
1,1,0.02563,-0.01132,-0.01722*
1,1,0.02563,-0.01132,0.01722*
1,1,0.02563,0.01132,0.01722*
%
%ADD35ROUNDEDRECTD35*%
%ADD36O,0.02661X0.07780*%
%ADD37R,0.01559X0.02268*%
%ADD38C,0.06992*%
%ADD39R,0.06992X0.06992*%
%ADD40O,0.08173X0.05811*%
%ADD41O,0.10142X0.06598*%
%ADD42R,0.10142X0.06598*%
%ADD43R,0.06992X0.06992*%
D27*
X10000Y262447D02*
D03*
Y256147D02*
D03*
Y276047D02*
D03*
Y282347D02*
D03*
Y295307D02*
D03*
Y301606D02*
D03*
D28*
X136386Y283268D02*
D03*
X130087D02*
D03*
Y289173D02*
D03*
X136386D02*
D03*
X130087Y277362D02*
D03*
X136386D02*
D03*
X130087Y271457D02*
D03*
X136386D02*
D03*
D29*
X107740Y47362D02*
D03*
Y54842D02*
D03*
X100260Y51000D02*
D03*
X82827Y35740D02*
D03*
Y32000D02*
D03*
Y28260D02*
D03*
X91173Y35740D02*
D03*
Y28260D02*
D03*
X100260Y65000D02*
D03*
X107740Y68842D02*
D03*
Y61362D02*
D03*
D30*
X51236Y245866D02*
D03*
Y239961D02*
D03*
X133236Y258441D02*
D03*
Y264347D02*
D03*
Y234441D02*
D03*
Y240347D02*
D03*
X51236Y257047D02*
D03*
Y262953D02*
D03*
D31*
X122551Y265551D02*
D03*
Y232087D02*
D03*
Y234055D02*
D03*
Y236024D02*
D03*
Y237992D02*
D03*
Y239961D02*
D03*
Y241929D02*
D03*
Y243898D02*
D03*
Y245866D02*
D03*
Y247835D02*
D03*
Y249803D02*
D03*
Y251772D02*
D03*
Y253740D02*
D03*
Y255709D02*
D03*
Y257677D02*
D03*
Y259646D02*
D03*
Y261614D02*
D03*
Y263583D02*
D03*
Y267520D02*
D03*
Y269488D02*
D03*
Y271457D02*
D03*
Y273425D02*
D03*
Y275394D02*
D03*
Y277362D02*
D03*
Y279331D02*
D03*
X61921D02*
D03*
Y277362D02*
D03*
Y275394D02*
D03*
Y273425D02*
D03*
Y271457D02*
D03*
Y269488D02*
D03*
Y267520D02*
D03*
Y265551D02*
D03*
Y263583D02*
D03*
Y261614D02*
D03*
Y259646D02*
D03*
Y257677D02*
D03*
Y255709D02*
D03*
Y253740D02*
D03*
Y251772D02*
D03*
Y249803D02*
D03*
Y247835D02*
D03*
Y245866D02*
D03*
Y243898D02*
D03*
Y241929D02*
D03*
Y239961D02*
D03*
Y237992D02*
D03*
Y236024D02*
D03*
Y234055D02*
D03*
Y232087D02*
D03*
D32*
X68614Y225394D02*
D03*
X70583D02*
D03*
X72551D02*
D03*
X74520D02*
D03*
X76488D02*
D03*
X78457D02*
D03*
X80425D02*
D03*
X82394D02*
D03*
X84362D02*
D03*
X86331D02*
D03*
X88299D02*
D03*
X90268D02*
D03*
X92236D02*
D03*
X94205D02*
D03*
X96173D02*
D03*
X98142D02*
D03*
X100110D02*
D03*
X102079D02*
D03*
X104047D02*
D03*
X106016D02*
D03*
X107984D02*
D03*
X109953D02*
D03*
X111921D02*
D03*
X113890D02*
D03*
X115858D02*
D03*
Y286024D02*
D03*
X113890D02*
D03*
X111921D02*
D03*
X109953D02*
D03*
X107984D02*
D03*
X106016D02*
D03*
X104047D02*
D03*
X102079D02*
D03*
X100110D02*
D03*
X98142D02*
D03*
X96173D02*
D03*
X94205D02*
D03*
X92236D02*
D03*
X90268D02*
D03*
X88299D02*
D03*
X86331D02*
D03*
X84362D02*
D03*
X82394D02*
D03*
X80425D02*
D03*
X78457D02*
D03*
X76488D02*
D03*
X74520D02*
D03*
X72551D02*
D03*
X70583D02*
D03*
X68614D02*
D03*
D33*
X26150Y309000D02*
D03*
X19850D02*
D03*
D34*
X6760Y134000D02*
D03*
X12665D02*
D03*
X6578Y238000D02*
D03*
X12483D02*
D03*
X102079Y297394D02*
D03*
X96173D02*
D03*
X115947Y297400D02*
D03*
X121853D02*
D03*
X76488Y214394D02*
D03*
X82394D02*
D03*
X82047Y12000D02*
D03*
X87953D02*
D03*
D35*
X90000Y43000D02*
D03*
X82913D02*
D03*
X82457Y20906D02*
D03*
X89543D02*
D03*
D36*
X6760Y193000D02*
D03*
X11760D02*
D03*
X16760D02*
D03*
X21760D02*
D03*
X26760D02*
D03*
X31760D02*
D03*
X36760D02*
D03*
X41760D02*
D03*
X46760D02*
D03*
X51760D02*
D03*
X6760Y230402D02*
D03*
X11760D02*
D03*
X16760D02*
D03*
X21760D02*
D03*
X26760D02*
D03*
X31760D02*
D03*
X36760D02*
D03*
X41760D02*
D03*
X46760D02*
D03*
X51760D02*
D03*
Y179402D02*
D03*
X46760D02*
D03*
X41760D02*
D03*
X36760D02*
D03*
X31760D02*
D03*
X26760D02*
D03*
X21760D02*
D03*
X16760D02*
D03*
X11760D02*
D03*
X6760D02*
D03*
X51760Y142000D02*
D03*
X46760D02*
D03*
X41760D02*
D03*
X36760D02*
D03*
X31760D02*
D03*
X26760D02*
D03*
X21760D02*
D03*
X16760D02*
D03*
X11760D02*
D03*
X6760D02*
D03*
D37*
X46047Y294032D02*
D03*
X48016D02*
D03*
X49984D02*
D03*
X51953D02*
D03*
X46047Y297969D02*
D03*
X48016D02*
D03*
X49984D02*
D03*
X51953D02*
D03*
D38*
X73000Y317000D02*
D03*
Y307000D02*
D03*
X63000Y317000D02*
D03*
Y307000D02*
D03*
X53000Y317000D02*
D03*
Y307000D02*
D03*
X43000Y317000D02*
D03*
X125000Y319000D02*
D03*
X115000D02*
D03*
X85000Y307000D02*
D03*
X95000D02*
D03*
X105000D02*
D03*
X115000D02*
D03*
X125000D02*
D03*
X73000Y10905D02*
D03*
Y20906D02*
D03*
Y30906D02*
D03*
Y40905D02*
D03*
Y50906D02*
D03*
Y130905D02*
D03*
Y140905D02*
D03*
Y150906D02*
D03*
Y160906D02*
D03*
Y170905D02*
D03*
Y180905D02*
D03*
Y190905D02*
D03*
Y120905D02*
D03*
Y110906D02*
D03*
Y100906D02*
D03*
Y90905D02*
D03*
Y80905D02*
D03*
Y70906D02*
D03*
Y60905D02*
D03*
X133000Y10905D02*
D03*
Y20906D02*
D03*
Y30906D02*
D03*
Y40905D02*
D03*
Y50906D02*
D03*
Y130905D02*
D03*
Y140905D02*
D03*
Y150906D02*
D03*
Y160906D02*
D03*
Y170905D02*
D03*
Y180905D02*
D03*
Y190905D02*
D03*
Y120905D02*
D03*
Y110906D02*
D03*
Y100906D02*
D03*
Y90905D02*
D03*
Y80905D02*
D03*
Y70906D02*
D03*
Y60905D02*
D03*
D39*
X43000Y307000D02*
D03*
X135000Y319000D02*
D03*
Y307000D02*
D03*
D40*
X19299Y284197D02*
D03*
X29299Y289197D02*
D03*
Y249197D02*
D03*
X19299Y254197D02*
D03*
X29299Y259197D02*
D03*
X19299Y264197D02*
D03*
X29299Y269197D02*
D03*
X19299Y274197D02*
D03*
X29299Y279197D02*
D03*
X19299Y294197D02*
D03*
X32409Y125906D02*
D03*
X42409Y110906D02*
D03*
X32409Y105905D02*
D03*
X42409Y100906D02*
D03*
X32409Y95906D02*
D03*
X42409Y90905D02*
D03*
X32409Y85905D02*
D03*
X42409Y80905D02*
D03*
Y120905D02*
D03*
X32409Y115905D02*
D03*
X42409Y70906D02*
D03*
X32409Y65905D02*
D03*
X42409Y60905D02*
D03*
X32409Y75906D02*
D03*
Y55905D02*
D03*
X42409Y40905D02*
D03*
X32409Y35906D02*
D03*
X42409Y30906D02*
D03*
X32409Y25905D02*
D03*
X42409Y20906D02*
D03*
X32409Y15905D02*
D03*
X42409Y10905D02*
D03*
Y50906D02*
D03*
X32409Y45906D02*
D03*
D41*
X123000Y10905D02*
D03*
Y20906D02*
D03*
Y30906D02*
D03*
Y40905D02*
D03*
Y50906D02*
D03*
Y60905D02*
D03*
Y70906D02*
D03*
Y80905D02*
D03*
Y90905D02*
D03*
Y100906D02*
D03*
Y110906D02*
D03*
Y120905D02*
D03*
Y130905D02*
D03*
Y140905D02*
D03*
Y150906D02*
D03*
Y160906D02*
D03*
Y170905D02*
D03*
Y180905D02*
D03*
Y190905D02*
D03*
Y200905D02*
D03*
X63000Y10905D02*
D03*
Y20906D02*
D03*
Y30906D02*
D03*
Y40905D02*
D03*
Y50906D02*
D03*
Y60905D02*
D03*
Y70906D02*
D03*
Y80905D02*
D03*
Y90905D02*
D03*
Y100906D02*
D03*
Y110906D02*
D03*
Y120905D02*
D03*
Y130905D02*
D03*
Y140905D02*
D03*
Y150906D02*
D03*
Y160906D02*
D03*
Y170905D02*
D03*
Y180905D02*
D03*
Y190905D02*
D03*
D42*
Y200905D02*
D03*
D43*
X73000D02*
D03*
X133000D02*
D03*
M02*
