G04*
G04 #@! TF.GenerationSoftware,Altium Limited,Altium Designer,21.0.9 (235)*
G04*
G04 Layer_Color=16711935*
%FSLAX25Y25*%
%MOIN*%
G70*
G04*
G04 #@! TF.SameCoordinates,E6591328-2649-4853-B355-67F2A4BCD0D5*
G04*
G04*
G04 #@! TF.FilePolarity,Negative*
G04*
G01*
G75*
%ADD38R,0.06992X0.06992*%
%ADD39C,0.06992*%
%ADD40P,0.09888X4X360.0*%
%ADD41R,0.05811X0.05811*%
%ADD42C,0.05811*%
%ADD43O,0.08173X0.05811*%
D38*
X20669Y274921D02*
D03*
Y328532D02*
D03*
X55000Y215905D02*
D03*
X115000D02*
D03*
D39*
X20669Y264921D02*
D03*
Y254921D02*
D03*
Y288532D02*
D03*
Y298532D02*
D03*
Y308532D02*
D03*
Y318532D02*
D03*
X123592Y308889D02*
D03*
X116521Y315960D02*
D03*
X109449Y323031D02*
D03*
X102378Y330102D02*
D03*
X95307Y337173D02*
D03*
X55000Y25905D02*
D03*
Y35906D02*
D03*
Y45906D02*
D03*
Y55905D02*
D03*
Y65905D02*
D03*
Y145905D02*
D03*
Y155905D02*
D03*
Y165905D02*
D03*
Y175906D02*
D03*
Y185906D02*
D03*
Y195905D02*
D03*
Y205906D02*
D03*
Y135906D02*
D03*
Y125906D02*
D03*
Y115905D02*
D03*
Y105905D02*
D03*
Y95906D02*
D03*
Y85905D02*
D03*
Y75906D02*
D03*
X115000Y25905D02*
D03*
Y35906D02*
D03*
Y45906D02*
D03*
Y55905D02*
D03*
Y65905D02*
D03*
Y145905D02*
D03*
Y155905D02*
D03*
Y165905D02*
D03*
Y175906D02*
D03*
Y185906D02*
D03*
Y195905D02*
D03*
Y205906D02*
D03*
Y135906D02*
D03*
Y125906D02*
D03*
Y115905D02*
D03*
Y105905D02*
D03*
Y95906D02*
D03*
Y85905D02*
D03*
Y75906D02*
D03*
D40*
X88236Y344244D02*
D03*
D41*
X90000Y80905D02*
D03*
D42*
X80000Y90905D02*
D03*
Y80905D02*
D03*
X70000Y90905D02*
D03*
Y80905D02*
D03*
X60000Y90905D02*
D03*
X50000Y80905D02*
D03*
X60000D02*
D03*
X50000Y70906D02*
D03*
X60000D02*
D03*
X50000Y60905D02*
D03*
X60000D02*
D03*
X50000Y50906D02*
D03*
X60000D02*
D03*
X50000Y40905D02*
D03*
X60000D02*
D03*
X50000Y30906D02*
D03*
X60000Y20906D02*
D03*
Y30906D02*
D03*
X70000Y20906D02*
D03*
Y30906D02*
D03*
X80000Y20906D02*
D03*
Y30906D02*
D03*
X90000Y20906D02*
D03*
Y30906D02*
D03*
X100000Y20906D02*
D03*
Y30906D02*
D03*
X110000Y20906D02*
D03*
X120000Y30906D02*
D03*
X110000D02*
D03*
X120000Y40905D02*
D03*
X110000D02*
D03*
X120000Y50906D02*
D03*
X110000D02*
D03*
X120000Y60905D02*
D03*
X110000D02*
D03*
X120000Y70906D02*
D03*
X110000D02*
D03*
X120000Y80905D02*
D03*
X110000Y90905D02*
D03*
Y80905D02*
D03*
X100000Y90905D02*
D03*
Y80905D02*
D03*
X90000Y90905D02*
D03*
D43*
X17638Y87992D02*
D03*
X27638Y72992D02*
D03*
X17638Y67992D02*
D03*
X27638Y62992D02*
D03*
X17638Y57992D02*
D03*
X27638Y52992D02*
D03*
X17638Y47992D02*
D03*
X27638Y42992D02*
D03*
Y82992D02*
D03*
X17638Y77992D02*
D03*
Y226220D02*
D03*
X27638Y211221D02*
D03*
X17638Y206221D02*
D03*
X27638Y201220D02*
D03*
X17638Y196221D02*
D03*
X27638Y191220D02*
D03*
X17638Y186221D02*
D03*
X27638Y181220D02*
D03*
Y221220D02*
D03*
X17638Y216220D02*
D03*
X27638Y171221D02*
D03*
X17638Y166220D02*
D03*
X27638Y161221D02*
D03*
X17638Y176221D02*
D03*
Y156220D02*
D03*
X27638Y141220D02*
D03*
X17638Y136221D02*
D03*
X27638Y131220D02*
D03*
X17638Y126221D02*
D03*
X27638Y121221D02*
D03*
X17638Y116220D02*
D03*
X27638Y111221D02*
D03*
Y151221D02*
D03*
X17638Y146221D02*
D03*
M02*
