G04*
G04 #@! TF.GenerationSoftware,Altium Limited,Altium Designer,21.0.9 (235)*
G04*
G04 Layer_Color=8421504*
%FSLAX25Y25*%
%MOIN*%
G70*
G04*
G04 #@! TF.SameCoordinates,E6591328-2649-4853-B355-67F2A4BCD0D5*
G04*
G04*
G04 #@! TF.FilePolarity,Positive*
G04*
G01*
G75*
%ADD16R,0.03937X0.04134*%
%ADD17O,0.05512X0.01181*%
%ADD18O,0.01181X0.05512*%
%ADD19R,0.03543X0.03740*%
G04:AMPARAMS|DCode=20|XSize=31.5mil|YSize=29.53mil|CornerRadius=7.38mil|HoleSize=0mil|Usage=FLASHONLY|Rotation=0.000|XOffset=0mil|YOffset=0mil|HoleType=Round|Shape=RoundedRectangle|*
%AMROUNDEDRECTD20*
21,1,0.03150,0.01476,0,0,0.0*
21,1,0.01673,0.02953,0,0,0.0*
1,1,0.01476,0.00837,-0.00738*
1,1,0.01476,-0.00837,-0.00738*
1,1,0.01476,-0.00837,0.00738*
1,1,0.01476,0.00837,0.00738*
%
%ADD20ROUNDEDRECTD20*%
G04:AMPARAMS|DCode=21|XSize=23.62mil|YSize=39.37mil|CornerRadius=5.91mil|HoleSize=0mil|Usage=FLASHONLY|Rotation=90.000|XOffset=0mil|YOffset=0mil|HoleType=Round|Shape=RoundedRectangle|*
%AMROUNDEDRECTD21*
21,1,0.02362,0.02756,0,0,90.0*
21,1,0.01181,0.03937,0,0,90.0*
1,1,0.01181,0.01378,0.00591*
1,1,0.01181,0.01378,-0.00591*
1,1,0.01181,-0.01378,-0.00591*
1,1,0.01181,-0.01378,0.00591*
%
%ADD21ROUNDEDRECTD21*%
%ADD22R,0.04134X0.03937*%
G04:AMPARAMS|DCode=23|XSize=45.28mil|YSize=57.09mil|CornerRadius=11.32mil|HoleSize=0mil|Usage=FLASHONLY|Rotation=180.000|XOffset=0mil|YOffset=0mil|HoleType=Round|Shape=RoundedRectangle|*
%AMROUNDEDRECTD23*
21,1,0.04528,0.03445,0,0,180.0*
21,1,0.02264,0.05709,0,0,180.0*
1,1,0.02264,-0.01132,0.01722*
1,1,0.02264,0.01132,0.01722*
1,1,0.02264,0.01132,-0.01722*
1,1,0.02264,-0.01132,-0.01722*
%
%ADD23ROUNDEDRECTD23*%
%ADD24O,0.07480X0.02362*%
G04:AMPARAMS|DCode=25|XSize=23.62mil|YSize=39.37mil|CornerRadius=5.91mil|HoleSize=0mil|Usage=FLASHONLY|Rotation=180.000|XOffset=0mil|YOffset=0mil|HoleType=Round|Shape=RoundedRectangle|*
%AMROUNDEDRECTD25*
21,1,0.02362,0.02756,0,0,180.0*
21,1,0.01181,0.03937,0,0,180.0*
1,1,0.01181,-0.00591,0.01378*
1,1,0.01181,0.00591,0.01378*
1,1,0.01181,0.00591,-0.01378*
1,1,0.01181,-0.00591,-0.01378*
%
%ADD25ROUNDEDRECTD25*%
%ADD26R,0.01260X0.01968*%
D16*
X29236Y252441D02*
D03*
Y258347D02*
D03*
X111236Y280441D02*
D03*
Y286347D02*
D03*
Y256441D02*
D03*
Y262347D02*
D03*
X29236Y278441D02*
D03*
Y284347D02*
D03*
D17*
X100551Y287551D02*
D03*
Y254087D02*
D03*
Y256055D02*
D03*
Y258024D02*
D03*
Y259992D02*
D03*
Y261961D02*
D03*
Y263929D02*
D03*
Y265898D02*
D03*
Y267866D02*
D03*
Y269835D02*
D03*
Y271803D02*
D03*
Y273772D02*
D03*
Y275740D02*
D03*
Y277709D02*
D03*
Y279677D02*
D03*
Y281646D02*
D03*
Y283614D02*
D03*
Y285583D02*
D03*
Y289520D02*
D03*
Y291488D02*
D03*
Y293457D02*
D03*
Y295425D02*
D03*
Y297394D02*
D03*
Y299362D02*
D03*
Y301331D02*
D03*
X39921D02*
D03*
Y299362D02*
D03*
Y297394D02*
D03*
Y295425D02*
D03*
Y293457D02*
D03*
Y291488D02*
D03*
Y289520D02*
D03*
Y287551D02*
D03*
Y285583D02*
D03*
Y283614D02*
D03*
Y281646D02*
D03*
Y279677D02*
D03*
Y277709D02*
D03*
Y275740D02*
D03*
Y273772D02*
D03*
Y271803D02*
D03*
Y269835D02*
D03*
Y267866D02*
D03*
Y265898D02*
D03*
Y263929D02*
D03*
Y261961D02*
D03*
Y259992D02*
D03*
Y258024D02*
D03*
Y256055D02*
D03*
Y254087D02*
D03*
D18*
X46614Y247394D02*
D03*
X48583D02*
D03*
X50551D02*
D03*
X52520D02*
D03*
X54488D02*
D03*
X56457D02*
D03*
X58425D02*
D03*
X60394D02*
D03*
X62362D02*
D03*
X64331D02*
D03*
X66299D02*
D03*
X68268D02*
D03*
X70236D02*
D03*
X72205D02*
D03*
X74173D02*
D03*
X76142D02*
D03*
X78110D02*
D03*
X80079D02*
D03*
X82047D02*
D03*
X84016D02*
D03*
X85984D02*
D03*
X87953D02*
D03*
X89921D02*
D03*
X91890D02*
D03*
X93858D02*
D03*
Y308024D02*
D03*
X91890D02*
D03*
X89921D02*
D03*
X87953D02*
D03*
X85984D02*
D03*
X84016D02*
D03*
X82047D02*
D03*
X80079D02*
D03*
X78110D02*
D03*
X76142D02*
D03*
X74173D02*
D03*
X72205D02*
D03*
X70236D02*
D03*
X68268D02*
D03*
X66299D02*
D03*
X64331D02*
D03*
X62362D02*
D03*
X60394D02*
D03*
X58425D02*
D03*
X56457D02*
D03*
X54488D02*
D03*
X52520D02*
D03*
X50551D02*
D03*
X48583D02*
D03*
X46614D02*
D03*
D19*
X76173Y326599D02*
D03*
X69874D02*
D03*
X76173Y338598D02*
D03*
X69874D02*
D03*
X76173Y332598D02*
D03*
X69874D02*
D03*
X76173Y344599D02*
D03*
X69874D02*
D03*
D20*
X57157D02*
D03*
X50858D02*
D03*
X57157Y338598D02*
D03*
X50858D02*
D03*
X57157Y332598D02*
D03*
X50858D02*
D03*
X57157Y326599D02*
D03*
X50858D02*
D03*
D21*
X29535Y14228D02*
D03*
Y17968D02*
D03*
Y21709D02*
D03*
X21189Y14228D02*
D03*
Y21709D02*
D03*
D22*
X104331Y164370D02*
D03*
X98425D02*
D03*
X104331Y224410D02*
D03*
X110236D02*
D03*
X80079Y319394D02*
D03*
X74173D02*
D03*
X93947Y319400D02*
D03*
X99853D02*
D03*
X54488Y236394D02*
D03*
X60394D02*
D03*
X65945Y4921D02*
D03*
X71850D02*
D03*
D23*
X21819Y5968D02*
D03*
X28905D02*
D03*
Y29969D02*
D03*
X21819D02*
D03*
D24*
X66929Y157205D02*
D03*
Y152205D02*
D03*
Y147205D02*
D03*
Y142205D02*
D03*
Y137205D02*
D03*
Y132205D02*
D03*
Y127205D02*
D03*
Y122205D02*
D03*
Y117205D02*
D03*
Y112205D02*
D03*
X104331Y157205D02*
D03*
Y152205D02*
D03*
Y147205D02*
D03*
Y142205D02*
D03*
Y137205D02*
D03*
Y132205D02*
D03*
Y127205D02*
D03*
Y122205D02*
D03*
Y117205D02*
D03*
Y112205D02*
D03*
Y172008D02*
D03*
Y177008D02*
D03*
Y182008D02*
D03*
Y187008D02*
D03*
Y192008D02*
D03*
Y197008D02*
D03*
Y202008D02*
D03*
Y207008D02*
D03*
Y212008D02*
D03*
Y217008D02*
D03*
X66929Y172008D02*
D03*
Y177008D02*
D03*
Y182008D02*
D03*
Y187008D02*
D03*
Y192008D02*
D03*
Y197008D02*
D03*
Y202008D02*
D03*
Y207008D02*
D03*
Y212008D02*
D03*
Y217008D02*
D03*
D25*
X32480Y238386D02*
D03*
X28638Y245866D02*
D03*
X36118D02*
D03*
X18016Y238386D02*
D03*
X14173Y245866D02*
D03*
X21654D02*
D03*
D26*
X13353Y329068D02*
D03*
X11384D02*
D03*
X9416D02*
D03*
X7447D02*
D03*
X13353Y325132D02*
D03*
X11384D02*
D03*
X9416D02*
D03*
X7447D02*
D03*
M02*
