G04*
G04 #@! TF.GenerationSoftware,Altium Limited,Altium Designer,21.0.9 (235)*
G04*
G04 Layer_Physical_Order=2*
G04 Layer_Color=16711680*
%FSLAX25Y25*%
%MOIN*%
G70*
G04*
G04 #@! TF.SameCoordinates,ED66E9C7-4F28-4913-B563-96F2E2C7BF46*
G04*
G04*
G04 #@! TF.FilePolarity,Positive*
G04*
G01*
G75*
%ADD10C,0.03937*%
%ADD12C,0.00984*%
%ADD44C,0.01181*%
%ADD45C,0.01968*%
%ADD46C,0.06693*%
%ADD47R,0.06693X0.06693*%
%ADD48O,0.07874X0.05512*%
%ADD49O,0.09843X0.06299*%
%ADD50R,0.09843X0.06299*%
%ADD51R,0.06693X0.06693*%
%ADD52C,0.01968*%
%ADD53C,0.03937*%
G36*
X139284Y324888D02*
X139720Y324708D01*
X140112Y324446D01*
X140446Y324112D01*
X140708Y323720D01*
X140888Y323284D01*
X140980Y322822D01*
X140980Y322586D01*
Y312052D01*
X140754Y311920D01*
X140480Y311867D01*
X138701Y313646D01*
X138278Y313929D01*
X137779Y314028D01*
X137388D01*
X137012Y314404D01*
X137203Y314866D01*
X139134D01*
Y323134D01*
X130866D01*
Y314866D01*
X133695D01*
Y314571D01*
X133795Y314072D01*
X134078Y313648D01*
X135925Y311801D01*
X136175Y311634D01*
X136023Y311134D01*
X130866D01*
Y310509D01*
X130366Y310302D01*
X127950Y312718D01*
X127495Y313022D01*
X126957Y313129D01*
X103043D01*
X102505Y313022D01*
X102050Y312718D01*
X99007Y309675D01*
X98899Y309514D01*
X98311Y309533D01*
X98308Y309538D01*
X97538Y310308D01*
X96596Y310852D01*
X95544Y311134D01*
X94456D01*
X93404Y310852D01*
X92462Y310308D01*
X91692Y309538D01*
X91148Y308596D01*
X90866Y307544D01*
Y306456D01*
X91148Y305404D01*
X91692Y304462D01*
X92462Y303692D01*
X93404Y303148D01*
X94456Y302866D01*
X95544D01*
X96596Y303148D01*
X97538Y303692D01*
X97728Y303882D01*
X98228Y303675D01*
Y303648D01*
X98498Y302996D01*
X98996Y302498D01*
X99216Y302407D01*
X99117Y301907D01*
X82938D01*
X80305Y304540D01*
Y305798D01*
X80805Y305864D01*
X80950Y305322D01*
X81522Y304331D01*
X82331Y303522D01*
X83322Y302950D01*
X84428Y302654D01*
X84500D01*
Y307000D01*
Y311347D01*
X84428D01*
X83322Y311050D01*
X82331Y310478D01*
X81522Y309669D01*
X80950Y308678D01*
X80742Y307904D01*
X80229Y307921D01*
X80205Y308041D01*
X79922Y308465D01*
X75525Y312862D01*
X75483Y313415D01*
X75669Y313522D01*
X76478Y314331D01*
X77050Y315322D01*
X77346Y316428D01*
Y316500D01*
X68654D01*
Y316428D01*
X68950Y315322D01*
X69522Y314331D01*
X70049Y313805D01*
X69841Y313305D01*
X66158D01*
X65951Y313805D01*
X66478Y314331D01*
X67050Y315322D01*
X67347Y316428D01*
Y316500D01*
X58653D01*
Y316428D01*
X58950Y315322D01*
X59522Y314331D01*
X60049Y313805D01*
X59842Y313305D01*
X56159D01*
X55951Y313805D01*
X56478Y314331D01*
X57050Y315322D01*
X57346Y316428D01*
Y316500D01*
X48654D01*
Y316428D01*
X48950Y315322D01*
X49522Y314331D01*
X50049Y313805D01*
X49841Y313305D01*
X46158D01*
X45951Y313805D01*
X46478Y314331D01*
X47050Y315322D01*
X47346Y316428D01*
Y316500D01*
X38654D01*
Y316428D01*
X38950Y315322D01*
X39522Y314331D01*
X40049Y313805D01*
X39841Y313305D01*
X27000D01*
X26501Y313205D01*
X26077Y312923D01*
X6927Y293772D01*
X6648D01*
X5996Y293502D01*
X5498Y293004D01*
X5228Y292352D01*
Y291648D01*
X5498Y290996D01*
X5996Y290498D01*
X6648Y290228D01*
X7352D01*
X8004Y290498D01*
X8502Y290996D01*
X8772Y291648D01*
Y291927D01*
X27540Y310695D01*
X38866D01*
Y302866D01*
X45147D01*
X56809Y291204D01*
X57265Y290900D01*
X57802Y290793D01*
X75388D01*
X75485Y290696D01*
X76136Y290426D01*
X76841D01*
X77492Y290696D01*
X77990Y291194D01*
X78260Y291845D01*
Y292537D01*
X78612D01*
X79263Y292807D01*
X79286Y292830D01*
X79706Y292553D01*
X79711Y292548D01*
Y291845D01*
X79981Y291194D01*
X80479Y290696D01*
X81130Y290426D01*
X81835D01*
X82486Y290696D01*
X82985Y291194D01*
X83254Y291845D01*
Y292550D01*
X82985Y293201D01*
X82833Y293353D01*
Y294481D01*
X82726Y295019D01*
X82421Y295475D01*
X79934Y297962D01*
X79478Y298267D01*
X78940Y298374D01*
X73614D01*
X66753Y305234D01*
X66852Y305404D01*
X67134Y306456D01*
Y307544D01*
X66852Y308596D01*
X66308Y309538D01*
X65651Y310195D01*
X65810Y310695D01*
X70190D01*
X70349Y310195D01*
X69692Y309538D01*
X69148Y308596D01*
X68866Y307544D01*
Y306456D01*
X69148Y305404D01*
X69692Y304462D01*
X70462Y303692D01*
X71404Y303148D01*
X72456Y302866D01*
X73544D01*
X74596Y303148D01*
X75538Y303692D01*
X76308Y304462D01*
X76852Y305404D01*
X77103Y306342D01*
X77419Y306532D01*
X77634Y306589D01*
X77695Y306548D01*
Y304000D01*
X77795Y303501D01*
X78078Y303078D01*
X81011Y300144D01*
X81019Y300103D01*
X81302Y299680D01*
X81725Y299397D01*
X82224Y299298D01*
X86676D01*
X87086Y298798D01*
X87073Y298732D01*
Y294457D01*
X87047Y294430D01*
X86777Y293779D01*
Y293074D01*
X87047Y292423D01*
X87545Y291925D01*
X87752Y291839D01*
X87869Y291249D01*
X81684Y285064D01*
X66051D01*
X65773Y285480D01*
X65791Y285524D01*
X61910D01*
X61928Y285480D01*
X61650Y285064D01*
X27336D01*
X27218Y285237D01*
X27505Y285704D01*
X28118Y285623D01*
X30480D01*
X31405Y285745D01*
X32267Y286102D01*
X33007Y286670D01*
X33575Y287410D01*
X33932Y288272D01*
X34054Y289197D01*
X33932Y290122D01*
X33575Y290984D01*
X33007Y291724D01*
X32267Y292292D01*
X31405Y292649D01*
X30480Y292771D01*
X28118D01*
X27193Y292649D01*
X26331Y292292D01*
X25591Y291724D01*
X25023Y290984D01*
X24666Y290122D01*
X24544Y289197D01*
X24666Y288272D01*
X24667Y288269D01*
X24243Y287986D01*
X23074Y289155D01*
X22651Y289438D01*
X22152Y289537D01*
X9499D01*
X8999Y289438D01*
X8576Y289155D01*
X3814Y284392D01*
X3531Y283969D01*
X3432Y283470D01*
Y272264D01*
X3531Y271764D01*
X3695Y271518D01*
Y251201D01*
X3498Y251004D01*
X3228Y250352D01*
Y249648D01*
X3498Y248996D01*
X3996Y248498D01*
X4648Y248228D01*
X5352D01*
X6004Y248498D01*
X6502Y248996D01*
X6772Y249648D01*
Y250352D01*
X6502Y251004D01*
X6305Y251201D01*
Y272000D01*
X6205Y272499D01*
X6041Y272745D01*
Y276030D01*
X6457Y276308D01*
X6648Y276228D01*
X7352D01*
X8004Y276498D01*
X8502Y276996D01*
X8772Y277648D01*
Y277660D01*
X8807Y277695D01*
X16052D01*
X16205Y277195D01*
X15591Y276724D01*
X15023Y275984D01*
X14666Y275122D01*
X14544Y274197D01*
X14666Y273272D01*
X15023Y272410D01*
X15591Y271670D01*
X16331Y271102D01*
X17193Y270745D01*
X18118Y270623D01*
X20480D01*
X21405Y270745D01*
X22267Y271102D01*
X23007Y271670D01*
X23575Y272410D01*
X23932Y273272D01*
X24054Y274197D01*
X23932Y275122D01*
X23931Y275125D01*
X24355Y275408D01*
X25524Y274239D01*
X25947Y273956D01*
X26447Y273857D01*
X74656D01*
X75155Y273956D01*
X75578Y274239D01*
X81755Y280416D01*
X81846Y280398D01*
X82010Y279855D01*
X74916Y272761D01*
X70321D01*
X70123Y272959D01*
X69472Y273228D01*
X68767D01*
X68116Y272959D01*
X67618Y272460D01*
X67348Y271809D01*
Y271104D01*
X67618Y270453D01*
X68116Y269955D01*
X68767Y269685D01*
X69472D01*
X70123Y269955D01*
X70321Y270152D01*
X75457D01*
X75956Y270251D01*
X76379Y270534D01*
X94540Y288695D01*
X107197D01*
X107696Y288795D01*
X108120Y289077D01*
X109570Y290528D01*
X109849D01*
X110500Y290798D01*
X110999Y291296D01*
X111268Y291947D01*
Y292652D01*
X110999Y293303D01*
X110990Y293312D01*
X111181Y293774D01*
X129466D01*
X129744Y293358D01*
X129665Y293167D01*
Y292463D01*
X129934Y291811D01*
X130132Y291614D01*
Y290810D01*
X118456Y279134D01*
X118177D01*
X117526Y278864D01*
X117027Y278366D01*
X116758Y277715D01*
Y277010D01*
X117027Y276359D01*
X117526Y275860D01*
X118177Y275590D01*
X118882D01*
X119533Y275860D01*
X120031Y276359D01*
X120301Y277010D01*
Y277289D01*
X132359Y289347D01*
X132641Y289770D01*
X132741Y290269D01*
Y291614D01*
X132938Y291811D01*
X133208Y292463D01*
Y292520D01*
X133438Y292710D01*
X135185D01*
X135382Y292512D01*
X136033Y292243D01*
X136738D01*
X136932Y292323D01*
X137432Y291989D01*
Y276677D01*
X137241Y276598D01*
X136742Y276100D01*
X136472Y275449D01*
Y274744D01*
X136742Y274093D01*
X137241Y273594D01*
X137892Y273325D01*
X138596D01*
X138788Y273404D01*
X139203Y273126D01*
Y270842D01*
X138155Y269793D01*
X137876D01*
X137225Y269524D01*
X136726Y269025D01*
X136457Y268374D01*
Y267669D01*
X136726Y267018D01*
X137225Y266520D01*
X137876Y266250D01*
X138581D01*
X139232Y266520D01*
X139730Y267018D01*
X140000Y267669D01*
Y267948D01*
X140518Y268467D01*
X140980Y268276D01*
Y256155D01*
X140591Y256032D01*
X140480Y256025D01*
X140004Y256502D01*
X139352Y256772D01*
X138939D01*
X136583Y259128D01*
X136160Y259411D01*
X135661Y259510D01*
X131046D01*
X130855Y259972D01*
X130879Y259996D01*
X131149Y260648D01*
Y260927D01*
X133923Y263700D01*
X134205Y264123D01*
X134305Y264622D01*
Y267147D01*
X134339Y267181D01*
X134608Y267833D01*
Y268537D01*
X134339Y269189D01*
X133840Y269687D01*
X133189Y269957D01*
X132484D01*
X131833Y269687D01*
X131335Y269189D01*
X131065Y268537D01*
X130589Y268595D01*
Y270749D01*
X132916Y273076D01*
X133195D01*
X133846Y273346D01*
X134344Y273844D01*
X134614Y274496D01*
Y275200D01*
X134344Y275852D01*
X133846Y276350D01*
X133195Y276620D01*
X132490D01*
X131839Y276350D01*
X131341Y275852D01*
X131071Y275200D01*
Y274921D01*
X128362Y272212D01*
X128079Y271789D01*
X127980Y271290D01*
Y265823D01*
X127782Y265626D01*
X127513Y264975D01*
Y264270D01*
X127782Y263619D01*
X128281Y263121D01*
X128421Y263063D01*
Y262521D01*
X128374Y262502D01*
X127876Y262004D01*
X127606Y261352D01*
Y260648D01*
X127876Y259996D01*
X127900Y259972D01*
X127709Y259510D01*
X117765D01*
X117666Y260010D01*
X118004Y260150D01*
X118502Y260648D01*
X118772Y261299D01*
Y262004D01*
X118502Y262655D01*
X118305Y262853D01*
Y263904D01*
X133149Y278748D01*
X133428D01*
X134079Y279018D01*
X134577Y279516D01*
X134847Y280167D01*
Y280872D01*
X134577Y281523D01*
X134079Y282022D01*
X133428Y282291D01*
X132723D01*
X132072Y282022D01*
X131573Y281523D01*
X131304Y280872D01*
Y280593D01*
X116077Y265367D01*
X115805Y264958D01*
X115765Y264950D01*
X115305Y265042D01*
Y266873D01*
X133116Y284684D01*
X133395D01*
X134046Y284954D01*
X134544Y285452D01*
X134814Y286103D01*
Y286808D01*
X134544Y287459D01*
X134046Y287958D01*
X133395Y288227D01*
X132690D01*
X132039Y287958D01*
X131540Y287459D01*
X131271Y286808D01*
Y286529D01*
X113077Y268336D01*
X112795Y267913D01*
X112695Y267413D01*
Y264201D01*
X112498Y264004D01*
X112228Y263352D01*
Y262648D01*
X112498Y261996D01*
X112996Y261498D01*
X113648Y261228D01*
X114352D01*
X114728Y261384D01*
X115151Y261313D01*
X115302Y261122D01*
X115498Y260648D01*
X115669Y260477D01*
X115662Y260317D01*
X115516Y259923D01*
X114996Y259707D01*
X114498Y259209D01*
X114228Y258558D01*
Y257853D01*
X114304Y257672D01*
X114026Y257256D01*
X103560D01*
X103353Y257756D01*
X103682Y258085D01*
X103941Y258709D01*
X100059D01*
X100318Y258085D01*
X100647Y257756D01*
X100440Y257256D01*
X96354D01*
X96163Y257718D01*
X115036Y276590D01*
X115427Y277176D01*
X115565Y277868D01*
Y281500D01*
X115530Y281674D01*
Y281852D01*
X115462Y282016D01*
X115427Y282191D01*
X115328Y282339D01*
X115260Y282503D01*
X115134Y282629D01*
X115036Y282777D01*
X114888Y282876D01*
X114762Y283002D01*
X114597Y283070D01*
X114450Y283169D01*
X114275Y283203D01*
X114111Y283271D01*
X113933D01*
X113758Y283306D01*
X113584Y283271D01*
X113406D01*
X113242Y283203D01*
X113067Y283169D01*
X112919Y283070D01*
X112755Y283002D01*
X112629Y282876D01*
X112481Y282777D01*
X112382Y282629D01*
X112256Y282503D01*
X112188Y282339D01*
X112089Y282191D01*
X112055Y282016D01*
X111987Y281852D01*
Y281674D01*
X111952Y281500D01*
Y278616D01*
X98325Y264989D01*
X97825Y265196D01*
Y265436D01*
X97523Y266166D01*
X96965Y266724D01*
X96341Y266982D01*
Y265042D01*
X95341D01*
Y266982D01*
X94717Y266724D01*
X94197Y266204D01*
X94021Y266223D01*
X93697Y266357D01*
Y268095D01*
X105324Y279723D01*
X105423Y279871D01*
X105549Y279996D01*
X105617Y280161D01*
X105716Y280309D01*
X105751Y280483D01*
X105819Y280648D01*
Y280825D01*
X105854Y281000D01*
X105819Y281174D01*
Y281352D01*
X105751Y281517D01*
X105716Y281691D01*
X105617Y281839D01*
X105549Y282004D01*
X105423Y282129D01*
X105324Y282277D01*
X105177Y282376D01*
X105051Y282502D01*
X104886Y282570D01*
X104738Y282669D01*
X104564Y282704D01*
X104400Y282772D01*
X104222D01*
X104047Y282806D01*
X103873Y282772D01*
X103695D01*
X103531Y282704D01*
X103356Y282669D01*
X103208Y282570D01*
X103044Y282502D01*
X102918Y282376D01*
X102770Y282277D01*
X96274Y275781D01*
X95784Y275879D01*
X95682Y276124D01*
X95124Y276682D01*
X94500Y276941D01*
Y275000D01*
X94000D01*
Y274500D01*
X92059D01*
X92318Y273876D01*
X92876Y273318D01*
X93121Y273216D01*
X93219Y272726D01*
X90613Y270121D01*
X90222Y269535D01*
X90084Y268843D01*
Y257256D01*
X84839D01*
X84740Y257756D01*
X85124Y257915D01*
X85682Y258473D01*
X85941Y259097D01*
X82059D01*
X82318Y258473D01*
X82876Y257915D01*
X83260Y257756D01*
X83161Y257256D01*
X72933D01*
X72655Y257672D01*
X72742Y257882D01*
Y258367D01*
X72742Y258587D01*
X73183Y258829D01*
X73352D01*
X74004Y259099D01*
X74502Y259597D01*
X74772Y260248D01*
Y260953D01*
X74502Y261604D01*
X74004Y262103D01*
X73352Y262372D01*
X72648D01*
X72541Y262328D01*
X72258Y262752D01*
X72502Y262996D01*
X72772Y263648D01*
Y264352D01*
X72502Y265004D01*
X72004Y265502D01*
X71352Y265772D01*
X71073D01*
X68923Y267922D01*
X68499Y268205D01*
X68000Y268305D01*
X46282D01*
X45783Y268205D01*
X45360Y267922D01*
X44119Y266682D01*
X43846D01*
X43195Y266412D01*
X42697Y265914D01*
X42427Y265263D01*
Y264558D01*
X42697Y263907D01*
X43195Y263408D01*
X43846Y263139D01*
X44551D01*
X44905Y263285D01*
X45488Y263184D01*
X45898Y262774D01*
X46038Y262207D01*
X45914Y262082D01*
X45644Y261431D01*
Y260726D01*
X45914Y260075D01*
X46304Y259685D01*
X45912Y259292D01*
X45642Y258641D01*
Y257936D01*
X45912Y257285D01*
X46334Y256863D01*
X45994Y256523D01*
X45724Y255872D01*
Y255167D01*
X45994Y254516D01*
X46492Y254017D01*
X47144Y253747D01*
X47848D01*
X48500Y254017D01*
X48697Y254215D01*
X50259D01*
X50758Y254314D01*
X50894Y254404D01*
X60751D01*
X65228Y249927D01*
Y249648D01*
X65498Y248996D01*
X65844Y248650D01*
X65318Y248124D01*
X65059Y247500D01*
X68941D01*
X68682Y248124D01*
X68156Y248650D01*
X68502Y248996D01*
X68772Y249648D01*
Y250352D01*
X68659Y250624D01*
X68858Y250922D01*
X69509Y251192D01*
X70007Y251690D01*
X70277Y252341D01*
Y253046D01*
X70202Y253227D01*
X70480Y253643D01*
X81568D01*
X81647Y253176D01*
X80917Y252874D01*
X80359Y252316D01*
X80101Y251692D01*
X82041D01*
Y251192D01*
X82541D01*
Y249246D01*
X82822Y248826D01*
X71802Y237806D01*
X70746D01*
X70468Y238222D01*
X70543Y238404D01*
Y239108D01*
X70274Y239759D01*
X70017Y240016D01*
X69825Y240342D01*
X70017Y240669D01*
X70274Y240926D01*
X70543Y241577D01*
Y242282D01*
X70274Y242933D01*
X69775Y243431D01*
X69124Y243701D01*
X68419D01*
X67768Y243431D01*
X67571Y243234D01*
X57789D01*
X57511Y243650D01*
X57591Y243841D01*
Y244545D01*
X57321Y245197D01*
X56823Y245695D01*
X56519Y245820D01*
X56078Y246062D01*
Y246851D01*
X55776Y247581D01*
X55218Y248139D01*
X54594Y248397D01*
Y246457D01*
X54094D01*
Y245957D01*
X52153D01*
X52171Y245913D01*
X51893Y245497D01*
X50724D01*
X50225Y245398D01*
X49802Y245115D01*
X41078Y236391D01*
X40795Y235968D01*
X40695Y235469D01*
Y226201D01*
X40498Y226004D01*
X40228Y225352D01*
Y224648D01*
X40498Y223996D01*
X40996Y223498D01*
X41648Y223228D01*
X42187D01*
X42228Y223167D01*
Y222462D01*
X42498Y221811D01*
X42996Y221312D01*
X43648Y221043D01*
X44352D01*
X45004Y221312D01*
X45502Y221811D01*
X45772Y222462D01*
Y222607D01*
X46041Y222817D01*
X46531Y222597D01*
Y222462D01*
X46801Y221811D01*
X47299Y221312D01*
X47951Y221043D01*
X48655D01*
X49306Y221312D01*
X49805Y221811D01*
X50075Y222462D01*
Y223167D01*
X49836Y223744D01*
X49861Y223851D01*
X50209Y223996D01*
X50438Y223982D01*
X50528Y223892D01*
X51179Y223622D01*
X51884D01*
X52535Y223892D01*
X53033Y224390D01*
X53303Y225041D01*
Y225320D01*
X63728Y235746D01*
X63960Y235700D01*
X64260Y235571D01*
X64296Y235483D01*
X64331Y235309D01*
X64430Y235161D01*
X64498Y234996D01*
X64624Y234871D01*
X64723Y234723D01*
X64871Y234624D01*
X64996Y234498D01*
X65161Y234430D01*
X65309Y234331D01*
X65483Y234296D01*
X65648Y234228D01*
X65825D01*
X66000Y234194D01*
X71804D01*
X71904Y233694D01*
X71876Y233682D01*
X71318Y233124D01*
X71059Y232500D01*
X73000D01*
Y232000D01*
X73500D01*
Y230059D01*
X74124Y230318D01*
X74611Y230805D01*
X74679Y230855D01*
X74863Y230858D01*
X75201Y230823D01*
X75211Y230809D01*
X75359Y230711D01*
X75485Y230585D01*
X75649Y230517D01*
X75748Y230450D01*
X75813Y230340D01*
X75895Y229943D01*
X75884Y229878D01*
X75077Y229072D01*
X74795Y228649D01*
X74695Y228150D01*
Y207311D01*
X74795Y206812D01*
X75077Y206389D01*
X75752Y205714D01*
X75561Y205252D01*
X73500D01*
Y200905D01*
X72500D01*
Y205252D01*
X68654D01*
Y205055D01*
X63500D01*
Y200905D01*
Y196756D01*
X68070D01*
X68277Y196256D01*
X66480Y194459D01*
X65799Y194741D01*
X64772Y194877D01*
X61228D01*
X60201Y194741D01*
X59243Y194344D01*
X58420Y193713D01*
X57789Y192891D01*
X57393Y191933D01*
X57257Y190905D01*
X57393Y189878D01*
X57789Y188920D01*
X58420Y188098D01*
X59243Y187467D01*
X60201Y187070D01*
X61228Y186934D01*
X64772D01*
X65799Y187070D01*
X66757Y187467D01*
X67580Y188098D01*
X68211Y188920D01*
X68529Y189688D01*
X69056Y189654D01*
X69148Y189310D01*
X69692Y188367D01*
X70462Y187598D01*
X70915Y187336D01*
X70781Y186836D01*
X69398D01*
X68898Y186737D01*
X68475Y186454D01*
X66480Y184459D01*
X65799Y184741D01*
X64772Y184877D01*
X61228D01*
X60201Y184741D01*
X59243Y184344D01*
X58420Y183713D01*
X57789Y182891D01*
X57393Y181933D01*
X57257Y180905D01*
X57393Y179878D01*
X57789Y178920D01*
X58420Y178098D01*
X59243Y177467D01*
X60201Y177070D01*
X61228Y176935D01*
X64772D01*
X65799Y177070D01*
X66757Y177467D01*
X67580Y178098D01*
X68211Y178920D01*
X68529Y179688D01*
X69056Y179654D01*
X69148Y179310D01*
X69692Y178367D01*
X70293Y177766D01*
X70086Y177266D01*
X69827D01*
X69328Y177166D01*
X68905Y176884D01*
X66480Y174459D01*
X65799Y174741D01*
X64772Y174876D01*
X61228D01*
X60201Y174741D01*
X59243Y174345D01*
X58420Y173713D01*
X57789Y172891D01*
X57393Y171933D01*
X57257Y170905D01*
X57393Y169878D01*
X57789Y168920D01*
X58420Y168098D01*
X59243Y167467D01*
X60201Y167070D01*
X61228Y166935D01*
X64772D01*
X65799Y167070D01*
X66757Y167467D01*
X67580Y168098D01*
X68211Y168920D01*
X68529Y169688D01*
X69056Y169654D01*
X69148Y169310D01*
X69692Y168367D01*
X70462Y167598D01*
X70915Y167336D01*
X70781Y166836D01*
X69398D01*
X68898Y166737D01*
X68475Y166454D01*
X66480Y164459D01*
X65799Y164741D01*
X64772Y164876D01*
X61228D01*
X60201Y164741D01*
X59243Y164345D01*
X58420Y163713D01*
X57789Y162891D01*
X57393Y161933D01*
X57257Y160906D01*
X57393Y159878D01*
X57789Y158920D01*
X58420Y158098D01*
X59243Y157467D01*
X60201Y157070D01*
X61228Y156934D01*
X64772D01*
X65799Y157070D01*
X66757Y157467D01*
X67580Y158098D01*
X68211Y158920D01*
X68529Y159688D01*
X69056Y159654D01*
X69148Y159310D01*
X69692Y158367D01*
X70462Y157598D01*
X70915Y157336D01*
X70781Y156836D01*
X69398D01*
X68898Y156737D01*
X68475Y156454D01*
X66480Y154459D01*
X65799Y154741D01*
X64772Y154876D01*
X61228D01*
X60201Y154741D01*
X59243Y154344D01*
X58420Y153713D01*
X57789Y152891D01*
X57393Y151933D01*
X57257Y150906D01*
X57393Y149878D01*
X57789Y148920D01*
X58420Y148098D01*
X59243Y147467D01*
X60201Y147070D01*
X61228Y146934D01*
X64772D01*
X65799Y147070D01*
X66757Y147467D01*
X67580Y148098D01*
X68211Y148920D01*
X68529Y149688D01*
X69056Y149654D01*
X69148Y149310D01*
X69692Y148367D01*
X69995Y148064D01*
X69831Y147521D01*
X69646Y147485D01*
X69223Y147202D01*
X66480Y144459D01*
X65799Y144741D01*
X64772Y144877D01*
X61228D01*
X60201Y144741D01*
X59243Y144344D01*
X58420Y143713D01*
X57789Y142891D01*
X57393Y141933D01*
X57257Y140905D01*
X57393Y139878D01*
X57789Y138920D01*
X58420Y138098D01*
X59243Y137467D01*
X60201Y137070D01*
X61228Y136934D01*
X64772D01*
X65799Y137070D01*
X66757Y137467D01*
X67580Y138098D01*
X68211Y138920D01*
X68529Y139688D01*
X69056Y139654D01*
X69148Y139310D01*
X69692Y138367D01*
X69995Y138064D01*
X69831Y137522D01*
X69646Y137485D01*
X69223Y137202D01*
X66480Y134459D01*
X65799Y134741D01*
X64772Y134877D01*
X61228D01*
X60201Y134741D01*
X59243Y134344D01*
X58420Y133713D01*
X57789Y132891D01*
X57393Y131933D01*
X57257Y130905D01*
X57393Y129878D01*
X57789Y128920D01*
X58420Y128098D01*
X59243Y127467D01*
X60201Y127070D01*
X61228Y126935D01*
X64772D01*
X65799Y127070D01*
X66757Y127467D01*
X67580Y128098D01*
X68211Y128920D01*
X68529Y129688D01*
X69056Y129654D01*
X69148Y129310D01*
X69692Y128367D01*
X69995Y128064D01*
X69831Y127522D01*
X69646Y127485D01*
X69223Y127202D01*
X66480Y124459D01*
X65799Y124741D01*
X64772Y124876D01*
X61228D01*
X60201Y124741D01*
X59243Y124345D01*
X58420Y123713D01*
X57789Y122891D01*
X57393Y121933D01*
X57257Y120905D01*
X57393Y119878D01*
X57789Y118920D01*
X58420Y118098D01*
X59243Y117467D01*
X60201Y117070D01*
X61228Y116935D01*
X64772D01*
X65799Y117070D01*
X66757Y117467D01*
X67580Y118098D01*
X68211Y118920D01*
X68529Y119688D01*
X69056Y119654D01*
X69148Y119310D01*
X69692Y118367D01*
X70462Y117598D01*
X70915Y117336D01*
X70781Y116836D01*
X69398D01*
X68898Y116737D01*
X68475Y116454D01*
X66480Y114459D01*
X65799Y114741D01*
X64772Y114876D01*
X61228D01*
X60201Y114741D01*
X59243Y114345D01*
X58420Y113713D01*
X57789Y112891D01*
X57393Y111933D01*
X57257Y110906D01*
X57393Y109878D01*
X57789Y108920D01*
X58420Y108098D01*
X59243Y107467D01*
X60201Y107070D01*
X61228Y106934D01*
X64772D01*
X65799Y107070D01*
X66757Y107467D01*
X67580Y108098D01*
X68211Y108920D01*
X68529Y109688D01*
X69056Y109654D01*
X69148Y109310D01*
X69692Y108367D01*
X70462Y107598D01*
X70915Y107336D01*
X70781Y106836D01*
X69398D01*
X68898Y106737D01*
X68475Y106454D01*
X66480Y104459D01*
X65799Y104741D01*
X64772Y104876D01*
X61228D01*
X60201Y104741D01*
X59243Y104344D01*
X58420Y103713D01*
X57789Y102891D01*
X57393Y101933D01*
X57257Y100906D01*
X57393Y99878D01*
X57789Y98920D01*
X58420Y98098D01*
X59243Y97466D01*
X60201Y97070D01*
X61228Y96934D01*
X64772D01*
X65799Y97070D01*
X66757Y97466D01*
X67580Y98098D01*
X68211Y98920D01*
X68529Y99688D01*
X69056Y99654D01*
X69148Y99310D01*
X69692Y98367D01*
X70462Y97598D01*
X71404Y97053D01*
X72456Y96772D01*
X73544D01*
X74596Y97053D01*
X75538Y97598D01*
X76308Y98367D01*
X76852Y99310D01*
X77134Y100361D01*
Y101450D01*
X76852Y102501D01*
X76308Y103444D01*
X75538Y104213D01*
X75452Y104263D01*
X75370Y104888D01*
X113233Y142752D01*
X113695Y142561D01*
Y79540D01*
X112927Y78772D01*
X112648D01*
X111996Y78502D01*
X111498Y78004D01*
X111228Y77352D01*
Y76648D01*
X111498Y75996D01*
X111996Y75498D01*
X112648Y75228D01*
X113352D01*
X114004Y75498D01*
X114502Y75996D01*
X114772Y76648D01*
Y76927D01*
X115922Y78078D01*
X116205Y78501D01*
X116305Y79000D01*
Y200420D01*
X116775Y200891D01*
X117285Y200694D01*
X117393Y199878D01*
X117789Y198920D01*
X118420Y198098D01*
X119243Y197467D01*
X120201Y197070D01*
X121228Y196934D01*
X124772D01*
X125799Y197070D01*
X126757Y197467D01*
X127580Y198098D01*
X128211Y198920D01*
X128366Y199295D01*
X128866Y199196D01*
Y196772D01*
X137134D01*
Y205039D01*
X128866D01*
Y202615D01*
X128366Y202516D01*
X128211Y202891D01*
X127580Y203713D01*
X126757Y204345D01*
X126149Y204596D01*
X126031Y205186D01*
X140111Y219266D01*
X140381Y219670D01*
X140398Y219691D01*
X140480Y219722D01*
X140980Y219375D01*
X140980Y14657D01*
Y13829D01*
X140764Y12186D01*
X140336Y10586D01*
X139701Y9055D01*
X138873Y7621D01*
X137865Y6307D01*
X136693Y5135D01*
X135379Y4127D01*
X133944Y3299D01*
X132414Y2664D01*
X130814Y2236D01*
X129171Y2019D01*
X89826D01*
X89692Y2520D01*
X89874Y2625D01*
X90427Y3177D01*
X90817Y3854D01*
X90990Y4500D01*
X85112D01*
X85285Y3854D01*
X85676Y3177D01*
X86229Y2625D01*
X86410Y2520D01*
X86277Y2019D01*
X31665D01*
X30487Y2019D01*
X28150Y2327D01*
X25873Y2937D01*
X23696Y3839D01*
X21655Y5018D01*
X19785Y6453D01*
X18118Y8119D01*
X16683Y9989D01*
X15505Y12030D01*
X14603Y14208D01*
X13993Y16485D01*
X13685Y18822D01*
Y20000D01*
Y35244D01*
X14147Y35435D01*
X28634Y20948D01*
X29058Y20665D01*
X29557Y20565D01*
X35262D01*
X35761Y20665D01*
X36185Y20948D01*
X37056Y21819D01*
X37530Y21586D01*
X37506Y21406D01*
X41909D01*
Y24694D01*
X41228D01*
X40248Y24565D01*
X39427Y24225D01*
X39123Y24354D01*
X38931Y24507D01*
Y27304D01*
X39123Y27457D01*
X39427Y27586D01*
X40248Y27246D01*
X41228Y27117D01*
X41909D01*
Y30406D01*
X37506D01*
X37530Y30226D01*
X37056Y29992D01*
X34890Y32158D01*
X34987Y32649D01*
X35377Y32810D01*
X36118Y33378D01*
X36686Y34119D01*
X37043Y34980D01*
X37164Y35906D01*
X37043Y36830D01*
X36686Y37692D01*
X36118Y38433D01*
X35377Y39001D01*
X34516Y39358D01*
X33591Y39479D01*
X31228D01*
X30303Y39358D01*
X29441Y39001D01*
X28701Y38433D01*
X28133Y37692D01*
X27776Y36830D01*
X27654Y35906D01*
X27776Y34980D01*
X28133Y34119D01*
X28701Y33378D01*
X29441Y32810D01*
X30303Y32453D01*
X31228Y32332D01*
X31831D01*
Y32067D01*
X31931Y31568D01*
X32214Y31144D01*
X33379Y29979D01*
X33172Y29479D01*
X31228D01*
X30303Y29358D01*
X29821Y29158D01*
X17708Y41270D01*
Y56927D01*
X18170Y57119D01*
X27976Y47313D01*
X27776Y46830D01*
X27654Y45906D01*
X27776Y44980D01*
X28133Y44119D01*
X28701Y43378D01*
X29441Y42810D01*
X30303Y42453D01*
X31228Y42332D01*
X33591D01*
X34516Y42453D01*
X35377Y42810D01*
X36118Y43378D01*
X36686Y44119D01*
X37043Y44980D01*
X37164Y45906D01*
X37043Y46830D01*
X36686Y47692D01*
X36118Y48433D01*
X35377Y49001D01*
X34516Y49358D01*
X33591Y49479D01*
X31228D01*
X30303Y49358D01*
X29821Y49158D01*
X19480Y59499D01*
Y69309D01*
X19942Y69501D01*
X29766Y59676D01*
X29649Y59087D01*
X29441Y59001D01*
X28701Y58433D01*
X28133Y57692D01*
X27776Y56831D01*
X27654Y55905D01*
X27776Y54980D01*
X28133Y54119D01*
X28701Y53378D01*
X29441Y52811D01*
X30303Y52453D01*
X31228Y52332D01*
X33591D01*
X34516Y52453D01*
X35377Y52811D01*
X36118Y53378D01*
X36686Y54119D01*
X37043Y54980D01*
X37164Y55905D01*
X37043Y56831D01*
X36686Y57692D01*
X36118Y58433D01*
X35377Y59001D01*
X34516Y59358D01*
X33591Y59479D01*
X32632D01*
Y59961D01*
X32532Y60460D01*
X32250Y60883D01*
X31301Y61832D01*
X31508Y62332D01*
X33591D01*
X34516Y62453D01*
X35377Y62810D01*
X36118Y63378D01*
X36686Y64119D01*
X37043Y64981D01*
X37164Y65905D01*
X37043Y66830D01*
X36686Y67692D01*
X36118Y68433D01*
X35377Y69001D01*
X34516Y69358D01*
X33591Y69479D01*
X32632D01*
Y69961D01*
X32532Y70460D01*
X32250Y70883D01*
X31301Y71832D01*
X31508Y72332D01*
X33591D01*
X34516Y72453D01*
X35377Y72811D01*
X36118Y73378D01*
X36686Y74119D01*
X37043Y74980D01*
X37164Y75906D01*
X37043Y76831D01*
X36686Y77692D01*
X36118Y78433D01*
X35377Y79001D01*
X34516Y79358D01*
X33591Y79479D01*
X31228D01*
X30303Y79358D01*
X29821Y79158D01*
X24795Y84184D01*
Y89841D01*
X25257Y90032D01*
X27976Y87313D01*
X27776Y86831D01*
X27654Y85905D01*
X27776Y84980D01*
X28133Y84119D01*
X28701Y83378D01*
X29441Y82810D01*
X30303Y82453D01*
X31228Y82332D01*
X33591D01*
X34516Y82453D01*
X35377Y82810D01*
X36118Y83378D01*
X36216Y83507D01*
X36831Y83487D01*
X36890Y83399D01*
X37976Y82313D01*
X37776Y81831D01*
X37655Y80905D01*
X37776Y79980D01*
X38133Y79119D01*
X38701Y78378D01*
X39441Y77811D01*
X40303Y77453D01*
X41228Y77332D01*
X43591D01*
X44516Y77453D01*
X45377Y77811D01*
X46118Y78378D01*
X46686Y79119D01*
X47043Y79980D01*
X47164Y80905D01*
X47043Y81831D01*
X46686Y82692D01*
X46118Y83433D01*
X45377Y84001D01*
X44516Y84358D01*
X43591Y84479D01*
X41228D01*
X40303Y84358D01*
X39821Y84158D01*
X39117Y84862D01*
Y87391D01*
X39108Y87436D01*
X39245Y87590D01*
X39552Y87765D01*
X40303Y87453D01*
X41228Y87332D01*
X43591D01*
X44516Y87453D01*
X45377Y87810D01*
X46118Y88378D01*
X46686Y89119D01*
X47043Y89981D01*
X47164Y90905D01*
X47043Y91830D01*
X46686Y92692D01*
X46118Y93433D01*
X45377Y94001D01*
X44516Y94358D01*
X43591Y94479D01*
X41228D01*
X40303Y94358D01*
X39441Y94001D01*
X38701Y93433D01*
X38133Y92692D01*
X37776Y91830D01*
X37655Y90905D01*
X37776Y89981D01*
X37777Y89978D01*
X37354Y89694D01*
X35313Y91735D01*
X34890Y92018D01*
X34807Y92034D01*
X34758Y92554D01*
X35377Y92810D01*
X36118Y93378D01*
X36686Y94119D01*
X37043Y94981D01*
X37164Y95906D01*
X37043Y96830D01*
X36686Y97692D01*
X36118Y98433D01*
X35377Y99001D01*
X34516Y99358D01*
X33591Y99479D01*
X31228D01*
X30303Y99358D01*
X29441Y99001D01*
X28838Y98538D01*
X28338Y98728D01*
Y103083D01*
X28838Y103273D01*
X29441Y102810D01*
X30303Y102453D01*
X31228Y102332D01*
X33591D01*
X34516Y102453D01*
X35377Y102810D01*
X36118Y103378D01*
X36686Y104119D01*
X37043Y104981D01*
X37164Y105905D01*
X37043Y106831D01*
X36686Y107693D01*
X36118Y108433D01*
X35377Y109001D01*
X34516Y109358D01*
X33591Y109479D01*
X31228D01*
X30303Y109358D01*
X29441Y109001D01*
X28838Y108538D01*
X28338Y108728D01*
Y113083D01*
X28838Y113273D01*
X29441Y112810D01*
X30303Y112453D01*
X31228Y112332D01*
X33591D01*
X34516Y112453D01*
X35377Y112810D01*
X36118Y113378D01*
X36686Y114119D01*
X37043Y114980D01*
X37164Y115905D01*
X37043Y116831D01*
X36686Y117692D01*
X36118Y118433D01*
X35377Y119001D01*
X34516Y119358D01*
X33591Y119479D01*
X31228D01*
X30303Y119358D01*
X29441Y119001D01*
X28838Y118538D01*
X28338Y118728D01*
Y123083D01*
X28838Y123273D01*
X29441Y122810D01*
X30303Y122453D01*
X31228Y122332D01*
X33591D01*
X34516Y122453D01*
X35377Y122810D01*
X36118Y123378D01*
X36686Y124119D01*
X37043Y124980D01*
X37164Y125906D01*
X37043Y126830D01*
X36686Y127692D01*
X36118Y128433D01*
X35377Y129001D01*
X34516Y129358D01*
X33591Y129479D01*
X31228D01*
X30303Y129358D01*
X29441Y129001D01*
X28838Y128538D01*
X28338Y128728D01*
Y143467D01*
X32588Y147718D01*
X33647Y148776D01*
X33941D01*
X34440Y148875D01*
X34863Y149158D01*
X37934Y152228D01*
X38352D01*
X39004Y152498D01*
X39502Y152996D01*
X39772Y153648D01*
Y154352D01*
X39502Y155004D01*
X39004Y155502D01*
X38352Y155772D01*
X37648D01*
X37095Y155543D01*
X36812Y155966D01*
X39073Y158228D01*
X39573D01*
X40224Y158498D01*
X40722Y158996D01*
X40992Y159648D01*
Y160352D01*
X40722Y161004D01*
X40224Y161502D01*
X39573Y161772D01*
X38868D01*
X38217Y161502D01*
X37718Y161004D01*
X37449Y160352D01*
Y160294D01*
X36454Y159299D01*
X35936Y159488D01*
X35722Y160004D01*
X35224Y160502D01*
X34573Y160772D01*
X33868D01*
X33217Y160502D01*
X32719Y160004D01*
X32449Y159352D01*
Y159168D01*
X31454Y158173D01*
X30973Y158399D01*
X30722Y159004D01*
X30224Y159502D01*
X29573Y159772D01*
X28868D01*
X28217Y159502D01*
X27718Y159004D01*
X27449Y158352D01*
Y157947D01*
X26412Y156910D01*
X25822Y157027D01*
X25722Y157267D01*
X25224Y157766D01*
X24573Y158035D01*
X23868D01*
X23217Y157766D01*
X22718Y157267D01*
X22449Y156616D01*
Y156402D01*
X21233Y155187D01*
X20809Y155470D01*
X20992Y155911D01*
Y156616D01*
X20722Y157267D01*
X20224Y157766D01*
X19573Y158035D01*
X18868D01*
X18217Y157766D01*
X18208Y157757D01*
X17708Y157964D01*
Y161517D01*
X22887Y166695D01*
X43799D01*
X43996Y166498D01*
X44648Y166228D01*
X45352D01*
X46004Y166498D01*
X46502Y166996D01*
X46581Y167188D01*
X47071Y167285D01*
X48456Y165901D01*
X48228Y165352D01*
Y164648D01*
X48498Y163996D01*
X48996Y163498D01*
X49648Y163228D01*
X50352D01*
X51004Y163498D01*
X51502Y163996D01*
X51772Y164648D01*
Y165352D01*
X51502Y166004D01*
X51116Y166389D01*
Y166390D01*
X51017Y166889D01*
X50734Y167312D01*
X46860Y171186D01*
X46437Y171469D01*
X45938Y171568D01*
X22105D01*
X21606Y171469D01*
X21182Y171186D01*
X13377Y163381D01*
X13094Y162958D01*
X12995Y162458D01*
Y152186D01*
X12579Y151908D01*
X12500Y151941D01*
Y150000D01*
Y148059D01*
X12579Y148092D01*
X12995Y147814D01*
Y137355D01*
X12495Y137255D01*
X12281Y137772D01*
X11722Y138330D01*
X11098Y138589D01*
Y136648D01*
Y134707D01*
X11722Y134966D01*
X12281Y135524D01*
X12495Y136041D01*
X12995Y135941D01*
Y125010D01*
X12495Y124859D01*
X12151Y125373D01*
X12080Y125444D01*
X12024Y125527D01*
X11193Y126359D01*
X11109Y126415D01*
X11038Y126486D01*
X10060Y127139D01*
X9967Y127178D01*
X9884Y127234D01*
X8797Y127684D01*
X8699Y127703D01*
X8606Y127742D01*
X7452Y127971D01*
X7377D01*
X7304Y127989D01*
X6715Y128018D01*
X6705Y128017D01*
X6695Y128019D01*
X6221Y128033D01*
X5296Y128244D01*
X4430Y128632D01*
X3657Y129182D01*
X3006Y129871D01*
X2502Y130675D01*
X2164Y131561D01*
X2005Y132497D01*
X2019Y132971D01*
X2017Y132985D01*
X2019Y133000D01*
Y309001D01*
X2019Y310048D01*
X2293Y312122D01*
X2834Y314144D01*
X3635Y316077D01*
X4681Y317889D01*
X5955Y319549D01*
X7435Y321029D01*
X9095Y322303D01*
X10907Y323349D01*
X12840Y324150D01*
X14862Y324692D01*
X17003Y324973D01*
X17031Y324983D01*
X17983D01*
X138586Y325000D01*
X138723D01*
X139284Y324888D01*
D02*
G37*
G36*
X127755Y256401D02*
X127513Y255816D01*
Y255112D01*
X127782Y254461D01*
X127900Y254343D01*
X127693Y253842D01*
X127569D01*
X126918Y253573D01*
X126420Y253074D01*
X126150Y252423D01*
Y251718D01*
X126420Y251067D01*
X126918Y250569D01*
X127569Y250299D01*
X128274D01*
X128925Y250569D01*
X129122Y250766D01*
X134310D01*
X134409Y250266D01*
X134342Y250238D01*
X133843Y249740D01*
X133601Y249154D01*
X133213Y249315D01*
X132509D01*
X131857Y249045D01*
X131359Y248547D01*
X131089Y247896D01*
Y247342D01*
X130555D01*
X129904Y247073D01*
X129406Y246574D01*
X129136Y245923D01*
Y245218D01*
X129274Y244886D01*
X128640Y244624D01*
X128142Y244126D01*
X127872Y243474D01*
Y242770D01*
X128142Y242118D01*
X128640Y241620D01*
X129291Y241350D01*
X129442D01*
X129736Y241056D01*
Y240343D01*
X129785Y240100D01*
Y239585D01*
X129323Y239394D01*
X128844Y239872D01*
X128421Y240155D01*
X128139Y240211D01*
X128000Y240547D01*
X127502Y241045D01*
X126850Y241315D01*
X126146D01*
X125495Y241045D01*
X124996Y240547D01*
X124726Y239896D01*
Y239191D01*
X124996Y238540D01*
X125311Y238225D01*
X125454Y237777D01*
X125417Y237532D01*
X125212Y237038D01*
Y236334D01*
X125338Y236031D01*
X121457Y232151D01*
X121320D01*
X120669Y231881D01*
X120572Y231784D01*
X118607D01*
X118277Y232277D01*
X97373Y253181D01*
X97565Y253643D01*
X100355D01*
X100633Y253227D01*
X100559Y253050D01*
X104441D01*
X104367Y253227D01*
X104645Y253643D01*
X117638D01*
X117641Y253642D01*
X117819D01*
X117994Y253607D01*
X118168Y253642D01*
X118346D01*
X118510Y253710D01*
X118685Y253745D01*
X118833Y253843D01*
X118997Y253911D01*
X119123Y254037D01*
X119271Y254136D01*
X119370Y254284D01*
X119496Y254410D01*
X119564Y254574D01*
X119662Y254722D01*
X119697Y254897D01*
X119765Y255061D01*
Y255239D01*
X119800Y255413D01*
X119765Y255588D01*
Y255766D01*
X119697Y255930D01*
X119662Y256105D01*
X119564Y256253D01*
X119496Y256417D01*
X119697Y256866D01*
X119732Y256901D01*
X127562D01*
X127755Y256401D01*
D02*
G37*
G36*
X95179Y250266D02*
X94896Y249843D01*
X94659Y249941D01*
Y248500D01*
X96100D01*
X96001Y248737D01*
X96425Y249020D01*
X115194Y230252D01*
Y220071D01*
X115228Y219896D01*
Y219718D01*
X115273Y219612D01*
X115208Y219440D01*
X114995Y219164D01*
X114913Y219112D01*
X114308D01*
X113809Y219012D01*
X113386Y218729D01*
X101676Y207020D01*
X101393Y206596D01*
X101294Y206097D01*
Y156836D01*
X75219D01*
X75085Y157336D01*
X75538Y157598D01*
X76308Y158367D01*
X76852Y159310D01*
X77134Y160361D01*
Y161450D01*
X76852Y162501D01*
X76308Y163444D01*
X75538Y164213D01*
X75452Y164263D01*
X75370Y164888D01*
X83922Y173441D01*
X84205Y173864D01*
X84305Y174363D01*
Y213837D01*
X84205Y214336D01*
X83922Y214759D01*
X83909Y214773D01*
X84116Y215273D01*
X84462D01*
X85191Y215575D01*
X85749Y216134D01*
X86008Y216758D01*
X84067D01*
Y217758D01*
X86008D01*
X85749Y218382D01*
X85191Y218940D01*
X84863Y219076D01*
Y219617D01*
X85071Y219703D01*
X85569Y220201D01*
X85839Y220852D01*
Y221557D01*
X85569Y222208D01*
X85071Y222707D01*
X84419Y222977D01*
X83795D01*
Y228896D01*
X83896Y228996D01*
X84165Y229648D01*
Y230352D01*
X83896Y231004D01*
X83397Y231502D01*
X82746Y231772D01*
X82041D01*
X81390Y231502D01*
X81238Y231349D01*
X81200Y231345D01*
X80677Y231496D01*
X80494Y231939D01*
X79995Y232437D01*
X79344Y232707D01*
X78640D01*
X78294Y232937D01*
Y235740D01*
X93705Y251150D01*
X94282Y251163D01*
X95179Y250266D01*
D02*
G37*
G36*
X102959Y154113D02*
X103003Y153630D01*
X96957Y147584D01*
X76232D01*
X76025Y148084D01*
X76308Y148367D01*
X76852Y149310D01*
X77134Y150361D01*
Y151450D01*
X76852Y152501D01*
X76308Y153444D01*
X76025Y153727D01*
X76232Y154227D01*
X102022D01*
X102521Y154326D01*
X102529Y154332D01*
X102959Y154113D01*
D02*
G37*
G36*
X96391Y144513D02*
X89462Y137584D01*
X76232D01*
X76025Y138084D01*
X76308Y138367D01*
X76852Y139310D01*
X77134Y140361D01*
Y141450D01*
X76852Y142501D01*
X76308Y143444D01*
X75538Y144213D01*
X75085Y144475D01*
X75219Y144975D01*
X96200D01*
X96391Y144513D01*
D02*
G37*
G36*
X88897Y134513D02*
X81968Y127584D01*
X76232D01*
X76025Y128084D01*
X76308Y128367D01*
X76852Y129310D01*
X77134Y130361D01*
Y131450D01*
X76852Y132501D01*
X76308Y133444D01*
X75538Y134213D01*
X75085Y134475D01*
X75219Y134975D01*
X88705D01*
X88897Y134513D01*
D02*
G37*
%LPC*%
G36*
X115572Y323346D02*
X115500D01*
Y319500D01*
X119346D01*
Y319572D01*
X119050Y320678D01*
X118478Y321669D01*
X117669Y322478D01*
X116678Y323050D01*
X115572Y323346D01*
D02*
G37*
G36*
X114500D02*
X114428D01*
X113322Y323050D01*
X112331Y322478D01*
X111522Y321669D01*
X110950Y320678D01*
X110653Y319572D01*
Y319500D01*
X114500D01*
Y323346D01*
D02*
G37*
G36*
X73572Y321346D02*
X73500D01*
Y317500D01*
X77346D01*
Y317572D01*
X77050Y318678D01*
X76478Y319669D01*
X75669Y320478D01*
X74678Y321050D01*
X73572Y321346D01*
D02*
G37*
G36*
X72500D02*
X72428D01*
X71322Y321050D01*
X70331Y320478D01*
X69522Y319669D01*
X68950Y318678D01*
X68654Y317572D01*
Y317500D01*
X72500D01*
Y321346D01*
D02*
G37*
G36*
X63572D02*
X63500D01*
Y317500D01*
X67347D01*
Y317572D01*
X67050Y318678D01*
X66478Y319669D01*
X65669Y320478D01*
X64678Y321050D01*
X63572Y321346D01*
D02*
G37*
G36*
X62500D02*
X62428D01*
X61322Y321050D01*
X60331Y320478D01*
X59522Y319669D01*
X58950Y318678D01*
X58653Y317572D01*
Y317500D01*
X62500D01*
Y321346D01*
D02*
G37*
G36*
X53572D02*
X53500D01*
Y317500D01*
X57346D01*
Y317572D01*
X57050Y318678D01*
X56478Y319669D01*
X55669Y320478D01*
X54678Y321050D01*
X53572Y321346D01*
D02*
G37*
G36*
X52500D02*
X52428D01*
X51322Y321050D01*
X50331Y320478D01*
X49522Y319669D01*
X48950Y318678D01*
X48654Y317572D01*
Y317500D01*
X52500D01*
Y321346D01*
D02*
G37*
G36*
X43572D02*
X43500D01*
Y317500D01*
X47346D01*
Y317572D01*
X47050Y318678D01*
X46478Y319669D01*
X45669Y320478D01*
X44678Y321050D01*
X43572Y321346D01*
D02*
G37*
G36*
X42500D02*
X42428D01*
X41322Y321050D01*
X40331Y320478D01*
X39522Y319669D01*
X38950Y318678D01*
X38654Y317572D01*
Y317500D01*
X42500D01*
Y321346D01*
D02*
G37*
G36*
X125544Y323134D02*
X124456D01*
X123404Y322852D01*
X122462Y322308D01*
X121692Y321538D01*
X121148Y320596D01*
X120866Y319544D01*
Y318456D01*
X121148Y317404D01*
X121692Y316462D01*
X122462Y315692D01*
X123404Y315148D01*
X124456Y314866D01*
X125544D01*
X126596Y315148D01*
X127538Y315692D01*
X128308Y316462D01*
X128852Y317404D01*
X129134Y318456D01*
Y319544D01*
X128852Y320596D01*
X128308Y321538D01*
X127538Y322308D01*
X126596Y322852D01*
X125544Y323134D01*
D02*
G37*
G36*
X119346Y318500D02*
X115500D01*
Y314653D01*
X115572D01*
X116678Y314950D01*
X117669Y315522D01*
X118478Y316331D01*
X119050Y317322D01*
X119346Y318428D01*
Y318500D01*
D02*
G37*
G36*
X114500D02*
X110653D01*
Y318428D01*
X110950Y317322D01*
X111522Y316331D01*
X112331Y315522D01*
X113322Y314950D01*
X114428Y314653D01*
X114500D01*
Y318500D01*
D02*
G37*
G36*
X9500Y311941D02*
Y310500D01*
X10941D01*
X10682Y311124D01*
X10124Y311682D01*
X9500Y311941D01*
D02*
G37*
G36*
X8500D02*
X7876Y311682D01*
X7318Y311124D01*
X7059Y310500D01*
X8500D01*
Y311941D01*
D02*
G37*
G36*
X10941Y309500D02*
X9500D01*
Y308059D01*
X10124Y308318D01*
X10682Y308876D01*
X10941Y309500D01*
D02*
G37*
G36*
X8500D02*
X7059D01*
X7318Y308876D01*
X7876Y308318D01*
X8500Y308059D01*
Y309500D01*
D02*
G37*
G36*
X85572Y311347D02*
X85500D01*
Y307500D01*
X89346D01*
Y307572D01*
X89050Y308678D01*
X88478Y309669D01*
X87669Y310478D01*
X86678Y311050D01*
X85572Y311347D01*
D02*
G37*
G36*
X29799Y304941D02*
Y303500D01*
X31240D01*
X30981Y304124D01*
X30423Y304682D01*
X29799Y304941D01*
D02*
G37*
G36*
X28799D02*
X28175Y304682D01*
X27617Y304124D01*
X27359Y303500D01*
X28799D01*
Y304941D01*
D02*
G37*
G36*
X89346Y306500D02*
X85500D01*
Y302654D01*
X85572D01*
X86678Y302950D01*
X87669Y303522D01*
X88478Y304331D01*
X89050Y305322D01*
X89346Y306428D01*
Y306500D01*
D02*
G37*
G36*
X31240Y302500D02*
X29799D01*
Y301059D01*
X30423Y301318D01*
X30981Y301876D01*
X31240Y302500D01*
D02*
G37*
G36*
X28799D02*
X27359D01*
X27617Y301876D01*
X28175Y301318D01*
X28799Y301059D01*
Y302500D01*
D02*
G37*
G36*
X20480Y297771D02*
X18118D01*
X17193Y297649D01*
X16331Y297292D01*
X15591Y296724D01*
X15023Y295984D01*
X14666Y295122D01*
X14544Y294197D01*
X14666Y293272D01*
X15023Y292410D01*
X15591Y291670D01*
X16331Y291102D01*
X17193Y290745D01*
X18118Y290623D01*
X20480D01*
X21405Y290745D01*
X22267Y291102D01*
X23007Y291670D01*
X23575Y292410D01*
X23932Y293272D01*
X24054Y294197D01*
X23932Y295122D01*
X23575Y295984D01*
X23007Y296724D01*
X22267Y297292D01*
X21405Y297649D01*
X20480Y297771D01*
D02*
G37*
G36*
X120172Y288002D02*
Y286561D01*
X121613D01*
X121354Y287185D01*
X120796Y287743D01*
X120172Y288002D01*
D02*
G37*
G36*
X119172D02*
X118548Y287743D01*
X117990Y287185D01*
X117731Y286561D01*
X119172D01*
Y288002D01*
D02*
G37*
G36*
X64350Y287964D02*
Y286524D01*
X65791D01*
X65533Y287148D01*
X64974Y287706D01*
X64350Y287964D01*
D02*
G37*
G36*
X63350D02*
X62726Y287706D01*
X62168Y287148D01*
X61910Y286524D01*
X63350D01*
Y287964D01*
D02*
G37*
G36*
X121613Y285561D02*
X120172D01*
Y284121D01*
X120796Y284379D01*
X121354Y284937D01*
X121613Y285561D01*
D02*
G37*
G36*
X119172D02*
X117731D01*
X117990Y284937D01*
X118548Y284379D01*
X119172Y284121D01*
Y285561D01*
D02*
G37*
G36*
X93500Y276941D02*
X92876Y276682D01*
X92318Y276124D01*
X92059Y275500D01*
X93500D01*
Y276941D01*
D02*
G37*
G36*
X30480Y272771D02*
X28118D01*
X27193Y272649D01*
X26331Y272292D01*
X25591Y271724D01*
X25023Y270984D01*
X24666Y270122D01*
X24544Y269197D01*
X24666Y268272D01*
X25023Y267410D01*
X25591Y266670D01*
X26331Y266102D01*
X27193Y265745D01*
X28118Y265623D01*
X30480D01*
X31405Y265745D01*
X32267Y266102D01*
X33007Y266670D01*
X33575Y267410D01*
X33932Y268272D01*
X34054Y269197D01*
X33932Y270122D01*
X33575Y270984D01*
X33007Y271724D01*
X32267Y272292D01*
X31405Y272649D01*
X30480Y272771D01*
D02*
G37*
G36*
X20480Y267771D02*
X18118D01*
X17193Y267649D01*
X16331Y267292D01*
X15591Y266724D01*
X15023Y265984D01*
X14666Y265122D01*
X14544Y264197D01*
X14666Y263272D01*
X15023Y262410D01*
X15591Y261670D01*
X16331Y261102D01*
X17193Y260745D01*
X18118Y260623D01*
X20480D01*
X21405Y260745D01*
X22267Y261102D01*
X23007Y261670D01*
X23575Y262410D01*
X23932Y263272D01*
X24054Y264197D01*
X23932Y265122D01*
X23575Y265984D01*
X23007Y266724D01*
X22267Y267292D01*
X21405Y267649D01*
X20480Y267771D01*
D02*
G37*
G36*
X84500Y261538D02*
Y260097D01*
X85941D01*
X85682Y260721D01*
X85124Y261279D01*
X84500Y261538D01*
D02*
G37*
G36*
X83500D02*
X82876Y261279D01*
X82318Y260721D01*
X82059Y260097D01*
X83500D01*
Y261538D01*
D02*
G37*
G36*
X102500Y261150D02*
Y259709D01*
X103941D01*
X103682Y260333D01*
X103124Y260891D01*
X102500Y261150D01*
D02*
G37*
G36*
X101500D02*
X100876Y260891D01*
X100318Y260333D01*
X100059Y259709D01*
X101500D01*
Y261150D01*
D02*
G37*
G36*
X30480Y262771D02*
X28118D01*
X27193Y262649D01*
X26331Y262292D01*
X25591Y261724D01*
X25023Y260984D01*
X24666Y260122D01*
X24544Y259197D01*
X24666Y258272D01*
X25023Y257410D01*
X25591Y256670D01*
X26331Y256102D01*
X27193Y255745D01*
X28118Y255623D01*
X30480D01*
X31405Y255745D01*
X32267Y256102D01*
X33007Y256670D01*
X33575Y257410D01*
X33932Y258272D01*
X34054Y259197D01*
X33932Y260122D01*
X33575Y260984D01*
X33007Y261724D01*
X32267Y262292D01*
X31405Y262649D01*
X30480Y262771D01*
D02*
G37*
G36*
X20480Y257771D02*
X18118D01*
X17193Y257649D01*
X16331Y257292D01*
X15591Y256724D01*
X15023Y255984D01*
X14666Y255122D01*
X14544Y254197D01*
X14666Y253272D01*
X15023Y252410D01*
X15591Y251670D01*
X16331Y251102D01*
X17193Y250745D01*
X18118Y250623D01*
X20110D01*
X20318Y250124D01*
X20059Y249500D01*
X23941D01*
X23682Y250124D01*
X23124Y250682D01*
X22746Y250839D01*
X22670Y251411D01*
X23007Y251670D01*
X23575Y252410D01*
X23932Y253272D01*
X24054Y254197D01*
X23932Y255122D01*
X23575Y255984D01*
X23007Y256724D01*
X22267Y257292D01*
X21405Y257649D01*
X20480Y257771D01*
D02*
G37*
G36*
X81541Y250692D02*
X80101D01*
X80359Y250068D01*
X80917Y249510D01*
X81541Y249251D01*
Y250692D01*
D02*
G37*
G36*
X23941Y248500D02*
X22500D01*
Y247059D01*
X23124Y247318D01*
X23682Y247876D01*
X23941Y248500D01*
D02*
G37*
G36*
X21500D02*
X20059D01*
X20318Y247876D01*
X20876Y247318D01*
X21500Y247059D01*
Y248500D01*
D02*
G37*
G36*
X53594Y248397D02*
X52970Y248139D01*
X52412Y247581D01*
X52153Y246957D01*
X53594D01*
Y248397D01*
D02*
G37*
G36*
X30480Y252771D02*
X28118D01*
X27193Y252649D01*
X26331Y252292D01*
X25591Y251724D01*
X25023Y250984D01*
X24666Y250122D01*
X24544Y249197D01*
X24666Y248272D01*
X25023Y247410D01*
X25591Y246670D01*
X26331Y246102D01*
X27193Y245745D01*
X28118Y245623D01*
X30480D01*
X31405Y245745D01*
X32267Y246102D01*
X33007Y246670D01*
X33575Y247410D01*
X33932Y248272D01*
X34054Y249197D01*
X33932Y250122D01*
X33575Y250984D01*
X33007Y251724D01*
X32267Y252292D01*
X31405Y252649D01*
X30480Y252771D01*
D02*
G37*
G36*
X68941Y246500D02*
X67500D01*
Y245059D01*
X68124Y245318D01*
X68682Y245876D01*
X68941Y246500D01*
D02*
G37*
G36*
X66500D02*
X65059D01*
X65318Y245876D01*
X65876Y245318D01*
X66500Y245059D01*
Y246500D01*
D02*
G37*
G36*
X17260Y239941D02*
Y238500D01*
X18700D01*
X18442Y239124D01*
X17884Y239682D01*
X17260Y239941D01*
D02*
G37*
G36*
X16260D02*
X15636Y239682D01*
X15078Y239124D01*
X14819Y238500D01*
X16260D01*
Y239941D01*
D02*
G37*
G36*
X18700Y237500D02*
X17260D01*
Y236059D01*
X17884Y236318D01*
X18442Y236876D01*
X18700Y237500D01*
D02*
G37*
G36*
X16260D02*
X14819D01*
X15078Y236876D01*
X15636Y236318D01*
X16260Y236059D01*
Y237500D01*
D02*
G37*
G36*
X72500Y231500D02*
X71059D01*
X71318Y230876D01*
X71876Y230318D01*
X72500Y230059D01*
Y231500D01*
D02*
G37*
G36*
X18500Y221941D02*
Y220500D01*
X19941D01*
X19682Y221124D01*
X19124Y221682D01*
X18500Y221941D01*
D02*
G37*
G36*
X17500D02*
X16876Y221682D01*
X16318Y221124D01*
X16059Y220500D01*
X17500D01*
Y221941D01*
D02*
G37*
G36*
X19941Y219500D02*
X18500D01*
Y218059D01*
X19124Y218318D01*
X19682Y218876D01*
X19941Y219500D01*
D02*
G37*
G36*
X17500D02*
X16059D01*
X16318Y218876D01*
X16876Y218318D01*
X17500Y218059D01*
Y219500D01*
D02*
G37*
G36*
X58500Y218941D02*
Y217500D01*
X59941D01*
X59682Y218124D01*
X59124Y218682D01*
X58500Y218941D01*
D02*
G37*
G36*
X57500D02*
X56876Y218682D01*
X56318Y218124D01*
X56059Y217500D01*
X57500D01*
Y218941D01*
D02*
G37*
G36*
X59941Y216500D02*
X58500D01*
Y215059D01*
X59124Y215318D01*
X59682Y215876D01*
X59941Y216500D01*
D02*
G37*
G36*
X57500D02*
X56059D01*
X56318Y215876D01*
X56876Y215318D01*
X57500Y215059D01*
Y216500D01*
D02*
G37*
G36*
X134885Y211941D02*
Y210500D01*
X136326D01*
X136067Y211124D01*
X135509Y211682D01*
X134885Y211941D01*
D02*
G37*
G36*
X133885D02*
X133261Y211682D01*
X132703Y211124D01*
X132445Y210500D01*
X133885D01*
Y211941D01*
D02*
G37*
G36*
X136326Y209500D02*
X134885D01*
Y208059D01*
X135509Y208318D01*
X136067Y208876D01*
X136326Y209500D01*
D02*
G37*
G36*
X133885D02*
X132445D01*
X132703Y208876D01*
X133261Y208318D01*
X133885Y208059D01*
Y209500D01*
D02*
G37*
G36*
X62500Y205055D02*
X57079D01*
Y201406D01*
X62500D01*
Y205055D01*
D02*
G37*
G36*
Y200406D02*
X57079D01*
Y196756D01*
X62500D01*
Y200406D01*
D02*
G37*
G36*
X55594Y194941D02*
Y193500D01*
X57035D01*
X56777Y194124D01*
X56218Y194682D01*
X55594Y194941D01*
D02*
G37*
G36*
X54594D02*
X53970Y194682D01*
X53412Y194124D01*
X53154Y193500D01*
X54594D01*
Y194941D01*
D02*
G37*
G36*
X133544Y195039D02*
X132456D01*
X131404Y194758D01*
X130462Y194213D01*
X129692Y193444D01*
X129148Y192501D01*
X129056Y192157D01*
X128529Y192123D01*
X128211Y192891D01*
X127580Y193713D01*
X126757Y194344D01*
X125799Y194741D01*
X124772Y194877D01*
X121228D01*
X120201Y194741D01*
X119243Y194344D01*
X118420Y193713D01*
X117789Y192891D01*
X117393Y191933D01*
X117257Y190905D01*
X117393Y189878D01*
X117789Y188920D01*
X118420Y188098D01*
X119243Y187467D01*
X120201Y187070D01*
X121228Y186934D01*
X124772D01*
X125799Y187070D01*
X126757Y187467D01*
X127580Y188098D01*
X128211Y188920D01*
X128529Y189688D01*
X129056Y189654D01*
X129148Y189310D01*
X129692Y188367D01*
X130462Y187598D01*
X131404Y187053D01*
X132456Y186772D01*
X133544D01*
X134596Y187053D01*
X135538Y187598D01*
X136308Y188367D01*
X136852Y189310D01*
X137134Y190361D01*
Y191450D01*
X136852Y192501D01*
X136308Y193444D01*
X135538Y194213D01*
X134596Y194758D01*
X133544Y195039D01*
D02*
G37*
G36*
X57035Y192500D02*
X55594D01*
Y191059D01*
X56218Y191318D01*
X56777Y191876D01*
X57035Y192500D01*
D02*
G37*
G36*
X54594D02*
X53154D01*
X53412Y191876D01*
X53970Y191318D01*
X54594Y191059D01*
Y192500D01*
D02*
G37*
G36*
X133544Y185039D02*
X132456D01*
X131404Y184758D01*
X130462Y184213D01*
X129692Y183444D01*
X129148Y182501D01*
X129056Y182157D01*
X128529Y182123D01*
X128211Y182891D01*
X127580Y183713D01*
X126757Y184344D01*
X125799Y184741D01*
X124772Y184877D01*
X121228D01*
X120201Y184741D01*
X119243Y184344D01*
X118420Y183713D01*
X117789Y182891D01*
X117393Y181933D01*
X117257Y180905D01*
X117393Y179878D01*
X117789Y178920D01*
X118420Y178098D01*
X119243Y177467D01*
X120201Y177070D01*
X121228Y176935D01*
X124772D01*
X125799Y177070D01*
X126757Y177467D01*
X127580Y178098D01*
X128211Y178920D01*
X128529Y179688D01*
X129056Y179654D01*
X129148Y179310D01*
X129692Y178367D01*
X130462Y177598D01*
X131404Y177053D01*
X132456Y176772D01*
X133544D01*
X134596Y177053D01*
X135538Y177598D01*
X136308Y178367D01*
X136852Y179310D01*
X137134Y180361D01*
Y181450D01*
X136852Y182501D01*
X136308Y183444D01*
X135538Y184213D01*
X134596Y184758D01*
X133544Y185039D01*
D02*
G37*
G36*
Y175039D02*
X132456D01*
X131404Y174758D01*
X130462Y174213D01*
X129692Y173444D01*
X129148Y172501D01*
X129056Y172157D01*
X128529Y172123D01*
X128211Y172891D01*
X127580Y173713D01*
X126757Y174345D01*
X125799Y174741D01*
X124772Y174876D01*
X121228D01*
X120201Y174741D01*
X119243Y174345D01*
X118420Y173713D01*
X117789Y172891D01*
X117393Y171933D01*
X117257Y170905D01*
X117393Y169878D01*
X117789Y168920D01*
X118420Y168098D01*
X119243Y167467D01*
X120201Y167070D01*
X121228Y166935D01*
X124772D01*
X125799Y167070D01*
X126757Y167467D01*
X127580Y168098D01*
X128211Y168920D01*
X128529Y169688D01*
X129056Y169654D01*
X129148Y169310D01*
X129692Y168367D01*
X130462Y167598D01*
X131404Y167053D01*
X132456Y166772D01*
X133544D01*
X134596Y167053D01*
X135538Y167598D01*
X136308Y168367D01*
X136852Y169310D01*
X137134Y170361D01*
Y171450D01*
X136852Y172501D01*
X136308Y173444D01*
X135538Y174213D01*
X134596Y174758D01*
X133544Y175039D01*
D02*
G37*
G36*
Y165039D02*
X132456D01*
X131404Y164758D01*
X130462Y164213D01*
X129692Y163444D01*
X129148Y162501D01*
X129056Y162157D01*
X128529Y162123D01*
X128211Y162891D01*
X127580Y163713D01*
X126757Y164345D01*
X125799Y164741D01*
X124772Y164876D01*
X121228D01*
X120201Y164741D01*
X119243Y164345D01*
X118420Y163713D01*
X117789Y162891D01*
X117393Y161933D01*
X117257Y160906D01*
X117393Y159878D01*
X117789Y158920D01*
X118420Y158098D01*
X119243Y157467D01*
X120201Y157070D01*
X121228Y156934D01*
X124772D01*
X125799Y157070D01*
X126757Y157467D01*
X127580Y158098D01*
X128211Y158920D01*
X128529Y159688D01*
X129056Y159654D01*
X129148Y159310D01*
X129692Y158367D01*
X130462Y157598D01*
X131404Y157053D01*
X132456Y156772D01*
X133544D01*
X134596Y157053D01*
X135538Y157598D01*
X136308Y158367D01*
X136852Y159310D01*
X137134Y160361D01*
Y161450D01*
X136852Y162501D01*
X136308Y163444D01*
X135538Y164213D01*
X134596Y164758D01*
X133544Y165039D01*
D02*
G37*
G36*
Y155039D02*
X132456D01*
X131404Y154758D01*
X130462Y154213D01*
X129692Y153444D01*
X129148Y152501D01*
X129056Y152157D01*
X128529Y152123D01*
X128211Y152891D01*
X127580Y153713D01*
X126757Y154344D01*
X125799Y154741D01*
X124772Y154876D01*
X121228D01*
X120201Y154741D01*
X119243Y154344D01*
X118420Y153713D01*
X117789Y152891D01*
X117393Y151933D01*
X117257Y150906D01*
X117393Y149878D01*
X117789Y148920D01*
X118420Y148098D01*
X119243Y147467D01*
X120201Y147070D01*
X121228Y146934D01*
X124772D01*
X125799Y147070D01*
X126757Y147467D01*
X127580Y148098D01*
X128211Y148920D01*
X128529Y149688D01*
X129056Y149654D01*
X129148Y149310D01*
X129692Y148367D01*
X130462Y147598D01*
X131404Y147053D01*
X132456Y146772D01*
X133544D01*
X134596Y147053D01*
X135538Y147598D01*
X136308Y148367D01*
X136852Y149310D01*
X137134Y150361D01*
Y151450D01*
X136852Y152501D01*
X136308Y153444D01*
X135538Y154213D01*
X134596Y154758D01*
X133544Y155039D01*
D02*
G37*
G36*
X11500Y151941D02*
X10876Y151682D01*
X10318Y151124D01*
X10059Y150500D01*
X11500D01*
Y151941D01*
D02*
G37*
G36*
Y149500D02*
X10059D01*
X10318Y148876D01*
X10876Y148318D01*
X11500Y148059D01*
Y149500D01*
D02*
G37*
G36*
X55500Y148220D02*
Y146780D01*
X56941D01*
X56682Y147404D01*
X56124Y147962D01*
X55500Y148220D01*
D02*
G37*
G36*
X54500D02*
X53876Y147962D01*
X53318Y147404D01*
X53059Y146780D01*
X54500D01*
Y148220D01*
D02*
G37*
G36*
X56941Y145780D02*
X55500D01*
Y144339D01*
X56124Y144597D01*
X56682Y145156D01*
X56941Y145780D01*
D02*
G37*
G36*
X54500D02*
X53059D01*
X53318Y145156D01*
X53876Y144597D01*
X54500Y144339D01*
Y145780D01*
D02*
G37*
G36*
X133544Y145039D02*
X132456D01*
X131404Y144758D01*
X130462Y144213D01*
X129692Y143444D01*
X129148Y142501D01*
X129056Y142157D01*
X128529Y142123D01*
X128211Y142891D01*
X127580Y143713D01*
X126757Y144344D01*
X125799Y144741D01*
X124772Y144877D01*
X121228D01*
X120201Y144741D01*
X119243Y144344D01*
X118420Y143713D01*
X117789Y142891D01*
X117393Y141933D01*
X117257Y140905D01*
X117393Y139878D01*
X117789Y138920D01*
X118420Y138098D01*
X119243Y137467D01*
X120201Y137070D01*
X121228Y136934D01*
X124772D01*
X125799Y137070D01*
X126757Y137467D01*
X127580Y138098D01*
X128211Y138920D01*
X128529Y139688D01*
X129056Y139654D01*
X129148Y139310D01*
X129692Y138367D01*
X130462Y137598D01*
X131404Y137053D01*
X132456Y136772D01*
X133544D01*
X134596Y137053D01*
X135538Y137598D01*
X136308Y138367D01*
X136852Y139310D01*
X137134Y140361D01*
Y141450D01*
X136852Y142501D01*
X136308Y143444D01*
X135538Y144213D01*
X134596Y144758D01*
X133544Y145039D01*
D02*
G37*
G36*
X10098Y138589D02*
X9474Y138330D01*
X8916Y137772D01*
X8658Y137148D01*
X10098D01*
Y138589D01*
D02*
G37*
G36*
Y136148D02*
X8658D01*
X8916Y135524D01*
X9474Y134966D01*
X10098Y134707D01*
Y136148D01*
D02*
G37*
G36*
X133544Y135039D02*
X132456D01*
X131404Y134758D01*
X130462Y134213D01*
X129692Y133444D01*
X129148Y132501D01*
X129056Y132157D01*
X128529Y132123D01*
X128211Y132891D01*
X127580Y133713D01*
X126757Y134344D01*
X125799Y134741D01*
X124772Y134877D01*
X121228D01*
X120201Y134741D01*
X119243Y134344D01*
X118420Y133713D01*
X117789Y132891D01*
X117393Y131933D01*
X117257Y130905D01*
X117393Y129878D01*
X117789Y128920D01*
X118420Y128098D01*
X119243Y127467D01*
X120201Y127070D01*
X121228Y126935D01*
X124772D01*
X125799Y127070D01*
X126757Y127467D01*
X127580Y128098D01*
X128211Y128920D01*
X128529Y129688D01*
X129056Y129654D01*
X129148Y129310D01*
X129692Y128367D01*
X130462Y127598D01*
X131404Y127053D01*
X132456Y126772D01*
X133544D01*
X134596Y127053D01*
X135538Y127598D01*
X136308Y128367D01*
X136852Y129310D01*
X137134Y130361D01*
Y131450D01*
X136852Y132501D01*
X136308Y133444D01*
X135538Y134213D01*
X134596Y134758D01*
X133544Y135039D01*
D02*
G37*
G36*
Y125039D02*
X132456D01*
X131404Y124758D01*
X130462Y124213D01*
X129692Y123444D01*
X129148Y122501D01*
X129056Y122157D01*
X128529Y122123D01*
X128211Y122891D01*
X127580Y123713D01*
X126757Y124345D01*
X125799Y124741D01*
X124772Y124876D01*
X121228D01*
X120201Y124741D01*
X119243Y124345D01*
X118420Y123713D01*
X117789Y122891D01*
X117393Y121933D01*
X117257Y120905D01*
X117393Y119878D01*
X117789Y118920D01*
X118420Y118098D01*
X119243Y117467D01*
X120201Y117070D01*
X121228Y116935D01*
X124772D01*
X125799Y117070D01*
X126757Y117467D01*
X127580Y118098D01*
X128211Y118920D01*
X128529Y119688D01*
X129056Y119654D01*
X129148Y119310D01*
X129692Y118367D01*
X130462Y117598D01*
X131404Y117053D01*
X132456Y116772D01*
X133544D01*
X134596Y117053D01*
X135538Y117598D01*
X136308Y118367D01*
X136852Y119310D01*
X137134Y120361D01*
Y121450D01*
X136852Y122501D01*
X136308Y123444D01*
X135538Y124213D01*
X134596Y124758D01*
X133544Y125039D01*
D02*
G37*
G36*
X43591Y124479D02*
X41228D01*
X40303Y124358D01*
X39441Y124001D01*
X38701Y123433D01*
X38133Y122693D01*
X37776Y121830D01*
X37655Y120905D01*
X37776Y119981D01*
X38133Y119119D01*
X38701Y118378D01*
X39441Y117810D01*
X40303Y117453D01*
X41228Y117332D01*
X43591D01*
X44516Y117453D01*
X45377Y117810D01*
X46118Y118378D01*
X46686Y119119D01*
X47043Y119981D01*
X47164Y120905D01*
X47043Y121830D01*
X46686Y122693D01*
X46118Y123433D01*
X45377Y124001D01*
X44516Y124358D01*
X43591Y124479D01*
D02*
G37*
G36*
X133544Y115039D02*
X132456D01*
X131404Y114758D01*
X130462Y114213D01*
X129692Y113444D01*
X129148Y112501D01*
X129056Y112157D01*
X128529Y112123D01*
X128211Y112891D01*
X127580Y113713D01*
X126757Y114345D01*
X125799Y114741D01*
X124772Y114876D01*
X121228D01*
X120201Y114741D01*
X119243Y114345D01*
X118420Y113713D01*
X117789Y112891D01*
X117393Y111933D01*
X117257Y110906D01*
X117393Y109878D01*
X117789Y108920D01*
X118420Y108098D01*
X119243Y107467D01*
X120201Y107070D01*
X121228Y106934D01*
X124772D01*
X125799Y107070D01*
X126757Y107467D01*
X127580Y108098D01*
X128211Y108920D01*
X128529Y109688D01*
X129056Y109654D01*
X129148Y109310D01*
X129692Y108367D01*
X130462Y107598D01*
X131404Y107053D01*
X132456Y106772D01*
X133544D01*
X134596Y107053D01*
X135538Y107598D01*
X136308Y108367D01*
X136852Y109310D01*
X137134Y110361D01*
Y111450D01*
X136852Y112501D01*
X136308Y113444D01*
X135538Y114213D01*
X134596Y114758D01*
X133544Y115039D01*
D02*
G37*
G36*
X43591Y114479D02*
X41228D01*
X40303Y114358D01*
X39441Y114001D01*
X38701Y113433D01*
X38133Y112692D01*
X37776Y111830D01*
X37655Y110906D01*
X37776Y109980D01*
X38133Y109119D01*
X38701Y108378D01*
X39441Y107810D01*
X40303Y107453D01*
X41228Y107332D01*
X43591D01*
X44516Y107453D01*
X45377Y107810D01*
X46118Y108378D01*
X46686Y109119D01*
X47043Y109980D01*
X47164Y110906D01*
X47043Y111830D01*
X46686Y112692D01*
X46118Y113433D01*
X45377Y114001D01*
X44516Y114358D01*
X43591Y114479D01*
D02*
G37*
G36*
X133544Y105039D02*
X132456D01*
X131404Y104758D01*
X130462Y104213D01*
X129692Y103444D01*
X129148Y102501D01*
X129056Y102157D01*
X128529Y102123D01*
X128211Y102891D01*
X127580Y103713D01*
X126757Y104344D01*
X125799Y104741D01*
X124772Y104876D01*
X121228D01*
X120201Y104741D01*
X119243Y104344D01*
X118420Y103713D01*
X117789Y102891D01*
X117393Y101933D01*
X117257Y100906D01*
X117393Y99878D01*
X117789Y98920D01*
X118420Y98098D01*
X119243Y97466D01*
X120201Y97070D01*
X121228Y96934D01*
X124772D01*
X125799Y97070D01*
X126757Y97466D01*
X127580Y98098D01*
X128211Y98920D01*
X128529Y99688D01*
X129056Y99654D01*
X129148Y99310D01*
X129692Y98367D01*
X130462Y97598D01*
X131404Y97053D01*
X132456Y96772D01*
X133544D01*
X134596Y97053D01*
X135538Y97598D01*
X136308Y98367D01*
X136852Y99310D01*
X137134Y100361D01*
Y101450D01*
X136852Y102501D01*
X136308Y103444D01*
X135538Y104213D01*
X134596Y104758D01*
X133544Y105039D01*
D02*
G37*
G36*
X43591Y104479D02*
X41228D01*
X40303Y104358D01*
X39441Y104001D01*
X38701Y103433D01*
X38133Y102692D01*
X37776Y101830D01*
X37655Y100906D01*
X37776Y99980D01*
X38133Y99119D01*
X38701Y98378D01*
X39441Y97811D01*
X40303Y97453D01*
X41228Y97332D01*
X43591D01*
X44516Y97453D01*
X45377Y97811D01*
X46118Y98378D01*
X46686Y99119D01*
X47043Y99980D01*
X47164Y100906D01*
X47043Y101830D01*
X46686Y102692D01*
X46118Y103433D01*
X45377Y104001D01*
X44516Y104358D01*
X43591Y104479D01*
D02*
G37*
G36*
X133544Y95039D02*
X132456D01*
X131404Y94758D01*
X130462Y94213D01*
X129692Y93444D01*
X129148Y92501D01*
X129056Y92157D01*
X128529Y92123D01*
X128211Y92891D01*
X127580Y93713D01*
X126757Y94345D01*
X125799Y94741D01*
X124772Y94876D01*
X121228D01*
X120201Y94741D01*
X119243Y94345D01*
X118420Y93713D01*
X117789Y92891D01*
X117393Y91933D01*
X117257Y90905D01*
X117393Y89878D01*
X117789Y88920D01*
X118420Y88098D01*
X119243Y87467D01*
X120201Y87070D01*
X121228Y86935D01*
X124772D01*
X125799Y87070D01*
X126757Y87467D01*
X127580Y88098D01*
X128211Y88920D01*
X128529Y89688D01*
X129056Y89654D01*
X129148Y89310D01*
X129692Y88367D01*
X130462Y87598D01*
X131404Y87053D01*
X132456Y86772D01*
X133544D01*
X134596Y87053D01*
X135538Y87598D01*
X136308Y88367D01*
X136852Y89310D01*
X137134Y90361D01*
Y91450D01*
X136852Y92501D01*
X136308Y93444D01*
X135538Y94213D01*
X134596Y94758D01*
X133544Y95039D01*
D02*
G37*
G36*
X73544D02*
X72456D01*
X71404Y94758D01*
X70462Y94213D01*
X69692Y93444D01*
X69148Y92501D01*
X69056Y92157D01*
X68529Y92123D01*
X68211Y92891D01*
X67580Y93713D01*
X66757Y94345D01*
X65799Y94741D01*
X64772Y94876D01*
X61228D01*
X60201Y94741D01*
X59243Y94345D01*
X58420Y93713D01*
X57789Y92891D01*
X57393Y91933D01*
X57257Y90905D01*
X57393Y89878D01*
X57789Y88920D01*
X58420Y88098D01*
X59243Y87467D01*
X60201Y87070D01*
X61228Y86935D01*
X64772D01*
X65799Y87070D01*
X66757Y87467D01*
X67580Y88098D01*
X68211Y88920D01*
X68529Y89688D01*
X69056Y89654D01*
X69148Y89310D01*
X69692Y88367D01*
X70462Y87598D01*
X71404Y87053D01*
X72456Y86772D01*
X73544D01*
X74596Y87053D01*
X75538Y87598D01*
X76308Y88367D01*
X76852Y89310D01*
X77134Y90361D01*
Y91450D01*
X76852Y92501D01*
X76308Y93444D01*
X75538Y94213D01*
X74596Y94758D01*
X73544Y95039D01*
D02*
G37*
G36*
X133544Y85039D02*
X132456D01*
X131404Y84758D01*
X130462Y84213D01*
X129692Y83444D01*
X129148Y82501D01*
X129056Y82157D01*
X128529Y82123D01*
X128211Y82891D01*
X127580Y83713D01*
X126757Y84345D01*
X125799Y84741D01*
X124772Y84877D01*
X121228D01*
X120201Y84741D01*
X119243Y84345D01*
X118420Y83713D01*
X117789Y82891D01*
X117393Y81933D01*
X117257Y80905D01*
X117393Y79878D01*
X117789Y78920D01*
X118420Y78098D01*
X119243Y77466D01*
X120201Y77070D01*
X121228Y76934D01*
X124772D01*
X125799Y77070D01*
X126757Y77466D01*
X127580Y78098D01*
X128211Y78920D01*
X128529Y79688D01*
X129056Y79654D01*
X129148Y79310D01*
X129692Y78367D01*
X130462Y77598D01*
X131404Y77053D01*
X132456Y76772D01*
X133544D01*
X134596Y77053D01*
X135538Y77598D01*
X136308Y78367D01*
X136852Y79310D01*
X137134Y80361D01*
Y81450D01*
X136852Y82501D01*
X136308Y83444D01*
X135538Y84213D01*
X134596Y84758D01*
X133544Y85039D01*
D02*
G37*
G36*
X73544D02*
X72456D01*
X71404Y84758D01*
X70462Y84213D01*
X69692Y83444D01*
X69148Y82501D01*
X69056Y82157D01*
X68529Y82123D01*
X68211Y82891D01*
X67580Y83713D01*
X66757Y84345D01*
X65799Y84741D01*
X64772Y84877D01*
X61228D01*
X60201Y84741D01*
X59243Y84345D01*
X58420Y83713D01*
X57789Y82891D01*
X57393Y81933D01*
X57257Y80905D01*
X57393Y79878D01*
X57789Y78920D01*
X58420Y78098D01*
X59243Y77466D01*
X60201Y77070D01*
X61228Y76934D01*
X64772D01*
X65799Y77070D01*
X66757Y77466D01*
X67580Y78098D01*
X68211Y78920D01*
X68529Y79688D01*
X69056Y79654D01*
X69148Y79310D01*
X69692Y78367D01*
X70462Y77598D01*
X71404Y77053D01*
X72456Y76772D01*
X73544D01*
X74596Y77053D01*
X75538Y77598D01*
X76308Y78367D01*
X76852Y79310D01*
X77134Y80361D01*
Y81450D01*
X76852Y82501D01*
X76308Y83444D01*
X75538Y84213D01*
X74596Y84758D01*
X73544Y85039D01*
D02*
G37*
G36*
X133544Y75039D02*
X132456D01*
X131404Y74758D01*
X130462Y74213D01*
X129692Y73444D01*
X129148Y72501D01*
X129056Y72157D01*
X128529Y72123D01*
X128211Y72891D01*
X127580Y73713D01*
X126757Y74344D01*
X125799Y74741D01*
X124772Y74876D01*
X121228D01*
X120201Y74741D01*
X119243Y74344D01*
X118420Y73713D01*
X117789Y72891D01*
X117393Y71933D01*
X117257Y70906D01*
X117393Y69878D01*
X117789Y68920D01*
X118420Y68098D01*
X119243Y67466D01*
X120201Y67070D01*
X121228Y66935D01*
X124772D01*
X125799Y67070D01*
X126757Y67466D01*
X127580Y68098D01*
X128211Y68920D01*
X128529Y69688D01*
X129056Y69654D01*
X129148Y69310D01*
X129692Y68367D01*
X130462Y67598D01*
X131404Y67053D01*
X132456Y66772D01*
X133544D01*
X134596Y67053D01*
X135538Y67598D01*
X136308Y68367D01*
X136852Y69310D01*
X137134Y70361D01*
Y71450D01*
X136852Y72501D01*
X136308Y73444D01*
X135538Y74213D01*
X134596Y74758D01*
X133544Y75039D01*
D02*
G37*
G36*
X73544D02*
X72456D01*
X71404Y74758D01*
X70462Y74213D01*
X69692Y73444D01*
X69148Y72501D01*
X69056Y72157D01*
X68529Y72123D01*
X68211Y72891D01*
X67580Y73713D01*
X66757Y74344D01*
X65799Y74741D01*
X64772Y74876D01*
X61228D01*
X60201Y74741D01*
X59243Y74344D01*
X58420Y73713D01*
X57789Y72891D01*
X57393Y71933D01*
X57257Y70906D01*
X57393Y69878D01*
X57789Y68920D01*
X58420Y68098D01*
X59243Y67466D01*
X60201Y67070D01*
X61228Y66935D01*
X64772D01*
X65799Y67070D01*
X66757Y67466D01*
X67580Y68098D01*
X68211Y68920D01*
X68529Y69688D01*
X69056Y69654D01*
X69148Y69310D01*
X69692Y68367D01*
X70462Y67598D01*
X71404Y67053D01*
X72456Y66772D01*
X73544D01*
X74596Y67053D01*
X75538Y67598D01*
X76308Y68367D01*
X76852Y69310D01*
X77134Y70361D01*
Y71450D01*
X76852Y72501D01*
X76308Y73444D01*
X75538Y74213D01*
X74596Y74758D01*
X73544Y75039D01*
D02*
G37*
G36*
X43591Y74694D02*
X42909D01*
Y71406D01*
X47313D01*
X47250Y71886D01*
X46871Y72800D01*
X46269Y73584D01*
X45485Y74186D01*
X44571Y74565D01*
X43591Y74694D01*
D02*
G37*
G36*
X41909D02*
X41228D01*
X40248Y74565D01*
X39334Y74186D01*
X38550Y73584D01*
X37948Y72800D01*
X37569Y71886D01*
X37506Y71406D01*
X41909D01*
Y74694D01*
D02*
G37*
G36*
X47313Y70406D02*
X42909D01*
Y67117D01*
X43591D01*
X44571Y67246D01*
X45485Y67625D01*
X46269Y68227D01*
X46871Y69011D01*
X47250Y69925D01*
X47313Y70406D01*
D02*
G37*
G36*
X41909D02*
X37506D01*
X37569Y69925D01*
X37948Y69011D01*
X38550Y68227D01*
X39334Y67625D01*
X40248Y67246D01*
X41228Y67117D01*
X41909D01*
Y70406D01*
D02*
G37*
G36*
X133544Y65039D02*
X132456D01*
X131404Y64758D01*
X130462Y64213D01*
X129692Y63444D01*
X129148Y62501D01*
X129056Y62157D01*
X128529Y62123D01*
X128211Y62891D01*
X127580Y63713D01*
X126757Y64345D01*
X125799Y64741D01*
X124772Y64877D01*
X121228D01*
X120201Y64741D01*
X119243Y64345D01*
X118420Y63713D01*
X117789Y62891D01*
X117393Y61933D01*
X117257Y60905D01*
X117393Y59878D01*
X117789Y58920D01*
X118420Y58098D01*
X119243Y57467D01*
X120201Y57070D01*
X121228Y56934D01*
X124772D01*
X125799Y57070D01*
X126757Y57467D01*
X127580Y58098D01*
X128211Y58920D01*
X128529Y59688D01*
X129056Y59654D01*
X129148Y59310D01*
X129692Y58367D01*
X130462Y57598D01*
X131404Y57053D01*
X132456Y56772D01*
X133544D01*
X134596Y57053D01*
X135538Y57598D01*
X136308Y58367D01*
X136852Y59310D01*
X137134Y60361D01*
Y61450D01*
X136852Y62501D01*
X136308Y63444D01*
X135538Y64213D01*
X134596Y64758D01*
X133544Y65039D01*
D02*
G37*
G36*
X73544D02*
X72456D01*
X71404Y64758D01*
X70462Y64213D01*
X69692Y63444D01*
X69148Y62501D01*
X69056Y62157D01*
X68529Y62123D01*
X68211Y62891D01*
X67580Y63713D01*
X66757Y64345D01*
X65799Y64741D01*
X64772Y64877D01*
X61228D01*
X60201Y64741D01*
X59243Y64345D01*
X58420Y63713D01*
X57789Y62891D01*
X57393Y61933D01*
X57257Y60905D01*
X57393Y59878D01*
X57789Y58920D01*
X58420Y58098D01*
X58703Y57881D01*
X58727Y57232D01*
X58498Y57004D01*
X58228Y56352D01*
Y55648D01*
X58498Y54996D01*
X58834Y54661D01*
X58860Y54116D01*
X58828Y54027D01*
X58420Y53713D01*
X57789Y52891D01*
X57393Y51933D01*
X57257Y50906D01*
X57393Y49878D01*
X57789Y48920D01*
X58420Y48098D01*
X58703Y47881D01*
X58727Y47232D01*
X58498Y47004D01*
X58228Y46352D01*
Y45648D01*
X58498Y44996D01*
X58834Y44661D01*
X58860Y44116D01*
X58828Y44026D01*
X58420Y43713D01*
X57789Y42891D01*
X57393Y41933D01*
X57257Y40905D01*
X57393Y39878D01*
X57789Y38920D01*
X58420Y38098D01*
X59243Y37467D01*
X60201Y37070D01*
X61228Y36935D01*
X64772D01*
X65799Y37070D01*
X66757Y37467D01*
X67580Y38098D01*
X68211Y38920D01*
X68529Y39688D01*
X69056Y39654D01*
X69148Y39310D01*
X69692Y38367D01*
X70462Y37598D01*
X71404Y37053D01*
X72456Y36772D01*
X73544D01*
X74596Y37053D01*
X75538Y37598D01*
X76308Y38367D01*
X76852Y39310D01*
X77134Y40361D01*
Y41450D01*
X76852Y42501D01*
X76308Y43444D01*
X75538Y44213D01*
X75458Y44260D01*
X75489Y44819D01*
X75769Y45006D01*
X80263Y49501D01*
X95899D01*
X95996Y49404D01*
X96648Y49134D01*
X97352D01*
X98004Y49404D01*
X98502Y49902D01*
X98772Y50553D01*
Y51258D01*
X98502Y51909D01*
X98004Y52407D01*
X97352Y52677D01*
X96648D01*
X95996Y52407D01*
X95899Y52311D01*
X79681D01*
X79144Y52204D01*
X78688Y51899D01*
X77634Y50845D01*
X77134Y51052D01*
Y51450D01*
X76852Y52501D01*
X76308Y53444D01*
X75657Y54095D01*
X75824Y54595D01*
X94000D01*
X94538Y54702D01*
X94993Y55007D01*
X100215Y60228D01*
X100352D01*
X101004Y60498D01*
X101502Y60996D01*
X101772Y61648D01*
Y62352D01*
X101502Y63004D01*
X101004Y63502D01*
X100352Y63772D01*
X99648D01*
X98996Y63502D01*
X98498Y63004D01*
X98228Y62352D01*
Y62215D01*
X96446Y60433D01*
X95901Y60595D01*
X95682Y61124D01*
X95124Y61682D01*
X94500Y61941D01*
Y60000D01*
X94000D01*
Y59500D01*
X92059D01*
X92318Y58876D01*
X92876Y58318D01*
X93119Y58217D01*
X93275Y57637D01*
X93093Y57405D01*
X76053D01*
X75846Y57905D01*
X76308Y58367D01*
X76852Y59310D01*
X77134Y60361D01*
Y61450D01*
X76852Y62501D01*
X76308Y63444D01*
X75538Y64213D01*
X74596Y64758D01*
X73544Y65039D01*
D02*
G37*
G36*
X43591Y64694D02*
X42909D01*
Y61405D01*
X47313D01*
X47250Y61886D01*
X46871Y62800D01*
X46269Y63584D01*
X45485Y64186D01*
X44571Y64565D01*
X43591Y64694D01*
D02*
G37*
G36*
X41909D02*
X41228D01*
X40248Y64565D01*
X39334Y64186D01*
X38550Y63584D01*
X37948Y62800D01*
X37569Y61886D01*
X37506Y61405D01*
X41909D01*
Y64694D01*
D02*
G37*
G36*
X93500Y61941D02*
X92876Y61682D01*
X92318Y61124D01*
X92059Y60500D01*
X93500D01*
Y61941D01*
D02*
G37*
G36*
X47313Y60405D02*
X42909D01*
Y57117D01*
X43591D01*
X44571Y57246D01*
X45485Y57625D01*
X46269Y58227D01*
X46871Y59011D01*
X47250Y59925D01*
X47313Y60405D01*
D02*
G37*
G36*
X41909D02*
X37506D01*
X37569Y59925D01*
X37948Y59011D01*
X38550Y58227D01*
X39334Y57625D01*
X40248Y57246D01*
X41228Y57117D01*
X41909D01*
Y60405D01*
D02*
G37*
G36*
X133544Y55039D02*
X132456D01*
X131404Y54758D01*
X130462Y54213D01*
X129692Y53444D01*
X129148Y52501D01*
X129056Y52157D01*
X128529Y52123D01*
X128211Y52891D01*
X127580Y53713D01*
X126757Y54344D01*
X125799Y54741D01*
X124772Y54877D01*
X121228D01*
X120201Y54741D01*
X119243Y54344D01*
X118420Y53713D01*
X117789Y52891D01*
X117393Y51933D01*
X117257Y50906D01*
X117393Y49878D01*
X117789Y48920D01*
X118420Y48098D01*
X119243Y47467D01*
X120201Y47070D01*
X121228Y46935D01*
X124772D01*
X125799Y47070D01*
X126757Y47467D01*
X127580Y48098D01*
X128211Y48920D01*
X128529Y49688D01*
X129056Y49654D01*
X129148Y49310D01*
X129692Y48367D01*
X130462Y47598D01*
X131404Y47053D01*
X132456Y46772D01*
X133544D01*
X134596Y47053D01*
X135538Y47598D01*
X136308Y48367D01*
X136852Y49310D01*
X137134Y50361D01*
Y51450D01*
X136852Y52501D01*
X136308Y53444D01*
X135538Y54213D01*
X134596Y54758D01*
X133544Y55039D01*
D02*
G37*
G36*
X43591Y54694D02*
X42909D01*
Y51406D01*
X47313D01*
X47250Y51886D01*
X46871Y52800D01*
X46269Y53584D01*
X45485Y54186D01*
X44571Y54565D01*
X43591Y54694D01*
D02*
G37*
G36*
X41909D02*
X41228D01*
X40248Y54565D01*
X39334Y54186D01*
X38550Y53584D01*
X37948Y52800D01*
X37569Y51886D01*
X37506Y51406D01*
X41909D01*
Y54694D01*
D02*
G37*
G36*
X47313Y50406D02*
X42909D01*
Y47117D01*
X43591D01*
X44571Y47246D01*
X45485Y47625D01*
X46269Y48227D01*
X46871Y49011D01*
X47250Y49925D01*
X47313Y50406D01*
D02*
G37*
G36*
X41909D02*
X37506D01*
X37569Y49925D01*
X37948Y49011D01*
X38550Y48227D01*
X39334Y47625D01*
X40248Y47246D01*
X41228Y47117D01*
X41909D01*
Y50406D01*
D02*
G37*
G36*
X133544Y45039D02*
X132456D01*
X131404Y44758D01*
X130462Y44213D01*
X129692Y43444D01*
X129148Y42501D01*
X129056Y42157D01*
X128529Y42123D01*
X128211Y42891D01*
X127580Y43713D01*
X126757Y44344D01*
X125799Y44741D01*
X124772Y44877D01*
X121228D01*
X120201Y44741D01*
X119243Y44344D01*
X118420Y43713D01*
X117789Y42891D01*
X117393Y41933D01*
X117257Y40905D01*
X117393Y39878D01*
X117789Y38920D01*
X118420Y38098D01*
X119243Y37467D01*
X120201Y37070D01*
X121228Y36935D01*
X124772D01*
X125799Y37070D01*
X126757Y37467D01*
X127580Y38098D01*
X128211Y38920D01*
X128529Y39688D01*
X129056Y39654D01*
X129148Y39310D01*
X129692Y38367D01*
X130462Y37598D01*
X131404Y37053D01*
X132456Y36772D01*
X133544D01*
X134596Y37053D01*
X135538Y37598D01*
X136308Y38367D01*
X136852Y39310D01*
X137134Y40361D01*
Y41450D01*
X136852Y42501D01*
X136308Y43444D01*
X135538Y44213D01*
X134596Y44758D01*
X133544Y45039D01*
D02*
G37*
G36*
X43591Y44694D02*
X42909D01*
Y41405D01*
X47313D01*
X47250Y41886D01*
X46871Y42800D01*
X46269Y43584D01*
X45485Y44186D01*
X44571Y44565D01*
X43591Y44694D01*
D02*
G37*
G36*
X41909D02*
X41228D01*
X40248Y44565D01*
X39334Y44186D01*
X38550Y43584D01*
X37948Y42800D01*
X37569Y41886D01*
X37506Y41405D01*
X41909D01*
Y44694D01*
D02*
G37*
G36*
X47313Y40405D02*
X42909D01*
Y37117D01*
X43591D01*
X44571Y37246D01*
X45485Y37625D01*
X46269Y38227D01*
X46871Y39011D01*
X47250Y39925D01*
X47313Y40405D01*
D02*
G37*
G36*
X41909D02*
X37506D01*
X37569Y39925D01*
X37948Y39011D01*
X38550Y38227D01*
X39334Y37625D01*
X40248Y37246D01*
X41228Y37117D01*
X41909D01*
Y40405D01*
D02*
G37*
G36*
X133544Y35039D02*
X132456D01*
X131404Y34758D01*
X130462Y34213D01*
X129692Y33444D01*
X129148Y32501D01*
X129056Y32157D01*
X128529Y32123D01*
X128211Y32891D01*
X127580Y33713D01*
X126757Y34345D01*
X125799Y34741D01*
X124772Y34876D01*
X121228D01*
X120201Y34741D01*
X119243Y34345D01*
X118420Y33713D01*
X117789Y32891D01*
X117393Y31933D01*
X117257Y30906D01*
X117393Y29878D01*
X117789Y28920D01*
X118420Y28098D01*
X119243Y27467D01*
X120201Y27070D01*
X121228Y26934D01*
X124772D01*
X125799Y27070D01*
X126757Y27467D01*
X127580Y28098D01*
X128211Y28920D01*
X128529Y29688D01*
X129056Y29654D01*
X129148Y29310D01*
X129692Y28367D01*
X130462Y27598D01*
X131404Y27053D01*
X132456Y26772D01*
X133544D01*
X134596Y27053D01*
X135538Y27598D01*
X136308Y28367D01*
X136852Y29310D01*
X137134Y30361D01*
Y31450D01*
X136852Y32501D01*
X136308Y33444D01*
X135538Y34213D01*
X134596Y34758D01*
X133544Y35039D01*
D02*
G37*
G36*
X73544D02*
X72456D01*
X71404Y34758D01*
X70462Y34213D01*
X69692Y33444D01*
X69148Y32501D01*
X69056Y32157D01*
X68529Y32123D01*
X68211Y32891D01*
X67580Y33713D01*
X66757Y34345D01*
X65799Y34741D01*
X64772Y34876D01*
X61228D01*
X60201Y34741D01*
X59243Y34345D01*
X58420Y33713D01*
X57789Y32891D01*
X57393Y31933D01*
X57257Y30906D01*
X57393Y29878D01*
X57789Y28920D01*
X58420Y28098D01*
X59243Y27467D01*
X60201Y27070D01*
X61228Y26934D01*
X64772D01*
X65799Y27070D01*
X66757Y27467D01*
X67580Y28098D01*
X68211Y28920D01*
X68529Y29688D01*
X69056Y29654D01*
X69148Y29310D01*
X69692Y28367D01*
X70462Y27598D01*
X71404Y27053D01*
X72456Y26772D01*
X73544D01*
X74596Y27053D01*
X75538Y27598D01*
X76308Y28367D01*
X76852Y29310D01*
X77134Y30361D01*
Y31450D01*
X76852Y32501D01*
X76308Y33444D01*
X75538Y34213D01*
X74596Y34758D01*
X73544Y35039D01*
D02*
G37*
G36*
X43591Y34694D02*
X42909D01*
Y31405D01*
X47313D01*
X47250Y31886D01*
X46871Y32800D01*
X46269Y33584D01*
X45485Y34186D01*
X44571Y34565D01*
X43591Y34694D01*
D02*
G37*
G36*
X41909D02*
X41228D01*
X40248Y34565D01*
X39334Y34186D01*
X38550Y33584D01*
X37948Y32800D01*
X37569Y31886D01*
X37506Y31405D01*
X41909D01*
Y34694D01*
D02*
G37*
G36*
X47313Y30406D02*
X42909D01*
Y27117D01*
X43591D01*
X44571Y27246D01*
X45485Y27625D01*
X46269Y28227D01*
X46871Y29011D01*
X47250Y29925D01*
X47313Y30406D01*
D02*
G37*
G36*
X133544Y25039D02*
X132456D01*
X131404Y24758D01*
X130462Y24213D01*
X129692Y23444D01*
X129148Y22501D01*
X129056Y22157D01*
X128529Y22123D01*
X128211Y22891D01*
X127580Y23713D01*
X126757Y24344D01*
X125799Y24741D01*
X124772Y24877D01*
X121228D01*
X120201Y24741D01*
X119243Y24344D01*
X118420Y23713D01*
X117789Y22891D01*
X117393Y21933D01*
X117257Y20906D01*
X117393Y19878D01*
X117789Y18920D01*
X118420Y18098D01*
X119243Y17467D01*
X120201Y17070D01*
X121228Y16935D01*
X124772D01*
X125799Y17070D01*
X126757Y17467D01*
X127580Y18098D01*
X128211Y18920D01*
X128529Y19688D01*
X129056Y19654D01*
X129148Y19310D01*
X129692Y18367D01*
X130462Y17598D01*
X131404Y17053D01*
X132456Y16772D01*
X133544D01*
X134596Y17053D01*
X135538Y17598D01*
X136308Y18367D01*
X136852Y19310D01*
X137134Y20361D01*
Y21450D01*
X136852Y22501D01*
X136308Y23444D01*
X135538Y24213D01*
X134596Y24758D01*
X133544Y25039D01*
D02*
G37*
G36*
X73544D02*
X72456D01*
X71404Y24758D01*
X70462Y24213D01*
X69692Y23444D01*
X69148Y22501D01*
X69056Y22157D01*
X68529Y22123D01*
X68211Y22891D01*
X67580Y23713D01*
X66757Y24344D01*
X65799Y24741D01*
X64772Y24877D01*
X61228D01*
X60201Y24741D01*
X59243Y24344D01*
X58420Y23713D01*
X57789Y22891D01*
X57393Y21933D01*
X57257Y20906D01*
X57393Y19878D01*
X57789Y18920D01*
X58420Y18098D01*
X59243Y17467D01*
X60201Y17070D01*
X61228Y16935D01*
X64772D01*
X65799Y17070D01*
X66757Y17467D01*
X67580Y18098D01*
X68211Y18920D01*
X68529Y19688D01*
X69056Y19654D01*
X69148Y19310D01*
X69692Y18367D01*
X70462Y17598D01*
X71404Y17053D01*
X72456Y16772D01*
X73544D01*
X74596Y17053D01*
X75538Y17598D01*
X76308Y18367D01*
X76852Y19310D01*
X77134Y20361D01*
Y21450D01*
X76852Y22501D01*
X76308Y23444D01*
X75538Y24213D01*
X74596Y24758D01*
X73544Y25039D01*
D02*
G37*
G36*
X43591Y24694D02*
X42909D01*
Y21406D01*
X47313D01*
X47250Y21886D01*
X46871Y22800D01*
X46269Y23584D01*
X45485Y24186D01*
X44571Y24565D01*
X43591Y24694D01*
D02*
G37*
G36*
X104500Y20941D02*
Y19500D01*
X105941D01*
X105682Y20124D01*
X105124Y20682D01*
X104500Y20941D01*
D02*
G37*
G36*
X103500D02*
X102876Y20682D01*
X102318Y20124D01*
X102059Y19500D01*
X103500D01*
Y20941D01*
D02*
G37*
G36*
X53500D02*
Y19500D01*
X54941D01*
X54682Y20124D01*
X54124Y20682D01*
X53500Y20941D01*
D02*
G37*
G36*
X52500D02*
X51876Y20682D01*
X51318Y20124D01*
X51059Y19500D01*
X52500D01*
Y20941D01*
D02*
G37*
G36*
X47313Y20405D02*
X42909D01*
Y17117D01*
X43591D01*
X44571Y17246D01*
X45485Y17625D01*
X46269Y18227D01*
X46871Y19011D01*
X47250Y19925D01*
X47313Y20405D01*
D02*
G37*
G36*
X41909D02*
X37506D01*
X37569Y19925D01*
X37948Y19011D01*
X38550Y18227D01*
X39334Y17625D01*
X40248Y17246D01*
X41228Y17117D01*
X41909D01*
Y20405D01*
D02*
G37*
G36*
X105941Y18500D02*
X104500D01*
Y17059D01*
X105124Y17318D01*
X105682Y17876D01*
X105941Y18500D01*
D02*
G37*
G36*
X103500D02*
X102059D01*
X102318Y17876D01*
X102876Y17318D01*
X103500Y17059D01*
Y18500D01*
D02*
G37*
G36*
X54941D02*
X53500D01*
Y17059D01*
X54124Y17318D01*
X54682Y17876D01*
X54941Y18500D01*
D02*
G37*
G36*
X52500D02*
X51059D01*
X51318Y17876D01*
X51876Y17318D01*
X52500Y17059D01*
Y18500D01*
D02*
G37*
G36*
X33591Y19694D02*
X32909D01*
Y16406D01*
X37313D01*
X37250Y16886D01*
X36871Y17800D01*
X36269Y18584D01*
X35485Y19186D01*
X34571Y19565D01*
X33591Y19694D01*
D02*
G37*
G36*
X31909D02*
X31228D01*
X30248Y19565D01*
X29334Y19186D01*
X28550Y18584D01*
X27948Y17800D01*
X27569Y16886D01*
X27506Y16406D01*
X31909D01*
Y19694D01*
D02*
G37*
G36*
X133544Y15039D02*
X132456D01*
X131404Y14758D01*
X130462Y14213D01*
X129692Y13444D01*
X129148Y12501D01*
X129056Y12157D01*
X128529Y12123D01*
X128211Y12891D01*
X127580Y13713D01*
X126757Y14345D01*
X125799Y14741D01*
X124772Y14876D01*
X121228D01*
X120201Y14741D01*
X119243Y14345D01*
X118420Y13713D01*
X117789Y12891D01*
X117393Y11933D01*
X117257Y10905D01*
X117393Y9878D01*
X117789Y8920D01*
X118420Y8098D01*
X119243Y7467D01*
X120201Y7070D01*
X121228Y6934D01*
X124772D01*
X125799Y7070D01*
X126757Y7467D01*
X127580Y8098D01*
X128211Y8920D01*
X128529Y9688D01*
X129056Y9654D01*
X129148Y9310D01*
X129692Y8367D01*
X130462Y7598D01*
X131404Y7053D01*
X132456Y6772D01*
X133544D01*
X134596Y7053D01*
X135538Y7598D01*
X136308Y8367D01*
X136852Y9310D01*
X137134Y10361D01*
Y11450D01*
X136852Y12501D01*
X136308Y13444D01*
X135538Y14213D01*
X134596Y14758D01*
X133544Y15039D01*
D02*
G37*
G36*
X73544D02*
X72456D01*
X71404Y14758D01*
X70462Y14213D01*
X69692Y13444D01*
X69148Y12501D01*
X69056Y12157D01*
X68529Y12123D01*
X68211Y12891D01*
X67580Y13713D01*
X66757Y14345D01*
X65799Y14741D01*
X64772Y14876D01*
X61228D01*
X60201Y14741D01*
X59243Y14345D01*
X58420Y13713D01*
X57789Y12891D01*
X57393Y11933D01*
X57257Y10905D01*
X57393Y9878D01*
X57789Y8920D01*
X58420Y8098D01*
X59243Y7467D01*
X60201Y7070D01*
X61228Y6934D01*
X64772D01*
X65799Y7070D01*
X66757Y7467D01*
X67580Y8098D01*
X68211Y8920D01*
X68529Y9688D01*
X69056Y9654D01*
X69148Y9310D01*
X69692Y8367D01*
X70462Y7598D01*
X71404Y7053D01*
X72456Y6772D01*
X73544D01*
X74596Y7053D01*
X75538Y7598D01*
X76308Y8367D01*
X76852Y9310D01*
X77134Y10361D01*
Y11450D01*
X76852Y12501D01*
X76308Y13444D01*
X75538Y14213D01*
X74596Y14758D01*
X73544Y15039D01*
D02*
G37*
G36*
X37313Y15405D02*
X32909D01*
Y12117D01*
X33591D01*
X34571Y12246D01*
X35485Y12625D01*
X36269Y13227D01*
X36871Y14011D01*
X37250Y14925D01*
X37313Y15405D01*
D02*
G37*
G36*
X31909D02*
X27506D01*
X27569Y14925D01*
X27948Y14011D01*
X28550Y13227D01*
X29334Y12625D01*
X30248Y12246D01*
X31228Y12117D01*
X31909D01*
Y15405D01*
D02*
G37*
G36*
X43591Y14694D02*
X42909D01*
Y11406D01*
X47313D01*
X47250Y11886D01*
X46871Y12800D01*
X46269Y13584D01*
X45485Y14186D01*
X44571Y14565D01*
X43591Y14694D01*
D02*
G37*
G36*
X41909D02*
X41228D01*
X40248Y14565D01*
X39334Y14186D01*
X38550Y13584D01*
X37948Y12800D01*
X37569Y11886D01*
X37506Y11406D01*
X41909D01*
Y14694D01*
D02*
G37*
G36*
X23500Y10941D02*
Y9500D01*
X24941D01*
X24682Y10124D01*
X24124Y10682D01*
X23500Y10941D01*
D02*
G37*
G36*
X22500D02*
X21876Y10682D01*
X21318Y10124D01*
X21059Y9500D01*
X22500D01*
Y10941D01*
D02*
G37*
G36*
X47313Y10406D02*
X42909D01*
Y7117D01*
X43591D01*
X44571Y7246D01*
X45485Y7625D01*
X46269Y8227D01*
X46871Y9011D01*
X47250Y9925D01*
X47313Y10406D01*
D02*
G37*
G36*
X41909D02*
X37506D01*
X37569Y9925D01*
X37948Y9011D01*
X38550Y8227D01*
X39334Y7625D01*
X40248Y7246D01*
X41228Y7117D01*
X41909D01*
Y10406D01*
D02*
G37*
G36*
X24941Y8500D02*
X23500D01*
Y7059D01*
X24124Y7318D01*
X24682Y7876D01*
X24941Y8500D01*
D02*
G37*
G36*
X22500D02*
X21059D01*
X21318Y7876D01*
X21876Y7318D01*
X22500Y7059D01*
Y8500D01*
D02*
G37*
G36*
X88551Y7939D02*
Y5500D01*
X90990D01*
X90817Y6146D01*
X90427Y6823D01*
X89874Y7375D01*
X89197Y7766D01*
X88551Y7939D01*
D02*
G37*
G36*
X87551D02*
X86905Y7766D01*
X86229Y7375D01*
X85676Y6823D01*
X85285Y6146D01*
X85112Y5500D01*
X87551D01*
Y7939D01*
D02*
G37*
G36*
X104441Y252050D02*
X103000D01*
Y250610D01*
X103624Y250868D01*
X104182Y251427D01*
X104441Y252050D01*
D02*
G37*
G36*
X102000D02*
X100559D01*
X100818Y251427D01*
X101376Y250868D01*
X102000Y250610D01*
Y252050D01*
D02*
G37*
G36*
X93659Y249941D02*
X93035Y249682D01*
X92477Y249124D01*
X92218Y248500D01*
X93659D01*
Y249941D01*
D02*
G37*
G36*
X96100Y247500D02*
X94659D01*
Y246059D01*
X95283Y246318D01*
X95841Y246876D01*
X96100Y247500D01*
D02*
G37*
G36*
X93659D02*
X92218D01*
X92477Y246876D01*
X93035Y246318D01*
X93659Y246059D01*
Y247500D01*
D02*
G37*
G36*
X108500Y232120D02*
Y230679D01*
X109941D01*
X109682Y231303D01*
X109124Y231861D01*
X108500Y232120D01*
D02*
G37*
G36*
X107500D02*
X106876Y231861D01*
X106318Y231303D01*
X106059Y230679D01*
X107500D01*
Y232120D01*
D02*
G37*
G36*
X109941Y229679D02*
X108500D01*
Y228238D01*
X109124Y228497D01*
X109682Y229055D01*
X109941Y229679D01*
D02*
G37*
G36*
X107500D02*
X106059D01*
X106318Y229055D01*
X106876Y228497D01*
X107500Y228238D01*
Y229679D01*
D02*
G37*
G36*
X82500Y152941D02*
Y151500D01*
X83941D01*
X83682Y152124D01*
X83124Y152682D01*
X82500Y152941D01*
D02*
G37*
G36*
X81500D02*
X80876Y152682D01*
X80318Y152124D01*
X80059Y151500D01*
X81500D01*
Y152941D01*
D02*
G37*
G36*
X83941Y150500D02*
X82500D01*
Y149059D01*
X83124Y149318D01*
X83682Y149876D01*
X83941Y150500D01*
D02*
G37*
G36*
X81500D02*
X80059D01*
X80318Y149876D01*
X80876Y149318D01*
X81500Y149059D01*
Y150500D01*
D02*
G37*
G36*
X82500Y142846D02*
Y141405D01*
X83941D01*
X83682Y142030D01*
X83124Y142588D01*
X82500Y142846D01*
D02*
G37*
G36*
X81500D02*
X80876Y142588D01*
X80318Y142030D01*
X80059Y141405D01*
X81500D01*
Y142846D01*
D02*
G37*
G36*
X83941Y140405D02*
X82500D01*
Y138965D01*
X83124Y139223D01*
X83682Y139781D01*
X83941Y140405D01*
D02*
G37*
G36*
X81500D02*
X80059D01*
X80318Y139781D01*
X80876Y139223D01*
X81500Y138965D01*
Y140405D01*
D02*
G37*
G36*
X80559Y132846D02*
Y131405D01*
X82000D01*
X81741Y132029D01*
X81183Y132588D01*
X80559Y132846D01*
D02*
G37*
G36*
X79559D02*
X78935Y132588D01*
X78377Y132029D01*
X78119Y131405D01*
X79559D01*
Y132846D01*
D02*
G37*
G36*
X82000Y130405D02*
X80559D01*
Y128965D01*
X81183Y129223D01*
X81741Y129781D01*
X82000Y130405D01*
D02*
G37*
G36*
X79559D02*
X78119D01*
X78377Y129781D01*
X78935Y129223D01*
X79559Y128965D01*
Y130405D01*
D02*
G37*
%LPD*%
D10*
X55000Y146280D02*
Y194677D01*
X38715Y11207D02*
X42108D01*
X32409Y15905D02*
X34017D01*
X38715Y11207D01*
X42108D02*
X42409Y10905D01*
Y60905D02*
Y70906D01*
Y50906D02*
Y60905D01*
Y40905D02*
Y50906D01*
Y30906D02*
Y40905D01*
Y20906D02*
Y30906D01*
Y10905D02*
Y20906D01*
X55000Y10905D02*
Y146280D01*
Y8000D02*
Y10905D01*
X42409D02*
X55000D01*
X88000Y5000D02*
X88051D01*
X58197Y4803D02*
X87803D01*
X88000Y5000D01*
X55000Y8000D02*
X58197Y4803D01*
X61228Y200905D02*
X63000D01*
X55000Y194677D02*
X61228Y200905D01*
D12*
X88478Y298831D02*
X135826D01*
X27000Y312000D02*
X74542D01*
X7000Y292000D02*
X27000Y312000D01*
X82224Y300602D02*
X136560D01*
X82224D02*
Y300776D01*
X79000Y304000D02*
X82224Y300776D01*
X79000Y304000D02*
Y307542D01*
X74542Y312000D02*
X79000Y307542D01*
X96079Y295079D02*
X132374D01*
X81483Y281988D02*
X82988D01*
X96079Y295079D01*
X82224Y283760D02*
X95315Y296850D01*
X133108D01*
X26624Y283760D02*
X82224D01*
X74656Y275162D02*
X81483Y281988D01*
X26447Y275162D02*
X74656D01*
X69120Y271457D02*
X75457D01*
X94000Y290000D02*
X107197D01*
X75457Y271457D02*
X94000Y290000D01*
X5000Y250000D02*
Y272000D01*
X4736Y272264D02*
X5000Y272000D01*
X4736Y272264D02*
Y283470D01*
X9499Y288232D02*
X22152D01*
X4736Y283470D02*
X9499Y288232D01*
X22152D02*
X26624Y283760D01*
X7000Y278000D02*
X7266D01*
X8266Y279000D01*
X22608D01*
X26447Y275162D01*
X133203Y296755D02*
X134629D01*
X133108Y296850D02*
X133203Y296755D01*
X134629D02*
X134818Y296567D01*
X47840Y262000D02*
X60011D01*
X47840Y261770D02*
Y262000D01*
X48391Y259000D02*
X60505D01*
X48214Y258822D02*
X48391Y259000D01*
X48214Y258822D02*
X48214D01*
X47680Y258289D02*
X48214Y258822D01*
X44199Y264910D02*
Y264916D01*
X46990Y264187D02*
X47239D01*
X46282Y267000D02*
X68000D01*
X44199Y264916D02*
X46282Y267000D01*
X68000D02*
X71000Y264000D01*
X47416Y261079D02*
Y261345D01*
X47840Y261770D01*
X47414Y258289D02*
X47680D01*
X107197Y290000D02*
X109497Y292300D01*
X109000Y303000D02*
X112458D01*
X113084Y302374D01*
X138876D01*
X135000Y314571D02*
X136847Y312724D01*
X135000Y314571D02*
Y319000D01*
X135826Y298831D02*
X138736Y295920D01*
X139626Y303123D02*
Y310876D01*
X138876Y302374D02*
X139626Y303123D01*
X136560Y300602D02*
X140508Y296654D01*
X137779Y312724D02*
X139626Y310876D01*
X136847Y312724D02*
X137779D01*
X138736Y275855D02*
Y295920D01*
X140508Y270301D02*
Y296654D01*
X131436Y290269D02*
Y292815D01*
X132374Y295079D02*
X133438Y294014D01*
X118529Y277362D02*
X131436Y290269D01*
X133438Y294014D02*
X136386D01*
X14299Y37128D02*
Y162458D01*
X22105Y170264D01*
X14299Y37128D02*
X29557Y21870D01*
X33941Y150080D02*
X37861Y154000D01*
X38000D01*
X19947Y152056D02*
X24155Y156264D01*
X24220D01*
X19220Y153835D02*
Y156264D01*
X27034Y94393D02*
X30614Y90812D01*
X25262Y91872D02*
X31228Y85905D01*
X27034Y144008D02*
X31666Y148640D01*
X23490Y83644D02*
Y148364D01*
X19947Y71341D02*
X31327Y59961D01*
X21719Y150372D02*
X29221Y157874D01*
X23490Y148364D02*
X34126Y159000D01*
X25262Y91872D02*
Y146262D01*
X16404Y40730D02*
Y162057D01*
X18176Y58958D02*
Y152790D01*
Y58958D02*
X31228Y45906D01*
X19947Y71341D02*
Y152056D01*
X16404Y162057D02*
X22346Y168000D01*
X21719Y79569D02*
X31327Y69961D01*
X18176Y152790D02*
X19220Y153835D01*
X25262Y146262D02*
X39000Y160000D01*
X27034Y94393D02*
Y144008D01*
X23490Y83644D02*
X31228Y75906D01*
X16404Y40730D02*
X31228Y25905D01*
X21719Y79569D02*
Y150372D01*
X49812Y165188D02*
Y166390D01*
X45938Y170264D02*
X49812Y166390D01*
Y165188D02*
X50000Y165000D01*
X114000Y267413D02*
X133042Y286456D01*
X138244Y275096D02*
Y275363D01*
X138736Y275855D01*
X138228Y268022D02*
X140508Y270301D01*
X33106Y150080D02*
X33941D01*
X31666Y148640D02*
X33106Y150080D01*
X50724Y244193D02*
X55819D01*
X53461Y241929D02*
X68772D01*
X33136Y32067D02*
X37626Y27577D01*
X32409Y35906D02*
X33136Y35179D01*
X37626Y24234D02*
Y27577D01*
X35262Y21870D02*
X37626Y24234D01*
X22105Y170264D02*
X45938D01*
X33136Y32067D02*
Y35179D01*
X29557Y21870D02*
X35262D01*
X117000Y261652D02*
Y264444D01*
X114000Y263000D02*
Y267413D01*
X117000Y264444D02*
X133075Y280520D01*
X129284Y264622D02*
Y271290D01*
X132843Y274848D01*
X129284Y255464D02*
X129306Y255486D01*
X132237D01*
X129378Y261000D02*
X133000Y264622D01*
Y268022D01*
X132837Y268185D02*
X133000Y268022D01*
X132237Y255486D02*
X133880Y253842D01*
X136956D02*
X140000Y250799D01*
X138866Y255000D02*
X139000D01*
X133880Y253842D02*
X136956D01*
X140000Y226306D02*
Y250799D01*
X135661Y258205D02*
X138866Y255000D01*
X116000Y258205D02*
X135661D01*
X135461Y252071D02*
X138228Y249304D01*
X127922Y252071D02*
X135461D01*
X47496Y255519D02*
X50259D01*
X50449Y255709D01*
X61291D01*
X47239Y264187D02*
X48059Y265007D01*
X65993D02*
X70399Y260601D01*
X48059Y265007D02*
X65993D01*
X66871Y252882D02*
X68317D01*
X68506Y252694D01*
X64275Y255477D02*
X66871Y252882D01*
X63747Y258264D02*
X70942D01*
X70971Y258235D01*
X60011Y262000D02*
X63747Y258264D01*
X70399Y260601D02*
X73000D01*
X64028Y255477D02*
X64275D01*
X60505Y259000D02*
X64028Y255477D01*
X61291Y255709D02*
X67000Y250000D01*
X42000Y235469D02*
X50724Y244193D01*
X46531Y235000D02*
X53461Y241929D01*
X51531Y225394D02*
X65218Y239080D01*
X66033D02*
X66358Y238756D01*
X68772D01*
X65218Y239080D02*
X66033D01*
X42000Y225000D02*
Y235469D01*
X46531Y225346D02*
Y235000D01*
X44000Y222814D02*
X46531Y225346D01*
X48303Y231303D02*
X56000Y239000D01*
X48303Y222814D02*
Y231303D01*
X22346Y168000D02*
X45000D01*
X31666Y148640D02*
X31666D01*
X39000Y160000D02*
X39220D01*
X34391Y90812D02*
X37812Y87391D01*
Y84322D02*
X41228Y80905D01*
X30614Y90812D02*
X34391D01*
X37812Y84322D02*
Y87391D01*
X34126Y159000D02*
X34220D01*
X29221Y157874D02*
Y158000D01*
X74168Y105532D02*
X113228Y144592D01*
Y201694D01*
X115000Y79000D02*
Y200960D01*
X113000Y77000D02*
X115000Y79000D01*
X31228Y25905D02*
X32409D01*
X31228Y45906D02*
X32409D01*
X31327Y56988D02*
X32409Y55905D01*
X31327Y56988D02*
Y59961D01*
Y66988D02*
Y69961D01*
Y66988D02*
X32409Y65905D01*
X31228Y75906D02*
X32409D01*
X31228Y85905D02*
X32409D01*
X41228Y80905D02*
X42409D01*
X76000Y228150D02*
X78785Y230935D01*
X76000Y207311D02*
Y228150D01*
X78785Y230935D02*
X78992D01*
X119269Y217807D02*
X126533Y225071D01*
X114308Y217807D02*
X119269D01*
X102599Y206097D02*
X114308Y217807D01*
X126533Y230032D02*
X129248Y232747D01*
X126533Y225071D02*
Y230032D01*
X128305Y224337D02*
Y229298D01*
X131089Y232083D01*
X120002Y216035D02*
X128305Y224337D01*
X115042Y216035D02*
X120002D01*
X104370Y205363D02*
X115042Y216035D01*
X130076Y228564D02*
X132861Y231349D01*
X120736Y214264D02*
X130076Y223604D01*
Y228564D01*
X106142Y204630D02*
X115776Y214264D01*
X120736D01*
X132102Y223124D02*
Y228084D01*
X134633Y230615D01*
Y245772D01*
X121399Y212421D02*
X132102Y223124D01*
X116439Y212421D02*
X121399D01*
X107913Y203896D02*
X116439Y212421D01*
X104370Y153152D02*
Y205363D01*
X107913Y151685D02*
Y203896D01*
X132861Y231349D02*
Y243618D01*
X131089Y232083D02*
Y240295D01*
X129248Y232747D02*
Y237624D01*
X102599Y156108D02*
Y206097D01*
X106142Y152418D02*
Y204630D01*
X133873Y227350D02*
X136404Y229881D01*
X122133Y210650D02*
X133873Y222390D01*
Y227350D01*
X117173Y210650D02*
X122133D01*
X109685Y203162D02*
X117173Y210650D01*
X139188Y220745D02*
X140016Y221573D01*
X139188Y220188D02*
Y220745D01*
X124335Y205335D02*
X139188Y220188D01*
X140016Y221573D02*
Y221839D01*
X119394Y205335D02*
X124335D01*
X118655Y204615D02*
X118674D01*
X119394Y205335D01*
X118640Y207106D02*
X123601D01*
X115000Y200960D02*
X118655Y204615D01*
X117907Y208878D02*
X122867D01*
X109685Y150951D02*
Y203162D01*
X136404Y229881D02*
Y247411D01*
X111457Y202428D02*
X117907Y208878D01*
X113228Y201694D02*
X118640Y207106D01*
X111457Y149362D02*
Y202428D01*
X135645Y224456D02*
X138228Y227040D01*
X137417Y220922D02*
Y223723D01*
X140000Y226306D01*
X138228Y227040D02*
Y249304D01*
X135645Y221656D02*
Y224456D01*
X122867Y208878D02*
X135645Y221656D01*
X123601Y207106D02*
X137417Y220922D01*
X82508Y126279D02*
X107913Y151685D01*
X102022Y155532D02*
X102599Y156108D01*
X73000Y110906D02*
X111457Y149362D01*
X90003Y136279D02*
X106142Y152418D01*
X97497Y146280D02*
X104370Y153152D01*
X74266Y115532D02*
X109685Y150951D01*
X69398Y155532D02*
X102022D01*
X82492Y218884D02*
Y219630D01*
X80721Y221060D02*
X82490Y222830D01*
X80721Y219618D02*
Y221060D01*
X82490Y222830D02*
Y229903D01*
X82492Y219630D02*
X84067Y221205D01*
X76000Y207311D02*
X77685Y205626D01*
X78193Y207624D02*
X79457Y206360D01*
X78193Y220026D02*
X78457Y220289D01*
X78193Y207624D02*
Y220026D01*
X78457Y220289D02*
Y220556D01*
X79457Y190820D02*
Y206360D01*
X77685Y197088D02*
Y205626D01*
X76128Y195531D02*
X77685Y197088D01*
X69398Y195531D02*
X76128D01*
X64772Y190905D02*
X69398Y195531D01*
X63000Y190905D02*
X64772D01*
X81736Y218128D02*
X82492Y218884D01*
X81736Y215101D02*
Y218128D01*
X79965Y214367D02*
X81228Y213103D01*
X79965Y218862D02*
X80721Y219618D01*
X79965Y214367D02*
Y218862D01*
X69398Y185531D02*
X74168D01*
X79457Y190820D01*
X64772Y180905D02*
X69398Y185531D01*
X63000Y180905D02*
X64772D01*
X81228Y180000D02*
Y213103D01*
X81736Y215101D02*
X83000Y213837D01*
Y174363D02*
Y213837D01*
X77190Y175961D02*
X81228Y180000D01*
X74168Y165532D02*
X83000Y174363D01*
X82394Y230000D02*
X82490Y229903D01*
X64772Y170905D02*
X69827Y175961D01*
X63000Y170905D02*
X64772D01*
X69827Y175961D02*
X77190D01*
X69398Y165532D02*
X74168D01*
X63000Y160906D02*
X64772D01*
X69398Y165532D01*
X70146Y126279D02*
X82508D01*
X69398Y115532D02*
X74266D01*
X70146Y136279D02*
X90003D01*
X70146Y146280D02*
X97497D01*
X69398Y105532D02*
X74168D01*
X64772Y100906D02*
X69398Y105532D01*
X135345Y248470D02*
X136404Y247411D01*
X135345Y248470D02*
Y248736D01*
X132861Y247543D02*
X134633Y245772D01*
X130908Y245571D02*
X132861Y243618D01*
X131041Y240343D02*
X131089Y240295D01*
X131041Y240343D02*
Y241596D01*
X129644Y242993D02*
Y243122D01*
Y242993D02*
X131041Y241596D01*
X127358Y238950D02*
X127922D01*
X126498Y239543D02*
X126764D01*
X127358Y238950D01*
X127922D02*
X129248Y237624D01*
X63000Y150906D02*
X64772D01*
X69398Y155532D01*
X64772Y140905D02*
X70146Y146280D01*
X63000Y140905D02*
X64772D01*
X63000Y130905D02*
X64772D01*
X70146Y136279D01*
X64772Y120905D02*
X70146Y126279D01*
X63000Y120905D02*
X64772D01*
Y110906D02*
X69398Y115532D01*
X63000Y110906D02*
X64772D01*
X63000Y100906D02*
X64772D01*
D44*
X91891Y256000D02*
X92441Y256551D01*
X88478Y293497D02*
Y298732D01*
Y293497D02*
X88548Y293426D01*
X63000Y307000D02*
X73032Y296969D01*
X81428Y292252D02*
Y294481D01*
X73032Y296969D02*
X78940D01*
X81428Y292252D02*
X81483Y292198D01*
X78940Y296969D02*
X81428Y294481D01*
X53000Y307000D02*
X65000Y295000D01*
X77355D01*
X78046Y294309D02*
X78259D01*
X77355Y295000D02*
X78046Y294309D01*
X43000Y307000D02*
X57802Y292198D01*
X76488D01*
X100000Y304000D02*
Y308681D01*
X103043Y311724D02*
X126957D01*
X100000Y308681D02*
X103043Y311724D01*
X126957D02*
X129724Y308957D01*
Y307692D02*
Y308957D01*
Y307692D02*
X130416Y307000D01*
X135000D01*
X105061Y286061D02*
X119672D01*
X94000Y275000D02*
X105061Y286061D01*
X66555Y246555D02*
X67000Y247000D01*
X54094Y246457D02*
X54192Y246555D01*
X66555D01*
X117000Y231000D02*
X117621Y230379D01*
X121672D01*
X126833Y236536D02*
X126984Y236686D01*
X121672Y230379D02*
X126833Y235540D01*
Y236536D01*
X60000Y56000D02*
X94000D01*
X100000Y62000D01*
X79681Y50906D02*
X97000D01*
X84067Y217258D02*
X86671D01*
X87413Y218000D02*
X106000D01*
X86671Y217258D02*
X87413Y218000D01*
X74776Y46000D02*
X79681Y50906D01*
X60000Y46000D02*
X74776D01*
X106000Y218000D02*
X108000Y220000D01*
Y230179D01*
D45*
X91891Y256000D02*
X92441Y255450D01*
X113758Y277868D02*
Y281500D01*
X91891Y268843D02*
X104047Y281000D01*
X92441Y256551D02*
X113758Y277868D01*
X91891Y256000D02*
Y268843D01*
X72550Y236000D02*
X92000Y255450D01*
X67505D02*
X92000D01*
X66000Y236000D02*
X72550D01*
X117000Y220071D02*
Y231000D01*
X10598Y136648D02*
Y148598D01*
X12000Y150000D01*
X16760Y232917D02*
X55000Y194677D01*
X16760Y232917D02*
Y238000D01*
X92550Y255450D02*
X117958D01*
X117994Y255413D01*
X67147Y255807D02*
X67505Y255450D01*
X73000Y200905D02*
Y232000D01*
X92550Y252551D02*
Y255450D01*
X76488Y236488D02*
X92550Y252551D01*
X76488Y232087D02*
Y236488D01*
X92550Y255450D02*
X117000Y231000D01*
D46*
X73000Y317000D02*
D03*
Y307000D02*
D03*
X63000Y317000D02*
D03*
Y307000D02*
D03*
X53000Y317000D02*
D03*
Y307000D02*
D03*
X43000Y317000D02*
D03*
X125000Y319000D02*
D03*
X115000D02*
D03*
X85000Y307000D02*
D03*
X95000D02*
D03*
X105000D02*
D03*
X115000D02*
D03*
X125000D02*
D03*
X73000Y10905D02*
D03*
Y20906D02*
D03*
Y30906D02*
D03*
Y40905D02*
D03*
Y50906D02*
D03*
Y130905D02*
D03*
Y140905D02*
D03*
Y150906D02*
D03*
Y160906D02*
D03*
Y170905D02*
D03*
Y180905D02*
D03*
Y190905D02*
D03*
Y120905D02*
D03*
Y110906D02*
D03*
Y100906D02*
D03*
Y90905D02*
D03*
Y80905D02*
D03*
Y70906D02*
D03*
Y60905D02*
D03*
X133000Y10905D02*
D03*
Y20906D02*
D03*
Y30906D02*
D03*
Y40905D02*
D03*
Y50906D02*
D03*
Y130905D02*
D03*
Y140905D02*
D03*
Y150906D02*
D03*
Y160906D02*
D03*
Y170905D02*
D03*
Y180905D02*
D03*
Y190905D02*
D03*
Y120905D02*
D03*
Y110906D02*
D03*
Y100906D02*
D03*
Y90905D02*
D03*
Y80905D02*
D03*
Y70906D02*
D03*
Y60905D02*
D03*
D47*
X43000Y307000D02*
D03*
X135000Y319000D02*
D03*
Y307000D02*
D03*
D48*
X19299Y284197D02*
D03*
X29299Y289197D02*
D03*
Y249197D02*
D03*
X19299Y254197D02*
D03*
X29299Y259197D02*
D03*
X19299Y264197D02*
D03*
X29299Y269197D02*
D03*
X19299Y274197D02*
D03*
X29299Y279197D02*
D03*
X19299Y294197D02*
D03*
X32409Y125906D02*
D03*
X42409Y110906D02*
D03*
X32409Y105905D02*
D03*
X42409Y100906D02*
D03*
X32409Y95906D02*
D03*
X42409Y90905D02*
D03*
X32409Y85905D02*
D03*
X42409Y80905D02*
D03*
Y120905D02*
D03*
X32409Y115905D02*
D03*
X42409Y70906D02*
D03*
X32409Y65905D02*
D03*
X42409Y60905D02*
D03*
X32409Y75906D02*
D03*
Y55905D02*
D03*
X42409Y40905D02*
D03*
X32409Y35906D02*
D03*
X42409Y30906D02*
D03*
X32409Y25905D02*
D03*
X42409Y20906D02*
D03*
X32409Y15905D02*
D03*
X42409Y10905D02*
D03*
Y50906D02*
D03*
X32409Y45906D02*
D03*
D49*
X123000Y10905D02*
D03*
Y20906D02*
D03*
Y30906D02*
D03*
Y40905D02*
D03*
Y50906D02*
D03*
Y60905D02*
D03*
Y70906D02*
D03*
Y80905D02*
D03*
Y90905D02*
D03*
Y100906D02*
D03*
Y110906D02*
D03*
Y120905D02*
D03*
Y130905D02*
D03*
Y140905D02*
D03*
Y150906D02*
D03*
Y160906D02*
D03*
Y170905D02*
D03*
Y180905D02*
D03*
Y190905D02*
D03*
Y200905D02*
D03*
X63000Y10905D02*
D03*
Y20906D02*
D03*
Y30906D02*
D03*
Y40905D02*
D03*
Y50906D02*
D03*
Y60905D02*
D03*
Y70906D02*
D03*
Y80905D02*
D03*
Y90905D02*
D03*
Y100906D02*
D03*
Y110906D02*
D03*
Y120905D02*
D03*
Y130905D02*
D03*
Y140905D02*
D03*
Y150906D02*
D03*
Y160906D02*
D03*
Y170905D02*
D03*
Y180905D02*
D03*
Y190905D02*
D03*
D50*
Y200905D02*
D03*
D51*
X73000D02*
D03*
X133000D02*
D03*
D52*
X80059Y130905D02*
D03*
X82000Y140905D02*
D03*
Y151000D02*
D03*
X94000Y60000D02*
D03*
X104000Y19000D02*
D03*
X53000D02*
D03*
X23000Y9000D02*
D03*
X58000Y217000D02*
D03*
X18000Y220000D02*
D03*
X22000Y249000D02*
D03*
X9000Y310000D02*
D03*
X29299Y303000D02*
D03*
X102500Y252551D02*
D03*
X102000Y259209D02*
D03*
X95841Y265042D02*
D03*
X84000Y259597D02*
D03*
X82041Y251192D02*
D03*
X94159Y248000D02*
D03*
X134385Y210000D02*
D03*
X88548Y293426D02*
D03*
X7000Y292000D02*
D03*
X81483Y292198D02*
D03*
X78259Y294309D02*
D03*
X76488Y292198D02*
D03*
X5000Y250000D02*
D03*
X7000Y278000D02*
D03*
X44199Y264910D02*
D03*
X46990Y264187D02*
D03*
X47416Y261079D02*
D03*
X47414Y258289D02*
D03*
X117000Y220071D02*
D03*
X109497Y292300D02*
D03*
X109000Y303000D02*
D03*
X134818Y296567D02*
D03*
X131436Y292815D02*
D03*
X100000Y304000D02*
D03*
X63850Y286024D02*
D03*
X136386Y294014D02*
D03*
X118529Y277362D02*
D03*
X113758Y281500D02*
D03*
X69120Y271457D02*
D03*
X71000Y264000D02*
D03*
X10598Y136648D02*
D03*
X38000Y154000D02*
D03*
X19220Y156264D02*
D03*
X24220D02*
D03*
X12000Y150000D02*
D03*
X133042Y286456D02*
D03*
X138244Y275096D02*
D03*
X138228Y268022D02*
D03*
X55094Y193000D02*
D03*
X55819Y244193D02*
D03*
X16760Y238000D02*
D03*
X94000Y275000D02*
D03*
X119672Y286061D02*
D03*
X117000Y261652D02*
D03*
X114000Y263000D02*
D03*
X129284Y264622D02*
D03*
X133075Y280520D02*
D03*
X132843Y274848D02*
D03*
X129284Y255464D02*
D03*
X129378Y261000D02*
D03*
X132837Y268185D02*
D03*
X139000Y255000D02*
D03*
X117994Y255413D02*
D03*
X127922Y252071D02*
D03*
X116000Y258205D02*
D03*
X47496Y255519D02*
D03*
X67147Y255807D02*
D03*
X68506Y252694D02*
D03*
X70971Y258235D02*
D03*
X73000Y260601D02*
D03*
X67000Y250000D02*
D03*
Y247000D02*
D03*
X54094Y246457D02*
D03*
X68772Y241929D02*
D03*
Y238756D02*
D03*
X66000Y236000D02*
D03*
X42000Y225000D02*
D03*
X56000Y239000D02*
D03*
X51531Y225394D02*
D03*
X44000Y222814D02*
D03*
X48303D02*
D03*
X73000Y232000D02*
D03*
X45000Y168000D02*
D03*
X50000Y165000D02*
D03*
X39220Y160000D02*
D03*
X34220Y159000D02*
D03*
X29221Y158000D02*
D03*
X55000Y146280D02*
D03*
X104047Y281000D02*
D03*
X76488Y232087D02*
D03*
X78992Y230935D02*
D03*
X140016Y221839D02*
D03*
X121672Y230379D02*
D03*
X100000Y62000D02*
D03*
X97000Y50906D02*
D03*
X84067Y217258D02*
D03*
Y221205D02*
D03*
X78457Y220556D02*
D03*
X82394Y230000D02*
D03*
X113000Y77000D02*
D03*
X60000Y56000D02*
D03*
Y46000D02*
D03*
X108000Y230179D02*
D03*
X126984Y236686D02*
D03*
X135345Y248736D02*
D03*
X130908Y245571D02*
D03*
X132861Y247543D02*
D03*
X129644Y243122D02*
D03*
X126498Y239543D02*
D03*
D53*
X88051Y5000D02*
D03*
M02*
