G04*
G04 #@! TF.GenerationSoftware,Altium Limited,Altium Designer,21.1.0 (24)*
G04*
G04 Layer_Physical_Order=1*
G04 Layer_Color=255*
%FSLAX25Y25*%
%MOIN*%
G70*
G04*
G04 #@! TF.SameCoordinates,593A92C0-0D7A-4823-B9BF-B5AAC7A53552*
G04*
G04*
G04 #@! TF.FilePolarity,Positive*
G04*
G01*
G75*
%ADD10C,0.03937*%
%ADD12C,0.00984*%
G04:AMPARAMS|DCode=16|XSize=31.5mil|YSize=29.53mil|CornerRadius=7.38mil|HoleSize=0mil|Usage=FLASHONLY|Rotation=270.000|XOffset=0mil|YOffset=0mil|HoleType=Round|Shape=RoundedRectangle|*
%AMROUNDEDRECTD16*
21,1,0.03150,0.01476,0,0,270.0*
21,1,0.01673,0.02953,0,0,270.0*
1,1,0.01476,-0.00738,-0.00837*
1,1,0.01476,-0.00738,0.00837*
1,1,0.01476,0.00738,0.00837*
1,1,0.01476,0.00738,-0.00837*
%
%ADD16ROUNDEDRECTD16*%
%ADD17R,0.03543X0.03740*%
G04:AMPARAMS|DCode=18|XSize=23.62mil|YSize=39.37mil|CornerRadius=5.91mil|HoleSize=0mil|Usage=FLASHONLY|Rotation=90.000|XOffset=0mil|YOffset=0mil|HoleType=Round|Shape=RoundedRectangle|*
%AMROUNDEDRECTD18*
21,1,0.02362,0.02756,0,0,90.0*
21,1,0.01181,0.03937,0,0,90.0*
1,1,0.01181,0.01378,0.00591*
1,1,0.01181,0.01378,-0.00591*
1,1,0.01181,-0.01378,-0.00591*
1,1,0.01181,-0.01378,0.00591*
%
%ADD18ROUNDEDRECTD18*%
%ADD19R,0.03937X0.04134*%
%ADD20O,0.05512X0.01181*%
%ADD21O,0.01181X0.05512*%
G04:AMPARAMS|DCode=22|XSize=31.5mil|YSize=29.53mil|CornerRadius=7.38mil|HoleSize=0mil|Usage=FLASHONLY|Rotation=0.000|XOffset=0mil|YOffset=0mil|HoleType=Round|Shape=RoundedRectangle|*
%AMROUNDEDRECTD22*
21,1,0.03150,0.01476,0,0,0.0*
21,1,0.01673,0.02953,0,0,0.0*
1,1,0.01476,0.00837,-0.00738*
1,1,0.01476,-0.00837,-0.00738*
1,1,0.01476,-0.00837,0.00738*
1,1,0.01476,0.00837,0.00738*
%
%ADD22ROUNDEDRECTD22*%
%ADD23R,0.04134X0.03937*%
G04:AMPARAMS|DCode=24|XSize=45.28mil|YSize=57.09mil|CornerRadius=11.32mil|HoleSize=0mil|Usage=FLASHONLY|Rotation=0.000|XOffset=0mil|YOffset=0mil|HoleType=Round|Shape=RoundedRectangle|*
%AMROUNDEDRECTD24*
21,1,0.04528,0.03445,0,0,0.0*
21,1,0.02264,0.05709,0,0,0.0*
1,1,0.02264,0.01132,-0.01722*
1,1,0.02264,-0.01132,-0.01722*
1,1,0.02264,-0.01132,0.01722*
1,1,0.02264,0.01132,0.01722*
%
%ADD24ROUNDEDRECTD24*%
%ADD25O,0.02362X0.07480*%
%ADD26R,0.01260X0.01968*%
%ADD44C,0.01181*%
%ADD45C,0.01968*%
%ADD46C,0.06693*%
%ADD47R,0.06693X0.06693*%
%ADD48O,0.07874X0.05512*%
%ADD49O,0.09843X0.06299*%
%ADD50R,0.09843X0.06299*%
%ADD51R,0.06693X0.06693*%
%ADD52C,0.01968*%
%ADD53C,0.03937*%
G36*
X128654Y324499D02*
X126857Y322702D01*
X126596Y322852D01*
X125544Y323134D01*
X124456D01*
X123404Y322852D01*
X122462Y322308D01*
X121692Y321538D01*
X121148Y320596D01*
X120866Y319544D01*
Y318456D01*
X121148Y317404D01*
X121692Y316462D01*
X122462Y315692D01*
X123404Y315148D01*
X124456Y314866D01*
X125544D01*
X126596Y315148D01*
X127538Y315692D01*
X128308Y316462D01*
X128852Y317404D01*
X129134Y318456D01*
Y319544D01*
X128852Y320596D01*
X128701Y320856D01*
X130366Y322521D01*
X130866Y322314D01*
Y314866D01*
X138321D01*
Y311134D01*
X130866D01*
Y310228D01*
X130366Y310021D01*
X127839Y312548D01*
X127415Y312831D01*
X126916Y312931D01*
X119626D01*
X119127Y312831D01*
X118703Y312548D01*
X116857Y310701D01*
X116596Y310852D01*
X115544Y311134D01*
X114456D01*
X113404Y310852D01*
X112462Y310308D01*
X111692Y309538D01*
X111413Y309055D01*
X110886Y309142D01*
X110831Y309415D01*
X110548Y309839D01*
X107839Y312548D01*
X107415Y312831D01*
X106916Y312931D01*
X99626D01*
X99127Y312831D01*
X98703Y312548D01*
X96856Y310701D01*
X96596Y310852D01*
X95544Y311134D01*
X94456D01*
X93404Y310852D01*
X92462Y310308D01*
X91692Y309538D01*
X91148Y308596D01*
X90866Y307544D01*
Y306456D01*
X91148Y305404D01*
X91692Y304462D01*
X92462Y303692D01*
X93404Y303148D01*
X94456Y302866D01*
X95544D01*
X96596Y303148D01*
X97538Y303692D01*
X97728Y303882D01*
X98228Y303675D01*
Y303648D01*
X98498Y302996D01*
X98595Y302900D01*
Y300362D01*
X96673D01*
Y297394D01*
Y294425D01*
X99240D01*
Y294638D01*
X100674D01*
Y293087D01*
X100781Y292549D01*
X101085Y292093D01*
X102642Y290536D01*
Y289992D01*
X102142Y289581D01*
X102079Y289594D01*
X101541Y289487D01*
X101094Y289189D01*
X100648Y289487D01*
X100110Y289594D01*
X99573Y289487D01*
X99126Y289189D01*
X98679Y289487D01*
X98142Y289594D01*
X97604Y289487D01*
X97158Y289189D01*
X96711Y289487D01*
X96173Y289594D01*
X95636Y289487D01*
X95369Y289309D01*
X95351Y289336D01*
X94825Y289687D01*
X94705Y289711D01*
Y286024D01*
Y282336D01*
X94825Y282360D01*
X95351Y282712D01*
X95369Y282738D01*
X95636Y282560D01*
X96173Y282453D01*
X96711Y282560D01*
X97158Y282859D01*
X97604Y282560D01*
X98142Y282453D01*
X98679Y282560D01*
X99126Y282859D01*
X99573Y282560D01*
X100110Y282453D01*
X100648Y282560D01*
X101094Y282859D01*
X101541Y282560D01*
X102079Y282453D01*
X102142Y282466D01*
X102234Y282399D01*
X102545Y282003D01*
X102276Y281352D01*
Y280648D01*
X102545Y279996D01*
X103044Y279498D01*
X103695Y279228D01*
X104400D01*
X105051Y279498D01*
X105549Y279996D01*
X105819Y280648D01*
Y281352D01*
X105549Y282003D01*
X105860Y282399D01*
X105952Y282466D01*
X106016Y282453D01*
X106553Y282560D01*
X107000Y282859D01*
X107447Y282560D01*
X107984Y282453D01*
X108522Y282560D01*
X108968Y282859D01*
X109415Y282560D01*
X109953Y282453D01*
X110490Y282560D01*
X110937Y282859D01*
X111384Y282560D01*
X111712Y282495D01*
X112011Y282067D01*
X112034Y281966D01*
X111987Y281852D01*
Y281147D01*
X112256Y280496D01*
X112755Y279998D01*
X112945Y279919D01*
X113288Y279533D01*
X113272Y279450D01*
X113272Y279450D01*
X113241Y279296D01*
X113189Y279034D01*
Y274704D01*
X113288Y274205D01*
X113571Y273782D01*
X118749Y268603D01*
X118802Y268568D01*
X118888Y268140D01*
X118864Y268020D01*
X122551D01*
X126239D01*
X126215Y268140D01*
X125863Y268666D01*
X125837Y268684D01*
X126014Y268951D01*
X126121Y269488D01*
X126014Y270026D01*
X125716Y270472D01*
X126014Y270919D01*
X126121Y271457D01*
X126014Y271994D01*
X125716Y272441D01*
X126014Y272888D01*
X126121Y273425D01*
X126014Y273963D01*
X125991Y273999D01*
X125930Y274226D01*
X126353Y274509D01*
X127066Y275222D01*
X127527Y275030D01*
Y274705D01*
X130387D01*
X130448Y274614D01*
X130181Y274114D01*
X127527D01*
Y268799D01*
X130801D01*
X131065Y268535D01*
Y267833D01*
X131067Y267829D01*
X130789Y267413D01*
X130268D01*
Y266583D01*
X129852Y266305D01*
X129637Y266394D01*
X128932D01*
X128281Y266124D01*
X127782Y265626D01*
X127513Y264975D01*
Y264696D01*
X126593Y263776D01*
X126050Y263941D01*
X126014Y264120D01*
X125716Y264567D01*
X126014Y265014D01*
X126121Y265551D01*
X126014Y266089D01*
X125837Y266355D01*
X125863Y266373D01*
X126215Y266899D01*
X126239Y267020D01*
X122551D01*
X118521D01*
X118386Y266856D01*
X116551D01*
X116052Y266757D01*
X115629Y266474D01*
X113927Y264772D01*
X113648D01*
X112996Y264502D01*
X112498Y264004D01*
X112228Y263352D01*
Y262648D01*
X112498Y261996D01*
X112996Y261498D01*
X113648Y261228D01*
X114352D01*
X114728Y261384D01*
X115151Y261313D01*
X115302Y261122D01*
X115498Y260648D01*
X115669Y260477D01*
X115662Y260317D01*
X115516Y259923D01*
X114996Y259707D01*
X114498Y259209D01*
X114228Y258558D01*
Y257853D01*
X114498Y257202D01*
X114996Y256703D01*
X115648Y256434D01*
X115957D01*
X116292Y255934D01*
X116222Y255766D01*
Y255061D01*
X116492Y254410D01*
X116990Y253911D01*
X117641Y253642D01*
X118346D01*
X118503Y253707D01*
X119050Y253392D01*
X119088Y253203D01*
X119386Y252756D01*
X119088Y252309D01*
X118981Y251772D01*
X119088Y251234D01*
X119386Y250787D01*
X119088Y250341D01*
X118981Y249803D01*
X119088Y249266D01*
X119386Y248819D01*
X119088Y248372D01*
X118981Y247835D01*
X119088Y247297D01*
X119386Y246850D01*
X119088Y246404D01*
X118981Y245866D01*
X119088Y245328D01*
X119386Y244882D01*
X119088Y244435D01*
X118981Y243898D01*
X119088Y243360D01*
X119266Y243094D01*
X119239Y243076D01*
X118888Y242550D01*
X118864Y242429D01*
X122551D01*
Y241429D01*
X118864D01*
X118888Y241308D01*
X119239Y240782D01*
X119266Y240765D01*
X119088Y240498D01*
X118981Y239961D01*
X119079Y239469D01*
X118777Y239233D01*
X118668Y239166D01*
X118636Y239160D01*
X118212Y238877D01*
X115822Y236486D01*
X115539Y236063D01*
X115439Y235564D01*
Y229318D01*
X115321Y228857D01*
X114874Y228559D01*
X114427Y228857D01*
X113890Y228964D01*
X113352Y228857D01*
X112906Y228559D01*
X112459Y228857D01*
X111921Y228964D01*
X111384Y228857D01*
X110937Y228559D01*
X110490Y228857D01*
X110168Y228921D01*
X109868Y229354D01*
X109847Y229453D01*
X109941Y229679D01*
X106059D01*
X106156Y229446D01*
X106123Y229334D01*
X105830Y228927D01*
X105478Y228857D01*
X105032Y228559D01*
X104585Y228857D01*
X104047Y228964D01*
X103510Y228857D01*
X103063Y228559D01*
X102616Y228857D01*
X102079Y228964D01*
X101541Y228857D01*
X101094Y228559D01*
X100648Y228857D01*
X100110Y228964D01*
X99573Y228857D01*
X99126Y228559D01*
X98679Y228857D01*
X98142Y228964D01*
X97604Y228857D01*
X97158Y228559D01*
X96711Y228857D01*
X96173Y228964D01*
X95636Y228857D01*
X95189Y228559D01*
X94742Y228857D01*
X94205Y228964D01*
X93667Y228857D01*
X93221Y228559D01*
X92774Y228857D01*
X92236Y228964D01*
X91699Y228857D01*
X91252Y228559D01*
X90805Y228857D01*
X90268Y228964D01*
X89730Y228857D01*
X89284Y228559D01*
X88837Y228857D01*
X88299Y228964D01*
X87761Y228857D01*
X87315Y228559D01*
X86868Y228857D01*
X86331Y228964D01*
X85793Y228857D01*
X85346Y228559D01*
X84900Y228857D01*
X84419Y228953D01*
X84323Y229024D01*
X84069Y229415D01*
X84165Y229648D01*
Y230352D01*
X83896Y231004D01*
X83397Y231502D01*
X82746Y231772D01*
X82041D01*
X81390Y231502D01*
X81238Y231349D01*
X81200Y231345D01*
X80677Y231496D01*
X80494Y231939D01*
X79995Y232437D01*
X79344Y232707D01*
X78640D01*
X78221Y232533D01*
X77990Y233090D01*
X77492Y233589D01*
X76841Y233858D01*
X76136D01*
X75485Y233589D01*
X75164Y233268D01*
X74812Y233163D01*
X74524Y233282D01*
X74124Y233682D01*
X73500Y233941D01*
Y232000D01*
Y230059D01*
X74124Y230318D01*
X74583Y230777D01*
X75045Y230648D01*
X75083Y230624D01*
Y229362D01*
X74583Y228951D01*
X74520Y228964D01*
X73982Y228857D01*
X73535Y228559D01*
X73089Y228857D01*
X72551Y228964D01*
X72013Y228857D01*
X71567Y228559D01*
X71120Y228857D01*
X70583Y228964D01*
X70045Y228857D01*
X69598Y228559D01*
X69152Y228857D01*
X68614Y228964D01*
X68076Y228857D01*
X67621Y228553D01*
X67316Y228097D01*
X67209Y227559D01*
Y223228D01*
X67310Y222724D01*
Y221153D01*
X58111Y211954D01*
X54801D01*
X54462Y211887D01*
X48303D01*
X47804Y211787D01*
X47381Y211505D01*
X33377Y197501D01*
X33094Y197078D01*
X33055Y197061D01*
X32623Y197350D01*
X32463Y197897D01*
X56458Y221892D01*
X56740Y222315D01*
X56840Y222814D01*
Y231164D01*
X57647Y231972D01*
X58190Y231807D01*
X58258Y231466D01*
X58609Y230940D01*
X59135Y230588D01*
X59756Y230465D01*
X61421D01*
Y232087D01*
X61921D01*
Y232587D01*
X65609D01*
X65585Y232707D01*
X65233Y233233D01*
X65207Y233251D01*
X65385Y233518D01*
X65436Y233775D01*
X65582Y234088D01*
X65967Y234228D01*
X66352D01*
X67004Y234498D01*
X67502Y234996D01*
X67772Y235648D01*
Y236352D01*
X67663Y236615D01*
X67997Y237115D01*
X68103D01*
X68419Y236984D01*
X69124D01*
X69775Y237254D01*
X70274Y237752D01*
X70543Y238404D01*
Y239108D01*
X70274Y239759D01*
X70017Y240016D01*
X69825Y240342D01*
X70017Y240669D01*
X70274Y240926D01*
X70543Y241577D01*
Y242282D01*
X70274Y242933D01*
X69775Y243431D01*
X69124Y243701D01*
X68419D01*
X67768Y243431D01*
X67571Y243234D01*
X65856D01*
X65459Y243734D01*
X65491Y243898D01*
X65385Y244435D01*
X65179Y244743D01*
X65409Y245222D01*
X65835Y245331D01*
X65891Y245312D01*
X66500Y245059D01*
Y247000D01*
X67000D01*
Y247500D01*
X68941D01*
X68682Y248124D01*
X68156Y248650D01*
X68502Y248996D01*
X68772Y249648D01*
Y250352D01*
X68659Y250624D01*
X68858Y250922D01*
X69509Y251192D01*
X70007Y251690D01*
X70277Y252341D01*
Y253046D01*
X70007Y253697D01*
X69509Y254195D01*
X68971Y254418D01*
X68820Y254599D01*
X68716Y254965D01*
X68919Y255455D01*
Y256159D01*
X68840Y256351D01*
X69117Y256766D01*
X69934D01*
X69967Y256733D01*
X70618Y256463D01*
X71323D01*
X71974Y256733D01*
X72473Y257231D01*
X72742Y257882D01*
Y258367D01*
X72742Y258587D01*
X73183Y258829D01*
X73352D01*
X74004Y259099D01*
X74502Y259597D01*
X74772Y260248D01*
Y260953D01*
X74502Y261604D01*
X74004Y262103D01*
X73352Y262372D01*
X72648D01*
X72541Y262328D01*
X72258Y262752D01*
X72502Y262996D01*
X72772Y263648D01*
Y264352D01*
X72502Y265004D01*
X72004Y265502D01*
X71352Y265772D01*
X70648D01*
X69996Y265502D01*
X69498Y265004D01*
X69228Y264352D01*
Y264301D01*
X67846Y262919D01*
X66086D01*
X65952Y263083D01*
X61921D01*
X58234D01*
X58258Y262962D01*
X58609Y262436D01*
X58636Y262418D01*
X58458Y262152D01*
X58351Y261614D01*
X58458Y261076D01*
X58756Y260630D01*
X58458Y260183D01*
X58351Y259646D01*
X58458Y259108D01*
X58756Y258661D01*
X58458Y258215D01*
X58351Y257677D01*
X58364Y257614D01*
X57953Y257114D01*
X57133D01*
X56812Y257434D01*
X56357Y257739D01*
X55819Y257846D01*
X53992D01*
Y259886D01*
X54205D01*
Y262453D01*
X51236D01*
Y263453D01*
X54205D01*
Y266020D01*
X54624Y266215D01*
X57987D01*
X58384Y265715D01*
X58351Y265551D01*
X58458Y265014D01*
X58636Y264747D01*
X58609Y264729D01*
X58258Y264203D01*
X58234Y264083D01*
X61921D01*
X65609D01*
X65585Y264203D01*
X65414Y264460D01*
X65723Y264666D01*
X70042Y268986D01*
X70325Y269409D01*
X70424Y269908D01*
Y270256D01*
X70622Y270453D01*
X70891Y271104D01*
Y271809D01*
X70622Y272460D01*
X70123Y272959D01*
X69472Y273228D01*
X68767D01*
X68116Y272959D01*
X67618Y272460D01*
X67348Y271809D01*
Y271104D01*
X67618Y270453D01*
X67719Y270352D01*
X66047Y268681D01*
X65445Y268785D01*
X65374Y268935D01*
X65385Y268951D01*
X65491Y269488D01*
X65385Y270026D01*
X65086Y270472D01*
X65385Y270919D01*
X65491Y271457D01*
X65385Y271994D01*
X65086Y272441D01*
X65385Y272888D01*
X65491Y273425D01*
X65385Y273963D01*
X65086Y274410D01*
X65385Y274856D01*
X65491Y275394D01*
X65385Y275931D01*
X65086Y276378D01*
X65385Y276825D01*
X65491Y277362D01*
X65385Y277900D01*
X65086Y278346D01*
X65385Y278793D01*
X65491Y279331D01*
X65385Y279868D01*
X65080Y280324D01*
X64624Y280629D01*
X64087Y280736D01*
X59756D01*
X59251Y280635D01*
X45547D01*
X42027Y284155D01*
X41604Y284438D01*
X41105Y284537D01*
X26447D01*
X25947Y284438D01*
X25524Y284155D01*
X24355Y282986D01*
X23931Y283269D01*
X23932Y283272D01*
X24054Y284197D01*
X23932Y285122D01*
X23575Y285984D01*
X23007Y286724D01*
X22619Y287022D01*
X22598Y287538D01*
X24065Y289006D01*
X24593Y288827D01*
X24666Y288272D01*
X25023Y287410D01*
X25591Y286670D01*
X26331Y286102D01*
X27193Y285745D01*
X28118Y285623D01*
X30480D01*
X31405Y285745D01*
X32267Y286102D01*
X33007Y286670D01*
X33457Y287255D01*
X33786D01*
X34187Y286988D01*
X34686Y286888D01*
X54563D01*
X55062Y286988D01*
X55486Y287270D01*
X57337Y289121D01*
X66769D01*
X67079Y288621D01*
X66992Y288189D01*
Y286524D01*
X68614D01*
Y286024D01*
X69114D01*
Y282336D01*
X69235Y282360D01*
X69761Y282712D01*
X69779Y282738D01*
X70045Y282560D01*
X70583Y282453D01*
X71120Y282560D01*
X71567Y282859D01*
X72013Y282560D01*
X72551Y282453D01*
X73089Y282560D01*
X73535Y282859D01*
X73982Y282560D01*
X74520Y282453D01*
X75057Y282560D01*
X75504Y282859D01*
X75950Y282560D01*
X76488Y282453D01*
X77026Y282560D01*
X77472Y282859D01*
X77919Y282560D01*
X78457Y282453D01*
X78994Y282560D01*
X79261Y282738D01*
X79278Y282712D01*
X79805Y282360D01*
X79925Y282336D01*
Y286024D01*
X80925D01*
Y282336D01*
X81046Y282360D01*
X81572Y282712D01*
X81590Y282738D01*
X81856Y282560D01*
X82394Y282453D01*
X82931Y282560D01*
X83378Y282859D01*
X83824Y282560D01*
X84362Y282453D01*
X84900Y282560D01*
X85346Y282859D01*
X85793Y282560D01*
X86331Y282453D01*
X86868Y282560D01*
X87315Y282859D01*
X87761Y282560D01*
X88299Y282453D01*
X88837Y282560D01*
X89284Y282859D01*
X89730Y282560D01*
X90268Y282453D01*
X90805Y282560D01*
X91252Y282859D01*
X91699Y282560D01*
X92236Y282453D01*
X92774Y282560D01*
X93040Y282738D01*
X93058Y282712D01*
X93584Y282360D01*
X93705Y282336D01*
Y286024D01*
Y289711D01*
X93584Y289687D01*
X93058Y289336D01*
X93040Y289309D01*
X92774Y289487D01*
X92236Y289594D01*
X91699Y289487D01*
X91252Y289189D01*
X90805Y289487D01*
X90268Y289594D01*
X89730Y289487D01*
X89284Y289189D01*
X88837Y289487D01*
X88299Y289594D01*
X87761Y289487D01*
X87315Y289189D01*
X86868Y289487D01*
X86331Y289594D01*
X86267Y289581D01*
X85767Y289992D01*
Y293568D01*
X86229Y293759D01*
X86777Y293211D01*
Y293074D01*
X87047Y292423D01*
X87545Y291925D01*
X88196Y291655D01*
X88901D01*
X89552Y291925D01*
X90051Y292423D01*
X90320Y293074D01*
Y293779D01*
X90051Y294430D01*
X89552Y294928D01*
X88901Y295198D01*
X88764D01*
X87736Y296226D01*
Y298232D01*
X87629Y298769D01*
X87324Y299225D01*
X84373Y302176D01*
X84500Y302439D01*
Y306500D01*
X80440D01*
X80176Y306373D01*
X79664Y306885D01*
Y308678D01*
X79557Y309215D01*
X79253Y309671D01*
X76206Y312718D01*
X75775Y313006D01*
X75707Y313289D01*
X75692Y313376D01*
X75691Y313544D01*
X76478Y314331D01*
X77050Y315322D01*
X77346Y316428D01*
Y316500D01*
X68654D01*
Y316428D01*
X68950Y315322D01*
X69522Y314331D01*
X70224Y313629D01*
X70072Y313129D01*
X65928D01*
X65776Y313629D01*
X66478Y314331D01*
X67050Y315322D01*
X67347Y316428D01*
Y316500D01*
X58653D01*
Y316428D01*
X58950Y315322D01*
X59522Y314331D01*
X60224Y313629D01*
X60072Y313129D01*
X55928D01*
X55776Y313629D01*
X56478Y314331D01*
X57050Y315322D01*
X57346Y316428D01*
Y316500D01*
X48654D01*
Y316428D01*
X48950Y315322D01*
X49522Y314331D01*
X50224Y313629D01*
X50072Y313129D01*
X45928D01*
X45776Y313629D01*
X46478Y314331D01*
X47050Y315322D01*
X47346Y316428D01*
Y316500D01*
X38654D01*
Y316428D01*
X38950Y315322D01*
X39522Y314331D01*
X40224Y313629D01*
X40072Y313129D01*
X39083D01*
X38545Y313022D01*
X38089Y312718D01*
X35776Y310405D01*
X28376D01*
X28086Y310838D01*
X27582Y311175D01*
X26986Y311294D01*
X25313D01*
X24718Y311175D01*
X24213Y310838D01*
X23876Y310333D01*
X23757Y309738D01*
Y308262D01*
X23876Y307667D01*
X24213Y307162D01*
X24718Y306825D01*
X25313Y306706D01*
X26986D01*
X27582Y306825D01*
X28086Y307162D01*
X28376Y307595D01*
X36358D01*
X36896Y307702D01*
X37352Y308007D01*
X38404Y309059D01*
X38866Y308868D01*
Y302866D01*
X44743D01*
Y299740D01*
X44630D01*
Y296197D01*
X44630D01*
Y295936D01*
X44308Y295437D01*
X38866D01*
X34978Y299324D01*
X34522Y299629D01*
X33985Y299736D01*
X16406D01*
X15868Y299629D01*
X15412Y299324D01*
X12658Y296570D01*
X12243Y296696D01*
X12153Y296772D01*
X11838Y297244D01*
X11333Y297581D01*
X10738Y297699D01*
X9262D01*
X8666Y297581D01*
X8162Y297244D01*
X7825Y296739D01*
X7706Y296144D01*
Y294656D01*
X6822Y293772D01*
X6648D01*
X5996Y293502D01*
X5498Y293004D01*
X5228Y292352D01*
Y291648D01*
X5498Y290996D01*
X5996Y290498D01*
X6648Y290228D01*
X7352D01*
X8004Y290498D01*
X8502Y290996D01*
X8772Y291648D01*
Y292031D01*
X9656Y292915D01*
X10738D01*
X11095Y292986D01*
X11595Y292653D01*
Y285257D01*
X11095Y284884D01*
X10738Y284955D01*
X10500D01*
Y282347D01*
Y279738D01*
X10738D01*
X11095Y279809D01*
X11595Y279436D01*
Y278702D01*
X11095Y278368D01*
X10738Y278439D01*
X9418D01*
X9123Y278734D01*
X8700Y279017D01*
X8436Y279069D01*
X8004Y279502D01*
X7352Y279772D01*
X6648D01*
X5996Y279502D01*
X5498Y279004D01*
X5228Y278352D01*
Y277648D01*
X5498Y276996D01*
X5996Y276498D01*
X6648Y276228D01*
X7352D01*
X7706Y275992D01*
Y275211D01*
X7825Y274615D01*
X8162Y274111D01*
X8666Y273774D01*
X9262Y273655D01*
X10738D01*
X11095Y273726D01*
X11595Y273393D01*
Y265357D01*
X11095Y264984D01*
X10738Y265055D01*
X10500D01*
Y262447D01*
Y259838D01*
X10738D01*
X11095Y259909D01*
X11595Y259537D01*
Y258802D01*
X11095Y258469D01*
X10738Y258540D01*
X9262D01*
X8666Y258421D01*
X8162Y258084D01*
X7825Y257579D01*
X7706Y256984D01*
Y255600D01*
X4266Y252160D01*
X3983Y251737D01*
X3921Y251427D01*
X3498Y251004D01*
X3228Y250352D01*
Y249648D01*
X3498Y248996D01*
X3996Y248498D01*
X4648Y248228D01*
X5352D01*
X6004Y248498D01*
X6502Y248996D01*
X6772Y249648D01*
Y250352D01*
X6589Y250793D01*
X9551Y253755D01*
X10738D01*
X11095Y253826D01*
X11595Y253493D01*
Y245083D01*
X8045Y241533D01*
X7741Y241077D01*
X7677Y240756D01*
X3724D01*
Y235244D01*
X4878D01*
Y233591D01*
X4753Y232961D01*
Y227842D01*
X4906Y227074D01*
X4953Y227003D01*
Y210664D01*
X2530Y208240D01*
X2520Y208225D01*
X2019Y208377D01*
Y309001D01*
X2019Y310048D01*
X2293Y312122D01*
X2834Y314144D01*
X3635Y316077D01*
X4681Y317889D01*
X5955Y319549D01*
X7435Y321029D01*
X9095Y322303D01*
X10907Y323349D01*
X12840Y324150D01*
X14862Y324692D01*
X17003Y324973D01*
X17031Y324983D01*
X17983D01*
X128446Y324999D01*
X128654Y324499D01*
D02*
G37*
G36*
X122353Y294431D02*
X122384D01*
X122576Y293970D01*
X121900Y293294D01*
X121618Y292871D01*
X121518Y292372D01*
Y287728D01*
X121018Y287521D01*
X120796Y287743D01*
X120172Y288002D01*
Y286061D01*
X119172D01*
Y288002D01*
X118548Y287743D01*
X117990Y287185D01*
X117763Y286638D01*
X117263Y286738D01*
Y288189D01*
Y294644D01*
X118786D01*
Y294431D01*
X121353D01*
Y297400D01*
X122353D01*
Y294431D01*
D02*
G37*
G36*
X140836Y285609D02*
X140980Y285524D01*
X140980Y256155D01*
X140591Y256032D01*
X140480Y256025D01*
X140004Y256502D01*
X139352Y256772D01*
X138648D01*
X137996Y256502D01*
X137498Y256004D01*
X137228Y255352D01*
Y254648D01*
X137498Y253996D01*
X137695Y253799D01*
Y228272D01*
X137795Y227773D01*
X138077Y227350D01*
X138376Y227051D01*
Y225319D01*
X138475Y224820D01*
X138711Y224467D01*
Y223040D01*
X138514Y222843D01*
X138435Y222652D01*
X137944Y222554D01*
X134385Y226113D01*
Y227364D01*
X134286Y227863D01*
X134003Y228287D01*
X131165Y231125D01*
X131357Y231587D01*
X135992D01*
Y237280D01*
X136205D01*
Y239846D01*
X133236D01*
Y240347D01*
X132736D01*
Y243413D01*
X131635D01*
X131536Y243913D01*
X131912Y244069D01*
X132410Y244567D01*
X132680Y245218D01*
Y245772D01*
X133213D01*
X133864Y246041D01*
X134363Y246540D01*
X134605Y247125D01*
X134993Y246965D01*
X135698D01*
X136349Y247234D01*
X136847Y247733D01*
X137117Y248384D01*
Y249089D01*
X136847Y249740D01*
X136349Y250238D01*
X135698Y250508D01*
X135152D01*
X134931Y250730D01*
X134507Y251012D01*
X134008Y251112D01*
X129892D01*
X129614Y251527D01*
X129693Y251718D01*
Y252423D01*
X129423Y253074D01*
X129306Y253192D01*
X129513Y253692D01*
X129637D01*
X130288Y253962D01*
X130786Y254461D01*
X131056Y255112D01*
Y255587D01*
X135992D01*
Y261280D01*
X136205D01*
Y263846D01*
X133236D01*
Y264846D01*
X136205D01*
Y266971D01*
X136705Y267071D01*
X136726Y267018D01*
X137225Y266520D01*
X137876Y266250D01*
X138581D01*
X139232Y266520D01*
X139730Y267018D01*
X140000Y267669D01*
Y268374D01*
X139730Y269025D01*
X139232Y269524D01*
X138970Y269632D01*
Y270177D01*
X138945Y270303D01*
Y273469D01*
X139248Y273594D01*
X139746Y274093D01*
X140016Y274744D01*
Y275449D01*
X139746Y276100D01*
X139248Y276598D01*
X138945Y276724D01*
Y280020D01*
X135378D01*
X134992Y280520D01*
X135016Y280610D01*
X138945D01*
Y284080D01*
X140359Y285495D01*
X140480Y285676D01*
X140836Y285609D01*
D02*
G37*
G36*
X24593Y258827D02*
X24666Y258272D01*
X25023Y257410D01*
X25591Y256670D01*
X26331Y256102D01*
X27193Y255745D01*
X28118Y255623D01*
X30480D01*
X31244Y255724D01*
X31485Y255257D01*
X30185Y253958D01*
X29903Y253535D01*
X29803Y253035D01*
Y252771D01*
X28118D01*
X27193Y252649D01*
X26331Y252292D01*
X25591Y251724D01*
X25023Y250984D01*
X24666Y250122D01*
X24544Y249197D01*
X24666Y248272D01*
X25023Y247410D01*
X25591Y246670D01*
X26331Y246102D01*
X27193Y245745D01*
X28118Y245623D01*
X30480D01*
X30908Y245679D01*
X31142Y245206D01*
X22662Y236726D01*
X19220D01*
X18877Y236658D01*
X18538Y237012D01*
X18517Y237057D01*
X18700Y237500D01*
X16760D01*
Y238000D01*
X16260D01*
Y239941D01*
X16050Y239854D01*
X15550Y240188D01*
Y240968D01*
X12983D01*
Y238000D01*
X11983D01*
Y241269D01*
X11917Y241430D01*
X13994Y243507D01*
X14298Y243963D01*
X14405Y244501D01*
Y252596D01*
X14905Y252695D01*
X15023Y252410D01*
X15591Y251670D01*
X16331Y251102D01*
X17193Y250745D01*
X18118Y250623D01*
X20110D01*
X20318Y250124D01*
X20059Y249500D01*
X23941D01*
X23682Y250124D01*
X23124Y250682D01*
X22746Y250839D01*
X22670Y251411D01*
X23007Y251670D01*
X23575Y252410D01*
X23932Y253272D01*
X24054Y254197D01*
X23932Y255122D01*
X23575Y255984D01*
X23007Y256724D01*
X22619Y257022D01*
X22598Y257538D01*
X24065Y259006D01*
X24593Y258827D01*
D02*
G37*
G36*
X128527Y218077D02*
X128950Y217795D01*
X129450Y217695D01*
X134460D01*
X136695Y215460D01*
Y210914D01*
X136195Y210815D01*
X136067Y211124D01*
X135509Y211682D01*
X134885Y211941D01*
Y210000D01*
Y208059D01*
X135509Y208318D01*
X136067Y208876D01*
X136195Y209185D01*
X136695Y209085D01*
Y205039D01*
X128866D01*
Y202615D01*
X128366Y202516D01*
X128211Y202891D01*
X127580Y203713D01*
X126757Y204345D01*
X125799Y204741D01*
X124772Y204876D01*
X124305D01*
Y221647D01*
X124767Y221838D01*
X128527Y218077D01*
D02*
G37*
G36*
X9417Y235032D02*
X10416D01*
X10568Y234531D01*
X10341Y234380D01*
X9905Y233729D01*
X9753Y232961D01*
Y227842D01*
X9905Y227074D01*
X10341Y226423D01*
X10992Y225988D01*
X11760Y225835D01*
X12528Y225988D01*
X13179Y226423D01*
X13614Y227074D01*
X13767Y227842D01*
Y232961D01*
X13614Y233729D01*
X13179Y234380D01*
X12952Y234531D01*
X13104Y235032D01*
X15416D01*
X15596Y234550D01*
X15341Y234380D01*
X14906Y233729D01*
X14753Y232961D01*
Y227842D01*
X14906Y227074D01*
X15341Y226423D01*
X15992Y225988D01*
X16760Y225835D01*
X17528Y225988D01*
X18179Y226423D01*
X18614Y227074D01*
X18767Y227842D01*
Y232961D01*
X18740Y233096D01*
X19401Y233757D01*
X19862Y233511D01*
X19753Y232961D01*
Y227842D01*
X19906Y227074D01*
X20341Y226423D01*
X20992Y225988D01*
X21760Y225835D01*
X22528Y225988D01*
X23179Y226423D01*
X23614Y227074D01*
X23767Y227842D01*
Y231971D01*
X24010Y232019D01*
X24253Y232181D01*
X24753Y231949D01*
Y227842D01*
X24905Y227074D01*
X25341Y226423D01*
X25992Y225988D01*
X26760Y225835D01*
X27495Y225982D01*
X27604Y225978D01*
X27995Y225770D01*
Y219624D01*
X6605Y198235D01*
X6322Y197811D01*
X6114Y197740D01*
X5613Y198098D01*
Y206215D01*
X8037Y208638D01*
X8429Y209224D01*
X8566Y209916D01*
Y227003D01*
X8614Y227074D01*
X8767Y227842D01*
Y232961D01*
X8614Y233729D01*
X8491Y233913D01*
Y235244D01*
X9417D01*
Y235032D01*
D02*
G37*
G36*
X73634Y215618D02*
Y211638D01*
X79327D01*
Y211425D01*
X81894D01*
Y214394D01*
X82894D01*
Y211425D01*
X85026D01*
Y114366D01*
X75117Y104457D01*
X74596Y104758D01*
X73544Y105039D01*
X72456D01*
X71404Y104758D01*
X70462Y104213D01*
X69692Y103444D01*
X69148Y102501D01*
X69056Y102157D01*
X68529Y102123D01*
X68211Y102891D01*
X67580Y103713D01*
X66757Y104344D01*
X65799Y104741D01*
X64772Y104876D01*
X61228D01*
X60201Y104741D01*
X59243Y104344D01*
X58420Y103713D01*
X57789Y102891D01*
X57393Y101933D01*
X57257Y100906D01*
X57393Y99878D01*
X57789Y98920D01*
X58420Y98098D01*
X59243Y97466D01*
X60201Y97070D01*
X61228Y96934D01*
X64772D01*
X65799Y97070D01*
X66757Y97466D01*
X67580Y98098D01*
X68211Y98920D01*
X68529Y99688D01*
X69056Y99654D01*
X69148Y99310D01*
X69692Y98367D01*
X70462Y97598D01*
X70915Y97336D01*
X70781Y96836D01*
X69398D01*
X68898Y96737D01*
X68475Y96454D01*
X66480Y94459D01*
X65799Y94741D01*
X64772Y94876D01*
X61228D01*
X60201Y94741D01*
X59243Y94345D01*
X58420Y93713D01*
X57789Y92891D01*
X57393Y91933D01*
X57257Y90905D01*
X57393Y89878D01*
X57789Y88920D01*
X58420Y88098D01*
X59243Y87467D01*
X60201Y87070D01*
X61228Y86935D01*
X64772D01*
X65799Y87070D01*
X66757Y87467D01*
X67580Y88098D01*
X68211Y88920D01*
X68529Y89688D01*
X69056Y89654D01*
X69148Y89310D01*
X69692Y88367D01*
X70462Y87598D01*
X70551Y87546D01*
X70422Y87063D01*
X69853D01*
X69354Y86964D01*
X68930Y86681D01*
X66642Y84392D01*
X65799Y84741D01*
X64772Y84877D01*
X61228D01*
X60201Y84741D01*
X59243Y84345D01*
X58420Y83713D01*
X57789Y82891D01*
X57393Y81933D01*
X57257Y80905D01*
X57393Y79878D01*
X57789Y78920D01*
X58420Y78098D01*
X59243Y77466D01*
X60201Y77070D01*
X61228Y76934D01*
X64772D01*
X65799Y77070D01*
X66757Y77466D01*
X67580Y78098D01*
X68211Y78920D01*
X68529Y79688D01*
X69056Y79654D01*
X69148Y79310D01*
X69692Y78367D01*
X70462Y77598D01*
X70915Y77336D01*
X70781Y76836D01*
X69398D01*
X68898Y76737D01*
X68475Y76454D01*
X66480Y74459D01*
X65799Y74741D01*
X64772Y74876D01*
X61228D01*
X60201Y74741D01*
X59243Y74344D01*
X58420Y73713D01*
X57789Y72891D01*
X57393Y71933D01*
X57257Y70906D01*
X57393Y69878D01*
X57789Y68920D01*
X58420Y68098D01*
X59243Y67466D01*
X60201Y67070D01*
X61228Y66935D01*
X64772D01*
X65799Y67070D01*
X66757Y67466D01*
X67580Y68098D01*
X68211Y68920D01*
X68529Y69688D01*
X69056Y69654D01*
X69148Y69310D01*
X69692Y68367D01*
X70462Y67598D01*
X70510Y67570D01*
X70381Y67087D01*
X69782D01*
X69283Y66987D01*
X68859Y66704D01*
X66575Y64420D01*
X65799Y64741D01*
X64772Y64877D01*
X61228D01*
X60201Y64741D01*
X59243Y64345D01*
X58420Y63713D01*
X57789Y62891D01*
X57393Y61933D01*
X57257Y60905D01*
X57393Y59878D01*
X57789Y58920D01*
X58420Y58098D01*
X58671Y57905D01*
X58502Y57405D01*
X46020D01*
X45850Y57905D01*
X46269Y58227D01*
X46871Y59011D01*
X47250Y59925D01*
X47313Y60405D01*
X42409D01*
Y60905D01*
X41909D01*
Y64694D01*
X41228D01*
X40248Y64565D01*
X39334Y64186D01*
X38550Y63584D01*
X38474Y63486D01*
X38140Y63497D01*
X37910Y63573D01*
X36884Y64599D01*
X37043Y64981D01*
X37164Y65905D01*
X37043Y66830D01*
X36686Y67692D01*
X36118Y68433D01*
X35377Y69001D01*
X34516Y69358D01*
X33591Y69479D01*
X31228D01*
X30303Y69358D01*
X29441Y69001D01*
X28701Y68433D01*
X28133Y67692D01*
X27776Y66830D01*
X27654Y65905D01*
X27776Y64981D01*
X28133Y64119D01*
X28701Y63378D01*
X29441Y62810D01*
X30303Y62453D01*
X31228Y62332D01*
X33591D01*
X34516Y62453D01*
X34898Y62612D01*
X35563Y61946D01*
Y59465D01*
X35267Y59193D01*
X35093Y59118D01*
X34516Y59358D01*
X33591Y59479D01*
X31228D01*
X30303Y59358D01*
X29441Y59001D01*
X28701Y58433D01*
X28133Y57692D01*
X27776Y56831D01*
X27654Y55905D01*
X27776Y54980D01*
X28133Y54119D01*
X28701Y53378D01*
X29441Y52811D01*
X30303Y52453D01*
X31228Y52332D01*
X33591D01*
X34516Y52453D01*
X34898Y52612D01*
X35563Y51947D01*
Y49465D01*
X35267Y49193D01*
X35093Y49118D01*
X34516Y49358D01*
X33591Y49479D01*
X31228D01*
X30303Y49358D01*
X29441Y49001D01*
X28701Y48433D01*
X28133Y47692D01*
X27776Y46830D01*
X27654Y45906D01*
X27776Y44980D01*
X28133Y44119D01*
X28701Y43378D01*
X29441Y42810D01*
X30303Y42453D01*
X31228Y42332D01*
X33591D01*
X34516Y42453D01*
X35377Y42810D01*
X36118Y43378D01*
X36686Y44119D01*
X37043Y44980D01*
X37164Y45906D01*
X37085Y46509D01*
X37559Y46742D01*
X39294Y45006D01*
X39567Y44824D01*
X39542Y44272D01*
X39334Y44186D01*
X38550Y43584D01*
X37948Y42800D01*
X37569Y41886D01*
X37506Y41405D01*
X47313D01*
X47250Y41886D01*
X46871Y42800D01*
X46269Y43584D01*
X45604Y44095D01*
X45744Y44595D01*
X58524D01*
X58634Y44453D01*
X58538Y43803D01*
X58420Y43713D01*
X57789Y42891D01*
X57393Y41933D01*
X57257Y40905D01*
X57393Y39878D01*
X57789Y38920D01*
X58420Y38098D01*
X59243Y37467D01*
X60201Y37070D01*
X61228Y36935D01*
X64772D01*
X65799Y37070D01*
X66757Y37467D01*
X67580Y38098D01*
X68211Y38920D01*
X68529Y39688D01*
X69056Y39654D01*
X69148Y39310D01*
X69692Y38367D01*
X69975Y38084D01*
X69768Y37584D01*
X68374D01*
X67875Y37485D01*
X67452Y37202D01*
X65250Y35001D01*
X65135Y34829D01*
X64772Y34876D01*
X61228D01*
X60201Y34741D01*
X59243Y34345D01*
X58420Y33713D01*
X57789Y32891D01*
X57393Y31933D01*
X57257Y30906D01*
X57393Y29878D01*
X57789Y28920D01*
X58420Y28098D01*
X59243Y27467D01*
X60201Y27070D01*
X61228Y26934D01*
X64772D01*
X65799Y27070D01*
X66757Y27467D01*
X67580Y28098D01*
X68211Y28920D01*
X68529Y29688D01*
X69056Y29654D01*
X69148Y29310D01*
X69692Y28367D01*
X70462Y27598D01*
X71404Y27053D01*
X72456Y26772D01*
X73544D01*
X74596Y27053D01*
X75538Y27598D01*
X76308Y28367D01*
X76780Y29185D01*
X77280Y29051D01*
Y24946D01*
X77418Y24255D01*
X77809Y23669D01*
X79368Y22110D01*
Y20639D01*
X79362Y20625D01*
X79268Y19906D01*
Y14780D01*
X75895D01*
X75175Y14685D01*
X74911Y14575D01*
X74596Y14758D01*
X73544Y15039D01*
X72456D01*
X71404Y14758D01*
X70462Y14213D01*
X69933Y13685D01*
X67601D01*
X67580Y13713D01*
X66757Y14345D01*
X65799Y14741D01*
X64772Y14876D01*
X61228D01*
X60201Y14741D01*
X59243Y14345D01*
X58420Y13713D01*
X57789Y12891D01*
X57715Y12712D01*
X51554D01*
X50863Y12574D01*
X50277Y12183D01*
X47630Y9536D01*
X47206Y9819D01*
X47250Y9925D01*
X47313Y10406D01*
X37506D01*
X37569Y9925D01*
X37948Y9011D01*
X38199Y8684D01*
X37952Y8184D01*
X35101D01*
X31668Y11617D01*
X31875Y12117D01*
X31909D01*
Y15905D01*
Y19694D01*
X31228D01*
X30248Y19565D01*
X29334Y19186D01*
X28550Y18584D01*
X27948Y17800D01*
X27569Y16886D01*
X27515Y16477D01*
X26987Y16298D01*
X21806Y21479D01*
Y125744D01*
X21669Y126435D01*
X21277Y127021D01*
X16884Y131415D01*
X16298Y131806D01*
X15732Y131919D01*
Y133500D01*
X12665D01*
Y134500D01*
X15755D01*
X16194Y134682D01*
X24117Y126759D01*
Y123500D01*
X24216Y123001D01*
X24499Y122578D01*
X25888Y121188D01*
Y114234D01*
X25988Y113735D01*
X26270Y113312D01*
X29929Y109653D01*
X29832Y109162D01*
X29441Y109001D01*
X28701Y108433D01*
X28133Y107693D01*
X27776Y106831D01*
X27654Y105905D01*
X27776Y104981D01*
X28133Y104119D01*
X28701Y103378D01*
X29441Y102810D01*
X30303Y102453D01*
X31228Y102332D01*
X33591D01*
X34516Y102453D01*
X35377Y102810D01*
X36118Y103378D01*
X36686Y104119D01*
X37043Y104981D01*
X37164Y105905D01*
X37043Y106831D01*
X36686Y107693D01*
X36118Y108433D01*
X35377Y109001D01*
X34516Y109358D01*
X33591Y109479D01*
X32987D01*
Y109744D01*
X32888Y110243D01*
X32605Y110667D01*
X31440Y111832D01*
X31647Y112332D01*
X33591D01*
X34516Y112453D01*
X35377Y112810D01*
X36118Y113378D01*
X36686Y114119D01*
X37043Y114980D01*
X37164Y115905D01*
X37043Y116831D01*
X36686Y117692D01*
X36118Y118433D01*
X35377Y119001D01*
X34516Y119358D01*
X33591Y119479D01*
X32987D01*
Y119744D01*
X32888Y120243D01*
X32605Y120667D01*
X31440Y121832D01*
X31647Y122332D01*
X33591D01*
X34516Y122453D01*
X35377Y122810D01*
X36118Y123378D01*
X36686Y124119D01*
X37043Y124980D01*
X37164Y125906D01*
X37043Y126830D01*
X36686Y127692D01*
X36118Y128433D01*
X35377Y129001D01*
X34516Y129358D01*
X33591Y129479D01*
X31228D01*
X30685Y129408D01*
X30269Y129785D01*
Y130301D01*
X30170Y130800D01*
X29887Y131223D01*
X25525Y135585D01*
Y137368D01*
X25915Y137577D01*
X26025Y137580D01*
X26760Y137434D01*
X27528Y137587D01*
X28179Y138022D01*
X28614Y138673D01*
X28767Y139441D01*
Y144240D01*
X28828Y144281D01*
X29277Y144729D01*
X29610Y144610D01*
X29753Y144498D01*
Y139441D01*
X29906Y138673D01*
X30341Y138022D01*
X30595Y137852D01*
Y135396D01*
X30702Y134858D01*
X31007Y134402D01*
X40565Y124844D01*
X40404Y124371D01*
X40303Y124358D01*
X39441Y124001D01*
X38701Y123433D01*
X38133Y122693D01*
X37776Y121830D01*
X37655Y120905D01*
X37776Y119981D01*
X38133Y119119D01*
X38701Y118378D01*
X39441Y117810D01*
X40303Y117453D01*
X41228Y117332D01*
X43591D01*
X44516Y117453D01*
X45377Y117810D01*
X46118Y118378D01*
X46163Y118437D01*
X46636Y118277D01*
Y115796D01*
X44998Y114158D01*
X44516Y114358D01*
X43591Y114479D01*
X41228D01*
X40303Y114358D01*
X39441Y114001D01*
X38701Y113433D01*
X38133Y112692D01*
X37776Y111830D01*
X37655Y110906D01*
X37776Y109980D01*
X38133Y109119D01*
X38701Y108378D01*
X39441Y107810D01*
X40303Y107453D01*
X41228Y107332D01*
X43494D01*
X43778Y106910D01*
X42536Y105667D01*
X42253Y105243D01*
X42153Y104744D01*
Y104479D01*
X41228D01*
X40303Y104358D01*
X39441Y104001D01*
X38701Y103433D01*
X38133Y102692D01*
X37776Y101830D01*
X37655Y100906D01*
X37776Y99980D01*
X38133Y99119D01*
X38701Y98378D01*
X39441Y97811D01*
X39684Y97710D01*
X39584Y97210D01*
X36885D01*
X36686Y97692D01*
X36118Y98433D01*
X35377Y99001D01*
X34516Y99358D01*
X33591Y99479D01*
X31228D01*
X30303Y99358D01*
X29441Y99001D01*
X28701Y98433D01*
X28133Y97692D01*
X27776Y96830D01*
X27654Y95906D01*
X27776Y94981D01*
X28133Y94119D01*
X28701Y93378D01*
X29441Y92810D01*
X30303Y92453D01*
X31228Y92332D01*
X33591D01*
X34516Y92453D01*
X35377Y92810D01*
X36118Y93378D01*
X36686Y94119D01*
X36885Y94601D01*
X39584D01*
X39684Y94101D01*
X39441Y94001D01*
X38701Y93433D01*
X38133Y92692D01*
X37776Y91830D01*
X37655Y90905D01*
X37776Y89981D01*
X38133Y89119D01*
X38701Y88378D01*
X39441Y87810D01*
X40303Y87453D01*
X41228Y87332D01*
X43591D01*
X44516Y87453D01*
X45377Y87810D01*
X46118Y88378D01*
X46686Y89119D01*
X47043Y89981D01*
X47164Y90905D01*
X47043Y91830D01*
X47016Y91895D01*
X53379Y98259D01*
X53379Y98259D01*
X54178Y99058D01*
X54461Y99481D01*
X54561Y99980D01*
Y131926D01*
X54461Y132425D01*
X54178Y132848D01*
X48510Y138517D01*
X48614Y138673D01*
X48767Y139441D01*
Y144559D01*
X48614Y145327D01*
X48179Y145978D01*
X47528Y146413D01*
X46760Y146566D01*
X45992Y146413D01*
X45757Y146257D01*
X45267Y146354D01*
X45222Y146422D01*
X43701Y147942D01*
X43278Y148225D01*
X42779Y148324D01*
X29722D01*
X29223Y148225D01*
X28800Y147942D01*
X27314Y146456D01*
X26760Y146566D01*
X25992Y146413D01*
X25849Y146318D01*
X25168Y146464D01*
X25143Y146501D01*
X21930Y149714D01*
X21507Y149997D01*
X21007Y150096D01*
X15007D01*
X14507Y149997D01*
X14484Y149981D01*
X13984Y150248D01*
Y150395D01*
X13682Y151124D01*
X13124Y151682D01*
X12500Y151941D01*
Y150000D01*
X12000D01*
Y149500D01*
X10059D01*
X10318Y148876D01*
X10876Y148318D01*
X11605Y148016D01*
X11733D01*
X11924Y147554D01*
X11605Y147235D01*
X11322Y146811D01*
X11253Y146465D01*
X10992Y146413D01*
X10341Y145978D01*
X9905Y145327D01*
X9753Y144559D01*
Y139441D01*
X9905Y138673D01*
X9849Y138485D01*
X9474Y138330D01*
X8916Y137772D01*
X8614Y137043D01*
Y136756D01*
X6557D01*
X6369Y137002D01*
X6651Y137455D01*
X6760Y137434D01*
X7528Y137587D01*
X8179Y138022D01*
X8614Y138673D01*
X8767Y139441D01*
Y144559D01*
X8614Y145327D01*
X8179Y145978D01*
X8064Y146055D01*
Y161327D01*
X10143Y163406D01*
X10426Y163829D01*
X10525Y164328D01*
Y174770D01*
X10915Y174978D01*
X11025Y174982D01*
X11760Y174835D01*
X12495Y174982D01*
X12604Y174978D01*
X12995Y174770D01*
Y154577D01*
X13094Y154077D01*
X13377Y153654D01*
X13953Y153077D01*
X14377Y152795D01*
X14876Y152695D01*
X36799D01*
X36996Y152498D01*
X37648Y152228D01*
X38352D01*
X39004Y152498D01*
X39502Y152996D01*
X39772Y153648D01*
Y154352D01*
X39502Y155004D01*
X39004Y155502D01*
X38352Y155772D01*
X37648D01*
X36996Y155502D01*
X36799Y155305D01*
X26191D01*
X25913Y155720D01*
X25992Y155911D01*
Y156616D01*
X25722Y157267D01*
X25525Y157465D01*
Y174770D01*
X25915Y174978D01*
X26025Y174982D01*
X26760Y174835D01*
X27416Y174966D01*
X27916Y174692D01*
Y159201D01*
X27718Y159004D01*
X27449Y158352D01*
Y157648D01*
X27718Y156996D01*
X28217Y156498D01*
X28868Y156228D01*
X29573D01*
X30224Y156498D01*
X30722Y156996D01*
X30992Y157648D01*
Y158352D01*
X30722Y159004D01*
X30525Y159201D01*
Y174770D01*
X30915Y174978D01*
X31025Y174982D01*
X31760Y174835D01*
X32416Y174966D01*
X32916Y174692D01*
Y160201D01*
X32719Y160004D01*
X32449Y159352D01*
Y158648D01*
X32719Y157996D01*
X33217Y157498D01*
X33868Y157228D01*
X34573D01*
X35224Y157498D01*
X35722Y157996D01*
X35992Y158648D01*
Y159352D01*
X35722Y160004D01*
X35525Y160201D01*
Y174770D01*
X35915Y174978D01*
X36025Y174982D01*
X36760Y174835D01*
X37416Y174966D01*
X37916Y174692D01*
Y161201D01*
X37718Y161004D01*
X37449Y160352D01*
Y159648D01*
X37718Y158996D01*
X38217Y158498D01*
X38868Y158228D01*
X39573D01*
X40224Y158498D01*
X40722Y158996D01*
X40992Y159648D01*
Y160352D01*
X40722Y161004D01*
X40525Y161201D01*
Y174770D01*
X40915Y174978D01*
X41025Y174982D01*
X41760Y174835D01*
X42416Y174966D01*
X42916Y174692D01*
Y169046D01*
X43015Y168547D01*
X43228Y168228D01*
Y167648D01*
X43498Y166996D01*
X43996Y166498D01*
X44648Y166228D01*
X45352D01*
X46004Y166498D01*
X46502Y166996D01*
X46772Y167648D01*
Y168352D01*
X46502Y169004D01*
X46004Y169502D01*
X45525Y169700D01*
Y174770D01*
X45915Y174978D01*
X46025Y174982D01*
X46760Y174835D01*
X47528Y174988D01*
X48055Y175340D01*
X48094Y175324D01*
X48377Y174901D01*
X48695Y174582D01*
Y166201D01*
X48498Y166004D01*
X48228Y165352D01*
Y164648D01*
X48498Y163996D01*
X48996Y163498D01*
X49648Y163228D01*
X50352D01*
X51004Y163498D01*
X51502Y163996D01*
X51772Y164648D01*
Y165352D01*
X51502Y166004D01*
X51305Y166201D01*
Y174532D01*
X51691Y174849D01*
X51760Y174835D01*
X52528Y174988D01*
X53179Y175423D01*
X53614Y176075D01*
X53767Y176842D01*
Y181961D01*
X53614Y182729D01*
X53179Y183380D01*
X53064Y183456D01*
Y186961D01*
X52965Y187460D01*
X52682Y187884D01*
X52644Y187922D01*
X52776Y188497D01*
X53332Y188868D01*
X53814Y189590D01*
X53984Y190441D01*
Y190862D01*
X54399Y191140D01*
X54594Y191059D01*
Y193000D01*
Y194941D01*
X54399Y194860D01*
X53984Y195138D01*
Y195559D01*
X53814Y196410D01*
X53332Y197132D01*
X52611Y197614D01*
X52349Y197666D01*
X52203Y198144D01*
X56617Y202558D01*
X57079Y202366D01*
Y201406D01*
X63000D01*
Y200905D01*
X63500D01*
Y196756D01*
X68654D01*
Y196559D01*
X72500D01*
Y200905D01*
Y205252D01*
X68654D01*
Y205055D01*
X63071D01*
X62880Y205517D01*
X73172Y215809D01*
X73634Y215618D01*
D02*
G37*
G36*
X138467Y195372D02*
Y58218D01*
X134856Y54607D01*
X134596Y54758D01*
X133544Y55039D01*
X132456D01*
X131404Y54758D01*
X130462Y54213D01*
X129692Y53444D01*
X129270Y52712D01*
X128285D01*
X128211Y52891D01*
X127580Y53713D01*
X126757Y54344D01*
X125799Y54741D01*
X124772Y54877D01*
X121228D01*
X120201Y54741D01*
X119243Y54344D01*
X118420Y53713D01*
X117789Y52891D01*
X117393Y51933D01*
X117257Y50906D01*
X117393Y49878D01*
X117789Y48920D01*
X118420Y48098D01*
X119243Y47467D01*
X120201Y47070D01*
X121228Y46935D01*
X124772D01*
X125799Y47070D01*
X126757Y47467D01*
X127580Y48098D01*
X128211Y48920D01*
X128285Y49099D01*
X129270D01*
X129692Y48367D01*
X130462Y47598D01*
X131404Y47053D01*
X132456Y46772D01*
X133544D01*
X134596Y47053D01*
X135538Y47598D01*
X136308Y48367D01*
X136852Y49310D01*
X137134Y50361D01*
Y51450D01*
X136852Y52501D01*
X136702Y52762D01*
X140480Y56541D01*
X140980Y56334D01*
Y14657D01*
X140980Y13829D01*
X140764Y12186D01*
X140335Y10586D01*
X139701Y9055D01*
X138873Y7621D01*
X137865Y6307D01*
X136693Y5135D01*
X135379Y4127D01*
X133944Y3299D01*
X132414Y2664D01*
X130814Y2236D01*
X129171Y2019D01*
X128343Y2019D01*
X124000Y2019D01*
X89826Y2019D01*
X89692Y2520D01*
X89874Y2625D01*
X90427Y3177D01*
X90817Y3854D01*
X90990Y4500D01*
X85112D01*
X85285Y3854D01*
X85676Y3177D01*
X86229Y2625D01*
X86410Y2520D01*
X86277Y2019D01*
X31800Y2019D01*
X30613Y2019D01*
X28258Y2330D01*
X25965Y2944D01*
X23771Y3853D01*
X21714Y5040D01*
X19830Y6486D01*
X18151Y8165D01*
X16705Y10049D01*
X15518Y12105D01*
X14609Y14299D01*
X13995Y16593D01*
X13685Y18947D01*
X13685Y20135D01*
X13685Y121000D01*
X13680Y121025D01*
X13684Y121050D01*
X13655Y121638D01*
X13636Y121712D01*
Y121787D01*
X13407Y122941D01*
X13368Y123033D01*
X13349Y123132D01*
X12899Y124218D01*
X12843Y124302D01*
X12805Y124395D01*
X12151Y125373D01*
X12080Y125444D01*
X12024Y125527D01*
X11193Y126359D01*
X11109Y126415D01*
X11038Y126486D01*
X10060Y127139D01*
X9967Y127178D01*
X9884Y127234D01*
X8797Y127684D01*
X8699Y127703D01*
X8606Y127742D01*
X7452Y127971D01*
X7377D01*
X7304Y127989D01*
X6715Y128018D01*
X6705Y128017D01*
X6695Y128019D01*
X6221Y128033D01*
X5296Y128244D01*
X4430Y128632D01*
X3657Y129182D01*
X3006Y129871D01*
X2502Y130675D01*
X2164Y131561D01*
X2005Y132497D01*
X2019Y132971D01*
X2017Y132985D01*
X2019Y133000D01*
Y135441D01*
X2520Y135592D01*
X2530Y135577D01*
X3906Y134201D01*
Y131244D01*
X7030D01*
X7158Y130599D01*
X7549Y130013D01*
X8703Y128860D01*
X9289Y128469D01*
X9980Y128331D01*
X14859D01*
X18194Y124996D01*
Y20731D01*
X18331Y20040D01*
X18723Y19454D01*
X33076Y5101D01*
X33662Y4709D01*
X34353Y4572D01*
X47027D01*
X47718Y4709D01*
X48304Y5101D01*
X52302Y9099D01*
X57715D01*
X57789Y8920D01*
X58420Y8098D01*
X59243Y7467D01*
X60201Y7070D01*
X61228Y6934D01*
X64772D01*
X65799Y7070D01*
X66757Y7467D01*
X67580Y8098D01*
X67601Y8126D01*
X69933D01*
X70462Y7598D01*
X71404Y7053D01*
X72456Y6772D01*
X73544D01*
X74596Y7053D01*
X75538Y7598D01*
X76308Y8367D01*
X76679Y9009D01*
X76718Y9025D01*
X76971Y9220D01*
X82047D01*
X82228Y9244D01*
X84886D01*
Y9031D01*
X87453D01*
Y12000D01*
Y14968D01*
X84886D01*
X84827Y15444D01*
Y17702D01*
X84972Y17799D01*
X85396Y18434D01*
X85545Y19183D01*
Y22628D01*
X85396Y23377D01*
X84972Y24012D01*
X84338Y24436D01*
X84263Y24451D01*
Y26276D01*
X84742Y26371D01*
X85198Y26676D01*
X85503Y27132D01*
X85610Y27669D01*
Y28850D01*
X85503Y29388D01*
X85198Y29844D01*
X85388Y30318D01*
X85703Y30789D01*
X85826Y31409D01*
Y31500D01*
X82827D01*
Y32500D01*
X85826D01*
Y32591D01*
X85703Y33211D01*
X85388Y33682D01*
X85198Y34156D01*
X85503Y34612D01*
X85610Y35150D01*
Y36331D01*
X85503Y36868D01*
X85198Y37324D01*
X84742Y37629D01*
X84205Y37736D01*
X81449D01*
X80911Y37629D01*
X80455Y37324D01*
X80151Y36868D01*
X80115Y36688D01*
X79779Y36622D01*
X79193Y36230D01*
X77809Y34846D01*
X77418Y34260D01*
X77280Y33569D01*
Y32760D01*
X76780Y32626D01*
X76308Y33444D01*
X75538Y34213D01*
X75055Y34493D01*
X75142Y35020D01*
X75415Y35074D01*
X75839Y35357D01*
X78549Y38067D01*
X78831Y38490D01*
X78931Y38989D01*
Y43215D01*
X79108Y43349D01*
X79608Y43100D01*
Y41278D01*
X79773Y40446D01*
X80244Y39741D01*
X80950Y39269D01*
X81782Y39104D01*
X82413D01*
Y43000D01*
X82913D01*
Y43500D01*
X86219D01*
Y44722D01*
X86054Y45554D01*
X85582Y46259D01*
X84877Y46731D01*
X84045Y46896D01*
X82846D01*
X82788Y46923D01*
X82449Y47396D01*
X82474Y47522D01*
Y51018D01*
X87732Y56276D01*
X88194Y56084D01*
Y46545D01*
X88119Y46530D01*
X87484Y46106D01*
X87060Y45471D01*
X86911Y44722D01*
Y41278D01*
X87060Y40529D01*
X87484Y39894D01*
X88119Y39470D01*
X88780Y39338D01*
Y37292D01*
X88497Y36868D01*
X88390Y36331D01*
Y35150D01*
X88497Y34612D01*
X88802Y34156D01*
X89258Y33852D01*
X89795Y33745D01*
X92551D01*
X93089Y33852D01*
X93545Y34156D01*
X93849Y34612D01*
X93956Y35150D01*
Y36331D01*
X93849Y36868D01*
X93545Y37324D01*
X93089Y37629D01*
X92551Y37736D01*
X92393D01*
Y39812D01*
X92516Y39894D01*
X92940Y40529D01*
X93089Y41278D01*
Y44722D01*
X92940Y45471D01*
X92516Y46106D01*
X91881Y46530D01*
X91806Y46545D01*
Y58804D01*
X92306Y58904D01*
X92318Y58876D01*
X92876Y58318D01*
X93500Y58059D01*
Y60000D01*
X94000D01*
Y60500D01*
X95941D01*
X95682Y61124D01*
X95124Y61682D01*
X94877Y61784D01*
X94780Y62275D01*
X97029Y64523D01*
X97501Y64289D01*
X97584Y63872D01*
X97888Y63416D01*
X98108Y63269D01*
X98344Y63108D01*
X98333Y62604D01*
X98228Y62352D01*
Y61648D01*
X98498Y60996D01*
X98996Y60498D01*
X99648Y60228D01*
X100352D01*
X101004Y60498D01*
X101502Y60996D01*
X101772Y61648D01*
Y62352D01*
X101697Y62533D01*
X101876Y63052D01*
X102175Y63112D01*
X102631Y63416D01*
X102936Y63872D01*
X103043Y64410D01*
Y65591D01*
X102936Y66128D01*
X102631Y66584D01*
X102175Y66888D01*
X101638Y66996D01*
X100154D01*
X99963Y67457D01*
X114872Y82367D01*
X115263Y82952D01*
X115401Y83644D01*
Y144235D01*
X115863Y144426D01*
X117675Y142614D01*
X117393Y141933D01*
X117257Y140905D01*
X117393Y139878D01*
X117789Y138920D01*
X118420Y138098D01*
X119243Y137467D01*
X120201Y137070D01*
X121228Y136934D01*
X124772D01*
X125799Y137070D01*
X126757Y137467D01*
X127580Y138098D01*
X128211Y138920D01*
X128285Y139099D01*
X129270D01*
X129692Y138367D01*
X130462Y137598D01*
X131404Y137053D01*
X132456Y136772D01*
X133544D01*
X134596Y137053D01*
X135538Y137598D01*
X136308Y138367D01*
X136852Y139310D01*
X137134Y140361D01*
Y141450D01*
X136852Y142501D01*
X136308Y143444D01*
X135538Y144213D01*
X134596Y144758D01*
X133544Y145039D01*
X132456D01*
X131404Y144758D01*
X130462Y144213D01*
X129692Y143444D01*
X129270Y142712D01*
X128285D01*
X128211Y142891D01*
X127580Y143713D01*
X126757Y144344D01*
X125799Y144741D01*
X124772Y144877D01*
X121228D01*
X120201Y144741D01*
X119520Y144459D01*
X117163Y146816D01*
Y149126D01*
X117663Y149225D01*
X117789Y148920D01*
X118420Y148098D01*
X119243Y147467D01*
X120201Y147070D01*
X121228Y146934D01*
X124772D01*
X125799Y147070D01*
X126757Y147467D01*
X127580Y148098D01*
X128211Y148920D01*
X128285Y149099D01*
X129270D01*
X129692Y148367D01*
X130462Y147598D01*
X131404Y147053D01*
X132456Y146772D01*
X133544D01*
X134596Y147053D01*
X135538Y147598D01*
X136308Y148367D01*
X136852Y149310D01*
X137134Y150361D01*
Y151450D01*
X136852Y152501D01*
X136308Y153444D01*
X135538Y154213D01*
X134596Y154758D01*
X133544Y155039D01*
X132456D01*
X131404Y154758D01*
X130462Y154213D01*
X129692Y153444D01*
X129270Y152712D01*
X128285D01*
X128211Y152891D01*
X127580Y153713D01*
X126757Y154344D01*
X125799Y154741D01*
X124772Y154876D01*
X121228D01*
X120201Y154741D01*
X119243Y154344D01*
X118420Y153713D01*
X117789Y152891D01*
X117663Y152585D01*
X117163Y152685D01*
Y159126D01*
X117663Y159225D01*
X117789Y158920D01*
X118420Y158098D01*
X119243Y157467D01*
X120201Y157070D01*
X121228Y156934D01*
X124772D01*
X125799Y157070D01*
X126757Y157467D01*
X127580Y158098D01*
X128211Y158920D01*
X128285Y159099D01*
X129270D01*
X129692Y158367D01*
X130462Y157598D01*
X131404Y157053D01*
X132456Y156772D01*
X133544D01*
X134596Y157053D01*
X135538Y157598D01*
X136308Y158367D01*
X136852Y159310D01*
X137134Y160361D01*
Y161450D01*
X136852Y162501D01*
X136308Y163444D01*
X135538Y164213D01*
X134596Y164758D01*
X133544Y165039D01*
X132456D01*
X131404Y164758D01*
X130462Y164213D01*
X129692Y163444D01*
X129270Y162712D01*
X128285D01*
X128211Y162891D01*
X127580Y163713D01*
X126757Y164345D01*
X125799Y164741D01*
X124772Y164876D01*
X121228D01*
X120201Y164741D01*
X119243Y164345D01*
X118420Y163713D01*
X117789Y162891D01*
X117663Y162585D01*
X117163Y162685D01*
Y169126D01*
X117663Y169226D01*
X117789Y168920D01*
X118420Y168098D01*
X119243Y167467D01*
X120201Y167070D01*
X121228Y166935D01*
X124772D01*
X125799Y167070D01*
X126757Y167467D01*
X127580Y168098D01*
X128211Y168920D01*
X128285Y169099D01*
X129270D01*
X129692Y168367D01*
X130462Y167598D01*
X131404Y167053D01*
X132456Y166772D01*
X133544D01*
X134596Y167053D01*
X135538Y167598D01*
X136308Y168367D01*
X136852Y169310D01*
X137134Y170361D01*
Y171450D01*
X136852Y172501D01*
X136308Y173444D01*
X135538Y174213D01*
X134596Y174758D01*
X133544Y175039D01*
X132456D01*
X131404Y174758D01*
X130462Y174213D01*
X129692Y173444D01*
X129270Y172712D01*
X128285D01*
X128211Y172891D01*
X127580Y173713D01*
X126757Y174345D01*
X125799Y174741D01*
X124772Y174876D01*
X121228D01*
X120201Y174741D01*
X119243Y174345D01*
X118420Y173713D01*
X117789Y172891D01*
X117663Y172585D01*
X117163Y172685D01*
Y179126D01*
X117663Y179226D01*
X117789Y178920D01*
X118420Y178098D01*
X119243Y177467D01*
X120201Y177070D01*
X121228Y176935D01*
X124772D01*
X125799Y177070D01*
X126757Y177467D01*
X127580Y178098D01*
X128211Y178920D01*
X128285Y179099D01*
X129270D01*
X129692Y178367D01*
X130462Y177598D01*
X131404Y177053D01*
X132456Y176772D01*
X133544D01*
X134596Y177053D01*
X135538Y177598D01*
X136308Y178367D01*
X136852Y179310D01*
X137134Y180361D01*
Y181450D01*
X136852Y182501D01*
X136308Y183444D01*
X135538Y184213D01*
X134596Y184758D01*
X133544Y185039D01*
X132456D01*
X131404Y184758D01*
X130462Y184213D01*
X129692Y183444D01*
X129270Y182712D01*
X128285D01*
X128211Y182891D01*
X127580Y183713D01*
X126757Y184344D01*
X125799Y184741D01*
X124772Y184877D01*
X121228D01*
X120201Y184741D01*
X119243Y184344D01*
X118420Y183713D01*
X117789Y182891D01*
X117663Y182586D01*
X117163Y182685D01*
Y189126D01*
X117663Y189225D01*
X117789Y188920D01*
X118420Y188098D01*
X119243Y187467D01*
X120201Y187070D01*
X121228Y186934D01*
X124772D01*
X125799Y187070D01*
X126757Y187467D01*
X127580Y188098D01*
X128211Y188920D01*
X128529Y189688D01*
X129056Y189654D01*
X129148Y189310D01*
X129692Y188367D01*
X130462Y187598D01*
X131404Y187053D01*
X132456Y186772D01*
X133544D01*
X134596Y187053D01*
X135538Y187598D01*
X136308Y188367D01*
X136852Y189310D01*
X137134Y190361D01*
Y191450D01*
X136852Y192501D01*
X136308Y193444D01*
X136025Y193727D01*
X136082Y194005D01*
X136215Y194244D01*
X136628Y194326D01*
X137051Y194609D01*
X138005Y195563D01*
X138467Y195372D01*
D02*
G37*
G36*
X58634Y54453D02*
X58538Y53803D01*
X58420Y53713D01*
X57789Y52891D01*
X57393Y51933D01*
X57257Y50906D01*
X57393Y49878D01*
X57789Y48920D01*
X58420Y48098D01*
X58671Y47905D01*
X58502Y47405D01*
X46020D01*
X45850Y47905D01*
X46269Y48227D01*
X46871Y49011D01*
X47250Y49925D01*
X47313Y50406D01*
X42409D01*
Y51406D01*
X47313D01*
X47250Y51886D01*
X46871Y52800D01*
X46269Y53584D01*
X45604Y54095D01*
X45744Y54595D01*
X58524D01*
X58634Y54453D01*
D02*
G37*
%LPC*%
G36*
X115572Y323346D02*
X115500D01*
Y319500D01*
X119346D01*
Y319572D01*
X119050Y320678D01*
X118478Y321669D01*
X117669Y322478D01*
X116678Y323050D01*
X115572Y323346D01*
D02*
G37*
G36*
X114500D02*
X114428D01*
X113322Y323050D01*
X112331Y322478D01*
X111522Y321669D01*
X110950Y320678D01*
X110653Y319572D01*
Y319500D01*
X114500D01*
Y323346D01*
D02*
G37*
G36*
X73572Y321346D02*
X73500D01*
Y317500D01*
X77346D01*
Y317572D01*
X77050Y318678D01*
X76478Y319669D01*
X75669Y320478D01*
X74678Y321050D01*
X73572Y321346D01*
D02*
G37*
G36*
X72500D02*
X72428D01*
X71322Y321050D01*
X70331Y320478D01*
X69522Y319669D01*
X68950Y318678D01*
X68654Y317572D01*
Y317500D01*
X72500D01*
Y321346D01*
D02*
G37*
G36*
X63572D02*
X63500D01*
Y317500D01*
X67347D01*
Y317572D01*
X67050Y318678D01*
X66478Y319669D01*
X65669Y320478D01*
X64678Y321050D01*
X63572Y321346D01*
D02*
G37*
G36*
X62500D02*
X62428D01*
X61322Y321050D01*
X60331Y320478D01*
X59522Y319669D01*
X58950Y318678D01*
X58653Y317572D01*
Y317500D01*
X62500D01*
Y321346D01*
D02*
G37*
G36*
X53572D02*
X53500D01*
Y317500D01*
X57346D01*
Y317572D01*
X57050Y318678D01*
X56478Y319669D01*
X55669Y320478D01*
X54678Y321050D01*
X53572Y321346D01*
D02*
G37*
G36*
X52500D02*
X52428D01*
X51322Y321050D01*
X50331Y320478D01*
X49522Y319669D01*
X48950Y318678D01*
X48654Y317572D01*
Y317500D01*
X52500D01*
Y321346D01*
D02*
G37*
G36*
X43572D02*
X43500D01*
Y317500D01*
X47346D01*
Y317572D01*
X47050Y318678D01*
X46478Y319669D01*
X45669Y320478D01*
X44678Y321050D01*
X43572Y321346D01*
D02*
G37*
G36*
X42500D02*
X42428D01*
X41322Y321050D01*
X40331Y320478D01*
X39522Y319669D01*
X38950Y318678D01*
X38654Y317572D01*
Y317500D01*
X42500D01*
Y321346D01*
D02*
G37*
G36*
X119346Y318500D02*
X115500D01*
Y314653D01*
X115572D01*
X116678Y314950D01*
X117669Y315522D01*
X118478Y316331D01*
X119050Y317322D01*
X119346Y318428D01*
Y318500D01*
D02*
G37*
G36*
X114500D02*
X110653D01*
Y318428D01*
X110950Y317322D01*
X111522Y316331D01*
X112331Y315522D01*
X113322Y314950D01*
X114428Y314653D01*
X114500D01*
Y318500D01*
D02*
G37*
G36*
X9500Y311941D02*
Y310500D01*
X10941D01*
X10682Y311124D01*
X10124Y311682D01*
X9500Y311941D01*
D02*
G37*
G36*
X8500D02*
X7876Y311682D01*
X7318Y311124D01*
X7059Y310500D01*
X8500D01*
Y311941D01*
D02*
G37*
G36*
X20687Y311510D02*
X20350D01*
Y309500D01*
X22459D01*
Y309738D01*
X22324Y310416D01*
X21940Y310991D01*
X21365Y311375D01*
X20687Y311510D01*
D02*
G37*
G36*
X19350D02*
X19014D01*
X18336Y311375D01*
X17761Y310991D01*
X17376Y310416D01*
X17242Y309738D01*
Y309500D01*
X19350D01*
Y311510D01*
D02*
G37*
G36*
X10941Y309500D02*
X9500D01*
Y308059D01*
X10124Y308318D01*
X10682Y308876D01*
X10941Y309500D01*
D02*
G37*
G36*
X8500D02*
X7059D01*
X7318Y308876D01*
X7876Y308318D01*
X8500Y308059D01*
Y309500D01*
D02*
G37*
G36*
X85572Y311347D02*
X85500D01*
Y307500D01*
X89346D01*
Y307572D01*
X89050Y308678D01*
X88478Y309669D01*
X87669Y310478D01*
X86678Y311050D01*
X85572Y311347D01*
D02*
G37*
G36*
X84500D02*
X84428D01*
X83322Y311050D01*
X82331Y310478D01*
X81522Y309669D01*
X80950Y308678D01*
X80654Y307572D01*
Y307500D01*
X84500D01*
Y311347D01*
D02*
G37*
G36*
X22459Y308500D02*
X20350D01*
Y306490D01*
X20687D01*
X21365Y306625D01*
X21940Y307009D01*
X22324Y307584D01*
X22459Y308262D01*
Y308500D01*
D02*
G37*
G36*
X19350D02*
X17242D01*
Y308262D01*
X17376Y307584D01*
X17761Y307009D01*
X18336Y306625D01*
X19014Y306490D01*
X19350D01*
Y308500D01*
D02*
G37*
G36*
X29799Y304941D02*
Y303500D01*
X31240D01*
X30981Y304124D01*
X30423Y304682D01*
X29799Y304941D01*
D02*
G37*
G36*
X28799D02*
X28175Y304682D01*
X27617Y304124D01*
X27359Y303500D01*
X28799D01*
Y304941D01*
D02*
G37*
G36*
X89346Y306500D02*
X85500D01*
Y302654D01*
X85572D01*
X86678Y302950D01*
X87669Y303522D01*
X88478Y304331D01*
X89050Y305322D01*
X89346Y306428D01*
Y306500D01*
D02*
G37*
G36*
X10738Y304215D02*
X10500D01*
Y302106D01*
X12510D01*
Y302443D01*
X12376Y303121D01*
X11991Y303696D01*
X11416Y304080D01*
X10738Y304215D01*
D02*
G37*
G36*
X9500D02*
X9262D01*
X8584Y304080D01*
X8009Y303696D01*
X7625Y303121D01*
X7490Y302443D01*
Y302106D01*
X9500D01*
Y304215D01*
D02*
G37*
G36*
X31240Y302500D02*
X29799D01*
Y301059D01*
X30423Y301318D01*
X30981Y301876D01*
X31240Y302500D01*
D02*
G37*
G36*
X28799D02*
X27359D01*
X27617Y301876D01*
X28175Y301318D01*
X28799Y301059D01*
Y302500D01*
D02*
G37*
G36*
X12510Y301106D02*
X10500D01*
Y298997D01*
X10738D01*
X11416Y299132D01*
X11991Y299517D01*
X12376Y300092D01*
X12510Y300770D01*
Y301106D01*
D02*
G37*
G36*
X9500D02*
X7490D01*
Y300770D01*
X7625Y300092D01*
X8009Y299517D01*
X8584Y299132D01*
X9262Y298997D01*
X9500D01*
Y301106D01*
D02*
G37*
G36*
X95673Y300362D02*
X93106D01*
Y297894D01*
X95673D01*
Y300362D01*
D02*
G37*
G36*
Y296894D02*
X93106D01*
Y294425D01*
X95673D01*
Y296894D01*
D02*
G37*
G36*
X64350Y287964D02*
Y286524D01*
X65791D01*
X65533Y287148D01*
X64974Y287706D01*
X64350Y287964D01*
D02*
G37*
G36*
X63350D02*
X62726Y287706D01*
X62168Y287148D01*
X61910Y286524D01*
X63350D01*
Y287964D01*
D02*
G37*
G36*
X65791Y285524D02*
X64350D01*
Y284083D01*
X64974Y284342D01*
X65533Y284900D01*
X65791Y285524D01*
D02*
G37*
G36*
X63350D02*
X61910D01*
X62168Y284900D01*
X62726Y284342D01*
X63350Y284083D01*
Y285524D01*
D02*
G37*
G36*
X9500Y284955D02*
X9262D01*
X8584Y284821D01*
X8009Y284436D01*
X7625Y283861D01*
X7490Y283183D01*
Y282846D01*
X9500D01*
Y284955D01*
D02*
G37*
G36*
X68114Y285524D02*
X66992D01*
Y283858D01*
X67116Y283238D01*
X67467Y282712D01*
X67994Y282360D01*
X68114Y282336D01*
Y285524D01*
D02*
G37*
G36*
X9500Y281846D02*
X7490D01*
Y281510D01*
X7625Y280832D01*
X8009Y280257D01*
X8584Y279873D01*
X9262Y279738D01*
X9500D01*
Y281846D01*
D02*
G37*
G36*
X94500Y276941D02*
Y275500D01*
X95941D01*
X95682Y276124D01*
X95124Y276682D01*
X94500Y276941D01*
D02*
G37*
G36*
X93500D02*
X92876Y276682D01*
X92318Y276124D01*
X92059Y275500D01*
X93500D01*
Y276941D01*
D02*
G37*
G36*
X95941Y274500D02*
X94500D01*
Y273059D01*
X95124Y273318D01*
X95682Y273876D01*
X95941Y274500D01*
D02*
G37*
G36*
X93500D02*
X92059D01*
X92318Y273876D01*
X92876Y273318D01*
X93500Y273059D01*
Y274500D01*
D02*
G37*
G36*
X96341Y266982D02*
Y265542D01*
X97782D01*
X97523Y266166D01*
X96965Y266724D01*
X96341Y266982D01*
D02*
G37*
G36*
X95341D02*
X94717Y266724D01*
X94159Y266166D01*
X93900Y265542D01*
X95341D01*
Y266982D01*
D02*
G37*
G36*
X97782Y264542D02*
X96341D01*
Y263101D01*
X96965Y263359D01*
X97523Y263918D01*
X97782Y264542D01*
D02*
G37*
G36*
X95341D02*
X93900D01*
X94159Y263918D01*
X94717Y263359D01*
X95341Y263101D01*
Y264542D01*
D02*
G37*
G36*
X9500Y265055D02*
X9262D01*
X8584Y264921D01*
X8009Y264536D01*
X7625Y263962D01*
X7490Y263283D01*
Y262947D01*
X9500D01*
Y265055D01*
D02*
G37*
G36*
X84500Y261538D02*
Y260097D01*
X85941D01*
X85682Y260721D01*
X85124Y261279D01*
X84500Y261538D01*
D02*
G37*
G36*
X83500D02*
X82876Y261279D01*
X82318Y260721D01*
X82059Y260097D01*
X83500D01*
Y261538D01*
D02*
G37*
G36*
X9500Y261947D02*
X7490D01*
Y261610D01*
X7625Y260932D01*
X8009Y260357D01*
X8584Y259973D01*
X9262Y259838D01*
X9500D01*
Y261947D01*
D02*
G37*
G36*
X102500Y261150D02*
Y259709D01*
X103941D01*
X103682Y260333D01*
X103124Y260891D01*
X102500Y261150D01*
D02*
G37*
G36*
X101500D02*
X100876Y260891D01*
X100318Y260333D01*
X100059Y259709D01*
X101500D01*
Y261150D01*
D02*
G37*
G36*
X85941Y259097D02*
X84500D01*
Y257657D01*
X85124Y257915D01*
X85682Y258473D01*
X85941Y259097D01*
D02*
G37*
G36*
X83500D02*
X82059D01*
X82318Y258473D01*
X82876Y257915D01*
X83500Y257657D01*
Y259097D01*
D02*
G37*
G36*
X103941Y258709D02*
X102500D01*
Y257268D01*
X103124Y257527D01*
X103682Y258085D01*
X103941Y258709D01*
D02*
G37*
G36*
X101500D02*
X100059D01*
X100318Y258085D01*
X100876Y257527D01*
X101500Y257268D01*
Y258709D01*
D02*
G37*
G36*
X103000Y254491D02*
Y253050D01*
X104441D01*
X104182Y253675D01*
X103624Y254233D01*
X103000Y254491D01*
D02*
G37*
G36*
X102000D02*
X101376Y254233D01*
X100818Y253675D01*
X100559Y253050D01*
X102000D01*
Y254491D01*
D02*
G37*
G36*
X82541Y253132D02*
Y251692D01*
X83982D01*
X83723Y252316D01*
X83165Y252874D01*
X82541Y253132D01*
D02*
G37*
G36*
X81541D02*
X80917Y252874D01*
X80359Y252316D01*
X80101Y251692D01*
X81541D01*
Y253132D01*
D02*
G37*
G36*
X104441Y252050D02*
X103000D01*
Y250610D01*
X103624Y250868D01*
X104182Y251427D01*
X104441Y252050D01*
D02*
G37*
G36*
X102000D02*
X100559D01*
X100818Y251427D01*
X101376Y250868D01*
X102000Y250610D01*
Y252050D01*
D02*
G37*
G36*
X83982Y250692D02*
X82541D01*
Y249251D01*
X83165Y249510D01*
X83723Y250068D01*
X83982Y250692D01*
D02*
G37*
G36*
X81541D02*
X80101D01*
X80359Y250068D01*
X80917Y249510D01*
X81541Y249251D01*
Y250692D01*
D02*
G37*
G36*
X94659Y249941D02*
Y248500D01*
X96100D01*
X95841Y249124D01*
X95283Y249682D01*
X94659Y249941D01*
D02*
G37*
G36*
X93659D02*
X93035Y249682D01*
X92477Y249124D01*
X92218Y248500D01*
X93659D01*
Y249941D01*
D02*
G37*
G36*
X96100Y247500D02*
X94659D01*
Y246059D01*
X95283Y246318D01*
X95841Y246876D01*
X96100Y247500D01*
D02*
G37*
G36*
X93659D02*
X92218D01*
X92477Y246876D01*
X93035Y246318D01*
X93659Y246059D01*
Y247500D01*
D02*
G37*
G36*
X68941Y246500D02*
X67500D01*
Y245059D01*
X68124Y245318D01*
X68682Y245876D01*
X68941Y246500D01*
D02*
G37*
G36*
X72500Y233941D02*
X71876Y233682D01*
X71318Y233124D01*
X71059Y232500D01*
X72500D01*
Y233941D01*
D02*
G37*
G36*
X108500Y232120D02*
Y230679D01*
X109941D01*
X109682Y231303D01*
X109124Y231861D01*
X108500Y232120D01*
D02*
G37*
G36*
X107500D02*
X106876Y231861D01*
X106318Y231303D01*
X106059Y230679D01*
X107500D01*
Y232120D01*
D02*
G37*
G36*
X65609Y231587D02*
X62421D01*
Y230465D01*
X64087D01*
X64707Y230588D01*
X65233Y230940D01*
X65585Y231466D01*
X65609Y231587D01*
D02*
G37*
G36*
X72500Y231500D02*
X71059D01*
X71318Y230876D01*
X71876Y230318D01*
X72500Y230059D01*
Y231500D01*
D02*
G37*
G36*
X58500Y218941D02*
Y217500D01*
X59941D01*
X59682Y218124D01*
X59124Y218682D01*
X58500Y218941D01*
D02*
G37*
G36*
X57500D02*
X56876Y218682D01*
X56318Y218124D01*
X56059Y217500D01*
X57500D01*
Y218941D01*
D02*
G37*
G36*
X59941Y216500D02*
X58500D01*
Y215059D01*
X59124Y215318D01*
X59682Y215876D01*
X59941Y216500D01*
D02*
G37*
G36*
X57500D02*
X56059D01*
X56318Y215876D01*
X56876Y215318D01*
X57500Y215059D01*
Y216500D01*
D02*
G37*
G36*
X136205Y243413D02*
X133736D01*
Y240846D01*
X136205D01*
Y243413D01*
D02*
G37*
G36*
X23941Y248500D02*
X22500D01*
Y247059D01*
X23124Y247318D01*
X23682Y247876D01*
X23941Y248500D01*
D02*
G37*
G36*
X21500D02*
X20059D01*
X20318Y247876D01*
X20876Y247318D01*
X21500Y247059D01*
Y248500D01*
D02*
G37*
G36*
X17260Y239941D02*
Y238500D01*
X18700D01*
X18442Y239124D01*
X17884Y239682D01*
X17260Y239941D01*
D02*
G37*
G36*
X133885Y211941D02*
X133261Y211682D01*
X132703Y211124D01*
X132445Y210500D01*
X133885D01*
Y211941D01*
D02*
G37*
G36*
Y209500D02*
X132445D01*
X132703Y208876D01*
X133261Y208318D01*
X133885Y208059D01*
Y209500D01*
D02*
G37*
G36*
X18500Y221941D02*
Y220500D01*
X19941D01*
X19682Y221124D01*
X19124Y221682D01*
X18500Y221941D01*
D02*
G37*
G36*
X17500D02*
X16876Y221682D01*
X16318Y221124D01*
X16059Y220500D01*
X17500D01*
Y221941D01*
D02*
G37*
G36*
X19941Y219500D02*
X18500D01*
Y218059D01*
X19124Y218318D01*
X19682Y218876D01*
X19941Y219500D01*
D02*
G37*
G36*
X17500D02*
X16059D01*
X16318Y218876D01*
X16876Y218318D01*
X17500Y218059D01*
Y219500D01*
D02*
G37*
G36*
X77346Y205252D02*
X73500D01*
Y201406D01*
X77346D01*
Y205252D01*
D02*
G37*
G36*
X62500Y200406D02*
X57079D01*
Y196756D01*
X62500D01*
Y200406D01*
D02*
G37*
G36*
X77346D02*
X73500D01*
Y196559D01*
X77346D01*
Y200406D01*
D02*
G37*
G36*
X55594Y194941D02*
Y193500D01*
X57035D01*
X56777Y194124D01*
X56218Y194682D01*
X55594Y194941D01*
D02*
G37*
G36*
X73544Y195039D02*
X72456D01*
X71404Y194758D01*
X70462Y194213D01*
X69692Y193444D01*
X69148Y192501D01*
X69056Y192157D01*
X68529Y192123D01*
X68211Y192891D01*
X67580Y193713D01*
X66757Y194344D01*
X65799Y194741D01*
X64772Y194877D01*
X61228D01*
X60201Y194741D01*
X59243Y194344D01*
X58420Y193713D01*
X57789Y192891D01*
X57393Y191933D01*
X57257Y190905D01*
X57393Y189878D01*
X57789Y188920D01*
X58420Y188098D01*
X59243Y187467D01*
X60201Y187070D01*
X61228Y186934D01*
X64772D01*
X65799Y187070D01*
X66757Y187467D01*
X67580Y188098D01*
X68211Y188920D01*
X68529Y189688D01*
X69056Y189654D01*
X69148Y189310D01*
X69692Y188367D01*
X70462Y187598D01*
X71404Y187053D01*
X72456Y186772D01*
X73544D01*
X74596Y187053D01*
X75538Y187598D01*
X76308Y188367D01*
X76852Y189310D01*
X77134Y190361D01*
Y191450D01*
X76852Y192501D01*
X76308Y193444D01*
X75538Y194213D01*
X74596Y194758D01*
X73544Y195039D01*
D02*
G37*
G36*
X57035Y192500D02*
X55594D01*
Y191059D01*
X56218Y191318D01*
X56777Y191876D01*
X57035Y192500D01*
D02*
G37*
G36*
X73544Y185039D02*
X72456D01*
X71404Y184758D01*
X70462Y184213D01*
X69692Y183444D01*
X69148Y182501D01*
X69056Y182157D01*
X68529Y182123D01*
X68211Y182891D01*
X67580Y183713D01*
X66757Y184344D01*
X65799Y184741D01*
X64772Y184877D01*
X61228D01*
X60201Y184741D01*
X59243Y184344D01*
X58420Y183713D01*
X57789Y182891D01*
X57393Y181933D01*
X57257Y180905D01*
X57393Y179878D01*
X57789Y178920D01*
X58420Y178098D01*
X59243Y177467D01*
X60201Y177070D01*
X61228Y176935D01*
X64772D01*
X65799Y177070D01*
X66757Y177467D01*
X67580Y178098D01*
X68211Y178920D01*
X68529Y179688D01*
X69056Y179654D01*
X69148Y179310D01*
X69692Y178367D01*
X70462Y177598D01*
X71404Y177053D01*
X72456Y176772D01*
X73544D01*
X74596Y177053D01*
X75538Y177598D01*
X76308Y178367D01*
X76852Y179310D01*
X77134Y180361D01*
Y181450D01*
X76852Y182501D01*
X76308Y183444D01*
X75538Y184213D01*
X74596Y184758D01*
X73544Y185039D01*
D02*
G37*
G36*
Y175039D02*
X72456D01*
X71404Y174758D01*
X70462Y174213D01*
X69692Y173444D01*
X69148Y172501D01*
X69056Y172157D01*
X68529Y172123D01*
X68211Y172891D01*
X67580Y173713D01*
X66757Y174345D01*
X65799Y174741D01*
X64772Y174876D01*
X61228D01*
X60201Y174741D01*
X59243Y174345D01*
X58420Y173713D01*
X57789Y172891D01*
X57393Y171933D01*
X57257Y170905D01*
X57393Y169878D01*
X57789Y168920D01*
X58420Y168098D01*
X59243Y167467D01*
X60201Y167070D01*
X61228Y166935D01*
X64772D01*
X65799Y167070D01*
X66757Y167467D01*
X67580Y168098D01*
X68211Y168920D01*
X68529Y169688D01*
X69056Y169654D01*
X69148Y169310D01*
X69692Y168367D01*
X70462Y167598D01*
X71404Y167053D01*
X72456Y166772D01*
X73544D01*
X74596Y167053D01*
X75538Y167598D01*
X76308Y168367D01*
X76852Y169310D01*
X77134Y170361D01*
Y171450D01*
X76852Y172501D01*
X76308Y173444D01*
X75538Y174213D01*
X74596Y174758D01*
X73544Y175039D01*
D02*
G37*
G36*
Y165039D02*
X72456D01*
X71404Y164758D01*
X70462Y164213D01*
X69692Y163444D01*
X69148Y162501D01*
X69056Y162157D01*
X68529Y162123D01*
X68211Y162891D01*
X67580Y163713D01*
X66757Y164345D01*
X65799Y164741D01*
X64772Y164876D01*
X61228D01*
X60201Y164741D01*
X59243Y164345D01*
X58420Y163713D01*
X57789Y162891D01*
X57393Y161933D01*
X57257Y160906D01*
X57393Y159878D01*
X57789Y158920D01*
X58420Y158098D01*
X59243Y157467D01*
X60201Y157070D01*
X61228Y156934D01*
X64772D01*
X65799Y157070D01*
X66757Y157467D01*
X67580Y158098D01*
X68211Y158920D01*
X68529Y159688D01*
X69056Y159654D01*
X69148Y159310D01*
X69692Y158367D01*
X70462Y157598D01*
X71404Y157053D01*
X72456Y156772D01*
X73544D01*
X74596Y157053D01*
X75538Y157598D01*
X76308Y158367D01*
X76852Y159310D01*
X77134Y160361D01*
Y161450D01*
X76852Y162501D01*
X76308Y163444D01*
X75538Y164213D01*
X74596Y164758D01*
X73544Y165039D01*
D02*
G37*
G36*
Y155039D02*
X72456D01*
X71404Y154758D01*
X70462Y154213D01*
X69692Y153444D01*
X69148Y152501D01*
X69056Y152157D01*
X68529Y152123D01*
X68211Y152891D01*
X67580Y153713D01*
X66757Y154344D01*
X65799Y154741D01*
X64772Y154876D01*
X61228D01*
X60201Y154741D01*
X59243Y154344D01*
X58420Y153713D01*
X57789Y152891D01*
X57393Y151933D01*
X57257Y150906D01*
X57393Y149878D01*
X57789Y148920D01*
X58420Y148098D01*
X59243Y147467D01*
X60201Y147070D01*
X61228Y146934D01*
X64772D01*
X65799Y147070D01*
X66757Y147467D01*
X67580Y148098D01*
X68211Y148920D01*
X68529Y149688D01*
X69056Y149654D01*
X69148Y149310D01*
X69692Y148367D01*
X70462Y147598D01*
X71404Y147053D01*
X72456Y146772D01*
X73544D01*
X74596Y147053D01*
X75538Y147598D01*
X76308Y148367D01*
X76852Y149310D01*
X77134Y150361D01*
Y151450D01*
X76852Y152501D01*
X76308Y153444D01*
X75538Y154213D01*
X74596Y154758D01*
X73544Y155039D01*
D02*
G37*
G36*
X82500Y152941D02*
Y151500D01*
X83941D01*
X83682Y152124D01*
X83124Y152682D01*
X82500Y152941D01*
D02*
G37*
G36*
X81500D02*
X80876Y152682D01*
X80318Y152124D01*
X80059Y151500D01*
X81500D01*
Y152941D01*
D02*
G37*
G36*
X11500Y151941D02*
X10876Y151682D01*
X10318Y151124D01*
X10059Y150500D01*
X11500D01*
Y151941D01*
D02*
G37*
G36*
X83941Y150500D02*
X82500D01*
Y149059D01*
X83124Y149318D01*
X83682Y149876D01*
X83941Y150500D01*
D02*
G37*
G36*
X81500D02*
X80059D01*
X80318Y149876D01*
X80876Y149318D01*
X81500Y149059D01*
Y150500D01*
D02*
G37*
G36*
X55500Y148220D02*
Y146780D01*
X56941D01*
X56682Y147404D01*
X56124Y147962D01*
X55500Y148220D01*
D02*
G37*
G36*
X54500D02*
X53876Y147962D01*
X53318Y147404D01*
X53103Y146886D01*
X52668Y146645D01*
X52516Y146633D01*
X52260Y146683D01*
Y142500D01*
X53984D01*
Y144103D01*
X54399Y144381D01*
X54500Y144339D01*
Y146280D01*
Y148220D01*
D02*
G37*
G36*
X56941Y145780D02*
X55500D01*
Y144339D01*
X56124Y144597D01*
X56682Y145156D01*
X56941Y145780D01*
D02*
G37*
G36*
X51260Y146683D02*
X50909Y146614D01*
X50187Y146132D01*
X49705Y145410D01*
X49536Y144559D01*
Y142500D01*
X51260D01*
Y146683D01*
D02*
G37*
G36*
X73544Y145039D02*
X72456D01*
X71404Y144758D01*
X70462Y144213D01*
X69692Y143444D01*
X69148Y142501D01*
X69056Y142157D01*
X68529Y142123D01*
X68211Y142891D01*
X67580Y143713D01*
X66757Y144344D01*
X65799Y144741D01*
X64772Y144877D01*
X61228D01*
X60201Y144741D01*
X59243Y144344D01*
X58420Y143713D01*
X57789Y142891D01*
X57393Y141933D01*
X57257Y140905D01*
X57393Y139878D01*
X57789Y138920D01*
X58420Y138098D01*
X59243Y137467D01*
X60201Y137070D01*
X61228Y136934D01*
X64772D01*
X65799Y137070D01*
X66757Y137467D01*
X67580Y138098D01*
X68211Y138920D01*
X68529Y139688D01*
X69056Y139654D01*
X69148Y139310D01*
X69692Y138367D01*
X70462Y137598D01*
X71404Y137053D01*
X72456Y136772D01*
X73544D01*
X74596Y137053D01*
X75538Y137598D01*
X76308Y138367D01*
X76852Y139310D01*
X77134Y140361D01*
Y141450D01*
X76852Y142501D01*
X76308Y143444D01*
X75538Y144213D01*
X74596Y144758D01*
X73544Y145039D01*
D02*
G37*
G36*
X82500Y142846D02*
Y141405D01*
X83941D01*
X83682Y142030D01*
X83124Y142588D01*
X82500Y142846D01*
D02*
G37*
G36*
X81500D02*
X80876Y142588D01*
X80318Y142030D01*
X80059Y141405D01*
X81500D01*
Y142846D01*
D02*
G37*
G36*
X83941Y140405D02*
X82500D01*
Y138965D01*
X83124Y139223D01*
X83682Y139781D01*
X83941Y140405D01*
D02*
G37*
G36*
X81500D02*
X80059D01*
X80318Y139781D01*
X80876Y139223D01*
X81500Y138965D01*
Y140405D01*
D02*
G37*
G36*
X53984Y141500D02*
X52260D01*
Y137317D01*
X52611Y137386D01*
X53332Y137868D01*
X53814Y138590D01*
X53984Y139441D01*
Y141500D01*
D02*
G37*
G36*
X51260D02*
X49536D01*
Y139441D01*
X49705Y138590D01*
X50187Y137868D01*
X50909Y137386D01*
X51260Y137317D01*
Y141500D01*
D02*
G37*
G36*
X73544Y135039D02*
X72456D01*
X71404Y134758D01*
X70462Y134213D01*
X69692Y133444D01*
X69148Y132501D01*
X69056Y132157D01*
X68529Y132123D01*
X68211Y132891D01*
X67580Y133713D01*
X66757Y134344D01*
X65799Y134741D01*
X64772Y134877D01*
X61228D01*
X60201Y134741D01*
X59243Y134344D01*
X58420Y133713D01*
X57789Y132891D01*
X57393Y131933D01*
X57257Y130905D01*
X57393Y129878D01*
X57789Y128920D01*
X58420Y128098D01*
X59243Y127467D01*
X60201Y127070D01*
X61228Y126935D01*
X64772D01*
X65799Y127070D01*
X66757Y127467D01*
X67580Y128098D01*
X68211Y128920D01*
X68529Y129688D01*
X69056Y129654D01*
X69148Y129310D01*
X69692Y128367D01*
X70462Y127598D01*
X71404Y127053D01*
X72456Y126772D01*
X73544D01*
X74596Y127053D01*
X75538Y127598D01*
X76308Y128367D01*
X76852Y129310D01*
X77134Y130361D01*
Y131450D01*
X76852Y132501D01*
X76308Y133444D01*
X75538Y134213D01*
X74596Y134758D01*
X73544Y135039D01*
D02*
G37*
G36*
X80559Y132846D02*
Y131405D01*
X82000D01*
X81741Y132029D01*
X81183Y132588D01*
X80559Y132846D01*
D02*
G37*
G36*
X79559D02*
X78935Y132588D01*
X78377Y132029D01*
X78119Y131405D01*
X79559D01*
Y132846D01*
D02*
G37*
G36*
X82000Y130405D02*
X80559D01*
Y128965D01*
X81183Y129223D01*
X81741Y129781D01*
X82000Y130405D01*
D02*
G37*
G36*
X79559D02*
X78119D01*
X78377Y129781D01*
X78935Y129223D01*
X79559Y128965D01*
Y130405D01*
D02*
G37*
G36*
X73544Y125039D02*
X72456D01*
X71404Y124758D01*
X70462Y124213D01*
X69692Y123444D01*
X69148Y122501D01*
X69056Y122157D01*
X68529Y122123D01*
X68211Y122891D01*
X67580Y123713D01*
X66757Y124345D01*
X65799Y124741D01*
X64772Y124876D01*
X61228D01*
X60201Y124741D01*
X59243Y124345D01*
X58420Y123713D01*
X57789Y122891D01*
X57393Y121933D01*
X57257Y120905D01*
X57393Y119878D01*
X57789Y118920D01*
X58420Y118098D01*
X59243Y117467D01*
X60201Y117070D01*
X61228Y116935D01*
X64772D01*
X65799Y117070D01*
X66757Y117467D01*
X67580Y118098D01*
X68211Y118920D01*
X68529Y119688D01*
X69056Y119654D01*
X69148Y119310D01*
X69692Y118367D01*
X70462Y117598D01*
X71404Y117053D01*
X72456Y116772D01*
X73544D01*
X74596Y117053D01*
X75538Y117598D01*
X76308Y118367D01*
X76852Y119310D01*
X77134Y120361D01*
Y121450D01*
X76852Y122501D01*
X76308Y123444D01*
X75538Y124213D01*
X74596Y124758D01*
X73544Y125039D01*
D02*
G37*
G36*
Y115039D02*
X72456D01*
X71404Y114758D01*
X70462Y114213D01*
X69692Y113444D01*
X69148Y112501D01*
X69056Y112157D01*
X68529Y112123D01*
X68211Y112891D01*
X67580Y113713D01*
X66757Y114345D01*
X65799Y114741D01*
X64772Y114876D01*
X61228D01*
X60201Y114741D01*
X59243Y114345D01*
X58420Y113713D01*
X57789Y112891D01*
X57393Y111933D01*
X57257Y110906D01*
X57393Y109878D01*
X57789Y108920D01*
X58420Y108098D01*
X59243Y107467D01*
X60201Y107070D01*
X61228Y106934D01*
X64772D01*
X65799Y107070D01*
X66757Y107467D01*
X67580Y108098D01*
X68211Y108920D01*
X68529Y109688D01*
X69056Y109654D01*
X69148Y109310D01*
X69692Y108367D01*
X70462Y107598D01*
X71404Y107053D01*
X72456Y106772D01*
X73544D01*
X74596Y107053D01*
X75538Y107598D01*
X76308Y108367D01*
X76852Y109310D01*
X77134Y110361D01*
Y111450D01*
X76852Y112501D01*
X76308Y113444D01*
X75538Y114213D01*
X74596Y114758D01*
X73544Y115039D01*
D02*
G37*
G36*
X33591Y89479D02*
X31228D01*
X30303Y89358D01*
X29441Y89001D01*
X28701Y88433D01*
X28133Y87692D01*
X27776Y86831D01*
X27654Y85905D01*
X27776Y84980D01*
X28133Y84119D01*
X28701Y83378D01*
X29441Y82810D01*
X30303Y82453D01*
X31228Y82332D01*
X33591D01*
X34516Y82453D01*
X35377Y82810D01*
X36118Y83378D01*
X36686Y84119D01*
X37043Y84980D01*
X37164Y85905D01*
X37043Y86831D01*
X36686Y87692D01*
X36118Y88433D01*
X35377Y89001D01*
X34516Y89358D01*
X33591Y89479D01*
D02*
G37*
G36*
X43591Y84479D02*
X41228D01*
X40303Y84358D01*
X39441Y84001D01*
X38701Y83433D01*
X38133Y82692D01*
X37776Y81831D01*
X37655Y80905D01*
X37776Y79980D01*
X38133Y79119D01*
X38701Y78378D01*
X39441Y77811D01*
X40303Y77453D01*
X41228Y77332D01*
X43591D01*
X44516Y77453D01*
X45377Y77811D01*
X46118Y78378D01*
X46686Y79119D01*
X47043Y79980D01*
X47164Y80905D01*
X47043Y81831D01*
X46686Y82692D01*
X46118Y83433D01*
X45377Y84001D01*
X44516Y84358D01*
X43591Y84479D01*
D02*
G37*
G36*
X33591Y79479D02*
X31228D01*
X30303Y79358D01*
X29441Y79001D01*
X28701Y78433D01*
X28133Y77692D01*
X27776Y76831D01*
X27654Y75906D01*
X27776Y74980D01*
X28133Y74119D01*
X28701Y73378D01*
X29441Y72811D01*
X30303Y72453D01*
X31228Y72332D01*
X33591D01*
X34516Y72453D01*
X35377Y72811D01*
X36118Y73378D01*
X36686Y74119D01*
X37043Y74980D01*
X37164Y75906D01*
X37043Y76831D01*
X36686Y77692D01*
X36118Y78433D01*
X35377Y79001D01*
X34516Y79358D01*
X33591Y79479D01*
D02*
G37*
G36*
X43591Y74694D02*
X42909D01*
Y71406D01*
X47313D01*
X47250Y71886D01*
X46871Y72800D01*
X46269Y73584D01*
X45485Y74186D01*
X44571Y74565D01*
X43591Y74694D01*
D02*
G37*
G36*
X41909D02*
X41228D01*
X40248Y74565D01*
X39334Y74186D01*
X38550Y73584D01*
X37948Y72800D01*
X37569Y71886D01*
X37506Y71406D01*
X41909D01*
Y74694D01*
D02*
G37*
G36*
X47313Y70406D02*
X42909D01*
Y67117D01*
X43591D01*
X44571Y67246D01*
X45485Y67625D01*
X46269Y68227D01*
X46871Y69011D01*
X47250Y69925D01*
X47313Y70406D01*
D02*
G37*
G36*
X41909D02*
X37506D01*
X37569Y69925D01*
X37948Y69011D01*
X38550Y68227D01*
X39334Y67625D01*
X40248Y67246D01*
X41228Y67117D01*
X41909D01*
Y70406D01*
D02*
G37*
G36*
X43591Y64694D02*
X42909D01*
Y61405D01*
X47313D01*
X47250Y61886D01*
X46871Y62800D01*
X46269Y63584D01*
X45485Y64186D01*
X44571Y64565D01*
X43591Y64694D01*
D02*
G37*
G36*
X47313Y40405D02*
X42909D01*
Y37117D01*
X43591D01*
X44571Y37246D01*
X45485Y37625D01*
X46269Y38227D01*
X46871Y39011D01*
X47250Y39925D01*
X47313Y40405D01*
D02*
G37*
G36*
X41909D02*
X37506D01*
X37569Y39925D01*
X37948Y39011D01*
X38550Y38227D01*
X39334Y37625D01*
X40248Y37246D01*
X41228Y37117D01*
X41909D01*
Y40405D01*
D02*
G37*
G36*
X33591Y39479D02*
X31228D01*
X30303Y39358D01*
X29441Y39001D01*
X28701Y38433D01*
X28133Y37692D01*
X27776Y36830D01*
X27654Y35906D01*
X27776Y34980D01*
X28133Y34119D01*
X28701Y33378D01*
X29441Y32810D01*
X30303Y32453D01*
X31228Y32332D01*
X33591D01*
X34516Y32453D01*
X35377Y32810D01*
X36118Y33378D01*
X36686Y34119D01*
X37043Y34980D01*
X37164Y35906D01*
X37043Y36830D01*
X36686Y37692D01*
X36118Y38433D01*
X35377Y39001D01*
X34516Y39358D01*
X33591Y39479D01*
D02*
G37*
G36*
X43591Y34694D02*
X42909D01*
Y31405D01*
X47313D01*
X47250Y31886D01*
X46871Y32800D01*
X46269Y33584D01*
X45485Y34186D01*
X44571Y34565D01*
X43591Y34694D01*
D02*
G37*
G36*
X41909D02*
X41228D01*
X40248Y34565D01*
X39334Y34186D01*
X38550Y33584D01*
X37948Y32800D01*
X37569Y31886D01*
X37506Y31405D01*
X41909D01*
Y34694D01*
D02*
G37*
G36*
X47313Y30406D02*
X42909D01*
Y27117D01*
X43591D01*
X44571Y27246D01*
X45485Y27625D01*
X46269Y28227D01*
X46871Y29011D01*
X47250Y29925D01*
X47313Y30406D01*
D02*
G37*
G36*
X41909D02*
X37506D01*
X37569Y29925D01*
X37948Y29011D01*
X38550Y28227D01*
X39334Y27625D01*
X40248Y27246D01*
X41228Y27117D01*
X41909D01*
Y30406D01*
D02*
G37*
G36*
X33591Y29479D02*
X31228D01*
X30303Y29358D01*
X29441Y29001D01*
X28701Y28433D01*
X28133Y27692D01*
X27776Y26831D01*
X27654Y25905D01*
X27776Y24981D01*
X28133Y24119D01*
X28701Y23378D01*
X29441Y22810D01*
X30303Y22453D01*
X31228Y22332D01*
X33591D01*
X34516Y22453D01*
X35377Y22810D01*
X36118Y23378D01*
X36686Y24119D01*
X37043Y24981D01*
X37164Y25905D01*
X37043Y26831D01*
X36686Y27692D01*
X36118Y28433D01*
X35377Y29001D01*
X34516Y29358D01*
X33591Y29479D01*
D02*
G37*
G36*
X73544Y25039D02*
X72456D01*
X71404Y24758D01*
X70462Y24213D01*
X69692Y23444D01*
X69148Y22501D01*
X69056Y22157D01*
X68529Y22123D01*
X68211Y22891D01*
X67580Y23713D01*
X66757Y24344D01*
X65799Y24741D01*
X64772Y24877D01*
X61228D01*
X60201Y24741D01*
X59243Y24344D01*
X58420Y23713D01*
X57789Y22891D01*
X57393Y21933D01*
X57257Y20906D01*
X57393Y19878D01*
X57789Y18920D01*
X58420Y18098D01*
X59243Y17467D01*
X60201Y17070D01*
X61228Y16935D01*
X64772D01*
X65799Y17070D01*
X66757Y17467D01*
X67580Y18098D01*
X68211Y18920D01*
X68529Y19688D01*
X69056Y19654D01*
X69148Y19310D01*
X69692Y18367D01*
X70462Y17598D01*
X71404Y17053D01*
X72456Y16772D01*
X73544D01*
X74596Y17053D01*
X75538Y17598D01*
X76308Y18367D01*
X76852Y19310D01*
X77134Y20361D01*
Y21450D01*
X76852Y22501D01*
X76308Y23444D01*
X75538Y24213D01*
X74596Y24758D01*
X73544Y25039D01*
D02*
G37*
G36*
X43591Y24694D02*
X42909D01*
Y21406D01*
X47313D01*
X47250Y21886D01*
X46871Y22800D01*
X46269Y23584D01*
X45485Y24186D01*
X44571Y24565D01*
X43591Y24694D01*
D02*
G37*
G36*
X41909D02*
X41228D01*
X40248Y24565D01*
X39334Y24186D01*
X38550Y23584D01*
X37948Y22800D01*
X37569Y21886D01*
X37506Y21406D01*
X41909D01*
Y24694D01*
D02*
G37*
G36*
X53500Y20941D02*
Y19500D01*
X54941D01*
X54682Y20124D01*
X54124Y20682D01*
X53500Y20941D01*
D02*
G37*
G36*
X52500D02*
X51876Y20682D01*
X51318Y20124D01*
X51059Y19500D01*
X52500D01*
Y20941D01*
D02*
G37*
G36*
X47313Y20405D02*
X42909D01*
Y17117D01*
X43591D01*
X44571Y17246D01*
X45485Y17625D01*
X46269Y18227D01*
X46871Y19011D01*
X47250Y19925D01*
X47313Y20405D01*
D02*
G37*
G36*
X41909D02*
X37506D01*
X37569Y19925D01*
X37948Y19011D01*
X38550Y18227D01*
X39334Y17625D01*
X40248Y17246D01*
X41228Y17117D01*
X41909D01*
Y20405D01*
D02*
G37*
G36*
X54941Y18500D02*
X53500D01*
Y17059D01*
X54124Y17318D01*
X54682Y17876D01*
X54941Y18500D01*
D02*
G37*
G36*
X52500D02*
X51059D01*
X51318Y17876D01*
X51876Y17318D01*
X52500Y17059D01*
Y18500D01*
D02*
G37*
G36*
X33591Y19694D02*
X32909D01*
Y16406D01*
X37313D01*
X37250Y16886D01*
X36871Y17800D01*
X36269Y18584D01*
X35485Y19186D01*
X34571Y19565D01*
X33591Y19694D01*
D02*
G37*
G36*
X37313Y15405D02*
X32909D01*
Y12117D01*
X33591D01*
X34571Y12246D01*
X35485Y12625D01*
X36269Y13227D01*
X36871Y14011D01*
X37250Y14925D01*
X37313Y15405D01*
D02*
G37*
G36*
X43591Y14694D02*
X42909D01*
Y11406D01*
X47313D01*
X47250Y11886D01*
X46871Y12800D01*
X46269Y13584D01*
X45485Y14186D01*
X44571Y14565D01*
X43591Y14694D01*
D02*
G37*
G36*
X41909D02*
X41228D01*
X40248Y14565D01*
X39334Y14186D01*
X38550Y13584D01*
X37948Y12800D01*
X37569Y11886D01*
X37506Y11406D01*
X41909D01*
Y14694D01*
D02*
G37*
G36*
X133544Y135039D02*
X132456D01*
X131404Y134758D01*
X130462Y134213D01*
X129692Y133444D01*
X129270Y132712D01*
X128285D01*
X128211Y132891D01*
X127580Y133713D01*
X126757Y134344D01*
X125799Y134741D01*
X124772Y134877D01*
X121228D01*
X120201Y134741D01*
X119243Y134344D01*
X118420Y133713D01*
X117789Y132891D01*
X117393Y131933D01*
X117257Y130905D01*
X117393Y129878D01*
X117789Y128920D01*
X118420Y128098D01*
X119243Y127467D01*
X120201Y127070D01*
X121228Y126935D01*
X124772D01*
X125799Y127070D01*
X126757Y127467D01*
X127580Y128098D01*
X128211Y128920D01*
X128285Y129099D01*
X129270D01*
X129692Y128367D01*
X130462Y127598D01*
X131404Y127053D01*
X132456Y126772D01*
X133544D01*
X134596Y127053D01*
X135538Y127598D01*
X136308Y128367D01*
X136852Y129310D01*
X137134Y130361D01*
Y131450D01*
X136852Y132501D01*
X136308Y133444D01*
X135538Y134213D01*
X134596Y134758D01*
X133544Y135039D01*
D02*
G37*
G36*
Y125039D02*
X132456D01*
X131404Y124758D01*
X130462Y124213D01*
X129692Y123444D01*
X129270Y122712D01*
X128285D01*
X128211Y122891D01*
X127580Y123713D01*
X126757Y124345D01*
X125799Y124741D01*
X124772Y124876D01*
X121228D01*
X120201Y124741D01*
X119243Y124345D01*
X118420Y123713D01*
X117789Y122891D01*
X117393Y121933D01*
X117257Y120905D01*
X117393Y119878D01*
X117789Y118920D01*
X118420Y118098D01*
X119243Y117467D01*
X120201Y117070D01*
X121228Y116935D01*
X124772D01*
X125799Y117070D01*
X126757Y117467D01*
X127580Y118098D01*
X128211Y118920D01*
X128285Y119099D01*
X129270D01*
X129692Y118367D01*
X130462Y117598D01*
X131404Y117053D01*
X132456Y116772D01*
X133544D01*
X134596Y117053D01*
X135538Y117598D01*
X136308Y118367D01*
X136852Y119310D01*
X137134Y120361D01*
Y121450D01*
X136852Y122501D01*
X136308Y123444D01*
X135538Y124213D01*
X134596Y124758D01*
X133544Y125039D01*
D02*
G37*
G36*
Y115039D02*
X132456D01*
X131404Y114758D01*
X130462Y114213D01*
X129692Y113444D01*
X129270Y112712D01*
X128285D01*
X128211Y112891D01*
X127580Y113713D01*
X126757Y114345D01*
X125799Y114741D01*
X124772Y114876D01*
X121228D01*
X120201Y114741D01*
X119243Y114345D01*
X118420Y113713D01*
X117789Y112891D01*
X117393Y111933D01*
X117257Y110906D01*
X117393Y109878D01*
X117789Y108920D01*
X118420Y108098D01*
X119243Y107467D01*
X120201Y107070D01*
X121228Y106934D01*
X124772D01*
X125799Y107070D01*
X126757Y107467D01*
X127580Y108098D01*
X128211Y108920D01*
X128285Y109099D01*
X129270D01*
X129692Y108367D01*
X130462Y107598D01*
X131404Y107053D01*
X132456Y106772D01*
X133544D01*
X134596Y107053D01*
X135538Y107598D01*
X136308Y108367D01*
X136852Y109310D01*
X137134Y110361D01*
Y111450D01*
X136852Y112501D01*
X136308Y113444D01*
X135538Y114213D01*
X134596Y114758D01*
X133544Y115039D01*
D02*
G37*
G36*
Y105039D02*
X132456D01*
X131404Y104758D01*
X130462Y104213D01*
X129692Y103444D01*
X129270Y102712D01*
X128285D01*
X128211Y102891D01*
X127580Y103713D01*
X126757Y104344D01*
X125799Y104741D01*
X124772Y104876D01*
X121228D01*
X120201Y104741D01*
X119243Y104344D01*
X118420Y103713D01*
X117789Y102891D01*
X117393Y101933D01*
X117257Y100906D01*
X117393Y99878D01*
X117789Y98920D01*
X118420Y98098D01*
X119243Y97466D01*
X120201Y97070D01*
X121228Y96934D01*
X124772D01*
X125799Y97070D01*
X126757Y97466D01*
X127580Y98098D01*
X128211Y98920D01*
X128285Y99099D01*
X129270D01*
X129692Y98367D01*
X130462Y97598D01*
X131404Y97053D01*
X132456Y96772D01*
X133544D01*
X134596Y97053D01*
X135538Y97598D01*
X136308Y98367D01*
X136852Y99310D01*
X137134Y100361D01*
Y101450D01*
X136852Y102501D01*
X136308Y103444D01*
X135538Y104213D01*
X134596Y104758D01*
X133544Y105039D01*
D02*
G37*
G36*
Y95039D02*
X132456D01*
X131404Y94758D01*
X130462Y94213D01*
X129692Y93444D01*
X129270Y92712D01*
X128285D01*
X128211Y92891D01*
X127580Y93713D01*
X126757Y94345D01*
X125799Y94741D01*
X124772Y94876D01*
X121228D01*
X120201Y94741D01*
X119243Y94345D01*
X118420Y93713D01*
X117789Y92891D01*
X117393Y91933D01*
X117257Y90905D01*
X117393Y89878D01*
X117789Y88920D01*
X118420Y88098D01*
X119243Y87467D01*
X120201Y87070D01*
X121228Y86935D01*
X124772D01*
X125799Y87070D01*
X126757Y87467D01*
X127580Y88098D01*
X128211Y88920D01*
X128285Y89099D01*
X129270D01*
X129692Y88367D01*
X130462Y87598D01*
X131404Y87053D01*
X132456Y86772D01*
X133544D01*
X134596Y87053D01*
X135538Y87598D01*
X136308Y88367D01*
X136852Y89310D01*
X137134Y90361D01*
Y91450D01*
X136852Y92501D01*
X136308Y93444D01*
X135538Y94213D01*
X134596Y94758D01*
X133544Y95039D01*
D02*
G37*
G36*
Y85039D02*
X132456D01*
X131404Y84758D01*
X130462Y84213D01*
X129692Y83444D01*
X129270Y82712D01*
X128285D01*
X128211Y82891D01*
X127580Y83713D01*
X126757Y84345D01*
X125799Y84741D01*
X124772Y84877D01*
X121228D01*
X120201Y84741D01*
X119243Y84345D01*
X118420Y83713D01*
X117789Y82891D01*
X117393Y81933D01*
X117257Y80905D01*
X117393Y79878D01*
X117789Y78920D01*
X118420Y78098D01*
X119243Y77466D01*
X120201Y77070D01*
X121228Y76934D01*
X124772D01*
X125799Y77070D01*
X126757Y77466D01*
X127580Y78098D01*
X128211Y78920D01*
X128285Y79099D01*
X129270D01*
X129692Y78367D01*
X130462Y77598D01*
X131404Y77053D01*
X132456Y76772D01*
X133544D01*
X134596Y77053D01*
X135538Y77598D01*
X136308Y78367D01*
X136852Y79310D01*
X137134Y80361D01*
Y81450D01*
X136852Y82501D01*
X136308Y83444D01*
X135538Y84213D01*
X134596Y84758D01*
X133544Y85039D01*
D02*
G37*
G36*
Y75039D02*
X132456D01*
X131404Y74758D01*
X130462Y74213D01*
X129692Y73444D01*
X129270Y72712D01*
X128285D01*
X128211Y72891D01*
X127580Y73713D01*
X126757Y74344D01*
X125799Y74741D01*
X124772Y74876D01*
X121228D01*
X120201Y74741D01*
X119243Y74344D01*
X118420Y73713D01*
X117789Y72891D01*
X117393Y71933D01*
X117257Y70906D01*
X117393Y69878D01*
X117789Y68920D01*
X118420Y68098D01*
X119243Y67466D01*
X120201Y67070D01*
X121228Y66935D01*
X124772D01*
X125799Y67070D01*
X126757Y67466D01*
X127580Y68098D01*
X128211Y68920D01*
X128285Y69099D01*
X129270D01*
X129692Y68367D01*
X130462Y67598D01*
X131404Y67053D01*
X132456Y66772D01*
X133544D01*
X134596Y67053D01*
X135538Y67598D01*
X136308Y68367D01*
X136852Y69310D01*
X137134Y70361D01*
Y71450D01*
X136852Y72501D01*
X136308Y73444D01*
X135538Y74213D01*
X134596Y74758D01*
X133544Y75039D01*
D02*
G37*
G36*
X109118Y71055D02*
X108240D01*
Y69342D01*
X110740D01*
Y69433D01*
X110616Y70053D01*
X110265Y70580D01*
X109739Y70931D01*
X109118Y71055D01*
D02*
G37*
G36*
X107240D02*
X106362D01*
X105742Y70931D01*
X105216Y70580D01*
X104864Y70053D01*
X104741Y69433D01*
Y69342D01*
X107240D01*
Y71055D01*
D02*
G37*
G36*
X110740Y68342D02*
X108240D01*
Y66630D01*
X109118D01*
X109739Y66754D01*
X110265Y67105D01*
X110616Y67631D01*
X110740Y68252D01*
Y68342D01*
D02*
G37*
G36*
X107240D02*
X104741D01*
Y68252D01*
X104864Y67631D01*
X105216Y67105D01*
X105742Y66754D01*
X106362Y66630D01*
X107240D01*
Y68342D01*
D02*
G37*
G36*
X133544Y65039D02*
X132456D01*
X131404Y64758D01*
X130462Y64213D01*
X129692Y63444D01*
X129270Y62712D01*
X128285D01*
X128211Y62891D01*
X127580Y63713D01*
X126757Y64345D01*
X125799Y64741D01*
X124772Y64877D01*
X121228D01*
X120201Y64741D01*
X119243Y64345D01*
X118420Y63713D01*
X117789Y62891D01*
X117393Y61933D01*
X117257Y60905D01*
X117393Y59878D01*
X117789Y58920D01*
X118420Y58098D01*
X119243Y57467D01*
X120201Y57070D01*
X121228Y56934D01*
X124772D01*
X125799Y57070D01*
X126757Y57467D01*
X127580Y58098D01*
X128211Y58920D01*
X128285Y59099D01*
X129270D01*
X129692Y58367D01*
X130462Y57598D01*
X131404Y57053D01*
X132456Y56772D01*
X133544D01*
X134596Y57053D01*
X135538Y57598D01*
X136308Y58367D01*
X136852Y59310D01*
X137134Y60361D01*
Y61450D01*
X136852Y62501D01*
X136308Y63444D01*
X135538Y64213D01*
X134596Y64758D01*
X133544Y65039D01*
D02*
G37*
G36*
X113352Y78772D02*
X112648D01*
X111996Y78502D01*
X111498Y78004D01*
X111228Y77352D01*
Y76648D01*
X111498Y75996D01*
X111695Y75799D01*
Y62667D01*
X110298D01*
X110112Y62946D01*
X109656Y63251D01*
X109118Y63358D01*
X106362D01*
X105825Y63251D01*
X105369Y62946D01*
X105064Y62490D01*
X104957Y61953D01*
Y60772D01*
X105064Y60234D01*
X105369Y59778D01*
X105825Y59474D01*
X106362Y59367D01*
X109118D01*
X109656Y59474D01*
X110112Y59778D01*
X110298Y60057D01*
X111695D01*
Y52375D01*
X108678Y49358D01*
X106362D01*
X105825Y49251D01*
X105369Y48946D01*
X105064Y48490D01*
X104957Y47953D01*
Y46771D01*
X105064Y46234D01*
X105369Y45778D01*
X105825Y45474D01*
X106362Y45367D01*
X109118D01*
X109656Y45474D01*
X110112Y45778D01*
X110416Y46234D01*
X110523Y46771D01*
Y47513D01*
X113923Y50912D01*
X114205Y51335D01*
X114305Y51834D01*
Y60905D01*
Y75799D01*
X114502Y75996D01*
X114772Y76648D01*
Y77352D01*
X114502Y78004D01*
X114004Y78502D01*
X113352Y78772D01*
D02*
G37*
G36*
X95941Y59500D02*
X94500D01*
Y58059D01*
X95124Y58318D01*
X95682Y58876D01*
X95941Y59500D01*
D02*
G37*
G36*
X109118Y57055D02*
X108240D01*
Y55342D01*
X110740D01*
Y55433D01*
X110616Y56054D01*
X110265Y56580D01*
X109739Y56931D01*
X109118Y57055D01*
D02*
G37*
G36*
X107240D02*
X106362D01*
X105742Y56931D01*
X105216Y56580D01*
X104864Y56054D01*
X104741Y55433D01*
Y55342D01*
X107240D01*
Y57055D01*
D02*
G37*
G36*
X110740Y54342D02*
X108240D01*
Y52630D01*
X109118D01*
X109739Y52754D01*
X110265Y53105D01*
X110616Y53631D01*
X110740Y54252D01*
Y54342D01*
D02*
G37*
G36*
X107240D02*
X104741D01*
Y54252D01*
X104864Y53631D01*
X105216Y53105D01*
X105742Y52754D01*
X106362Y52630D01*
X107240D01*
Y54342D01*
D02*
G37*
G36*
X101638Y52996D02*
X98882D01*
X98344Y52889D01*
X97888Y52584D01*
X97821Y52483D01*
X97352Y52677D01*
X96648D01*
X95996Y52407D01*
X95498Y51909D01*
X95228Y51258D01*
Y50553D01*
X95498Y49902D01*
X95996Y49404D01*
X96648Y49134D01*
X97352D01*
X97944Y49379D01*
X98344Y49112D01*
X98882Y49005D01*
X101638D01*
X102175Y49112D01*
X102631Y49416D01*
X102936Y49872D01*
X103043Y50409D01*
Y51591D01*
X102936Y52128D01*
X102631Y52584D01*
X102175Y52889D01*
X101638Y52996D01*
D02*
G37*
G36*
X133544Y45039D02*
X132456D01*
X131404Y44758D01*
X130462Y44213D01*
X129692Y43444D01*
X129270Y42712D01*
X128285D01*
X128211Y42891D01*
X127580Y43713D01*
X126757Y44344D01*
X125799Y44741D01*
X124772Y44877D01*
X121228D01*
X120201Y44741D01*
X119243Y44344D01*
X118420Y43713D01*
X117789Y42891D01*
X117393Y41933D01*
X117257Y40905D01*
X117393Y39878D01*
X117789Y38920D01*
X118420Y38098D01*
X119243Y37467D01*
X120201Y37070D01*
X121228Y36935D01*
X124772D01*
X125799Y37070D01*
X126757Y37467D01*
X127580Y38098D01*
X128211Y38920D01*
X128285Y39099D01*
X129270D01*
X129692Y38367D01*
X130462Y37598D01*
X131404Y37053D01*
X132456Y36772D01*
X133544D01*
X134596Y37053D01*
X135538Y37598D01*
X136308Y38367D01*
X136852Y39310D01*
X137134Y40361D01*
Y41450D01*
X136852Y42501D01*
X136308Y43444D01*
X135538Y44213D01*
X134596Y44758D01*
X133544Y45039D01*
D02*
G37*
G36*
X86219Y42500D02*
X83413D01*
Y39104D01*
X84045D01*
X84877Y39269D01*
X85582Y39741D01*
X86054Y40446D01*
X86219Y41278D01*
Y42500D01*
D02*
G37*
G36*
X133544Y35039D02*
X132456D01*
X131404Y34758D01*
X130462Y34213D01*
X129692Y33444D01*
X129270Y32712D01*
X128285D01*
X128211Y32891D01*
X127580Y33713D01*
X126757Y34345D01*
X125799Y34741D01*
X124772Y34876D01*
X121228D01*
X120201Y34741D01*
X119243Y34345D01*
X118420Y33713D01*
X117789Y32891D01*
X117393Y31933D01*
X117257Y30906D01*
X117393Y29878D01*
X117789Y28920D01*
X118420Y28098D01*
X119243Y27467D01*
X120201Y27070D01*
X121228Y26934D01*
X124772D01*
X125799Y27070D01*
X126757Y27467D01*
X127580Y28098D01*
X128211Y28920D01*
X128285Y29099D01*
X129270D01*
X129692Y28367D01*
X130462Y27598D01*
X131404Y27053D01*
X132456Y26772D01*
X133544D01*
X134596Y27053D01*
X135538Y27598D01*
X136308Y28367D01*
X136852Y29310D01*
X137134Y30361D01*
Y31450D01*
X136852Y32501D01*
X136308Y33444D01*
X135538Y34213D01*
X134596Y34758D01*
X133544Y35039D01*
D02*
G37*
G36*
X92551Y30255D02*
X89795D01*
X89258Y30148D01*
X88802Y29844D01*
X88497Y29388D01*
X88390Y28850D01*
Y27669D01*
X88497Y27132D01*
X88802Y26676D01*
X89258Y26371D01*
X89795Y26264D01*
X92551D01*
X93089Y26371D01*
X93545Y26676D01*
X93849Y27132D01*
X93956Y27669D01*
Y28850D01*
X93849Y29388D01*
X93545Y29844D01*
X93089Y30148D01*
X92551Y30255D01*
D02*
G37*
G36*
X133544Y25039D02*
X132456D01*
X131404Y24758D01*
X130462Y24213D01*
X129692Y23444D01*
X129270Y22712D01*
X128285D01*
X128211Y22891D01*
X127580Y23713D01*
X126757Y24344D01*
X125799Y24741D01*
X124772Y24877D01*
X121228D01*
X120201Y24741D01*
X119243Y24344D01*
X118420Y23713D01*
X117789Y22891D01*
X117393Y21933D01*
X117257Y20906D01*
X117393Y19878D01*
X117789Y18920D01*
X118420Y18098D01*
X119243Y17467D01*
X120201Y17070D01*
X121228Y16935D01*
X124772D01*
X125799Y17070D01*
X126757Y17467D01*
X127580Y18098D01*
X128211Y18920D01*
X128285Y19099D01*
X129270D01*
X129692Y18367D01*
X130462Y17598D01*
X131404Y17053D01*
X132456Y16772D01*
X133544D01*
X134596Y17053D01*
X135538Y17598D01*
X136308Y18367D01*
X136852Y19310D01*
X137134Y20361D01*
Y21450D01*
X136852Y22501D01*
X136308Y23444D01*
X135538Y24213D01*
X134596Y24758D01*
X133544Y25039D01*
D02*
G37*
G36*
X90675Y24802D02*
X90043D01*
Y21406D01*
X92849D01*
Y22628D01*
X92683Y23460D01*
X92212Y24165D01*
X91507Y24636D01*
X90675Y24802D01*
D02*
G37*
G36*
X89043D02*
X88411D01*
X87580Y24636D01*
X86874Y24165D01*
X86403Y23460D01*
X86238Y22628D01*
Y21406D01*
X89043D01*
Y24802D01*
D02*
G37*
G36*
X104500Y20941D02*
Y19500D01*
X105941D01*
X105682Y20124D01*
X105124Y20682D01*
X104500Y20941D01*
D02*
G37*
G36*
X103500D02*
X102876Y20682D01*
X102318Y20124D01*
X102059Y19500D01*
X103500D01*
Y20941D01*
D02*
G37*
G36*
X105941Y18500D02*
X104500D01*
Y17059D01*
X105124Y17318D01*
X105682Y17876D01*
X105941Y18500D01*
D02*
G37*
G36*
X103500D02*
X102059D01*
X102318Y17876D01*
X102876Y17318D01*
X103500Y17059D01*
Y18500D01*
D02*
G37*
G36*
X92849Y20405D02*
X90043D01*
Y17009D01*
X90675D01*
X91507Y17175D01*
X92212Y17646D01*
X92683Y18351D01*
X92849Y19183D01*
Y20405D01*
D02*
G37*
G36*
X89043D02*
X86238D01*
Y19183D01*
X86403Y18351D01*
X86874Y17646D01*
X87580Y17175D01*
X88411Y17009D01*
X89043D01*
Y20405D01*
D02*
G37*
G36*
X133544Y15039D02*
X132456D01*
X131404Y14758D01*
X130462Y14213D01*
X129692Y13444D01*
X129270Y12712D01*
X128285D01*
X128211Y12891D01*
X127580Y13713D01*
X126757Y14345D01*
X125799Y14741D01*
X124772Y14876D01*
X121228D01*
X120201Y14741D01*
X119243Y14345D01*
X118420Y13713D01*
X117789Y12891D01*
X117393Y11933D01*
X117257Y10905D01*
X117393Y9878D01*
X117789Y8920D01*
X118420Y8098D01*
X119243Y7467D01*
X120201Y7070D01*
X121228Y6934D01*
X124772D01*
X125799Y7070D01*
X126757Y7467D01*
X127580Y8098D01*
X128211Y8920D01*
X128285Y9099D01*
X129270D01*
X129692Y8367D01*
X130462Y7598D01*
X131404Y7053D01*
X132456Y6772D01*
X133544D01*
X134596Y7053D01*
X135538Y7598D01*
X136308Y8367D01*
X136852Y9310D01*
X137134Y10361D01*
Y11450D01*
X136852Y12501D01*
X136308Y13444D01*
X135538Y14213D01*
X134596Y14758D01*
X133544Y15039D01*
D02*
G37*
G36*
X88453Y14968D02*
Y12500D01*
X91020D01*
Y14968D01*
X88453D01*
D02*
G37*
G36*
X23500Y10941D02*
Y9500D01*
X24941D01*
X24682Y10124D01*
X24124Y10682D01*
X23500Y10941D01*
D02*
G37*
G36*
X22500D02*
X21876Y10682D01*
X21318Y10124D01*
X21059Y9500D01*
X22500D01*
Y10941D01*
D02*
G37*
G36*
X91020Y11500D02*
X88453D01*
Y9031D01*
X91020D01*
Y11500D01*
D02*
G37*
G36*
X24941Y8500D02*
X23500D01*
Y7059D01*
X24124Y7318D01*
X24682Y7876D01*
X24941Y8500D01*
D02*
G37*
G36*
X22500D02*
X21059D01*
X21318Y7876D01*
X21876Y7318D01*
X22500Y7059D01*
Y8500D01*
D02*
G37*
G36*
X88551Y7939D02*
Y5500D01*
X90990D01*
X90817Y6146D01*
X90427Y6823D01*
X89874Y7375D01*
X89197Y7766D01*
X88551Y7939D01*
D02*
G37*
G36*
X87551D02*
X86905Y7766D01*
X86229Y7375D01*
X85676Y6823D01*
X85285Y6146D01*
X85112Y5500D01*
X87551D01*
Y7939D01*
D02*
G37*
%LPD*%
D10*
X79905Y200905D02*
X82394Y203394D01*
Y214394D01*
X73000Y200905D02*
X79905D01*
X88051Y5000D02*
Y12000D01*
X87953D02*
X88051D01*
X63000Y200905D02*
X73000D01*
X89543Y13492D02*
Y20906D01*
X82047Y19906D02*
X82457Y20315D01*
Y20906D01*
X82047Y12000D02*
Y19906D01*
X75328Y11433D02*
X75895Y12000D01*
X73000Y10905D02*
X73527Y11433D01*
X75328D01*
X75895Y12000D02*
X82047D01*
X63000Y10905D02*
X73000D01*
D12*
X7000Y292000D02*
Y292104D01*
X10000Y295104D01*
Y295307D01*
X5188Y250188D02*
Y251237D01*
X10000Y256049D02*
Y256147D01*
X5188Y251237D02*
X10000Y256049D01*
X5000Y250000D02*
X5188Y250188D01*
X8201Y277812D02*
X9965Y276047D01*
X10000D01*
X7188Y277812D02*
X8201D01*
X7000Y278000D02*
X7188Y277812D01*
X46047Y297969D02*
Y303953D01*
X43000Y307000D02*
X46047Y303953D01*
X49984Y297969D02*
X50043Y298028D01*
Y299483D01*
X52935Y302374D01*
X58374D01*
X63000Y307000D01*
X48016Y302016D02*
X53000Y307000D01*
X48016Y297969D02*
Y302016D01*
X51953Y297937D02*
Y297969D01*
Y297937D02*
X63937D01*
X73000Y307000D01*
X34319Y288560D02*
X34686Y288193D01*
X29936Y288560D02*
X34319D01*
X29299Y289197D02*
X29936Y288560D01*
X26447Y293232D02*
X32152D01*
X35420Y289965D01*
X53829D01*
X34686Y288193D02*
X54563D01*
X24414Y295307D02*
X34364D01*
X37935Y291736D01*
X23607Y294500D02*
X24414Y295307D01*
X19299Y294197D02*
X19602Y294500D01*
X23607D01*
X55329Y293969D02*
X70490D01*
X74520Y289939D01*
X69756Y292198D02*
X72514Y289440D01*
X53096Y291736D02*
X55329Y293969D01*
X54563Y288193D02*
X56796Y290426D01*
X72514Y286061D02*
Y289440D01*
X37935Y291736D02*
X53096D01*
X69022Y290426D02*
X70545Y288903D01*
X56796Y290426D02*
X69022D01*
X53829Y289965D02*
X56062Y292198D01*
X69756D01*
X74520Y286024D02*
Y289939D01*
X72514Y286061D02*
X72551Y286024D01*
X70545Y286061D02*
Y288903D01*
X19299Y284197D02*
X21250Y286147D01*
Y288035D01*
X26447Y293232D01*
X29299Y269197D02*
X30480D01*
X34709Y273425D01*
X61921D01*
X19299Y264197D02*
X21250Y266147D01*
Y268036D01*
X26447Y273232D01*
X30223D01*
X32384Y275394D01*
X61921D01*
X19299Y254197D02*
X21250Y256147D01*
Y258035D01*
X28376Y265161D01*
X32152D01*
X38447Y271457D01*
X61921D01*
X19299Y274197D02*
X21250Y276147D01*
Y278035D01*
X26447Y283232D01*
X41105D01*
X45007Y279331D01*
X61921D01*
X70545Y286061D02*
X70583Y286024D01*
X29602Y279500D02*
X41834D01*
X29299Y279197D02*
X29602Y279500D01*
X43971Y277362D02*
X61921D01*
X41834Y279500D02*
X43971Y277362D01*
X29602Y259500D02*
X33081D01*
X29299Y259197D02*
X29602Y259500D01*
X43069Y269488D02*
X61921D01*
X33081Y259500D02*
X43069Y269488D01*
X29299Y249197D02*
X31108Y251006D01*
Y253035D01*
X34516Y256443D01*
Y258429D01*
X43606Y267520D02*
X61921D01*
X34516Y258429D02*
X43606Y267520D01*
X23202Y235421D02*
X35587Y247806D01*
X23511Y233224D02*
X37358Y247072D01*
X27528Y234736D02*
X39130Y246338D01*
X29299Y234002D02*
X40902Y245604D01*
X32528Y234725D02*
X42673Y244870D01*
X34299Y233991D02*
X44445Y244137D01*
X37528Y234101D02*
Y234714D01*
X46216Y243403D01*
X39299Y232218D02*
Y233980D01*
X40741Y235421D01*
X40741D01*
X47988Y242669D01*
X35587Y247806D02*
Y254956D01*
X39299Y221578D02*
Y232218D01*
X34299Y221578D02*
Y233991D01*
X29299Y219084D02*
Y234002D01*
X37358Y247072D02*
Y254222D01*
X42673Y250665D02*
X47496Y255487D01*
X42673Y244870D02*
Y250665D01*
X47496Y255487D02*
Y255519D01*
X47988Y248463D02*
X48738Y249213D01*
X39130Y246338D02*
Y253206D01*
X44445Y249931D02*
X47769Y253255D01*
X54774Y251484D02*
X58423Y247835D01*
X44445Y244137D02*
Y249931D01*
X55032Y248721D02*
X57886Y245866D01*
X47769Y253255D02*
X55508D01*
X46216Y249197D02*
X48503Y251484D01*
X48738Y249213D02*
X53735D01*
X54227Y248721D01*
X40902Y245604D02*
Y252126D01*
X54227Y248721D02*
X55032D01*
X48503Y251484D02*
X54774D01*
X46216Y243403D02*
Y249197D01*
X47988Y242669D02*
Y248463D01*
X40902Y252126D02*
X46558Y257783D01*
X44114Y264826D02*
X44199Y264910D01*
X46990Y263921D02*
Y264187D01*
X35587Y254956D02*
X44114Y263484D01*
X46641Y257783D02*
X47147Y258289D01*
X46623Y260552D02*
X47150Y261079D01*
X47147Y258289D02*
X47414D01*
X39130Y253206D02*
X46476Y260552D01*
X45886Y262816D02*
X46990Y263921D01*
X46558Y257783D02*
X46641D01*
X46476Y260552D02*
X46623D01*
X37358Y254222D02*
X45886Y262750D01*
X47150Y261079D02*
X47416D01*
X45886Y262750D02*
Y262816D01*
X44114Y263484D02*
Y264826D01*
X105425Y292876D02*
X106002Y292300D01*
X109497D01*
X105425Y292876D02*
Y306575D01*
X105000Y307000D02*
X105425Y306575D01*
X111473Y293403D02*
X113890Y290987D01*
Y286024D02*
Y290987D01*
X111473Y293403D02*
Y300527D01*
X109000Y303000D02*
X111473Y300527D01*
X134818Y296371D02*
Y296567D01*
X133700Y295253D02*
X134818Y296371D01*
X133700Y291957D02*
Y295253D01*
X131436Y292815D02*
Y296457D01*
X134718Y299739D01*
X125000Y319000D02*
X130000Y324000D01*
X138502D01*
X139626Y322877D01*
Y303123D02*
Y322877D01*
X136241Y299739D02*
X139626Y303123D01*
X134718Y299739D02*
X136241D01*
X136386Y294014D02*
X136996D01*
X139437Y291573D01*
X133700Y291957D02*
X135106Y290551D01*
X135106D01*
X136386Y289173D02*
Y289272D01*
X135106Y290551D02*
X136386Y289272D01*
X122823Y286011D02*
Y292372D01*
X114494Y274704D02*
X119672Y269526D01*
X119227Y273463D02*
X122513D01*
X114494Y274704D02*
Y279034D01*
X119257Y283798D01*
X120610D01*
X116265Y278300D02*
X118071Y280105D01*
X116265Y276425D02*
Y278300D01*
X122551Y277362D02*
X122551Y277362D01*
X118529Y277362D02*
X118529Y277362D01*
X116265Y276425D02*
X119227Y273463D01*
X118071Y280105D02*
X118516D01*
X118529Y277362D02*
X122551D01*
X118516Y280105D02*
X120436Y282026D01*
X129000Y293538D02*
Y304458D01*
X129626Y305084D02*
Y308916D01*
X126971Y291509D02*
X129000Y293538D01*
X126916Y311626D02*
X129626Y308916D01*
X129000Y304458D02*
X129626Y305084D01*
X126971Y294014D02*
Y300632D01*
X125032Y302571D02*
X126971Y300632D01*
X125199Y294748D02*
Y299899D01*
X124594Y291638D02*
X126971Y294014D01*
X122823Y292372D02*
X125199Y294748D01*
X122724Y302374D02*
X125199Y299899D01*
X126971Y276972D02*
Y291509D01*
X119626Y311626D02*
X126916D01*
X125430Y275431D02*
X126971Y276972D01*
X61959Y265589D02*
X64801D01*
X69120Y269908D02*
Y271457D01*
X61921Y265551D02*
X61959Y265589D01*
X64801D02*
X69120Y269908D01*
X70772Y264000D02*
X71000D01*
X68386Y261614D02*
X70772Y264000D01*
X14876Y154000D02*
X38000D01*
X14299Y154577D02*
X14876Y154000D01*
X24220Y156264D02*
Y182980D01*
X19220Y156264D02*
Y186613D01*
X14299Y154577D02*
Y182901D01*
X25421Y123500D02*
Y127300D01*
X14299Y138422D02*
X25421Y127300D01*
X136386Y283366D02*
X139437Y286417D01*
X132854Y286644D02*
X133042Y286456D01*
X130087Y289075D02*
X132518Y286644D01*
X139437Y286417D02*
Y291573D01*
X132518Y286644D02*
X132854D01*
X130087Y289075D02*
Y289173D01*
X136386Y283268D02*
Y283366D01*
X138056Y275285D02*
Y275594D01*
Y275285D02*
X138244Y275096D01*
X136386Y277264D02*
X138056Y275594D01*
X136386Y277264D02*
Y277362D01*
X137665Y268585D02*
Y270177D01*
Y268585D02*
X138228Y268022D01*
X136386Y271457D02*
X137665Y270177D01*
X14299Y138422D02*
Y145578D01*
X15741Y147020D02*
X19539D01*
X14299Y145578D02*
X15741Y147020D01*
X28965Y129070D02*
X32129Y125906D01*
X32409D01*
X16760Y139814D02*
Y142000D01*
X17748Y138826D02*
X17934D01*
X27193Y124234D02*
Y129567D01*
X28965Y129070D02*
Y130301D01*
X24220Y135045D02*
Y145578D01*
Y135045D02*
X28965Y130301D01*
X16760Y139814D02*
X17748Y138826D01*
X17934D02*
X27193Y129567D01*
X21760Y142000D02*
X22000D01*
X51760Y179402D02*
Y186961D01*
X49220Y197006D02*
X57549Y205335D01*
X49220Y189500D02*
X51760Y186961D01*
X49220Y189500D02*
Y197006D01*
X55819Y244193D02*
X56085D01*
X27193Y124234D02*
X31683Y119744D01*
X25421Y123500D02*
X27193Y121729D01*
X31683Y116632D02*
X32409Y115905D01*
X27193Y114234D02*
Y121729D01*
X31683Y116632D02*
Y119744D01*
X27193Y114234D02*
X31683Y109744D01*
X22000Y142000D02*
Y144559D01*
X19539Y147020D02*
X22000Y144559D01*
X21007Y148791D02*
X24220Y145578D01*
X31683Y106632D02*
X32409Y105905D01*
X31683Y106632D02*
Y109744D01*
X121344Y282026D02*
X124594Y285277D01*
X120610Y283798D02*
X122823Y286011D01*
X124594Y285277D02*
Y291638D01*
X120436Y282026D02*
X121344D01*
X122589Y275431D02*
X125430D01*
X122551Y275394D02*
X122589Y275431D01*
X125032Y302571D02*
Y306968D01*
X125000Y307000D02*
X125032Y306968D01*
X115000Y307000D02*
X119626Y311626D01*
X113034Y302374D02*
X122724D01*
X95000Y307000D02*
X99626Y311626D01*
X106916D02*
X109626Y308916D01*
Y305782D02*
X113034Y302374D01*
X109626Y305782D02*
Y308916D01*
X99626Y311626D02*
X106916D01*
X119672Y269526D02*
X122513D01*
X122551Y269488D01*
X122513Y273463D02*
X122551Y273425D01*
X116551Y265551D02*
X122551D01*
X114000Y263000D02*
X116551Y265551D01*
X117000Y261652D02*
X118931Y263583D01*
X122551D01*
X126314Y261652D02*
X129284Y264622D01*
X122589Y261652D02*
X126314D01*
X132736Y280520D02*
X133075D01*
X130087Y283169D02*
X132736Y280520D01*
X130087Y283169D02*
Y283268D01*
X132654Y275036D02*
X132843Y274848D01*
X132314Y275036D02*
X132654D01*
X130087Y277264D02*
X132314Y275036D01*
X130087Y271457D02*
X130136Y271408D01*
Y271309D02*
Y271408D01*
Y271309D02*
X132648Y268796D01*
X122551Y261614D02*
X122589Y261652D01*
X129270Y255450D02*
X129284Y255464D01*
X122551Y259646D02*
X128023D01*
X129378Y261000D01*
X128099Y255450D02*
X129270D01*
X126390Y253740D02*
X128099Y255450D01*
X130087Y277264D02*
Y277362D01*
X132648Y268373D02*
Y268796D01*
Y268373D02*
X132837Y268185D01*
X139000Y228272D02*
Y255000D01*
X122555Y249807D02*
X134008D01*
X127655Y252071D02*
X127922D01*
X122551Y247835D02*
X131540D01*
X131949Y247732D02*
X132673D01*
X131540Y247835D02*
X131590Y247784D01*
X127356Y251772D02*
X127655Y252071D01*
X122551Y253740D02*
X126390D01*
X131896Y247784D02*
X131949Y247732D01*
X131590Y247784D02*
X131896D01*
X132673Y247732D02*
X132861Y247543D01*
X122551Y251772D02*
X127356D01*
X116795Y257677D02*
X122551D01*
X116266Y258205D02*
X116795Y257677D01*
X116000Y258205D02*
X116266D01*
X55508Y253255D02*
X58922Y249841D01*
X21760Y230402D02*
Y232588D01*
X22396Y233224D01*
X16760Y232961D02*
X19220Y235421D01*
X23202D01*
X22396Y233224D02*
X23511D01*
X16760Y230402D02*
Y232961D01*
X27528Y234101D02*
Y234736D01*
X36760Y233333D02*
X37528Y234101D01*
X26760Y233333D02*
X27528Y234101D01*
X26760Y230402D02*
Y233333D01*
X32528Y234101D02*
Y234725D01*
X31760Y233333D02*
X32528Y234101D01*
X31760Y230402D02*
Y233333D01*
X7528Y197312D02*
X29299Y219084D01*
X14299Y196578D02*
X39299Y221578D01*
X36760Y230402D02*
Y233333D01*
X9299Y196578D02*
X34299Y221578D01*
X61921Y261614D02*
X68386D01*
X61921Y257677D02*
X65816D01*
X70807Y258071D02*
X70971Y258235D01*
X65816Y257677D02*
X66209Y258071D01*
X69878Y260601D02*
X73000D01*
X65769Y253736D02*
X66624Y252882D01*
X61959Y259683D02*
X65316D01*
X66624Y252882D02*
X68317D01*
X66209Y258071D02*
X70807D01*
X68317Y252882D02*
X68506Y252694D01*
X61925Y253736D02*
X65769D01*
X65316Y259683D02*
X65476Y259842D01*
X69120D02*
X69878Y260601D01*
X65476Y259842D02*
X69120D01*
X61921Y259646D02*
X61959Y259683D01*
X61921Y253740D02*
X61925Y253736D01*
X61921Y251772D02*
X61959Y251734D01*
X65266D01*
X67000Y250000D01*
X61884Y249841D02*
X61921Y249803D01*
X58922Y249841D02*
X61884D01*
X58423Y247835D02*
X61921D01*
X57886Y245866D02*
X61921D01*
X56380Y243898D02*
X61921D01*
X56085Y244193D02*
X56380Y243898D01*
X61921Y241929D02*
X68772D01*
X68169Y238420D02*
X68506Y238756D01*
X68772D01*
X65218Y238420D02*
X68169D01*
X56266Y239000D02*
X57227Y239961D01*
X56000Y239000D02*
X56266D01*
X57227Y239961D02*
X61921D01*
X61959Y238030D02*
X64828D01*
X65218Y238420D01*
X61921Y237992D02*
X61959Y238030D01*
X41880Y225120D02*
Y230281D01*
Y225120D02*
X42000Y225000D01*
X41760Y230402D02*
X41880Y230281D01*
X51531Y225394D02*
X51760Y225622D01*
Y230402D01*
X44000Y221279D02*
Y222814D01*
X19299Y196578D02*
X44000Y221279D01*
X48303Y220582D02*
Y222814D01*
X24299Y196578D02*
X48303Y220582D01*
X57886Y234055D02*
X61921D01*
X55535Y231705D02*
X57886Y234055D01*
X55535Y222814D02*
Y231705D01*
X29299Y196578D02*
X55535Y222814D01*
X7528Y196700D02*
Y197312D01*
X6760Y193000D02*
Y195932D01*
X7528Y196700D01*
X14299Y194079D02*
Y196578D01*
X9299Y189422D02*
Y196578D01*
X19299Y189040D02*
Y196578D01*
X14220Y190531D02*
Y194000D01*
X14299Y194079D01*
X17528Y188306D02*
X19220Y186613D01*
X14299Y189422D02*
Y190452D01*
X11760Y190068D02*
Y193000D01*
X15303Y188025D02*
Y188418D01*
X13532Y183669D02*
Y187684D01*
X12528Y188688D02*
Y189300D01*
X10756Y187954D02*
Y187965D01*
X15303Y188025D02*
X16760Y186568D01*
X13532Y183669D02*
X14299Y182901D01*
X12528Y188688D02*
X13532Y187684D01*
X11760Y179402D02*
Y186950D01*
X6760Y190068D02*
Y193000D01*
X16760Y190068D02*
X17528Y189300D01*
Y188306D02*
Y189300D01*
X7528Y188688D02*
X9221Y186995D01*
X14299Y189422D02*
X15303Y188418D01*
X6760Y190068D02*
X7528Y189300D01*
X14220Y190531D02*
X14299Y190452D01*
X9221Y164328D02*
Y186995D01*
X10756Y187954D02*
X11760Y186950D01*
X9299Y189422D02*
X10756Y187965D01*
X16760Y190068D02*
Y193000D01*
X11760Y190068D02*
X12528Y189300D01*
X7528Y188688D02*
Y189300D01*
X6760Y161867D02*
X9221Y164328D01*
X42000Y193000D02*
Y195559D01*
X49299Y175823D02*
Y185083D01*
X44221Y169046D02*
X45000Y168266D01*
X42764Y184437D02*
X44221Y182980D01*
X42024Y188865D02*
Y192736D01*
X44221Y169046D02*
Y182980D01*
X46760Y179402D02*
Y182334D01*
Y187622D02*
X49299Y185083D01*
X45992Y183101D02*
X46760Y182334D01*
X40992Y183101D02*
Y187391D01*
X45992Y183101D02*
Y183714D01*
X42024Y188865D02*
X42764Y188125D01*
X39988Y188395D02*
X40992Y187391D01*
X39988Y188395D02*
Y188733D01*
X41760Y193000D02*
X42024Y192736D01*
X42764Y184437D02*
Y188125D01*
X39299Y189422D02*
X39988Y188733D01*
X40992Y183101D02*
X41760Y182334D01*
X46760Y187622D02*
Y193000D01*
X44988Y184718D02*
Y188733D01*
X45000Y168000D02*
Y168266D01*
X44988Y184718D02*
X45992Y183714D01*
X41760Y179402D02*
Y182334D01*
X49299Y175823D02*
X50000Y175122D01*
Y165000D02*
Y175122D01*
X44299Y189422D02*
X44988Y188733D01*
X15007Y148791D02*
X21007D01*
X39220Y160000D02*
Y186657D01*
X34299Y189073D02*
Y196578D01*
X37023Y188854D02*
Y192736D01*
X36760Y193000D02*
X37023Y192736D01*
Y188854D02*
X39220Y186657D01*
X36760Y179402D02*
Y186612D01*
X34299Y189073D02*
X36760Y186612D01*
X32449Y189254D02*
Y189379D01*
X32528Y188339D02*
X34220Y186646D01*
X32528Y188339D02*
Y189175D01*
X32449Y189254D02*
X32528Y189175D01*
X31760Y190068D02*
Y193000D01*
X30756Y187605D02*
Y187965D01*
X29221Y189500D02*
X30756Y187965D01*
X31760Y190068D02*
X32449Y189379D01*
X30756Y187605D02*
X31760Y186601D01*
X29221Y189500D02*
Y194000D01*
X34220Y159000D02*
Y186646D01*
X31760Y179402D02*
Y186601D01*
X24220Y189130D02*
X26760Y186590D01*
Y179402D02*
Y186590D01*
X29221Y158000D02*
Y186635D01*
X27024Y188832D02*
X29221Y186635D01*
X24058Y183143D02*
X24220Y182980D01*
X22024Y188821D02*
X24058Y186787D01*
Y183143D02*
Y186787D01*
X26760Y193000D02*
X27024Y192736D01*
Y188832D02*
Y192736D01*
X19299Y189040D02*
X21760Y186579D01*
X22024Y188821D02*
Y192736D01*
X21760Y193000D02*
X22024Y192736D01*
X24220Y189130D02*
Y193000D01*
X21760Y179402D02*
Y186579D01*
X16760Y179402D02*
Y186568D01*
X6760Y142000D02*
Y161867D01*
X44299Y189422D02*
Y196578D01*
X56815Y207106D02*
X60119D01*
X54801Y210650D02*
X58651D01*
X55535Y208878D02*
X59385D01*
X44299Y196578D02*
X54760Y207039D01*
X56747D01*
X48303Y210582D02*
X54734D01*
X58651Y210650D02*
X68614Y220613D01*
X54734Y210582D02*
X54801Y210650D01*
X34299Y196578D02*
X48303Y210582D01*
X39299Y196578D02*
X51531Y208810D01*
X55468D01*
X55535Y208878D01*
X56747Y207039D02*
X56815Y207106D01*
X24299Y193079D02*
Y196578D01*
X24220Y193000D02*
X24299Y193079D01*
X29221Y194000D02*
X29299Y194079D01*
Y196578D01*
X57549Y205335D02*
X60853D01*
X70583Y220076D02*
Y225394D01*
X68614Y220613D02*
Y225394D01*
X59385Y208878D02*
X70583Y220076D01*
X74224Y218706D02*
Y222257D01*
X72453Y219440D02*
Y222991D01*
X60853Y205335D02*
X74224Y218706D01*
X60119Y207106D02*
X72453Y219440D01*
X72514Y225356D02*
X72551Y225394D01*
X72514Y223052D02*
Y225356D01*
X72453Y222991D02*
X72514Y223052D01*
X74482Y222566D02*
Y225356D01*
X74421Y222506D02*
X74482Y222566D01*
X74421Y222454D02*
Y222506D01*
X74482Y225356D02*
X74520Y225394D01*
X74224Y222257D02*
X74421Y222454D01*
X39299Y189422D02*
Y196578D01*
X78992Y230875D02*
Y230935D01*
X78457Y230340D02*
X78992Y230875D01*
X78457Y225394D02*
Y230340D01*
X113852Y225356D02*
X113890Y225394D01*
X113791Y222991D02*
X113852Y223052D01*
X111331Y218919D02*
X113791Y221380D01*
X113852Y223052D02*
Y225356D01*
X113791Y221380D02*
Y222991D01*
X111331Y206845D02*
Y218919D01*
X110500Y206015D02*
X111331Y206845D01*
X87736Y60987D02*
X110500Y83751D01*
Y206015D01*
X111884Y223052D02*
Y225356D01*
X111823Y222991D02*
X111884Y223052D01*
X109559Y219653D02*
X111823Y221917D01*
X109559Y207579D02*
Y219653D01*
X111884Y225356D02*
X111921Y225394D01*
X111823Y221917D02*
Y222991D01*
X108728Y206749D02*
X109559Y207579D01*
X85965Y61721D02*
X108728Y84485D01*
Y206749D01*
X109953Y223175D02*
Y225394D01*
X109854Y222454D02*
Y223077D01*
X107787Y208313D02*
Y220387D01*
X109854Y222454D01*
Y223077D02*
X109953Y223175D01*
X115858Y146276D02*
Y202405D01*
X121228Y207775D01*
Y222328D01*
X118163Y225394D02*
X121228Y222328D01*
X115858Y225394D02*
X118163D01*
X133081Y225573D02*
X139772Y218882D01*
X126390Y234055D02*
X133081Y227364D01*
X140016Y221839D02*
Y224984D01*
X139681Y225319D02*
X140016Y224984D01*
X122551Y234055D02*
X126390D01*
X133081Y225573D02*
Y227364D01*
X139772Y57677D02*
Y218882D01*
X139681Y225319D02*
Y227592D01*
X139000Y228272D02*
X139681Y227592D01*
X129398Y195531D02*
X136128D01*
X138000Y197403D02*
Y216000D01*
X136128Y195531D02*
X138000Y197403D01*
X115858Y146276D02*
X121228Y140905D01*
X123000Y200905D02*
Y223062D01*
X124772Y223678D02*
X129450Y219000D01*
X124772Y223678D02*
Y223796D01*
X118516Y230052D02*
X124772Y223796D01*
X116744Y229318D02*
X123000Y223062D01*
X129450Y219000D02*
X135000D01*
X118516Y230052D02*
Y234830D01*
X119672Y235986D02*
X122513D01*
X122551Y236024D01*
X116744Y229318D02*
Y235564D01*
X119135Y237954D01*
X118516Y234830D02*
X119672Y235986D01*
X119135Y237954D02*
X122513D01*
X122551Y237992D01*
X135000Y219000D02*
X138000Y216000D01*
X124772Y190905D02*
X129398Y195531D01*
X123000Y190905D02*
X124772D01*
X133000Y50906D02*
X139772Y57677D01*
X106957Y85219D02*
Y207482D01*
X107787Y208313D01*
X105185Y85952D02*
Y208216D01*
X101642Y89547D02*
Y209684D01*
X98098Y96004D02*
Y211152D01*
X73000Y60905D02*
X101642Y89547D01*
X102079Y210121D02*
Y225394D01*
X103413Y208950D02*
X104047Y209584D01*
X99870Y91233D02*
Y210418D01*
X80650Y63922D02*
X103413Y86686D01*
X74419Y65782D02*
X99870Y91233D01*
X82421Y63188D02*
X105185Y85952D01*
X99870Y210418D02*
X100110Y210658D01*
X105185Y208216D02*
X106016Y209047D01*
X104047Y209584D02*
Y225394D01*
X98142Y211195D02*
Y225394D01*
X98098Y211152D02*
X98142Y211195D01*
X106016Y209047D02*
Y225394D01*
X101642Y209684D02*
X102079Y210121D01*
X73000Y70906D02*
X98098Y96004D01*
X100110Y210658D02*
Y225394D01*
X84193Y62455D02*
X106957Y85219D01*
X103413Y86686D02*
Y208950D01*
X121228Y140905D02*
X123000D01*
X64906Y60905D02*
X69782Y65782D01*
X74419D01*
X63000Y60905D02*
X64906D01*
X80650Y62013D02*
Y63922D01*
X69398Y55532D02*
X74168D01*
X64772Y50906D02*
X69398Y55532D01*
X74168D02*
X80650Y62013D01*
X81169Y47522D02*
Y51558D01*
X87736Y58125D02*
Y60987D01*
X84193Y59593D02*
Y62455D01*
X73000Y50906D02*
X82421Y60327D01*
X77626Y53026D02*
X84193Y59593D01*
X85965Y58859D02*
Y61721D01*
X82421Y60327D02*
Y63188D01*
X79398Y52292D02*
X85965Y58859D01*
X81169Y51558D02*
X87736Y58125D01*
X84067Y221471D02*
X84325Y221729D01*
X84067Y221205D02*
Y221471D01*
X84325Y221729D02*
Y225356D01*
X84362Y225394D01*
X78457Y220556D02*
X80388Y222487D01*
Y225356D02*
X80425Y225394D01*
X80388Y222487D02*
Y225356D01*
X82394Y225394D02*
Y230000D01*
X113000Y60905D02*
Y77000D01*
Y51834D02*
Y60905D01*
X112543Y61362D02*
X113000Y60905D01*
X107740Y61362D02*
X112543D01*
X108528Y47362D02*
X113000Y51834D01*
X107740Y47362D02*
X108528D01*
X47023Y138158D02*
X53256Y131926D01*
X44299Y138377D02*
Y145500D01*
X47000Y142000D02*
X47023Y141976D01*
X44299Y138377D02*
X51484Y131192D01*
X47023Y138158D02*
Y141976D01*
X51484Y102502D02*
Y131192D01*
X53256Y99980D02*
Y131926D01*
X42000Y137442D02*
Y142000D01*
Y137442D02*
X49713Y129730D01*
X47941Y115256D02*
Y128500D01*
X37000Y139441D02*
Y142000D01*
Y139441D02*
X47941Y128500D01*
X49713Y110999D02*
Y129730D01*
X29722Y147020D02*
X42779D01*
X27906Y145203D02*
X29722Y147020D01*
X27000Y144426D02*
X27777Y145203D01*
X27906D01*
X12000Y142000D02*
Y145172D01*
X12528Y145700D01*
Y146312D01*
X15007Y148791D01*
X42779Y147020D02*
X44299Y145500D01*
X135079Y248736D02*
X135345D01*
X134008Y249807D02*
X135079Y248736D01*
X127955Y245829D02*
X128114Y245669D01*
X130809D01*
X122589Y245829D02*
X127955D01*
X130809Y245669D02*
X130908Y245571D01*
X122551Y245866D02*
X122589Y245829D01*
X128602Y243898D02*
X129378Y243122D01*
X129644D01*
X122551Y243898D02*
X128602D01*
X126234Y239543D02*
X126498D01*
X125855Y239923D02*
X126234Y239543D01*
X122551Y239961D02*
X122589Y239923D01*
X125855D01*
X122551Y249803D02*
X122555Y249807D01*
X86331Y113825D02*
Y225394D01*
X73411Y100906D02*
X86331Y113825D01*
X94205Y102110D02*
Y219040D01*
X74395Y85758D02*
X92236Y103600D01*
X74168Y95531D02*
X88299Y109663D01*
Y225394D01*
X74168Y75532D02*
X96173Y97537D01*
X73000Y90905D02*
X90268Y108173D01*
X96173Y97537D02*
Y225394D01*
X90268Y108173D02*
Y225394D01*
X92236Y103600D02*
Y219577D01*
X92236Y219577D01*
X94205Y219040D02*
X94205Y219040D01*
Y225394D01*
X73000Y80905D02*
X94205Y102110D01*
X92236Y219577D02*
Y225394D01*
X79398Y48256D02*
Y52292D01*
X77626Y48989D02*
Y53026D01*
X74168Y45531D02*
X77626Y48989D01*
Y43978D02*
X81169Y47522D01*
X77626Y38989D02*
Y43978D01*
X73000Y40905D02*
Y41858D01*
X79398Y48256D01*
X69398Y45531D02*
X74168D01*
X63333Y30906D02*
X66173Y33745D01*
X74916Y36279D02*
X77626Y38989D01*
X63000Y30906D02*
X63333D01*
X66173Y34078D02*
X68374Y36279D01*
X66173Y33745D02*
Y34078D01*
X68374Y36279D02*
X74916D01*
X63000Y120905D02*
X64772D01*
X63000Y110906D02*
X64772D01*
X63000Y100906D02*
X64772D01*
X73000D02*
X73411D01*
X52457Y99181D02*
Y99181D01*
X43591Y110906D02*
X47941Y115256D01*
X43458Y104744D02*
X49713Y110999D01*
X44888Y95906D02*
X51484Y102502D01*
X44181Y90905D02*
X52457Y99181D01*
X42409Y110906D02*
X43591D01*
X52457Y99181D02*
X53256Y99980D01*
X69398Y95531D02*
X74168D01*
X64772Y90905D02*
X69398Y95531D01*
X63000Y90905D02*
X64772D01*
X69853Y85758D02*
X74395D01*
X65000Y80905D02*
X69853Y85758D01*
X63000Y80905D02*
X65000D01*
X69398Y75532D02*
X74168D01*
X64772Y70906D02*
X69398Y75532D01*
X63000Y70906D02*
X64772D01*
X63000Y50906D02*
X64772D01*
Y40905D02*
X69398Y45531D01*
X63000Y40905D02*
X64772D01*
X43000Y90905D02*
X44181D01*
X42409D02*
X43000D01*
X33000Y95906D02*
X44888D01*
X43458Y101954D02*
Y104744D01*
X42409Y100906D02*
X43458Y101954D01*
X32409Y95906D02*
X33000D01*
D16*
X10000Y262447D02*
D03*
Y256147D02*
D03*
Y276047D02*
D03*
Y282347D02*
D03*
Y295307D02*
D03*
Y301606D02*
D03*
D17*
X136386Y283268D02*
D03*
X130087D02*
D03*
Y289173D02*
D03*
X136386D02*
D03*
X130087Y277362D02*
D03*
X136386D02*
D03*
X130087Y271457D02*
D03*
X136386D02*
D03*
D18*
X107740Y47362D02*
D03*
Y54842D02*
D03*
X100260Y51000D02*
D03*
X82827Y35740D02*
D03*
Y32000D02*
D03*
Y28260D02*
D03*
X91173Y35740D02*
D03*
Y28260D02*
D03*
X100260Y65000D02*
D03*
X107740Y68842D02*
D03*
Y61362D02*
D03*
D19*
X51236Y245866D02*
D03*
Y239961D02*
D03*
X133236Y258441D02*
D03*
Y264347D02*
D03*
Y234441D02*
D03*
Y240347D02*
D03*
X51236Y257047D02*
D03*
Y262953D02*
D03*
D20*
X122551Y265551D02*
D03*
Y232087D02*
D03*
Y234055D02*
D03*
Y236024D02*
D03*
Y237992D02*
D03*
Y239961D02*
D03*
Y241929D02*
D03*
Y243898D02*
D03*
Y245866D02*
D03*
Y247835D02*
D03*
Y249803D02*
D03*
Y251772D02*
D03*
Y253740D02*
D03*
Y255709D02*
D03*
Y257677D02*
D03*
Y259646D02*
D03*
Y261614D02*
D03*
Y263583D02*
D03*
Y267520D02*
D03*
Y269488D02*
D03*
Y271457D02*
D03*
Y273425D02*
D03*
Y275394D02*
D03*
Y277362D02*
D03*
Y279331D02*
D03*
X61921D02*
D03*
Y277362D02*
D03*
Y275394D02*
D03*
Y273425D02*
D03*
Y271457D02*
D03*
Y269488D02*
D03*
Y267520D02*
D03*
Y265551D02*
D03*
Y263583D02*
D03*
Y261614D02*
D03*
Y259646D02*
D03*
Y257677D02*
D03*
Y255709D02*
D03*
Y253740D02*
D03*
Y251772D02*
D03*
Y249803D02*
D03*
Y247835D02*
D03*
Y245866D02*
D03*
Y243898D02*
D03*
Y241929D02*
D03*
Y239961D02*
D03*
Y237992D02*
D03*
Y236024D02*
D03*
Y234055D02*
D03*
Y232087D02*
D03*
D21*
X68614Y225394D02*
D03*
X70583D02*
D03*
X72551D02*
D03*
X74520D02*
D03*
X76488D02*
D03*
X78457D02*
D03*
X80425D02*
D03*
X82394D02*
D03*
X84362D02*
D03*
X86331D02*
D03*
X88299D02*
D03*
X90268D02*
D03*
X92236D02*
D03*
X94205D02*
D03*
X96173D02*
D03*
X98142D02*
D03*
X100110D02*
D03*
X102079D02*
D03*
X104047D02*
D03*
X106016D02*
D03*
X107984D02*
D03*
X109953D02*
D03*
X111921D02*
D03*
X113890D02*
D03*
X115858D02*
D03*
Y286024D02*
D03*
X113890D02*
D03*
X111921D02*
D03*
X109953D02*
D03*
X107984D02*
D03*
X106016D02*
D03*
X104047D02*
D03*
X102079D02*
D03*
X100110D02*
D03*
X98142D02*
D03*
X96173D02*
D03*
X94205D02*
D03*
X92236D02*
D03*
X90268D02*
D03*
X88299D02*
D03*
X86331D02*
D03*
X84362D02*
D03*
X82394D02*
D03*
X80425D02*
D03*
X78457D02*
D03*
X76488D02*
D03*
X74520D02*
D03*
X72551D02*
D03*
X70583D02*
D03*
X68614D02*
D03*
D22*
X26150Y309000D02*
D03*
X19850D02*
D03*
D23*
X6760Y134000D02*
D03*
X12665D02*
D03*
X6578Y238000D02*
D03*
X12483D02*
D03*
X102079Y297394D02*
D03*
X96173D02*
D03*
X115947Y297400D02*
D03*
X121853D02*
D03*
X76488Y214394D02*
D03*
X82394D02*
D03*
X82047Y12000D02*
D03*
X87953D02*
D03*
D24*
X90000Y43000D02*
D03*
X82913D02*
D03*
X82457Y20906D02*
D03*
X89543D02*
D03*
D25*
X6760Y193000D02*
D03*
X11760D02*
D03*
X16760D02*
D03*
X21760D02*
D03*
X26760D02*
D03*
X31760D02*
D03*
X36760D02*
D03*
X41760D02*
D03*
X46760D02*
D03*
X51760D02*
D03*
X6760Y230402D02*
D03*
X11760D02*
D03*
X16760D02*
D03*
X21760D02*
D03*
X26760D02*
D03*
X31760D02*
D03*
X36760D02*
D03*
X41760D02*
D03*
X46760D02*
D03*
X51760D02*
D03*
Y179402D02*
D03*
X46760D02*
D03*
X41760D02*
D03*
X36760D02*
D03*
X31760D02*
D03*
X26760D02*
D03*
X21760D02*
D03*
X16760D02*
D03*
X11760D02*
D03*
X6760D02*
D03*
X51760Y142000D02*
D03*
X46760D02*
D03*
X41760D02*
D03*
X36760D02*
D03*
X31760D02*
D03*
X26760D02*
D03*
X21760D02*
D03*
X16760D02*
D03*
X11760D02*
D03*
X6760D02*
D03*
D26*
X46047Y294032D02*
D03*
X48016D02*
D03*
X49984D02*
D03*
X51953D02*
D03*
X46047Y297969D02*
D03*
X48016D02*
D03*
X49984D02*
D03*
X51953D02*
D03*
D44*
X39083Y311724D02*
X75213D01*
X126984Y236686D02*
X127197D01*
X127966Y235917D02*
X131858D01*
X127197Y236686D02*
X127966Y235917D01*
X131858D02*
X133236Y234539D01*
Y234441D02*
Y234539D01*
X115858Y286024D02*
Y297311D01*
Y283043D02*
Y286024D01*
X121672Y230379D02*
Y232087D01*
X61921Y255709D02*
X67049D01*
X56551D02*
X61921D01*
X78259Y306303D02*
X86331Y298232D01*
Y295644D02*
Y298232D01*
X78259Y306303D02*
Y308678D01*
X86331Y295644D02*
X88548Y293426D01*
X75213Y311724D02*
X78259Y308678D01*
X36358Y309000D02*
X39083Y311724D01*
X26150Y309000D02*
X36358D01*
X78850Y290945D02*
Y293505D01*
X78259Y294096D02*
X78850Y293505D01*
X78259Y294096D02*
Y294309D01*
X81438Y290618D02*
X82394Y289663D01*
X81438Y292153D02*
X81483Y292198D01*
X82394Y286024D02*
Y289663D01*
X81438Y290618D02*
Y292153D01*
X84362Y286024D02*
Y295638D01*
X73000Y307000D02*
X84362Y295638D01*
X78457Y286024D02*
Y290551D01*
X78850Y290945D01*
X76488Y286024D02*
Y292198D01*
X4638Y287807D02*
Y293835D01*
Y277022D02*
Y287807D01*
X10000Y282347D02*
Y282445D01*
X4638Y287807D02*
X10000Y282445D01*
X5000Y296508D02*
X10000Y301508D01*
X5000Y294197D02*
Y296508D01*
X4638Y293835D02*
X5000Y294197D01*
X4638Y277022D02*
X5000Y276659D01*
Y267545D02*
Y276659D01*
X10000Y262447D02*
Y262545D01*
X5000Y267545D02*
X10000Y262545D01*
X9039Y240539D02*
X13000Y244501D01*
X8347Y239378D02*
X9039Y240070D01*
X7956Y239378D02*
X8347D01*
X6578Y238000D02*
X7956Y239378D01*
X38284Y294032D02*
X46047D01*
X13000Y294925D02*
X16406Y298331D01*
X46047Y294032D02*
X48016D01*
X13000Y244501D02*
Y294925D01*
X48016Y294032D02*
X49984D01*
X9039Y240070D02*
Y240539D01*
X49984Y294032D02*
X51953D01*
X33985Y298331D02*
X38284Y294032D01*
X16406Y298331D02*
X33985D01*
X109496Y313496D02*
X115000Y319000D01*
X91496Y313496D02*
X109496D01*
X85000Y307000D02*
X91496Y313496D01*
X104047Y281000D02*
Y286024D01*
Y291118D01*
X102079Y293087D02*
X104047Y291118D01*
X102079Y293087D02*
Y297394D01*
X115858Y297311D02*
X115947Y297400D01*
X100602Y298772D02*
X101980Y297394D01*
X100602Y298772D02*
Y298870D01*
X100000Y299472D02*
Y304000D01*
X101980Y297394D02*
X102079D01*
X100000Y299472D02*
X100602Y298870D01*
X113758Y281500D02*
X113909Y281650D01*
X114466D01*
X115858Y283043D01*
X66074Y263583D02*
X66370Y263878D01*
X56803Y263583D02*
X61921D01*
X66074D01*
X51760Y142000D02*
Y144559D01*
X85000Y303000D02*
Y307000D01*
X92476Y295524D02*
X94205D01*
X85000Y303000D02*
X92476Y295524D01*
X119672Y291865D02*
X121853Y294046D01*
X119672Y286061D02*
Y291865D01*
X121853Y294046D02*
Y297400D01*
X117000Y267815D02*
X117295Y267520D01*
X130161D01*
X125532Y255709D02*
X127599Y257776D01*
X128798D01*
X128849Y257826D01*
X132622D01*
X133236Y258441D01*
X122551Y255709D02*
X125532D01*
X118502D02*
X122551D01*
X130161Y267520D02*
X133236Y264445D01*
X118207Y255413D02*
X118502Y255709D01*
X117994Y255413D02*
X118207D01*
X55567Y262347D02*
X56803Y263583D01*
X51842Y262347D02*
X55567D01*
X67049Y255709D02*
X67147Y255807D01*
X51236Y262953D02*
X51842Y262347D01*
Y256441D02*
X55819D01*
X51236Y257047D02*
X51842Y256441D01*
X55819D02*
X56551Y255709D01*
X55075Y236024D02*
X61921D01*
X65976D01*
X66000Y236000D01*
X51236Y239862D02*
X55075Y236024D01*
X51236Y239862D02*
Y239961D01*
X118207Y241929D02*
X122551D01*
X61921Y232087D02*
X66000D01*
X80425Y281961D02*
Y286024D01*
X68614Y281386D02*
Y286024D01*
X94205D02*
Y295524D01*
Y281496D02*
Y286024D01*
X76488Y225394D02*
Y232087D01*
X121672D02*
X122551D01*
X100000Y62213D02*
X100260Y62473D01*
X100000Y62000D02*
Y62213D01*
X100260Y62473D02*
Y65000D01*
X97000Y50906D02*
X97047Y50953D01*
X100213D01*
X76488Y221928D02*
Y225394D01*
X76095Y221534D02*
X76488Y221928D01*
X76095Y218850D02*
Y221534D01*
Y218850D02*
X76488Y218456D01*
Y214394D02*
Y218456D01*
X33591Y65905D02*
X36968Y62528D01*
Y59320D02*
X40288Y56000D01*
X60000D01*
X32409Y65905D02*
X33591D01*
X36968Y59320D02*
Y62528D01*
Y49320D02*
Y52528D01*
X32409Y55905D02*
X33591D01*
X36968Y52528D01*
Y49320D02*
X40288Y46000D01*
X60000D01*
X100213Y50953D02*
X100260Y51000D01*
X107984Y230163D02*
X108000Y230179D01*
X107984Y225394D02*
Y230163D01*
X94205Y295524D02*
X96075Y297394D01*
X96173D01*
X127496Y241929D02*
X129079Y240347D01*
X122551Y241929D02*
X127496D01*
X129079Y240347D02*
X133236D01*
Y264347D02*
Y264445D01*
X42435Y120931D02*
Y124961D01*
X42409Y120905D02*
X42435Y120931D01*
X32000Y135396D02*
Y142000D01*
Y135396D02*
X42435Y124961D01*
D45*
X51827Y246457D02*
X54094D01*
X51236Y245866D02*
X51827Y246457D01*
X10000Y301606D02*
Y301705D01*
Y301508D02*
Y301606D01*
X25295Y317000D02*
X43000D01*
X10000Y301705D02*
X25295Y317000D01*
X74000D02*
X84000Y307000D01*
X73000Y317000D02*
X74000D01*
X84000Y307000D02*
X85000D01*
X63000Y317000D02*
X73000D01*
X53000D02*
X63000D01*
X43000D02*
X53000D01*
X3807Y206963D02*
X6760Y209916D01*
X3807Y189218D02*
Y206963D01*
X5000Y187839D02*
Y188025D01*
Y187839D02*
X6760Y186080D01*
X3807Y189218D02*
X5000Y188025D01*
X3807Y162116D02*
X5000Y163309D01*
X3807Y136854D02*
X6661Y134000D01*
X3807Y136854D02*
Y162116D01*
X5000Y166422D02*
X6760Y168182D01*
X5000Y163309D02*
Y166422D01*
X117000Y206749D02*
Y220071D01*
X113594Y203343D02*
X117000Y206749D01*
X68488Y281386D02*
X68614D01*
X63850Y286024D02*
X68488Y281386D01*
X76488Y273996D02*
Y274748D01*
X66370Y263878D02*
X76488Y273996D01*
X15607Y130137D02*
X20000Y125744D01*
X8827Y131290D02*
Y132032D01*
Y131290D02*
X9980Y130137D01*
X15607D01*
X6661Y134000D02*
X6858D01*
X8827Y132032D01*
X20000Y20731D02*
Y125744D01*
X10598Y135968D02*
X12567Y134000D01*
X10598Y135968D02*
Y136648D01*
X13055Y151055D02*
X45264D01*
X51760Y144559D01*
X12000Y150000D02*
X13055Y151055D01*
X12567Y134000D02*
X12665D01*
X82047Y20906D02*
Y21985D01*
X6760Y179402D02*
Y186080D01*
Y179383D02*
Y179402D01*
X20000Y20731D02*
X34353Y6378D01*
X51760Y193000D02*
X55094D01*
X12483Y238000D02*
X16760D01*
X6684Y230477D02*
Y237894D01*
X6578Y238000D02*
X6684Y237894D01*
Y230477D02*
X6760Y230402D01*
X87638Y274748D02*
X94000D01*
X94205Y275000D02*
Y281496D01*
X109364Y267815D02*
X117000D01*
X101433Y267520D02*
X109069D01*
X109364Y267815D01*
X79779Y245866D02*
X92957Y259043D01*
X72551Y238638D02*
X79779Y245866D01*
X67000Y247000D02*
X68134Y245866D01*
X79779D01*
X66000Y232087D02*
X72551Y238638D01*
Y232449D02*
X73000Y232000D01*
X72551Y232449D02*
Y238638D01*
X92957Y245222D02*
Y259043D01*
Y245222D02*
X108000Y230179D01*
X92957Y259043D02*
X101433Y267520D01*
X92957Y259043D02*
X101093D01*
X118207Y241929D01*
X76488Y274748D02*
X87638D01*
X75252D02*
X76488D01*
X68614Y281386D02*
X75252Y274748D01*
X80425Y281961D02*
X87638Y274748D01*
X94205D02*
X101433Y267520D01*
X6760Y209916D02*
Y230402D01*
X6578Y179201D02*
X6760Y179383D01*
X6578Y179201D02*
X6760Y179019D01*
Y168182D02*
Y179019D01*
X34353Y6378D02*
X47027D01*
X51554Y10905D01*
X63000D01*
X59063Y198740D02*
X61228Y200905D01*
X63000D01*
X53480Y146280D02*
X55000D01*
X51760Y144559D02*
X53480Y146280D01*
X113594Y83644D02*
Y203343D01*
X90000Y60049D02*
X113594Y83644D01*
X90000Y43000D02*
Y60049D01*
X104000Y55000D02*
Y65890D01*
Y35777D02*
Y55000D01*
X107583D02*
X107740Y54842D01*
X104000Y55000D02*
X107583D01*
X93354Y25307D02*
X93530D01*
X104000Y35777D01*
X89543Y20906D02*
Y21496D01*
X93354Y25307D01*
X104000Y65890D02*
X106953Y68842D01*
X107740D01*
X90587Y35937D02*
X90784Y35740D01*
X91173D01*
X90587Y35937D02*
Y42413D01*
X90000Y43000D02*
X90587Y42413D01*
X86567Y27557D02*
X88355Y25769D01*
Y22094D02*
X89543Y20906D01*
X88355Y22094D02*
Y25769D01*
X86567Y27557D02*
Y34171D01*
X82457Y21985D02*
Y28063D01*
X82653Y28260D02*
X82827D01*
X82457Y28063D02*
X82653Y28260D01*
X80470Y34953D02*
X81252D01*
X82913Y42409D02*
X86567Y38756D01*
Y34171D02*
Y38756D01*
X85183Y32787D02*
X86567Y34171D01*
X81252Y34953D02*
X82039Y35740D01*
X84402Y32787D02*
X85183D01*
X82039Y35740D02*
X82827D01*
X79087Y24946D02*
Y33569D01*
X83614Y32000D02*
X84402Y32787D01*
X82827Y32000D02*
X83614D01*
X82913Y42409D02*
Y43000D01*
X79087Y33569D02*
X80470Y34953D01*
X79087Y24946D02*
X82047Y21985D01*
X123000Y180905D02*
X133000D01*
X123000Y170905D02*
X133000D01*
X123000Y160906D02*
X133000D01*
X123000Y150906D02*
X133000D01*
X123000Y140905D02*
X133000D01*
X123000Y130905D02*
X133000D01*
X123000Y120905D02*
X133000D01*
X123000Y110906D02*
X133000D01*
X123000Y100906D02*
X133000D01*
X123000Y90905D02*
X133000D01*
X123000Y80905D02*
X133000D01*
X123000Y70906D02*
X133000D01*
X123000Y60905D02*
X133000D01*
X123000Y50906D02*
X133000D01*
X123000Y40905D02*
X133000D01*
X123000Y30906D02*
X133000D01*
X123000Y20906D02*
X133000D01*
X123000Y10905D02*
X133000D01*
D46*
X73000Y317000D02*
D03*
Y307000D02*
D03*
X63000Y317000D02*
D03*
Y307000D02*
D03*
X53000Y317000D02*
D03*
Y307000D02*
D03*
X43000Y317000D02*
D03*
X125000Y319000D02*
D03*
X115000D02*
D03*
X85000Y307000D02*
D03*
X95000D02*
D03*
X105000D02*
D03*
X115000D02*
D03*
X125000D02*
D03*
X73000Y10905D02*
D03*
Y20906D02*
D03*
Y30906D02*
D03*
Y40905D02*
D03*
Y50906D02*
D03*
Y130905D02*
D03*
Y140905D02*
D03*
Y150906D02*
D03*
Y160906D02*
D03*
Y170905D02*
D03*
Y180905D02*
D03*
Y190905D02*
D03*
Y120905D02*
D03*
Y110906D02*
D03*
Y100906D02*
D03*
Y90905D02*
D03*
Y80905D02*
D03*
Y70906D02*
D03*
Y60905D02*
D03*
X133000Y10905D02*
D03*
Y20906D02*
D03*
Y30906D02*
D03*
Y40905D02*
D03*
Y50906D02*
D03*
Y130905D02*
D03*
Y140905D02*
D03*
Y150906D02*
D03*
Y160906D02*
D03*
Y170905D02*
D03*
Y180905D02*
D03*
Y190905D02*
D03*
Y120905D02*
D03*
Y110906D02*
D03*
Y100906D02*
D03*
Y90905D02*
D03*
Y80905D02*
D03*
Y70906D02*
D03*
Y60905D02*
D03*
D47*
X43000Y307000D02*
D03*
X135000Y319000D02*
D03*
Y307000D02*
D03*
D48*
X19299Y284197D02*
D03*
X29299Y289197D02*
D03*
Y249197D02*
D03*
X19299Y254197D02*
D03*
X29299Y259197D02*
D03*
X19299Y264197D02*
D03*
X29299Y269197D02*
D03*
X19299Y274197D02*
D03*
X29299Y279197D02*
D03*
X19299Y294197D02*
D03*
X32409Y125906D02*
D03*
X42409Y110906D02*
D03*
X32409Y105905D02*
D03*
X42409Y100906D02*
D03*
X32409Y95906D02*
D03*
X42409Y90905D02*
D03*
X32409Y85905D02*
D03*
X42409Y80905D02*
D03*
Y120905D02*
D03*
X32409Y115905D02*
D03*
X42409Y70906D02*
D03*
X32409Y65905D02*
D03*
X42409Y60905D02*
D03*
X32409Y75906D02*
D03*
Y55905D02*
D03*
X42409Y40905D02*
D03*
X32409Y35906D02*
D03*
X42409Y30906D02*
D03*
X32409Y25905D02*
D03*
X42409Y20906D02*
D03*
X32409Y15905D02*
D03*
X42409Y10905D02*
D03*
Y50906D02*
D03*
X32409Y45906D02*
D03*
D49*
X123000Y10905D02*
D03*
Y20906D02*
D03*
Y30906D02*
D03*
Y40905D02*
D03*
Y50906D02*
D03*
Y60905D02*
D03*
Y70906D02*
D03*
Y80905D02*
D03*
Y90905D02*
D03*
Y100906D02*
D03*
Y110906D02*
D03*
Y120905D02*
D03*
Y130905D02*
D03*
Y140905D02*
D03*
Y150906D02*
D03*
Y160906D02*
D03*
Y170905D02*
D03*
Y180905D02*
D03*
Y190905D02*
D03*
Y200905D02*
D03*
X63000Y10905D02*
D03*
Y20906D02*
D03*
Y30906D02*
D03*
Y40905D02*
D03*
Y50906D02*
D03*
Y60905D02*
D03*
Y70906D02*
D03*
Y80905D02*
D03*
Y90905D02*
D03*
Y100906D02*
D03*
Y110906D02*
D03*
Y120905D02*
D03*
Y130905D02*
D03*
Y140905D02*
D03*
Y150906D02*
D03*
Y160906D02*
D03*
Y170905D02*
D03*
Y180905D02*
D03*
Y190905D02*
D03*
D50*
Y200905D02*
D03*
D51*
X73000D02*
D03*
X133000D02*
D03*
D52*
X80059Y130905D02*
D03*
X82000Y140905D02*
D03*
Y151000D02*
D03*
X94000Y60000D02*
D03*
X104000Y19000D02*
D03*
X53000D02*
D03*
X23000Y9000D02*
D03*
X58000Y217000D02*
D03*
X18000Y220000D02*
D03*
X22000Y249000D02*
D03*
X9000Y310000D02*
D03*
X29299Y303000D02*
D03*
X102500Y252551D02*
D03*
X102000Y259209D02*
D03*
X95841Y265042D02*
D03*
X84000Y259597D02*
D03*
X82041Y251192D02*
D03*
X94159Y248000D02*
D03*
X134385Y210000D02*
D03*
X88548Y293426D02*
D03*
X7000Y292000D02*
D03*
X81483Y292198D02*
D03*
X78259Y294309D02*
D03*
X76488Y292198D02*
D03*
X5000Y250000D02*
D03*
X7000Y278000D02*
D03*
X44199Y264910D02*
D03*
X46990Y264187D02*
D03*
X47416Y261079D02*
D03*
X47414Y258289D02*
D03*
X117000Y220071D02*
D03*
X109497Y292300D02*
D03*
X109000Y303000D02*
D03*
X134818Y296567D02*
D03*
X131436Y292815D02*
D03*
X100000Y304000D02*
D03*
X63850Y286024D02*
D03*
X136386Y294014D02*
D03*
X118529Y277362D02*
D03*
X113758Y281500D02*
D03*
X69120Y271457D02*
D03*
X71000Y264000D02*
D03*
X10598Y136648D02*
D03*
X38000Y154000D02*
D03*
X19220Y156264D02*
D03*
X24220D02*
D03*
X12000Y150000D02*
D03*
X133042Y286456D02*
D03*
X138244Y275096D02*
D03*
X138228Y268022D02*
D03*
X55094Y193000D02*
D03*
X55819Y244193D02*
D03*
X16760Y238000D02*
D03*
X94000Y275000D02*
D03*
X119672Y286061D02*
D03*
X117000Y261652D02*
D03*
X114000Y263000D02*
D03*
X129284Y264622D02*
D03*
X133075Y280520D02*
D03*
X132843Y274848D02*
D03*
X129284Y255464D02*
D03*
X129378Y261000D02*
D03*
X132837Y268185D02*
D03*
X139000Y255000D02*
D03*
X117994Y255413D02*
D03*
X127922Y252071D02*
D03*
X116000Y258205D02*
D03*
X47496Y255519D02*
D03*
X67147Y255807D02*
D03*
X68506Y252694D02*
D03*
X70971Y258235D02*
D03*
X73000Y260601D02*
D03*
X67000Y250000D02*
D03*
Y247000D02*
D03*
X54094Y246457D02*
D03*
X68772Y241929D02*
D03*
Y238756D02*
D03*
X66000Y236000D02*
D03*
X42000Y225000D02*
D03*
X56000Y239000D02*
D03*
X51531Y225394D02*
D03*
X44000Y222814D02*
D03*
X48303D02*
D03*
X73000Y232000D02*
D03*
X45000Y168000D02*
D03*
X50000Y165000D02*
D03*
X39220Y160000D02*
D03*
X34220Y159000D02*
D03*
X29221Y158000D02*
D03*
X55000Y146280D02*
D03*
X104047Y281000D02*
D03*
X76488Y232087D02*
D03*
X78992Y230935D02*
D03*
X140016Y221839D02*
D03*
X121672Y230379D02*
D03*
X100000Y62000D02*
D03*
X97000Y50906D02*
D03*
X84067Y217258D02*
D03*
Y221205D02*
D03*
X78457Y220556D02*
D03*
X82394Y230000D02*
D03*
X113000Y77000D02*
D03*
X60000Y56000D02*
D03*
Y46000D02*
D03*
X108000Y230179D02*
D03*
X126984Y236686D02*
D03*
X135345Y248736D02*
D03*
X130908Y245571D02*
D03*
X132861Y247543D02*
D03*
X129644Y243122D02*
D03*
X126498Y239543D02*
D03*
D53*
X88051Y5000D02*
D03*
M02*
