M48
;Layer_Color=9474304
;FILE_FORMAT=2:5
INCH,TZ
;TYPE=PLATED
T1F00S00C0.01181
T2F00S00C0.02362
T3F00S00C0.03150
T4F00S00C0.03937
%
T01
X33276Y5968
X37402Y25905
X48228Y15748
X55000Y11811
X61024Y10827
X70000
X74803Y9843
X70000Y25571
X62992Y24606
X101535Y37402
X123031Y20669
X128134Y22570
X125000Y8858
X13100Y5900
X8858Y10738
X4740Y74803
X14562Y94488
X39041Y91436
X50492Y101378
X62008Y97171
X68307Y95467
X74385Y97171
X79420Y102812
X98287Y110236
X127461Y110586
X128134Y95906
X127923Y90521
X128134Y87598
Y77268
Y49213
X95866Y50906
X88583Y56959
Y44347
X99567Y40905
X70467
X70866Y68859
X67913Y66929
X68071Y76471
X80000Y69983
X39464Y53799
X21914Y53569
X62303Y157185
X61861Y174213
Y180118
Y183928
Y193325
X51052Y192648
X51083Y182008
X98287Y160433
X107283Y160531
X110236Y131890
X127953Y195866
X128937Y228346
X108169Y223284
X99410Y249016
X89567Y252165
X90551Y257326
X91535Y260111
X94439Y261551
X95473Y266276
X106087Y266216
X109316Y266189
X113091Y266185
X116142Y274606
X118405Y278304
X118498Y281413
Y284169
Y286925
Y289681
X107283Y284449
X105315Y286417
X95472Y282776
X93504Y280512
X91535Y277746
X91837Y287397
X89211Y296260
X94252Y299900
X98899Y303693
X100627Y309074
X112975Y304997
X79724Y297244
Y283465
X69646Y289173
X64331Y292323
X61066Y278896
X62992Y274606
X51481Y269933
X46260Y266732
X45400Y262671
X45322Y256844
X35647Y261268
X32971Y260610
X33917Y267915
X32235Y270099
X33352Y276438
Y281496
X33134Y287254
X25349Y295721
X29236Y301194
X27559Y314961
X25787Y323081
X41339Y320866
Y312008
X49709Y287650
X46260Y282480
X47244Y278543
X59055Y252953
X66299Y254921
Y260175
X70866Y257874
X76142Y259171
X78740Y255906
X79577Y251867
X75921Y242629
X73839Y240556
X71212Y237968
X70104Y235213
X70158Y232458
X58955Y229742
X58888Y226607
X55000Y232458
X48583Y228484
X45276Y229742
X51083Y221358
X62303Y219599
X62067Y241627
X59528Y240421
X36516Y235236
X31201Y248544
X77756Y264764
X107219Y257326
X78740Y313976
X51047Y202654
X14764Y236221
X18504Y245866
X8400Y314300
X11811Y345472
T02
X119095Y14764
X116437Y224519
X66299Y266477
X69882Y277559
T03
X55000Y25905
Y35906
X50000Y30906
X60000
Y20906
X70000
Y30906
X80000
Y20906
X90000
Y30906
X100000
Y20906
X110000
X115000Y25905
Y35906
X120000Y30906
X110000
X17638Y47992
Y57992
Y67992
Y77992
Y87992
Y116220
Y126221
Y136221
Y146221
Y156220
Y166220
Y176221
Y186221
Y196221
X27638Y191220
Y181220
Y171221
Y161221
Y151221
Y141220
Y131220
Y121221
Y111221
Y82992
Y72992
Y62992
Y52992
Y42992
X50000Y40905
X55000Y45906
Y55905
Y65905
Y75906
Y85905
Y95906
Y105905
Y115905
Y125906
Y135906
Y145905
Y155905
Y165905
Y175906
Y185906
Y195905
X115000
Y185906
Y175906
Y165905
Y155905
Y145905
Y135906
Y125906
Y115905
Y105905
Y95906
Y85905
Y75906
Y65905
Y55905
Y45906
X120000Y40905
X110000
Y50906
X120000
Y60905
X110000
Y70906
X120000
Y80905
X110000
Y90905
X100000
Y80905
X90000
X80000
Y90905
X70000
Y80905
X60000
Y90905
X50000Y80905
Y70906
X60000
Y60905
X50000
Y50906
X60000
Y40905
X90000Y90905
X115000Y205906
Y215905
X55000
Y205906
X27638Y201220
Y211221
Y221220
X17638Y226220
Y216220
Y206221
T04
X20669Y254921
Y264921
Y274921
Y288532
Y298532
Y308532
Y318532
Y328532
X102378Y330102
X109449Y323031
X116521Y315960
X123592Y308889
X95307Y337173
X88236Y344244
M30
