G04*
G04 #@! TF.GenerationSoftware,Altium Limited,Altium Designer,21.0.9 (235)*
G04*
G04 Layer_Physical_Order=1*
G04 Layer_Color=255*
%FSLAX25Y25*%
%MOIN*%
G70*
G04*
G04 #@! TF.SameCoordinates,E6591328-2649-4853-B355-67F2A4BCD0D5*
G04*
G04*
G04 #@! TF.FilePolarity,Positive*
G04*
G01*
G75*
%ADD10C,0.00984*%
%ADD16R,0.03937X0.04134*%
%ADD17O,0.05512X0.01181*%
%ADD18O,0.01181X0.05512*%
%ADD19R,0.03543X0.03740*%
G04:AMPARAMS|DCode=20|XSize=31.5mil|YSize=29.53mil|CornerRadius=7.38mil|HoleSize=0mil|Usage=FLASHONLY|Rotation=0.000|XOffset=0mil|YOffset=0mil|HoleType=Round|Shape=RoundedRectangle|*
%AMROUNDEDRECTD20*
21,1,0.03150,0.01476,0,0,0.0*
21,1,0.01673,0.02953,0,0,0.0*
1,1,0.01476,0.00837,-0.00738*
1,1,0.01476,-0.00837,-0.00738*
1,1,0.01476,-0.00837,0.00738*
1,1,0.01476,0.00837,0.00738*
%
%ADD20ROUNDEDRECTD20*%
G04:AMPARAMS|DCode=21|XSize=23.62mil|YSize=39.37mil|CornerRadius=5.91mil|HoleSize=0mil|Usage=FLASHONLY|Rotation=90.000|XOffset=0mil|YOffset=0mil|HoleType=Round|Shape=RoundedRectangle|*
%AMROUNDEDRECTD21*
21,1,0.02362,0.02756,0,0,90.0*
21,1,0.01181,0.03937,0,0,90.0*
1,1,0.01181,0.01378,0.00591*
1,1,0.01181,0.01378,-0.00591*
1,1,0.01181,-0.01378,-0.00591*
1,1,0.01181,-0.01378,0.00591*
%
%ADD21ROUNDEDRECTD21*%
%ADD22R,0.04134X0.03937*%
G04:AMPARAMS|DCode=23|XSize=45.28mil|YSize=57.09mil|CornerRadius=11.32mil|HoleSize=0mil|Usage=FLASHONLY|Rotation=180.000|XOffset=0mil|YOffset=0mil|HoleType=Round|Shape=RoundedRectangle|*
%AMROUNDEDRECTD23*
21,1,0.04528,0.03445,0,0,180.0*
21,1,0.02264,0.05709,0,0,180.0*
1,1,0.02264,-0.01132,0.01722*
1,1,0.02264,0.01132,0.01722*
1,1,0.02264,0.01132,-0.01722*
1,1,0.02264,-0.01132,-0.01722*
%
%ADD23ROUNDEDRECTD23*%
%ADD24O,0.07480X0.02362*%
G04:AMPARAMS|DCode=25|XSize=23.62mil|YSize=39.37mil|CornerRadius=5.91mil|HoleSize=0mil|Usage=FLASHONLY|Rotation=180.000|XOffset=0mil|YOffset=0mil|HoleType=Round|Shape=RoundedRectangle|*
%AMROUNDEDRECTD25*
21,1,0.02362,0.02756,0,0,180.0*
21,1,0.01181,0.03937,0,0,180.0*
1,1,0.01181,-0.00591,0.01378*
1,1,0.01181,0.00591,0.01378*
1,1,0.01181,0.00591,-0.01378*
1,1,0.01181,-0.00591,-0.01378*
%
%ADD25ROUNDEDRECTD25*%
%ADD26R,0.01260X0.01968*%
%ADD44C,0.01181*%
%ADD45C,0.01968*%
%ADD46R,0.06693X0.06693*%
%ADD47C,0.06693*%
%ADD48P,0.09465X4X360.0*%
%ADD49R,0.05512X0.05512*%
%ADD50C,0.05512*%
%ADD51O,0.07874X0.05512*%
%ADD52C,0.01968*%
%ADD53C,0.03937*%
G36*
X8900Y312359D02*
X9524Y312618D01*
X9776Y312870D01*
X10277Y312663D01*
Y305115D01*
X10376Y304615D01*
X10659Y304192D01*
X12795Y302055D01*
Y295101D01*
X12895Y294602D01*
X13178Y294179D01*
X16968Y290388D01*
X16817Y290128D01*
X16535Y289076D01*
Y287988D01*
X16817Y286936D01*
X17361Y285994D01*
X18131Y285224D01*
X19074Y284680D01*
X20125Y284398D01*
X21214D01*
X22265Y284680D01*
X23208Y285224D01*
X23437Y285454D01*
X23980Y285289D01*
X23999Y285192D01*
X19659Y280852D01*
X16752D01*
X16253Y280752D01*
X15830Y280470D01*
X6567Y271207D01*
X6105Y271398D01*
Y313349D01*
X6605Y313449D01*
X6718Y313176D01*
X7276Y312618D01*
X7900Y312359D01*
Y314300D01*
X8900D01*
Y312359D01*
D02*
G37*
G36*
X16339Y352327D02*
X81695D01*
X83476Y352151D01*
X85231Y351802D01*
X86944Y351283D01*
X88597Y350598D01*
X90175Y349754D01*
X91663Y348760D01*
X93047Y347625D01*
X93680Y346992D01*
X93680Y346992D01*
X93680Y346992D01*
X126520Y314179D01*
X127152Y313547D01*
X128288Y312163D01*
X129282Y310675D01*
X130125Y309097D01*
X130810Y307444D01*
X131330Y305731D01*
X131679Y303976D01*
X131854Y302195D01*
Y301300D01*
Y291009D01*
X131393Y290818D01*
X119957Y302253D01*
X119534Y302536D01*
X119035Y302635D01*
X113764D01*
X113665Y303135D01*
X114099Y303315D01*
X114657Y303873D01*
X114916Y304498D01*
X111035D01*
X111293Y303873D01*
X111851Y303315D01*
X112286Y303135D01*
X112186Y302635D01*
X103221D01*
X102717Y302736D01*
X100870D01*
X100592Y303151D01*
X100670Y303341D01*
Y304045D01*
X100401Y304696D01*
X99902Y305195D01*
X99251Y305465D01*
X98546D01*
X97895Y305195D01*
X97397Y304696D01*
X97291Y304442D01*
X97112Y304406D01*
X96689Y304123D01*
X95593Y303028D01*
X95310Y302605D01*
X95211Y302105D01*
Y301871D01*
X94795Y301593D01*
X94604Y301672D01*
X93900D01*
X93248Y301402D01*
X92750Y300904D01*
X92480Y300253D01*
Y299548D01*
X92750Y298897D01*
X93026Y298621D01*
Y296948D01*
X93125Y296448D01*
X93408Y296025D01*
X94930Y294503D01*
X95353Y294220D01*
X95853Y294121D01*
X96617D01*
X97013Y293621D01*
X96981Y293457D01*
X97013Y293293D01*
X96617Y292793D01*
X94523D01*
X90983Y296333D01*
Y296612D01*
X90713Y297263D01*
X90215Y297762D01*
X89564Y298031D01*
X88859D01*
X88208Y297762D01*
X87709Y297263D01*
X87439Y296612D01*
Y295907D01*
X87709Y295256D01*
X88208Y294758D01*
X88859Y294488D01*
X89138D01*
X93060Y290566D01*
X93484Y290283D01*
X93983Y290184D01*
X96386D01*
X96521Y290020D01*
X100551D01*
X104239D01*
X104215Y290140D01*
X103863Y290666D01*
X103837Y290684D01*
X104015Y290951D01*
X104121Y291488D01*
X104089Y291652D01*
X104486Y292152D01*
X120767D01*
X126534Y286385D01*
Y284752D01*
X126072Y284560D01*
X122356Y288277D01*
X122355Y288277D01*
X120217Y290415D01*
X120071Y290513D01*
X120000Y290685D01*
X119501Y291183D01*
X118850Y291453D01*
X118145D01*
X117494Y291183D01*
X116996Y290685D01*
X116726Y290033D01*
Y289329D01*
X116996Y288678D01*
X117370Y288303D01*
X116996Y287929D01*
X116726Y287278D01*
Y286573D01*
X116996Y285922D01*
X117370Y285547D01*
X116996Y285173D01*
X116726Y284522D01*
Y283817D01*
X116996Y283166D01*
X117370Y282791D01*
X116996Y282417D01*
X116726Y281766D01*
Y281061D01*
X116996Y280410D01*
X117174Y280231D01*
X117399Y279812D01*
X117174Y279578D01*
X116904Y279308D01*
X116634Y278656D01*
Y277952D01*
X116904Y277300D01*
X117219Y276985D01*
X117208Y276854D01*
X116678Y276532D01*
X116642Y276547D01*
Y274606D01*
Y272666D01*
X117093Y272853D01*
X117593Y272598D01*
Y269888D01*
X117131Y269696D01*
X110165Y276663D01*
X109742Y276945D01*
X109242Y277045D01*
X105596D01*
X105404Y277507D01*
X107034Y279136D01*
X108480D01*
Y277587D01*
X113992D01*
Y283279D01*
X114205D01*
Y285846D01*
X111236D01*
Y286347D01*
X110736D01*
Y289413D01*
X108268D01*
Y286409D01*
X107852Y286131D01*
X107636Y286221D01*
X107087D01*
Y286770D01*
X106817Y287421D01*
X106318Y287919D01*
X105667Y288189D01*
X104963D01*
X104539Y288014D01*
X104225Y288059D01*
X103954Y288509D01*
X104215Y288899D01*
X104239Y289020D01*
X100551D01*
X96559D01*
X96394Y288818D01*
X92922D01*
X92840Y288899D01*
X92189Y289169D01*
X91484D01*
X90833Y288899D01*
X90335Y288401D01*
X90065Y287750D01*
Y287045D01*
X90335Y286394D01*
X90833Y285895D01*
X91484Y285626D01*
X92189D01*
X92840Y285895D01*
X93154Y286209D01*
X96596D01*
X97006Y285709D01*
X96981Y285583D01*
X97088Y285045D01*
X97296Y284734D01*
X97067Y284256D01*
X96719Y284166D01*
X96582Y284172D01*
X96476Y284278D01*
X95825Y284547D01*
X95120D01*
X94469Y284278D01*
X93971Y283779D01*
X93701Y283128D01*
Y282423D01*
X93607Y282283D01*
X93151D01*
X92500Y282014D01*
X92002Y281515D01*
X91732Y280864D01*
Y280159D01*
X91791Y280018D01*
X91457Y279518D01*
X91183D01*
X90532Y279248D01*
X90034Y278750D01*
X89764Y278099D01*
Y277394D01*
X90034Y276743D01*
X90532Y276244D01*
X91183Y275975D01*
X91888D01*
X92539Y276244D01*
X92717Y276423D01*
X96629D01*
X97017Y275923D01*
X96981Y275740D01*
X97088Y275202D01*
X97386Y274756D01*
X97088Y274309D01*
X96981Y273772D01*
X97088Y273234D01*
X97386Y272787D01*
X97088Y272341D01*
X96981Y271803D01*
X97088Y271266D01*
X97386Y270819D01*
X97088Y270372D01*
X96981Y269835D01*
X97088Y269297D01*
X97386Y268850D01*
X97088Y268404D01*
X97000Y267961D01*
X96721Y267811D01*
X96492Y267762D01*
X96476Y267777D01*
X95825Y268047D01*
X95120D01*
X94469Y267777D01*
X93971Y267279D01*
X93701Y266628D01*
Y265923D01*
X93971Y265272D01*
X94469Y264774D01*
X95120Y264504D01*
X95825D01*
X96065Y264603D01*
X96117Y264593D01*
X96386D01*
X96521Y264429D01*
X100551D01*
X104239D01*
X104215Y264550D01*
X104011Y264854D01*
X104085Y265113D01*
X104109Y265126D01*
X104212Y265145D01*
X104683Y265115D01*
X105083Y264714D01*
X105734Y264445D01*
X106439D01*
X107090Y264714D01*
X107361Y264985D01*
X107719Y265143D01*
X108014Y264985D01*
X108268Y264731D01*
Y262846D01*
X111236D01*
Y261846D01*
X108268D01*
Y259350D01*
X107899Y258962D01*
X107571Y259098D01*
X106866D01*
X106215Y258828D01*
X105717Y258330D01*
X105447Y257679D01*
Y257666D01*
X105141Y257360D01*
X104486D01*
X104089Y257860D01*
X104121Y258024D01*
X104015Y258561D01*
X103716Y259008D01*
X104015Y259454D01*
X104121Y259992D01*
X104015Y260530D01*
X103716Y260976D01*
X104015Y261423D01*
X104121Y261961D01*
X104015Y262498D01*
X103837Y262765D01*
X103863Y262782D01*
X104215Y263309D01*
X104239Y263429D01*
X100551D01*
X96608D01*
X96516Y263265D01*
X96017Y263166D01*
X95834Y263044D01*
X95452D01*
X95443Y263053D01*
X94792Y263323D01*
X94087D01*
X93436Y263053D01*
X92937Y262555D01*
X92723Y262037D01*
X92664Y261903D01*
X92167Y261767D01*
X91888Y261883D01*
X91183D01*
X90532Y261613D01*
X90034Y261115D01*
X89764Y260464D01*
Y259759D01*
X89878Y259484D01*
X89627Y258861D01*
X89548Y258828D01*
X89049Y258330D01*
X88779Y257679D01*
Y256974D01*
X88859Y256783D01*
X88581Y256367D01*
X87998D01*
X79528Y264837D01*
Y265116D01*
X79258Y265767D01*
X78759Y266266D01*
X78108Y266535D01*
X77403D01*
X76752Y266266D01*
X76254Y265767D01*
X75984Y265116D01*
Y264411D01*
X76254Y263760D01*
X76752Y263262D01*
X77403Y262992D01*
X77683D01*
X86535Y254140D01*
X86958Y253857D01*
X87457Y253758D01*
X87947D01*
X88154Y253258D01*
X88065Y253169D01*
X87795Y252518D01*
Y251813D01*
X87952Y251435D01*
X87666Y250907D01*
X87415Y250857D01*
X87149Y250679D01*
X87131Y250706D01*
X86605Y251057D01*
X86484Y251081D01*
Y247394D01*
X85484D01*
Y251081D01*
X85364Y251057D01*
X84838Y250706D01*
X84820Y250679D01*
X84553Y250857D01*
X84016Y250964D01*
X83478Y250857D01*
X83031Y250559D01*
X82585Y250857D01*
X82047Y250964D01*
X81627Y250880D01*
X81343Y251125D01*
X81250Y251276D01*
X81349Y251515D01*
Y252220D01*
X81079Y252871D01*
X80580Y253369D01*
X79929Y253639D01*
X79358D01*
X79104Y253947D01*
X79044Y254101D01*
X79062Y254134D01*
X79093D01*
X79744Y254404D01*
X80242Y254902D01*
X80512Y255553D01*
Y256258D01*
X80242Y256909D01*
X79744Y257407D01*
X79093Y257677D01*
X78388D01*
X77737Y257407D01*
X77238Y256909D01*
X76968Y256258D01*
Y255979D01*
X75940Y254950D01*
X75478Y255141D01*
Y256663D01*
X76215Y257400D01*
X76494D01*
X77145Y257669D01*
X77644Y258168D01*
X77913Y258819D01*
Y259524D01*
X77644Y260175D01*
X77145Y260673D01*
X76494Y260943D01*
X75789D01*
X75138Y260673D01*
X74640Y260175D01*
X74370Y259524D01*
Y259245D01*
X73251Y258125D01*
X73138Y257956D01*
X72638Y258108D01*
Y258226D01*
X72368Y258878D01*
X72171Y259075D01*
Y261910D01*
X72071Y262409D01*
X71789Y262832D01*
X68939Y265682D01*
X69055Y266114D01*
Y266840D01*
X68867Y267541D01*
X68505Y268169D01*
X67991Y268682D01*
X67363Y269045D01*
X66662Y269233D01*
X65936D01*
X65236Y269045D01*
X64607Y268682D01*
X64208Y268283D01*
X61636D01*
X60944Y268146D01*
X60358Y267754D01*
X46530Y253926D01*
X45834D01*
X45143Y253788D01*
X44557Y253397D01*
X40757Y249597D01*
X40365Y249011D01*
X40228Y248320D01*
Y244554D01*
X39606Y243932D01*
X38513D01*
X38103Y244432D01*
X38114Y244488D01*
Y247244D01*
X38007Y247782D01*
X37702Y248237D01*
X37246Y248542D01*
X36709Y248649D01*
X35528D01*
X34990Y248542D01*
X34534Y248237D01*
X34230Y247782D01*
X34123Y247244D01*
Y247220D01*
X33390D01*
Y247393D01*
X33290Y247893D01*
X33008Y248316D01*
X32972Y248351D01*
Y248896D01*
X32703Y249548D01*
X32205Y250046D01*
Y251941D01*
X29236D01*
X26268D01*
Y249374D01*
X28620D01*
X28920Y248874D01*
X28915Y248866D01*
X28047D01*
X27427Y248742D01*
X26901Y248391D01*
X26549Y247865D01*
X26426Y247244D01*
Y246366D01*
X28638D01*
Y245366D01*
X26426D01*
Y244488D01*
X26459Y244319D01*
X26142Y243932D01*
X24048D01*
X23638Y244432D01*
X23649Y244488D01*
Y247244D01*
X23542Y247782D01*
X23237Y248237D01*
X22782Y248542D01*
X22244Y248649D01*
X21063D01*
X20525Y248542D01*
X20069Y248237D01*
X19765Y247782D01*
X19762Y247767D01*
X19198Y247496D01*
X18856Y247638D01*
X18151D01*
X17500Y247368D01*
X17002Y246870D01*
X16885Y246588D01*
X16386Y246688D01*
Y247244D01*
X16262Y247865D01*
X15911Y248391D01*
X15384Y248742D01*
X14764Y248866D01*
X14673D01*
Y245866D01*
X14173D01*
Y245366D01*
X11961D01*
Y244488D01*
X12084Y243868D01*
X12436Y243341D01*
X12962Y242990D01*
X13583Y242866D01*
X13979D01*
X14171Y242405D01*
X8880Y237114D01*
X8505Y236552D01*
X8467Y236545D01*
X8005Y236729D01*
Y268955D01*
X16073Y277024D01*
X16535Y276833D01*
Y270787D01*
X24037D01*
X24228Y270325D01*
X22526Y268623D01*
X22265Y268773D01*
X21214Y269055D01*
X20125D01*
X19074Y268773D01*
X18131Y268229D01*
X17361Y267460D01*
X16817Y266517D01*
X16535Y265465D01*
Y264377D01*
X16817Y263326D01*
X17361Y262383D01*
X18131Y261613D01*
X19074Y261069D01*
X20125Y260787D01*
X21214D01*
X22265Y261069D01*
X23208Y261613D01*
X23977Y262383D01*
X24521Y263326D01*
X24803Y264377D01*
Y265465D01*
X24521Y266517D01*
X24371Y266778D01*
X28651Y271058D01*
X30264D01*
X30542Y270642D01*
X30463Y270451D01*
Y269746D01*
X30733Y269095D01*
X31231Y268597D01*
X31882Y268327D01*
X31952D01*
X32145Y268268D01*
Y267563D01*
X32414Y266912D01*
X32913Y266413D01*
X33564Y266144D01*
X34269D01*
X34920Y266413D01*
X35363Y266857D01*
X36138D01*
X36430Y266472D01*
X36456Y266426D01*
X36351Y265898D01*
X36456Y265369D01*
X36430Y265323D01*
X36138Y264938D01*
X34683D01*
X34183Y264839D01*
X33760Y264556D01*
X32237Y263033D01*
X31954Y262610D01*
X31855Y262111D01*
Y262000D01*
X31469Y261614D01*
X31298Y261201D01*
X26480D01*
Y255508D01*
X26268D01*
Y252941D01*
X29236D01*
X32205D01*
Y255508D01*
X31992D01*
Y257042D01*
X33535D01*
X33870Y256818D01*
X34369Y256719D01*
X35987D01*
X36384Y256219D01*
X36351Y256055D01*
X36458Y255518D01*
X36636Y255251D01*
X36609Y255233D01*
X36258Y254707D01*
X36234Y254587D01*
X39921D01*
X43749D01*
X43784Y254748D01*
X44037Y254801D01*
X44284Y254850D01*
X44707Y255133D01*
X44741Y255167D01*
X44969Y255072D01*
X45674D01*
X46325Y255342D01*
X46823Y255840D01*
X47093Y256491D01*
Y257196D01*
X46823Y257847D01*
X46325Y258346D01*
X46282Y258887D01*
X46467Y259103D01*
X46544D01*
X47043Y259202D01*
X47466Y259485D01*
X60831Y272849D01*
X60831Y272849D01*
X61283Y273302D01*
X61791D01*
X61989Y273104D01*
X62640Y272835D01*
X63345D01*
X63996Y273104D01*
X64494Y273603D01*
X64764Y274254D01*
Y274959D01*
X64494Y275610D01*
X63996Y276108D01*
X63345Y276378D01*
X62640D01*
X61989Y276108D01*
X61791Y275911D01*
X60743D01*
X60244Y275812D01*
X59820Y275529D01*
X59368Y275076D01*
X47635D01*
X46190Y276521D01*
X46473Y276945D01*
X46892Y276772D01*
X47596D01*
X48248Y277041D01*
X48746Y277540D01*
X49016Y278191D01*
Y278896D01*
X48746Y279547D01*
X48248Y280045D01*
X47596Y280315D01*
X47532D01*
X47389Y280489D01*
X47263Y280978D01*
X47762Y281477D01*
X48031Y282128D01*
Y282833D01*
X47762Y283484D01*
X47263Y283982D01*
X46612Y284252D01*
X46067D01*
X45782Y284537D01*
X45359Y284820D01*
X44860Y284919D01*
X44086D01*
X43951Y285083D01*
X39921D01*
Y286083D01*
X43990D01*
X44093Y286209D01*
X48644D01*
X48706Y286148D01*
X49357Y285878D01*
X50061D01*
X50713Y286148D01*
X51211Y286646D01*
X51481Y287297D01*
Y288002D01*
X51211Y288653D01*
X50713Y289152D01*
X50061Y289421D01*
X49357D01*
X48706Y289152D01*
X48372Y288818D01*
X43831D01*
X43451Y289318D01*
X43492Y289520D01*
X43385Y290057D01*
X43086Y290504D01*
X43385Y290951D01*
X43492Y291488D01*
X43385Y292026D01*
X43086Y292472D01*
X43385Y292919D01*
X43492Y293457D01*
X43385Y293994D01*
X43086Y294441D01*
X43385Y294888D01*
X43492Y295425D01*
X43385Y295963D01*
X43086Y296410D01*
X43385Y296856D01*
X43492Y297394D01*
X43385Y297931D01*
X43086Y298378D01*
X43385Y298825D01*
X43492Y299362D01*
X43385Y299900D01*
X43086Y300346D01*
X43385Y300793D01*
X43492Y301331D01*
X43385Y301868D01*
X43080Y302324D01*
X42624Y302629D01*
X42087Y302736D01*
X38311D01*
X28256Y312790D01*
X28373Y313380D01*
X28563Y313459D01*
X28760Y313656D01*
X35960D01*
X36459Y313755D01*
X36605Y313853D01*
X39670D01*
X39877Y313353D01*
X39656Y313132D01*
X39398Y312508D01*
X43279D01*
X43021Y313132D01*
X42800Y313353D01*
X43007Y313853D01*
X43750D01*
X45668Y311935D01*
X45619Y311437D01*
X45467Y311336D01*
X45116Y310810D01*
X44993Y310189D01*
Y308524D01*
X46614D01*
Y308024D01*
X47114D01*
Y304336D01*
X47235Y304360D01*
X47761Y304712D01*
X47779Y304738D01*
X48045Y304560D01*
X48583Y304453D01*
X49120Y304560D01*
X49567Y304859D01*
X50014Y304560D01*
X50551Y304453D01*
X51089Y304560D01*
X51535Y304859D01*
X51982Y304560D01*
X52520Y304453D01*
X53057Y304560D01*
X53504Y304859D01*
X53951Y304560D01*
X54488Y304453D01*
X55026Y304560D01*
X55472Y304859D01*
X55919Y304560D01*
X56457Y304453D01*
X56994Y304560D01*
X57261Y304738D01*
X57279Y304712D01*
X57805Y304360D01*
X57925Y304336D01*
Y308024D01*
Y311711D01*
X57805Y311687D01*
X57279Y311336D01*
X57261Y311309D01*
X56994Y311487D01*
X56457Y311594D01*
X55919Y311487D01*
X55472Y311189D01*
X55026Y311487D01*
X54488Y311594D01*
X53951Y311487D01*
X53504Y311189D01*
X53057Y311487D01*
X52520Y311594D01*
X51982Y311487D01*
X51725Y311907D01*
X51719Y311939D01*
X51436Y312362D01*
X45947Y317852D01*
X45524Y318134D01*
X45024Y318234D01*
X29280D01*
X27092Y320422D01*
Y321880D01*
X27289Y322077D01*
X27559Y322728D01*
Y323433D01*
X27289Y324084D01*
X26791Y324583D01*
X26140Y324853D01*
X25435D01*
X25431Y324851D01*
X25016Y325129D01*
Y328032D01*
X20669D01*
Y328532D01*
D01*
Y328032D01*
X16323D01*
Y324359D01*
X15846Y324128D01*
X14770Y325205D01*
Y326903D01*
X14770Y326903D01*
Y327297D01*
X14770D01*
X14770Y327403D01*
Y330840D01*
X6030D01*
Y329638D01*
X3707Y327315D01*
X3402Y326859D01*
X3295Y326321D01*
Y184811D01*
X2072Y183588D01*
X1610Y183780D01*
Y337598D01*
Y338564D01*
X1862Y340478D01*
X2362Y342343D01*
X3101Y344127D01*
X4066Y345799D01*
X5241Y347330D01*
X6607Y348696D01*
X8138Y349871D01*
X9810Y350836D01*
X11594Y351575D01*
X13459Y352075D01*
X15373Y352327D01*
X16339Y352327D01*
D02*
G37*
G36*
X46172Y272849D02*
X46595Y272566D01*
X47095Y272467D01*
X56106D01*
X56297Y272005D01*
X53965Y269673D01*
X53465Y269880D01*
Y270328D01*
X53163Y271057D01*
X52605Y271615D01*
X51981Y271874D01*
Y269933D01*
X51481D01*
Y269433D01*
X49540D01*
X49799Y268809D01*
X50357Y268251D01*
X51086Y267949D01*
X51534D01*
X51741Y267449D01*
X47596Y263305D01*
X47006Y263422D01*
X46902Y263674D01*
X46404Y264173D01*
X46400Y264174D01*
X46272Y264769D01*
X46453Y264961D01*
X46612D01*
X47263Y265230D01*
X47762Y265729D01*
X48031Y266380D01*
Y267085D01*
X47762Y267736D01*
X47263Y268234D01*
X46612Y268504D01*
X45907D01*
X45256Y268234D01*
X44758Y267736D01*
X44537Y267202D01*
X43856D01*
X43459Y267702D01*
X43492Y267866D01*
X43385Y268404D01*
X43086Y268850D01*
X43385Y269297D01*
X43492Y269835D01*
X43385Y270372D01*
X43086Y270819D01*
X43385Y271266D01*
X43492Y271803D01*
X43385Y272341D01*
X43086Y272787D01*
X43385Y273234D01*
X43492Y273772D01*
X43385Y274309D01*
X43202Y274583D01*
X43412Y275022D01*
X43903Y275118D01*
X46172Y272849D01*
D02*
G37*
G36*
X69561Y261369D02*
Y259075D01*
X69364Y258878D01*
X69095Y258226D01*
Y257522D01*
X69364Y256870D01*
X69863Y256372D01*
X70514Y256102D01*
X71219D01*
X71870Y256372D01*
X72368Y256870D01*
X72369Y256872D01*
X72869Y256772D01*
Y251328D01*
X72369Y250931D01*
X72205Y250964D01*
X71667Y250857D01*
X71220Y250559D01*
X70774Y250857D01*
X70236Y250964D01*
X69699Y250857D01*
X69252Y250559D01*
X68805Y250857D01*
X68268Y250964D01*
X67730Y250857D01*
X67283Y250559D01*
X66837Y250857D01*
X66299Y250964D01*
X65762Y250857D01*
X65315Y250559D01*
X64868Y250857D01*
X64801Y250870D01*
X64636Y251413D01*
X66373Y253150D01*
X66652D01*
X67303Y253419D01*
X67801Y253918D01*
X68071Y254569D01*
Y255274D01*
X67801Y255925D01*
X67303Y256423D01*
X66652Y256693D01*
X65947D01*
X65296Y256423D01*
X64797Y255925D01*
X64527Y255274D01*
Y254995D01*
X61477Y251944D01*
X61195Y251521D01*
X61148Y251285D01*
X61006Y251004D01*
X60595Y250924D01*
X60394Y250964D01*
X60002Y250886D01*
X59856Y251367D01*
X60059Y251451D01*
X60557Y251949D01*
X60827Y252600D01*
Y253305D01*
X60557Y253956D01*
X60059Y254455D01*
X59408Y254724D01*
X58703D01*
X58052Y254455D01*
X57553Y253956D01*
X57284Y253305D01*
Y253026D01*
X56255Y251997D01*
X55793Y252189D01*
Y253877D01*
X65700Y263784D01*
X65936Y263721D01*
X66662D01*
X67094Y263837D01*
X69561Y261369D01*
D02*
G37*
G36*
X113992Y253587D02*
X114050Y253111D01*
Y247663D01*
X101516D01*
X101204Y248163D01*
X101350Y248516D01*
X97469D01*
X97632Y248122D01*
X97524Y247764D01*
X97422Y247602D01*
X97368Y247552D01*
X96963Y247281D01*
X95725Y246043D01*
X95263Y246235D01*
Y249559D01*
X95163Y250064D01*
Y251429D01*
X95064Y251928D01*
X94827Y252282D01*
X94968Y252782D01*
X97881D01*
X98386Y252682D01*
X102717D01*
X103221Y252782D01*
X107079D01*
X107578Y252881D01*
X108001Y253164D01*
X108125Y253288D01*
X108480Y253587D01*
Y253587D01*
X108480Y253587D01*
X113992D01*
D02*
G37*
G36*
X110736Y221441D02*
X113303D01*
Y223635D01*
X113803Y223701D01*
X113869Y223456D01*
X114232Y222827D01*
X114745Y222314D01*
X115373Y221951D01*
X116074Y221764D01*
X116800D01*
X117129Y221852D01*
X118480Y220501D01*
X118288Y220039D01*
X110866D01*
Y216239D01*
X110404Y216048D01*
X108761Y217691D01*
X108744Y217776D01*
X108309Y218427D01*
X107658Y218862D01*
X106890Y219015D01*
X106137D01*
Y221654D01*
X106994D01*
X107045Y221602D01*
X107169Y221551D01*
Y221441D01*
X107434D01*
X107669Y221344D01*
Y223284D01*
X108669D01*
Y221344D01*
X108904Y221441D01*
X109736D01*
Y224410D01*
X110736D01*
Y221441D01*
D02*
G37*
G36*
X60894Y233425D02*
X63461D01*
Y236104D01*
X63923Y236296D01*
X68191Y232027D01*
X68506Y231817D01*
X68656Y231454D01*
X69155Y230956D01*
X69806Y230686D01*
X70511D01*
X70721Y230773D01*
X71136Y230495D01*
Y218875D01*
X70636Y218608D01*
X70256Y218862D01*
X69488Y219015D01*
X64470D01*
X64075Y219410D01*
Y219951D01*
X63805Y220602D01*
X63307Y221100D01*
X62656Y221370D01*
X62388D01*
X59385Y224373D01*
X59516Y224949D01*
X59892Y225105D01*
X60390Y225603D01*
X60660Y226255D01*
Y226959D01*
X60390Y227610D01*
X60186Y227815D01*
X59974Y228210D01*
X60186Y228468D01*
X60457Y228738D01*
X60726Y229390D01*
Y230094D01*
X60457Y230746D01*
X59958Y231244D01*
X59307Y231514D01*
X58602D01*
X57951Y231244D01*
X57754Y231047D01*
X57048D01*
X56770Y231547D01*
X56941Y231958D01*
X55000D01*
Y232958D01*
X56941D01*
X56866Y233138D01*
X56915Y233211D01*
X57327Y233425D01*
X59894D01*
Y236394D01*
X60894D01*
Y233425D01*
D02*
G37*
G36*
X50079Y219856D02*
X50654Y219618D01*
Y216406D01*
X55000D01*
Y215406D01*
X50654D01*
Y213360D01*
X50192Y213169D01*
X49446Y213915D01*
X49023Y214197D01*
X48524Y214297D01*
X39202D01*
X36356Y217143D01*
X35932Y217426D01*
X35433Y217525D01*
X30463D01*
X30364Y218025D01*
X30606Y218125D01*
X31346Y218693D01*
X31914Y219433D01*
X32114Y219916D01*
X50020D01*
X50079Y219856D01*
D02*
G37*
G36*
X131854Y234671D02*
Y212889D01*
X131393Y212698D01*
X119187Y224903D01*
X119005Y225583D01*
X118771Y225990D01*
X118795Y226026D01*
X118932Y226717D01*
X118795Y227409D01*
X118403Y227995D01*
X117751Y228647D01*
X117942Y229109D01*
X125098D01*
X125598Y229208D01*
X126021Y229491D01*
X131393Y234862D01*
X131854Y234671D01*
D02*
G37*
G36*
X129083Y209897D02*
Y198087D01*
X128583Y197753D01*
X128453Y197807D01*
Y195866D01*
Y193925D01*
X128583Y193980D01*
X129083Y193646D01*
Y112176D01*
X128583Y111968D01*
X128464Y112088D01*
X128106Y112236D01*
Y174104D01*
X128006Y174604D01*
X127724Y175027D01*
X118702Y184049D01*
X118852Y184310D01*
X119134Y185361D01*
Y186450D01*
X118852Y187501D01*
X118308Y188444D01*
X117538Y189213D01*
X116596Y189758D01*
X115544Y190039D01*
X114456D01*
X113404Y189758D01*
X112462Y189213D01*
X112149Y188900D01*
X111649Y189108D01*
Y192703D01*
X112149Y192911D01*
X112462Y192598D01*
X113404Y192053D01*
X114456Y191772D01*
X115544D01*
X116596Y192053D01*
X117538Y192598D01*
X118308Y193367D01*
X118852Y194310D01*
X119134Y195361D01*
Y196450D01*
X118852Y197501D01*
X118308Y198444D01*
X117538Y199213D01*
X116596Y199758D01*
X115544Y200039D01*
X114456D01*
X113404Y199758D01*
X112462Y199213D01*
X112149Y198900D01*
X111649Y199108D01*
Y202703D01*
X112149Y202910D01*
X112462Y202598D01*
X113404Y202053D01*
X114456Y201772D01*
X115544D01*
X116596Y202053D01*
X117538Y202598D01*
X118308Y203367D01*
X118852Y204310D01*
X119134Y205361D01*
Y206450D01*
X118852Y207501D01*
X118308Y208444D01*
X117538Y209213D01*
X116596Y209758D01*
X115544Y210039D01*
X114456D01*
X113404Y209758D01*
X112462Y209213D01*
X112149Y208900D01*
X111649Y209108D01*
Y211772D01*
X119134D01*
Y219194D01*
X119596Y219385D01*
X129083Y209897D01*
D02*
G37*
G36*
X74647Y179431D02*
X83144Y170934D01*
Y129527D01*
X83244Y129028D01*
X83526Y128605D01*
X99486Y112645D01*
X99520Y112546D01*
X99494Y112425D01*
X98918Y112123D01*
X98787Y112177D01*
Y110236D01*
Y108296D01*
X99411Y108554D01*
X99970Y109112D01*
X100272Y109842D01*
Y110238D01*
X100772Y110505D01*
X101004Y110350D01*
X101772Y110198D01*
X106890D01*
X107370Y110293D01*
X107617Y109833D01*
X107385Y109600D01*
X107102Y109177D01*
X107002Y108678D01*
Y101387D01*
X103928Y98312D01*
X100395D01*
X99896Y98213D01*
X99473Y97930D01*
X94944Y93401D01*
X94661Y92978D01*
X94561Y92479D01*
Y52106D01*
X94364Y51909D01*
X94095Y51258D01*
Y50553D01*
X94364Y49902D01*
X94863Y49404D01*
X95514Y49134D01*
X96219D01*
X96870Y49404D01*
X97368Y49902D01*
X97638Y50553D01*
Y51258D01*
X97368Y51909D01*
X97171Y52106D01*
Y78070D01*
X97633Y78262D01*
X97824Y78070D01*
X98632Y77604D01*
X99533Y77362D01*
X99665D01*
X99857Y76900D01*
X98645Y75688D01*
X98362Y75265D01*
X98262Y74765D01*
Y42106D01*
X98065Y41909D01*
X97795Y41258D01*
Y40553D01*
X98065Y39902D01*
X98563Y39404D01*
X99215Y39134D01*
X99919D01*
X100125Y39219D01*
X100167Y39195D01*
X100416Y38788D01*
X100033Y38405D01*
X99764Y37754D01*
Y37049D01*
X100033Y36398D01*
X100532Y35900D01*
X101183Y35630D01*
X101454D01*
X101662Y35130D01*
X100872Y34340D01*
X100467Y34449D01*
X99533D01*
X98632Y34207D01*
X97824Y33741D01*
X97165Y33081D01*
X96698Y32273D01*
X96457Y31372D01*
Y30439D01*
X96698Y29538D01*
X97165Y28730D01*
X97824Y28070D01*
X98632Y27604D01*
X99533Y27362D01*
X100467D01*
X101368Y27604D01*
X102176Y28070D01*
X102328Y28223D01*
X102790Y28031D01*
Y26471D01*
X100704Y24385D01*
X100467Y24449D01*
X99533D01*
X98632Y24207D01*
X97824Y23741D01*
X97165Y23081D01*
X96698Y22273D01*
X96457Y21372D01*
Y20439D01*
X96698Y19538D01*
X97165Y18730D01*
X97356Y18538D01*
X97165Y18076D01*
X94674D01*
X93269Y19481D01*
X93302Y19538D01*
X93543Y20439D01*
Y21372D01*
X93302Y22273D01*
X92835Y23081D01*
X92176Y23741D01*
X91368Y24207D01*
X90466Y24449D01*
X90195D01*
X90004Y24911D01*
X90549Y25455D01*
X90832Y25879D01*
X90931Y26378D01*
Y27487D01*
X91368Y27604D01*
X92176Y28070D01*
X92835Y28730D01*
X93302Y29538D01*
X93543Y30439D01*
Y31372D01*
X93302Y32273D01*
X92835Y33081D01*
X92176Y33741D01*
X91368Y34207D01*
X90466Y34449D01*
X89534D01*
X88632Y34207D01*
X87824Y33741D01*
X87165Y33081D01*
X86698Y32273D01*
X86457Y31372D01*
Y30439D01*
X86698Y29538D01*
X87165Y28730D01*
X87824Y28070D01*
X88322Y27783D01*
Y26918D01*
X84944Y23540D01*
X84661Y23117D01*
X84562Y22618D01*
Y19193D01*
X84661Y18694D01*
X84944Y18271D01*
X89373Y13841D01*
X89796Y13558D01*
X90296Y13459D01*
X113323D01*
X113823Y13558D01*
X114246Y13841D01*
X115927Y15522D01*
X116375Y15263D01*
X116339Y15127D01*
Y14401D01*
X116526Y13700D01*
X116889Y13072D01*
X117402Y12559D01*
X118031Y12196D01*
X118732Y12008D01*
X119457D01*
X120158Y12196D01*
X120787Y12559D01*
X121300Y13072D01*
X121663Y13700D01*
X121850Y14401D01*
Y14965D01*
X122679Y15794D01*
X127200D01*
X127891Y15931D01*
X128477Y16323D01*
X131393Y19238D01*
X131854Y19047D01*
Y15767D01*
X131602Y13853D01*
X131103Y11988D01*
X130364Y10204D01*
X129399Y8532D01*
X128223Y7000D01*
X126858Y5635D01*
X125326Y4460D01*
X123654Y3494D01*
X121871Y2756D01*
X120006Y2256D01*
X118091Y2004D01*
X117126D01*
X74917D01*
Y4421D01*
X71850D01*
Y4921D01*
X71350D01*
Y7890D01*
X68783D01*
Y7677D01*
X67751D01*
Y9764D01*
X68251Y9864D01*
X68318Y9703D01*
X68876Y9145D01*
X69500Y8886D01*
Y10827D01*
Y12767D01*
X68876Y12509D01*
X68318Y11951D01*
X68251Y11790D01*
X67751Y11890D01*
Y15426D01*
X67614Y16117D01*
X67279Y16619D01*
Y17963D01*
X67741Y18154D01*
X67824Y18070D01*
X68632Y17604D01*
X69533Y17362D01*
X70467D01*
X71368Y17604D01*
X72176Y18070D01*
X72835Y18730D01*
X73302Y19538D01*
X73543Y20439D01*
Y21372D01*
X73302Y22273D01*
X72835Y23081D01*
X72176Y23741D01*
X71673Y24031D01*
X71503Y24563D01*
X71539Y24658D01*
X71706Y25059D01*
X74958Y28311D01*
X75241Y28735D01*
X75340Y29234D01*
Y44887D01*
X75241Y45387D01*
X74958Y45810D01*
X69218Y51550D01*
Y65728D01*
X69415Y65926D01*
X69685Y66577D01*
Y66659D01*
X70185Y66993D01*
X70366Y66918D01*
Y68859D01*
Y70799D01*
X69742Y70541D01*
X69184Y69983D01*
X68882Y69253D01*
Y68987D01*
X68382Y68653D01*
X68266Y68701D01*
X67561D01*
X66910Y68431D01*
X66412Y67933D01*
X66142Y67282D01*
Y66577D01*
X66412Y65926D01*
X66609Y65728D01*
Y51009D01*
X66708Y50510D01*
X66991Y50087D01*
X72731Y44347D01*
Y41930D01*
X72231Y41831D01*
X72149Y42030D01*
X71591Y42588D01*
X70967Y42846D01*
Y40905D01*
Y38965D01*
X71591Y39223D01*
X72149Y39781D01*
X72231Y39980D01*
X72731Y39880D01*
Y33839D01*
X72269Y33648D01*
X72176Y33741D01*
X71368Y34207D01*
X70467Y34449D01*
X69533D01*
X68632Y34207D01*
X67824Y33741D01*
X67165Y33081D01*
X66698Y32273D01*
X66457Y31372D01*
Y30439D01*
X66567Y30027D01*
X65840Y29300D01*
X65340Y29507D01*
Y52577D01*
X65241Y53076D01*
X64958Y53500D01*
X61341Y57116D01*
X61353Y57341D01*
X61391Y57617D01*
X62176Y58070D01*
X62835Y58730D01*
X63302Y59538D01*
X63543Y60439D01*
Y61372D01*
X63302Y62273D01*
X62835Y63081D01*
X62176Y63741D01*
X61368Y64207D01*
X61319Y64220D01*
X61264Y64457D01*
X61279Y64749D01*
X61629Y64983D01*
X76227Y79580D01*
X76769Y79415D01*
X77165Y78730D01*
X77824Y78070D01*
X78632Y77604D01*
X79533Y77362D01*
X80467D01*
X81368Y77604D01*
X82176Y78070D01*
X82835Y78730D01*
X83302Y79538D01*
X83543Y80439D01*
Y81372D01*
X83302Y82273D01*
X82835Y83081D01*
X82176Y83741D01*
X81368Y84207D01*
X80467Y84449D01*
X79533D01*
X78632Y84207D01*
X77824Y83741D01*
X77612Y83528D01*
X77112Y83735D01*
Y88076D01*
X77612Y88283D01*
X77824Y88070D01*
X78632Y87604D01*
X79533Y87362D01*
X80467D01*
X81368Y87604D01*
X82176Y88070D01*
X82835Y88730D01*
X83302Y89538D01*
X83543Y90439D01*
Y91372D01*
X83302Y92273D01*
X82835Y93081D01*
X82176Y93741D01*
X81368Y94207D01*
X80467Y94449D01*
X79596D01*
X79356Y94756D01*
X79297Y94858D01*
X79663Y95223D01*
X79945Y95646D01*
X80045Y96145D01*
Y99319D01*
X80342Y99617D01*
X80625Y100040D01*
X80724Y100539D01*
Y101611D01*
X80922Y101809D01*
X81191Y102460D01*
Y103165D01*
X80922Y103816D01*
X80423Y104314D01*
X79772Y104584D01*
X79067D01*
X78416Y104314D01*
X77918Y103816D01*
X77648Y103165D01*
Y102460D01*
X77918Y101809D01*
X78115Y101611D01*
Y101079D01*
X77818Y100782D01*
X77535Y100359D01*
X77436Y99859D01*
Y96686D01*
X76333Y95584D01*
X75811Y95768D01*
X75776Y96056D01*
X75887Y96167D01*
X76157Y96818D01*
Y97523D01*
X75887Y98174D01*
X75389Y98673D01*
X74738Y98942D01*
X74033D01*
X73382Y98673D01*
X72883Y98174D01*
X72614Y97523D01*
Y96818D01*
X72883Y96167D01*
X73081Y95970D01*
Y94820D01*
X72830Y94446D01*
X72731Y93946D01*
Y93839D01*
X72269Y93648D01*
X72176Y93741D01*
X71368Y94207D01*
X70467Y94449D01*
X70344D01*
X70010Y94949D01*
X70078Y95114D01*
Y95819D01*
X69809Y96470D01*
X69310Y96969D01*
X68659Y97238D01*
X67954D01*
X67303Y96969D01*
X66805Y96470D01*
X66535Y95819D01*
Y95806D01*
X66193Y95464D01*
X65826Y95219D01*
X65678Y95243D01*
X65289Y95400D01*
X65241Y95642D01*
X64958Y96065D01*
X63779Y97244D01*
Y97523D01*
X63510Y98174D01*
X63011Y98673D01*
X62360Y98942D01*
X61655D01*
X61004Y98673D01*
X60506Y98174D01*
X60236Y97523D01*
Y96818D01*
X60506Y96167D01*
X61004Y95669D01*
X61655Y95399D01*
X61935D01*
X62731Y94603D01*
Y93839D01*
X62269Y93648D01*
X62176Y93741D01*
X61368Y94207D01*
X60466Y94449D01*
X59534D01*
X59397Y94412D01*
X58989Y94820D01*
X59134Y95361D01*
Y96450D01*
X58852Y97501D01*
X58308Y98444D01*
X57538Y99213D01*
X56596Y99758D01*
X55544Y100039D01*
X54456D01*
X53404Y99758D01*
X52462Y99213D01*
X52297Y99048D01*
X51797Y99256D01*
Y100177D01*
X51994Y100374D01*
X52264Y101025D01*
Y101730D01*
X51994Y102382D01*
X52364Y102695D01*
X52462Y102598D01*
X53404Y102053D01*
X54456Y101772D01*
X55544D01*
X56596Y102053D01*
X57538Y102598D01*
X58308Y103367D01*
X58852Y104310D01*
X59134Y105361D01*
Y106450D01*
X58852Y107501D01*
X58308Y108444D01*
X57538Y109213D01*
X57256Y109377D01*
X57390Y109877D01*
X58346D01*
X58846Y109976D01*
X59269Y110259D01*
X61741Y112731D01*
X61790Y112705D01*
X66429D01*
Y114428D01*
X64370D01*
X64090Y114373D01*
X63844Y114834D01*
X64235Y115225D01*
X64370Y115198D01*
X69488D01*
X70256Y115350D01*
X70907Y115786D01*
X71342Y116437D01*
X71495Y117205D01*
X71342Y117973D01*
X70907Y118624D01*
X70256Y119059D01*
X69488Y119212D01*
X64370D01*
X63602Y119059D01*
X62951Y118624D01*
X62516Y117973D01*
X62363Y117205D01*
X62390Y117069D01*
X59155Y113835D01*
X58755Y114142D01*
X58852Y114310D01*
X59134Y115361D01*
Y116450D01*
X58852Y117501D01*
X58308Y118444D01*
X57538Y119213D01*
X57460Y119258D01*
X57594Y119758D01*
X58954D01*
X59454Y119858D01*
X59877Y120141D01*
X60637Y120900D01*
X62874D01*
X62951Y120785D01*
X63602Y120350D01*
X64370Y120198D01*
X69488D01*
X70256Y120350D01*
X70907Y120785D01*
X71342Y121437D01*
X71495Y122205D01*
X71342Y122973D01*
X70907Y123624D01*
X70256Y124059D01*
X69488Y124212D01*
X64370D01*
X63602Y124059D01*
X62951Y123624D01*
X62874Y123509D01*
X60096D01*
X59597Y123410D01*
X59174Y123127D01*
X58477Y122431D01*
X58073Y122477D01*
X57889Y122949D01*
X58308Y123367D01*
X58852Y124310D01*
X59134Y125361D01*
Y126450D01*
X58852Y127501D01*
X58308Y128444D01*
X57538Y129213D01*
X57256Y129376D01*
X57390Y129876D01*
X59853D01*
X62390Y127340D01*
X62363Y127205D01*
X62516Y126437D01*
X62951Y125786D01*
X63602Y125350D01*
X64370Y125198D01*
X69488D01*
X70256Y125350D01*
X70907Y125786D01*
X71342Y126437D01*
X71495Y127205D01*
X71342Y127973D01*
X70907Y128624D01*
X70256Y129059D01*
X69488Y129212D01*
X64370D01*
X64235Y129185D01*
X63573Y129846D01*
X63820Y130307D01*
X64370Y130198D01*
X69488D01*
X70256Y130350D01*
X70907Y130786D01*
X71342Y131437D01*
X71495Y132205D01*
X71468Y132340D01*
X76415Y137286D01*
X76697Y137709D01*
X76797Y138209D01*
Y142801D01*
X76895Y143296D01*
Y161105D01*
X76796Y161604D01*
X76513Y162027D01*
X72763Y165778D01*
X72339Y166060D01*
X71840Y166160D01*
X68444D01*
X65282Y169322D01*
X65473Y169784D01*
X66429D01*
Y172008D01*
Y174232D01*
X64370D01*
X64131Y174184D01*
X63884Y174645D01*
X64262Y175022D01*
X64370Y175001D01*
X69488D01*
X70256Y175154D01*
X70907Y175589D01*
X71342Y176240D01*
X71495Y177008D01*
X71342Y177776D01*
X70907Y178427D01*
X70256Y178862D01*
X69488Y179015D01*
X64370D01*
X63804Y178902D01*
X63445Y179313D01*
X63633Y179766D01*
X64011Y180072D01*
X64370Y180001D01*
X69488D01*
X70256Y180154D01*
X70907Y180589D01*
X71342Y181240D01*
X71473Y181897D01*
X71790Y182060D01*
X71983Y182095D01*
X74647Y179431D01*
D02*
G37*
G36*
X51440Y178006D02*
X51148Y177501D01*
X50866Y176450D01*
Y175361D01*
X51148Y174310D01*
X51692Y173367D01*
X52462Y172598D01*
X52744Y172434D01*
X52610Y171934D01*
X49379D01*
X48880Y171835D01*
X48456Y171552D01*
X44429Y167525D01*
X30952D01*
X30949Y167529D01*
X30824Y168025D01*
X31498Y168542D01*
X32100Y169326D01*
X32478Y170240D01*
X32541Y170721D01*
X27638D01*
Y171721D01*
X32541D01*
X32478Y172201D01*
X32100Y173115D01*
X31726Y173602D01*
X31721Y173616D01*
X31841Y174234D01*
X31989Y174333D01*
X36095Y178439D01*
X51190D01*
X51440Y178006D01*
D02*
G37*
G36*
X99792Y172143D02*
X99765Y172008D01*
X99917Y171240D01*
X100352Y170589D01*
X101004Y170154D01*
X101772Y170001D01*
X106798D01*
X106950Y169781D01*
X107022Y169517D01*
X104630Y167126D01*
X101492D01*
Y167339D01*
X98925D01*
Y164370D01*
X97925D01*
Y167339D01*
X96383D01*
Y174898D01*
X96845Y175089D01*
X99792Y172143D01*
D02*
G37*
G36*
X112462Y172598D02*
X113404Y172053D01*
X114456Y171772D01*
X115544D01*
X116596Y172053D01*
X116857Y172204D01*
X123677Y165384D01*
Y159781D01*
X123177Y159573D01*
X118702Y164049D01*
X118852Y164310D01*
X119134Y165361D01*
Y166450D01*
X118852Y167501D01*
X118308Y168444D01*
X117538Y169213D01*
X116596Y169758D01*
X115544Y170039D01*
X114456D01*
X113404Y169758D01*
X112462Y169213D01*
X111692Y168444D01*
X111148Y167501D01*
X110866Y166450D01*
Y165361D01*
X111148Y164310D01*
X111692Y163367D01*
X112462Y162598D01*
X113404Y162053D01*
X114456Y161772D01*
X115544D01*
X116596Y162053D01*
X116857Y162204D01*
X121301Y157760D01*
Y152103D01*
X120839Y151912D01*
X118702Y154049D01*
X118852Y154310D01*
X119134Y155361D01*
Y156450D01*
X118852Y157501D01*
X118308Y158444D01*
X117538Y159213D01*
X116596Y159758D01*
X115544Y160039D01*
X114456D01*
X113404Y159758D01*
X112462Y159213D01*
X111692Y158444D01*
X111148Y157501D01*
X110866Y156450D01*
Y155361D01*
X111148Y154310D01*
X111692Y153367D01*
X112462Y152598D01*
X113404Y152053D01*
X114456Y151772D01*
X115544D01*
X116596Y152053D01*
X116857Y152204D01*
X119332Y149728D01*
Y147765D01*
X118879Y147522D01*
X118832Y147535D01*
X118308Y148444D01*
X117538Y149213D01*
X116596Y149758D01*
X115544Y150039D01*
X114456D01*
X113404Y149758D01*
X112462Y149213D01*
X111692Y148444D01*
X111148Y147501D01*
X110866Y146450D01*
Y145361D01*
X111148Y144310D01*
X111692Y143367D01*
X112462Y142598D01*
X113404Y142053D01*
X114456Y141772D01*
X115544D01*
X116596Y142053D01*
X117538Y142598D01*
X118308Y143367D01*
X118832Y144276D01*
X118879Y144289D01*
X119332Y144047D01*
Y137765D01*
X118879Y137522D01*
X118832Y137535D01*
X118308Y138444D01*
X117538Y139213D01*
X116596Y139758D01*
X115544Y140039D01*
X114456D01*
X113404Y139758D01*
X112462Y139213D01*
X111692Y138444D01*
X111148Y137501D01*
X110866Y136450D01*
Y135361D01*
X111148Y134310D01*
X111230Y134167D01*
X110882Y133770D01*
X110736Y133830D01*
Y132390D01*
X112498D01*
X112514Y132402D01*
X112682Y132470D01*
X113404Y132053D01*
X114456Y131772D01*
X115544D01*
X116596Y132053D01*
X116857Y132204D01*
X118321Y130739D01*
Y129137D01*
X117821Y128930D01*
X117538Y129213D01*
X116596Y129758D01*
X115544Y130039D01*
X114456D01*
X113404Y129758D01*
X112462Y129213D01*
X111692Y128444D01*
X111148Y127501D01*
X110866Y126450D01*
Y125361D01*
X111148Y124310D01*
X111299Y124049D01*
X109346Y122097D01*
X108872Y122330D01*
X108744Y122973D01*
X108309Y123624D01*
X107658Y124059D01*
X106890Y124212D01*
X101772D01*
X101637Y124185D01*
X100975Y124846D01*
X101221Y125307D01*
X101772Y125198D01*
X106890D01*
X107658Y125350D01*
X108309Y125786D01*
X108744Y126437D01*
X108897Y127205D01*
X108744Y127973D01*
X108309Y128624D01*
X107658Y129059D01*
X106890Y129212D01*
X101772D01*
X101690Y129196D01*
X101056Y129830D01*
X101302Y130291D01*
X101772Y130198D01*
X106890D01*
X107658Y130350D01*
X108071Y130626D01*
X108424Y130728D01*
X108760Y130560D01*
X109112Y130208D01*
X109736Y129949D01*
Y131890D01*
Y133830D01*
X109112Y133572D01*
X108930Y133390D01*
X108433Y133439D01*
X108309Y133624D01*
X107658Y134059D01*
X106890Y134212D01*
X101772D01*
X101690Y134196D01*
X101056Y134830D01*
X101302Y135291D01*
X101772Y135198D01*
X106890D01*
X107658Y135350D01*
X108309Y135785D01*
X108744Y136437D01*
X108897Y137205D01*
X108744Y137973D01*
X108309Y138624D01*
X107658Y139059D01*
X106890Y139212D01*
X101772D01*
X101690Y139196D01*
X101056Y139830D01*
X101302Y140291D01*
X101772Y140198D01*
X106890D01*
X107658Y140350D01*
X108309Y140786D01*
X108744Y141437D01*
X108897Y142205D01*
X108744Y142973D01*
X108309Y143624D01*
X107658Y144059D01*
X106890Y144212D01*
X101772D01*
X101690Y144196D01*
X101056Y144830D01*
X101302Y145291D01*
X101772Y145198D01*
X106890D01*
X107658Y145350D01*
X108309Y145785D01*
X108744Y146437D01*
X108897Y147205D01*
X108744Y147973D01*
X108309Y148624D01*
X107658Y149059D01*
X106890Y149212D01*
X101772D01*
X101690Y149196D01*
X101056Y149830D01*
X101302Y150291D01*
X101772Y150198D01*
X106890D01*
X107658Y150350D01*
X108309Y150786D01*
X108744Y151437D01*
X108897Y152205D01*
X108744Y152973D01*
X108309Y153624D01*
X107658Y154059D01*
X106890Y154212D01*
X101772D01*
X101004Y154059D01*
X100352Y153624D01*
X99917Y152973D01*
X99765Y152205D01*
X99858Y151735D01*
X99397Y151489D01*
X96383Y154502D01*
Y158824D01*
X96883Y159031D01*
X97163Y158751D01*
X97787Y158492D01*
Y160433D01*
X98287D01*
Y160933D01*
X100228D01*
X100206Y160986D01*
X100484Y161402D01*
X101492D01*
Y161614D01*
X102524D01*
Y159212D01*
X101772D01*
X101004Y159059D01*
X100352Y158624D01*
X99917Y157973D01*
X99765Y157205D01*
X99917Y156437D01*
X100352Y155786D01*
X101004Y155350D01*
X101772Y155198D01*
X106890D01*
X107658Y155350D01*
X108309Y155786D01*
X108744Y156437D01*
X108897Y157205D01*
X108744Y157973D01*
X108496Y158345D01*
X108419Y158783D01*
X108591Y159033D01*
X108966Y159407D01*
X109224Y160031D01*
X107283D01*
Y161031D01*
X109224D01*
X108966Y161655D01*
X108407Y162214D01*
X107678Y162516D01*
X107185D01*
Y164571D01*
X111120Y168506D01*
X111511Y169092D01*
X111649Y169783D01*
Y172703D01*
X112149Y172910D01*
X112462Y172598D01*
D02*
G37*
G36*
X13863Y171263D02*
X14286Y170980D01*
X14785Y170880D01*
X15365D01*
X16006Y170239D01*
X15827Y169711D01*
X15532Y169673D01*
X14670Y169316D01*
X13930Y168748D01*
X13362Y168007D01*
X13005Y167146D01*
X12883Y166220D01*
X13005Y165296D01*
X13362Y164434D01*
X13930Y163693D01*
X14670Y163125D01*
X15532Y162768D01*
X16457Y162647D01*
X18819D01*
X19744Y162768D01*
X20606Y163125D01*
X21346Y163693D01*
X21914Y164434D01*
X22114Y164916D01*
X24324D01*
X24326Y164912D01*
X24451Y164416D01*
X23778Y163899D01*
X23176Y163115D01*
X22797Y162201D01*
X22734Y161721D01*
X32541D01*
X32478Y162201D01*
X32100Y163115D01*
X31498Y163899D01*
X30824Y164416D01*
X30949Y164912D01*
X30952Y164916D01*
X44969D01*
X45469Y165015D01*
X45892Y165298D01*
X49919Y169325D01*
X51867D01*
X52074Y168825D01*
X51692Y168444D01*
X51148Y167501D01*
X50866Y166450D01*
Y165361D01*
X51148Y164310D01*
X51692Y163367D01*
X52462Y162598D01*
X52744Y162434D01*
X52610Y161934D01*
X52329D01*
X51830Y161835D01*
X51407Y161552D01*
X48344Y158490D01*
X32088D01*
X31841Y158990D01*
X32100Y159326D01*
X32478Y160240D01*
X32541Y160721D01*
X22734D01*
X22797Y160240D01*
X23176Y159326D01*
X23510Y158891D01*
X23263Y158391D01*
X21619D01*
X21346Y158748D01*
X20606Y159316D01*
X19744Y159673D01*
X18819Y159794D01*
X16457D01*
X15532Y159673D01*
X14670Y159316D01*
X13930Y158748D01*
X13362Y158007D01*
X13005Y157146D01*
X12994Y157067D01*
X12459Y156835D01*
X12344Y156918D01*
Y172128D01*
X12806Y172319D01*
X13863Y171263D01*
D02*
G37*
G36*
X41916Y150357D02*
X42340Y150074D01*
X42839Y149975D01*
X52781D01*
X52915Y149475D01*
X52462Y149213D01*
X51692Y148444D01*
X51148Y147501D01*
X50866Y146450D01*
Y145361D01*
X51148Y144310D01*
X51692Y143367D01*
X52462Y142598D01*
X52540Y142553D01*
X52406Y142053D01*
X42623D01*
X37533Y147143D01*
X37110Y147426D01*
X36610Y147525D01*
X30952D01*
X30949Y147529D01*
X30824Y148025D01*
X31498Y148542D01*
X32100Y149326D01*
X32478Y150240D01*
X32541Y150721D01*
X27638D01*
Y151720D01*
X32541D01*
X32478Y152201D01*
X32100Y153115D01*
X31841Y153451D01*
X32088Y153951D01*
X38322D01*
X41916Y150357D01*
D02*
G37*
G36*
X41161Y139825D02*
X41584Y139543D01*
X42083Y139443D01*
X51985D01*
X52192Y138943D01*
X51692Y138444D01*
X51148Y137501D01*
X50866Y136450D01*
Y135361D01*
X51148Y134310D01*
X51692Y133367D01*
X52074Y132986D01*
X51867Y132486D01*
X48845D01*
X44188Y137143D01*
X43765Y137426D01*
X43265Y137525D01*
X30952D01*
X30949Y137529D01*
X30824Y138025D01*
X31498Y138542D01*
X32100Y139326D01*
X32478Y140240D01*
X32541Y140720D01*
X27638D01*
Y141720D01*
X32541D01*
X32478Y142201D01*
X32100Y143115D01*
X31498Y143899D01*
X30824Y144416D01*
X30949Y144912D01*
X30952Y144916D01*
X36070D01*
X41161Y139825D01*
D02*
G37*
G36*
X24216Y135298D02*
X24585Y135052D01*
X24620Y134803D01*
X24594Y134514D01*
X24563Y134501D01*
X23778Y133899D01*
X23176Y133115D01*
X22797Y132201D01*
X22734Y131720D01*
X32541D01*
X32478Y132201D01*
X32100Y133115D01*
X31498Y133899D01*
X30824Y134416D01*
X30949Y134912D01*
X30952Y134916D01*
X42725D01*
X47382Y130259D01*
X47806Y129976D01*
X48305Y129876D01*
X52610D01*
X52744Y129376D01*
X52462Y129213D01*
X51692Y128444D01*
X51148Y127501D01*
X50866Y126450D01*
Y125361D01*
X51148Y124310D01*
X51692Y123367D01*
X52192Y122868D01*
X51985Y122368D01*
X42466D01*
X37690Y127143D01*
X37267Y127426D01*
X36768Y127525D01*
X30952D01*
X30949Y127529D01*
X30824Y128025D01*
X31498Y128542D01*
X32100Y129326D01*
X32478Y130240D01*
X32541Y130720D01*
X22734D01*
X22797Y130240D01*
X23176Y129326D01*
X23778Y128542D01*
X24451Y128025D01*
X24326Y127529D01*
X24324Y127525D01*
X22114D01*
X21914Y128007D01*
X21346Y128748D01*
X20606Y129315D01*
X19744Y129673D01*
X18819Y129794D01*
X17942D01*
X17751Y130256D01*
X18560Y131066D01*
X18843Y131489D01*
X18942Y131988D01*
Y132663D01*
X19744Y132768D01*
X20606Y133125D01*
X21346Y133693D01*
X21914Y134433D01*
X22271Y135295D01*
X22393Y136221D01*
X22363Y136444D01*
X22837Y136677D01*
X24216Y135298D01*
D02*
G37*
G36*
X41003Y120141D02*
X41426Y119858D01*
X41925Y119758D01*
X52406D01*
X52540Y119258D01*
X52462Y119213D01*
X51692Y118444D01*
X51148Y117501D01*
X50866Y116450D01*
Y115361D01*
X51148Y114310D01*
X51692Y113367D01*
X52074Y112986D01*
X51867Y112486D01*
X46778D01*
X41255Y118009D01*
X40832Y118292D01*
X40332Y118391D01*
X32012D01*
X31766Y118891D01*
X32100Y119326D01*
X32478Y120240D01*
X32541Y120721D01*
X27638D01*
Y121721D01*
X32541D01*
X32478Y122201D01*
X32100Y123115D01*
X31498Y123899D01*
X30824Y124416D01*
X30949Y124912D01*
X30952Y124916D01*
X36228D01*
X41003Y120141D01*
D02*
G37*
G36*
X15158Y139968D02*
X15060Y139477D01*
X14670Y139315D01*
X13930Y138748D01*
X13362Y138007D01*
X13005Y137145D01*
X12883Y136221D01*
X13005Y135295D01*
X13362Y134433D01*
X13930Y133693D01*
X14670Y133125D01*
X15532Y132768D01*
X15827Y132729D01*
X16006Y132202D01*
X15365Y131561D01*
X14785D01*
X14286Y131461D01*
X13863Y131178D01*
X11499Y128814D01*
X11216Y128391D01*
X11117Y127892D01*
Y124549D01*
X11216Y124050D01*
X11499Y123626D01*
X14995Y120130D01*
X14897Y119640D01*
X14562Y119501D01*
X13778Y118899D01*
X13176Y118115D01*
X12798Y117201D01*
X12734Y116720D01*
X22541D01*
X22518Y116900D01*
X22991Y117134D01*
X23961Y116164D01*
X24384Y115881D01*
X24884Y115782D01*
X39792D01*
X45315Y110259D01*
X45739Y109976D01*
X46238Y109877D01*
X52610D01*
X52744Y109377D01*
X52462Y109213D01*
X51692Y108444D01*
X51148Y107501D01*
X50866Y106450D01*
Y105361D01*
X51148Y104310D01*
X51692Y103367D01*
X51810Y103250D01*
X51496Y102880D01*
X50845Y103150D01*
X50140D01*
X49489Y102880D01*
X48990Y102382D01*
X48720Y101730D01*
Y101025D01*
X48990Y100374D01*
X49187Y100177D01*
Y99218D01*
X48992Y98924D01*
X48892Y98425D01*
Y90709D01*
X48992Y90209D01*
X49274Y89786D01*
X51298Y87762D01*
X51148Y87501D01*
X50866Y86450D01*
Y85361D01*
X51011Y84820D01*
X50603Y84412D01*
X50467Y84449D01*
X49534D01*
X48632Y84207D01*
X47824Y83741D01*
X47165Y83081D01*
X46698Y82273D01*
X46457Y81372D01*
Y80439D01*
X46698Y79538D01*
X47165Y78730D01*
X47824Y78070D01*
X48632Y77604D01*
X49534Y77362D01*
X50467D01*
X50603Y77399D01*
X51011Y76990D01*
X50866Y76450D01*
Y75361D01*
X51011Y74821D01*
X50603Y74412D01*
X50467Y74449D01*
X49534D01*
X48632Y74207D01*
X47824Y73741D01*
X47165Y73081D01*
X46698Y72273D01*
X46457Y71372D01*
Y70439D01*
X46698Y69538D01*
X47165Y68730D01*
X47824Y68070D01*
X48632Y67604D01*
X49534Y67362D01*
X50467D01*
X50603Y67399D01*
X51011Y66991D01*
X50866Y66450D01*
Y65361D01*
X51011Y64820D01*
X50603Y64412D01*
X50467Y64449D01*
X49534D01*
X48632Y64207D01*
X47824Y63741D01*
X47165Y63081D01*
X46698Y62273D01*
X46457Y61372D01*
Y60439D01*
X46698Y59538D01*
X47165Y58730D01*
X47824Y58070D01*
X48632Y57604D01*
X49534Y57362D01*
X50467D01*
X50603Y57399D01*
X51011Y56990D01*
X50866Y56450D01*
Y55361D01*
X51011Y54821D01*
X50603Y54412D01*
X50467Y54449D01*
X49534D01*
X48632Y54207D01*
X47824Y53741D01*
X47165Y53081D01*
X46698Y52273D01*
X46457Y51372D01*
Y50439D01*
X46698Y49538D01*
X47165Y48730D01*
X47824Y48070D01*
X48632Y47604D01*
X49534Y47362D01*
X50467D01*
X50603Y47399D01*
X51011Y46990D01*
X50866Y46450D01*
Y45361D01*
X51011Y44820D01*
X50603Y44412D01*
X50467Y44449D01*
X49534D01*
X48632Y44207D01*
X47824Y43741D01*
X47165Y43081D01*
X46698Y42273D01*
X46457Y41372D01*
Y40439D01*
X46698Y39538D01*
X47165Y38730D01*
X47824Y38070D01*
X48632Y37604D01*
X49534Y37362D01*
X50467D01*
X50603Y37399D01*
X51011Y36990D01*
X50866Y36450D01*
Y35361D01*
X51011Y34821D01*
X50603Y34412D01*
X50467Y34449D01*
X49534D01*
X48632Y34207D01*
X47824Y33741D01*
X47165Y33081D01*
X46698Y32273D01*
X46457Y31372D01*
Y30439D01*
X46698Y29538D01*
X47165Y28730D01*
X47824Y28070D01*
X48632Y27604D01*
X49534Y27362D01*
X50467D01*
X50603Y27399D01*
X51011Y26991D01*
X50866Y26450D01*
Y25361D01*
X50976Y24951D01*
X49540Y23515D01*
X38122D01*
X38023Y24015D01*
X38526Y24223D01*
X39084Y24781D01*
X39342Y25405D01*
X35461D01*
X35719Y24781D01*
X36278Y24223D01*
X36781Y24015D01*
X36681Y23515D01*
X31574D01*
X31451Y23597D01*
X31027Y23682D01*
Y26599D01*
X31421Y26862D01*
X31845Y27497D01*
X31994Y28246D01*
Y31691D01*
X31845Y32440D01*
X31421Y33075D01*
X30786Y33499D01*
X30037Y33648D01*
X27774D01*
X27025Y33499D01*
X26390Y33075D01*
X25966Y32440D01*
X25817Y31691D01*
Y28246D01*
X25966Y27497D01*
X26390Y26862D01*
X27025Y26438D01*
X27414Y26361D01*
Y23460D01*
X27164Y23293D01*
X26860Y22837D01*
X26752Y22299D01*
Y21118D01*
X26860Y20581D01*
X27164Y20125D01*
X26974Y19650D01*
X26659Y19180D01*
X26536Y18559D01*
Y18469D01*
X29535D01*
Y17469D01*
X26536D01*
Y17378D01*
X26659Y16757D01*
X26974Y16287D01*
X27164Y15812D01*
X26860Y15357D01*
X26752Y14819D01*
Y13638D01*
X26860Y13100D01*
X27164Y12644D01*
X27620Y12340D01*
X28157Y12233D01*
X30913D01*
X31451Y12340D01*
X31907Y12644D01*
X32211Y13100D01*
X32247Y13280D01*
X32583Y13347D01*
X33169Y13738D01*
X34553Y15122D01*
X34944Y15708D01*
X35082Y16399D01*
Y19902D01*
X50288D01*
X50980Y20040D01*
X51566Y20431D01*
X52732Y21597D01*
X53194Y21406D01*
Y11811D01*
Y10945D01*
X53331Y10254D01*
X53723Y9668D01*
X59746Y3644D01*
X60332Y3252D01*
X61024Y3115D01*
X63091D01*
Y2165D01*
X62657Y2004D01*
X31419D01*
X31267Y2504D01*
X31574Y2709D01*
X32046Y3414D01*
X32114Y3760D01*
X32685Y4065D01*
X32776Y4028D01*
Y5968D01*
Y7909D01*
X32685Y7872D01*
X32114Y8177D01*
X32046Y8523D01*
X31574Y9228D01*
X30869Y9699D01*
X30037Y9865D01*
X29406D01*
Y5968D01*
X28905D01*
Y5469D01*
X25600D01*
Y4246D01*
X25765Y3414D01*
X26237Y2709D01*
X26544Y2504D01*
X26392Y2004D01*
X23884D01*
X23798Y2504D01*
X24335Y2862D01*
X24759Y3497D01*
X24908Y4246D01*
Y7691D01*
X24759Y8440D01*
X24335Y9075D01*
X23700Y9499D01*
X23310Y9576D01*
Y12477D01*
X23560Y12644D01*
X23865Y13100D01*
X23972Y13638D01*
Y14819D01*
X23865Y15357D01*
X23560Y15812D01*
X23105Y16117D01*
X22567Y16224D01*
X19811D01*
X19273Y16117D01*
X18818Y15812D01*
X18513Y15357D01*
X18406Y14819D01*
Y13638D01*
X18507Y13133D01*
X18485Y13103D01*
X17991Y12941D01*
X9769Y21164D01*
Y144703D01*
X10231Y144895D01*
X15158Y139968D01*
D02*
G37*
G36*
X63666Y19169D02*
Y15899D01*
X63804Y15207D01*
X64139Y14706D01*
Y7677D01*
X63091D01*
Y6728D01*
X61772D01*
X59894Y8606D01*
X60177Y9030D01*
X60524Y8886D01*
Y10327D01*
X59083D01*
X59227Y9980D01*
X58803Y9697D01*
X56806Y11693D01*
Y18388D01*
X57306Y18588D01*
X57824Y18070D01*
X58632Y17604D01*
X59534Y17362D01*
X60466D01*
X61368Y17604D01*
X62176Y18070D01*
X62835Y18730D01*
X63166Y19303D01*
X63666Y19169D01*
D02*
G37*
G36*
X4195Y70021D02*
Y13996D01*
X4302Y13458D01*
X4607Y13002D01*
X7087Y10522D01*
Y10385D01*
X7356Y9734D01*
X7855Y9236D01*
X8506Y8966D01*
X9211D01*
X9862Y9236D01*
X10360Y9734D01*
X10630Y10385D01*
Y11090D01*
X10360Y11741D01*
X9862Y12239D01*
X9211Y12509D01*
X9074D01*
X7005Y14578D01*
Y18165D01*
X7467Y18357D01*
X18730Y7093D01*
Y4246D01*
X18879Y3497D01*
X19303Y2862D01*
X19840Y2504D01*
X19754Y2004D01*
X16339D01*
X15373Y2004D01*
X13459Y2256D01*
X11594Y2756D01*
X9810Y3494D01*
X8138Y4460D01*
X6607Y5635D01*
X5241Y7000D01*
X4066Y8532D01*
X3101Y10204D01*
X2362Y11988D01*
X1862Y13853D01*
X1610Y15767D01*
Y16732D01*
Y71952D01*
X2072Y72144D01*
X4195Y70021D01*
D02*
G37*
%LPC*%
G36*
X12311Y347413D02*
Y345972D01*
X13752D01*
X13493Y346596D01*
X12935Y347155D01*
X12311Y347413D01*
D02*
G37*
G36*
X11311D02*
X10687Y347155D01*
X10129Y346596D01*
X9870Y345972D01*
X11311D01*
Y347413D01*
D02*
G37*
G36*
X72433Y347256D02*
X67315D01*
Y345903D01*
X59437D01*
X59431Y345932D01*
X59094Y346437D01*
X58589Y346774D01*
X57994Y346892D01*
X56321D01*
X55726Y346774D01*
X55221Y346437D01*
X54884Y345932D01*
X54765Y345337D01*
Y343860D01*
X54884Y343265D01*
X55221Y342760D01*
X55726Y342423D01*
X56321Y342305D01*
X57994D01*
X58589Y342423D01*
X59094Y342760D01*
X59431Y343265D01*
X59437Y343294D01*
X67315D01*
Y341941D01*
X72433D01*
Y347256D01*
D02*
G37*
G36*
X51695Y347109D02*
X51358D01*
Y345098D01*
X53467D01*
Y345337D01*
X53332Y346015D01*
X52948Y346590D01*
X52373Y346974D01*
X51695Y347109D01*
D02*
G37*
G36*
X50358D02*
X50022D01*
X49343Y346974D01*
X48768Y346590D01*
X48384Y346015D01*
X48249Y345337D01*
Y345098D01*
X50358D01*
Y347109D01*
D02*
G37*
G36*
X13752Y344972D02*
X12311D01*
Y343532D01*
X12935Y343790D01*
X13493Y344349D01*
X13752Y344972D01*
D02*
G37*
G36*
X11311D02*
X9870D01*
X10129Y344349D01*
X10687Y343790D01*
X11311Y343532D01*
Y344972D01*
D02*
G37*
G36*
X53467Y344098D02*
X51358D01*
Y342088D01*
X51695D01*
X52373Y342223D01*
X52948Y342607D01*
X53332Y343182D01*
X53467Y343860D01*
Y344098D01*
D02*
G37*
G36*
X50358D02*
X48249D01*
Y343860D01*
X48384Y343182D01*
X48768Y342607D01*
X49343Y342223D01*
X50022Y342088D01*
X50358D01*
Y344098D01*
D02*
G37*
G36*
X72433Y341256D02*
X67315D01*
Y339903D01*
X59437D01*
X59431Y339932D01*
X59094Y340437D01*
X58589Y340774D01*
X57994Y340892D01*
X56321D01*
X55726Y340774D01*
X55221Y340437D01*
X54884Y339932D01*
X54765Y339337D01*
Y337860D01*
X54884Y337265D01*
X55221Y336760D01*
X55726Y336423D01*
X56321Y336305D01*
X57994D01*
X58589Y336423D01*
X59094Y336760D01*
X59431Y337265D01*
X59437Y337294D01*
X67315D01*
Y335941D01*
X72433D01*
Y341256D01*
D02*
G37*
G36*
X51695Y341109D02*
X51358D01*
Y339099D01*
X53467D01*
Y339337D01*
X53332Y340015D01*
X52948Y340590D01*
X52373Y340974D01*
X51695Y341109D01*
D02*
G37*
G36*
X50358D02*
X50022D01*
X49343Y340974D01*
X48768Y340590D01*
X48384Y340015D01*
X48249Y339337D01*
Y339099D01*
X50358D01*
Y341109D01*
D02*
G37*
G36*
X88236Y350090D02*
X82390Y344244D01*
X88236Y338398D01*
X94082Y344244D01*
X88236Y350090D01*
D02*
G37*
G36*
X53467Y338099D02*
X51358D01*
Y336088D01*
X51695D01*
X52373Y336223D01*
X52948Y336607D01*
X53332Y337182D01*
X53467Y337860D01*
Y338099D01*
D02*
G37*
G36*
X50358D02*
X48249D01*
Y337860D01*
X48384Y337182D01*
X48768Y336607D01*
X49343Y336223D01*
X50022Y336088D01*
X50358D01*
Y338099D01*
D02*
G37*
G36*
X72433Y335256D02*
X67315D01*
Y333903D01*
X59437D01*
X59431Y333932D01*
X59094Y334437D01*
X58589Y334774D01*
X57994Y334892D01*
X56321D01*
X55726Y334774D01*
X55221Y334437D01*
X54884Y333932D01*
X54765Y333337D01*
Y331860D01*
X54884Y331265D01*
X55221Y330761D01*
X55726Y330423D01*
X56321Y330305D01*
X57994D01*
X58589Y330423D01*
X59094Y330761D01*
X59431Y331265D01*
X59437Y331294D01*
X67315D01*
Y329941D01*
X72433D01*
Y335256D01*
D02*
G37*
G36*
X51695Y335109D02*
X51358D01*
Y333099D01*
X53467D01*
Y333337D01*
X53332Y334015D01*
X52948Y334590D01*
X52373Y334974D01*
X51695Y335109D01*
D02*
G37*
G36*
X50358D02*
X50022D01*
X49343Y334974D01*
X48768Y334590D01*
X48384Y334015D01*
X48249Y333337D01*
Y333099D01*
X50358D01*
Y335109D01*
D02*
G37*
G36*
X95851Y341307D02*
X94763D01*
X93712Y341025D01*
X92769Y340481D01*
X91999Y339711D01*
X91455Y338769D01*
X91173Y337717D01*
Y336629D01*
X91455Y335577D01*
X91999Y334635D01*
X92769Y333865D01*
X93712Y333321D01*
X94763Y333039D01*
X95851D01*
X96903Y333321D01*
X97846Y333865D01*
X98615Y334635D01*
X99159Y335577D01*
X99441Y336629D01*
Y337717D01*
X99159Y338769D01*
X98615Y339711D01*
X97846Y340481D01*
X96903Y341025D01*
X95851Y341307D01*
D02*
G37*
G36*
X53467Y332099D02*
X51358D01*
Y330088D01*
X51695D01*
X52373Y330223D01*
X52948Y330607D01*
X53332Y331182D01*
X53467Y331860D01*
Y332099D01*
D02*
G37*
G36*
X50358D02*
X48249D01*
Y331860D01*
X48384Y331182D01*
X48768Y330607D01*
X49343Y330223D01*
X50022Y330088D01*
X50358D01*
Y332099D01*
D02*
G37*
G36*
X25016Y332878D02*
X21169D01*
Y329032D01*
X25016D01*
Y332878D01*
D02*
G37*
G36*
X20169D02*
X16323D01*
Y329032D01*
X20169D01*
Y332878D01*
D02*
G37*
G36*
X72433Y329256D02*
X67315D01*
Y327903D01*
X59437D01*
X59431Y327932D01*
X59094Y328437D01*
X58589Y328774D01*
X57994Y328892D01*
X56321D01*
X55726Y328774D01*
X55221Y328437D01*
X54884Y327932D01*
X54765Y327337D01*
Y325860D01*
X54884Y325265D01*
X55221Y324761D01*
X55726Y324423D01*
X56321Y324305D01*
X57994D01*
X58589Y324423D01*
X59094Y324761D01*
X59431Y325265D01*
X59437Y325294D01*
X67315D01*
Y323941D01*
X72433D01*
Y329256D01*
D02*
G37*
G36*
X51695Y329109D02*
X51358D01*
Y327098D01*
X53467D01*
Y327337D01*
X53332Y328015D01*
X52948Y328590D01*
X52373Y328974D01*
X51695Y329109D01*
D02*
G37*
G36*
X50358D02*
X50022D01*
X49343Y328974D01*
X48768Y328590D01*
X48384Y328015D01*
X48249Y327337D01*
Y327098D01*
X50358D01*
Y329109D01*
D02*
G37*
G36*
X102923Y334236D02*
X101834D01*
X100783Y333954D01*
X99840Y333410D01*
X99071Y332640D01*
X98526Y331698D01*
X98245Y330646D01*
Y329558D01*
X98526Y328506D01*
X99071Y327564D01*
X99840Y326794D01*
X100783Y326250D01*
X101834Y325968D01*
X102923D01*
X103974Y326250D01*
X104917Y326794D01*
X105686Y327564D01*
X106230Y328506D01*
X106512Y329558D01*
Y330646D01*
X106230Y331698D01*
X105686Y332640D01*
X104917Y333410D01*
X103974Y333954D01*
X102923Y334236D01*
D02*
G37*
G36*
X53467Y326098D02*
X51358D01*
Y324088D01*
X51695D01*
X52373Y324223D01*
X52948Y324607D01*
X53332Y325182D01*
X53467Y325860D01*
Y326098D01*
D02*
G37*
G36*
X50358D02*
X48249D01*
Y325860D01*
X48384Y325182D01*
X48768Y324607D01*
X49343Y324223D01*
X50022Y324088D01*
X50358D01*
Y326098D01*
D02*
G37*
G36*
X78732Y347256D02*
X73614D01*
Y341941D01*
X76779D01*
X76919Y341756D01*
X76670Y341256D01*
X73614D01*
Y335941D01*
X76779D01*
X76919Y335756D01*
X76670Y335256D01*
X73614D01*
Y329941D01*
X78732D01*
Y331041D01*
X79232Y331189D01*
X83895Y326526D01*
Y323920D01*
X83434Y323729D01*
X79641Y327521D01*
X79218Y327804D01*
X78732Y327901D01*
Y329256D01*
X73614D01*
Y323941D01*
X78732D01*
Y324087D01*
X79194Y324278D01*
X80861Y322611D01*
X80669Y322150D01*
X77240D01*
Y322362D01*
X74673D01*
Y319394D01*
Y316425D01*
X77240D01*
Y316638D01*
X80349D01*
Y315827D01*
X79887Y315636D01*
X79864Y315658D01*
X79240Y315917D01*
Y313976D01*
X78740D01*
Y313476D01*
X76799D01*
X77058Y312852D01*
X77616Y312294D01*
X78150Y312073D01*
X78128Y311805D01*
X78036Y311579D01*
X77573Y311487D01*
X77126Y311189D01*
X76679Y311487D01*
X76142Y311594D01*
X75604Y311487D01*
X75157Y311189D01*
X74711Y311487D01*
X74173Y311594D01*
X73636Y311487D01*
X73369Y311309D01*
X73351Y311336D01*
X72825Y311687D01*
X72705Y311711D01*
Y308024D01*
Y304336D01*
X72825Y304360D01*
X73351Y304712D01*
X73369Y304738D01*
X73636Y304560D01*
X74173Y304453D01*
X74711Y304560D01*
X75157Y304859D01*
X75604Y304560D01*
X76142Y304453D01*
X76679Y304560D01*
X77126Y304859D01*
X77573Y304560D01*
X78110Y304453D01*
X78648Y304560D01*
X79094Y304859D01*
X79541Y304560D01*
X80079Y304453D01*
X80393Y304031D01*
X80412Y303713D01*
X78802Y302104D01*
X78519Y301680D01*
X78420Y301181D01*
Y298445D01*
X78223Y298248D01*
X77953Y297597D01*
Y296892D01*
X78223Y296240D01*
X78420Y296043D01*
Y284665D01*
X78223Y284468D01*
X77953Y283817D01*
Y283112D01*
X78223Y282461D01*
X78721Y281963D01*
X79372Y281693D01*
X80077D01*
X80728Y281963D01*
X81226Y282461D01*
X81496Y283112D01*
Y283817D01*
X81226Y284468D01*
X81029Y284665D01*
Y295939D01*
X83661D01*
X84161Y296039D01*
X84584Y296322D01*
X90946Y302684D01*
X92664D01*
X93164Y302783D01*
X93587Y303066D01*
X94682Y304161D01*
X94965Y304584D01*
X95064Y305084D01*
Y305183D01*
X95156Y305321D01*
X95263Y305858D01*
Y309749D01*
X95964Y310450D01*
X96247Y310873D01*
X96346Y311372D01*
Y316286D01*
X96786Y316431D01*
X96786Y316431D01*
Y316431D01*
X96786Y316431D01*
X99353D01*
Y319400D01*
Y322369D01*
X96786D01*
Y322156D01*
X91093D01*
Y316644D01*
X93737D01*
Y312255D01*
X93596Y312160D01*
X93096Y312428D01*
Y312575D01*
X92997Y313074D01*
X92714Y313497D01*
X90076Y316135D01*
Y328506D01*
X89977Y329005D01*
X89905Y329113D01*
Y332172D01*
X89805Y332671D01*
X89522Y333094D01*
X78732Y343884D01*
Y347256D01*
D02*
G37*
G36*
X41839Y322807D02*
Y321366D01*
X43279D01*
X43021Y321990D01*
X42463Y322548D01*
X41839Y322807D01*
D02*
G37*
G36*
X40839D02*
X40215Y322548D01*
X39656Y321990D01*
X39398Y321366D01*
X40839D01*
Y322807D01*
D02*
G37*
G36*
X102920Y322369D02*
X100353D01*
Y319900D01*
X102920D01*
Y322369D01*
D02*
G37*
G36*
X73673Y322362D02*
X71106D01*
Y319894D01*
X73673D01*
Y322362D01*
D02*
G37*
G36*
X43279Y320366D02*
X41839D01*
Y318925D01*
X42463Y319184D01*
X43021Y319742D01*
X43279Y320366D01*
D02*
G37*
G36*
X40839D02*
X39398D01*
X39656Y319742D01*
X40215Y319184D01*
X40839Y318925D01*
Y320366D01*
D02*
G37*
G36*
X109994Y327165D02*
X108905D01*
X107854Y326883D01*
X106911Y326339D01*
X106141Y325569D01*
X105597Y324626D01*
X105316Y323575D01*
Y322487D01*
X105597Y321435D01*
X106141Y320493D01*
X106911Y319723D01*
X107854Y319179D01*
X108905Y318897D01*
X109994D01*
X111045Y319179D01*
X111988Y319723D01*
X112757Y320493D01*
X113302Y321435D01*
X113583Y322487D01*
Y323575D01*
X113302Y324626D01*
X112757Y325569D01*
X111988Y326339D01*
X111045Y326883D01*
X109994Y327165D01*
D02*
G37*
G36*
X102920Y318900D02*
X100353D01*
Y316431D01*
X102920D01*
Y318900D01*
D02*
G37*
G36*
X73673Y318894D02*
X71106D01*
Y316425D01*
X73673D01*
Y318894D01*
D02*
G37*
G36*
X78240Y315917D02*
X77616Y315658D01*
X77058Y315100D01*
X76799Y314476D01*
X78240D01*
Y315917D01*
D02*
G37*
G36*
X117065Y320094D02*
X115976D01*
X114925Y319812D01*
X113982Y319268D01*
X113213Y318498D01*
X112668Y317555D01*
X112387Y316504D01*
Y315416D01*
X112668Y314364D01*
X113213Y313422D01*
X113982Y312652D01*
X114925Y312108D01*
X115976Y311826D01*
X117065D01*
X118116Y312108D01*
X119059Y312652D01*
X119828Y313422D01*
X120373Y314364D01*
X120654Y315416D01*
Y316504D01*
X120373Y317555D01*
X119828Y318498D01*
X119059Y319268D01*
X118116Y319812D01*
X117065Y320094D01*
D02*
G37*
G36*
X71705Y311711D02*
X71584Y311687D01*
X71058Y311336D01*
X71040Y311309D01*
X70774Y311487D01*
X70236Y311594D01*
X69699Y311487D01*
X69252Y311189D01*
X68805Y311487D01*
X68268Y311594D01*
X67730Y311487D01*
X67283Y311189D01*
X66837Y311487D01*
X66299Y311594D01*
X65762Y311487D01*
X65315Y311189D01*
X64868Y311487D01*
X64331Y311594D01*
X63793Y311487D01*
X63346Y311189D01*
X62900Y311487D01*
X62362Y311594D01*
X61825Y311487D01*
X61378Y311189D01*
X60931Y311487D01*
X60394Y311594D01*
X59856Y311487D01*
X59590Y311309D01*
X59572Y311336D01*
X59046Y311687D01*
X58925Y311711D01*
Y308024D01*
Y304336D01*
X59046Y304360D01*
X59572Y304712D01*
X59590Y304738D01*
X59856Y304560D01*
X60394Y304453D01*
X60931Y304560D01*
X61378Y304859D01*
X61825Y304560D01*
X62362Y304453D01*
X62900Y304560D01*
X63346Y304859D01*
X63793Y304560D01*
X64331Y304453D01*
X64868Y304560D01*
X65315Y304859D01*
X65762Y304560D01*
X66299Y304453D01*
X66837Y304560D01*
X67283Y304859D01*
X67730Y304560D01*
X68268Y304453D01*
X68805Y304560D01*
X69252Y304859D01*
X69699Y304560D01*
X70236Y304453D01*
X70774Y304560D01*
X71040Y304738D01*
X71058Y304712D01*
X71584Y304360D01*
X71705Y304336D01*
Y308024D01*
Y311711D01*
D02*
G37*
G36*
X43279Y311508D02*
X41839D01*
Y310067D01*
X42463Y310326D01*
X43021Y310884D01*
X43279Y311508D01*
D02*
G37*
G36*
X40839D02*
X39398D01*
X39656Y310884D01*
X40215Y310326D01*
X40839Y310067D01*
Y311508D01*
D02*
G37*
G36*
X124164Y313235D02*
X123019D01*
X121914Y312939D01*
X120923Y312367D01*
X120872Y312316D01*
X123592Y309596D01*
X126311Y312316D01*
X126260Y312367D01*
X125269Y312939D01*
X124164Y313235D01*
D02*
G37*
G36*
X101127Y311014D02*
Y309574D01*
X102568D01*
X102309Y310198D01*
X101751Y310756D01*
X101127Y311014D01*
D02*
G37*
G36*
X100127D02*
X99503Y310756D01*
X98945Y310198D01*
X98686Y309574D01*
X100127D01*
Y311014D01*
D02*
G37*
G36*
X102568Y308574D02*
X101127D01*
Y307133D01*
X101751Y307392D01*
X102309Y307950D01*
X102568Y308574D01*
D02*
G37*
G36*
X100127D02*
X98686D01*
X98945Y307950D01*
X99503Y307392D01*
X100127Y307133D01*
Y308574D01*
D02*
G37*
G36*
X120165Y311609D02*
X120114Y311558D01*
X119541Y310566D01*
X119245Y309461D01*
Y308316D01*
X119541Y307211D01*
X120114Y306220D01*
X120165Y306169D01*
X122884Y308889D01*
X120165Y311609D01*
D02*
G37*
G36*
X127018Y311609D02*
X124299Y308889D01*
X127018Y306169D01*
X127070Y306220D01*
X127642Y307211D01*
X127938Y308316D01*
Y309461D01*
X127642Y310566D01*
X127070Y311558D01*
X127018Y311609D01*
D02*
G37*
G36*
X113475Y306938D02*
Y305498D01*
X114916D01*
X114657Y306121D01*
X114099Y306680D01*
X113475Y306938D01*
D02*
G37*
G36*
X112475D02*
X111851Y306680D01*
X111293Y306121D01*
X111035Y305498D01*
X112475D01*
Y306938D01*
D02*
G37*
G36*
X123592Y308182D02*
X120872Y305462D01*
X120923Y305411D01*
X121914Y304838D01*
X123019Y304542D01*
X124164D01*
X125269Y304838D01*
X126260Y305411D01*
X126311Y305462D01*
X123592Y308182D01*
D02*
G37*
G36*
X46114Y307524D02*
X44993D01*
Y305858D01*
X45116Y305238D01*
X45467Y304712D01*
X45994Y304360D01*
X46114Y304336D01*
Y307524D01*
D02*
G37*
G36*
X64683Y294094D02*
X63978D01*
X63327Y293825D01*
X62829Y293326D01*
X62559Y292675D01*
Y291970D01*
X62829Y291319D01*
X63327Y290821D01*
X63978Y290551D01*
X64683D01*
X65334Y290821D01*
X65478Y290965D01*
X66009D01*
X67874Y289100D01*
Y288821D01*
X68144Y288170D01*
X68642Y287671D01*
X69293Y287402D01*
X69998D01*
X70649Y287671D01*
X71148Y288170D01*
X71417Y288821D01*
Y289526D01*
X71148Y290177D01*
X70649Y290675D01*
X69998Y290945D01*
X69719D01*
X67418Y293245D01*
X66995Y293528D01*
X66496Y293627D01*
X65532D01*
X65334Y293825D01*
X64683Y294094D01*
D02*
G37*
G36*
X114205Y289413D02*
X111736D01*
Y286846D01*
X114205D01*
Y289413D01*
D02*
G37*
G36*
X61566Y280836D02*
Y279396D01*
X63007D01*
X62748Y280020D01*
X62190Y280578D01*
X61566Y280836D01*
D02*
G37*
G36*
X60566D02*
X59942Y280578D01*
X59384Y280020D01*
X59126Y279396D01*
X60566D01*
Y280836D01*
D02*
G37*
G36*
X70382Y280498D02*
Y278059D01*
X72821D01*
X72648Y278705D01*
X72257Y279382D01*
X71705Y279935D01*
X71028Y280325D01*
X70382Y280498D01*
D02*
G37*
G36*
X69382D02*
X68736Y280325D01*
X68059Y279935D01*
X67506Y279382D01*
X67116Y278705D01*
X66943Y278059D01*
X69382D01*
Y280498D01*
D02*
G37*
G36*
X63007Y278396D02*
X61566D01*
Y276955D01*
X62190Y277214D01*
X62748Y277772D01*
X63007Y278396D01*
D02*
G37*
G36*
X60566D02*
X59126D01*
X59384Y277772D01*
X59942Y277214D01*
X60566Y276955D01*
Y278396D01*
D02*
G37*
G36*
X115642Y276547D02*
X115018Y276289D01*
X114460Y275730D01*
X114201Y275106D01*
X115642D01*
Y276547D01*
D02*
G37*
G36*
X72821Y277059D02*
X70382D01*
Y274620D01*
X71028Y274793D01*
X71705Y275184D01*
X72257Y275736D01*
X72648Y276413D01*
X72821Y277059D01*
D02*
G37*
G36*
X69382D02*
X66943D01*
X67116Y276413D01*
X67506Y275736D01*
X68059Y275184D01*
X68736Y274793D01*
X69382Y274620D01*
Y277059D01*
D02*
G37*
G36*
X115642Y274106D02*
X114201D01*
X114460Y273482D01*
X115018Y272924D01*
X115642Y272666D01*
Y274106D01*
D02*
G37*
G36*
X21241Y259268D02*
X21169D01*
Y255421D01*
X25016D01*
Y255493D01*
X24720Y256599D01*
X24147Y257590D01*
X23338Y258399D01*
X22347Y258972D01*
X21241Y259268D01*
D02*
G37*
G36*
X20169D02*
X20097D01*
X18992Y258972D01*
X18000Y258399D01*
X17191Y257590D01*
X16619Y256599D01*
X16323Y255493D01*
Y255421D01*
X20169D01*
Y259268D01*
D02*
G37*
G36*
X43609Y253587D02*
X40421D01*
Y252465D01*
X42087D01*
X42707Y252588D01*
X43233Y252940D01*
X43585Y253466D01*
X43609Y253587D01*
D02*
G37*
G36*
X39421D02*
X36234D01*
X36258Y253466D01*
X36609Y252940D01*
X37135Y252588D01*
X37756Y252465D01*
X39421D01*
Y253587D01*
D02*
G37*
G36*
X25016Y254421D02*
X21169D01*
Y250575D01*
X21241D01*
X22347Y250871D01*
X23338Y251443D01*
X24147Y252253D01*
X24720Y253244D01*
X25016Y254349D01*
Y254421D01*
D02*
G37*
G36*
X20169D02*
X16323D01*
Y254349D01*
X16619Y253244D01*
X17191Y252253D01*
X18000Y251443D01*
X18992Y250871D01*
X20097Y250575D01*
X20169D01*
Y254421D01*
D02*
G37*
G36*
X13673Y248866D02*
X13583D01*
X12962Y248742D01*
X12436Y248391D01*
X12084Y247865D01*
X11961Y247244D01*
Y246366D01*
X13673D01*
Y248866D01*
D02*
G37*
G36*
X50981Y271874D02*
X50357Y271615D01*
X49799Y271057D01*
X49540Y270433D01*
X50981D01*
Y271874D01*
D02*
G37*
G36*
X66799Y262116D02*
Y260675D01*
X68240D01*
X67981Y261299D01*
X67423Y261857D01*
X66799Y262116D01*
D02*
G37*
G36*
X65799D02*
X65175Y261857D01*
X64617Y261299D01*
X64359Y260675D01*
X65799D01*
Y262116D01*
D02*
G37*
G36*
Y259675D02*
X64359D01*
X64617Y259051D01*
X65175Y258493D01*
X65799Y258234D01*
Y259675D01*
D02*
G37*
G36*
X68240D02*
X66799D01*
Y258234D01*
X67423Y258493D01*
X67981Y259051D01*
X68240Y259675D01*
D02*
G37*
G36*
X99910Y250956D02*
Y249516D01*
X101350D01*
X101092Y250140D01*
X100533Y250698D01*
X99910Y250956D01*
D02*
G37*
G36*
X98909D02*
X98286Y250698D01*
X97727Y250140D01*
X97469Y249516D01*
X98909D01*
Y250956D01*
D02*
G37*
G36*
X129437Y230287D02*
Y228847D01*
X130878D01*
X130619Y229470D01*
X130061Y230029D01*
X129437Y230287D01*
D02*
G37*
G36*
X128437D02*
X127813Y230029D01*
X127255Y229470D01*
X126996Y228847D01*
X128437D01*
Y230287D01*
D02*
G37*
G36*
X130878Y227847D02*
X129437D01*
Y226406D01*
X130061Y226664D01*
X130619Y227222D01*
X130878Y227847D01*
D02*
G37*
G36*
X128437D02*
X126996D01*
X127255Y227222D01*
X127813Y226664D01*
X128437Y226406D01*
Y227847D01*
D02*
G37*
G36*
X127453Y197807D02*
X126829Y197548D01*
X126271Y196990D01*
X126012Y196366D01*
X127453D01*
Y197807D01*
D02*
G37*
G36*
Y195366D02*
X126012D01*
X126271Y194742D01*
X126829Y194184D01*
X127453Y193925D01*
Y195366D01*
D02*
G37*
G36*
X69488Y174232D02*
X67429D01*
Y172508D01*
X71613D01*
X71543Y172859D01*
X71061Y173580D01*
X70339Y174062D01*
X69488Y174232D01*
D02*
G37*
G36*
X71613Y171508D02*
X67429D01*
Y169784D01*
X69488D01*
X70339Y169953D01*
X71061Y170435D01*
X71543Y171157D01*
X71613Y171508D01*
D02*
G37*
G36*
X69488Y114428D02*
X67429D01*
Y112705D01*
X71613D01*
X71543Y113056D01*
X71061Y113777D01*
X70339Y114259D01*
X69488Y114428D01*
D02*
G37*
G36*
X97787Y112177D02*
X97163Y111918D01*
X96605Y111360D01*
X96347Y110736D01*
X97787D01*
Y112177D01*
D02*
G37*
G36*
X71613Y111705D02*
X67429D01*
Y109981D01*
X69488D01*
X70339Y110150D01*
X71061Y110632D01*
X71543Y111354D01*
X71613Y111705D01*
D02*
G37*
G36*
X66429D02*
X62246D01*
X62315Y111354D01*
X62798Y110632D01*
X63519Y110150D01*
X64370Y109981D01*
X66429D01*
Y111705D01*
D02*
G37*
G36*
X97787Y109736D02*
X96347D01*
X96605Y109112D01*
X97163Y108554D01*
X97787Y108296D01*
Y109736D01*
D02*
G37*
G36*
X90466Y94449D02*
X89534D01*
X88632Y94207D01*
X87824Y93741D01*
X87165Y93081D01*
X86698Y92273D01*
X86457Y91372D01*
Y90439D01*
X86698Y89538D01*
X87165Y88730D01*
X87824Y88070D01*
X88632Y87604D01*
X89534Y87362D01*
X90466D01*
X91368Y87604D01*
X92176Y88070D01*
X92835Y88730D01*
X93302Y89538D01*
X93543Y90439D01*
Y91372D01*
X93302Y92273D01*
X92835Y93081D01*
X92176Y93741D01*
X91368Y94207D01*
X90466Y94449D01*
D02*
G37*
G36*
X93756Y84661D02*
X90500D01*
Y81406D01*
X93756D01*
Y84661D01*
D02*
G37*
G36*
X89500D02*
X86244D01*
Y81406D01*
X89500D01*
Y84661D01*
D02*
G37*
G36*
X93756Y80405D02*
X90500D01*
Y77150D01*
X93756D01*
Y80405D01*
D02*
G37*
G36*
X89500D02*
X86244D01*
Y77150D01*
X89500D01*
Y80405D01*
D02*
G37*
G36*
X80500Y71923D02*
Y70483D01*
X81941D01*
X81682Y71107D01*
X81124Y71665D01*
X80500Y71923D01*
D02*
G37*
G36*
X79500D02*
X78876Y71665D01*
X78318Y71107D01*
X78059Y70483D01*
X79500D01*
Y71923D01*
D02*
G37*
G36*
X71366Y70799D02*
Y69359D01*
X72807D01*
X72548Y69983D01*
X71990Y70541D01*
X71366Y70799D01*
D02*
G37*
G36*
X81941Y69483D02*
X80500D01*
Y68042D01*
X81124Y68300D01*
X81682Y68859D01*
X81941Y69483D01*
D02*
G37*
G36*
X79500D02*
X78059D01*
X78318Y68859D01*
X78876Y68300D01*
X79500Y68042D01*
Y69483D01*
D02*
G37*
G36*
X72807Y68359D02*
X71366D01*
Y66918D01*
X71990Y67177D01*
X72548Y67735D01*
X72807Y68359D01*
D02*
G37*
G36*
X89083Y58899D02*
Y57459D01*
X90523D01*
X90265Y58083D01*
X89707Y58641D01*
X89083Y58899D01*
D02*
G37*
G36*
X88083D02*
X87459Y58641D01*
X86901Y58083D01*
X86642Y57459D01*
X88083D01*
Y58899D01*
D02*
G37*
G36*
X90523Y56459D02*
X89083D01*
Y55018D01*
X89707Y55277D01*
X90265Y55835D01*
X90523Y56459D01*
D02*
G37*
G36*
X88083D02*
X86642D01*
X86901Y55835D01*
X87459Y55277D01*
X88083Y55018D01*
Y56459D01*
D02*
G37*
G36*
X89083Y46288D02*
Y44847D01*
X90523D01*
X90265Y45471D01*
X89707Y46029D01*
X89083Y46288D01*
D02*
G37*
G36*
X88083D02*
X87459Y46029D01*
X86901Y45471D01*
X86642Y44847D01*
X88083D01*
Y46288D01*
D02*
G37*
G36*
X90523Y43847D02*
X89083D01*
Y42406D01*
X89707Y42665D01*
X90265Y43223D01*
X90523Y43847D01*
D02*
G37*
G36*
X88083D02*
X86642D01*
X86901Y43223D01*
X87459Y42665D01*
X88083Y42406D01*
Y43847D01*
D02*
G37*
G36*
X69967Y42846D02*
X69342Y42588D01*
X68784Y42030D01*
X68526Y41405D01*
X69967D01*
Y42846D01*
D02*
G37*
G36*
Y40405D02*
X68526D01*
X68784Y39781D01*
X69342Y39223D01*
X69967Y38965D01*
Y40405D01*
D02*
G37*
G36*
X80467Y34449D02*
X79533D01*
X78632Y34207D01*
X77824Y33741D01*
X77165Y33081D01*
X76698Y32273D01*
X76457Y31372D01*
Y30439D01*
X76698Y29538D01*
X77165Y28730D01*
X77824Y28070D01*
X78632Y27604D01*
X79533Y27362D01*
X80467D01*
X81368Y27604D01*
X82176Y28070D01*
X82835Y28730D01*
X83302Y29538D01*
X83543Y30439D01*
Y31372D01*
X83302Y32273D01*
X82835Y33081D01*
X82176Y33741D01*
X81368Y34207D01*
X80467Y34449D01*
D02*
G37*
G36*
Y24449D02*
X79533D01*
X78632Y24207D01*
X77824Y23741D01*
X77165Y23081D01*
X76698Y22273D01*
X76457Y21372D01*
Y20439D01*
X76698Y19538D01*
X77165Y18730D01*
X77824Y18070D01*
X78632Y17604D01*
X79533Y17362D01*
X80467D01*
X81368Y17604D01*
X82176Y18070D01*
X82835Y18730D01*
X83302Y19538D01*
X83543Y20439D01*
Y21372D01*
X83302Y22273D01*
X82835Y23081D01*
X82176Y23741D01*
X81368Y24207D01*
X80467Y24449D01*
D02*
G37*
G36*
X70500Y12767D02*
Y11327D01*
X71941D01*
X71682Y11951D01*
X71124Y12509D01*
X70500Y12767D01*
D02*
G37*
G36*
X75303Y11783D02*
Y10343D01*
X76744D01*
X76485Y10966D01*
X75927Y11525D01*
X75303Y11783D01*
D02*
G37*
G36*
X74303D02*
X73679Y11525D01*
X73121Y10966D01*
X72862Y10343D01*
X74303D01*
Y11783D01*
D02*
G37*
G36*
X125500Y10799D02*
Y9358D01*
X126941D01*
X126682Y9982D01*
X126124Y10540D01*
X125500Y10799D01*
D02*
G37*
G36*
X124500D02*
X123876Y10540D01*
X123318Y9982D01*
X123059Y9358D01*
X124500D01*
Y10799D01*
D02*
G37*
G36*
X71941Y10327D02*
X70500D01*
Y8886D01*
X71124Y9145D01*
X71682Y9703D01*
X71941Y10327D01*
D02*
G37*
G36*
X126941Y8358D02*
X125500D01*
Y6918D01*
X126124Y7176D01*
X126682Y7734D01*
X126941Y8358D01*
D02*
G37*
G36*
X124500D02*
X123059D01*
X123318Y7734D01*
X123876Y7176D01*
X124500Y6918D01*
Y8358D01*
D02*
G37*
G36*
X76744Y9342D02*
X72862D01*
X73121Y8719D01*
X73450Y8390D01*
X73243Y7890D01*
X72350D01*
Y5421D01*
X74917D01*
Y7858D01*
X75198D01*
X75927Y8160D01*
X76485Y8719D01*
X76744Y9342D01*
D02*
G37*
G36*
X100228Y159933D02*
X98787D01*
Y158492D01*
X99411Y158751D01*
X99970Y159309D01*
X100228Y159933D01*
D02*
G37*
G36*
X112177Y131390D02*
X110736D01*
Y129949D01*
X111360Y130208D01*
X111918Y130766D01*
X112177Y131390D01*
D02*
G37*
G36*
X22541Y115720D02*
X18138D01*
Y112432D01*
X18819D01*
X19799Y112561D01*
X20713Y112940D01*
X21498Y113542D01*
X22100Y114326D01*
X22478Y115240D01*
X22541Y115720D01*
D02*
G37*
G36*
X17138D02*
X12734D01*
X12798Y115240D01*
X13176Y114326D01*
X13778Y113542D01*
X14562Y112940D01*
X15476Y112561D01*
X16457Y112432D01*
X17138D01*
Y115720D01*
D02*
G37*
G36*
X28819Y115009D02*
X28138D01*
Y111721D01*
X32541D01*
X32478Y112201D01*
X32100Y113115D01*
X31498Y113899D01*
X30713Y114501D01*
X29799Y114880D01*
X28819Y115009D01*
D02*
G37*
G36*
X27138D02*
X26457D01*
X25476Y114880D01*
X24563Y114501D01*
X23778Y113899D01*
X23176Y113115D01*
X22797Y112201D01*
X22734Y111721D01*
X27138D01*
Y115009D01*
D02*
G37*
G36*
X32541Y110721D02*
X28138D01*
Y107432D01*
X28819D01*
X29799Y107561D01*
X30713Y107940D01*
X31498Y108542D01*
X32100Y109326D01*
X32478Y110240D01*
X32541Y110721D01*
D02*
G37*
G36*
X27138D02*
X22734D01*
X22797Y110240D01*
X23176Y109326D01*
X23778Y108542D01*
X24563Y107940D01*
X25476Y107561D01*
X26457Y107432D01*
X27138D01*
Y110721D01*
D02*
G37*
G36*
X15063Y96429D02*
Y94988D01*
X16503D01*
X16245Y95612D01*
X15687Y96170D01*
X15063Y96429D01*
D02*
G37*
G36*
X14062D02*
X13439Y96170D01*
X12880Y95612D01*
X12622Y94988D01*
X14062D01*
Y96429D01*
D02*
G37*
G36*
X16503Y93988D02*
X15063D01*
Y92548D01*
X15687Y92806D01*
X16245Y93364D01*
X16503Y93988D01*
D02*
G37*
G36*
X14062D02*
X12622D01*
X12880Y93364D01*
X13439Y92806D01*
X14062Y92548D01*
Y93988D01*
D02*
G37*
G36*
X18819Y91566D02*
X16457D01*
X15532Y91444D01*
X14670Y91087D01*
X13930Y90519D01*
X13362Y89779D01*
X13005Y88917D01*
X12883Y87992D01*
X13005Y87067D01*
X13362Y86205D01*
X13930Y85465D01*
X14670Y84897D01*
X15532Y84540D01*
X16457Y84418D01*
X18819D01*
X19744Y84540D01*
X20606Y84897D01*
X21346Y85465D01*
X21914Y86205D01*
X22271Y87067D01*
X22393Y87992D01*
X22271Y88917D01*
X21914Y89779D01*
X21346Y90519D01*
X20606Y91087D01*
X19744Y91444D01*
X18819Y91566D01*
D02*
G37*
G36*
X28819Y86566D02*
X26457D01*
X25532Y86444D01*
X24670Y86087D01*
X23930Y85519D01*
X23362Y84779D01*
X23005Y83917D01*
X22883Y82992D01*
X23005Y82067D01*
X23362Y81205D01*
X23930Y80465D01*
X24670Y79897D01*
X25532Y79540D01*
X26457Y79418D01*
X28819D01*
X29744Y79540D01*
X30606Y79897D01*
X31346Y80465D01*
X31914Y81205D01*
X32271Y82067D01*
X32393Y82992D01*
X32271Y83917D01*
X31914Y84779D01*
X31346Y85519D01*
X30606Y86087D01*
X29744Y86444D01*
X28819Y86566D01*
D02*
G37*
G36*
X18819Y81566D02*
X16457D01*
X15532Y81444D01*
X14670Y81087D01*
X13930Y80519D01*
X13362Y79779D01*
X13005Y78917D01*
X12883Y77992D01*
X13005Y77067D01*
X13362Y76205D01*
X13930Y75465D01*
X14670Y74897D01*
X15532Y74540D01*
X16457Y74418D01*
X18819D01*
X19744Y74540D01*
X20606Y74897D01*
X21346Y75465D01*
X21914Y76205D01*
X22271Y77067D01*
X22393Y77992D01*
X22271Y78917D01*
X21914Y79779D01*
X21346Y80519D01*
X20606Y81087D01*
X19744Y81444D01*
X18819Y81566D01*
D02*
G37*
G36*
X28819Y76566D02*
X26457D01*
X25532Y76444D01*
X24670Y76087D01*
X23930Y75519D01*
X23362Y74779D01*
X23005Y73917D01*
X22883Y72992D01*
X23005Y72067D01*
X23362Y71205D01*
X23930Y70465D01*
X24670Y69897D01*
X25532Y69540D01*
X26457Y69418D01*
X28819D01*
X29744Y69540D01*
X30606Y69897D01*
X31346Y70465D01*
X31914Y71205D01*
X32271Y72067D01*
X32393Y72992D01*
X32271Y73917D01*
X31914Y74779D01*
X31346Y75519D01*
X30606Y76087D01*
X29744Y76444D01*
X28819Y76566D01*
D02*
G37*
G36*
X18819Y71566D02*
X16457D01*
X15532Y71444D01*
X14670Y71087D01*
X13930Y70519D01*
X13362Y69779D01*
X13005Y68917D01*
X12883Y67992D01*
X13005Y67067D01*
X13362Y66205D01*
X13930Y65465D01*
X14670Y64897D01*
X15532Y64540D01*
X16457Y64418D01*
X18819D01*
X19744Y64540D01*
X20606Y64897D01*
X21346Y65465D01*
X21914Y66205D01*
X22271Y67067D01*
X22393Y67992D01*
X22271Y68917D01*
X21914Y69779D01*
X21346Y70519D01*
X20606Y71087D01*
X19744Y71444D01*
X18819Y71566D01*
D02*
G37*
G36*
X28819Y66566D02*
X26457D01*
X25532Y66444D01*
X24670Y66087D01*
X23930Y65519D01*
X23362Y64779D01*
X23005Y63917D01*
X22883Y62992D01*
X23005Y62067D01*
X23362Y61205D01*
X23930Y60465D01*
X24670Y59897D01*
X25532Y59540D01*
X26457Y59418D01*
X28819D01*
X29744Y59540D01*
X30606Y59897D01*
X31346Y60465D01*
X31914Y61205D01*
X32271Y62067D01*
X32393Y62992D01*
X32271Y63917D01*
X31914Y64779D01*
X31346Y65519D01*
X30606Y66087D01*
X29744Y66444D01*
X28819Y66566D01*
D02*
G37*
G36*
X39393Y93207D02*
X38689D01*
X38038Y92938D01*
X37539Y92439D01*
X37269Y91788D01*
Y91083D01*
X37539Y90432D01*
X37925Y90047D01*
Y89933D01*
X38024Y89434D01*
X38065Y89372D01*
Y54906D01*
X37962Y54803D01*
X37692Y54152D01*
Y53447D01*
X37962Y52796D01*
X38460Y52297D01*
X39111Y52028D01*
X39816D01*
X40467Y52297D01*
X40966Y52796D01*
X41235Y53447D01*
Y54152D01*
X40966Y54803D01*
X40675Y55094D01*
Y89793D01*
X40575Y90292D01*
X40534Y90354D01*
Y90423D01*
X40543Y90432D01*
X40813Y91083D01*
Y91788D01*
X40543Y92439D01*
X40045Y92938D01*
X39393Y93207D01*
D02*
G37*
G36*
X21414Y53069D02*
X19973D01*
X20232Y52445D01*
X20790Y51886D01*
X21414Y51628D01*
Y53069D01*
D02*
G37*
G36*
X18819Y61566D02*
X16457D01*
X15532Y61444D01*
X14670Y61087D01*
X13930Y60519D01*
X13362Y59779D01*
X13005Y58917D01*
X12883Y57992D01*
X13005Y57067D01*
X13362Y56205D01*
X13930Y55465D01*
X14670Y54897D01*
X15532Y54540D01*
X16457Y54418D01*
X18819D01*
X19621Y54524D01*
X19890Y54274D01*
X19986Y54099D01*
X19973Y54069D01*
X21914D01*
Y53569D01*
X22414D01*
Y51628D01*
X22611Y51710D01*
X23259Y51454D01*
X23362Y51205D01*
X23930Y50465D01*
X24670Y49897D01*
X25532Y49540D01*
X26457Y49418D01*
X28819D01*
X29744Y49540D01*
X30606Y49897D01*
X31346Y50465D01*
X31914Y51205D01*
X32271Y52067D01*
X32393Y52992D01*
X32271Y53917D01*
X31914Y54779D01*
X31346Y55519D01*
X30606Y56087D01*
X29744Y56444D01*
X28819Y56566D01*
X26457D01*
X25532Y56444D01*
X24670Y56087D01*
X23930Y55519D01*
X23657Y55164D01*
X23158Y55131D01*
X23038Y55251D01*
X22309Y55553D01*
X22044D01*
X21797Y56053D01*
X21914Y56205D01*
X22271Y57067D01*
X22393Y57992D01*
X22271Y58917D01*
X21914Y59779D01*
X21346Y60519D01*
X20606Y61087D01*
X19744Y61444D01*
X18819Y61566D01*
D02*
G37*
G36*
Y51566D02*
X16457D01*
X15532Y51444D01*
X14670Y51087D01*
X13930Y50519D01*
X13362Y49779D01*
X13005Y48917D01*
X12883Y47992D01*
X13005Y47067D01*
X13362Y46205D01*
X13930Y45465D01*
X14670Y44897D01*
X15532Y44540D01*
X16457Y44418D01*
X18819D01*
X19744Y44540D01*
X20606Y44897D01*
X21346Y45465D01*
X21914Y46205D01*
X22271Y47067D01*
X22393Y47992D01*
X22271Y48917D01*
X21914Y49779D01*
X21346Y50519D01*
X20606Y51087D01*
X19744Y51444D01*
X18819Y51566D01*
D02*
G37*
G36*
X28819Y46566D02*
X26457D01*
X25532Y46444D01*
X24670Y46087D01*
X23930Y45519D01*
X23362Y44779D01*
X23005Y43917D01*
X22883Y42992D01*
X23005Y42067D01*
X23362Y41205D01*
X23930Y40465D01*
X24670Y39897D01*
X25532Y39540D01*
X26457Y39418D01*
X28819D01*
X29744Y39540D01*
X30606Y39897D01*
X31346Y40465D01*
X31914Y41205D01*
X32271Y42067D01*
X32393Y42992D01*
X32271Y43917D01*
X31914Y44779D01*
X31346Y45519D01*
X30606Y46087D01*
X29744Y46444D01*
X28819Y46566D01*
D02*
G37*
G36*
X22951Y33865D02*
X22319D01*
Y30468D01*
X25124D01*
Y31691D01*
X24959Y32523D01*
X24488Y33228D01*
X23783Y33699D01*
X22951Y33865D01*
D02*
G37*
G36*
X21319D02*
X20687D01*
X19855Y33699D01*
X19150Y33228D01*
X18679Y32523D01*
X18513Y31691D01*
Y30468D01*
X21319D01*
Y33865D01*
D02*
G37*
G36*
X37902Y27846D02*
Y26406D01*
X39342D01*
X39084Y27029D01*
X38526Y27588D01*
X37902Y27846D01*
D02*
G37*
G36*
X36902D02*
X36278Y27588D01*
X35719Y27029D01*
X35461Y26406D01*
X36902D01*
Y27846D01*
D02*
G37*
G36*
X25124Y29469D02*
X22319D01*
Y26072D01*
X22951D01*
X23783Y26238D01*
X24488Y26709D01*
X24959Y27414D01*
X25124Y28246D01*
Y29469D01*
D02*
G37*
G36*
X21319D02*
X18513D01*
Y28246D01*
X18679Y27414D01*
X19150Y26709D01*
X19855Y26238D01*
X20687Y26072D01*
X21319D01*
Y29469D01*
D02*
G37*
G36*
X22567Y23704D02*
X19811D01*
X19273Y23597D01*
X18818Y23293D01*
X18513Y22837D01*
X18406Y22299D01*
Y21118D01*
X18513Y20581D01*
X18818Y20125D01*
X19273Y19820D01*
X19811Y19713D01*
X22567D01*
X23105Y19820D01*
X23560Y20125D01*
X23865Y20581D01*
X23972Y21118D01*
Y22299D01*
X23865Y22837D01*
X23560Y23293D01*
X23105Y23597D01*
X22567Y23704D01*
D02*
G37*
G36*
X48728Y17689D02*
Y16248D01*
X50169D01*
X49911Y16872D01*
X49352Y17430D01*
X48728Y17689D01*
D02*
G37*
G36*
X47728D02*
X47104Y17430D01*
X46546Y16872D01*
X46288Y16248D01*
X47728D01*
Y17689D01*
D02*
G37*
G36*
X50169Y15248D02*
X48728D01*
Y13807D01*
X49352Y14066D01*
X49911Y14624D01*
X50169Y15248D01*
D02*
G37*
G36*
X47728D02*
X46288D01*
X46546Y14624D01*
X47104Y14066D01*
X47728Y13807D01*
Y15248D01*
D02*
G37*
G36*
X28405Y9865D02*
X27774D01*
X26942Y9699D01*
X26237Y9228D01*
X25765Y8523D01*
X25600Y7691D01*
Y6469D01*
X28405D01*
Y9865D01*
D02*
G37*
G36*
X33776Y7909D02*
Y6469D01*
X35216D01*
X34958Y7092D01*
X34400Y7651D01*
X33776Y7909D01*
D02*
G37*
G36*
X35216Y5469D02*
X33776D01*
Y4028D01*
X34400Y4286D01*
X34958Y4845D01*
X35216Y5469D01*
D02*
G37*
G36*
X61524Y12767D02*
Y11327D01*
X62964D01*
X62706Y11951D01*
X62148Y12509D01*
X61524Y12767D01*
D02*
G37*
G36*
X60524D02*
X59900Y12509D01*
X59342Y11951D01*
X59083Y11327D01*
X60524D01*
Y12767D01*
D02*
G37*
G36*
X62964Y10327D02*
X61524D01*
Y8886D01*
X62148Y9145D01*
X62706Y9703D01*
X62964Y10327D01*
D02*
G37*
G36*
X13600Y7841D02*
Y6400D01*
X15041D01*
X14782Y7024D01*
X14224Y7582D01*
X13600Y7841D01*
D02*
G37*
G36*
X12600D02*
X11976Y7582D01*
X11418Y7024D01*
X11159Y6400D01*
X12600D01*
Y7841D01*
D02*
G37*
G36*
X15041Y5400D02*
X13600D01*
Y3959D01*
X14224Y4218D01*
X14782Y4776D01*
X15041Y5400D01*
D02*
G37*
G36*
X12600D02*
X11159D01*
X11418Y4776D01*
X11976Y4218D01*
X12600Y3959D01*
Y5400D01*
D02*
G37*
%LPD*%
D10*
X39230Y89933D02*
X39370Y89793D01*
X39041Y91436D02*
X39230Y91247D01*
Y89933D02*
Y91247D01*
X95041Y311372D02*
Y318306D01*
X93947Y319400D02*
X95041Y318306D01*
X93858Y310189D02*
X95041Y311372D01*
X82047Y303504D02*
Y308024D01*
Y312297D01*
X88772Y315594D02*
X91791Y312575D01*
Y310427D02*
Y312575D01*
Y310427D02*
X91852Y310366D01*
Y308061D02*
X91890Y308024D01*
X88600Y328677D02*
X88772Y328506D01*
X77551Y343221D02*
X88600Y332172D01*
X91852Y308061D02*
Y310366D01*
X88600Y328677D02*
Y332172D01*
X88772Y315594D02*
Y328506D01*
X76173Y344500D02*
X77453Y343221D01*
X76173Y344500D02*
Y344599D01*
X77453Y343221D02*
X77551D01*
X87000Y314860D02*
X89823Y312038D01*
Y310427D02*
Y312038D01*
Y310427D02*
X89884Y310366D01*
Y308061D02*
Y310366D01*
Y308061D02*
X89921Y308024D01*
X87000Y314860D02*
Y327772D01*
X77551Y337221D02*
X87000Y327772D01*
X76173Y338500D02*
X77453Y337221D01*
X77551D01*
X76173Y332598D02*
X79668D01*
X76173Y338500D02*
Y338598D01*
X79668Y332598D02*
X85200Y327066D01*
Y314155D02*
Y327066D01*
X85947Y308061D02*
Y310903D01*
X85200Y314155D02*
X87854Y311501D01*
X78719Y326599D02*
X83428Y321889D01*
Y313421D02*
X85947Y310903D01*
X83428Y313421D02*
Y321889D01*
X87854Y310341D02*
Y311501D01*
Y310341D02*
X87953Y310242D01*
Y308024D02*
Y310242D01*
X81653Y312690D02*
Y317917D01*
X85947Y308061D02*
X85984Y308024D01*
X81653Y312690D02*
X82047Y312297D01*
X80177Y319394D02*
X81653Y317917D01*
X76173Y326599D02*
X78719D01*
X55786Y223622D02*
X59741Y219667D01*
X38172Y223622D02*
X55786D01*
X36516Y233587D02*
X44709Y225394D01*
X36516Y233587D02*
Y235236D01*
X39370Y53893D02*
Y89793D01*
Y53893D02*
X39464Y53799D01*
X24280Y175256D02*
X31067D01*
X35555Y179744D02*
X52020D01*
X31067Y175256D02*
X35555Y179744D01*
X30333Y177027D02*
X32854Y179549D01*
X25014Y177027D02*
X30333D01*
X32854Y179549D02*
Y182892D01*
X27638Y191220D02*
X41870D01*
X51083Y182008D01*
X44278Y196221D02*
X50114Y190384D01*
X20512Y196221D02*
X44278D01*
X50114Y190384D02*
X50815D01*
X42474Y201220D02*
X51046Y192648D01*
X50852Y190348D02*
X52020D01*
X50815Y190384D02*
X50852Y190348D01*
X51046Y192648D02*
X51052D01*
X27638Y201220D02*
X42474D01*
X42474Y211221D02*
X51040Y202654D01*
X50152Y200348D02*
X51005D01*
X20512Y206221D02*
X44280D01*
X50152Y200348D01*
X51040Y202654D02*
X51047D01*
X51005Y200348D02*
X52020D01*
X27638Y211221D02*
X42474D01*
X6700Y269495D02*
X16752Y279547D01*
X4350Y181235D02*
X6700Y183585D01*
Y269495D01*
X12421Y174549D02*
Y177892D01*
X8878Y173081D02*
Y179360D01*
X4350Y171206D02*
Y181235D01*
X10650Y178626D02*
X14209Y182185D01*
X8878Y179360D02*
X15739Y186221D01*
X12421Y177892D02*
X14785Y180256D01*
X10650Y173815D02*
Y178626D01*
X4740Y74803D02*
Y170816D01*
X11039Y155929D02*
Y173425D01*
X12421Y174549D02*
X14785Y172185D01*
X9268Y147703D02*
Y172692D01*
X4350Y171206D02*
X4740Y170816D01*
X8878Y173081D02*
X9268Y172692D01*
Y147703D02*
X16714Y140256D01*
X11039Y155929D02*
X15748Y151221D01*
X10650Y173815D02*
X11039Y173425D01*
X11384Y322137D02*
Y325132D01*
X7506Y321004D02*
Y325072D01*
X9416Y321600D02*
Y325132D01*
X15124Y314077D02*
X24700Y304501D01*
X11581Y305115D02*
Y316929D01*
X9416Y321600D02*
X13353Y317663D01*
X11384Y322137D02*
X15124Y318397D01*
X7506Y321004D02*
X11581Y316929D01*
X13353Y305849D02*
Y317663D01*
X15124Y314077D02*
Y318397D01*
X11581Y305115D02*
X14100Y302596D01*
Y295101D02*
Y302596D01*
Y295101D02*
X20669Y288532D01*
X7447Y325132D02*
X7506Y325072D01*
X13353Y305849D02*
X20669Y298532D01*
X13353Y324777D02*
Y325132D01*
Y324777D02*
X19598Y318532D01*
X20669D01*
X23616Y182892D02*
X25288Y181220D01*
X20490Y182185D02*
X21197Y182892D01*
X25288Y181220D02*
X27638D01*
X21197Y182892D02*
X23616D01*
X14209Y182185D02*
X20490D01*
X43784Y256055D02*
X44276Y256547D01*
X44329D01*
X44437Y256656D02*
X45133D01*
X39921Y256055D02*
X43784D01*
X44329Y256547D02*
X44437Y256656D01*
X45133D02*
X45322Y256844D01*
X32085Y246578D02*
X32748Y245915D01*
X31201Y248278D02*
Y248544D01*
X32748Y245915D02*
X36069D01*
X31201Y248278D02*
X32085Y247393D01*
Y246578D02*
Y247393D01*
X27559Y314961D02*
X35960D01*
X36156Y315158D01*
X44290D01*
X25349Y295721D02*
X28334D01*
X28629Y295425D01*
X45159Y265898D02*
X45994Y266732D01*
X39921Y265898D02*
X45159D01*
X35647Y261268D02*
X35836Y261456D01*
X36575D02*
X36981Y261862D01*
X35836Y261456D02*
X36575D01*
X42801Y260030D02*
X45400Y262629D01*
X45994Y266732D02*
X46260D01*
X45400Y262629D02*
Y262671D01*
X43595Y258319D02*
X45683Y260407D01*
X46544D01*
X59908Y273772D01*
X34105Y268104D02*
X34834D01*
X32315Y270179D02*
X34798D01*
X33917Y267915D02*
X34105Y268104D01*
X32235Y270099D02*
X32315Y270179D01*
X34834Y268104D02*
X34891Y268161D01*
X36767D01*
X34798Y270179D02*
X34945Y270031D01*
X35002D01*
X35100Y269933D02*
X37501D01*
X35002Y270031D02*
X35100Y269933D01*
X33786Y272000D02*
X35482D01*
X33424Y272362D02*
X33786Y272000D01*
X35482D02*
X35679Y271803D01*
X39921D01*
X33160Y262111D02*
X34683Y263634D01*
X32971Y260610D02*
X33160Y260799D01*
X36767Y268161D02*
X37024Y267904D01*
X39884D01*
X34683Y263634D02*
X36767D01*
X36981Y261862D02*
X37501D01*
X37024Y263892D02*
X39884D01*
Y267904D02*
X39921Y267866D01*
X37501Y269933D02*
X37561Y269872D01*
X33160Y260799D02*
Y262111D01*
X37561Y261923D02*
X39884D01*
X36767Y263634D02*
X37024Y263892D01*
X39884Y269872D02*
X39921Y269835D01*
X39884Y261923D02*
X39921Y261961D01*
X39884Y263892D02*
X39921Y263929D01*
X37561Y269872D02*
X39884D01*
X37501Y261862D02*
X37561Y261923D01*
X37809Y301331D02*
X39921D01*
X20669Y318532D02*
X37657Y301544D01*
Y301482D02*
X37809Y301331D01*
X37657Y301482D02*
Y301544D01*
X29236Y301194D02*
X31068Y299362D01*
X39921D01*
X28629Y295425D02*
X39921D01*
X20669Y297198D02*
X24411Y293457D01*
X26910D01*
Y293457D02*
X39921D01*
X20669Y297198D02*
Y298532D01*
X78740Y99859D02*
X79420Y100539D01*
X78740Y96145D02*
Y99859D01*
X79420Y100539D02*
Y102812D01*
X21456Y274134D02*
X34158D01*
X20669Y274921D02*
X21456Y274134D01*
X34158D02*
X34520Y273772D01*
X24700Y302529D02*
X29835Y297394D01*
X24700Y302529D02*
Y304501D01*
X29835Y297394D02*
X39921D01*
X16752Y279547D02*
X20199D01*
X25604Y284952D01*
Y286559D01*
X27256Y288211D01*
X28213D01*
X31490Y291488D01*
X39921D01*
X28740Y316929D02*
X45024D01*
X25787Y319882D02*
X28740Y316929D01*
X20669Y264921D02*
X28110Y272362D01*
X33424D01*
X34520Y273772D02*
X39921D01*
X18504Y245866D02*
X21654D01*
X57157Y338598D02*
X69874D01*
X57157Y326599D02*
X69874D01*
X57157Y332598D02*
X69874D01*
X57157Y344599D02*
X69874D01*
X25787Y319882D02*
Y323081D01*
X44290Y315158D02*
X48545Y310903D01*
X39959Y287513D02*
X49573D01*
X49709Y287650D01*
X48545Y308061D02*
Y310903D01*
Y308061D02*
X48583Y308024D01*
X50513Y308061D02*
Y311440D01*
X45024Y316929D02*
X50513Y311440D01*
Y308061D02*
X50551Y308024D01*
X35399Y289520D02*
X39921D01*
X33134Y287254D02*
X35399Y289520D01*
X80079Y319394D02*
X80177D01*
X39921Y287551D02*
X39959Y287513D01*
X64331Y292323D02*
X66496D01*
X69646Y289173D01*
X94252Y299900D02*
X94330Y299822D01*
Y296948D02*
X95853Y295425D01*
X94330Y296948D02*
Y299822D01*
X89211Y296260D02*
X93983Y291488D01*
X100551D01*
X90405Y303988D02*
X92664D01*
X93760Y305084D01*
X83661Y297244D02*
X90405Y303988D01*
X93858Y305805D02*
Y310189D01*
X93760Y305707D02*
X93858Y305805D01*
X93760Y305084D02*
Y305707D01*
X79724Y297244D02*
X83661D01*
X98140Y303201D02*
X98632Y303693D01*
X96516Y298160D02*
Y302105D01*
X97611Y303201D01*
X98632Y303693D02*
X98899D01*
X96516Y298160D02*
X97282Y297394D01*
X97611Y303201D02*
X98140D01*
X39884Y277746D02*
X39959Y277671D01*
X35829Y278702D02*
X36784Y277746D01*
X32415Y278702D02*
X35829D01*
X33352Y276438D02*
X35587D01*
X36247Y275778D01*
X39884D01*
X39921Y275740D01*
X36784Y277746D02*
X39884D01*
X43195Y277671D02*
X47095Y273772D01*
X39959Y277671D02*
X43195D01*
X45844Y279677D02*
X46978Y278543D01*
X47244D01*
X39921Y279677D02*
X45844D01*
X47095Y273772D02*
X59908D01*
X39884Y281608D02*
X39921Y281646D01*
X33464Y281608D02*
X39884D01*
X33352Y281496D02*
X33464Y281608D01*
X39921Y283614D02*
X44860D01*
X45994Y282480D01*
X46260D01*
X29236Y278441D02*
X32154D01*
X32415Y278702D01*
X36069Y245915D02*
X36118Y245866D01*
X70000Y25571D02*
X70372D01*
X74035Y29234D02*
Y44887D01*
X67913Y51009D02*
X74035Y44887D01*
X67913Y51009D02*
Y66929D01*
X70372Y25571D02*
X74035Y29234D01*
X63839Y71543D02*
X68071Y75775D01*
Y76471D01*
X60000Y70906D02*
X60637Y71543D01*
X63839D01*
X20512Y226220D02*
X35573D01*
X38172Y223622D01*
X53870Y227165D02*
X57254D01*
X27638Y221220D02*
X50945D01*
X56520Y225394D02*
X62303Y219610D01*
X50945Y221220D02*
X51083Y221358D01*
X57254Y227165D02*
X57624Y226795D01*
X58700D02*
X58888Y226607D01*
X62303Y219599D02*
Y219610D01*
X57624Y226795D02*
X58700D01*
X44709Y225394D02*
X56520D01*
X49213Y231822D02*
X53870Y227165D01*
X62303Y219337D02*
Y219599D01*
X64632Y217008D02*
X66929D01*
X62303Y219337D02*
X64632Y217008D01*
X59741Y218959D02*
Y219667D01*
X61531Y214847D02*
Y217170D01*
X59741Y218959D02*
X61531Y217170D01*
X61861Y183928D02*
Y184195D01*
X64370Y197008D02*
X66929D01*
X59597Y194262D02*
X60924Y195588D01*
X62950D01*
X56581Y190945D02*
X59597Y193961D01*
X61861Y193325D02*
X62050Y193136D01*
X62950Y195588D02*
X64370Y197008D01*
X61861Y184195D02*
X64675Y187008D01*
X52617Y190945D02*
X56581D01*
X59597Y193961D02*
Y194262D01*
X64675Y187008D02*
X66929D01*
X62050Y193136D02*
X62869D01*
X63997Y192008D01*
X66929D01*
X64017Y182008D02*
X66929D01*
X61861Y180118D02*
X62128D01*
X61861Y174467D02*
X64402Y177008D01*
X59597Y173161D02*
Y175150D01*
X59626Y175179D01*
X57055Y180532D02*
X59626Y177961D01*
X62128Y180118D02*
X64017Y182008D01*
X59626Y175179D02*
Y177961D01*
X59597Y173161D02*
X67904Y164855D01*
X61861Y174213D02*
Y174467D01*
X62313Y157195D02*
X66919D01*
X62303Y157185D02*
X62313Y157195D01*
X66919D02*
X66929Y157205D01*
X43543Y258319D02*
X43595D01*
X39921Y258024D02*
X39959Y258061D01*
X39921Y259992D02*
X39959Y260030D01*
X42801D01*
X39959Y258061D02*
X43285D01*
X34369Y258024D02*
X39921D01*
X43285Y258061D02*
X43543Y258319D01*
X62992Y24606D02*
Y28191D01*
X64035Y29234D01*
Y52577D01*
X60000Y56612D02*
X64035Y52577D01*
X60000Y56612D02*
Y60905D01*
X45276Y229742D02*
Y241840D01*
X48583Y228484D02*
Y228751D01*
X47539Y229794D02*
X48583Y228751D01*
X45276Y241840D02*
X46614Y243179D01*
Y247394D01*
X48583Y241986D02*
Y247394D01*
X47441Y240844D02*
X48583Y241986D01*
X47441Y231089D02*
X47539Y230990D01*
Y229794D02*
Y230990D01*
X47441Y231089D02*
Y240844D01*
X50197Y90709D02*
Y98425D01*
X50492Y98721D02*
Y101378D01*
X50197Y98425D02*
X50492Y98721D01*
X50551Y241449D02*
Y247394D01*
X51083Y239475D02*
X52520Y240912D01*
X51083Y232458D02*
Y239475D01*
X49213Y231822D02*
Y240110D01*
X50551Y241449D01*
X52520Y240912D02*
Y247394D01*
X51083Y232458D02*
X53799Y229742D01*
X58955D01*
X71129Y240556D02*
X73839D01*
X70236Y241449D02*
X71129Y240556D01*
X69892Y232458D02*
X70158D01*
X56494Y250392D02*
X59055Y252953D01*
X56457Y247394D02*
X56494Y247431D01*
Y250392D01*
X60394Y243358D02*
Y247394D01*
X66299Y266228D02*
Y266477D01*
X54488Y254417D02*
X66299Y266228D01*
X54488Y236394D02*
Y254417D01*
X60394Y243358D02*
X62067Y241685D01*
X58425Y241789D02*
X59528Y240687D01*
X58425Y241789D02*
Y247394D01*
X59528Y240421D02*
Y240687D01*
X62067Y241627D02*
Y241685D01*
X59908Y273772D02*
X60743Y274606D01*
X62992D01*
X62400Y251022D02*
X66299Y254921D01*
X62362Y247394D02*
X62400Y247431D01*
Y251022D01*
X64331Y237733D02*
Y247394D01*
X66299Y238520D02*
Y247394D01*
X68268Y240787D02*
Y247394D01*
X70236Y241449D02*
Y247394D01*
X64331Y237733D02*
X69114Y232949D01*
X66299Y238520D02*
X67767Y237052D01*
X68264D01*
X69114Y232949D02*
X69400D01*
X69892Y232458D01*
X68264Y237052D02*
X70104Y235213D01*
X68268Y240787D02*
X71087Y237968D01*
X71212D01*
X73940Y242817D02*
X75733D01*
X72242Y244514D02*
X73940Y242817D01*
X80049Y247364D02*
X80079Y247394D01*
X75733Y242817D02*
X75921Y242629D01*
X80049Y243555D02*
Y247364D01*
X72242Y244514D02*
Y247356D01*
X72205Y247394D02*
X72242Y247356D01*
X72441Y235947D02*
X80049Y243555D01*
X74173Y257203D02*
X76142Y259171D01*
X74173Y247394D02*
Y257203D01*
X76142Y253307D02*
X78740Y255906D01*
X76142Y247394D02*
Y253307D01*
X78110Y250836D02*
X78953Y251679D01*
X79388D01*
X79577Y251867D01*
X78110Y247394D02*
Y250836D01*
X66299Y266477D02*
X70866Y261910D01*
Y257874D02*
Y261910D01*
X93858Y247394D02*
Y251429D01*
X96516Y257921D02*
X96974D01*
X100514Y257986D02*
X100551Y258024D01*
X97039Y257986D02*
X100514D01*
X96974Y257921D02*
X97039Y257986D01*
X100527Y259968D02*
X100551Y259992D01*
X96516Y259968D02*
X100527D01*
X96243Y259695D02*
X96516Y259968D01*
X95785Y259695D02*
X96243D01*
X96516Y261961D02*
X100551D01*
X96294Y261739D02*
X96516Y261961D01*
X93122Y252165D02*
X93858Y251429D01*
X89567Y252165D02*
X93122D01*
X89871Y255062D02*
X90847Y254087D01*
X87457Y255062D02*
X89871D01*
X77756Y264764D02*
X87457Y255062D01*
X90847Y254087D02*
X107079D01*
X95921Y257326D02*
X96516Y257921D01*
X90551Y257326D02*
X95921D01*
X92626Y259287D02*
X95377D01*
X95785Y259695D01*
X94439Y261551D02*
X94627Y261739D01*
X91535Y260111D02*
X91802D01*
X94627Y261739D02*
X96294D01*
X91802Y260111D02*
X92626Y259287D01*
X95473Y266276D02*
X95739D01*
X96117Y265898D01*
X100551D01*
X82047Y243048D02*
Y247394D01*
X84016Y242511D02*
Y247394D01*
X77756Y233746D02*
X87915Y243905D01*
Y247356D02*
X87953Y247394D01*
X87915Y243905D02*
Y247356D01*
X79724Y233208D02*
X89921Y243405D01*
Y247394D01*
X91890Y242868D02*
Y247394D01*
X95853Y295425D02*
X100551D01*
X97282Y297394D02*
X100551D01*
X91837Y287397D02*
X91953Y287513D01*
X100514D01*
X100551Y287551D01*
X117126Y245163D02*
Y267857D01*
X109242Y275740D02*
X117126Y267857D01*
X100551Y275740D02*
X109242D01*
X100551Y273772D02*
X108705D01*
X115354Y267123D01*
Y246935D02*
Y267123D01*
X107473Y271803D02*
X113091Y266185D01*
X100551Y271803D02*
X107473D01*
X104437Y267866D02*
X106087Y266216D01*
Y266216D02*
Y266216D01*
X100551Y269835D02*
X105670D01*
X109316Y266189D01*
X100551Y267866D02*
X104437D01*
X123258Y103595D02*
X125870Y100982D01*
X120637Y134116D02*
X121486Y133266D01*
Y102861D02*
X124016Y100331D01*
X125029Y105488D02*
Y135012D01*
X124982Y135060D02*
X125029Y135012D01*
X126801Y111512D02*
X127461Y110852D01*
X125029Y105488D02*
X128134Y102383D01*
X123258Y103595D02*
Y134278D01*
X122605Y134931D02*
X123258Y134278D01*
X127461Y110586D02*
Y110852D01*
X126801Y111512D02*
Y174104D01*
X115000Y185906D02*
X126801Y174104D01*
X121486Y102861D02*
Y133266D01*
X119626Y102215D02*
Y131280D01*
X124982Y135060D02*
Y165924D01*
X122605Y134931D02*
Y158300D01*
X115000Y175906D02*
X124982Y165924D01*
X115000Y135906D02*
X119626Y131280D01*
X120637Y134116D02*
Y150269D01*
X115000Y165905D02*
X122605Y158300D01*
X125870Y92574D02*
Y100982D01*
X128134Y95906D02*
Y102383D01*
X117854Y101482D02*
X119724Y99612D01*
X115000Y105350D02*
X117854Y102496D01*
X121752Y90567D02*
Y100089D01*
X117854Y101482D02*
Y102496D01*
X115000Y105350D02*
Y105905D01*
X119724Y89811D02*
Y99612D01*
X119626Y102215D02*
X121752Y100089D01*
X124016Y91227D02*
Y100331D01*
X106952Y257326D02*
X107219D01*
X105681Y256055D02*
X106952Y257326D01*
X100551Y256055D02*
X105681D01*
X108368Y255376D02*
X110171D01*
X111236Y256441D01*
X107079Y254087D02*
X108368Y255376D01*
X118405Y278038D02*
X118898Y277545D01*
X118405Y278038D02*
Y278304D01*
X118898Y243391D02*
Y277545D01*
X93770Y280512D02*
X94605Y279677D01*
X93504Y280512D02*
X93770D01*
X94605Y279677D02*
X100551D01*
X100532Y277728D02*
X100551Y277709D01*
X91554Y277728D02*
X100532D01*
X91535Y277746D02*
X91554Y277728D01*
X100551Y277709D02*
X100589Y277746D01*
X95472Y282747D02*
Y282776D01*
Y282747D02*
X96573Y281646D01*
X120669Y241620D02*
Y279242D01*
X96573Y281646D02*
X100551D01*
X118498Y281413D02*
X120669Y279242D01*
X119616Y283981D02*
X122441Y281156D01*
X106183Y283614D02*
X107017Y284449D01*
X100551Y283614D02*
X106183D01*
X107017Y284449D02*
X107283D01*
X118686Y283981D02*
X119616D01*
X118498Y284169D02*
X118686Y283981D01*
X119177Y286925D02*
X124213Y281890D01*
X100589Y285620D02*
X104252D01*
X105049Y286417D01*
X105315D01*
X100551Y285583D02*
X100589Y285620D01*
X118498Y289681D02*
X118686Y289493D01*
X119295D01*
X121433Y287354D01*
X118498Y286925D02*
X119177D01*
X121433Y287354D02*
X121433D01*
X125984Y282803D01*
X100551Y293457D02*
X121307D01*
X72179Y161732D02*
X73819Y160092D01*
X71840Y164855D02*
X75590Y161105D01*
X75492Y143198D02*
X75590Y143296D01*
Y161105D01*
X73721Y143931D02*
X73819Y144030D01*
X69488Y137205D02*
X73721Y141437D01*
X73819Y144030D02*
Y160092D01*
X75492Y138209D02*
Y143198D01*
X69488Y132205D02*
X75492Y138209D01*
X73721Y141437D02*
Y143931D01*
X121752Y90567D02*
X128134Y84185D01*
X50197Y90709D02*
X55000Y85905D01*
X66715Y94274D02*
X66848D01*
X68041Y95467D01*
X68307D01*
X65965Y93524D02*
X66715Y94274D01*
X64035Y84941D02*
Y95143D01*
X62008Y97171D02*
X64035Y95143D01*
X60707Y75906D02*
X65965Y81163D01*
X60000Y80905D02*
X64035Y84941D01*
X65965Y81163D02*
Y93524D01*
X74385Y94296D02*
Y97171D01*
X74035Y93946D02*
X74385Y94296D01*
X55000Y75906D02*
X60707D01*
X75807Y93212D02*
X78740Y96145D01*
X75807Y81006D02*
Y93212D01*
X74035Y84941D02*
Y93946D01*
X70000Y80905D02*
X74035Y84941D01*
X60707Y65905D02*
X75807Y81006D01*
X55000Y65905D02*
X60707D01*
X15868Y238346D02*
X17976D01*
X18016Y238386D01*
X14952Y236409D02*
Y237430D01*
X15868Y238346D01*
X14764Y236221D02*
X14952Y236409D01*
X79724Y283465D02*
Y297244D01*
Y301181D01*
X82047Y303504D01*
X64402Y177008D02*
X66929D01*
X26772Y238386D02*
X32480D01*
X19685Y231299D02*
X26772Y238386D01*
X15829Y231299D02*
X19685D01*
X12421Y194549D02*
Y227892D01*
X15829Y231299D01*
X12421Y194549D02*
X14785Y192185D01*
X16344D01*
X17309Y191220D01*
X20629D01*
X24665Y187185D01*
X28561D01*
X32854Y182892D01*
X20871Y176221D02*
X20910Y176181D01*
X23355D02*
X24280Y175256D01*
X20512Y176221D02*
X20871D01*
X20910Y176181D02*
X23355D01*
X24089Y177953D02*
X25014Y177027D01*
X22794Y177953D02*
X24089D01*
X20490Y180256D02*
X22794Y177953D01*
X14785Y180256D02*
X20490D01*
X15739Y186221D02*
X17638D01*
X14785Y172185D02*
X15905D01*
X17638Y166220D02*
Y170453D01*
X15905Y172185D02*
X17638Y170453D01*
X83268Y231741D02*
X97885Y246358D01*
X85039Y231007D02*
X98619Y244587D01*
X97539Y225969D02*
X103756Y232185D01*
X95768Y226702D02*
X103022Y233957D01*
X90354Y228805D02*
X100821Y239272D01*
X88583Y229539D02*
X100087Y241043D01*
X104490Y230413D02*
X125098D01*
X103756Y232185D02*
X124365D01*
X103022Y233957D02*
X123631D01*
X86811Y230273D02*
X99353Y242815D01*
X102288Y235728D02*
X122897D01*
X100821Y239272D02*
X121429D01*
X120093Y241043D02*
X120669Y241620D01*
X100087Y241043D02*
X120093D01*
X99311Y225235D02*
X104490Y230413D01*
X99353Y242815D02*
X118321D01*
X116549Y244587D02*
X117126Y245163D01*
X93996Y227436D02*
X102288Y235728D01*
X98619Y244587D02*
X116549D01*
X92224Y228170D02*
X101554Y237500D01*
X97885Y246358D02*
X114778D01*
X121429Y239272D02*
X122441Y240283D01*
X122163Y237500D02*
X124213Y239549D01*
X122897Y235728D02*
X125984Y238816D01*
X123631Y233957D02*
X127839Y238165D01*
X124365Y232185D02*
X129610Y237431D01*
X125098Y230413D02*
X131382Y236697D01*
X101554Y237500D02*
X122163D01*
X114778Y246358D02*
X115354Y246935D01*
X118321Y242815D02*
X118898Y243391D01*
X128134Y22570D02*
Y44566D01*
X123031Y20669D02*
X125870Y23508D01*
Y43665D01*
X128134Y77268D02*
Y84185D01*
X125870Y46830D02*
X128134Y44566D01*
X124099Y45437D02*
X125870Y43665D01*
X124099Y25539D02*
Y42653D01*
X90296Y14764D02*
X113323D01*
X120846Y45906D02*
X124099Y42653D01*
X113323Y14764D02*
X124099Y25539D01*
X115000Y45906D02*
X120846D01*
X94134Y16772D02*
X101573D01*
X105866Y21065D01*
Y32479D01*
X100000Y21836D02*
X104095Y25931D01*
Y33212D01*
X100000Y20906D02*
Y21836D01*
X105866Y32479D02*
X109293Y35906D01*
X104095Y33212D02*
X105866Y34984D01*
X109293Y35906D02*
X115000D01*
X100000Y31623D02*
X103898Y35521D01*
X105866Y34984D02*
Y52618D01*
X100000Y30906D02*
Y31623D01*
X103898Y35521D02*
Y60649D01*
X124099Y45437D02*
Y72653D01*
X34046Y258347D02*
X34369Y258024D01*
X29236Y258347D02*
X34046D01*
X125870Y92574D02*
X127923Y90521D01*
X127868Y87598D02*
X128134D01*
X126985Y88257D02*
X127209D01*
X124016Y91227D02*
X126985Y88257D01*
X127209D02*
X127868Y87598D01*
X127642Y49394D02*
Y74121D01*
X119724Y89811D02*
X125807Y83728D01*
Y75956D02*
X127642Y74121D01*
X125807Y75956D02*
Y83728D01*
X125870Y46830D02*
Y73387D01*
X120707Y85905D02*
X124035Y82577D01*
Y75222D02*
Y82577D01*
Y75222D02*
X125870Y73387D01*
X115000Y85905D02*
X120707D01*
X120846Y75906D02*
X124099Y72653D01*
X127953Y49394D02*
X128134Y49213D01*
X74213Y184216D02*
Y235213D01*
X75984Y184950D02*
Y234479D01*
X77756Y185684D02*
Y233746D01*
X79724Y186221D02*
Y233208D01*
X81496Y187273D02*
Y232475D01*
X83268Y188006D02*
Y231741D01*
X85039Y188740D02*
Y231007D01*
X86811Y192033D02*
Y230273D01*
X88583Y195261D02*
Y229539D01*
X90354Y197440D02*
Y228805D01*
X92224Y201555D02*
Y228170D01*
X93996Y204783D02*
Y227436D01*
X95768Y208076D02*
Y226702D01*
X97539Y211305D02*
Y225969D01*
X99311Y214533D02*
Y225235D01*
X74213Y235213D02*
X82047Y243048D01*
X81496Y232475D02*
X91890Y242868D01*
X75984Y234479D02*
X84016Y242511D01*
X122441Y240283D02*
Y281156D01*
X124213Y239549D02*
Y281890D01*
X125984Y238816D02*
Y282803D01*
X121307Y293457D02*
X127839Y286925D01*
Y238165D02*
Y286925D01*
X118498Y299362D02*
X129610Y288249D01*
X100551Y299362D02*
X118498D01*
X129610Y237431D02*
Y288249D01*
X119035Y301331D02*
X131382Y288983D01*
X100551Y301331D02*
X119035D01*
X103799Y277746D02*
X106494Y280441D01*
X111236D01*
X100589Y277746D02*
X103799D01*
X131382Y236697D02*
Y288983D01*
X115000Y75906D02*
X120846D01*
X72441Y183482D02*
Y235947D01*
X42839Y151279D02*
X56916D01*
X38862Y155256D02*
X42839Y151279D01*
X24785Y155256D02*
X38862D01*
X20750Y151221D02*
X24785Y155256D01*
X57841Y152205D02*
X66929D01*
X56916Y151279D02*
X57841Y152205D01*
X15748Y151221D02*
X20750D01*
X52020Y179744D02*
X52808Y180532D01*
X57055D01*
X52020Y190348D02*
X52617Y190945D01*
X50984Y210531D02*
X60847D01*
X48524Y212992D02*
X50984Y210531D01*
X52854Y201181D02*
X58999D01*
X52020Y200348D02*
X52854Y201181D01*
X38661Y212992D02*
X48524D01*
X35433Y216220D02*
X38661Y212992D01*
X20512Y216220D02*
X35433D01*
X60847Y210531D02*
X64370Y207008D01*
X25139Y136221D02*
X43265D01*
X21103Y140256D02*
X25139Y136221D01*
X16714Y140256D02*
X21103D01*
X24884Y117087D02*
X40332D01*
X20512Y126221D02*
X36768D01*
X21714Y120256D02*
X24884Y117087D01*
X12421Y124549D02*
X16714Y120256D01*
X12421Y127892D02*
X14785Y130256D01*
X12421Y124549D02*
Y127892D01*
X16714Y120256D02*
X21714D01*
X15905Y130256D02*
X17638Y131988D01*
X14785Y130256D02*
X15905D01*
X17638Y131988D02*
Y136221D01*
X99311Y214533D02*
X101836Y212008D01*
X97539Y211305D02*
X101836Y207008D01*
X95768Y208076D02*
X101836Y202008D01*
X93996Y204783D02*
X101772Y197008D01*
X92224Y201555D02*
X101772Y192008D01*
X101836Y212008D02*
X104331D01*
X85039Y188740D02*
X101772Y172008D01*
X81496Y187273D02*
X93307Y175461D01*
X79724Y186221D02*
X91535Y174409D01*
X90354Y197440D02*
X100019Y187776D01*
X86811Y192033D02*
X101836Y177008D01*
X83268Y188006D02*
X95079Y176195D01*
X88583Y195261D02*
X101836Y182008D01*
X101836Y202008D02*
X104331D01*
X101836Y207008D02*
X104331D01*
X101772Y197008D02*
X104331D01*
X115000Y155905D02*
X120637Y150269D01*
X105965Y65610D02*
Y92577D01*
X101929Y61575D02*
X105965Y65610D01*
X100395Y97008D02*
X104468D01*
X95866Y50906D02*
Y92479D01*
X100395Y97008D01*
X104045Y82429D02*
Y93801D01*
X104035Y82420D02*
X104045Y82429D01*
X104035Y79234D02*
Y82420D01*
X99567Y74765D02*
X104035Y79234D01*
X99567Y40905D02*
Y74765D01*
X105965Y92577D02*
X109293Y95906D01*
X115000D01*
X72441Y183482D02*
X75569Y180354D01*
Y180354D02*
X84449Y171474D01*
X75569Y180354D02*
Y180354D01*
X74803Y183625D02*
Y183625D01*
Y183625D02*
X86221Y172208D01*
X74213Y184216D02*
X74803Y183625D01*
X79724Y181210D02*
Y181210D01*
Y181210D02*
X87992Y172942D01*
X75984Y184950D02*
X79724Y181210D01*
X77756Y185684D02*
X89764Y173676D01*
X101836Y182008D02*
X104331D01*
X93307Y150734D02*
Y175461D01*
X95079Y153962D02*
Y176195D01*
X101836Y177008D02*
X104331D01*
X84449Y129527D02*
Y171474D01*
Y129527D02*
X101772Y112205D01*
X104331D01*
X61531Y214847D02*
X64370Y212008D01*
X66929D01*
X89764Y144277D02*
Y173676D01*
X91535Y147505D02*
Y174409D01*
X86221Y137756D02*
Y172208D01*
X91535Y147505D02*
X101836Y137205D01*
X93307Y150734D02*
X101836Y142205D01*
X101772Y122205D02*
X104331D01*
X86221Y137756D02*
X101772Y122205D01*
X89764Y144277D02*
X101836Y132205D01*
Y127205D02*
X104331D01*
X87992Y141049D02*
X101836Y127205D01*
X87992Y141049D02*
Y172942D01*
X95079Y153962D02*
X101836Y147205D01*
X104331D01*
X101399Y187008D02*
X104331D01*
X100631Y187776D02*
X101399Y187008D01*
X100019Y187776D02*
X100631D01*
X101772Y192008D02*
X104331D01*
X101836Y132205D02*
X104331D01*
X101836Y137205D02*
X104331D01*
X101836Y142205D02*
X104331D01*
X101772Y172008D02*
X104331D01*
X24533Y157185D02*
X48885D01*
X20512Y156220D02*
X21378Y157087D01*
X24435D01*
X24533Y157185D01*
X48885D02*
X52329Y160630D01*
X59826Y202008D02*
X66929D01*
X58999Y201181D02*
X59826Y202008D01*
X64370Y207008D02*
X66929D01*
X44969Y166220D02*
X49379Y170630D01*
X62444Y160630D02*
X63310Y159764D01*
X20512Y166220D02*
X44969D01*
X49379Y170630D02*
X56957D01*
X65855Y161732D02*
X72179D01*
X67904Y164855D02*
X71840D01*
X52329Y160630D02*
X62444D01*
X56957Y170630D02*
X65855Y161732D01*
X66929Y142205D02*
X69488D01*
X72047Y144764D02*
Y159072D01*
X71355Y159764D02*
X72047Y159072D01*
X63310Y159764D02*
X71355D01*
X69488Y142205D02*
X72047Y144764D01*
X66929Y137205D02*
X69488D01*
X66929Y132205D02*
X69488D01*
X64370Y147205D02*
X66929D01*
X57913Y140748D02*
X64370Y147205D01*
X42083Y140748D02*
X57913D01*
X36610Y146221D02*
X42083Y140748D01*
X20512Y146221D02*
X36610D01*
X43265Y136221D02*
X48305Y131181D01*
X60394D01*
X64370Y127205D01*
X66929D01*
X46238Y111181D02*
X58346D01*
X64370Y117205D02*
X66929D01*
X58346Y111181D02*
X64370Y117205D01*
X40332Y117087D02*
X46238Y111181D01*
X58954Y121063D02*
X60096Y122205D01*
X41925Y121063D02*
X58954D01*
X60096Y122205D02*
X66929D01*
X36768Y126221D02*
X41925Y121063D01*
X109154Y65905D02*
X115000D01*
X103898Y60649D02*
X109154Y65905D01*
X110276Y100032D02*
Y107862D01*
X104045Y93801D02*
X110276Y100032D01*
X104468Y97008D02*
X108307Y100847D01*
Y108678D02*
X109449Y109819D01*
X108307Y100847D02*
Y108678D01*
X110276Y107862D02*
X111417Y109004D01*
Y112250D01*
X109449Y109819D02*
Y120354D01*
X115000Y125906D01*
X111417Y112250D02*
X115000Y115833D01*
Y115905D01*
X101535Y37402D02*
X101929Y37795D01*
X105866Y52618D02*
X109154Y55905D01*
X101929Y37795D02*
Y61575D01*
X109154Y55905D02*
X115000D01*
X85866Y19193D02*
X90296Y14764D01*
X85866Y19193D02*
Y22618D01*
X89626Y26378D01*
Y30532D01*
X90000Y30906D01*
Y20906D02*
X94134Y16772D01*
D16*
X29236Y252441D02*
D03*
Y258347D02*
D03*
X111236Y280441D02*
D03*
Y286347D02*
D03*
Y256441D02*
D03*
Y262347D02*
D03*
X29236Y278441D02*
D03*
Y284347D02*
D03*
D17*
X100551Y287551D02*
D03*
Y254087D02*
D03*
Y256055D02*
D03*
Y258024D02*
D03*
Y259992D02*
D03*
Y261961D02*
D03*
Y263929D02*
D03*
Y265898D02*
D03*
Y267866D02*
D03*
Y269835D02*
D03*
Y271803D02*
D03*
Y273772D02*
D03*
Y275740D02*
D03*
Y277709D02*
D03*
Y279677D02*
D03*
Y281646D02*
D03*
Y283614D02*
D03*
Y285583D02*
D03*
Y289520D02*
D03*
Y291488D02*
D03*
Y293457D02*
D03*
Y295425D02*
D03*
Y297394D02*
D03*
Y299362D02*
D03*
Y301331D02*
D03*
X39921D02*
D03*
Y299362D02*
D03*
Y297394D02*
D03*
Y295425D02*
D03*
Y293457D02*
D03*
Y291488D02*
D03*
Y289520D02*
D03*
Y287551D02*
D03*
Y285583D02*
D03*
Y283614D02*
D03*
Y281646D02*
D03*
Y279677D02*
D03*
Y277709D02*
D03*
Y275740D02*
D03*
Y273772D02*
D03*
Y271803D02*
D03*
Y269835D02*
D03*
Y267866D02*
D03*
Y265898D02*
D03*
Y263929D02*
D03*
Y261961D02*
D03*
Y259992D02*
D03*
Y258024D02*
D03*
Y256055D02*
D03*
Y254087D02*
D03*
D18*
X46614Y247394D02*
D03*
X48583D02*
D03*
X50551D02*
D03*
X52520D02*
D03*
X54488D02*
D03*
X56457D02*
D03*
X58425D02*
D03*
X60394D02*
D03*
X62362D02*
D03*
X64331D02*
D03*
X66299D02*
D03*
X68268D02*
D03*
X70236D02*
D03*
X72205D02*
D03*
X74173D02*
D03*
X76142D02*
D03*
X78110D02*
D03*
X80079D02*
D03*
X82047D02*
D03*
X84016D02*
D03*
X85984D02*
D03*
X87953D02*
D03*
X89921D02*
D03*
X91890D02*
D03*
X93858D02*
D03*
Y308024D02*
D03*
X91890D02*
D03*
X89921D02*
D03*
X87953D02*
D03*
X85984D02*
D03*
X84016D02*
D03*
X82047D02*
D03*
X80079D02*
D03*
X78110D02*
D03*
X76142D02*
D03*
X74173D02*
D03*
X72205D02*
D03*
X70236D02*
D03*
X68268D02*
D03*
X66299D02*
D03*
X64331D02*
D03*
X62362D02*
D03*
X60394D02*
D03*
X58425D02*
D03*
X56457D02*
D03*
X54488D02*
D03*
X52520D02*
D03*
X50551D02*
D03*
X48583D02*
D03*
X46614D02*
D03*
D19*
X76173Y326599D02*
D03*
X69874D02*
D03*
X76173Y338598D02*
D03*
X69874D02*
D03*
X76173Y332598D02*
D03*
X69874D02*
D03*
X76173Y344599D02*
D03*
X69874D02*
D03*
D20*
X57157D02*
D03*
X50858D02*
D03*
X57157Y338598D02*
D03*
X50858D02*
D03*
X57157Y332598D02*
D03*
X50858D02*
D03*
X57157Y326599D02*
D03*
X50858D02*
D03*
D21*
X29535Y14228D02*
D03*
Y17968D02*
D03*
Y21709D02*
D03*
X21189Y14228D02*
D03*
Y21709D02*
D03*
D22*
X104331Y164370D02*
D03*
X98425D02*
D03*
X104331Y224410D02*
D03*
X110236D02*
D03*
X80079Y319394D02*
D03*
X74173D02*
D03*
X93947Y319400D02*
D03*
X99853D02*
D03*
X54488Y236394D02*
D03*
X60394D02*
D03*
X65945Y4921D02*
D03*
X71850D02*
D03*
D23*
X21819Y5968D02*
D03*
X28905D02*
D03*
Y29969D02*
D03*
X21819D02*
D03*
D24*
X66929Y157205D02*
D03*
Y152205D02*
D03*
Y147205D02*
D03*
Y142205D02*
D03*
Y137205D02*
D03*
Y132205D02*
D03*
Y127205D02*
D03*
Y122205D02*
D03*
Y117205D02*
D03*
Y112205D02*
D03*
X104331Y157205D02*
D03*
Y152205D02*
D03*
Y147205D02*
D03*
Y142205D02*
D03*
Y137205D02*
D03*
Y132205D02*
D03*
Y127205D02*
D03*
Y122205D02*
D03*
Y117205D02*
D03*
Y112205D02*
D03*
Y172008D02*
D03*
Y177008D02*
D03*
Y182008D02*
D03*
Y187008D02*
D03*
Y192008D02*
D03*
Y197008D02*
D03*
Y202008D02*
D03*
Y207008D02*
D03*
Y212008D02*
D03*
Y217008D02*
D03*
X66929Y172008D02*
D03*
Y177008D02*
D03*
Y182008D02*
D03*
Y187008D02*
D03*
Y192008D02*
D03*
Y197008D02*
D03*
Y202008D02*
D03*
Y207008D02*
D03*
Y212008D02*
D03*
Y217008D02*
D03*
D25*
X32480Y238386D02*
D03*
X28638Y245866D02*
D03*
X36118D02*
D03*
X18016Y238386D02*
D03*
X14173Y245866D02*
D03*
X21654D02*
D03*
D26*
X13353Y329068D02*
D03*
X11384D02*
D03*
X9416D02*
D03*
X7447D02*
D03*
X13353Y325132D02*
D03*
X11384D02*
D03*
X9416D02*
D03*
X7447D02*
D03*
D44*
X101231Y318022D02*
X102529D01*
X99853Y319400D02*
X101231Y318022D01*
X103102Y309761D02*
Y314107D01*
X102529Y314681D02*
X103102Y314107D01*
X102529Y314681D02*
Y318022D01*
X123592Y308889D02*
X124378Y309676D01*
Y309677D01*
X101626Y309761D02*
X103102D01*
X124294D01*
X101626D02*
Y312800D01*
X2378Y73825D02*
X5600Y70603D01*
Y13996D02*
X8858Y10738D01*
X5600Y13996D02*
Y70603D01*
X2378Y75782D02*
X2480Y75884D01*
Y182010D01*
X2378Y73825D02*
Y75782D01*
X4700Y184229D02*
Y326321D01*
X2480Y182010D02*
X4700Y184229D01*
Y326321D02*
X7053Y328675D01*
X7447Y328714D02*
Y329068D01*
X7053Y328675D02*
X7408D01*
X7447Y328714D01*
X7447Y329068D02*
X9416D01*
X13353D01*
X100551Y263929D02*
X105496D01*
X96521D02*
X100551D01*
X39921Y285583D02*
X47095D01*
X34803D02*
X39921D01*
X47095D02*
X55118Y277559D01*
X72205Y280526D02*
Y308024D01*
Y317524D01*
X69882Y278203D02*
X72205Y280526D01*
X90737Y289760D02*
X92815D01*
X93055Y289520D02*
X100551D01*
X88817Y287840D02*
X90737Y289760D01*
X92815D02*
X93055Y289520D01*
X86849Y297787D02*
X91180Y302118D01*
X95827Y304506D02*
Y307001D01*
X86849Y283614D02*
Y297787D01*
X93439Y302118D02*
X95827Y304506D01*
X91180Y302118D02*
X93439D01*
X95827Y307001D02*
X101626Y312800D01*
X124294Y309761D02*
X124378Y309677D01*
X39921Y254087D02*
X44460D01*
X30784D02*
X39921D01*
X60657Y268839D02*
X61162D01*
X44855Y254482D02*
X46300D01*
X44460Y254087D02*
X44855Y254482D01*
X46300D02*
X60657Y268839D01*
X57961Y233882D02*
Y234060D01*
X55000Y232458D02*
X56537D01*
X57961Y234060D02*
X60295Y236394D01*
X56537Y232458D02*
X57961Y233882D01*
X60295Y236394D02*
X60394D01*
X69882Y269297D02*
X72596Y266583D01*
X73858Y261534D02*
X78221D01*
X72596Y262795D02*
Y266583D01*
Y262795D02*
X73858Y261534D01*
X69882Y269297D02*
Y277559D01*
X78221Y261534D02*
X85984Y253770D01*
Y247394D02*
Y253770D01*
X95467Y263913D02*
X95467Y263913D01*
X96505D02*
X96521Y263929D01*
X70255Y277186D02*
X83528Y263913D01*
X95467Y263913D02*
X96505D01*
X83528Y263913D02*
X95467D01*
X100551Y289520D02*
X105553D01*
X107079Y262347D02*
X111236D01*
X105496Y263929D02*
X107079Y262347D01*
X105553Y289520D02*
X107250Y287823D01*
X109858D01*
X70628Y277559D02*
X83578D01*
X88817Y282799D01*
Y287840D01*
X72596Y279528D02*
X82762D01*
X86849Y283614D01*
X55118Y277559D02*
X69449D01*
X61162Y268839D02*
X69882Y277559D01*
X70628D01*
X72596Y279528D01*
X74075Y319394D02*
X74173D01*
X72205Y317524D02*
X74075Y319394D01*
X33567Y284347D02*
X34803Y285583D01*
X29236Y284347D02*
X33567D01*
X29236Y252539D02*
X30784Y254087D01*
X66929Y280512D02*
X69449Y277992D01*
X58425Y292323D02*
Y308024D01*
X69449Y277992D02*
Y281299D01*
X58425Y292323D02*
X69449Y281299D01*
X62992Y280512D02*
X66929D01*
X46614Y296890D02*
Y308024D01*
Y296890D02*
X62992Y280512D01*
X69882Y277559D02*
Y278203D01*
X109858Y287823D02*
X111236Y286445D01*
Y286347D02*
Y286445D01*
D45*
X119095Y14764D02*
X121931Y17600D01*
X127200D01*
X130890Y21290D01*
Y210646D01*
X7004Y146765D02*
X7962Y145807D01*
Y20416D02*
X21504Y6874D01*
X6614Y180297D02*
X10158Y183841D01*
X7962Y20416D02*
Y145807D01*
X6614Y172144D02*
Y180297D01*
X10158Y235837D02*
X16447Y242126D01*
X10158Y183841D02*
Y235837D01*
X7004Y146765D02*
Y171754D01*
X6614Y172144D02*
X7004Y171754D01*
X116437Y224519D02*
X116814Y224896D01*
Y226405D02*
X117126Y226717D01*
X116814Y224896D02*
Y226405D01*
X36736Y344599D02*
X50858D01*
X20669Y328532D02*
X36736Y344599D01*
X74803Y9843D02*
Y22112D01*
Y7874D02*
Y9843D01*
X19804Y254508D02*
X27099D01*
X18407Y255906D02*
X19804Y254508D01*
X28252Y253524D02*
X29236Y252539D01*
X27099Y254508D02*
X28083Y253524D01*
X28252D01*
X29236Y252441D02*
Y252539D01*
X14173Y245866D02*
Y254752D01*
X15326Y255906D02*
X18407D01*
X14173Y254752D02*
X15326Y255906D01*
X50858Y332598D02*
Y338598D01*
Y344599D01*
Y326599D02*
Y332598D01*
X55000Y11811D02*
Y25905D01*
Y10945D02*
Y11811D01*
X10827Y36779D02*
Y95591D01*
X26457Y111221D01*
X65748Y23056D02*
Y26654D01*
X78262Y25571D02*
X81068D01*
X84528Y56959D02*
X90000Y62431D01*
X74803Y22112D02*
X78262Y25571D01*
X81068D02*
X84528Y29030D01*
X65748Y26654D02*
X70000Y30906D01*
X84528Y29030D02*
Y56959D01*
X27559Y247732D02*
X28638Y246654D01*
X27559Y250665D02*
X28835Y251941D01*
X28638Y245866D02*
Y246654D01*
X27559Y247732D02*
Y250665D01*
X28835Y251941D02*
Y252040D01*
X47278Y252119D02*
X61636Y266477D01*
X45834Y252119D02*
X47278D01*
X42034Y243806D02*
Y248320D01*
X45834Y252119D01*
X61636Y266477D02*
X66299D01*
X65472Y15899D02*
Y22781D01*
X65748Y23056D01*
X77854Y120571D02*
Y163642D01*
X69488Y112205D02*
X77854Y120571D01*
X69488Y112205D02*
X96319D01*
X66929Y172008D02*
X69488D01*
X77854Y163642D01*
X66929Y112205D02*
X69488D01*
X96319D02*
X98287Y110236D01*
X26457Y111221D02*
X27638D01*
X17638Y29969D02*
X21819D01*
X10827Y36779D02*
X17638Y29969D01*
X16447Y242126D02*
X40354D01*
X42034Y243806D01*
X21504Y6874D02*
Y14031D01*
Y6874D02*
X21819Y6559D01*
Y5968D02*
Y6559D01*
X98287Y160433D02*
X98425Y160571D01*
X98287Y110236D02*
X98425Y110098D01*
Y160571D02*
Y164370D01*
Y107047D02*
Y110098D01*
X85472Y94095D02*
X98425Y107047D01*
X104360Y226996D02*
X105513Y228150D01*
X104360Y224439D02*
Y226996D01*
X105513Y228150D02*
X115694D01*
X104331Y224410D02*
X104360Y224439D01*
X115694Y228150D02*
X117126Y226717D01*
Y224410D02*
X130890Y210646D01*
X28905Y5968D02*
X33276D01*
X21307Y14228D02*
X21504Y14031D01*
X21189Y14228D02*
X21307D01*
X25791Y17717D02*
Y25326D01*
Y12664D02*
Y17717D01*
X25846Y17772D02*
X29339D01*
X25791Y17717D02*
X25846Y17772D01*
X29339D02*
X29535Y17968D01*
X21819Y29298D02*
Y29969D01*
Y29298D02*
X25791Y25326D01*
Y12664D02*
X27717Y10738D01*
Y7157D02*
Y10738D01*
Y7157D02*
X28905Y5968D01*
X29221Y21905D02*
X29417Y21709D01*
X28905Y29969D02*
X29221Y29653D01*
X29417Y21709D02*
X29535D01*
X29221Y21905D02*
Y29653D01*
X33465Y21709D02*
X50288D01*
X29535D02*
X33465D01*
X30323Y14228D02*
X31110Y15016D01*
X31892D01*
X33276Y16399D01*
Y21520D01*
X29535Y14228D02*
X30323D01*
X33276Y21520D02*
X33465Y21709D01*
X50288D02*
X54485Y25905D01*
X55000D01*
X61024Y4921D02*
X65945D01*
X55000Y10945D02*
X61024Y4921D01*
X65945D02*
Y15426D01*
X65472Y15899D02*
X65945Y15426D01*
X71949Y4921D02*
X72933Y5906D01*
Y6004D01*
X74803Y7874D01*
X71850Y4921D02*
X71949D01*
X90000Y62431D02*
Y80905D01*
X85472Y85433D02*
Y94095D01*
Y85433D02*
X90000Y80905D01*
X104331Y217008D02*
X106890D01*
X109843Y214055D01*
Y169783D02*
Y214055D01*
X104429Y164370D02*
X109843Y169783D01*
X104331Y164370D02*
X104429D01*
X104331Y217008D02*
Y224410D01*
Y157205D02*
Y164370D01*
D46*
X20669Y274921D02*
D03*
Y328532D02*
D03*
X55000Y215905D02*
D03*
X115000D02*
D03*
D47*
X20669Y264921D02*
D03*
Y254921D02*
D03*
Y288532D02*
D03*
Y298532D02*
D03*
Y308532D02*
D03*
Y318532D02*
D03*
X123592Y308889D02*
D03*
X116521Y315960D02*
D03*
X109449Y323031D02*
D03*
X102378Y330102D02*
D03*
X95307Y337173D02*
D03*
X55000Y25905D02*
D03*
Y35906D02*
D03*
Y45906D02*
D03*
Y55905D02*
D03*
Y65905D02*
D03*
Y145905D02*
D03*
Y155905D02*
D03*
Y165905D02*
D03*
Y175906D02*
D03*
Y185906D02*
D03*
Y195905D02*
D03*
Y205906D02*
D03*
Y135906D02*
D03*
Y125906D02*
D03*
Y115905D02*
D03*
Y105905D02*
D03*
Y95906D02*
D03*
Y85905D02*
D03*
Y75906D02*
D03*
X115000Y25905D02*
D03*
Y35906D02*
D03*
Y45906D02*
D03*
Y55905D02*
D03*
Y65905D02*
D03*
Y145905D02*
D03*
Y155905D02*
D03*
Y165905D02*
D03*
Y175906D02*
D03*
Y185906D02*
D03*
Y195905D02*
D03*
Y205906D02*
D03*
Y135906D02*
D03*
Y125906D02*
D03*
Y115905D02*
D03*
Y105905D02*
D03*
Y95906D02*
D03*
Y85905D02*
D03*
Y75906D02*
D03*
D48*
X88236Y344244D02*
D03*
D49*
X90000Y80905D02*
D03*
D50*
X80000Y90905D02*
D03*
Y80905D02*
D03*
X70000Y90905D02*
D03*
Y80905D02*
D03*
X60000Y90905D02*
D03*
X50000Y80905D02*
D03*
X60000D02*
D03*
X50000Y70906D02*
D03*
X60000D02*
D03*
X50000Y60905D02*
D03*
X60000D02*
D03*
X50000Y50906D02*
D03*
X60000D02*
D03*
X50000Y40905D02*
D03*
X60000D02*
D03*
X50000Y30906D02*
D03*
X60000Y20906D02*
D03*
Y30906D02*
D03*
X70000Y20906D02*
D03*
Y30906D02*
D03*
X80000Y20906D02*
D03*
Y30906D02*
D03*
X90000Y20906D02*
D03*
Y30906D02*
D03*
X100000Y20906D02*
D03*
Y30906D02*
D03*
X110000Y20906D02*
D03*
X120000Y30906D02*
D03*
X110000D02*
D03*
X120000Y40905D02*
D03*
X110000D02*
D03*
X120000Y50906D02*
D03*
X110000D02*
D03*
X120000Y60905D02*
D03*
X110000D02*
D03*
X120000Y70906D02*
D03*
X110000D02*
D03*
X120000Y80905D02*
D03*
X110000Y90905D02*
D03*
Y80905D02*
D03*
X100000Y90905D02*
D03*
Y80905D02*
D03*
X90000Y90905D02*
D03*
D51*
X17638Y87992D02*
D03*
X27638Y72992D02*
D03*
X17638Y67992D02*
D03*
X27638Y62992D02*
D03*
X17638Y57992D02*
D03*
X27638Y52992D02*
D03*
X17638Y47992D02*
D03*
X27638Y42992D02*
D03*
Y82992D02*
D03*
X17638Y77992D02*
D03*
Y226220D02*
D03*
X27638Y211221D02*
D03*
X17638Y206221D02*
D03*
X27638Y201220D02*
D03*
X17638Y196221D02*
D03*
X27638Y191220D02*
D03*
X17638Y186221D02*
D03*
X27638Y181220D02*
D03*
Y221220D02*
D03*
X17638Y216220D02*
D03*
X27638Y171221D02*
D03*
X17638Y166220D02*
D03*
X27638Y161221D02*
D03*
X17638Y176221D02*
D03*
Y156220D02*
D03*
X27638Y141220D02*
D03*
X17638Y136221D02*
D03*
X27638Y131220D02*
D03*
X17638Y126221D02*
D03*
X27638Y121221D02*
D03*
X17638Y116220D02*
D03*
X27638Y111221D02*
D03*
Y151221D02*
D03*
X17638Y146221D02*
D03*
D52*
X39041Y91436D02*
D03*
X13100Y5900D02*
D03*
X39464Y53799D02*
D03*
X51052Y192648D02*
D03*
X51047Y202654D02*
D03*
X4740Y74803D02*
D03*
X8400Y314300D02*
D03*
X88583Y44347D02*
D03*
Y56959D02*
D03*
X41339Y320866D02*
D03*
Y312008D02*
D03*
X14562Y94488D02*
D03*
X21914Y53569D02*
D03*
X70866Y68859D02*
D03*
X80000Y69983D02*
D03*
X70467Y40905D02*
D03*
X37402Y25905D02*
D03*
X48228Y15748D02*
D03*
X61024Y10827D02*
D03*
X70000D02*
D03*
X125000Y8858D02*
D03*
X110236Y131890D02*
D03*
X107283Y160531D02*
D03*
X127953Y195866D02*
D03*
X128937Y228346D02*
D03*
X99410Y249016D02*
D03*
X116142Y274606D02*
D03*
X78740Y313976D02*
D03*
X112975Y304997D02*
D03*
X100627Y309074D02*
D03*
X11811Y345472D02*
D03*
X61066Y278896D02*
D03*
X51481Y269933D02*
D03*
X66299Y260175D02*
D03*
X31201Y248544D02*
D03*
X36516Y235236D02*
D03*
X27559Y314961D02*
D03*
X25349Y295721D02*
D03*
X45400Y262671D02*
D03*
X46260Y266732D02*
D03*
X35647Y261268D02*
D03*
X32235Y270099D02*
D03*
X33917Y267915D02*
D03*
X32971Y260610D02*
D03*
X29236Y301194D02*
D03*
X79420Y102812D02*
D03*
X18504Y245866D02*
D03*
X25787Y323081D02*
D03*
X55000Y11811D02*
D03*
X8858Y10738D02*
D03*
X49709Y287650D02*
D03*
X33134Y287254D02*
D03*
X64331Y292323D02*
D03*
X69646Y289173D02*
D03*
X94252Y299900D02*
D03*
X89211Y296260D02*
D03*
X98899Y303693D02*
D03*
X46260Y282480D02*
D03*
X33352Y281496D02*
D03*
X47244Y278543D02*
D03*
X33352Y276438D02*
D03*
X70000Y25571D02*
D03*
X67913Y66929D02*
D03*
X68071Y76471D02*
D03*
X51083Y221358D02*
D03*
X62303Y219599D02*
D03*
X61861Y183928D02*
D03*
Y193325D02*
D03*
Y180118D02*
D03*
Y174213D02*
D03*
X62303Y157185D02*
D03*
X45322Y256844D02*
D03*
X62992Y24606D02*
D03*
X45276Y229742D02*
D03*
X48583Y228484D02*
D03*
X50492Y101378D02*
D03*
X58888Y226607D02*
D03*
X55000Y232458D02*
D03*
X58955Y229742D02*
D03*
X73839Y240556D02*
D03*
X70158Y232458D02*
D03*
X59055Y252953D02*
D03*
X62067Y241627D02*
D03*
X59528Y240421D02*
D03*
X66299Y254921D02*
D03*
X70104Y235213D02*
D03*
X71212Y237968D02*
D03*
X75921Y242629D02*
D03*
X79577Y251867D02*
D03*
X78740Y255906D02*
D03*
X76142Y259171D02*
D03*
X89567Y252165D02*
D03*
X94439Y261551D02*
D03*
X90551Y257326D02*
D03*
X91535Y260111D02*
D03*
X95473Y266276D02*
D03*
X91837Y287397D02*
D03*
X113091Y266185D02*
D03*
X106087Y266216D02*
D03*
X109316Y266189D02*
D03*
X107219Y257326D02*
D03*
X93504Y280512D02*
D03*
X95472Y282776D02*
D03*
X118405Y278304D02*
D03*
X118498Y281413D02*
D03*
X107283Y284449D02*
D03*
X118498Y284169D02*
D03*
X105315Y286417D02*
D03*
X118498Y286925D02*
D03*
Y289681D02*
D03*
X108169Y223284D02*
D03*
X127461Y110586D02*
D03*
X62008Y97171D02*
D03*
X68307Y95467D02*
D03*
X74385Y97171D02*
D03*
X14764Y236221D02*
D03*
X79724Y283465D02*
D03*
X91535Y277746D02*
D03*
X70866Y257874D02*
D03*
X77756Y264764D02*
D03*
X62992Y274606D02*
D03*
X79724Y297244D02*
D03*
X98287Y160433D02*
D03*
Y110236D02*
D03*
X128134Y22570D02*
D03*
X123031Y20669D02*
D03*
X128134Y95906D02*
D03*
Y87598D02*
D03*
Y77268D02*
D03*
Y49213D02*
D03*
X74803Y9843D02*
D03*
X33276Y5968D02*
D03*
X51083Y182008D02*
D03*
X95866Y50906D02*
D03*
X99567Y40905D02*
D03*
X127923Y90521D02*
D03*
X101535Y37402D02*
D03*
D53*
X116437Y224519D02*
D03*
X66299Y266477D02*
D03*
X119095Y14764D02*
D03*
X69882Y277559D02*
D03*
M02*
