M48
;Layer_Color=9474304
;FILE_FORMAT=2:5
INCH,TZ
;TYPE=PLATED
T1F00S00C0.01181
T2F00S00C0.02362
T3F00S00C0.03150
T4F00S00C0.03937
%
T01
X53000Y19000
X104000
X23000Y9000
X10598Y136648
X12000Y150000
X19220Y156264
X24220
X29221Y158000
X34220Y159000
X39220Y160000
X38000Y154000
X45000Y168000
X50000Y165000
X55000Y146280
X82000Y151000
Y140905
X80059Y130905
X94000Y60000
X100000Y62000
X97000Y50906
X60000Y46000
Y56000
X113000Y77000
X117000Y220071
X121672Y230379
X126984Y236686
X126498Y239543
X129644Y243122
X130908Y245571
X132861Y247543
X135345Y248736
X139000Y255000
X129284Y255464
X127922Y252071
X129378Y261000
X129284Y264622
X132837Y268185
X138228Y268022
X138244Y275096
X132843Y274848
X133075Y280520
X133042Y286456
X131436Y292815
X136386Y294014
X134818Y296567
X119672Y286061
X118529Y277362
X113758Y281500
X104047Y281000
X94000Y275000
X95841Y265042
X102000Y259209
X102500Y252551
X94159Y248000
X82041Y251192
X84000Y259597
X73000Y260601
X70971Y258235
X71000Y264000
X69120Y271457
X67147Y255807
X68506Y252694
X67000Y250000
Y247000
X68772Y241929
Y238756
X66000Y236000
X73000Y232000
X76488Y232087
X78992Y230935
X82394Y230000
X84067Y221205
Y217258
X78457Y220556
X58000Y217000
X51531Y225394
X48303Y222814
X44000
X42000Y225000
X56000Y239000
X55819Y244193
X54094Y246457
X47496Y255519
X47414Y258289
X47416Y261079
X46990Y264187
X44199Y264910
X63850Y286024
X76488Y292198
X78259Y294309
X81483Y292198
X88548Y293426
X100000Y304000
X109000Y303000
X109497Y292300
X114000Y263000
X117000Y261652
X116000Y258205
X117994Y255413
X108000Y230179
X140016Y221839
X134385Y210000
X55094Y193000
X18000Y220000
X16760Y238000
X22000Y249000
X5000Y250000
X7000Y278000
Y292000
X9000Y310000
X29299Y303000
T02
X88051Y5000
T03
X42409Y10905
Y20906
X63000
Y10905
X73000
Y20906
X123000
Y10905
X133000
Y20906
X32409Y15905
Y25905
Y35906
Y45906
Y55905
Y65905
Y75906
Y85905
Y95906
Y105905
Y115905
Y125906
X42409Y120905
Y110906
Y100906
Y90905
Y80905
Y70906
Y60905
Y50906
Y40905
Y30906
X63000
Y40905
Y50906
Y60905
Y70906
Y80905
Y90905
Y100906
Y110906
Y120905
Y130905
Y140905
Y150906
Y160906
Y170905
Y180905
X73000
Y170905
Y160906
Y150906
Y140905
Y130905
Y120905
Y110906
Y100906
Y90905
Y80905
Y70906
Y60905
Y50906
Y40905
Y30906
X123000
Y40905
Y50906
Y60905
Y70906
Y80905
Y90905
Y100906
Y110906
Y120905
Y130905
Y140905
Y150906
Y160906
Y170905
Y180905
X133000
Y170905
Y160906
Y150906
Y140905
Y130905
Y120905
Y110906
Y100906
Y90905
Y80905
Y70906
Y60905
Y50906
Y40905
Y30906
Y190905
X123000
Y200905
X133000
X73000
X63000
Y190905
X73000
X29299Y249197
Y259197
Y269197
Y279197
Y289197
X19299Y284197
Y274197
Y264197
Y254197
Y294197
T04
X43000Y307000
X53000
X63000
X73000
Y317000
X63000
X53000
X43000
X85000Y307000
X95000
X105000
X115000
X125000
X135000
Y319000
X125000
X115000
M30
