G04*
G04 #@! TF.GenerationSoftware,Altium Limited,Altium Designer,21.0.9 (235)*
G04*
G04 Layer_Color=65535*
%FSLAX25Y25*%
%MOIN*%
G70*
G04*
G04 #@! TF.SameCoordinates,ED66E9C7-4F28-4913-B563-96F2E2C7BF46*
G04*
G04*
G04 #@! TF.FilePolarity,Positive*
G04*
G01*
G75*
%ADD10C,0.03937*%
%ADD11C,0.00787*%
%ADD12C,0.00984*%
%ADD13C,0.02362*%
%ADD14C,0.00394*%
%ADD15C,0.00591*%
G36*
X52116Y91558D02*
X52184D01*
X52271Y91549D01*
X52371Y91539D01*
X52485Y91526D01*
X52607Y91512D01*
X52739Y91489D01*
X52880Y91462D01*
X53026Y91430D01*
X53172Y91389D01*
X53322Y91344D01*
X53472Y91289D01*
X53622Y91225D01*
X53768Y91153D01*
X53777Y91148D01*
X53799Y91135D01*
X53841Y91107D01*
X53895Y91075D01*
X53959Y91034D01*
X54032Y90980D01*
X54114Y90916D01*
X54200Y90848D01*
X54295Y90766D01*
X54391Y90675D01*
X54487Y90579D01*
X54587Y90470D01*
X54682Y90352D01*
X54773Y90224D01*
X54860Y90092D01*
X54942Y89947D01*
X54946Y89938D01*
X54955Y89920D01*
X54969Y89883D01*
X54992Y89838D01*
X55014Y89779D01*
X55042Y89706D01*
X55069Y89624D01*
X55101Y89533D01*
X55128Y89428D01*
X55155Y89310D01*
X55183Y89187D01*
X55206Y89055D01*
X55228Y88914D01*
X55242Y88759D01*
X55251Y88600D01*
X55256Y88436D01*
Y88359D01*
X55251Y88323D01*
Y88286D01*
X55246Y88245D01*
X55242Y88145D01*
X55228Y88031D01*
X55215Y87904D01*
X55192Y87767D01*
X55169Y87626D01*
X55133Y87476D01*
X55096Y87322D01*
X55046Y87171D01*
X54992Y87021D01*
X54923Y86876D01*
X54846Y86735D01*
X54760Y86607D01*
X54755Y86598D01*
X54737Y86580D01*
X54710Y86544D01*
X54669Y86503D01*
X54619Y86448D01*
X54559Y86389D01*
X54487Y86321D01*
X54405Y86252D01*
X54314Y86180D01*
X54214Y86111D01*
X54100Y86039D01*
X53982Y85970D01*
X53850Y85906D01*
X53708Y85847D01*
X53563Y85797D01*
X53404Y85756D01*
X53167Y87017D01*
X53172D01*
X53185Y87021D01*
X53213Y87030D01*
X53244Y87044D01*
X53281Y87058D01*
X53326Y87080D01*
X53376Y87103D01*
X53431Y87130D01*
X53486Y87162D01*
X53545Y87199D01*
X53608Y87240D01*
X53668Y87285D01*
X53727Y87340D01*
X53786Y87394D01*
X53845Y87454D01*
X53895Y87522D01*
X53900Y87526D01*
X53909Y87540D01*
X53922Y87558D01*
X53936Y87586D01*
X53959Y87622D01*
X53982Y87667D01*
X54004Y87717D01*
X54032Y87772D01*
X54059Y87836D01*
X54082Y87904D01*
X54104Y87981D01*
X54127Y88063D01*
X54141Y88145D01*
X54154Y88241D01*
X54163Y88336D01*
X54168Y88436D01*
Y88473D01*
X54163Y88518D01*
X54159Y88573D01*
X54150Y88646D01*
X54141Y88727D01*
X54123Y88814D01*
X54100Y88914D01*
X54072Y89019D01*
X54036Y89123D01*
X53995Y89237D01*
X53945Y89346D01*
X53881Y89455D01*
X53813Y89560D01*
X53731Y89665D01*
X53636Y89760D01*
X53631Y89765D01*
X53613Y89783D01*
X53581Y89806D01*
X53536Y89838D01*
X53481Y89874D01*
X53413Y89915D01*
X53335Y89961D01*
X53244Y90006D01*
X53140Y90052D01*
X53022Y90097D01*
X52894Y90138D01*
X52753Y90174D01*
X52598Y90206D01*
X52434Y90229D01*
X52257Y90247D01*
X52070Y90252D01*
X52066D01*
X52057D01*
X52043D01*
X52021D01*
X51993D01*
X51966Y90247D01*
X51929D01*
X51889Y90243D01*
X51793Y90238D01*
X51688Y90224D01*
X51570Y90211D01*
X51443Y90188D01*
X51306Y90165D01*
X51170Y90129D01*
X51029Y90092D01*
X50892Y90043D01*
X50756Y89988D01*
X50624Y89920D01*
X50501Y89842D01*
X50392Y89756D01*
X50387Y89751D01*
X50369Y89733D01*
X50341Y89706D01*
X50305Y89665D01*
X50264Y89615D01*
X50214Y89556D01*
X50164Y89483D01*
X50114Y89406D01*
X50059Y89315D01*
X50009Y89219D01*
X49964Y89110D01*
X49918Y88991D01*
X49882Y88869D01*
X49855Y88737D01*
X49837Y88596D01*
X49832Y88450D01*
Y88409D01*
X49837Y88382D01*
Y88345D01*
X49841Y88300D01*
X49846Y88254D01*
X49850Y88200D01*
X49859Y88141D01*
X49868Y88077D01*
X49896Y87945D01*
X49937Y87799D01*
X49987Y87649D01*
Y87645D01*
X49996Y87631D01*
X50000Y87608D01*
X50014Y87581D01*
X50028Y87549D01*
X50046Y87508D01*
X50068Y87463D01*
X50091Y87413D01*
X50146Y87303D01*
X50210Y87190D01*
X50282Y87071D01*
X50364Y86958D01*
X51165D01*
Y88414D01*
X52230D01*
Y85675D01*
X49718D01*
X49714Y85679D01*
X49700Y85693D01*
X49682Y85715D01*
X49654Y85747D01*
X49618Y85788D01*
X49582Y85843D01*
X49536Y85902D01*
X49486Y85970D01*
X49436Y86048D01*
X49382Y86134D01*
X49327Y86230D01*
X49268Y86334D01*
X49209Y86443D01*
X49149Y86566D01*
X49090Y86698D01*
X49036Y86835D01*
X49031Y86844D01*
X49022Y86867D01*
X49008Y86908D01*
X48990Y86967D01*
X48967Y87035D01*
X48945Y87117D01*
X48917Y87208D01*
X48890Y87308D01*
X48863Y87422D01*
X48836Y87540D01*
X48813Y87667D01*
X48790Y87799D01*
X48772Y87936D01*
X48758Y88077D01*
X48749Y88222D01*
X48744Y88368D01*
Y88436D01*
X48749Y88464D01*
Y88532D01*
X48758Y88618D01*
X48767Y88718D01*
X48781Y88832D01*
X48794Y88955D01*
X48817Y89087D01*
X48845Y89223D01*
X48881Y89364D01*
X48917Y89510D01*
X48967Y89660D01*
X49022Y89806D01*
X49086Y89951D01*
X49158Y90092D01*
X49163Y90102D01*
X49177Y90124D01*
X49204Y90161D01*
X49236Y90211D01*
X49277Y90275D01*
X49331Y90343D01*
X49391Y90420D01*
X49463Y90507D01*
X49541Y90593D01*
X49627Y90684D01*
X49727Y90775D01*
X49832Y90866D01*
X49946Y90957D01*
X50068Y91039D01*
X50200Y91121D01*
X50341Y91194D01*
X50351Y91198D01*
X50378Y91207D01*
X50419Y91225D01*
X50478Y91253D01*
X50551Y91280D01*
X50633Y91312D01*
X50733Y91344D01*
X50842Y91376D01*
X50960Y91412D01*
X51092Y91444D01*
X51229Y91476D01*
X51374Y91503D01*
X51529Y91526D01*
X51688Y91544D01*
X51852Y91558D01*
X52021Y91562D01*
X52025D01*
X52030D01*
X52048D01*
X52066D01*
X52089D01*
X52116Y91558D01*
D02*
G37*
G36*
X55151Y82280D02*
X55146Y82185D01*
Y82080D01*
X55142Y81966D01*
X55137Y81843D01*
X55128Y81589D01*
X55119Y81461D01*
X55110Y81338D01*
X55101Y81225D01*
X55087Y81120D01*
X55073Y81029D01*
X55064Y80993D01*
X55055Y80956D01*
Y80952D01*
X55046Y80933D01*
X55037Y80901D01*
X55028Y80865D01*
X55010Y80820D01*
X54987Y80765D01*
X54960Y80706D01*
X54923Y80638D01*
X54887Y80569D01*
X54842Y80497D01*
X54791Y80424D01*
X54737Y80346D01*
X54673Y80269D01*
X54600Y80192D01*
X54523Y80119D01*
X54436Y80051D01*
X54432Y80046D01*
X54414Y80032D01*
X54387Y80014D01*
X54350Y79992D01*
X54305Y79964D01*
X54245Y79932D01*
X54182Y79900D01*
X54104Y79864D01*
X54023Y79832D01*
X53931Y79800D01*
X53831Y79769D01*
X53722Y79741D01*
X53604Y79714D01*
X53481Y79696D01*
X53349Y79687D01*
X53213Y79682D01*
X53208D01*
X53185D01*
X53158D01*
X53117Y79687D01*
X53067D01*
X53008Y79691D01*
X52944Y79700D01*
X52871Y79709D01*
X52798Y79719D01*
X52717Y79732D01*
X52553Y79773D01*
X52389Y79823D01*
X52312Y79860D01*
X52234Y79896D01*
X52230Y79900D01*
X52216Y79905D01*
X52198Y79919D01*
X52171Y79932D01*
X52139Y79955D01*
X52098Y79978D01*
X52011Y80042D01*
X51911Y80119D01*
X51807Y80210D01*
X51706Y80315D01*
X51616Y80428D01*
X51611Y80433D01*
X51606Y80442D01*
X51593Y80460D01*
X51579Y80483D01*
X51561Y80515D01*
X51538Y80547D01*
X51515Y80588D01*
X51493Y80633D01*
X51443Y80733D01*
X51393Y80842D01*
X51347Y80961D01*
X51315Y81088D01*
Y81093D01*
X51311Y81111D01*
X51306Y81134D01*
X51302Y81174D01*
X51297Y81220D01*
X51288Y81279D01*
X51279Y81343D01*
X51274Y81425D01*
X51265Y81511D01*
X51256Y81607D01*
X51247Y81716D01*
X51242Y81834D01*
X51238Y81962D01*
X51233Y82098D01*
X51229Y82248D01*
Y83231D01*
X48854D01*
Y84501D01*
X55151D01*
Y82280D01*
D02*
G37*
G36*
Y77407D02*
X48854D01*
Y78677D01*
X55151D01*
Y77407D01*
D02*
G37*
G36*
Y73485D02*
X55146Y73417D01*
Y73339D01*
X55142Y73253D01*
X55137Y73071D01*
X55124Y72889D01*
X55119Y72798D01*
X55110Y72711D01*
X55096Y72634D01*
X55087Y72561D01*
Y72557D01*
X55083Y72543D01*
X55078Y72525D01*
X55073Y72498D01*
X55064Y72466D01*
X55055Y72429D01*
X55046Y72388D01*
X55033Y72338D01*
X54996Y72238D01*
X54951Y72129D01*
X54892Y72015D01*
X54823Y71902D01*
Y71897D01*
X54814Y71888D01*
X54805Y71874D01*
X54787Y71852D01*
X54746Y71802D01*
X54687Y71733D01*
X54609Y71656D01*
X54518Y71574D01*
X54418Y71497D01*
X54300Y71419D01*
X54295Y71415D01*
X54286Y71410D01*
X54268Y71401D01*
X54241Y71387D01*
X54214Y71374D01*
X54177Y71356D01*
X54132Y71337D01*
X54086Y71319D01*
X54032Y71301D01*
X53977Y71287D01*
X53850Y71255D01*
X53713Y71233D01*
X53640Y71224D01*
X53563D01*
X53558D01*
X53545D01*
X53522D01*
X53490Y71228D01*
X53449Y71233D01*
X53404Y71237D01*
X53354Y71242D01*
X53294Y71255D01*
X53172Y71283D01*
X53035Y71324D01*
X52967Y71351D01*
X52894Y71383D01*
X52821Y71424D01*
X52753Y71465D01*
X52749Y71469D01*
X52735Y71474D01*
X52717Y71488D01*
X52694Y71506D01*
X52662Y71533D01*
X52626Y71560D01*
X52589Y71597D01*
X52544Y71633D01*
X52503Y71679D01*
X52457Y71724D01*
X52362Y71833D01*
X52275Y71961D01*
X52198Y72106D01*
Y72102D01*
X52189Y72079D01*
X52180Y72052D01*
X52166Y72011D01*
X52148Y71965D01*
X52125Y71911D01*
X52098Y71847D01*
X52066Y71779D01*
X52030Y71710D01*
X51989Y71638D01*
X51939Y71565D01*
X51889Y71492D01*
X51834Y71419D01*
X51770Y71351D01*
X51702Y71283D01*
X51629Y71224D01*
X51625Y71219D01*
X51611Y71210D01*
X51588Y71196D01*
X51556Y71174D01*
X51520Y71151D01*
X51474Y71124D01*
X51420Y71096D01*
X51361Y71069D01*
X51293Y71042D01*
X51220Y71010D01*
X51142Y70987D01*
X51056Y70964D01*
X50969Y70942D01*
X50874Y70928D01*
X50778Y70919D01*
X50678Y70914D01*
X50674D01*
X50660D01*
X50637D01*
X50605Y70919D01*
X50564D01*
X50524Y70923D01*
X50469Y70933D01*
X50414Y70937D01*
X50351Y70951D01*
X50287Y70964D01*
X50146Y71001D01*
X49996Y71046D01*
X49918Y71078D01*
X49841Y71114D01*
X49837D01*
X49823Y71124D01*
X49800Y71137D01*
X49773Y71151D01*
X49741Y71169D01*
X49700Y71196D01*
X49609Y71255D01*
X49504Y71337D01*
X49395Y71428D01*
X49290Y71538D01*
X49190Y71661D01*
X49186Y71665D01*
X49181Y71674D01*
X49168Y71697D01*
X49154Y71724D01*
X49131Y71756D01*
X49113Y71797D01*
X49086Y71842D01*
X49063Y71897D01*
X49036Y71956D01*
X49013Y72020D01*
X48986Y72093D01*
X48963Y72166D01*
X48940Y72247D01*
X48922Y72334D01*
X48895Y72516D01*
Y72530D01*
X48890Y72552D01*
Y72584D01*
X48886Y72625D01*
X48881Y72680D01*
Y72743D01*
X48876Y72825D01*
X48872Y72921D01*
X48867Y73030D01*
Y73153D01*
X48863Y73294D01*
Y73371D01*
X48858Y73453D01*
Y73635D01*
X48854Y73731D01*
Y76188D01*
X55151D01*
Y73485D01*
D02*
G37*
G36*
X52048Y67615D02*
X52093D01*
X52143Y67611D01*
X52202Y67606D01*
X52266Y67602D01*
X52334Y67597D01*
X52407Y67588D01*
X52485Y67579D01*
X52653Y67552D01*
X52835Y67520D01*
X53031Y67475D01*
X53231Y67424D01*
X53431Y67356D01*
X53636Y67279D01*
X53836Y67183D01*
X54027Y67079D01*
X54214Y66951D01*
X54300Y66883D01*
X54382Y66810D01*
X54387Y66806D01*
X54391Y66801D01*
X54405Y66787D01*
X54418Y66774D01*
X54464Y66728D01*
X54518Y66665D01*
X54587Y66583D01*
X54659Y66483D01*
X54737Y66369D01*
X54819Y66241D01*
X54901Y66096D01*
X54978Y65932D01*
X55055Y65759D01*
X55119Y65568D01*
X55174Y65363D01*
X55219Y65149D01*
X55246Y64917D01*
X55251Y64799D01*
X55256Y64676D01*
Y64626D01*
X55251Y64599D01*
Y64567D01*
X55246Y64526D01*
Y64485D01*
X55233Y64385D01*
X55219Y64276D01*
X55196Y64148D01*
X55169Y64012D01*
X55133Y63866D01*
X55087Y63712D01*
X55033Y63557D01*
X54964Y63398D01*
X54887Y63243D01*
X54796Y63088D01*
X54691Y62943D01*
X54568Y62802D01*
X54564Y62797D01*
X54550Y62783D01*
X54527Y62761D01*
X54496Y62733D01*
X54455Y62697D01*
X54400Y62656D01*
X54341Y62611D01*
X54273Y62560D01*
X54195Y62510D01*
X54109Y62456D01*
X54013Y62401D01*
X53913Y62347D01*
X53799Y62297D01*
X53681Y62247D01*
X53549Y62196D01*
X53413Y62155D01*
X53113Y63416D01*
X53117D01*
X53135Y63420D01*
X53158Y63429D01*
X53194Y63439D01*
X53235Y63452D01*
X53281Y63471D01*
X53335Y63493D01*
X53390Y63516D01*
X53513Y63580D01*
X53577Y63621D01*
X53640Y63662D01*
X53704Y63707D01*
X53768Y63762D01*
X53827Y63821D01*
X53881Y63885D01*
X53886Y63889D01*
X53895Y63898D01*
X53909Y63921D01*
X53927Y63948D01*
X53950Y63980D01*
X53972Y64021D01*
X54000Y64071D01*
X54027Y64121D01*
X54050Y64185D01*
X54077Y64249D01*
X54100Y64321D01*
X54123Y64394D01*
X54141Y64476D01*
X54154Y64562D01*
X54163Y64649D01*
X54168Y64745D01*
Y64776D01*
X54163Y64813D01*
X54159Y64858D01*
X54154Y64917D01*
X54141Y64986D01*
X54127Y65063D01*
X54104Y65145D01*
X54077Y65236D01*
X54045Y65327D01*
X54004Y65422D01*
X53954Y65518D01*
X53895Y65609D01*
X53831Y65705D01*
X53754Y65791D01*
X53663Y65877D01*
X53658Y65882D01*
X53640Y65896D01*
X53608Y65918D01*
X53567Y65946D01*
X53513Y65978D01*
X53445Y66014D01*
X53367Y66055D01*
X53272Y66091D01*
X53167Y66132D01*
X53044Y66173D01*
X52912Y66210D01*
X52767Y66241D01*
X52603Y66269D01*
X52430Y66291D01*
X52239Y66305D01*
X52034Y66310D01*
X52030D01*
X52021D01*
X52002D01*
X51984D01*
X51952D01*
X51920Y66305D01*
X51884D01*
X51838Y66301D01*
X51743Y66296D01*
X51629Y66287D01*
X51506Y66273D01*
X51374Y66255D01*
X51238Y66232D01*
X51097Y66205D01*
X50956Y66169D01*
X50815Y66128D01*
X50683Y66082D01*
X50555Y66023D01*
X50442Y65959D01*
X50337Y65882D01*
X50332Y65877D01*
X50314Y65864D01*
X50292Y65837D01*
X50260Y65805D01*
X50219Y65764D01*
X50178Y65709D01*
X50132Y65650D01*
X50087Y65582D01*
X50037Y65504D01*
X49991Y65422D01*
X49950Y65331D01*
X49909Y65231D01*
X49877Y65127D01*
X49855Y65013D01*
X49837Y64895D01*
X49832Y64767D01*
Y64717D01*
X49837Y64681D01*
X49841Y64640D01*
X49850Y64590D01*
X49859Y64531D01*
X49873Y64467D01*
X49887Y64403D01*
X49909Y64335D01*
X49937Y64262D01*
X49968Y64189D01*
X50005Y64112D01*
X50046Y64039D01*
X50096Y63966D01*
X50150Y63898D01*
X50155Y63894D01*
X50164Y63880D01*
X50187Y63862D01*
X50214Y63839D01*
X50246Y63807D01*
X50292Y63771D01*
X50341Y63734D01*
X50401Y63693D01*
X50464Y63652D01*
X50542Y63607D01*
X50624Y63561D01*
X50715Y63520D01*
X50819Y63480D01*
X50924Y63439D01*
X51042Y63402D01*
X51170Y63370D01*
X50778Y62137D01*
X50774D01*
X50765Y62142D01*
X50751Y62146D01*
X50733Y62151D01*
X50710Y62160D01*
X50678Y62169D01*
X50610Y62192D01*
X50524Y62224D01*
X50423Y62265D01*
X50314Y62310D01*
X50200Y62365D01*
X50078Y62424D01*
X49950Y62492D01*
X49823Y62570D01*
X49695Y62656D01*
X49573Y62752D01*
X49454Y62852D01*
X49345Y62965D01*
X49245Y63084D01*
X49240Y63093D01*
X49222Y63116D01*
X49200Y63152D01*
X49168Y63202D01*
X49131Y63266D01*
X49086Y63343D01*
X49040Y63434D01*
X48995Y63539D01*
X48949Y63652D01*
X48904Y63780D01*
X48863Y63916D01*
X48822Y64066D01*
X48790Y64221D01*
X48767Y64390D01*
X48749Y64567D01*
X48744Y64754D01*
Y64808D01*
X48749Y64840D01*
Y64876D01*
X48754Y64917D01*
X48758Y64963D01*
X48763Y65013D01*
X48772Y65067D01*
X48790Y65195D01*
X48817Y65331D01*
X48854Y65482D01*
X48895Y65641D01*
X48954Y65809D01*
X49022Y65978D01*
X49104Y66155D01*
X49204Y66323D01*
X49318Y66496D01*
X49382Y66578D01*
X49450Y66660D01*
X49523Y66737D01*
X49600Y66815D01*
X49604D01*
X49609Y66824D01*
X49623Y66833D01*
X49641Y66851D01*
X49664Y66869D01*
X49691Y66887D01*
X49723Y66915D01*
X49759Y66942D01*
X49800Y66969D01*
X49846Y67001D01*
X49896Y67033D01*
X49950Y67070D01*
X50073Y67142D01*
X50214Y67215D01*
X50373Y67292D01*
X50546Y67365D01*
X50742Y67434D01*
X50951Y67493D01*
X51174Y67547D01*
X51415Y67584D01*
X51670Y67611D01*
X51807Y67615D01*
X51943Y67620D01*
X51948D01*
X51961D01*
X51984D01*
X52011D01*
X52048Y67615D01*
D02*
G37*
G36*
X50160Y61368D02*
X50196D01*
X50232Y61364D01*
X50278Y61359D01*
X50328Y61350D01*
X50432Y61327D01*
X50551Y61296D01*
X50669Y61250D01*
X50783Y61191D01*
X50787Y61186D01*
X50797Y61182D01*
X50810Y61173D01*
X50833Y61155D01*
X50888Y61114D01*
X50956Y61054D01*
X51029Y60982D01*
X51106Y60895D01*
X51183Y60790D01*
X51247Y60672D01*
Y60668D01*
X51256Y60659D01*
X51265Y60636D01*
X51274Y60609D01*
X51288Y60577D01*
X51306Y60536D01*
X51324Y60486D01*
X51342Y60426D01*
X51365Y60363D01*
X51388Y60290D01*
X51411Y60213D01*
X51433Y60126D01*
X51461Y60035D01*
X51484Y59935D01*
X51506Y59826D01*
X51529Y59712D01*
Y59703D01*
X51538Y59676D01*
X51543Y59630D01*
X51556Y59576D01*
X51570Y59507D01*
X51588Y59425D01*
X51606Y59339D01*
X51625Y59248D01*
X51675Y59052D01*
X51725Y58861D01*
X51748Y58770D01*
X51775Y58684D01*
X51802Y58606D01*
X51829Y58538D01*
X51948D01*
X51952D01*
X51961D01*
X51980D01*
X52002Y58543D01*
X52034D01*
X52066Y58547D01*
X52139Y58561D01*
X52221Y58579D01*
X52303Y58611D01*
X52380Y58652D01*
X52412Y58679D01*
X52444Y58711D01*
X52448Y58720D01*
X52457Y58729D01*
X52466Y58748D01*
X52480Y58766D01*
X52489Y58793D01*
X52503Y58820D01*
X52521Y58857D01*
X52535Y58898D01*
X52548Y58948D01*
X52557Y58998D01*
X52571Y59057D01*
X52580Y59125D01*
X52589Y59198D01*
X52594Y59275D01*
Y59416D01*
X52589Y59444D01*
Y59476D01*
X52580Y59544D01*
X52562Y59626D01*
X52539Y59712D01*
X52507Y59794D01*
X52466Y59867D01*
X52462Y59876D01*
X52444Y59894D01*
X52407Y59931D01*
X52362Y59967D01*
X52303Y60013D01*
X52225Y60062D01*
X52130Y60108D01*
X52021Y60154D01*
X52216Y61250D01*
X52225Y61246D01*
X52243Y61241D01*
X52280Y61232D01*
X52325Y61214D01*
X52380Y61195D01*
X52444Y61168D01*
X52512Y61136D01*
X52585Y61105D01*
X52667Y61063D01*
X52744Y61014D01*
X52826Y60963D01*
X52908Y60904D01*
X52985Y60845D01*
X53062Y60772D01*
X53131Y60699D01*
X53194Y60618D01*
X53199Y60613D01*
X53208Y60595D01*
X53226Y60568D01*
X53244Y60531D01*
X53267Y60486D01*
X53294Y60426D01*
X53326Y60358D01*
X53358Y60276D01*
X53386Y60190D01*
X53417Y60090D01*
X53445Y59976D01*
X53467Y59858D01*
X53486Y59726D01*
X53504Y59585D01*
X53513Y59435D01*
X53517Y59271D01*
Y59193D01*
X53513Y59139D01*
Y59071D01*
X53508Y58993D01*
X53504Y58907D01*
X53495Y58816D01*
X53486Y58720D01*
X53472Y58620D01*
X53435Y58420D01*
X53417Y58324D01*
X53390Y58229D01*
X53358Y58142D01*
X53326Y58065D01*
Y58060D01*
X53317Y58047D01*
X53308Y58029D01*
X53290Y58001D01*
X53272Y57969D01*
X53249Y57933D01*
X53194Y57847D01*
X53122Y57756D01*
X53040Y57665D01*
X52944Y57578D01*
X52894Y57542D01*
X52839Y57510D01*
X52835D01*
X52826Y57501D01*
X52808Y57496D01*
X52780Y57483D01*
X52749Y57474D01*
X52703Y57460D01*
X52653Y57442D01*
X52594Y57428D01*
X52526Y57414D01*
X52444Y57396D01*
X52357Y57383D01*
X52257Y57373D01*
X52148Y57360D01*
X52030Y57355D01*
X51898Y57346D01*
X51757D01*
X50351Y57364D01*
X50346D01*
X50323D01*
X50292D01*
X50251D01*
X50200D01*
X50146Y57360D01*
X50082D01*
X50014Y57355D01*
X49868Y57351D01*
X49723Y57342D01*
X49650Y57337D01*
X49582Y57328D01*
X49523Y57319D01*
X49463Y57310D01*
X49459D01*
X49450Y57305D01*
X49436D01*
X49413Y57296D01*
X49386Y57292D01*
X49354Y57283D01*
X49281Y57260D01*
X49190Y57232D01*
X49086Y57191D01*
X48972Y57146D01*
X48854Y57091D01*
Y58284D01*
X48858D01*
X48876Y58293D01*
X48904Y58302D01*
X48945Y58315D01*
X48995Y58333D01*
X49054Y58356D01*
X49127Y58379D01*
X49209Y58402D01*
X49213D01*
X49227Y58406D01*
X49245Y58411D01*
X49268Y58420D01*
X49313Y58434D01*
X49331Y58438D01*
X49350Y58443D01*
X49345Y58447D01*
X49336Y58456D01*
X49322Y58475D01*
X49300Y58497D01*
X49277Y58525D01*
X49245Y58561D01*
X49213Y58597D01*
X49181Y58643D01*
X49108Y58738D01*
X49031Y58852D01*
X48963Y58975D01*
X48899Y59107D01*
Y59112D01*
X48895Y59121D01*
X48886Y59143D01*
X48876Y59166D01*
X48863Y59203D01*
X48854Y59239D01*
X48840Y59285D01*
X48826Y59330D01*
X48808Y59385D01*
X48794Y59444D01*
X48772Y59571D01*
X48754Y59712D01*
X48749Y59858D01*
Y59890D01*
X48754Y59926D01*
Y59976D01*
X48763Y60035D01*
X48767Y60103D01*
X48781Y60176D01*
X48799Y60263D01*
X48817Y60349D01*
X48845Y60440D01*
X48872Y60531D01*
X48908Y60622D01*
X48954Y60713D01*
X49004Y60804D01*
X49063Y60891D01*
X49131Y60968D01*
X49136Y60972D01*
X49149Y60986D01*
X49172Y61004D01*
X49200Y61032D01*
X49236Y61063D01*
X49281Y61095D01*
X49336Y61132D01*
X49395Y61168D01*
X49463Y61209D01*
X49536Y61246D01*
X49613Y61277D01*
X49700Y61309D01*
X49791Y61336D01*
X49887Y61355D01*
X49991Y61368D01*
X50096Y61373D01*
X50100D01*
X50114D01*
X50132D01*
X50160Y61368D01*
D02*
G37*
G36*
X55151Y55012D02*
X52880D01*
X52890Y55007D01*
X52908Y54985D01*
X52940Y54957D01*
X52981Y54912D01*
X53031Y54862D01*
X53081Y54798D01*
X53140Y54721D01*
X53199Y54639D01*
X53258Y54548D01*
X53317Y54448D01*
X53372Y54339D01*
X53417Y54220D01*
X53458Y54097D01*
X53490Y53970D01*
X53508Y53834D01*
X53517Y53693D01*
Y53656D01*
X53513Y53611D01*
X53508Y53552D01*
X53499Y53483D01*
X53486Y53397D01*
X53467Y53306D01*
X53440Y53206D01*
X53408Y53096D01*
X53372Y52987D01*
X53322Y52873D01*
X53263Y52755D01*
X53194Y52641D01*
X53113Y52523D01*
X53017Y52414D01*
X52912Y52309D01*
X52903Y52305D01*
X52885Y52287D01*
X52849Y52259D01*
X52798Y52223D01*
X52739Y52182D01*
X52662Y52136D01*
X52571Y52086D01*
X52471Y52036D01*
X52353Y51986D01*
X52225Y51936D01*
X52080Y51891D01*
X51925Y51850D01*
X51757Y51813D01*
X51579Y51786D01*
X51384Y51768D01*
X51179Y51763D01*
X51174D01*
X51165D01*
X51151D01*
X51129D01*
X51101D01*
X51065Y51768D01*
X51029D01*
X50988Y51772D01*
X50888Y51781D01*
X50774Y51791D01*
X50651Y51809D01*
X50514Y51832D01*
X50373Y51863D01*
X50223Y51900D01*
X50073Y51945D01*
X49927Y52000D01*
X49777Y52064D01*
X49636Y52136D01*
X49500Y52223D01*
X49377Y52323D01*
X49368Y52328D01*
X49350Y52350D01*
X49318Y52378D01*
X49277Y52423D01*
X49231Y52478D01*
X49177Y52541D01*
X49122Y52614D01*
X49063Y52701D01*
X49004Y52792D01*
X48949Y52896D01*
X48895Y53010D01*
X48849Y53128D01*
X48808Y53256D01*
X48776Y53388D01*
X48758Y53529D01*
X48749Y53674D01*
Y53711D01*
X48754Y53743D01*
Y53774D01*
X48758Y53820D01*
X48767Y53865D01*
X48772Y53916D01*
X48799Y54034D01*
X48831Y54166D01*
X48881Y54307D01*
X48908Y54375D01*
X48945Y54448D01*
X48949Y54452D01*
X48954Y54466D01*
X48967Y54484D01*
X48981Y54511D01*
X49004Y54543D01*
X49027Y54580D01*
X49058Y54625D01*
X49090Y54671D01*
X49172Y54771D01*
X49272Y54880D01*
X49386Y54994D01*
X49523Y55098D01*
X48854D01*
Y56218D01*
X55151D01*
Y55012D01*
D02*
G37*
G36*
Y49584D02*
X48854D01*
Y50790D01*
X55151D01*
Y49584D01*
D02*
G37*
G36*
X51174Y48697D02*
X51206D01*
X51242D01*
X51283Y48692D01*
X51379Y48683D01*
X51488Y48669D01*
X51611Y48651D01*
X51743Y48628D01*
X51884Y48597D01*
X52030Y48556D01*
X52175Y48510D01*
X52325Y48451D01*
X52471Y48383D01*
X52612Y48305D01*
X52744Y48214D01*
X52871Y48110D01*
X52880Y48101D01*
X52899Y48082D01*
X52930Y48050D01*
X52971Y48005D01*
X53022Y47946D01*
X53076Y47873D01*
X53135Y47791D01*
X53194Y47700D01*
X53254Y47596D01*
X53313Y47482D01*
X53367Y47359D01*
X53417Y47227D01*
X53458Y47086D01*
X53490Y46936D01*
X53508Y46777D01*
X53517Y46608D01*
Y46563D01*
X53513Y46540D01*
Y46513D01*
X53508Y46440D01*
X53499Y46353D01*
X53481Y46258D01*
X53463Y46144D01*
X53435Y46026D01*
X53399Y45903D01*
X53354Y45771D01*
X53299Y45639D01*
X53235Y45502D01*
X53158Y45371D01*
X53067Y45243D01*
X52962Y45120D01*
X52844Y45007D01*
X52835Y45002D01*
X52812Y44979D01*
X52771Y44952D01*
X52717Y44916D01*
X52644Y44870D01*
X52557Y44820D01*
X52453Y44770D01*
X52334Y44715D01*
X52198Y44661D01*
X52043Y44606D01*
X51875Y44561D01*
X51688Y44515D01*
X51488Y44483D01*
X51270Y44456D01*
X51033Y44442D01*
X50783Y44438D01*
Y47464D01*
X50778D01*
X50760D01*
X50733Y47459D01*
X50696D01*
X50651Y47455D01*
X50596Y47445D01*
X50542Y47436D01*
X50478Y47423D01*
X50341Y47391D01*
X50273Y47368D01*
X50205Y47341D01*
X50137Y47304D01*
X50068Y47268D01*
X50005Y47227D01*
X49946Y47177D01*
X49941Y47172D01*
X49932Y47163D01*
X49918Y47150D01*
X49900Y47127D01*
X49877Y47100D01*
X49850Y47063D01*
X49827Y47027D01*
X49800Y46981D01*
X49768Y46936D01*
X49746Y46881D01*
X49695Y46763D01*
X49677Y46695D01*
X49664Y46626D01*
X49654Y46554D01*
X49650Y46476D01*
Y46449D01*
X49654Y46426D01*
X49659Y46376D01*
X49668Y46308D01*
X49686Y46235D01*
X49714Y46153D01*
X49750Y46076D01*
X49800Y45998D01*
Y45994D01*
X49809Y45989D01*
X49832Y45967D01*
X49868Y45930D01*
X49923Y45889D01*
X49991Y45839D01*
X50078Y45789D01*
X50178Y45744D01*
X50301Y45703D01*
X50100Y44502D01*
X50091Y44506D01*
X50073Y44511D01*
X50037Y44524D01*
X49991Y44547D01*
X49937Y44570D01*
X49873Y44602D01*
X49800Y44638D01*
X49727Y44684D01*
X49645Y44729D01*
X49564Y44784D01*
X49477Y44847D01*
X49395Y44911D01*
X49313Y44984D01*
X49231Y45061D01*
X49158Y45148D01*
X49090Y45239D01*
X49086Y45243D01*
X49077Y45261D01*
X49058Y45289D01*
X49036Y45330D01*
X49013Y45380D01*
X48981Y45434D01*
X48954Y45507D01*
X48922Y45584D01*
X48890Y45671D01*
X48858Y45762D01*
X48826Y45867D01*
X48804Y45976D01*
X48781Y46094D01*
X48763Y46221D01*
X48754Y46353D01*
X48749Y46490D01*
Y46540D01*
X48754Y46572D01*
Y46604D01*
X48758Y46640D01*
X48763Y46685D01*
X48772Y46786D01*
X48790Y46895D01*
X48813Y47022D01*
X48845Y47159D01*
X48886Y47300D01*
X48940Y47445D01*
X48999Y47591D01*
X49077Y47737D01*
X49163Y47878D01*
X49268Y48010D01*
X49386Y48137D01*
X49523Y48251D01*
X49532Y48255D01*
X49550Y48269D01*
X49586Y48292D01*
X49636Y48319D01*
X49695Y48355D01*
X49768Y48392D01*
X49855Y48433D01*
X49955Y48474D01*
X50064Y48519D01*
X50182Y48560D01*
X50310Y48597D01*
X50451Y48628D01*
X50596Y48660D01*
X50756Y48683D01*
X50924Y48697D01*
X51097Y48701D01*
X51101D01*
X51111D01*
X51124D01*
X51147D01*
X51174Y48697D01*
D02*
G37*
G36*
X95339Y320563D02*
X95375Y320558D01*
X95416Y320554D01*
X95466Y320549D01*
X95521Y320540D01*
X95644Y320513D01*
X95780Y320472D01*
X95849Y320445D01*
X95921Y320413D01*
X95994Y320376D01*
X96067Y320335D01*
X95689Y319284D01*
X95685Y319289D01*
X95676Y319293D01*
X95657Y319303D01*
X95639Y319316D01*
X95612Y319330D01*
X95580Y319348D01*
X95503Y319385D01*
X95416Y319421D01*
X95321Y319453D01*
X95221Y319476D01*
X95171Y319485D01*
X95080D01*
X95030Y319476D01*
X94970Y319466D01*
X94902Y319448D01*
X94829Y319425D01*
X94757Y319389D01*
X94688Y319343D01*
X94679Y319339D01*
X94661Y319316D01*
X94629Y319280D01*
X94588Y319230D01*
X94547Y319157D01*
X94525Y319116D01*
X94502Y319071D01*
X94479Y319021D01*
X94456Y318966D01*
X94433Y318902D01*
X94415Y318839D01*
Y318834D01*
X94411Y318820D01*
X94406Y318797D01*
X94402Y318766D01*
X94393Y318720D01*
X94384Y318661D01*
X94374Y318593D01*
X94365Y318511D01*
X94356Y318415D01*
X94347Y318306D01*
X94338Y318179D01*
X94329Y318042D01*
X94324Y317883D01*
X94320Y317710D01*
X94315Y317519D01*
Y317419D01*
Y317310D01*
Y315904D01*
X93110D01*
Y320467D01*
X94229D01*
Y319817D01*
X94233Y319821D01*
X94242Y319835D01*
X94256Y319862D01*
X94279Y319889D01*
X94302Y319926D01*
X94333Y319971D01*
X94402Y320067D01*
X94479Y320167D01*
X94565Y320267D01*
X94611Y320313D01*
X94656Y320354D01*
X94702Y320390D01*
X94743Y320422D01*
X94748D01*
X94752Y320426D01*
X94766Y320436D01*
X94784Y320445D01*
X94834Y320467D01*
X94898Y320495D01*
X94975Y320522D01*
X95061Y320545D01*
X95161Y320563D01*
X95266Y320567D01*
X95307D01*
X95339Y320563D01*
D02*
G37*
G36*
X99302D02*
X99343Y320558D01*
X99388Y320554D01*
X99439Y320549D01*
X99552Y320531D01*
X99675Y320508D01*
X99798Y320472D01*
X99925Y320422D01*
X99930D01*
X99939Y320417D01*
X99957Y320408D01*
X99980Y320395D01*
X100007Y320381D01*
X100039Y320363D01*
X100112Y320322D01*
X100194Y320267D01*
X100276Y320203D01*
X100358Y320135D01*
X100426Y320053D01*
Y320049D01*
X100435Y320044D01*
X100444Y320031D01*
X100453Y320012D01*
X100485Y319967D01*
X100521Y319908D01*
X100562Y319830D01*
X100599Y319748D01*
X100635Y319653D01*
X100667Y319548D01*
Y319544D01*
X100672Y319535D01*
Y319521D01*
X100676Y319498D01*
X100685Y319466D01*
X100690Y319430D01*
X100694Y319389D01*
X100703Y319339D01*
X100708Y319284D01*
X100713Y319225D01*
X100722Y319157D01*
X100726Y319084D01*
X100731Y319007D01*
Y318920D01*
X100735Y318829D01*
Y318734D01*
Y315904D01*
X99529Y315904D01*
Y318229D01*
Y318238D01*
Y318261D01*
Y318297D01*
Y318347D01*
X99525Y318406D01*
Y318475D01*
Y318547D01*
X99520Y318625D01*
X99511Y318784D01*
X99502Y318866D01*
X99493Y318943D01*
X99484Y319016D01*
X99475Y319080D01*
X99461Y319139D01*
X99448Y319184D01*
Y319189D01*
X99443Y319193D01*
X99434Y319221D01*
X99416Y319262D01*
X99388Y319307D01*
X99352Y319362D01*
X99311Y319421D01*
X99256Y319471D01*
X99197Y319521D01*
X99188Y319526D01*
X99165Y319539D01*
X99129Y319562D01*
X99079Y319585D01*
X99020Y319603D01*
X98947Y319626D01*
X98865Y319639D01*
X98779Y319644D01*
X98747D01*
X98724Y319639D01*
X98697D01*
X98665Y319635D01*
X98588Y319621D01*
X98501Y319603D01*
X98406Y319571D01*
X98306Y319530D01*
X98210Y319471D01*
X98206D01*
X98201Y319462D01*
X98187Y319453D01*
X98169Y319439D01*
X98128Y319403D01*
X98074Y319348D01*
X98019Y319284D01*
X97960Y319202D01*
X97910Y319111D01*
X97869Y319011D01*
Y319007D01*
X97864Y318998D01*
X97860Y318980D01*
X97855Y318957D01*
X97846Y318925D01*
X97842Y318884D01*
X97832Y318834D01*
X97823Y318775D01*
X97814Y318706D01*
X97805Y318634D01*
X97800Y318547D01*
X97791Y318452D01*
X97787Y318347D01*
X97782Y318229D01*
X97778Y318101D01*
Y317965D01*
Y315904D01*
X96572D01*
Y320467D01*
X97691D01*
Y319794D01*
X97700Y319803D01*
X97719Y319826D01*
X97751Y319867D01*
X97800Y319917D01*
X97860Y319971D01*
X97928Y320040D01*
X98010Y320108D01*
X98105Y320181D01*
X98206Y320253D01*
X98319Y320322D01*
X98447Y320390D01*
X98579Y320445D01*
X98720Y320495D01*
X98870Y320536D01*
X99029Y320558D01*
X99197Y320567D01*
X99266D01*
X99302Y320563D01*
D02*
G37*
G36*
X85120Y319748D02*
X87622Y315904D01*
X85975D01*
X84237Y318857D01*
X83213Y317806D01*
Y315904D01*
X81944D01*
Y322201D01*
X83213D01*
Y319403D01*
X85784Y322201D01*
X87495D01*
X85120Y319748D01*
D02*
G37*
G36*
X108056Y315904D02*
X106851D01*
Y322201D01*
X108056D01*
Y315904D01*
D02*
G37*
G36*
X103875Y320563D02*
X103943D01*
X104020Y320558D01*
X104107Y320554D01*
X104198Y320545D01*
X104293Y320536D01*
X104393Y320522D01*
X104594Y320486D01*
X104689Y320467D01*
X104785Y320440D01*
X104871Y320408D01*
X104949Y320376D01*
X104953D01*
X104967Y320367D01*
X104985Y320358D01*
X105012Y320340D01*
X105044Y320322D01*
X105080Y320299D01*
X105167Y320244D01*
X105258Y320172D01*
X105349Y320090D01*
X105435Y319994D01*
X105472Y319944D01*
X105504Y319889D01*
Y319885D01*
X105513Y319876D01*
X105517Y319858D01*
X105531Y319830D01*
X105540Y319798D01*
X105554Y319753D01*
X105572Y319703D01*
X105586Y319644D01*
X105599Y319576D01*
X105617Y319494D01*
X105631Y319407D01*
X105640Y319307D01*
X105654Y319198D01*
X105658Y319080D01*
X105667Y318948D01*
Y318807D01*
X105649Y317401D01*
Y317396D01*
Y317373D01*
Y317341D01*
Y317301D01*
Y317250D01*
X105654Y317196D01*
Y317132D01*
X105658Y317064D01*
X105663Y316918D01*
X105672Y316773D01*
X105677Y316700D01*
X105686Y316632D01*
X105695Y316573D01*
X105704Y316513D01*
Y316509D01*
X105708Y316500D01*
Y316486D01*
X105718Y316463D01*
X105722Y316436D01*
X105731Y316404D01*
X105754Y316331D01*
X105781Y316240D01*
X105822Y316136D01*
X105868Y316022D01*
X105922Y315904D01*
X104730D01*
Y315908D01*
X104721Y315927D01*
X104712Y315954D01*
X104698Y315995D01*
X104680Y316045D01*
X104657Y316104D01*
X104635Y316177D01*
X104612Y316259D01*
Y316263D01*
X104607Y316277D01*
X104603Y316295D01*
X104594Y316318D01*
X104580Y316363D01*
X104576Y316382D01*
X104571Y316400D01*
X104566Y316395D01*
X104557Y316386D01*
X104539Y316372D01*
X104516Y316350D01*
X104489Y316327D01*
X104453Y316295D01*
X104416Y316263D01*
X104371Y316231D01*
X104275Y316159D01*
X104161Y316081D01*
X104039Y316013D01*
X103907Y315949D01*
X103902D01*
X103893Y315945D01*
X103870Y315936D01*
X103848Y315927D01*
X103811Y315913D01*
X103775Y315904D01*
X103729Y315890D01*
X103684Y315876D01*
X103629Y315858D01*
X103570Y315845D01*
X103443Y315822D01*
X103302Y315804D01*
X103156Y315799D01*
X103124D01*
X103088Y315804D01*
X103038D01*
X102978Y315813D01*
X102910Y315817D01*
X102837Y315831D01*
X102751Y315849D01*
X102664Y315867D01*
X102574Y315895D01*
X102482Y315922D01*
X102392Y315958D01*
X102301Y316004D01*
X102209Y316054D01*
X102123Y316113D01*
X102046Y316181D01*
X102041Y316186D01*
X102027Y316199D01*
X102009Y316222D01*
X101982Y316249D01*
X101950Y316286D01*
X101918Y316331D01*
X101882Y316386D01*
X101846Y316445D01*
X101804Y316513D01*
X101768Y316586D01*
X101736Y316664D01*
X101704Y316750D01*
X101677Y316841D01*
X101659Y316937D01*
X101645Y317041D01*
X101641Y317146D01*
Y317150D01*
Y317164D01*
Y317182D01*
X101645Y317210D01*
Y317246D01*
X101650Y317282D01*
X101654Y317328D01*
X101663Y317378D01*
X101686Y317483D01*
X101718Y317601D01*
X101764Y317719D01*
X101823Y317833D01*
X101827Y317838D01*
X101832Y317847D01*
X101841Y317860D01*
X101859Y317883D01*
X101900Y317938D01*
X101959Y318006D01*
X102032Y318079D01*
X102119Y318156D01*
X102223Y318233D01*
X102341Y318297D01*
X102346D01*
X102355Y318306D01*
X102378Y318315D01*
X102405Y318324D01*
X102437Y318338D01*
X102478Y318356D01*
X102528Y318374D01*
X102587Y318393D01*
X102651Y318415D01*
X102724Y318438D01*
X102801Y318461D01*
X102887Y318484D01*
X102978Y318511D01*
X103078Y318534D01*
X103188Y318556D01*
X103302Y318579D01*
X103311D01*
X103338Y318588D01*
X103383Y318593D01*
X103438Y318606D01*
X103506Y318620D01*
X103588Y318638D01*
X103675Y318656D01*
X103766Y318675D01*
X103961Y318725D01*
X104152Y318775D01*
X104243Y318797D01*
X104330Y318825D01*
X104407Y318852D01*
X104475Y318879D01*
Y318998D01*
Y319002D01*
Y319011D01*
Y319030D01*
X104471Y319052D01*
Y319084D01*
X104466Y319116D01*
X104453Y319189D01*
X104434Y319271D01*
X104403Y319353D01*
X104362Y319430D01*
X104334Y319462D01*
X104303Y319494D01*
X104293Y319498D01*
X104284Y319507D01*
X104266Y319516D01*
X104248Y319530D01*
X104221Y319539D01*
X104193Y319553D01*
X104157Y319571D01*
X104116Y319585D01*
X104066Y319598D01*
X104016Y319607D01*
X103957Y319621D01*
X103888Y319630D01*
X103816Y319639D01*
X103738Y319644D01*
X103597D01*
X103570Y319639D01*
X103538D01*
X103470Y319630D01*
X103388Y319612D01*
X103302Y319589D01*
X103220Y319557D01*
X103147Y319516D01*
X103138Y319512D01*
X103120Y319494D01*
X103083Y319457D01*
X103047Y319412D01*
X103001Y319353D01*
X102951Y319275D01*
X102906Y319180D01*
X102860Y319071D01*
X101764Y319266D01*
X101768Y319275D01*
X101773Y319293D01*
X101782Y319330D01*
X101800Y319375D01*
X101818Y319430D01*
X101846Y319494D01*
X101877Y319562D01*
X101909Y319635D01*
X101950Y319717D01*
X102000Y319794D01*
X102050Y319876D01*
X102109Y319958D01*
X102169Y320035D01*
X102241Y320112D01*
X102314Y320181D01*
X102396Y320244D01*
X102401Y320249D01*
X102419Y320258D01*
X102446Y320276D01*
X102482Y320294D01*
X102528Y320317D01*
X102587Y320344D01*
X102655Y320376D01*
X102737Y320408D01*
X102824Y320436D01*
X102924Y320467D01*
X103038Y320495D01*
X103156Y320517D01*
X103288Y320536D01*
X103429Y320554D01*
X103579Y320563D01*
X103743Y320567D01*
X103820D01*
X103875Y320563D01*
D02*
G37*
G36*
X90079Y320563D02*
X90106D01*
X90179Y320558D01*
X90266Y320549D01*
X90361Y320531D01*
X90475Y320513D01*
X90593Y320486D01*
X90716Y320449D01*
X90848Y320404D01*
X90980Y320349D01*
X91117Y320285D01*
X91249Y320208D01*
X91376Y320117D01*
X91499Y320012D01*
X91612Y319894D01*
X91617Y319885D01*
X91640Y319862D01*
X91667Y319821D01*
X91703Y319767D01*
X91749Y319694D01*
X91799Y319607D01*
X91849Y319503D01*
X91904Y319385D01*
X91958Y319248D01*
X92013Y319093D01*
X92058Y318925D01*
X92104Y318738D01*
X92136Y318538D01*
X92163Y318320D01*
X92177Y318083D01*
X92181Y317833D01*
X89156D01*
Y317828D01*
Y317810D01*
X89160Y317783D01*
Y317746D01*
X89165Y317701D01*
X89174Y317646D01*
X89183Y317592D01*
X89196Y317528D01*
X89228Y317392D01*
X89251Y317323D01*
X89278Y317255D01*
X89315Y317187D01*
X89351Y317119D01*
X89392Y317055D01*
X89442Y316996D01*
X89447Y316991D01*
X89456Y316982D01*
X89469Y316968D01*
X89492Y316950D01*
X89520Y316928D01*
X89556Y316900D01*
X89592Y316877D01*
X89638Y316850D01*
X89683Y316818D01*
X89738Y316795D01*
X89856Y316745D01*
X89925Y316727D01*
X89993Y316714D01*
X90065Y316705D01*
X90143Y316700D01*
X90170D01*
X90193Y316705D01*
X90243Y316709D01*
X90311Y316718D01*
X90384Y316736D01*
X90466Y316764D01*
X90543Y316800D01*
X90621Y316850D01*
X90625D01*
X90630Y316859D01*
X90653Y316882D01*
X90689Y316918D01*
X90730Y316973D01*
X90780Y317041D01*
X90830Y317128D01*
X90875Y317228D01*
X90916Y317351D01*
X92118Y317150D01*
X92113Y317141D01*
X92109Y317123D01*
X92095Y317087D01*
X92072Y317041D01*
X92049Y316987D01*
X92018Y316923D01*
X91981Y316850D01*
X91936Y316777D01*
X91890Y316695D01*
X91835Y316614D01*
X91772Y316527D01*
X91708Y316445D01*
X91635Y316363D01*
X91558Y316281D01*
X91471Y316209D01*
X91381Y316140D01*
X91376Y316136D01*
X91358Y316127D01*
X91330Y316108D01*
X91290Y316086D01*
X91239Y316063D01*
X91185Y316031D01*
X91112Y316004D01*
X91035Y315972D01*
X90948Y315940D01*
X90857Y315908D01*
X90753Y315876D01*
X90643Y315854D01*
X90525Y315831D01*
X90398Y315813D01*
X90266Y315804D01*
X90129Y315799D01*
X90079D01*
X90047Y315804D01*
X90016D01*
X89979Y315808D01*
X89934Y315813D01*
X89833Y315822D01*
X89724Y315840D01*
X89597Y315863D01*
X89460Y315895D01*
X89319Y315936D01*
X89174Y315990D01*
X89028Y316049D01*
X88882Y316127D01*
X88741Y316213D01*
X88609Y316318D01*
X88482Y316436D01*
X88368Y316573D01*
X88364Y316582D01*
X88350Y316600D01*
X88327Y316636D01*
X88300Y316686D01*
X88264Y316745D01*
X88227Y316818D01*
X88186Y316905D01*
X88145Y317005D01*
X88100Y317114D01*
X88059Y317232D01*
X88023Y317360D01*
X87991Y317501D01*
X87959Y317646D01*
X87936Y317806D01*
X87923Y317974D01*
X87918Y318147D01*
Y318151D01*
Y318161D01*
Y318174D01*
Y318197D01*
X87923Y318224D01*
Y318256D01*
Y318292D01*
X87927Y318333D01*
X87936Y318429D01*
X87950Y318538D01*
X87968Y318661D01*
X87991Y318793D01*
X88023Y318934D01*
X88064Y319080D01*
X88109Y319225D01*
X88168Y319375D01*
X88236Y319521D01*
X88314Y319662D01*
X88405Y319794D01*
X88509Y319921D01*
X88519Y319931D01*
X88537Y319949D01*
X88569Y319981D01*
X88614Y320022D01*
X88673Y320072D01*
X88746Y320126D01*
X88828Y320185D01*
X88919Y320244D01*
X89024Y320304D01*
X89137Y320363D01*
X89260Y320417D01*
X89392Y320467D01*
X89533Y320508D01*
X89683Y320540D01*
X89843Y320558D01*
X90011Y320567D01*
X90056D01*
X90079Y320563D01*
D02*
G37*
G36*
X39334Y322122D02*
X39388Y322118D01*
X39447Y322113D01*
X39516Y322109D01*
X39588Y322100D01*
X39670Y322091D01*
X39838Y322063D01*
X40020Y322022D01*
X40207Y321972D01*
X40043Y321130D01*
X40039D01*
X40030Y321135D01*
X40016Y321140D01*
X39993Y321144D01*
X39970Y321149D01*
X39939Y321153D01*
X39866Y321167D01*
X39784Y321181D01*
X39688Y321194D01*
X39588Y321199D01*
X39488Y321203D01*
X39447D01*
X39402Y321199D01*
X39343Y321190D01*
X39283Y321171D01*
X39220Y321153D01*
X39165Y321121D01*
X39115Y321080D01*
X39111Y321076D01*
X39097Y321058D01*
X39079Y321021D01*
X39061Y320976D01*
X39038Y320912D01*
X39029Y320871D01*
X39020Y320830D01*
X39010Y320780D01*
X39006Y320730D01*
X39001Y320671D01*
Y320607D01*
Y320289D01*
X39902Y320289D01*
Y319338D01*
X39001Y319338D01*
Y315725D01*
X37796D01*
Y319338D01*
X37127D01*
Y320289D01*
X37796D01*
Y320630D01*
Y320635D01*
Y320657D01*
Y320685D01*
Y320725D01*
X37800Y320771D01*
Y320826D01*
X37805Y320885D01*
X37809Y320953D01*
X37823Y321089D01*
X37846Y321235D01*
X37873Y321367D01*
X37891Y321431D01*
X37914Y321485D01*
Y321490D01*
X37918Y321499D01*
X37928Y321513D01*
X37937Y321531D01*
X37969Y321585D01*
X38019Y321649D01*
X38078Y321722D01*
X38155Y321799D01*
X38201Y321836D01*
X38251Y321872D01*
X38305Y321908D01*
X38364Y321945D01*
X38369D01*
X38378Y321954D01*
X38396Y321963D01*
X38423Y321972D01*
X38455Y321986D01*
X38496Y322004D01*
X38542Y322018D01*
X38592Y322036D01*
X38651Y322054D01*
X38715Y322068D01*
X38783Y322086D01*
X38856Y322099D01*
X38933Y322109D01*
X39020Y322118D01*
X39197Y322127D01*
X39283D01*
X39334Y322122D01*
D02*
G37*
G36*
X41791Y320907D02*
X40585D01*
Y322022D01*
X41791D01*
Y320907D01*
D02*
G37*
G36*
X23363Y322122D02*
X23395D01*
X23436Y322118D01*
X23477D01*
X23577Y322104D01*
X23686Y322091D01*
X23813Y322068D01*
X23950Y322040D01*
X24096Y322004D01*
X24250Y321958D01*
X24405Y321904D01*
X24564Y321836D01*
X24719Y321758D01*
X24874Y321667D01*
X25019Y321563D01*
X25160Y321440D01*
X25165Y321435D01*
X25179Y321422D01*
X25201Y321399D01*
X25229Y321367D01*
X25265Y321326D01*
X25306Y321271D01*
X25351Y321212D01*
X25401Y321144D01*
X25451Y321067D01*
X25506Y320980D01*
X25561Y320885D01*
X25615Y320785D01*
X25665Y320671D01*
X25715Y320553D01*
X25765Y320421D01*
X25806Y320284D01*
X24546Y319984D01*
Y319988D01*
X24542Y320007D01*
X24532Y320029D01*
X24523Y320066D01*
X24510Y320107D01*
X24491Y320152D01*
X24469Y320207D01*
X24446Y320261D01*
X24382Y320384D01*
X24341Y320448D01*
X24300Y320512D01*
X24255Y320575D01*
X24200Y320639D01*
X24141Y320698D01*
X24077Y320753D01*
X24073Y320757D01*
X24064Y320766D01*
X24041Y320780D01*
X24014Y320798D01*
X23982Y320821D01*
X23941Y320844D01*
X23891Y320871D01*
X23841Y320898D01*
X23777Y320921D01*
X23713Y320948D01*
X23641Y320971D01*
X23568Y320994D01*
X23486Y321012D01*
X23399Y321026D01*
X23313Y321035D01*
X23217Y321039D01*
X23186D01*
X23149Y321035D01*
X23104Y321030D01*
X23044Y321026D01*
X22976Y321012D01*
X22899Y320999D01*
X22817Y320976D01*
X22726Y320948D01*
X22635Y320917D01*
X22539Y320876D01*
X22444Y320826D01*
X22353Y320766D01*
X22257Y320703D01*
X22171Y320625D01*
X22084Y320534D01*
X22080Y320530D01*
X22066Y320512D01*
X22043Y320480D01*
X22016Y320439D01*
X21984Y320384D01*
X21948Y320316D01*
X21907Y320239D01*
X21871Y320143D01*
X21830Y320038D01*
X21789Y319916D01*
X21752Y319784D01*
X21720Y319638D01*
X21693Y319474D01*
X21670Y319301D01*
X21657Y319110D01*
X21652Y318905D01*
Y318901D01*
Y318892D01*
Y318874D01*
Y318855D01*
Y318824D01*
X21657Y318792D01*
Y318755D01*
X21661Y318710D01*
X21666Y318614D01*
X21675Y318500D01*
X21689Y318378D01*
X21707Y318246D01*
X21730Y318109D01*
X21757Y317968D01*
X21793Y317827D01*
X21834Y317686D01*
X21880Y317554D01*
X21939Y317427D01*
X22003Y317313D01*
X22080Y317208D01*
X22084Y317204D01*
X22098Y317186D01*
X22125Y317163D01*
X22157Y317131D01*
X22198Y317090D01*
X22253Y317049D01*
X22312Y317003D01*
X22380Y316958D01*
X22458Y316908D01*
X22539Y316863D01*
X22630Y316822D01*
X22730Y316781D01*
X22835Y316749D01*
X22949Y316726D01*
X23067Y316708D01*
X23195Y316703D01*
X23245D01*
X23281Y316708D01*
X23322Y316712D01*
X23372Y316722D01*
X23431Y316730D01*
X23495Y316744D01*
X23559Y316758D01*
X23627Y316781D01*
X23700Y316808D01*
X23773Y316840D01*
X23850Y316876D01*
X23923Y316917D01*
X23995Y316967D01*
X24064Y317022D01*
X24068Y317026D01*
X24082Y317035D01*
X24100Y317058D01*
X24123Y317085D01*
X24155Y317117D01*
X24191Y317163D01*
X24227Y317213D01*
X24269Y317272D01*
X24309Y317336D01*
X24355Y317413D01*
X24400Y317495D01*
X24441Y317586D01*
X24482Y317691D01*
X24523Y317795D01*
X24560Y317914D01*
X24591Y318041D01*
X25824Y317650D01*
Y317645D01*
X25820Y317636D01*
X25815Y317622D01*
X25811Y317604D01*
X25802Y317581D01*
X25793Y317549D01*
X25770Y317481D01*
X25738Y317395D01*
X25697Y317295D01*
X25652Y317186D01*
X25597Y317072D01*
X25538Y316949D01*
X25470Y316822D01*
X25392Y316694D01*
X25306Y316567D01*
X25210Y316444D01*
X25110Y316326D01*
X24996Y316216D01*
X24878Y316116D01*
X24869Y316112D01*
X24846Y316094D01*
X24810Y316071D01*
X24760Y316039D01*
X24696Y316003D01*
X24619Y315957D01*
X24528Y315912D01*
X24423Y315866D01*
X24309Y315821D01*
X24182Y315775D01*
X24046Y315734D01*
X23895Y315693D01*
X23741Y315661D01*
X23572Y315638D01*
X23395Y315620D01*
X23208Y315616D01*
X23154D01*
X23122Y315620D01*
X23086D01*
X23044Y315625D01*
X22999Y315629D01*
X22949Y315634D01*
X22894Y315643D01*
X22767Y315661D01*
X22630Y315689D01*
X22480Y315725D01*
X22321Y315766D01*
X22153Y315825D01*
X21984Y315893D01*
X21807Y315975D01*
X21639Y316075D01*
X21466Y316189D01*
X21384Y316253D01*
X21302Y316321D01*
X21225Y316394D01*
X21147Y316471D01*
Y316476D01*
X21138Y316480D01*
X21129Y316494D01*
X21111Y316512D01*
X21092Y316535D01*
X21074Y316562D01*
X21047Y316594D01*
X21020Y316631D01*
X20992Y316671D01*
X20961Y316717D01*
X20929Y316767D01*
X20892Y316822D01*
X20820Y316944D01*
X20747Y317085D01*
X20669Y317245D01*
X20597Y317418D01*
X20528Y317613D01*
X20469Y317823D01*
X20415Y318045D01*
X20378Y318287D01*
X20351Y318541D01*
X20346Y318678D01*
X20342Y318814D01*
Y318819D01*
Y318833D01*
Y318855D01*
Y318883D01*
X20346Y318919D01*
Y318965D01*
X20351Y319015D01*
X20355Y319074D01*
X20360Y319138D01*
X20365Y319206D01*
X20374Y319279D01*
X20383Y319356D01*
X20410Y319524D01*
X20442Y319706D01*
X20487Y319902D01*
X20538Y320102D01*
X20606Y320302D01*
X20683Y320507D01*
X20779Y320707D01*
X20883Y320898D01*
X21011Y321085D01*
X21079Y321171D01*
X21152Y321253D01*
X21156Y321258D01*
X21161Y321262D01*
X21174Y321276D01*
X21188Y321290D01*
X21234Y321335D01*
X21297Y321390D01*
X21379Y321458D01*
X21479Y321531D01*
X21593Y321608D01*
X21720Y321690D01*
X21866Y321772D01*
X22030Y321849D01*
X22203Y321927D01*
X22394Y321990D01*
X22599Y322045D01*
X22813Y322091D01*
X23044Y322118D01*
X23163Y322122D01*
X23286Y322127D01*
X23336D01*
X23363Y322122D01*
D02*
G37*
G36*
X34997Y320384D02*
X35038Y320380D01*
X35084Y320375D01*
X35134Y320371D01*
X35248Y320352D01*
X35370Y320330D01*
X35493Y320293D01*
X35621Y320243D01*
X35625D01*
X35634Y320239D01*
X35653Y320230D01*
X35675Y320216D01*
X35703Y320202D01*
X35734Y320184D01*
X35807Y320143D01*
X35889Y320089D01*
X35971Y320025D01*
X36053Y319956D01*
X36121Y319875D01*
Y319870D01*
X36130Y319865D01*
X36139Y319852D01*
X36149Y319834D01*
X36180Y319788D01*
X36217Y319729D01*
X36258Y319652D01*
X36294Y319570D01*
X36331Y319474D01*
X36362Y319370D01*
Y319365D01*
X36367Y319356D01*
Y319342D01*
X36371Y319320D01*
X36380Y319288D01*
X36385Y319251D01*
X36390Y319210D01*
X36399Y319160D01*
X36403Y319106D01*
X36408Y319046D01*
X36417Y318978D01*
X36421Y318905D01*
X36426Y318828D01*
Y318742D01*
X36431Y318651D01*
Y318555D01*
Y315725D01*
X35225D01*
Y318050D01*
Y318059D01*
Y318082D01*
Y318118D01*
Y318168D01*
X35220Y318228D01*
Y318296D01*
Y318369D01*
X35216Y318446D01*
X35207Y318605D01*
X35198Y318687D01*
X35188Y318764D01*
X35179Y318837D01*
X35170Y318901D01*
X35157Y318960D01*
X35143Y319005D01*
Y319010D01*
X35138Y319015D01*
X35129Y319042D01*
X35111Y319083D01*
X35084Y319128D01*
X35047Y319183D01*
X35006Y319242D01*
X34952Y319292D01*
X34893Y319342D01*
X34884Y319347D01*
X34861Y319360D01*
X34824Y319383D01*
X34774Y319406D01*
X34715Y319424D01*
X34642Y319447D01*
X34561Y319461D01*
X34474Y319465D01*
X34442D01*
X34420Y319461D01*
X34392D01*
X34360Y319456D01*
X34283Y319442D01*
X34197Y319424D01*
X34101Y319392D01*
X34001Y319351D01*
X33905Y319292D01*
X33901D01*
X33896Y319283D01*
X33883Y319274D01*
X33864Y319260D01*
X33823Y319224D01*
X33769Y319169D01*
X33714Y319106D01*
X33655Y319024D01*
X33605Y318933D01*
X33564Y318833D01*
Y318828D01*
X33560Y318819D01*
X33555Y318801D01*
X33551Y318778D01*
X33541Y318746D01*
X33537Y318705D01*
X33528Y318655D01*
X33519Y318596D01*
X33509Y318528D01*
X33500Y318455D01*
X33496Y318369D01*
X33487Y318273D01*
X33482Y318168D01*
X33478Y318050D01*
X33473Y317923D01*
Y317786D01*
Y315725D01*
X32267D01*
Y320289D01*
X33387D01*
Y319615D01*
X33396Y319624D01*
X33414Y319647D01*
X33446Y319688D01*
X33496Y319738D01*
X33555Y319793D01*
X33623Y319861D01*
X33705Y319929D01*
X33801Y320002D01*
X33901Y320075D01*
X34015Y320143D01*
X34142Y320211D01*
X34274Y320266D01*
X34415Y320316D01*
X34565Y320357D01*
X34724Y320380D01*
X34893Y320389D01*
X34961D01*
X34997Y320384D01*
D02*
G37*
G36*
X41791Y315725D02*
X40585D01*
Y320289D01*
X41791D01*
Y315725D01*
D02*
G37*
G36*
X29046Y320384D02*
X29073D01*
X29146Y320380D01*
X29232Y320371D01*
X29337Y320352D01*
X29451Y320334D01*
X29574Y320307D01*
X29706Y320270D01*
X29842Y320225D01*
X29983Y320170D01*
X30129Y320107D01*
X30270Y320029D01*
X30406Y319938D01*
X30543Y319834D01*
X30670Y319715D01*
X30679Y319706D01*
X30698Y319684D01*
X30734Y319647D01*
X30775Y319592D01*
X30825Y319529D01*
X30880Y319447D01*
X30939Y319356D01*
X31002Y319251D01*
X31066Y319133D01*
X31125Y319005D01*
X31180Y318864D01*
X31230Y318714D01*
X31275Y318551D01*
X31307Y318382D01*
X31326Y318200D01*
X31335Y318014D01*
Y318009D01*
Y318000D01*
Y317986D01*
Y317968D01*
X31330Y317945D01*
Y317914D01*
X31326Y317841D01*
X31316Y317754D01*
X31298Y317650D01*
X31280Y317536D01*
X31253Y317413D01*
X31216Y317281D01*
X31171Y317140D01*
X31116Y316999D01*
X31053Y316853D01*
X30975Y316712D01*
X30889Y316567D01*
X30784Y316430D01*
X30666Y316298D01*
X30657Y316289D01*
X30634Y316271D01*
X30597Y316235D01*
X30547Y316194D01*
X30479Y316139D01*
X30402Y316085D01*
X30311Y316021D01*
X30206Y315962D01*
X30088Y315898D01*
X29961Y315834D01*
X29824Y315780D01*
X29674Y315725D01*
X29515Y315684D01*
X29346Y315648D01*
X29169Y315629D01*
X28982Y315620D01*
X28918D01*
X28878Y315625D01*
X28819Y315629D01*
X28755Y315634D01*
X28677Y315643D01*
X28596Y315657D01*
X28509Y315670D01*
X28414Y315689D01*
X28313Y315711D01*
X28213Y315739D01*
X28109Y315771D01*
X27999Y315811D01*
X27895Y315852D01*
X27786Y315902D01*
X27781Y315907D01*
X27763Y315916D01*
X27731Y315934D01*
X27690Y315957D01*
X27645Y315984D01*
X27590Y316021D01*
X27531Y316062D01*
X27463Y316112D01*
X27394Y316166D01*
X27326Y316230D01*
X27253Y316298D01*
X27180Y316371D01*
X27112Y316453D01*
X27044Y316539D01*
X26980Y316631D01*
X26921Y316730D01*
X26917Y316735D01*
X26908Y316758D01*
X26894Y316785D01*
X26876Y316831D01*
X26853Y316881D01*
X26825Y316944D01*
X26803Y317022D01*
X26776Y317104D01*
X26744Y317199D01*
X26721Y317299D01*
X26694Y317408D01*
X26671Y317527D01*
X26653Y317654D01*
X26639Y317786D01*
X26630Y317923D01*
X26625Y318068D01*
Y318077D01*
Y318096D01*
Y318127D01*
X26630Y318173D01*
X26634Y318223D01*
X26639Y318287D01*
X26648Y318359D01*
X26662Y318437D01*
X26680Y318523D01*
X26698Y318614D01*
X26721Y318710D01*
X26748Y318810D01*
X26785Y318915D01*
X26825Y319019D01*
X26871Y319124D01*
X26921Y319229D01*
X26926Y319233D01*
X26935Y319251D01*
X26953Y319283D01*
X26976Y319320D01*
X27007Y319370D01*
X27044Y319424D01*
X27085Y319483D01*
X27135Y319547D01*
X27194Y319615D01*
X27258Y319688D01*
X27326Y319756D01*
X27399Y319829D01*
X27481Y319897D01*
X27567Y319966D01*
X27658Y320029D01*
X27758Y320089D01*
X27763Y320093D01*
X27781Y320102D01*
X27813Y320116D01*
X27854Y320134D01*
X27904Y320157D01*
X27968Y320184D01*
X28036Y320211D01*
X28113Y320239D01*
X28200Y320266D01*
X28295Y320293D01*
X28395Y320321D01*
X28500Y320343D01*
X28614Y320361D01*
X28727Y320375D01*
X28850Y320384D01*
X28973Y320389D01*
X29019D01*
X29046Y320384D01*
D02*
G37*
G36*
X44762Y320384D02*
X44821Y320375D01*
X44894Y320366D01*
X44976Y320348D01*
X45071Y320325D01*
X45171Y320298D01*
X45280Y320257D01*
X45394Y320207D01*
X45508Y320148D01*
X45626Y320075D01*
X45744Y319988D01*
X45858Y319888D01*
X45972Y319775D01*
X46077Y319643D01*
Y320289D01*
X47205D01*
Y316189D01*
Y316180D01*
Y316153D01*
Y316112D01*
Y316057D01*
X47201Y315993D01*
X47196Y315916D01*
Y315830D01*
X47187Y315739D01*
X47182Y315643D01*
X47173Y315543D01*
X47146Y315343D01*
X47132Y315247D01*
X47114Y315156D01*
X47091Y315065D01*
X47069Y314988D01*
Y314983D01*
X47064Y314970D01*
X47055Y314951D01*
X47046Y314924D01*
X47032Y314888D01*
X47014Y314851D01*
X46973Y314760D01*
X46918Y314660D01*
X46855Y314556D01*
X46782Y314451D01*
X46695Y314360D01*
X46691Y314355D01*
X46686Y314351D01*
X46673Y314337D01*
X46650Y314324D01*
X46627Y314305D01*
X46600Y314283D01*
X46564Y314255D01*
X46523Y314233D01*
X46481Y314201D01*
X46431Y314174D01*
X46322Y314114D01*
X46195Y314055D01*
X46049Y314005D01*
X46045D01*
X46031Y314001D01*
X46008Y313991D01*
X45976Y313987D01*
X45940Y313973D01*
X45890Y313964D01*
X45835Y313950D01*
X45772Y313941D01*
X45704Y313928D01*
X45626Y313914D01*
X45544Y313905D01*
X45453Y313896D01*
X45358Y313887D01*
X45253Y313878D01*
X45148Y313873D01*
X44957D01*
X44925Y313878D01*
X44848D01*
X44753Y313887D01*
X44643Y313896D01*
X44521Y313905D01*
X44393Y313923D01*
X44261Y313946D01*
X44125Y313973D01*
X43984Y314005D01*
X43852Y314041D01*
X43720Y314087D01*
X43597Y314142D01*
X43488Y314205D01*
X43387Y314274D01*
X43383Y314278D01*
X43365Y314292D01*
X43342Y314315D01*
X43310Y314346D01*
X43274Y314387D01*
X43233Y314433D01*
X43192Y314487D01*
X43146Y314551D01*
X43101Y314619D01*
X43060Y314697D01*
X43019Y314779D01*
X42983Y314870D01*
X42951Y314965D01*
X42928Y315065D01*
X42910Y315170D01*
X42905Y315284D01*
Y315288D01*
Y315297D01*
Y315306D01*
Y315325D01*
Y315370D01*
X42910Y315429D01*
X44289Y315261D01*
Y315256D01*
Y315252D01*
X44298Y315220D01*
X44307Y315179D01*
X44320Y315129D01*
X44343Y315074D01*
X44370Y315020D01*
X44402Y314970D01*
X44448Y314929D01*
X44457Y314924D01*
X44480Y314911D01*
X44521Y314888D01*
X44580Y314865D01*
X44652Y314838D01*
X44698Y314829D01*
X44748Y314820D01*
X44803Y314810D01*
X44857Y314801D01*
X44921Y314797D01*
X45035D01*
X45066Y314801D01*
X45107D01*
X45153Y314806D01*
X45203Y314810D01*
X45258Y314815D01*
X45371Y314833D01*
X45490Y314861D01*
X45599Y314892D01*
X45653Y314915D01*
X45699Y314942D01*
X45708Y314947D01*
X45726Y314961D01*
X45754Y314983D01*
X45790Y315015D01*
X45826Y315061D01*
X45867Y315111D01*
X45908Y315175D01*
X45940Y315247D01*
X45945Y315256D01*
X45949Y315279D01*
X45958Y315316D01*
X45963Y315343D01*
X45972Y315375D01*
X45976Y315406D01*
X45981Y315447D01*
X45986Y315493D01*
X45990Y315543D01*
X45995Y315598D01*
Y315661D01*
X45999Y315725D01*
Y315798D01*
X46004Y316467D01*
X45999Y316458D01*
X45981Y316435D01*
X45949Y316398D01*
X45904Y316353D01*
X45854Y316294D01*
X45785Y316230D01*
X45713Y316166D01*
X45626Y316098D01*
X45531Y316025D01*
X45430Y315962D01*
X45317Y315898D01*
X45194Y315843D01*
X45062Y315793D01*
X44925Y315757D01*
X44780Y315734D01*
X44630Y315725D01*
X44589D01*
X44543Y315730D01*
X44480Y315739D01*
X44402Y315748D01*
X44311Y315766D01*
X44211Y315789D01*
X44102Y315821D01*
X43988Y315862D01*
X43870Y315916D01*
X43751Y315975D01*
X43629Y316053D01*
X43506Y316139D01*
X43392Y316244D01*
X43278Y316362D01*
X43174Y316498D01*
X43169Y316508D01*
X43156Y316526D01*
X43137Y316562D01*
X43110Y316608D01*
X43078Y316667D01*
X43042Y316740D01*
X43005Y316826D01*
X42964Y316922D01*
X42924Y317026D01*
X42887Y317140D01*
X42851Y317267D01*
X42819Y317404D01*
X42796Y317545D01*
X42773Y317700D01*
X42760Y317859D01*
X42755Y318027D01*
Y318032D01*
Y318041D01*
Y318055D01*
Y318077D01*
Y318105D01*
X42760Y318137D01*
Y318173D01*
X42764Y318214D01*
X42773Y318314D01*
X42782Y318423D01*
X42801Y318546D01*
X42823Y318678D01*
X42855Y318814D01*
X42892Y318960D01*
X42933Y319106D01*
X42987Y319251D01*
X43051Y319392D01*
X43124Y319529D01*
X43210Y319661D01*
X43306Y319779D01*
X43310Y319788D01*
X43333Y319806D01*
X43360Y319834D01*
X43406Y319875D01*
X43460Y319920D01*
X43524Y319970D01*
X43597Y320029D01*
X43683Y320084D01*
X43779Y320143D01*
X43883Y320198D01*
X43997Y320248D01*
X44116Y320293D01*
X44247Y320334D01*
X44384Y320361D01*
X44530Y320384D01*
X44680Y320389D01*
X44716D01*
X44762Y320384D01*
D02*
G37*
G36*
X17036Y95746D02*
X22907Y93228D01*
Y94237D01*
X21841Y94704D01*
Y97386D01*
X24908Y96016D01*
X24892Y85455D01*
X21841Y86644D01*
Y89333D01*
X22907Y88866D01*
Y89957D01*
X16995Y92310D01*
Y91219D01*
X16446Y91441D01*
X16438D01*
X16413Y91457D01*
X16372Y91474D01*
X16315Y91498D01*
X16249Y91531D01*
X16175Y91572D01*
X16003Y91670D01*
X15822Y91785D01*
X15642Y91925D01*
X15560Y91998D01*
X15478Y92080D01*
X15413Y92162D01*
X15355Y92253D01*
Y92261D01*
X15339Y92285D01*
X15322Y92318D01*
X15298Y92376D01*
X15273Y92449D01*
X15240Y92540D01*
X15207Y92638D01*
X15175Y92769D01*
X15134Y92909D01*
X15101Y93073D01*
X15068Y93253D01*
X15044Y93450D01*
X15019Y93671D01*
X15002Y93917D01*
X14994Y94180D01*
X14986Y94467D01*
Y97812D01*
X17036Y95746D01*
D02*
G37*
G36*
X16528Y88554D02*
X19627Y87357D01*
X21021Y88423D01*
Y81355D01*
X20013Y80322D01*
X18676Y80896D01*
Y83438D01*
X19717Y83028D01*
Y84520D01*
X16979Y85586D01*
Y84594D01*
X16429Y84815D01*
X16413Y84823D01*
X16364Y84840D01*
X16298Y84881D01*
X16208Y84930D01*
X16093Y85004D01*
X15970Y85086D01*
X15839Y85184D01*
X15708Y85307D01*
X15576Y85447D01*
X15445Y85602D01*
X15322Y85783D01*
X15216Y85980D01*
X15117Y86193D01*
X15052Y86431D01*
X15002Y86693D01*
X14994Y86832D01*
X14986Y86980D01*
Y90178D01*
X16528Y88554D01*
D02*
G37*
G36*
X14994Y81511D02*
X15002Y81494D01*
X15027Y81470D01*
X15060Y81437D01*
X15109Y81379D01*
X15167Y81322D01*
X15240Y81240D01*
X15322Y81150D01*
X15421Y81043D01*
X15544Y80928D01*
X15675Y80789D01*
X15822Y80633D01*
X15995Y80469D01*
X16183Y80281D01*
X16388Y80067D01*
X16618Y79846D01*
X19726Y78632D01*
X21021Y79674D01*
Y75623D01*
X16888Y77279D01*
Y76287D01*
X16347Y76517D01*
X16331Y76525D01*
X16290Y76541D01*
X16224Y76582D01*
X16134Y76632D01*
X16036Y76697D01*
X15921Y76779D01*
X15798Y76886D01*
X15667Y77009D01*
X15544Y77148D01*
X15421Y77312D01*
X15306Y77493D01*
X15199Y77706D01*
X15109Y77935D01*
X15044Y78190D01*
X15002Y78468D01*
X14986Y78772D01*
Y81519D01*
X14994Y81511D01*
D02*
G37*
G36*
X23990Y76935D02*
Y74418D01*
X23358Y74705D01*
X23342Y74713D01*
X23301Y74737D01*
X23235Y74778D01*
X23145Y74836D01*
X23047Y74910D01*
X22932Y75000D01*
X22809Y75106D01*
X22678Y75238D01*
X22555Y75385D01*
X22432Y75549D01*
X22317Y75738D01*
X22210Y75943D01*
X22120Y76164D01*
X22054Y76410D01*
X22014Y76673D01*
X21997Y76960D01*
Y77755D01*
X23990Y76935D01*
D02*
G37*
G36*
X17044Y74787D02*
X23375Y72269D01*
X24908Y73622D01*
Y68981D01*
X20726Y67595D01*
X24908Y63028D01*
Y59116D01*
X22784Y59994D01*
Y60699D01*
X16979Y63061D01*
Y61978D01*
X16962Y61986D01*
X16929Y62003D01*
X16872Y62027D01*
X16798Y62060D01*
X16708Y62101D01*
X16610Y62150D01*
X16495Y62208D01*
X16372Y62273D01*
X16126Y62413D01*
X15880Y62560D01*
X15765Y62642D01*
X15667Y62724D01*
X15568Y62798D01*
X15495Y62880D01*
X15486Y62888D01*
X15470Y62905D01*
X15445Y62938D01*
X15413Y62987D01*
X15380Y63044D01*
X15330Y63118D01*
X15290Y63200D01*
X15240Y63298D01*
X15191Y63413D01*
X15150Y63536D01*
X15101Y63667D01*
X15068Y63815D01*
X15035Y63979D01*
X15011Y64151D01*
X14994Y64340D01*
X14986Y64537D01*
Y67013D01*
X20054Y65053D01*
X16331Y69211D01*
X20226Y70408D01*
X14986Y72433D01*
Y76853D01*
X17044Y74787D01*
D02*
G37*
G36*
X15962Y60592D02*
X16003Y60576D01*
X16077Y60551D01*
X16183Y60519D01*
X16315Y60469D01*
X16478Y60412D01*
X16667Y60338D01*
X16888Y60256D01*
X17134Y60166D01*
X17405Y60068D01*
X17708Y59953D01*
X18045Y59822D01*
X18397Y59690D01*
X18791Y59543D01*
X19201Y59379D01*
X19644Y59207D01*
X19660Y59198D01*
X19701Y59182D01*
X19775Y59141D01*
X19857Y59092D01*
X19963Y59018D01*
X20078Y58928D01*
X20201Y58813D01*
X20333Y58682D01*
X20464Y58526D01*
X20587Y58337D01*
X20701Y58132D01*
X20808Y57895D01*
X20898Y57632D01*
X20964Y57337D01*
X20989Y57173D01*
X21005Y57009D01*
X21021Y56829D01*
Y52991D01*
X20103Y52048D01*
X16355Y53565D01*
X16339Y53573D01*
X16298Y53590D01*
X16232Y53631D01*
X16142Y53680D01*
X16036Y53754D01*
X15921Y53844D01*
X15798Y53950D01*
X15675Y54090D01*
X15544Y54246D01*
X15421Y54426D01*
X15306Y54631D01*
X15199Y54869D01*
X15109Y55131D01*
X15044Y55426D01*
X15019Y55590D01*
X15002Y55754D01*
X14994Y55935D01*
X14986Y56115D01*
Y59699D01*
X15946Y60601D01*
X15962Y60592D01*
D02*
G37*
G36*
X19660Y50408D02*
X19668D01*
X19685Y50400D01*
X19709Y50383D01*
X19750Y50367D01*
X19791Y50342D01*
X19849Y50310D01*
X19972Y50219D01*
X20111Y50105D01*
X20185Y50039D01*
X20259Y49965D01*
X20341Y49875D01*
X20414Y49785D01*
X20488Y49678D01*
X20562Y49563D01*
X20570Y49555D01*
X20579Y49539D01*
X20595Y49506D01*
X20619Y49465D01*
X20644Y49408D01*
X20677Y49342D01*
X20710Y49276D01*
X20742Y49194D01*
X20808Y49022D01*
X20865Y48834D01*
X20907Y48629D01*
X20923Y48522D01*
Y45578D01*
X23588Y44602D01*
X24908Y45627D01*
Y41413D01*
X16888Y44529D01*
Y43512D01*
X16347Y43733D01*
X16331Y43741D01*
X16290Y43758D01*
X16224Y43799D01*
X16134Y43848D01*
X16036Y43914D01*
X15921Y43996D01*
X15798Y44102D01*
X15667Y44225D01*
X15544Y44365D01*
X15421Y44529D01*
X15306Y44709D01*
X15199Y44922D01*
X15109Y45152D01*
X15044Y45406D01*
X15002Y45685D01*
X14986Y45988D01*
Y50703D01*
X16011Y51851D01*
X19660Y50408D01*
D02*
G37*
G36*
X19143Y36796D02*
X19152D01*
X19176Y36788D01*
X19209Y36771D01*
X19258Y36747D01*
X19316Y36722D01*
X19381Y36681D01*
X19537Y36591D01*
X19709Y36476D01*
X19898Y36329D01*
X19988Y36238D01*
X20078Y36140D01*
X20168Y36042D01*
X20251Y35927D01*
X20259Y35919D01*
X20275Y35894D01*
X20300Y35853D01*
X20333Y35787D01*
X20373Y35714D01*
X20423Y35623D01*
X20464Y35525D01*
X20521Y35402D01*
X20570Y35271D01*
X20611Y35131D01*
X20661Y34967D01*
X20701Y34803D01*
X20734Y34623D01*
X20759Y34426D01*
X20775Y34229D01*
X20784Y34016D01*
Y30892D01*
X22850Y30113D01*
Y31950D01*
X21858Y32335D01*
Y35517D01*
X24908Y34393D01*
Y27965D01*
X23391Y26603D01*
X20611Y27645D01*
X20603D01*
X20579Y27661D01*
X20546Y27678D01*
X20496Y27694D01*
X20431Y27727D01*
X20365Y27768D01*
X20283Y27809D01*
X20201Y27866D01*
X20103Y27932D01*
X20013Y27997D01*
X19906Y28079D01*
X19808Y28170D01*
X19701Y28268D01*
X19594Y28383D01*
X19496Y28498D01*
X19398Y28629D01*
X19389Y28637D01*
X19373Y28662D01*
X19349Y28703D01*
X19316Y28752D01*
X19283Y28817D01*
X19234Y28899D01*
X19193Y28981D01*
X19143Y29088D01*
X19094Y29195D01*
X19053Y29309D01*
X18971Y29564D01*
X18938Y29703D01*
X18914Y29842D01*
X18898Y29990D01*
X18889Y30138D01*
Y33483D01*
X16995Y34197D01*
Y32458D01*
X17864Y32147D01*
Y28760D01*
X16618Y29236D01*
X16610D01*
X16601Y29244D01*
X16577Y29252D01*
X16544Y29268D01*
X16470Y29309D01*
X16364Y29383D01*
X16241Y29473D01*
X16101Y29596D01*
X16027Y29662D01*
X15954Y29744D01*
X15880Y29834D01*
X15806Y29933D01*
X15724Y30039D01*
X15650Y30154D01*
X15576Y30277D01*
X15503Y30408D01*
X15429Y30556D01*
X15363Y30712D01*
X15298Y30876D01*
X15240Y31056D01*
X15183Y31253D01*
X15134Y31450D01*
X15093Y31671D01*
X15060Y31892D01*
X15027Y32138D01*
X15002Y32393D01*
X14994Y32663D01*
X14986Y32942D01*
Y38305D01*
X19143Y36796D01*
D02*
G37*
G36*
X16511Y27259D02*
X16560Y27251D01*
X16626Y27243D01*
X16757Y27218D01*
X16921Y27169D01*
X17085Y27095D01*
X17176Y27046D01*
X17257Y26989D01*
X17339Y26931D01*
X17422Y26858D01*
X17430Y26849D01*
X17438Y26841D01*
X17462Y26817D01*
X17487Y26784D01*
X17520Y26743D01*
X17553Y26694D01*
X17635Y26571D01*
X17708Y26423D01*
X17774Y26251D01*
X17823Y26054D01*
X17831Y25947D01*
X17840Y25841D01*
Y25783D01*
X17831Y25742D01*
X17823Y25693D01*
X17815Y25628D01*
X17790Y25496D01*
X17741Y25332D01*
X17668Y25168D01*
X17618Y25078D01*
X17561Y24996D01*
X17495Y24914D01*
X17422Y24832D01*
X17413Y24824D01*
X17405Y24816D01*
X17380Y24791D01*
X17348Y24767D01*
X17307Y24734D01*
X17257Y24701D01*
X17143Y24619D01*
X16995Y24545D01*
X16823Y24480D01*
X16626Y24430D01*
X16520Y24422D01*
X16413Y24414D01*
X16405D01*
X16388D01*
X16355D01*
X16315Y24422D01*
X16265Y24430D01*
X16200Y24439D01*
X16060Y24463D01*
X15904Y24512D01*
X15732Y24586D01*
X15642Y24635D01*
X15560Y24693D01*
X15478Y24758D01*
X15396Y24832D01*
X15388Y24840D01*
X15380Y24849D01*
X15355Y24873D01*
X15330Y24906D01*
X15298Y24947D01*
X15265Y24996D01*
X15191Y25111D01*
X15117Y25259D01*
X15052Y25431D01*
X15002Y25628D01*
X14994Y25734D01*
X14986Y25841D01*
Y25898D01*
X14994Y25939D01*
X15002Y25988D01*
X15011Y26054D01*
X15035Y26193D01*
X15085Y26349D01*
X15158Y26521D01*
X15207Y26612D01*
X15265Y26694D01*
X15322Y26776D01*
X15396Y26858D01*
X15404Y26866D01*
X15413Y26874D01*
X15437Y26899D01*
X15470Y26923D01*
X15511Y26956D01*
X15560Y26989D01*
X15683Y27063D01*
X15831Y27136D01*
X16003Y27202D01*
X16200Y27251D01*
X16306Y27259D01*
X16413Y27268D01*
X16421D01*
X16438D01*
X16470D01*
X16511Y27259D01*
D02*
G37*
G36*
X23457Y20642D02*
X23465D01*
X23481Y20626D01*
X23514Y20617D01*
X23563Y20593D01*
X23621Y20560D01*
X23678Y20519D01*
X23752Y20470D01*
X23826Y20412D01*
X23908Y20339D01*
X23998Y20265D01*
X24080Y20166D01*
X24170Y20068D01*
X24260Y19953D01*
X24351Y19822D01*
X24441Y19683D01*
X24523Y19527D01*
X24531Y19519D01*
X24539Y19494D01*
X24555Y19445D01*
X24580Y19387D01*
X24613Y19322D01*
X24646Y19232D01*
X24678Y19133D01*
X24720Y19027D01*
X24752Y18912D01*
X24785Y18789D01*
X24851Y18526D01*
X24892Y18239D01*
X24908Y18092D01*
Y13451D01*
X23399Y12188D01*
X16790Y14853D01*
X16782D01*
X16757Y14869D01*
X16725Y14886D01*
X16675Y14910D01*
X16610Y14943D01*
X16536Y14976D01*
X16462Y15025D01*
X16372Y15082D01*
X16175Y15214D01*
X16077Y15287D01*
X15970Y15378D01*
X15864Y15476D01*
X15757Y15574D01*
X15650Y15689D01*
X15552Y15812D01*
X15544Y15820D01*
X15527Y15845D01*
X15503Y15886D01*
X15462Y15935D01*
X15421Y16009D01*
X15371Y16083D01*
X15322Y16173D01*
X15273Y16280D01*
X15216Y16386D01*
X15167Y16501D01*
X15076Y16763D01*
X15035Y16895D01*
X15011Y17034D01*
X14994Y17173D01*
X14986Y17321D01*
Y22159D01*
X16536Y23405D01*
X23457Y20642D01*
D02*
G37*
G36*
X43151Y298126D02*
X43146Y298030D01*
Y297926D01*
X43142Y297812D01*
X43137Y297689D01*
X43128Y297434D01*
X43119Y297307D01*
X43110Y297184D01*
X43101Y297071D01*
X43087Y296966D01*
X43073Y296875D01*
X43064Y296838D01*
X43055Y296802D01*
Y296797D01*
X43046Y296779D01*
X43037Y296747D01*
X43028Y296711D01*
X43010Y296666D01*
X42987Y296611D01*
X42960Y296552D01*
X42923Y296484D01*
X42887Y296415D01*
X42842Y296342D01*
X42791Y296270D01*
X42737Y296192D01*
X42673Y296115D01*
X42600Y296038D01*
X42523Y295965D01*
X42437Y295897D01*
X42432Y295892D01*
X42414Y295878D01*
X42386Y295860D01*
X42350Y295837D01*
X42305Y295810D01*
X42245Y295778D01*
X42182Y295746D01*
X42104Y295710D01*
X42022Y295678D01*
X41932Y295646D01*
X41831Y295615D01*
X41722Y295587D01*
X41604Y295560D01*
X41481Y295542D01*
X41349Y295533D01*
X41213Y295528D01*
X41208D01*
X41185D01*
X41158D01*
X41117Y295533D01*
X41067D01*
X41008Y295537D01*
X40944Y295546D01*
X40871Y295555D01*
X40799Y295564D01*
X40717Y295578D01*
X40553Y295619D01*
X40389Y295669D01*
X40312Y295706D01*
X40234Y295742D01*
X40230Y295746D01*
X40216Y295751D01*
X40198Y295765D01*
X40171Y295778D01*
X40139Y295801D01*
X40098Y295824D01*
X40011Y295887D01*
X39911Y295965D01*
X39807Y296056D01*
X39707Y296161D01*
X39615Y296274D01*
X39611Y296279D01*
X39606Y296288D01*
X39593Y296306D01*
X39579Y296329D01*
X39561Y296361D01*
X39538Y296392D01*
X39515Y296433D01*
X39493Y296479D01*
X39443Y296579D01*
X39393Y296688D01*
X39347Y296807D01*
X39315Y296934D01*
Y296938D01*
X39311Y296957D01*
X39306Y296979D01*
X39302Y297020D01*
X39297Y297066D01*
X39288Y297125D01*
X39279Y297189D01*
X39274Y297271D01*
X39265Y297357D01*
X39256Y297453D01*
X39247Y297562D01*
X39242Y297680D01*
X39238Y297808D01*
X39233Y297944D01*
X39229Y298094D01*
Y299077D01*
X36854D01*
Y300346D01*
X43151D01*
Y298126D01*
D02*
G37*
G36*
X38159Y294805D02*
X38196D01*
X38232Y294800D01*
X38278Y294795D01*
X38328Y294786D01*
X38432Y294764D01*
X38551Y294732D01*
X38669Y294686D01*
X38783Y294627D01*
X38787Y294623D01*
X38796Y294618D01*
X38810Y294609D01*
X38833Y294591D01*
X38888Y294550D01*
X38956Y294491D01*
X39029Y294418D01*
X39106Y294331D01*
X39183Y294227D01*
X39247Y294108D01*
Y294104D01*
X39256Y294095D01*
X39265Y294072D01*
X39274Y294045D01*
X39288Y294013D01*
X39306Y293972D01*
X39324Y293922D01*
X39342Y293863D01*
X39365Y293799D01*
X39388Y293726D01*
X39411Y293649D01*
X39434Y293562D01*
X39461Y293472D01*
X39484Y293371D01*
X39506Y293262D01*
X39529Y293148D01*
Y293139D01*
X39538Y293112D01*
X39543Y293067D01*
X39556Y293012D01*
X39570Y292944D01*
X39588Y292862D01*
X39606Y292775D01*
X39625Y292684D01*
X39675Y292489D01*
X39725Y292298D01*
X39748Y292207D01*
X39775Y292120D01*
X39802Y292043D01*
X39829Y291974D01*
X39948D01*
X39952D01*
X39961D01*
X39979D01*
X40002Y291979D01*
X40034D01*
X40066Y291984D01*
X40139Y291997D01*
X40221Y292016D01*
X40303Y292047D01*
X40380Y292088D01*
X40412Y292115D01*
X40444Y292147D01*
X40448Y292157D01*
X40457Y292166D01*
X40466Y292184D01*
X40480Y292202D01*
X40489Y292229D01*
X40503Y292257D01*
X40521Y292293D01*
X40535Y292334D01*
X40548Y292384D01*
X40557Y292434D01*
X40571Y292493D01*
X40580Y292562D01*
X40589Y292634D01*
X40594Y292712D01*
Y292853D01*
X40589Y292880D01*
Y292912D01*
X40580Y292980D01*
X40562Y293062D01*
X40539Y293148D01*
X40507Y293230D01*
X40466Y293303D01*
X40462Y293312D01*
X40444Y293330D01*
X40407Y293367D01*
X40362Y293403D01*
X40303Y293449D01*
X40225Y293499D01*
X40130Y293544D01*
X40020Y293590D01*
X40216Y294686D01*
X40225Y294682D01*
X40243Y294677D01*
X40280Y294668D01*
X40325Y294650D01*
X40380Y294632D01*
X40444Y294604D01*
X40512Y294573D01*
X40585Y294541D01*
X40667Y294500D01*
X40744Y294450D01*
X40826Y294400D01*
X40908Y294340D01*
X40985Y294281D01*
X41062Y294209D01*
X41131Y294136D01*
X41194Y294054D01*
X41199Y294049D01*
X41208Y294031D01*
X41226Y294004D01*
X41244Y293967D01*
X41267Y293922D01*
X41295Y293863D01*
X41326Y293794D01*
X41358Y293713D01*
X41385Y293626D01*
X41417Y293526D01*
X41445Y293412D01*
X41467Y293294D01*
X41486Y293162D01*
X41504Y293021D01*
X41513Y292871D01*
X41517Y292707D01*
Y292630D01*
X41513Y292575D01*
Y292507D01*
X41508Y292429D01*
X41504Y292343D01*
X41495Y292252D01*
X41486Y292157D01*
X41472Y292056D01*
X41436Y291856D01*
X41417Y291761D01*
X41390Y291665D01*
X41358Y291579D01*
X41326Y291501D01*
Y291497D01*
X41317Y291483D01*
X41308Y291465D01*
X41290Y291438D01*
X41272Y291406D01*
X41249Y291369D01*
X41194Y291283D01*
X41122Y291192D01*
X41040Y291101D01*
X40944Y291014D01*
X40894Y290978D01*
X40839Y290946D01*
X40835D01*
X40826Y290937D01*
X40808Y290932D01*
X40780Y290919D01*
X40749Y290910D01*
X40703Y290896D01*
X40653Y290878D01*
X40594Y290864D01*
X40525Y290851D01*
X40444Y290832D01*
X40357Y290819D01*
X40257Y290810D01*
X40148Y290796D01*
X40030Y290792D01*
X39898Y290782D01*
X39757D01*
X38351Y290801D01*
X38346D01*
X38323D01*
X38291D01*
X38250D01*
X38201D01*
X38146Y290796D01*
X38082D01*
X38014Y290792D01*
X37868Y290787D01*
X37723Y290778D01*
X37650Y290773D01*
X37582Y290764D01*
X37523Y290755D01*
X37463Y290746D01*
X37459D01*
X37450Y290741D01*
X37436D01*
X37413Y290732D01*
X37386Y290728D01*
X37354Y290719D01*
X37281Y290696D01*
X37190Y290669D01*
X37086Y290628D01*
X36972Y290582D01*
X36854Y290528D01*
Y291720D01*
X36858D01*
X36876Y291729D01*
X36904Y291738D01*
X36945Y291752D01*
X36995Y291770D01*
X37054Y291792D01*
X37127Y291815D01*
X37209Y291838D01*
X37213D01*
X37227Y291843D01*
X37245Y291847D01*
X37268Y291856D01*
X37313Y291870D01*
X37331Y291874D01*
X37350Y291879D01*
X37345Y291883D01*
X37336Y291893D01*
X37322Y291911D01*
X37300Y291934D01*
X37277Y291961D01*
X37245Y291997D01*
X37213Y292034D01*
X37181Y292079D01*
X37108Y292175D01*
X37031Y292288D01*
X36963Y292411D01*
X36899Y292543D01*
Y292548D01*
X36895Y292557D01*
X36885Y292580D01*
X36876Y292602D01*
X36863Y292639D01*
X36854Y292675D01*
X36840Y292721D01*
X36826Y292766D01*
X36808Y292821D01*
X36794Y292880D01*
X36772Y293007D01*
X36754Y293148D01*
X36749Y293294D01*
Y293326D01*
X36754Y293362D01*
Y293412D01*
X36763Y293472D01*
X36767Y293540D01*
X36781Y293613D01*
X36799Y293699D01*
X36817Y293785D01*
X36845Y293876D01*
X36872Y293967D01*
X36908Y294058D01*
X36954Y294149D01*
X37004Y294240D01*
X37063Y294327D01*
X37131Y294404D01*
X37136Y294409D01*
X37149Y294422D01*
X37172Y294441D01*
X37200Y294468D01*
X37236Y294500D01*
X37281Y294532D01*
X37336Y294568D01*
X37395Y294604D01*
X37463Y294645D01*
X37536Y294682D01*
X37613Y294714D01*
X37700Y294745D01*
X37791Y294773D01*
X37887Y294791D01*
X37991Y294805D01*
X38096Y294809D01*
X38100D01*
X38114D01*
X38132D01*
X38159Y294805D01*
D02*
G37*
G36*
X41417Y288535D02*
X40767D01*
X40771Y288530D01*
X40785Y288521D01*
X40812Y288507D01*
X40839Y288485D01*
X40876Y288462D01*
X40921Y288430D01*
X41017Y288362D01*
X41117Y288284D01*
X41217Y288198D01*
X41263Y288153D01*
X41304Y288107D01*
X41340Y288061D01*
X41372Y288021D01*
Y288016D01*
X41376Y288012D01*
X41385Y287998D01*
X41395Y287980D01*
X41417Y287930D01*
X41445Y287866D01*
X41472Y287789D01*
X41495Y287702D01*
X41513Y287602D01*
X41517Y287497D01*
Y287456D01*
X41513Y287424D01*
X41508Y287388D01*
X41504Y287347D01*
X41499Y287297D01*
X41490Y287243D01*
X41463Y287120D01*
X41422Y286983D01*
X41395Y286915D01*
X41363Y286842D01*
X41326Y286769D01*
X41285Y286697D01*
X40234Y287074D01*
X40239Y287079D01*
X40243Y287088D01*
X40253Y287106D01*
X40266Y287124D01*
X40280Y287152D01*
X40298Y287183D01*
X40334Y287261D01*
X40371Y287347D01*
X40403Y287443D01*
X40425Y287543D01*
X40435Y287593D01*
Y287684D01*
X40425Y287734D01*
X40416Y287793D01*
X40398Y287861D01*
X40375Y287934D01*
X40339Y288007D01*
X40293Y288075D01*
X40289Y288084D01*
X40266Y288102D01*
X40230Y288134D01*
X40180Y288175D01*
X40107Y288216D01*
X40066Y288239D01*
X40020Y288262D01*
X39970Y288284D01*
X39916Y288307D01*
X39852Y288330D01*
X39788Y288348D01*
X39784D01*
X39770Y288353D01*
X39748Y288357D01*
X39716Y288362D01*
X39670Y288371D01*
X39611Y288380D01*
X39543Y288389D01*
X39461Y288398D01*
X39365Y288407D01*
X39256Y288416D01*
X39129Y288425D01*
X38992Y288435D01*
X38833Y288439D01*
X38660Y288444D01*
X38469Y288448D01*
X38369D01*
X38260D01*
X36854D01*
Y289654D01*
X41417D01*
Y288535D01*
D02*
G37*
G36*
X38159Y286492D02*
X38196D01*
X38232Y286487D01*
X38278Y286483D01*
X38328Y286473D01*
X38432Y286451D01*
X38551Y286419D01*
X38669Y286373D01*
X38783Y286314D01*
X38787Y286310D01*
X38796Y286305D01*
X38810Y286296D01*
X38833Y286278D01*
X38888Y286237D01*
X38956Y286178D01*
X39029Y286105D01*
X39106Y286019D01*
X39183Y285914D01*
X39247Y285796D01*
Y285791D01*
X39256Y285782D01*
X39265Y285759D01*
X39274Y285732D01*
X39288Y285700D01*
X39306Y285659D01*
X39324Y285609D01*
X39342Y285550D01*
X39365Y285486D01*
X39388Y285413D01*
X39411Y285336D01*
X39434Y285250D01*
X39461Y285159D01*
X39484Y285058D01*
X39506Y284949D01*
X39529Y284836D01*
Y284826D01*
X39538Y284799D01*
X39543Y284754D01*
X39556Y284699D01*
X39570Y284631D01*
X39588Y284549D01*
X39606Y284462D01*
X39625Y284371D01*
X39675Y284176D01*
X39725Y283985D01*
X39748Y283894D01*
X39775Y283807D01*
X39802Y283730D01*
X39829Y283662D01*
X39948D01*
X39952D01*
X39961D01*
X39979D01*
X40002Y283666D01*
X40034D01*
X40066Y283671D01*
X40139Y283684D01*
X40221Y283703D01*
X40303Y283734D01*
X40380Y283775D01*
X40412Y283803D01*
X40444Y283835D01*
X40448Y283844D01*
X40457Y283853D01*
X40466Y283871D01*
X40480Y283889D01*
X40489Y283916D01*
X40503Y283944D01*
X40521Y283980D01*
X40535Y284021D01*
X40548Y284071D01*
X40557Y284121D01*
X40571Y284180D01*
X40580Y284249D01*
X40589Y284321D01*
X40594Y284399D01*
Y284540D01*
X40589Y284567D01*
Y284599D01*
X40580Y284667D01*
X40562Y284749D01*
X40539Y284836D01*
X40507Y284917D01*
X40466Y284990D01*
X40462Y284999D01*
X40444Y285017D01*
X40407Y285054D01*
X40362Y285090D01*
X40303Y285136D01*
X40225Y285186D01*
X40130Y285231D01*
X40020Y285277D01*
X40216Y286373D01*
X40225Y286369D01*
X40243Y286364D01*
X40280Y286355D01*
X40325Y286337D01*
X40380Y286319D01*
X40444Y286292D01*
X40512Y286260D01*
X40585Y286228D01*
X40667Y286187D01*
X40744Y286137D01*
X40826Y286087D01*
X40908Y286028D01*
X40985Y285968D01*
X41062Y285896D01*
X41131Y285823D01*
X41194Y285741D01*
X41199Y285736D01*
X41208Y285718D01*
X41226Y285691D01*
X41244Y285655D01*
X41267Y285609D01*
X41295Y285550D01*
X41326Y285482D01*
X41358Y285400D01*
X41385Y285313D01*
X41417Y285213D01*
X41445Y285099D01*
X41467Y284981D01*
X41486Y284849D01*
X41504Y284708D01*
X41513Y284558D01*
X41517Y284394D01*
Y284317D01*
X41513Y284262D01*
Y284194D01*
X41508Y284117D01*
X41504Y284030D01*
X41495Y283939D01*
X41486Y283844D01*
X41472Y283744D01*
X41436Y283543D01*
X41417Y283448D01*
X41390Y283352D01*
X41358Y283266D01*
X41326Y283189D01*
Y283184D01*
X41317Y283170D01*
X41308Y283152D01*
X41290Y283125D01*
X41272Y283093D01*
X41249Y283056D01*
X41194Y282970D01*
X41122Y282879D01*
X41040Y282788D01*
X40944Y282702D01*
X40894Y282665D01*
X40839Y282633D01*
X40835D01*
X40826Y282624D01*
X40808Y282620D01*
X40780Y282606D01*
X40749Y282597D01*
X40703Y282583D01*
X40653Y282565D01*
X40594Y282552D01*
X40525Y282538D01*
X40444Y282520D01*
X40357Y282506D01*
X40257Y282497D01*
X40148Y282483D01*
X40030Y282479D01*
X39898Y282470D01*
X39757D01*
X38351Y282488D01*
X38346D01*
X38323D01*
X38291D01*
X38250D01*
X38201D01*
X38146Y282483D01*
X38082D01*
X38014Y282479D01*
X37868Y282474D01*
X37723Y282465D01*
X37650Y282460D01*
X37582Y282451D01*
X37523Y282442D01*
X37463Y282433D01*
X37459D01*
X37450Y282429D01*
X37436D01*
X37413Y282419D01*
X37386Y282415D01*
X37354Y282406D01*
X37281Y282383D01*
X37190Y282356D01*
X37086Y282315D01*
X36972Y282269D01*
X36854Y282215D01*
Y283407D01*
X36858D01*
X36876Y283416D01*
X36904Y283425D01*
X36945Y283439D01*
X36995Y283457D01*
X37054Y283480D01*
X37127Y283502D01*
X37209Y283525D01*
X37213D01*
X37227Y283530D01*
X37245Y283534D01*
X37268Y283543D01*
X37313Y283557D01*
X37331Y283561D01*
X37350Y283566D01*
X37345Y283571D01*
X37336Y283580D01*
X37322Y283598D01*
X37300Y283621D01*
X37277Y283648D01*
X37245Y283684D01*
X37213Y283721D01*
X37181Y283766D01*
X37108Y283862D01*
X37031Y283976D01*
X36963Y284099D01*
X36899Y284230D01*
Y284235D01*
X36895Y284244D01*
X36885Y284267D01*
X36876Y284290D01*
X36863Y284326D01*
X36854Y284362D01*
X36840Y284408D01*
X36826Y284453D01*
X36808Y284508D01*
X36794Y284567D01*
X36772Y284695D01*
X36754Y284836D01*
X36749Y284981D01*
Y285013D01*
X36754Y285049D01*
Y285099D01*
X36763Y285159D01*
X36767Y285227D01*
X36781Y285300D01*
X36799Y285386D01*
X36817Y285473D01*
X36845Y285563D01*
X36872Y285655D01*
X36908Y285746D01*
X36954Y285837D01*
X37004Y285928D01*
X37063Y286014D01*
X37131Y286091D01*
X37136Y286096D01*
X37149Y286109D01*
X37172Y286128D01*
X37200Y286155D01*
X37236Y286187D01*
X37281Y286219D01*
X37336Y286255D01*
X37395Y286292D01*
X37463Y286333D01*
X37536Y286369D01*
X37613Y286401D01*
X37700Y286433D01*
X37791Y286460D01*
X37887Y286478D01*
X37991Y286492D01*
X38096Y286496D01*
X38100D01*
X38114D01*
X38132D01*
X38159Y286492D01*
D02*
G37*
G36*
X43151Y280081D02*
X36854D01*
Y281287D01*
X43151D01*
Y280081D01*
D02*
G37*
G36*
Y277637D02*
X36854D01*
Y278843D01*
X43151D01*
Y277637D01*
D02*
G37*
G36*
X39174Y276750D02*
X39206D01*
X39242D01*
X39283Y276746D01*
X39379Y276736D01*
X39488Y276723D01*
X39611Y276705D01*
X39743Y276682D01*
X39884Y276650D01*
X40030Y276609D01*
X40175Y276564D01*
X40325Y276504D01*
X40471Y276436D01*
X40612Y276359D01*
X40744Y276268D01*
X40871Y276163D01*
X40880Y276154D01*
X40899Y276136D01*
X40931Y276104D01*
X40971Y276059D01*
X41021Y275999D01*
X41076Y275927D01*
X41135Y275845D01*
X41194Y275754D01*
X41254Y275649D01*
X41313Y275535D01*
X41367Y275413D01*
X41417Y275280D01*
X41458Y275139D01*
X41490Y274989D01*
X41508Y274830D01*
X41517Y274662D01*
Y274616D01*
X41513Y274593D01*
Y274566D01*
X41508Y274493D01*
X41499Y274407D01*
X41481Y274311D01*
X41463Y274198D01*
X41436Y274079D01*
X41399Y273956D01*
X41354Y273825D01*
X41299Y273693D01*
X41235Y273556D01*
X41158Y273424D01*
X41067Y273297D01*
X40962Y273174D01*
X40844Y273060D01*
X40835Y273056D01*
X40812Y273033D01*
X40771Y273006D01*
X40717Y272969D01*
X40644Y272924D01*
X40557Y272874D01*
X40453Y272824D01*
X40334Y272769D01*
X40198Y272714D01*
X40043Y272660D01*
X39875Y272614D01*
X39688Y272569D01*
X39488Y272537D01*
X39270Y272510D01*
X39033Y272496D01*
X38783Y272491D01*
Y275517D01*
X38778D01*
X38760D01*
X38733Y275513D01*
X38696D01*
X38651Y275508D01*
X38596Y275499D01*
X38542Y275490D01*
X38478Y275476D01*
X38342Y275444D01*
X38273Y275422D01*
X38205Y275394D01*
X38137Y275358D01*
X38069Y275322D01*
X38005Y275280D01*
X37946Y275231D01*
X37941Y275226D01*
X37932Y275217D01*
X37918Y275203D01*
X37900Y275181D01*
X37877Y275153D01*
X37850Y275117D01*
X37827Y275080D01*
X37800Y275035D01*
X37768Y274989D01*
X37745Y274935D01*
X37695Y274816D01*
X37677Y274748D01*
X37664Y274680D01*
X37655Y274607D01*
X37650Y274530D01*
Y274502D01*
X37655Y274480D01*
X37659Y274430D01*
X37668Y274361D01*
X37686Y274289D01*
X37714Y274207D01*
X37750Y274129D01*
X37800Y274052D01*
Y274047D01*
X37809Y274043D01*
X37832Y274020D01*
X37868Y273984D01*
X37923Y273943D01*
X37991Y273893D01*
X38078Y273843D01*
X38178Y273797D01*
X38301Y273756D01*
X38100Y272555D01*
X38091Y272560D01*
X38073Y272564D01*
X38037Y272578D01*
X37991Y272601D01*
X37937Y272623D01*
X37873Y272655D01*
X37800Y272692D01*
X37727Y272737D01*
X37645Y272783D01*
X37563Y272837D01*
X37477Y272901D01*
X37395Y272965D01*
X37313Y273037D01*
X37231Y273115D01*
X37159Y273201D01*
X37090Y273292D01*
X37086Y273297D01*
X37077Y273315D01*
X37058Y273342D01*
X37036Y273383D01*
X37013Y273433D01*
X36981Y273488D01*
X36954Y273561D01*
X36922Y273638D01*
X36890Y273724D01*
X36858Y273815D01*
X36826Y273920D01*
X36804Y274029D01*
X36781Y274148D01*
X36763Y274275D01*
X36754Y274407D01*
X36749Y274543D01*
Y274593D01*
X36754Y274625D01*
Y274657D01*
X36758Y274694D01*
X36763Y274739D01*
X36772Y274839D01*
X36790Y274948D01*
X36813Y275076D01*
X36845Y275212D01*
X36885Y275353D01*
X36940Y275499D01*
X36999Y275644D01*
X37077Y275790D01*
X37163Y275931D01*
X37268Y276063D01*
X37386Y276190D01*
X37523Y276304D01*
X37532Y276309D01*
X37550Y276323D01*
X37586Y276345D01*
X37636Y276373D01*
X37695Y276409D01*
X37768Y276445D01*
X37855Y276486D01*
X37955Y276527D01*
X38064Y276573D01*
X38182Y276614D01*
X38310Y276650D01*
X38451Y276682D01*
X38596Y276714D01*
X38756Y276736D01*
X38924Y276750D01*
X39097Y276755D01*
X39101D01*
X39110D01*
X39124D01*
X39147D01*
X39174Y276750D01*
D02*
G37*
G36*
X43151Y270303D02*
X36854D01*
Y271509D01*
X43151D01*
Y270303D01*
D02*
G37*
G36*
X40048Y266831D02*
X40093D01*
X40143Y266827D01*
X40203Y266822D01*
X40266Y266817D01*
X40334Y266813D01*
X40407Y266804D01*
X40485Y266795D01*
X40653Y266768D01*
X40835Y266736D01*
X41031Y266690D01*
X41231Y266640D01*
X41431Y266572D01*
X41636Y266494D01*
X41836Y266399D01*
X42027Y266294D01*
X42214Y266167D01*
X42300Y266099D01*
X42382Y266026D01*
X42386Y266021D01*
X42391Y266017D01*
X42405Y266003D01*
X42418Y265989D01*
X42464Y265944D01*
X42518Y265880D01*
X42587Y265798D01*
X42660Y265698D01*
X42737Y265584D01*
X42819Y265457D01*
X42901Y265312D01*
X42978Y265148D01*
X43055Y264975D01*
X43119Y264784D01*
X43174Y264579D01*
X43219Y264365D01*
X43246Y264133D01*
X43251Y264015D01*
X43255Y263892D01*
Y263842D01*
X43251Y263815D01*
Y263783D01*
X43246Y263742D01*
Y263701D01*
X43233Y263601D01*
X43219Y263492D01*
X43196Y263364D01*
X43169Y263228D01*
X43133Y263082D01*
X43087Y262927D01*
X43033Y262773D01*
X42964Y262613D01*
X42887Y262459D01*
X42796Y262304D01*
X42691Y262158D01*
X42568Y262017D01*
X42564Y262013D01*
X42550Y261999D01*
X42527Y261976D01*
X42496Y261949D01*
X42455Y261913D01*
X42400Y261872D01*
X42341Y261826D01*
X42273Y261776D01*
X42195Y261726D01*
X42109Y261671D01*
X42013Y261617D01*
X41913Y261562D01*
X41800Y261512D01*
X41681Y261462D01*
X41549Y261412D01*
X41413Y261371D01*
X41113Y262632D01*
X41117D01*
X41135Y262636D01*
X41158Y262645D01*
X41194Y262654D01*
X41235Y262668D01*
X41281Y262686D01*
X41335Y262709D01*
X41390Y262732D01*
X41513Y262795D01*
X41577Y262836D01*
X41640Y262877D01*
X41704Y262923D01*
X41768Y262977D01*
X41827Y263036D01*
X41881Y263100D01*
X41886Y263105D01*
X41895Y263114D01*
X41909Y263137D01*
X41927Y263164D01*
X41950Y263196D01*
X41972Y263237D01*
X42000Y263287D01*
X42027Y263337D01*
X42050Y263401D01*
X42077Y263464D01*
X42100Y263537D01*
X42123Y263610D01*
X42141Y263692D01*
X42154Y263778D01*
X42164Y263865D01*
X42168Y263960D01*
Y263992D01*
X42164Y264028D01*
X42159Y264074D01*
X42154Y264133D01*
X42141Y264201D01*
X42127Y264279D01*
X42104Y264361D01*
X42077Y264452D01*
X42045Y264543D01*
X42004Y264638D01*
X41954Y264734D01*
X41895Y264825D01*
X41831Y264920D01*
X41754Y265007D01*
X41663Y265093D01*
X41658Y265098D01*
X41640Y265111D01*
X41608Y265134D01*
X41568Y265161D01*
X41513Y265193D01*
X41445Y265230D01*
X41367Y265271D01*
X41272Y265307D01*
X41167Y265348D01*
X41044Y265389D01*
X40912Y265425D01*
X40767Y265457D01*
X40603Y265484D01*
X40430Y265507D01*
X40239Y265521D01*
X40034Y265525D01*
X40030D01*
X40020D01*
X40002D01*
X39984D01*
X39952D01*
X39920Y265521D01*
X39884D01*
X39838Y265516D01*
X39743Y265512D01*
X39629Y265503D01*
X39506Y265489D01*
X39374Y265471D01*
X39238Y265448D01*
X39097Y265421D01*
X38956Y265384D01*
X38815Y265343D01*
X38683Y265298D01*
X38555Y265239D01*
X38442Y265175D01*
X38337Y265098D01*
X38332Y265093D01*
X38314Y265079D01*
X38291Y265052D01*
X38260Y265020D01*
X38219Y264979D01*
X38178Y264925D01*
X38132Y264866D01*
X38087Y264797D01*
X38037Y264720D01*
X37991Y264638D01*
X37950Y264547D01*
X37909Y264447D01*
X37877Y264342D01*
X37855Y264229D01*
X37837Y264110D01*
X37832Y263983D01*
Y263933D01*
X37837Y263896D01*
X37841Y263856D01*
X37850Y263806D01*
X37859Y263746D01*
X37873Y263683D01*
X37887Y263619D01*
X37909Y263551D01*
X37937Y263478D01*
X37968Y263405D01*
X38005Y263328D01*
X38046Y263255D01*
X38096Y263182D01*
X38150Y263114D01*
X38155Y263109D01*
X38164Y263096D01*
X38187Y263077D01*
X38214Y263055D01*
X38246Y263023D01*
X38291Y262986D01*
X38342Y262950D01*
X38401Y262909D01*
X38464Y262868D01*
X38542Y262823D01*
X38624Y262777D01*
X38715Y262736D01*
X38819Y262695D01*
X38924Y262654D01*
X39042Y262618D01*
X39170Y262586D01*
X38778Y261353D01*
X38774D01*
X38765Y261357D01*
X38751Y261362D01*
X38733Y261367D01*
X38710Y261376D01*
X38678Y261385D01*
X38610Y261408D01*
X38524Y261439D01*
X38423Y261480D01*
X38314Y261526D01*
X38201Y261580D01*
X38078Y261640D01*
X37950Y261708D01*
X37823Y261785D01*
X37695Y261872D01*
X37573Y261967D01*
X37454Y262067D01*
X37345Y262181D01*
X37245Y262299D01*
X37240Y262309D01*
X37222Y262331D01*
X37200Y262368D01*
X37168Y262418D01*
X37131Y262481D01*
X37086Y262559D01*
X37040Y262650D01*
X36995Y262754D01*
X36949Y262868D01*
X36904Y262996D01*
X36863Y263132D01*
X36822Y263282D01*
X36790Y263437D01*
X36767Y263605D01*
X36749Y263783D01*
X36744Y263969D01*
Y264024D01*
X36749Y264056D01*
Y264092D01*
X36754Y264133D01*
X36758Y264178D01*
X36763Y264229D01*
X36772Y264283D01*
X36790Y264411D01*
X36817Y264547D01*
X36854Y264697D01*
X36895Y264857D01*
X36954Y265025D01*
X37022Y265193D01*
X37104Y265371D01*
X37204Y265539D01*
X37318Y265712D01*
X37382Y265794D01*
X37450Y265876D01*
X37523Y265953D01*
X37600Y266030D01*
X37604D01*
X37609Y266039D01*
X37623Y266049D01*
X37641Y266067D01*
X37664Y266085D01*
X37691Y266103D01*
X37723Y266130D01*
X37759Y266158D01*
X37800Y266185D01*
X37846Y266217D01*
X37896Y266249D01*
X37950Y266285D01*
X38073Y266358D01*
X38214Y266431D01*
X38373Y266508D01*
X38546Y266581D01*
X38742Y266649D01*
X38951Y266708D01*
X39174Y266763D01*
X39415Y266799D01*
X39670Y266827D01*
X39807Y266831D01*
X39943Y266836D01*
X39948D01*
X39961D01*
X39984D01*
X40011D01*
X40048Y266831D01*
D02*
G37*
G36*
X38159Y260584D02*
X38196D01*
X38232Y260579D01*
X38278Y260575D01*
X38328Y260566D01*
X38432Y260543D01*
X38551Y260511D01*
X38669Y260466D01*
X38783Y260407D01*
X38787Y260402D01*
X38796Y260398D01*
X38810Y260388D01*
X38833Y260370D01*
X38888Y260329D01*
X38956Y260270D01*
X39029Y260197D01*
X39106Y260111D01*
X39183Y260006D01*
X39247Y259888D01*
Y259883D01*
X39256Y259874D01*
X39265Y259852D01*
X39274Y259824D01*
X39288Y259792D01*
X39306Y259751D01*
X39324Y259701D01*
X39342Y259642D01*
X39365Y259578D01*
X39388Y259506D01*
X39411Y259428D01*
X39434Y259342D01*
X39461Y259251D01*
X39484Y259151D01*
X39506Y259042D01*
X39529Y258928D01*
Y258919D01*
X39538Y258891D01*
X39543Y258846D01*
X39556Y258791D01*
X39570Y258723D01*
X39588Y258641D01*
X39606Y258555D01*
X39625Y258464D01*
X39675Y258268D01*
X39725Y258077D01*
X39748Y257986D01*
X39775Y257899D01*
X39802Y257822D01*
X39829Y257754D01*
X39948D01*
X39952D01*
X39961D01*
X39979D01*
X40002Y257758D01*
X40034D01*
X40066Y257763D01*
X40139Y257777D01*
X40221Y257795D01*
X40303Y257827D01*
X40380Y257868D01*
X40412Y257895D01*
X40444Y257927D01*
X40448Y257936D01*
X40457Y257945D01*
X40466Y257963D01*
X40480Y257981D01*
X40489Y258009D01*
X40503Y258036D01*
X40521Y258072D01*
X40535Y258113D01*
X40548Y258163D01*
X40557Y258213D01*
X40571Y258273D01*
X40580Y258341D01*
X40589Y258414D01*
X40594Y258491D01*
Y258632D01*
X40589Y258659D01*
Y258691D01*
X40580Y258759D01*
X40562Y258841D01*
X40539Y258928D01*
X40507Y259010D01*
X40466Y259083D01*
X40462Y259092D01*
X40444Y259110D01*
X40407Y259146D01*
X40362Y259183D01*
X40303Y259228D01*
X40225Y259278D01*
X40130Y259324D01*
X40020Y259369D01*
X40216Y260466D01*
X40225Y260461D01*
X40243Y260457D01*
X40280Y260448D01*
X40325Y260429D01*
X40380Y260411D01*
X40444Y260384D01*
X40512Y260352D01*
X40585Y260320D01*
X40667Y260279D01*
X40744Y260229D01*
X40826Y260179D01*
X40908Y260120D01*
X40985Y260061D01*
X41062Y259988D01*
X41131Y259915D01*
X41194Y259833D01*
X41199Y259829D01*
X41208Y259811D01*
X41226Y259783D01*
X41244Y259747D01*
X41267Y259701D01*
X41295Y259642D01*
X41326Y259574D01*
X41358Y259492D01*
X41385Y259406D01*
X41417Y259306D01*
X41445Y259192D01*
X41467Y259073D01*
X41486Y258942D01*
X41504Y258801D01*
X41513Y258650D01*
X41517Y258487D01*
Y258409D01*
X41513Y258355D01*
Y258286D01*
X41508Y258209D01*
X41504Y258122D01*
X41495Y258032D01*
X41486Y257936D01*
X41472Y257836D01*
X41436Y257636D01*
X41417Y257540D01*
X41390Y257445D01*
X41358Y257358D01*
X41326Y257281D01*
Y257276D01*
X41317Y257263D01*
X41308Y257244D01*
X41290Y257217D01*
X41272Y257185D01*
X41249Y257149D01*
X41194Y257062D01*
X41122Y256971D01*
X41040Y256880D01*
X40944Y256794D01*
X40894Y256757D01*
X40839Y256726D01*
X40835D01*
X40826Y256717D01*
X40808Y256712D01*
X40780Y256698D01*
X40749Y256689D01*
X40703Y256676D01*
X40653Y256657D01*
X40594Y256644D01*
X40525Y256630D01*
X40444Y256612D01*
X40357Y256598D01*
X40257Y256589D01*
X40148Y256575D01*
X40030Y256571D01*
X39898Y256562D01*
X39757D01*
X38351Y256580D01*
X38346D01*
X38323D01*
X38291D01*
X38250D01*
X38201D01*
X38146Y256575D01*
X38082D01*
X38014Y256571D01*
X37868Y256566D01*
X37723Y256557D01*
X37650Y256553D01*
X37582Y256544D01*
X37523Y256535D01*
X37463Y256525D01*
X37459D01*
X37450Y256521D01*
X37436D01*
X37413Y256512D01*
X37386Y256507D01*
X37354Y256498D01*
X37281Y256475D01*
X37190Y256448D01*
X37086Y256407D01*
X36972Y256362D01*
X36854Y256307D01*
Y257499D01*
X36858D01*
X36876Y257508D01*
X36904Y257517D01*
X36945Y257531D01*
X36995Y257549D01*
X37054Y257572D01*
X37127Y257595D01*
X37209Y257617D01*
X37213D01*
X37227Y257622D01*
X37245Y257627D01*
X37268Y257636D01*
X37313Y257649D01*
X37331Y257654D01*
X37350Y257658D01*
X37345Y257663D01*
X37336Y257672D01*
X37322Y257690D01*
X37300Y257713D01*
X37277Y257740D01*
X37245Y257777D01*
X37213Y257813D01*
X37181Y257859D01*
X37108Y257954D01*
X37031Y258068D01*
X36963Y258191D01*
X36899Y258323D01*
Y258327D01*
X36895Y258336D01*
X36885Y258359D01*
X36876Y258382D01*
X36863Y258418D01*
X36854Y258455D01*
X36840Y258500D01*
X36826Y258546D01*
X36808Y258600D01*
X36794Y258659D01*
X36772Y258787D01*
X36754Y258928D01*
X36749Y259073D01*
Y259105D01*
X36754Y259142D01*
Y259192D01*
X36763Y259251D01*
X36767Y259319D01*
X36781Y259392D01*
X36799Y259478D01*
X36817Y259565D01*
X36845Y259656D01*
X36872Y259747D01*
X36908Y259838D01*
X36954Y259929D01*
X37004Y260020D01*
X37063Y260106D01*
X37131Y260184D01*
X37136Y260188D01*
X37149Y260202D01*
X37172Y260220D01*
X37200Y260247D01*
X37236Y260279D01*
X37281Y260311D01*
X37336Y260347D01*
X37395Y260384D01*
X37463Y260425D01*
X37536Y260461D01*
X37613Y260493D01*
X37700Y260525D01*
X37791Y260552D01*
X37887Y260570D01*
X37991Y260584D01*
X38096Y260589D01*
X38100D01*
X38114D01*
X38132D01*
X38159Y260584D01*
D02*
G37*
G36*
X43151Y254228D02*
X40880D01*
X40889Y254223D01*
X40908Y254200D01*
X40940Y254173D01*
X40980Y254128D01*
X41031Y254078D01*
X41081Y254014D01*
X41140Y253937D01*
X41199Y253855D01*
X41258Y253764D01*
X41317Y253663D01*
X41372Y253554D01*
X41417Y253436D01*
X41458Y253313D01*
X41490Y253186D01*
X41508Y253049D01*
X41517Y252908D01*
Y252872D01*
X41513Y252826D01*
X41508Y252767D01*
X41499Y252699D01*
X41486Y252612D01*
X41467Y252521D01*
X41440Y252421D01*
X41408Y252312D01*
X41372Y252203D01*
X41322Y252089D01*
X41263Y251971D01*
X41194Y251857D01*
X41113Y251739D01*
X41017Y251630D01*
X40912Y251525D01*
X40903Y251520D01*
X40885Y251502D01*
X40849Y251475D01*
X40799Y251438D01*
X40739Y251398D01*
X40662Y251352D01*
X40571Y251302D01*
X40471Y251252D01*
X40353Y251202D01*
X40225Y251152D01*
X40080Y251106D01*
X39925Y251065D01*
X39757Y251029D01*
X39579Y251002D01*
X39384Y250984D01*
X39179Y250979D01*
X39174D01*
X39165D01*
X39151D01*
X39129D01*
X39101D01*
X39065Y250984D01*
X39029D01*
X38988Y250988D01*
X38888Y250997D01*
X38774Y251006D01*
X38651Y251025D01*
X38514Y251047D01*
X38373Y251079D01*
X38223Y251115D01*
X38073Y251161D01*
X37927Y251216D01*
X37777Y251279D01*
X37636Y251352D01*
X37500Y251438D01*
X37377Y251539D01*
X37368Y251543D01*
X37350Y251566D01*
X37318Y251593D01*
X37277Y251639D01*
X37231Y251693D01*
X37177Y251757D01*
X37122Y251830D01*
X37063Y251916D01*
X37004Y252007D01*
X36949Y252112D01*
X36895Y252226D01*
X36849Y252344D01*
X36808Y252471D01*
X36776Y252603D01*
X36758Y252744D01*
X36749Y252890D01*
Y252926D01*
X36754Y252958D01*
Y252990D01*
X36758Y253036D01*
X36767Y253081D01*
X36772Y253131D01*
X36799Y253249D01*
X36831Y253381D01*
X36881Y253522D01*
X36908Y253591D01*
X36945Y253663D01*
X36949Y253668D01*
X36954Y253682D01*
X36967Y253700D01*
X36981Y253727D01*
X37004Y253759D01*
X37027Y253795D01*
X37058Y253841D01*
X37090Y253887D01*
X37172Y253987D01*
X37272Y254096D01*
X37386Y254209D01*
X37523Y254314D01*
X36854D01*
Y255433D01*
X43151D01*
Y254228D01*
D02*
G37*
G36*
Y248799D02*
X36854D01*
Y250005D01*
X43151D01*
Y248799D01*
D02*
G37*
G36*
X39174Y247912D02*
X39206D01*
X39242D01*
X39283Y247908D01*
X39379Y247899D01*
X39488Y247885D01*
X39611Y247867D01*
X39743Y247844D01*
X39884Y247812D01*
X40030Y247771D01*
X40175Y247726D01*
X40325Y247667D01*
X40471Y247598D01*
X40612Y247521D01*
X40744Y247430D01*
X40871Y247325D01*
X40880Y247316D01*
X40899Y247298D01*
X40931Y247266D01*
X40971Y247221D01*
X41021Y247162D01*
X41076Y247089D01*
X41135Y247007D01*
X41194Y246916D01*
X41254Y246811D01*
X41313Y246697D01*
X41367Y246575D01*
X41417Y246443D01*
X41458Y246302D01*
X41490Y246151D01*
X41508Y245992D01*
X41517Y245824D01*
Y245778D01*
X41513Y245756D01*
Y245728D01*
X41508Y245655D01*
X41499Y245569D01*
X41481Y245474D01*
X41463Y245360D01*
X41436Y245241D01*
X41399Y245119D01*
X41354Y244987D01*
X41299Y244855D01*
X41235Y244718D01*
X41158Y244586D01*
X41067Y244459D01*
X40962Y244336D01*
X40844Y244222D01*
X40835Y244218D01*
X40812Y244195D01*
X40771Y244168D01*
X40717Y244131D01*
X40644Y244086D01*
X40557Y244036D01*
X40453Y243986D01*
X40334Y243931D01*
X40198Y243877D01*
X40043Y243822D01*
X39875Y243776D01*
X39688Y243731D01*
X39488Y243699D01*
X39270Y243672D01*
X39033Y243658D01*
X38783Y243653D01*
Y246679D01*
X38778D01*
X38760D01*
X38733Y246675D01*
X38696D01*
X38651Y246670D01*
X38596Y246661D01*
X38542Y246652D01*
X38478Y246638D01*
X38342Y246606D01*
X38273Y246584D01*
X38205Y246556D01*
X38137Y246520D01*
X38069Y246484D01*
X38005Y246443D01*
X37946Y246393D01*
X37941Y246388D01*
X37932Y246379D01*
X37918Y246365D01*
X37900Y246342D01*
X37877Y246315D01*
X37850Y246279D01*
X37827Y246242D01*
X37800Y246197D01*
X37768Y246151D01*
X37745Y246097D01*
X37695Y245978D01*
X37677Y245910D01*
X37664Y245842D01*
X37655Y245769D01*
X37650Y245692D01*
Y245665D01*
X37655Y245642D01*
X37659Y245592D01*
X37668Y245524D01*
X37686Y245451D01*
X37714Y245369D01*
X37750Y245291D01*
X37800Y245214D01*
Y245210D01*
X37809Y245205D01*
X37832Y245182D01*
X37868Y245146D01*
X37923Y245105D01*
X37991Y245055D01*
X38078Y245005D01*
X38178Y244959D01*
X38301Y244918D01*
X38100Y243717D01*
X38091Y243722D01*
X38073Y243726D01*
X38037Y243740D01*
X37991Y243763D01*
X37937Y243785D01*
X37873Y243817D01*
X37800Y243854D01*
X37727Y243899D01*
X37645Y243945D01*
X37563Y243999D01*
X37477Y244063D01*
X37395Y244127D01*
X37313Y244199D01*
X37231Y244277D01*
X37159Y244363D01*
X37090Y244454D01*
X37086Y244459D01*
X37077Y244477D01*
X37058Y244504D01*
X37036Y244545D01*
X37013Y244595D01*
X36981Y244650D01*
X36954Y244723D01*
X36922Y244800D01*
X36890Y244886D01*
X36858Y244978D01*
X36826Y245082D01*
X36804Y245191D01*
X36781Y245310D01*
X36763Y245437D01*
X36754Y245569D01*
X36749Y245706D01*
Y245756D01*
X36754Y245787D01*
Y245819D01*
X36758Y245856D01*
X36763Y245901D01*
X36772Y246001D01*
X36790Y246111D01*
X36813Y246238D01*
X36845Y246374D01*
X36885Y246515D01*
X36940Y246661D01*
X36999Y246807D01*
X37077Y246952D01*
X37163Y247093D01*
X37268Y247225D01*
X37386Y247353D01*
X37523Y247466D01*
X37532Y247471D01*
X37550Y247485D01*
X37586Y247507D01*
X37636Y247535D01*
X37695Y247571D01*
X37768Y247607D01*
X37855Y247648D01*
X37955Y247689D01*
X38064Y247735D01*
X38182Y247776D01*
X38310Y247812D01*
X38451Y247844D01*
X38596Y247876D01*
X38756Y247899D01*
X38924Y247912D01*
X39097Y247917D01*
X39101D01*
X39110D01*
X39124D01*
X39147D01*
X39174Y247912D01*
D02*
G37*
G36*
X5070Y265192D02*
X5111D01*
X5162Y265186D01*
X5223Y265181D01*
X5291Y265173D01*
X5364Y265164D01*
X5444Y265151D01*
X5528Y265134D01*
X5616Y265115D01*
X5703Y265091D01*
X5793Y265063D01*
X5883Y265031D01*
X5973Y264992D01*
X6061Y264949D01*
X6066Y264946D01*
X6080Y264938D01*
X6104Y264921D01*
X6137Y264902D01*
X6175Y264878D01*
X6219Y264845D01*
X6268Y264807D01*
X6320Y264766D01*
X6377Y264717D01*
X6435Y264662D01*
X6492Y264605D01*
X6552Y264539D01*
X6609Y264468D01*
X6664Y264392D01*
X6716Y264313D01*
X6765Y264225D01*
X6768Y264220D01*
X6773Y264209D01*
X6781Y264187D01*
X6795Y264160D01*
X6809Y264124D01*
X6825Y264081D01*
X6841Y264031D01*
X6860Y263977D01*
X6877Y263914D01*
X6893Y263843D01*
X6910Y263769D01*
X6923Y263690D01*
X6937Y263605D01*
X6945Y263513D01*
X6951Y263417D01*
X6953Y263319D01*
Y263272D01*
X6951Y263251D01*
Y263229D01*
X6948Y263204D01*
X6945Y263144D01*
X6937Y263076D01*
X6929Y262999D01*
X6915Y262917D01*
X6901Y262833D01*
X6880Y262743D01*
X6858Y262650D01*
X6828Y262560D01*
X6795Y262470D01*
X6754Y262383D01*
X6708Y262298D01*
X6656Y262221D01*
X6653Y262216D01*
X6642Y262205D01*
X6626Y262183D01*
X6601Y262159D01*
X6571Y262126D01*
X6536Y262090D01*
X6492Y262049D01*
X6443Y262008D01*
X6388Y261965D01*
X6328Y261924D01*
X6260Y261880D01*
X6189Y261839D01*
X6110Y261801D01*
X6025Y261766D01*
X5938Y261735D01*
X5842Y261711D01*
X5700Y262467D01*
X5703D01*
X5711Y262470D01*
X5728Y262475D01*
X5747Y262484D01*
X5768Y262492D01*
X5796Y262505D01*
X5826Y262519D01*
X5859Y262535D01*
X5891Y262554D01*
X5927Y262576D01*
X5965Y262601D01*
X6001Y262628D01*
X6036Y262661D01*
X6072Y262694D01*
X6107Y262729D01*
X6137Y262770D01*
X6140Y262773D01*
X6145Y262781D01*
X6153Y262792D01*
X6162Y262808D01*
X6175Y262830D01*
X6189Y262858D01*
X6203Y262888D01*
X6219Y262920D01*
X6235Y262959D01*
X6249Y262999D01*
X6263Y263046D01*
X6276Y263095D01*
X6284Y263144D01*
X6293Y263201D01*
X6298Y263259D01*
X6301Y263319D01*
Y263341D01*
X6298Y263368D01*
X6295Y263401D01*
X6290Y263444D01*
X6284Y263494D01*
X6273Y263545D01*
X6260Y263605D01*
X6244Y263668D01*
X6222Y263731D01*
X6197Y263799D01*
X6167Y263865D01*
X6129Y263930D01*
X6088Y263993D01*
X6039Y264056D01*
X5981Y264113D01*
X5979Y264116D01*
X5968Y264127D01*
X5949Y264141D01*
X5921Y264160D01*
X5889Y264181D01*
X5848Y264206D01*
X5801Y264233D01*
X5747Y264261D01*
X5684Y264288D01*
X5613Y264315D01*
X5536Y264340D01*
X5452Y264362D01*
X5359Y264381D01*
X5261Y264394D01*
X5154Y264405D01*
X5042Y264408D01*
X5040D01*
X5034D01*
X5026D01*
X5012D01*
X4996D01*
X4980Y264405D01*
X4958D01*
X4933Y264403D01*
X4876Y264400D01*
X4813Y264392D01*
X4742Y264384D01*
X4666Y264370D01*
X4584Y264356D01*
X4502Y264334D01*
X4417Y264313D01*
X4335Y264282D01*
X4253Y264250D01*
X4174Y264209D01*
X4101Y264162D01*
X4035Y264111D01*
X4032Y264108D01*
X4021Y264097D01*
X4005Y264081D01*
X3983Y264056D01*
X3959Y264026D01*
X3929Y263990D01*
X3898Y263947D01*
X3868Y263900D01*
X3836Y263846D01*
X3806Y263788D01*
X3778Y263723D01*
X3751Y263652D01*
X3729Y263578D01*
X3713Y263499D01*
X3702Y263414D01*
X3699Y263327D01*
Y263302D01*
X3702Y263286D01*
Y263264D01*
X3705Y263237D01*
X3707Y263210D01*
X3710Y263177D01*
X3715Y263141D01*
X3721Y263103D01*
X3737Y263024D01*
X3762Y262937D01*
X3792Y262847D01*
Y262844D01*
X3797Y262836D01*
X3800Y262822D01*
X3808Y262806D01*
X3816Y262787D01*
X3827Y262762D01*
X3841Y262735D01*
X3855Y262705D01*
X3887Y262639D01*
X3926Y262571D01*
X3969Y262500D01*
X4019Y262432D01*
X4499D01*
Y263305D01*
X5138D01*
Y261662D01*
X3631D01*
X3628Y261665D01*
X3620Y261673D01*
X3609Y261686D01*
X3593Y261705D01*
X3571Y261730D01*
X3549Y261763D01*
X3522Y261798D01*
X3492Y261839D01*
X3462Y261886D01*
X3429Y261937D01*
X3396Y261995D01*
X3361Y262058D01*
X3325Y262123D01*
X3290Y262197D01*
X3254Y262276D01*
X3221Y262358D01*
X3219Y262363D01*
X3213Y262377D01*
X3205Y262402D01*
X3194Y262437D01*
X3181Y262478D01*
X3167Y262527D01*
X3150Y262582D01*
X3134Y262642D01*
X3118Y262710D01*
X3101Y262781D01*
X3088Y262858D01*
X3074Y262937D01*
X3063Y263019D01*
X3055Y263103D01*
X3049Y263191D01*
X3047Y263278D01*
Y263319D01*
X3049Y263335D01*
Y263376D01*
X3055Y263428D01*
X3060Y263488D01*
X3069Y263556D01*
X3077Y263630D01*
X3090Y263709D01*
X3107Y263791D01*
X3129Y263876D01*
X3150Y263963D01*
X3181Y264053D01*
X3213Y264141D01*
X3251Y264228D01*
X3295Y264313D01*
X3298Y264318D01*
X3306Y264332D01*
X3322Y264353D01*
X3342Y264384D01*
X3366Y264422D01*
X3399Y264463D01*
X3434Y264509D01*
X3478Y264561D01*
X3524Y264613D01*
X3576Y264668D01*
X3636Y264722D01*
X3699Y264777D01*
X3767Y264831D01*
X3841Y264880D01*
X3920Y264930D01*
X4005Y264973D01*
X4010Y264976D01*
X4027Y264981D01*
X4051Y264992D01*
X4087Y265009D01*
X4131Y265025D01*
X4180Y265044D01*
X4240Y265063D01*
X4305Y265082D01*
X4376Y265104D01*
X4455Y265123D01*
X4537Y265142D01*
X4625Y265159D01*
X4717Y265173D01*
X4813Y265183D01*
X4911Y265192D01*
X5012Y265194D01*
X5015D01*
X5018D01*
X5029D01*
X5040D01*
X5053D01*
X5070Y265192D01*
D02*
G37*
G36*
X6891Y259625D02*
X6888Y259568D01*
Y259505D01*
X6885Y259437D01*
X6882Y259363D01*
X6877Y259210D01*
X6871Y259134D01*
X6866Y259060D01*
X6860Y258992D01*
X6852Y258929D01*
X6844Y258874D01*
X6839Y258853D01*
X6833Y258831D01*
Y258828D01*
X6828Y258817D01*
X6822Y258798D01*
X6817Y258776D01*
X6806Y258749D01*
X6792Y258716D01*
X6776Y258681D01*
X6754Y258640D01*
X6732Y258599D01*
X6705Y258555D01*
X6675Y258511D01*
X6642Y258465D01*
X6604Y258418D01*
X6560Y258372D01*
X6514Y258328D01*
X6462Y258288D01*
X6459Y258285D01*
X6448Y258277D01*
X6432Y258266D01*
X6410Y258252D01*
X6383Y258236D01*
X6347Y258217D01*
X6309Y258197D01*
X6263Y258175D01*
X6213Y258156D01*
X6159Y258137D01*
X6099Y258118D01*
X6033Y258102D01*
X5962Y258085D01*
X5889Y258074D01*
X5809Y258069D01*
X5728Y258066D01*
X5725D01*
X5711D01*
X5695D01*
X5670Y258069D01*
X5640D01*
X5605Y258072D01*
X5567Y258077D01*
X5523Y258083D01*
X5479Y258088D01*
X5430Y258096D01*
X5332Y258121D01*
X5233Y258151D01*
X5187Y258173D01*
X5141Y258195D01*
X5138Y258197D01*
X5130Y258200D01*
X5119Y258208D01*
X5102Y258217D01*
X5083Y258230D01*
X5059Y258244D01*
X5007Y258282D01*
X4947Y258328D01*
X4884Y258383D01*
X4824Y258446D01*
X4769Y258514D01*
X4767Y258517D01*
X4764Y258522D01*
X4756Y258533D01*
X4747Y258547D01*
X4736Y258566D01*
X4723Y258585D01*
X4709Y258610D01*
X4696Y258637D01*
X4666Y258697D01*
X4636Y258763D01*
X4608Y258834D01*
X4589Y258910D01*
Y258913D01*
X4586Y258924D01*
X4584Y258937D01*
X4581Y258962D01*
X4578Y258989D01*
X4573Y259025D01*
X4567Y259063D01*
X4565Y259112D01*
X4559Y259164D01*
X4554Y259221D01*
X4548Y259287D01*
X4546Y259358D01*
X4543Y259434D01*
X4540Y259516D01*
X4537Y259606D01*
Y260196D01*
X3112D01*
Y260957D01*
X6891D01*
Y259625D01*
D02*
G37*
G36*
Y256701D02*
X3112D01*
Y257463D01*
X6891D01*
Y256701D01*
D02*
G37*
G36*
Y254348D02*
X6888Y254307D01*
Y254261D01*
X6885Y254209D01*
X6882Y254100D01*
X6874Y253990D01*
X6871Y253936D01*
X6866Y253884D01*
X6858Y253838D01*
X6852Y253794D01*
Y253791D01*
X6850Y253783D01*
X6847Y253772D01*
X6844Y253756D01*
X6839Y253736D01*
X6833Y253715D01*
X6828Y253690D01*
X6820Y253660D01*
X6798Y253600D01*
X6770Y253535D01*
X6735Y253466D01*
X6694Y253398D01*
Y253395D01*
X6689Y253390D01*
X6683Y253382D01*
X6672Y253368D01*
X6647Y253338D01*
X6612Y253297D01*
X6566Y253251D01*
X6511Y253202D01*
X6451Y253155D01*
X6380Y253109D01*
X6377Y253106D01*
X6372Y253103D01*
X6361Y253098D01*
X6345Y253089D01*
X6328Y253081D01*
X6306Y253070D01*
X6279Y253060D01*
X6252Y253049D01*
X6219Y253038D01*
X6186Y253029D01*
X6110Y253010D01*
X6028Y252997D01*
X5984Y252991D01*
X5938D01*
X5935D01*
X5927D01*
X5913D01*
X5894Y252994D01*
X5869Y252997D01*
X5842Y252999D01*
X5812Y253002D01*
X5777Y253010D01*
X5703Y253027D01*
X5621Y253051D01*
X5580Y253068D01*
X5536Y253087D01*
X5493Y253111D01*
X5452Y253136D01*
X5449Y253139D01*
X5441Y253141D01*
X5430Y253150D01*
X5416Y253161D01*
X5397Y253177D01*
X5375Y253193D01*
X5353Y253215D01*
X5326Y253237D01*
X5302Y253264D01*
X5274Y253292D01*
X5217Y253357D01*
X5165Y253433D01*
X5119Y253521D01*
Y253518D01*
X5113Y253504D01*
X5108Y253488D01*
X5100Y253464D01*
X5089Y253436D01*
X5075Y253403D01*
X5059Y253365D01*
X5040Y253324D01*
X5018Y253283D01*
X4993Y253240D01*
X4963Y253196D01*
X4933Y253152D01*
X4900Y253109D01*
X4862Y253068D01*
X4821Y253027D01*
X4778Y252991D01*
X4775Y252989D01*
X4767Y252983D01*
X4753Y252975D01*
X4734Y252961D01*
X4712Y252948D01*
X4685Y252931D01*
X4652Y252915D01*
X4616Y252898D01*
X4575Y252882D01*
X4532Y252863D01*
X4485Y252849D01*
X4434Y252836D01*
X4382Y252822D01*
X4324Y252814D01*
X4267Y252808D01*
X4207Y252806D01*
X4204D01*
X4196D01*
X4182D01*
X4163Y252808D01*
X4139D01*
X4114Y252811D01*
X4081Y252817D01*
X4049Y252819D01*
X4010Y252828D01*
X3972Y252836D01*
X3887Y252857D01*
X3797Y252885D01*
X3751Y252904D01*
X3705Y252926D01*
X3702D01*
X3694Y252931D01*
X3680Y252939D01*
X3664Y252948D01*
X3645Y252958D01*
X3620Y252975D01*
X3565Y253010D01*
X3503Y253060D01*
X3437Y253114D01*
X3374Y253180D01*
X3314Y253253D01*
X3311Y253256D01*
X3309Y253261D01*
X3301Y253275D01*
X3292Y253292D01*
X3279Y253311D01*
X3268Y253335D01*
X3251Y253362D01*
X3238Y253395D01*
X3221Y253431D01*
X3208Y253469D01*
X3191Y253513D01*
X3178Y253556D01*
X3164Y253606D01*
X3153Y253657D01*
X3137Y253767D01*
Y253775D01*
X3134Y253788D01*
Y253807D01*
X3131Y253832D01*
X3129Y253865D01*
Y253903D01*
X3126Y253952D01*
X3123Y254010D01*
X3120Y254075D01*
Y254149D01*
X3118Y254233D01*
Y254280D01*
X3115Y254329D01*
Y254438D01*
X3112Y254496D01*
Y255970D01*
X6891D01*
Y254348D01*
D02*
G37*
G36*
X5029Y290616D02*
X5056D01*
X5086Y290613D01*
X5122Y290611D01*
X5160Y290608D01*
X5201Y290605D01*
X5244Y290600D01*
X5291Y290594D01*
X5392Y290578D01*
X5501Y290559D01*
X5618Y290531D01*
X5739Y290501D01*
X5859Y290460D01*
X5981Y290414D01*
X6102Y290357D01*
X6216Y290294D01*
X6328Y290218D01*
X6380Y290177D01*
X6429Y290133D01*
X6432Y290130D01*
X6435Y290127D01*
X6443Y290119D01*
X6451Y290111D01*
X6478Y290084D01*
X6511Y290046D01*
X6552Y289996D01*
X6596Y289936D01*
X6642Y289868D01*
X6691Y289792D01*
X6740Y289704D01*
X6787Y289606D01*
X6833Y289502D01*
X6871Y289388D01*
X6904Y289265D01*
X6932Y289137D01*
X6948Y288997D01*
X6951Y288926D01*
X6953Y288853D01*
Y288823D01*
X6951Y288806D01*
Y288787D01*
X6948Y288762D01*
Y288738D01*
X6940Y288678D01*
X6932Y288612D01*
X6918Y288536D01*
X6901Y288454D01*
X6880Y288367D01*
X6852Y288274D01*
X6820Y288181D01*
X6779Y288085D01*
X6732Y287993D01*
X6678Y287900D01*
X6615Y287812D01*
X6541Y287728D01*
X6538Y287725D01*
X6530Y287717D01*
X6516Y287703D01*
X6497Y287687D01*
X6473Y287665D01*
X6440Y287640D01*
X6405Y287613D01*
X6364Y287583D01*
X6317Y287553D01*
X6265Y287520D01*
X6208Y287488D01*
X6148Y287455D01*
X6080Y287425D01*
X6009Y287395D01*
X5930Y287365D01*
X5848Y287340D01*
X5667Y288096D01*
X5670D01*
X5681Y288099D01*
X5695Y288105D01*
X5717Y288110D01*
X5741Y288118D01*
X5768Y288129D01*
X5801Y288143D01*
X5834Y288156D01*
X5908Y288195D01*
X5946Y288219D01*
X5984Y288244D01*
X6022Y288271D01*
X6061Y288304D01*
X6096Y288339D01*
X6129Y288377D01*
X6132Y288380D01*
X6137Y288386D01*
X6145Y288399D01*
X6156Y288416D01*
X6170Y288435D01*
X6183Y288459D01*
X6200Y288490D01*
X6216Y288520D01*
X6230Y288558D01*
X6246Y288596D01*
X6260Y288640D01*
X6273Y288683D01*
X6284Y288732D01*
X6293Y288784D01*
X6298Y288836D01*
X6301Y288894D01*
Y288913D01*
X6298Y288934D01*
X6295Y288962D01*
X6293Y288997D01*
X6284Y289038D01*
X6276Y289085D01*
X6263Y289134D01*
X6246Y289188D01*
X6227Y289243D01*
X6203Y289300D01*
X6173Y289358D01*
X6137Y289412D01*
X6099Y289470D01*
X6052Y289521D01*
X5998Y289573D01*
X5995Y289576D01*
X5984Y289584D01*
X5965Y289598D01*
X5940Y289614D01*
X5908Y289633D01*
X5867Y289655D01*
X5820Y289680D01*
X5763Y289702D01*
X5700Y289726D01*
X5627Y289751D01*
X5547Y289773D01*
X5460Y289792D01*
X5362Y289808D01*
X5258Y289822D01*
X5143Y289830D01*
X5020Y289833D01*
X5018D01*
X5012D01*
X5001D01*
X4990D01*
X4971D01*
X4952Y289830D01*
X4930D01*
X4903Y289827D01*
X4846Y289824D01*
X4778Y289819D01*
X4704Y289811D01*
X4625Y289800D01*
X4543Y289786D01*
X4458Y289770D01*
X4374Y289748D01*
X4289Y289723D01*
X4210Y289696D01*
X4133Y289661D01*
X4065Y289622D01*
X4002Y289576D01*
X3999Y289573D01*
X3988Y289565D01*
X3975Y289549D01*
X3956Y289530D01*
X3931Y289505D01*
X3907Y289472D01*
X3879Y289437D01*
X3852Y289396D01*
X3822Y289349D01*
X3795Y289300D01*
X3770Y289246D01*
X3746Y289186D01*
X3726Y289123D01*
X3713Y289055D01*
X3702Y288984D01*
X3699Y288907D01*
Y288877D01*
X3702Y288855D01*
X3705Y288831D01*
X3710Y288801D01*
X3715Y288765D01*
X3724Y288727D01*
X3732Y288689D01*
X3746Y288648D01*
X3762Y288604D01*
X3781Y288560D01*
X3803Y288514D01*
X3827Y288470D01*
X3858Y288427D01*
X3890Y288386D01*
X3893Y288383D01*
X3898Y288375D01*
X3912Y288364D01*
X3929Y288350D01*
X3948Y288331D01*
X3975Y288309D01*
X4005Y288287D01*
X4040Y288263D01*
X4079Y288238D01*
X4125Y288211D01*
X4174Y288184D01*
X4229Y288159D01*
X4292Y288135D01*
X4354Y288110D01*
X4425Y288088D01*
X4502Y288069D01*
X4267Y287329D01*
X4264D01*
X4259Y287332D01*
X4251Y287335D01*
X4240Y287337D01*
X4226Y287343D01*
X4207Y287348D01*
X4166Y287362D01*
X4114Y287381D01*
X4054Y287406D01*
X3988Y287433D01*
X3920Y287466D01*
X3847Y287501D01*
X3770Y287542D01*
X3694Y287589D01*
X3617Y287640D01*
X3543Y287698D01*
X3473Y287758D01*
X3407Y287826D01*
X3347Y287897D01*
X3344Y287902D01*
X3333Y287916D01*
X3320Y287938D01*
X3301Y287968D01*
X3279Y288006D01*
X3251Y288053D01*
X3224Y288107D01*
X3197Y288170D01*
X3170Y288238D01*
X3142Y288315D01*
X3118Y288397D01*
X3093Y288487D01*
X3074Y288580D01*
X3060Y288681D01*
X3049Y288787D01*
X3047Y288899D01*
Y288932D01*
X3049Y288951D01*
Y288973D01*
X3052Y288997D01*
X3055Y289024D01*
X3058Y289055D01*
X3063Y289087D01*
X3074Y289164D01*
X3090Y289246D01*
X3112Y289336D01*
X3137Y289431D01*
X3172Y289532D01*
X3213Y289633D01*
X3262Y289740D01*
X3322Y289841D01*
X3391Y289945D01*
X3429Y289994D01*
X3470Y290043D01*
X3514Y290089D01*
X3560Y290136D01*
X3563D01*
X3565Y290141D01*
X3574Y290147D01*
X3585Y290158D01*
X3598Y290168D01*
X3615Y290179D01*
X3634Y290196D01*
X3655Y290212D01*
X3680Y290229D01*
X3707Y290248D01*
X3737Y290267D01*
X3770Y290288D01*
X3844Y290332D01*
X3929Y290376D01*
X4024Y290422D01*
X4128Y290466D01*
X4245Y290507D01*
X4371Y290542D01*
X4504Y290575D01*
X4649Y290597D01*
X4802Y290613D01*
X4884Y290616D01*
X4966Y290619D01*
X4969D01*
X4977D01*
X4990D01*
X5007D01*
X5029Y290616D01*
D02*
G37*
G36*
X6891Y285050D02*
X6888Y285009D01*
Y284962D01*
X6885Y284910D01*
X6882Y284801D01*
X6874Y284692D01*
X6871Y284637D01*
X6866Y284586D01*
X6858Y284539D01*
X6852Y284495D01*
Y284493D01*
X6850Y284485D01*
X6847Y284474D01*
X6844Y284457D01*
X6839Y284438D01*
X6833Y284416D01*
X6828Y284392D01*
X6820Y284362D01*
X6798Y284302D01*
X6770Y284236D01*
X6735Y284168D01*
X6694Y284100D01*
Y284097D01*
X6689Y284091D01*
X6683Y284083D01*
X6672Y284070D01*
X6647Y284040D01*
X6612Y283999D01*
X6566Y283952D01*
X6511Y283903D01*
X6451Y283857D01*
X6380Y283810D01*
X6377Y283807D01*
X6372Y283805D01*
X6361Y283799D01*
X6345Y283791D01*
X6328Y283783D01*
X6306Y283772D01*
X6279Y283761D01*
X6252Y283750D01*
X6219Y283739D01*
X6186Y283731D01*
X6110Y283712D01*
X6028Y283698D01*
X5984Y283693D01*
X5938D01*
X5935D01*
X5927D01*
X5913D01*
X5894Y283696D01*
X5869Y283698D01*
X5842Y283701D01*
X5812Y283704D01*
X5777Y283712D01*
X5703Y283728D01*
X5621Y283753D01*
X5580Y283769D01*
X5536Y283788D01*
X5493Y283813D01*
X5452Y283838D01*
X5449Y283840D01*
X5441Y283843D01*
X5430Y283851D01*
X5416Y283862D01*
X5397Y283878D01*
X5375Y283895D01*
X5353Y283917D01*
X5326Y283939D01*
X5302Y283966D01*
X5274Y283993D01*
X5217Y284059D01*
X5165Y284135D01*
X5119Y284223D01*
Y284220D01*
X5113Y284206D01*
X5108Y284190D01*
X5100Y284165D01*
X5089Y284138D01*
X5075Y284105D01*
X5059Y284067D01*
X5040Y284026D01*
X5018Y283985D01*
X4993Y283941D01*
X4963Y283898D01*
X4933Y283854D01*
X4900Y283810D01*
X4862Y283769D01*
X4821Y283728D01*
X4778Y283693D01*
X4775Y283690D01*
X4767Y283685D01*
X4753Y283677D01*
X4734Y283663D01*
X4712Y283649D01*
X4685Y283633D01*
X4652Y283616D01*
X4616Y283600D01*
X4575Y283584D01*
X4532Y283565D01*
X4485Y283551D01*
X4434Y283537D01*
X4382Y283524D01*
X4324Y283515D01*
X4267Y283510D01*
X4207Y283507D01*
X4204D01*
X4196D01*
X4182D01*
X4163Y283510D01*
X4139D01*
X4114Y283513D01*
X4081Y283518D01*
X4049Y283521D01*
X4010Y283529D01*
X3972Y283537D01*
X3887Y283559D01*
X3797Y283586D01*
X3751Y283606D01*
X3705Y283627D01*
X3702D01*
X3694Y283633D01*
X3680Y283641D01*
X3664Y283649D01*
X3645Y283660D01*
X3620Y283677D01*
X3565Y283712D01*
X3503Y283761D01*
X3437Y283816D01*
X3374Y283881D01*
X3314Y283955D01*
X3311Y283958D01*
X3309Y283963D01*
X3301Y283977D01*
X3292Y283993D01*
X3279Y284012D01*
X3268Y284037D01*
X3251Y284064D01*
X3238Y284097D01*
X3221Y284132D01*
X3208Y284171D01*
X3191Y284214D01*
X3178Y284258D01*
X3164Y284307D01*
X3153Y284359D01*
X3137Y284468D01*
Y284476D01*
X3134Y284490D01*
Y284509D01*
X3131Y284534D01*
X3129Y284566D01*
Y284605D01*
X3126Y284654D01*
X3123Y284711D01*
X3120Y284777D01*
Y284850D01*
X3118Y284935D01*
Y284981D01*
X3115Y285031D01*
Y285140D01*
X3112Y285197D01*
Y286671D01*
X6891D01*
Y285050D01*
D02*
G37*
G36*
Y281733D02*
X4311Y281050D01*
X6891Y280376D01*
Y279229D01*
X3112D01*
Y279936D01*
X6085Y279939D01*
X3112Y280687D01*
Y281421D01*
X6085Y282167D01*
X3112D01*
Y282874D01*
X6891D01*
Y281733D01*
D02*
G37*
G36*
X4843Y277133D02*
X4120D01*
Y278555D01*
X4843D01*
Y277133D01*
D02*
G37*
G36*
X6891Y275085D02*
X6888Y275044D01*
Y274998D01*
X6885Y274946D01*
X6882Y274837D01*
X6874Y274728D01*
X6871Y274673D01*
X6866Y274621D01*
X6858Y274575D01*
X6852Y274531D01*
Y274528D01*
X6850Y274520D01*
X6847Y274509D01*
X6844Y274493D01*
X6839Y274474D01*
X6833Y274452D01*
X6828Y274427D01*
X6820Y274397D01*
X6798Y274337D01*
X6770Y274272D01*
X6735Y274203D01*
X6694Y274135D01*
Y274132D01*
X6689Y274127D01*
X6683Y274119D01*
X6672Y274105D01*
X6647Y274075D01*
X6612Y274034D01*
X6566Y273988D01*
X6511Y273939D01*
X6451Y273892D01*
X6380Y273846D01*
X6377Y273843D01*
X6372Y273840D01*
X6361Y273835D01*
X6345Y273827D01*
X6328Y273818D01*
X6306Y273808D01*
X6279Y273797D01*
X6252Y273786D01*
X6219Y273775D01*
X6186Y273767D01*
X6110Y273747D01*
X6028Y273734D01*
X5984Y273728D01*
X5938D01*
X5935D01*
X5927D01*
X5913D01*
X5894Y273731D01*
X5869Y273734D01*
X5842Y273737D01*
X5812Y273739D01*
X5777Y273747D01*
X5703Y273764D01*
X5621Y273788D01*
X5580Y273805D01*
X5536Y273824D01*
X5493Y273849D01*
X5452Y273873D01*
X5449Y273876D01*
X5441Y273879D01*
X5430Y273887D01*
X5416Y273898D01*
X5397Y273914D01*
X5375Y273930D01*
X5353Y273952D01*
X5326Y273974D01*
X5302Y274001D01*
X5274Y274029D01*
X5217Y274094D01*
X5165Y274171D01*
X5119Y274258D01*
Y274255D01*
X5113Y274242D01*
X5108Y274225D01*
X5100Y274201D01*
X5089Y274173D01*
X5075Y274141D01*
X5059Y274102D01*
X5040Y274061D01*
X5018Y274021D01*
X4993Y273977D01*
X4963Y273933D01*
X4933Y273889D01*
X4900Y273846D01*
X4862Y273805D01*
X4821Y273764D01*
X4778Y273728D01*
X4775Y273726D01*
X4767Y273720D01*
X4753Y273712D01*
X4734Y273698D01*
X4712Y273685D01*
X4685Y273668D01*
X4652Y273652D01*
X4616Y273636D01*
X4575Y273619D01*
X4532Y273600D01*
X4485Y273586D01*
X4434Y273573D01*
X4382Y273559D01*
X4324Y273551D01*
X4267Y273545D01*
X4207Y273543D01*
X4204D01*
X4196D01*
X4182D01*
X4163Y273545D01*
X4139D01*
X4114Y273548D01*
X4081Y273554D01*
X4049Y273556D01*
X4010Y273565D01*
X3972Y273573D01*
X3887Y273595D01*
X3797Y273622D01*
X3751Y273641D01*
X3705Y273663D01*
X3702D01*
X3694Y273668D01*
X3680Y273676D01*
X3664Y273685D01*
X3645Y273696D01*
X3620Y273712D01*
X3565Y273747D01*
X3503Y273797D01*
X3437Y273851D01*
X3374Y273917D01*
X3314Y273990D01*
X3311Y273993D01*
X3309Y273999D01*
X3301Y274012D01*
X3292Y274029D01*
X3279Y274048D01*
X3268Y274072D01*
X3251Y274100D01*
X3238Y274132D01*
X3221Y274168D01*
X3208Y274206D01*
X3191Y274250D01*
X3178Y274293D01*
X3164Y274343D01*
X3153Y274394D01*
X3137Y274504D01*
Y274512D01*
X3134Y274525D01*
Y274545D01*
X3131Y274569D01*
X3129Y274602D01*
Y274640D01*
X3126Y274689D01*
X3123Y274747D01*
X3120Y274812D01*
Y274886D01*
X3118Y274971D01*
Y275017D01*
X3115Y275066D01*
Y275175D01*
X3112Y275233D01*
Y276707D01*
X6891D01*
Y275085D01*
D02*
G37*
G36*
X5850Y272197D02*
X4592D01*
X4589D01*
X4586D01*
X4578D01*
X4567D01*
X4537D01*
X4499D01*
X4455D01*
X4403Y272194D01*
X4346D01*
X4289Y272191D01*
X4166Y272189D01*
X4106Y272183D01*
X4051Y272181D01*
X3999Y272175D01*
X3953Y272172D01*
X3915Y272164D01*
X3885Y272159D01*
X3882D01*
X3879Y272156D01*
X3863Y272150D01*
X3838Y272140D01*
X3811Y272126D01*
X3776Y272104D01*
X3743Y272079D01*
X3707Y272049D01*
X3677Y272014D01*
X3675Y272008D01*
X3666Y271995D01*
X3653Y271970D01*
X3642Y271940D01*
X3628Y271902D01*
X3615Y271856D01*
X3606Y271801D01*
X3604Y271744D01*
Y271725D01*
X3606Y271711D01*
Y271697D01*
X3609Y271678D01*
X3617Y271632D01*
X3628Y271580D01*
X3647Y271525D01*
X3672Y271468D01*
X3705Y271411D01*
Y271408D01*
X3710Y271405D01*
X3715Y271397D01*
X3724Y271386D01*
X3746Y271361D01*
X3773Y271329D01*
X3811Y271296D01*
X3852Y271263D01*
X3901Y271233D01*
X3956Y271209D01*
X3959D01*
X3964Y271206D01*
X3975Y271203D01*
X3988Y271200D01*
X4008Y271195D01*
X4035Y271192D01*
X4065Y271187D01*
X4106Y271181D01*
X4150Y271176D01*
X4202Y271170D01*
X4262Y271168D01*
X4332Y271162D01*
X4409Y271159D01*
X4494Y271157D01*
X4589Y271154D01*
X4696D01*
X5850D01*
Y270430D01*
X3112D01*
Y271102D01*
X3522D01*
X3519Y271105D01*
X3511Y271110D01*
X3500Y271118D01*
X3486Y271129D01*
X3467Y271143D01*
X3445Y271162D01*
X3421Y271184D01*
X3396Y271209D01*
X3369Y271236D01*
X3339Y271266D01*
X3281Y271331D01*
X3227Y271411D01*
X3175Y271498D01*
Y271501D01*
X3170Y271509D01*
X3164Y271522D01*
X3156Y271539D01*
X3145Y271564D01*
X3134Y271588D01*
X3123Y271618D01*
X3112Y271654D01*
X3101Y271689D01*
X3090Y271730D01*
X3069Y271817D01*
X3055Y271910D01*
X3052Y271962D01*
X3049Y272011D01*
Y272039D01*
X3052Y272058D01*
Y272082D01*
X3055Y272110D01*
X3060Y272142D01*
X3066Y272178D01*
X3079Y272254D01*
X3101Y272336D01*
X3131Y272423D01*
X3148Y272467D01*
X3170Y272508D01*
X3172Y272511D01*
X3175Y272516D01*
X3183Y272530D01*
X3191Y272544D01*
X3205Y272563D01*
X3219Y272582D01*
X3257Y272628D01*
X3306Y272680D01*
X3363Y272735D01*
X3432Y272784D01*
X3467Y272806D01*
X3508Y272825D01*
X3511D01*
X3519Y272828D01*
X3530Y272833D01*
X3549Y272838D01*
X3571Y272847D01*
X3598Y272855D01*
X3631Y272863D01*
X3666Y272871D01*
X3707Y272882D01*
X3754Y272890D01*
X3803Y272898D01*
X3858Y272904D01*
X3918Y272912D01*
X3980Y272915D01*
X4046Y272920D01*
X4117D01*
X5850D01*
Y272197D01*
D02*
G37*
G36*
X4005Y269210D02*
X4002D01*
X3997Y269208D01*
X3986Y269205D01*
X3969Y269202D01*
X3953Y269197D01*
X3931Y269188D01*
X3885Y269169D01*
X3833Y269145D01*
X3778Y269115D01*
X3729Y269074D01*
X3683Y269025D01*
Y269022D01*
X3677Y269019D01*
X3672Y269011D01*
X3666Y268997D01*
X3658Y268984D01*
X3647Y268967D01*
X3639Y268945D01*
X3628Y268921D01*
X3617Y268894D01*
X3609Y268864D01*
X3598Y268831D01*
X3590Y268795D01*
X3585Y268757D01*
X3579Y268716D01*
X3574Y268672D01*
Y268599D01*
X3576Y268580D01*
Y268555D01*
X3579Y268530D01*
X3582Y268500D01*
X3587Y268468D01*
X3598Y268399D01*
X3617Y268328D01*
X3642Y268263D01*
X3658Y268230D01*
X3675Y268203D01*
X3677Y268197D01*
X3688Y268186D01*
X3705Y268173D01*
X3726Y268154D01*
X3754Y268137D01*
X3787Y268121D01*
X3825Y268110D01*
X3868Y268107D01*
X3871D01*
X3882D01*
X3898Y268110D01*
X3918Y268113D01*
X3937Y268121D01*
X3961Y268129D01*
X3983Y268143D01*
X4005Y268159D01*
X4008Y268162D01*
X4013Y268170D01*
X4024Y268186D01*
X4038Y268211D01*
X4051Y268241D01*
X4068Y268285D01*
X4076Y268309D01*
X4084Y268337D01*
X4092Y268369D01*
X4101Y268402D01*
Y268405D01*
X4103Y268413D01*
X4106Y268424D01*
X4109Y268440D01*
X4114Y268460D01*
X4120Y268484D01*
X4125Y268511D01*
X4133Y268541D01*
X4141Y268577D01*
X4150Y268612D01*
X4171Y268691D01*
X4193Y268779D01*
X4218Y268869D01*
X4242Y268965D01*
X4272Y269057D01*
X4300Y269150D01*
X4330Y269240D01*
X4363Y269322D01*
X4393Y269399D01*
X4406Y269431D01*
X4423Y269461D01*
X4439Y269489D01*
X4453Y269513D01*
X4455Y269516D01*
X4464Y269527D01*
X4474Y269543D01*
X4494Y269562D01*
X4515Y269587D01*
X4543Y269614D01*
X4575Y269644D01*
X4614Y269674D01*
X4655Y269704D01*
X4701Y269734D01*
X4750Y269762D01*
X4808Y269786D01*
X4865Y269805D01*
X4930Y269822D01*
X4999Y269833D01*
X5070Y269835D01*
X5075D01*
X5086D01*
X5105Y269833D01*
X5130Y269830D01*
X5160Y269827D01*
X5195Y269822D01*
X5233Y269811D01*
X5277Y269800D01*
X5324Y269786D01*
X5373Y269767D01*
X5422Y269745D01*
X5471Y269718D01*
X5523Y269685D01*
X5572Y269650D01*
X5621Y269606D01*
X5667Y269557D01*
X5670Y269554D01*
X5678Y269543D01*
X5689Y269527D01*
X5706Y269502D01*
X5725Y269472D01*
X5744Y269437D01*
X5766Y269393D01*
X5790Y269341D01*
X5812Y269284D01*
X5834Y269221D01*
X5853Y269150D01*
X5872Y269071D01*
X5889Y268986D01*
X5900Y268894D01*
X5908Y268793D01*
X5911Y268686D01*
Y268631D01*
X5908Y268593D01*
X5905Y268547D01*
X5900Y268495D01*
X5894Y268435D01*
X5889Y268369D01*
X5878Y268304D01*
X5864Y268236D01*
X5850Y268165D01*
X5831Y268096D01*
X5812Y268028D01*
X5785Y267965D01*
X5758Y267905D01*
X5725Y267851D01*
X5722Y267848D01*
X5717Y267840D01*
X5706Y267823D01*
X5692Y267807D01*
X5670Y267785D01*
X5648Y267758D01*
X5621Y267730D01*
X5588Y267701D01*
X5553Y267670D01*
X5512Y267638D01*
X5468Y267608D01*
X5419Y267578D01*
X5367Y267548D01*
X5310Y267520D01*
X5250Y267496D01*
X5184Y267474D01*
X5059Y268156D01*
X5061D01*
X5067Y268159D01*
X5075Y268162D01*
X5086Y268165D01*
X5113Y268178D01*
X5149Y268195D01*
X5187Y268219D01*
X5228Y268247D01*
X5266Y268282D01*
X5302Y268326D01*
X5304Y268331D01*
X5310Y268339D01*
X5315Y268348D01*
X5321Y268361D01*
X5329Y268375D01*
X5345Y268413D01*
X5362Y268462D01*
X5375Y268522D01*
X5386Y268593D01*
X5389Y268672D01*
Y268719D01*
X5386Y268743D01*
X5384Y268771D01*
Y268798D01*
X5378Y268831D01*
X5370Y268899D01*
X5353Y268967D01*
X5334Y269030D01*
X5321Y269057D01*
X5307Y269082D01*
X5304Y269085D01*
X5296Y269096D01*
X5285Y269107D01*
X5269Y269123D01*
X5247Y269137D01*
X5223Y269150D01*
X5192Y269161D01*
X5160Y269164D01*
X5157D01*
X5146D01*
X5132Y269161D01*
X5116Y269156D01*
X5094Y269147D01*
X5072Y269134D01*
X5051Y269117D01*
X5029Y269093D01*
X5026Y269087D01*
X5020Y269079D01*
X5015Y269068D01*
X5010Y269052D01*
X4999Y269030D01*
X4988Y269005D01*
X4977Y268973D01*
X4963Y268932D01*
X4950Y268885D01*
X4930Y268831D01*
X4914Y268768D01*
X4895Y268694D01*
X4873Y268612D01*
X4851Y268522D01*
X4838Y268470D01*
X4827Y268419D01*
Y268416D01*
X4824Y268413D01*
Y268405D01*
X4821Y268394D01*
X4813Y268364D01*
X4802Y268326D01*
X4791Y268277D01*
X4775Y268222D01*
X4758Y268165D01*
X4736Y268099D01*
X4690Y267968D01*
X4663Y267900D01*
X4636Y267834D01*
X4606Y267769D01*
X4573Y267711D01*
X4540Y267657D01*
X4504Y267610D01*
X4502Y267608D01*
X4496Y267600D01*
X4485Y267589D01*
X4469Y267575D01*
X4450Y267556D01*
X4425Y267537D01*
X4398Y267518D01*
X4365Y267496D01*
X4327Y267474D01*
X4289Y267455D01*
X4245Y267433D01*
X4196Y267417D01*
X4144Y267403D01*
X4090Y267392D01*
X4030Y267384D01*
X3967Y267381D01*
X3961D01*
X3950D01*
X3931Y267384D01*
X3904Y267387D01*
X3871Y267392D01*
X3833Y267397D01*
X3792Y267408D01*
X3746Y267419D01*
X3696Y267438D01*
X3645Y267458D01*
X3590Y267485D01*
X3535Y267515D01*
X3481Y267550D01*
X3426Y267594D01*
X3371Y267643D01*
X3320Y267698D01*
X3317Y267701D01*
X3309Y267711D01*
X3295Y267730D01*
X3279Y267755D01*
X3257Y267791D01*
X3235Y267829D01*
X3210Y267878D01*
X3186Y267933D01*
X3159Y267993D01*
X3134Y268064D01*
X3112Y268137D01*
X3093Y268222D01*
X3074Y268312D01*
X3060Y268410D01*
X3052Y268514D01*
X3049Y268626D01*
Y268651D01*
X3052Y268681D01*
Y268719D01*
X3058Y268765D01*
X3060Y268820D01*
X3069Y268880D01*
X3077Y268945D01*
X3090Y269016D01*
X3104Y269087D01*
X3123Y269161D01*
X3145Y269237D01*
X3172Y269308D01*
X3202Y269382D01*
X3235Y269450D01*
X3276Y269513D01*
X3279Y269516D01*
X3287Y269527D01*
X3301Y269543D01*
X3317Y269565D01*
X3342Y269592D01*
X3369Y269622D01*
X3402Y269653D01*
X3437Y269688D01*
X3481Y269724D01*
X3527Y269759D01*
X3576Y269794D01*
X3631Y269830D01*
X3691Y269860D01*
X3754Y269890D01*
X3822Y269915D01*
X3893Y269936D01*
X4005Y269210D01*
D02*
G37*
G36*
X6921Y302302D02*
X6918Y302261D01*
Y302214D01*
X6915Y302165D01*
X6912Y302110D01*
X6907Y302053D01*
X6901Y301996D01*
X6891Y301876D01*
X6882Y301818D01*
X6871Y301761D01*
X6860Y301709D01*
X6847Y301660D01*
Y301657D01*
X6841Y301646D01*
X6836Y301627D01*
X6828Y301605D01*
X6817Y301575D01*
X6803Y301543D01*
X6787Y301504D01*
X6768Y301463D01*
X6743Y301420D01*
X6718Y301373D01*
X6689Y301327D01*
X6658Y301278D01*
X6623Y301231D01*
X6585Y301182D01*
X6544Y301136D01*
X6497Y301089D01*
X6495Y301087D01*
X6487Y301079D01*
X6473Y301068D01*
X6454Y301051D01*
X6429Y301029D01*
X6399Y301008D01*
X6366Y300983D01*
X6328Y300956D01*
X6284Y300926D01*
X6238Y300898D01*
X6189Y300868D01*
X6134Y300838D01*
X6077Y300808D01*
X6017Y300781D01*
X5951Y300754D01*
X5886Y300729D01*
X5883Y300726D01*
X5869Y300724D01*
X5850Y300718D01*
X5820Y300710D01*
X5785Y300699D01*
X5744Y300688D01*
X5695Y300677D01*
X5640Y300666D01*
X5577Y300655D01*
X5509Y300644D01*
X5435Y300634D01*
X5356Y300623D01*
X5274Y300614D01*
X5184Y300609D01*
X5091Y300604D01*
X4993D01*
X4988D01*
X4971D01*
X4947D01*
X4914Y300606D01*
X4876D01*
X4827Y300609D01*
X4775Y300614D01*
X4718Y300617D01*
X4657Y300625D01*
X4592Y300631D01*
X4458Y300653D01*
X4322Y300683D01*
X4256Y300699D01*
X4191Y300721D01*
X4185Y300724D01*
X4171Y300726D01*
X4150Y300734D01*
X4122Y300748D01*
X4087Y300762D01*
X4046Y300778D01*
X4002Y300800D01*
X3953Y300825D01*
X3901Y300852D01*
X3847Y300882D01*
X3792Y300915D01*
X3735Y300950D01*
X3680Y300991D01*
X3625Y301032D01*
X3571Y301076D01*
X3522Y301125D01*
X3519Y301128D01*
X3514Y301133D01*
X3503Y301147D01*
X3489Y301160D01*
X3473Y301182D01*
X3456Y301207D01*
X3434Y301234D01*
X3413Y301267D01*
X3388Y301302D01*
X3363Y301343D01*
X3339Y301387D01*
X3314Y301433D01*
X3290Y301485D01*
X3265Y301540D01*
X3243Y301597D01*
X3221Y301660D01*
Y301663D01*
X3219Y301671D01*
X3213Y301687D01*
X3210Y301706D01*
X3202Y301731D01*
X3197Y301764D01*
X3189Y301799D01*
X3183Y301840D01*
X3175Y301887D01*
X3167Y301936D01*
X3161Y301993D01*
X3156Y302053D01*
X3150Y302119D01*
X3145Y302187D01*
X3142Y302261D01*
Y303770D01*
X6921D01*
Y302302D01*
D02*
G37*
G36*
X3926Y300150D02*
X3948D01*
X3969Y300148D01*
X3997Y300145D01*
X4027Y300139D01*
X4090Y300126D01*
X4160Y300107D01*
X4231Y300079D01*
X4300Y300044D01*
X4302Y300041D01*
X4308Y300038D01*
X4316Y300033D01*
X4330Y300022D01*
X4363Y299997D01*
X4403Y299962D01*
X4447Y299918D01*
X4494Y299866D01*
X4540Y299804D01*
X4578Y299733D01*
Y299730D01*
X4584Y299724D01*
X4589Y299711D01*
X4595Y299694D01*
X4603Y299675D01*
X4614Y299651D01*
X4625Y299621D01*
X4636Y299585D01*
X4649Y299547D01*
X4663Y299503D01*
X4676Y299457D01*
X4690Y299405D01*
X4707Y299350D01*
X4720Y299290D01*
X4734Y299225D01*
X4747Y299157D01*
Y299151D01*
X4753Y299135D01*
X4756Y299108D01*
X4764Y299075D01*
X4772Y299034D01*
X4783Y298985D01*
X4794Y298933D01*
X4805Y298878D01*
X4835Y298761D01*
X4865Y298646D01*
X4879Y298591D01*
X4895Y298540D01*
X4911Y298493D01*
X4928Y298452D01*
X4999D01*
X5001D01*
X5007D01*
X5018D01*
X5031Y298455D01*
X5051D01*
X5070Y298458D01*
X5113Y298466D01*
X5162Y298477D01*
X5212Y298496D01*
X5258Y298520D01*
X5277Y298537D01*
X5296Y298556D01*
X5299Y298562D01*
X5304Y298567D01*
X5310Y298578D01*
X5318Y298589D01*
X5324Y298605D01*
X5332Y298622D01*
X5343Y298643D01*
X5351Y298668D01*
X5359Y298698D01*
X5364Y298728D01*
X5373Y298763D01*
X5378Y298804D01*
X5384Y298848D01*
X5386Y298895D01*
Y298979D01*
X5384Y298995D01*
Y299015D01*
X5378Y299056D01*
X5367Y299105D01*
X5353Y299157D01*
X5334Y299206D01*
X5310Y299249D01*
X5307Y299255D01*
X5296Y299266D01*
X5274Y299288D01*
X5247Y299309D01*
X5212Y299337D01*
X5165Y299367D01*
X5108Y299394D01*
X5042Y299421D01*
X5160Y300079D01*
X5165Y300077D01*
X5176Y300074D01*
X5198Y300068D01*
X5225Y300058D01*
X5258Y300047D01*
X5296Y300030D01*
X5337Y300011D01*
X5381Y299992D01*
X5430Y299967D01*
X5476Y299937D01*
X5525Y299907D01*
X5575Y299872D01*
X5621Y299836D01*
X5667Y299793D01*
X5708Y299749D01*
X5747Y299700D01*
X5749Y299697D01*
X5755Y299686D01*
X5766Y299670D01*
X5777Y299648D01*
X5790Y299621D01*
X5807Y299585D01*
X5826Y299544D01*
X5845Y299495D01*
X5861Y299443D01*
X5880Y299383D01*
X5897Y299315D01*
X5911Y299244D01*
X5921Y299165D01*
X5932Y299080D01*
X5938Y298990D01*
X5940Y298892D01*
Y298845D01*
X5938Y298813D01*
Y298772D01*
X5935Y298725D01*
X5932Y298673D01*
X5927Y298619D01*
X5921Y298562D01*
X5913Y298501D01*
X5891Y298381D01*
X5880Y298324D01*
X5864Y298267D01*
X5845Y298215D01*
X5826Y298168D01*
Y298166D01*
X5820Y298157D01*
X5815Y298147D01*
X5804Y298130D01*
X5793Y298111D01*
X5779Y298089D01*
X5747Y298037D01*
X5703Y297983D01*
X5654Y297928D01*
X5596Y297876D01*
X5567Y297854D01*
X5534Y297835D01*
X5531D01*
X5525Y297830D01*
X5515Y297827D01*
X5498Y297819D01*
X5479Y297813D01*
X5452Y297805D01*
X5422Y297794D01*
X5386Y297786D01*
X5345Y297778D01*
X5296Y297767D01*
X5244Y297759D01*
X5184Y297753D01*
X5119Y297745D01*
X5048Y297743D01*
X4969Y297737D01*
X4884D01*
X4040Y297748D01*
X4038D01*
X4024D01*
X4005D01*
X3980D01*
X3950D01*
X3918Y297745D01*
X3879D01*
X3838Y297743D01*
X3751Y297740D01*
X3664Y297734D01*
X3620Y297731D01*
X3579Y297726D01*
X3543Y297721D01*
X3508Y297715D01*
X3505D01*
X3500Y297712D01*
X3492D01*
X3478Y297707D01*
X3462Y297704D01*
X3443Y297699D01*
X3399Y297685D01*
X3344Y297669D01*
X3281Y297644D01*
X3213Y297617D01*
X3142Y297584D01*
Y298299D01*
X3145D01*
X3156Y298305D01*
X3172Y298310D01*
X3197Y298319D01*
X3227Y298329D01*
X3262Y298343D01*
X3306Y298357D01*
X3355Y298370D01*
X3358D01*
X3366Y298373D01*
X3377Y298376D01*
X3391Y298381D01*
X3418Y298390D01*
X3429Y298392D01*
X3440Y298395D01*
X3437Y298398D01*
X3432Y298403D01*
X3423Y298414D01*
X3410Y298428D01*
X3396Y298444D01*
X3377Y298466D01*
X3358Y298488D01*
X3339Y298515D01*
X3295Y298572D01*
X3249Y298641D01*
X3208Y298714D01*
X3170Y298794D01*
Y298796D01*
X3167Y298802D01*
X3161Y298815D01*
X3156Y298829D01*
X3148Y298851D01*
X3142Y298873D01*
X3134Y298900D01*
X3126Y298927D01*
X3115Y298960D01*
X3107Y298995D01*
X3093Y299072D01*
X3082Y299157D01*
X3079Y299244D01*
Y299263D01*
X3082Y299285D01*
Y299315D01*
X3088Y299350D01*
X3090Y299391D01*
X3099Y299435D01*
X3109Y299487D01*
X3120Y299539D01*
X3137Y299593D01*
X3153Y299648D01*
X3175Y299703D01*
X3202Y299757D01*
X3232Y299812D01*
X3268Y299864D01*
X3309Y299910D01*
X3311Y299913D01*
X3320Y299921D01*
X3333Y299932D01*
X3350Y299948D01*
X3372Y299967D01*
X3399Y299987D01*
X3432Y300008D01*
X3467Y300030D01*
X3508Y300055D01*
X3552Y300077D01*
X3598Y300096D01*
X3650Y300115D01*
X3705Y300131D01*
X3762Y300142D01*
X3825Y300150D01*
X3887Y300153D01*
X3890D01*
X3898D01*
X3909D01*
X3926Y300150D01*
D02*
G37*
G36*
X5880Y296994D02*
X6424D01*
X6850Y296271D01*
X5880D01*
Y295777D01*
X5304D01*
Y296271D01*
X4199D01*
X4196D01*
X4185D01*
X4169D01*
X4144D01*
X4120D01*
X4090D01*
X4024Y296268D01*
X3956D01*
X3923Y296266D01*
X3890D01*
X3863Y296263D01*
X3838D01*
X3819Y296260D01*
X3806Y296257D01*
X3803D01*
X3797Y296255D01*
X3787Y296249D01*
X3773Y296244D01*
X3759Y296235D01*
X3746Y296225D01*
X3729Y296211D01*
X3715Y296195D01*
X3713Y296192D01*
X3710Y296186D01*
X3705Y296175D01*
X3699Y296159D01*
X3691Y296143D01*
X3686Y296121D01*
X3683Y296096D01*
X3680Y296072D01*
Y296053D01*
X3683Y296031D01*
X3688Y295998D01*
X3696Y295957D01*
X3710Y295905D01*
X3726Y295848D01*
X3748Y295780D01*
X3186Y295717D01*
Y295720D01*
X3181Y295728D01*
X3175Y295741D01*
X3170Y295760D01*
X3161Y295785D01*
X3153Y295815D01*
X3142Y295848D01*
X3134Y295883D01*
X3123Y295924D01*
X3112Y295968D01*
X3104Y296014D01*
X3096Y296066D01*
X3085Y296173D01*
X3079Y296290D01*
Y296323D01*
X3082Y296339D01*
Y296358D01*
X3088Y296408D01*
X3096Y296462D01*
X3107Y296519D01*
X3123Y296582D01*
X3145Y296642D01*
Y296645D01*
X3148Y296648D01*
X3150Y296656D01*
X3156Y296667D01*
X3172Y296694D01*
X3191Y296730D01*
X3216Y296768D01*
X3243Y296803D01*
X3276Y296842D01*
X3314Y296872D01*
X3320Y296874D01*
X3333Y296883D01*
X3358Y296896D01*
X3388Y296913D01*
X3429Y296929D01*
X3478Y296945D01*
X3535Y296962D01*
X3598Y296973D01*
X3601D01*
X3604D01*
X3612Y296975D01*
X3623D01*
X3639Y296978D01*
X3658D01*
X3683Y296981D01*
X3710Y296984D01*
X3740Y296986D01*
X3778D01*
X3819Y296989D01*
X3866Y296992D01*
X3918D01*
X3978Y296994D01*
X4040D01*
X4109D01*
X5304D01*
Y297327D01*
X5880D01*
Y296994D01*
D02*
G37*
G36*
X3926Y295457D02*
X3948D01*
X3969Y295455D01*
X3997Y295452D01*
X4027Y295446D01*
X4090Y295433D01*
X4160Y295414D01*
X4231Y295387D01*
X4300Y295351D01*
X4302Y295348D01*
X4308Y295345D01*
X4316Y295340D01*
X4330Y295329D01*
X4363Y295305D01*
X4403Y295269D01*
X4447Y295225D01*
X4494Y295174D01*
X4540Y295111D01*
X4578Y295040D01*
Y295037D01*
X4584Y295032D01*
X4589Y295018D01*
X4595Y295002D01*
X4603Y294982D01*
X4614Y294958D01*
X4625Y294928D01*
X4636Y294892D01*
X4649Y294854D01*
X4663Y294810D01*
X4676Y294764D01*
X4690Y294712D01*
X4707Y294657D01*
X4720Y294598D01*
X4734Y294532D01*
X4747Y294464D01*
Y294458D01*
X4753Y294442D01*
X4756Y294415D01*
X4764Y294382D01*
X4772Y294341D01*
X4783Y294292D01*
X4794Y294240D01*
X4805Y294185D01*
X4835Y294068D01*
X4865Y293953D01*
X4879Y293899D01*
X4895Y293847D01*
X4911Y293800D01*
X4928Y293759D01*
X4999D01*
X5001D01*
X5007D01*
X5018D01*
X5031Y293762D01*
X5051D01*
X5070Y293765D01*
X5113Y293773D01*
X5162Y293784D01*
X5212Y293803D01*
X5258Y293828D01*
X5277Y293844D01*
X5296Y293863D01*
X5299Y293869D01*
X5304Y293874D01*
X5310Y293885D01*
X5318Y293896D01*
X5324Y293912D01*
X5332Y293929D01*
X5343Y293951D01*
X5351Y293975D01*
X5359Y294005D01*
X5364Y294035D01*
X5373Y294071D01*
X5378Y294111D01*
X5384Y294155D01*
X5386Y294202D01*
Y294286D01*
X5384Y294303D01*
Y294322D01*
X5378Y294363D01*
X5367Y294412D01*
X5353Y294464D01*
X5334Y294513D01*
X5310Y294556D01*
X5307Y294562D01*
X5296Y294573D01*
X5274Y294595D01*
X5247Y294617D01*
X5212Y294644D01*
X5165Y294674D01*
X5108Y294701D01*
X5042Y294728D01*
X5160Y295387D01*
X5165Y295384D01*
X5176Y295381D01*
X5198Y295375D01*
X5225Y295365D01*
X5258Y295354D01*
X5296Y295337D01*
X5337Y295318D01*
X5381Y295299D01*
X5430Y295274D01*
X5476Y295245D01*
X5525Y295215D01*
X5575Y295179D01*
X5621Y295144D01*
X5667Y295100D01*
X5708Y295056D01*
X5747Y295007D01*
X5749Y295004D01*
X5755Y294993D01*
X5766Y294977D01*
X5777Y294955D01*
X5790Y294928D01*
X5807Y294892D01*
X5826Y294851D01*
X5845Y294802D01*
X5861Y294750D01*
X5880Y294690D01*
X5897Y294622D01*
X5911Y294551D01*
X5921Y294472D01*
X5932Y294387D01*
X5938Y294297D01*
X5940Y294199D01*
Y294152D01*
X5938Y294120D01*
Y294079D01*
X5935Y294032D01*
X5932Y293981D01*
X5927Y293926D01*
X5921Y293869D01*
X5913Y293809D01*
X5891Y293688D01*
X5880Y293631D01*
X5864Y293574D01*
X5845Y293522D01*
X5826Y293476D01*
Y293473D01*
X5820Y293464D01*
X5815Y293454D01*
X5804Y293437D01*
X5793Y293418D01*
X5779Y293396D01*
X5747Y293344D01*
X5703Y293290D01*
X5654Y293235D01*
X5596Y293183D01*
X5567Y293162D01*
X5534Y293142D01*
X5531D01*
X5525Y293137D01*
X5515Y293134D01*
X5498Y293126D01*
X5479Y293121D01*
X5452Y293112D01*
X5422Y293102D01*
X5386Y293093D01*
X5345Y293085D01*
X5296Y293074D01*
X5244Y293066D01*
X5184Y293060D01*
X5119Y293052D01*
X5048Y293050D01*
X4969Y293044D01*
X4884D01*
X4040Y293055D01*
X4038D01*
X4024D01*
X4005D01*
X3980D01*
X3950D01*
X3918Y293052D01*
X3879D01*
X3838Y293050D01*
X3751Y293047D01*
X3664Y293041D01*
X3620Y293039D01*
X3579Y293033D01*
X3543Y293028D01*
X3508Y293022D01*
X3505D01*
X3500Y293020D01*
X3492D01*
X3478Y293014D01*
X3462Y293011D01*
X3443Y293006D01*
X3399Y292992D01*
X3344Y292976D01*
X3281Y292951D01*
X3213Y292924D01*
X3142Y292891D01*
Y293606D01*
X3145D01*
X3156Y293612D01*
X3172Y293617D01*
X3197Y293626D01*
X3227Y293636D01*
X3262Y293650D01*
X3306Y293664D01*
X3355Y293677D01*
X3358D01*
X3366Y293680D01*
X3377Y293683D01*
X3391Y293688D01*
X3418Y293697D01*
X3429Y293699D01*
X3440Y293702D01*
X3437Y293705D01*
X3432Y293710D01*
X3423Y293721D01*
X3410Y293735D01*
X3396Y293751D01*
X3377Y293773D01*
X3358Y293795D01*
X3339Y293822D01*
X3295Y293880D01*
X3249Y293948D01*
X3208Y294022D01*
X3170Y294101D01*
Y294103D01*
X3167Y294109D01*
X3161Y294123D01*
X3156Y294136D01*
X3148Y294158D01*
X3142Y294180D01*
X3134Y294207D01*
X3126Y294234D01*
X3115Y294267D01*
X3107Y294303D01*
X3093Y294379D01*
X3082Y294464D01*
X3079Y294551D01*
Y294570D01*
X3082Y294592D01*
Y294622D01*
X3088Y294657D01*
X3090Y294699D01*
X3099Y294742D01*
X3109Y294794D01*
X3120Y294846D01*
X3137Y294900D01*
X3153Y294955D01*
X3175Y295010D01*
X3202Y295064D01*
X3232Y295119D01*
X3268Y295171D01*
X3309Y295217D01*
X3311Y295220D01*
X3320Y295228D01*
X3333Y295239D01*
X3350Y295255D01*
X3372Y295274D01*
X3399Y295294D01*
X3432Y295316D01*
X3467Y295337D01*
X3508Y295362D01*
X3552Y295384D01*
X3598Y295403D01*
X3650Y295422D01*
X3705Y295438D01*
X3762Y295449D01*
X3825Y295457D01*
X3887Y295460D01*
X3890D01*
X3898D01*
X3909D01*
X3926Y295457D01*
D02*
G37*
G36*
X17039Y312615D02*
X17036Y312558D01*
Y312495D01*
X17033Y312427D01*
X17031Y312353D01*
X17025Y312200D01*
X17020Y312124D01*
X17014Y312050D01*
X17009Y311982D01*
X17001Y311919D01*
X16992Y311864D01*
X16987Y311842D01*
X16981Y311821D01*
Y311818D01*
X16976Y311807D01*
X16971Y311788D01*
X16965Y311766D01*
X16954Y311739D01*
X16940Y311706D01*
X16924Y311670D01*
X16902Y311630D01*
X16880Y311589D01*
X16853Y311545D01*
X16823Y311501D01*
X16790Y311455D01*
X16752Y311408D01*
X16708Y311362D01*
X16662Y311318D01*
X16610Y311277D01*
X16607Y311275D01*
X16597Y311266D01*
X16580Y311256D01*
X16558Y311242D01*
X16531Y311226D01*
X16496Y311206D01*
X16457Y311187D01*
X16411Y311165D01*
X16362Y311146D01*
X16307Y311127D01*
X16247Y311108D01*
X16182Y311092D01*
X16111Y311075D01*
X16037Y311064D01*
X15958Y311059D01*
X15876Y311056D01*
X15873D01*
X15859D01*
X15843D01*
X15819Y311059D01*
X15788D01*
X15753Y311062D01*
X15715Y311067D01*
X15671Y311073D01*
X15627Y311078D01*
X15578Y311086D01*
X15480Y311111D01*
X15382Y311141D01*
X15335Y311163D01*
X15289Y311185D01*
X15286Y311187D01*
X15278Y311190D01*
X15267Y311198D01*
X15251Y311206D01*
X15232Y311220D01*
X15207Y311234D01*
X15155Y311272D01*
X15095Y311318D01*
X15032Y311373D01*
X14972Y311436D01*
X14918Y311504D01*
X14915Y311507D01*
X14912Y311512D01*
X14904Y311523D01*
X14896Y311537D01*
X14885Y311556D01*
X14871Y311575D01*
X14857Y311599D01*
X14844Y311627D01*
X14814Y311687D01*
X14784Y311752D01*
X14757Y311823D01*
X14737Y311900D01*
Y311902D01*
X14735Y311913D01*
X14732Y311927D01*
X14729Y311952D01*
X14727Y311979D01*
X14721Y312015D01*
X14716Y312053D01*
X14713Y312102D01*
X14707Y312154D01*
X14702Y312211D01*
X14696Y312277D01*
X14694Y312348D01*
X14691Y312424D01*
X14688Y312506D01*
X14685Y312596D01*
Y313186D01*
X13261D01*
Y313947D01*
X17039D01*
Y312615D01*
D02*
G37*
G36*
Y310013D02*
X14443Y309446D01*
X17039Y308758D01*
Y307849D01*
X14399Y307188D01*
X17039Y306609D01*
Y305839D01*
X13261Y306756D01*
Y307567D01*
X16083Y308318D01*
X13261Y309066D01*
Y309896D01*
X17039Y310794D01*
Y310013D01*
D02*
G37*
G36*
Y303786D02*
X17036Y303745D01*
Y303693D01*
X17033Y303636D01*
X17031Y303573D01*
X17025Y303505D01*
X17020Y303434D01*
X17014Y303363D01*
X16995Y303216D01*
X16984Y303147D01*
X16971Y303082D01*
X16954Y303019D01*
X16935Y302964D01*
Y302962D01*
X16930Y302954D01*
X16924Y302937D01*
X16916Y302918D01*
X16905Y302896D01*
X16889Y302869D01*
X16872Y302839D01*
X16853Y302806D01*
X16829Y302771D01*
X16801Y302735D01*
X16771Y302700D01*
X16738Y302661D01*
X16703Y302626D01*
X16662Y302590D01*
X16618Y302558D01*
X16572Y302525D01*
X16569Y302522D01*
X16561Y302517D01*
X16545Y302509D01*
X16525Y302498D01*
X16501Y302487D01*
X16474Y302473D01*
X16438Y302457D01*
X16400Y302440D01*
X16359Y302427D01*
X16313Y302410D01*
X16263Y302397D01*
X16212Y302383D01*
X16157Y302375D01*
X16100Y302367D01*
X16042Y302361D01*
X15980Y302358D01*
X15974D01*
X15960D01*
X15939Y302361D01*
X15909D01*
X15873Y302367D01*
X15829Y302372D01*
X15783Y302380D01*
X15731Y302389D01*
X15676Y302402D01*
X15619Y302418D01*
X15562Y302440D01*
X15502Y302465D01*
X15445Y302492D01*
X15384Y302528D01*
X15330Y302566D01*
X15275Y302610D01*
X15272Y302612D01*
X15264Y302621D01*
X15251Y302637D01*
X15232Y302656D01*
X15210Y302683D01*
X15185Y302713D01*
X15158Y302752D01*
X15128Y302795D01*
X15098Y302847D01*
X15070Y302902D01*
X15040Y302962D01*
X15013Y303030D01*
X14986Y303104D01*
X14964Y303183D01*
X14945Y303268D01*
X14929Y303358D01*
X14926Y303355D01*
X14923Y303347D01*
X14915Y303333D01*
X14904Y303317D01*
X14890Y303295D01*
X14874Y303270D01*
X14855Y303243D01*
X14836Y303213D01*
X14786Y303147D01*
X14732Y303079D01*
X14672Y303011D01*
X14609Y302948D01*
X14606Y302945D01*
X14601Y302940D01*
X14590Y302932D01*
X14576Y302918D01*
X14557Y302902D01*
X14533Y302883D01*
X14503Y302861D01*
X14467Y302834D01*
X14429Y302803D01*
X14385Y302771D01*
X14333Y302735D01*
X14279Y302697D01*
X14216Y302656D01*
X14150Y302612D01*
X14077Y302563D01*
X13998Y302514D01*
X13261Y302053D01*
Y302967D01*
X14082Y303516D01*
X14088Y303519D01*
X14101Y303530D01*
X14123Y303543D01*
X14153Y303562D01*
X14189Y303587D01*
X14227Y303614D01*
X14271Y303644D01*
X14317Y303677D01*
X14410Y303745D01*
X14456Y303778D01*
X14503Y303811D01*
X14544Y303841D01*
X14579Y303871D01*
X14612Y303898D01*
X14636Y303920D01*
X14642Y303925D01*
X14656Y303939D01*
X14675Y303961D01*
X14699Y303988D01*
X14727Y304024D01*
X14751Y304062D01*
X14776Y304103D01*
X14795Y304149D01*
X14797Y304155D01*
X14800Y304163D01*
X14803Y304171D01*
X14806Y304185D01*
X14808Y304201D01*
X14814Y304220D01*
X14817Y304242D01*
X14822Y304267D01*
X14825Y304294D01*
X14828Y304327D01*
X14833Y304362D01*
X14836Y304398D01*
Y304439D01*
X14838Y304485D01*
Y304684D01*
X13261D01*
Y305446D01*
X17039D01*
Y303786D01*
D02*
G37*
%LPC*%
G36*
X54086Y83231D02*
X52293D01*
Y82417D01*
X52298Y82358D01*
Y82289D01*
X52303Y82212D01*
X52307Y82135D01*
X52316Y81966D01*
X52334Y81802D01*
X52343Y81725D01*
X52357Y81652D01*
X52371Y81593D01*
X52389Y81538D01*
Y81534D01*
X52394Y81525D01*
X52398Y81516D01*
X52407Y81498D01*
X52430Y81452D01*
X52466Y81393D01*
X52507Y81329D01*
X52562Y81261D01*
X52626Y81197D01*
X52698Y81138D01*
X52703D01*
X52707Y81134D01*
X52721Y81125D01*
X52735Y81115D01*
X52780Y81093D01*
X52839Y81065D01*
X52912Y81038D01*
X52994Y81015D01*
X53090Y80997D01*
X53190Y80993D01*
X53194D01*
X53203D01*
X53222D01*
X53249Y80997D01*
X53276D01*
X53313Y81002D01*
X53390Y81020D01*
X53481Y81043D01*
X53577Y81079D01*
X53672Y81129D01*
X53718Y81161D01*
X53759Y81197D01*
X53763D01*
X53768Y81206D01*
X53795Y81234D01*
X53831Y81275D01*
X53881Y81334D01*
X53927Y81411D01*
X53972Y81498D01*
X54013Y81598D01*
X54041Y81707D01*
Y81716D01*
X54045Y81734D01*
X54050Y81752D01*
Y81780D01*
X54054Y81816D01*
X54059Y81857D01*
X54063Y81907D01*
X54068Y81966D01*
X54072Y82030D01*
X54077Y82103D01*
Y82189D01*
X54082Y82280D01*
X54086Y82385D01*
Y83231D01*
D02*
G37*
G36*
X54104Y74918D02*
X52648D01*
Y73767D01*
X52653Y73690D01*
Y73458D01*
X52658Y73385D01*
Y73317D01*
X52662Y73253D01*
Y73203D01*
X52667Y73162D01*
Y73148D01*
X52671Y73130D01*
X52676Y73107D01*
X52680Y73080D01*
X52689Y73048D01*
X52712Y72975D01*
X52739Y72894D01*
X52780Y72812D01*
X52830Y72730D01*
X52894Y72652D01*
X52903Y72643D01*
X52926Y72620D01*
X52971Y72593D01*
X53026Y72557D01*
X53094Y72520D01*
X53181Y72493D01*
X53276Y72470D01*
X53386Y72461D01*
X53390D01*
X53399D01*
X53413D01*
X53435Y72466D01*
X53486Y72470D01*
X53554Y72479D01*
X53631Y72502D01*
X53708Y72530D01*
X53786Y72571D01*
X53859Y72625D01*
X53868Y72634D01*
X53886Y72657D01*
X53918Y72693D01*
X53954Y72743D01*
X53995Y72812D01*
X54032Y72894D01*
X54059Y72989D01*
X54082Y73103D01*
Y73126D01*
X54086Y73148D01*
Y73176D01*
X54091Y73212D01*
Y73257D01*
X54095Y73312D01*
Y73453D01*
X54100Y73540D01*
Y73644D01*
X54104Y73758D01*
Y74918D01*
D02*
G37*
G36*
X51602D02*
X49918D01*
Y73512D01*
X49923Y73444D01*
Y73371D01*
X49927Y73226D01*
X49932Y73153D01*
Y73080D01*
X49937Y73016D01*
X49941Y72957D01*
X49950Y72907D01*
X49955Y72866D01*
Y72862D01*
X49959Y72853D01*
Y72839D01*
X49964Y72821D01*
X49982Y72766D01*
X50005Y72702D01*
X50037Y72630D01*
X50082Y72552D01*
X50137Y72479D01*
X50205Y72407D01*
X50210D01*
X50214Y72398D01*
X50241Y72379D01*
X50287Y72347D01*
X50346Y72316D01*
X50423Y72284D01*
X50514Y72252D01*
X50624Y72234D01*
X50742Y72225D01*
X50747D01*
X50756D01*
X50769D01*
X50787D01*
X50842Y72234D01*
X50906Y72243D01*
X50983Y72261D01*
X51060Y72284D01*
X51142Y72320D01*
X51220Y72366D01*
X51224D01*
X51229Y72370D01*
X51252Y72393D01*
X51288Y72420D01*
X51333Y72466D01*
X51379Y72520D01*
X51429Y72589D01*
X51474Y72671D01*
X51511Y72762D01*
Y72766D01*
X51515Y72775D01*
X51520Y72789D01*
X51525Y72816D01*
X51534Y72848D01*
X51538Y72889D01*
X51547Y72939D01*
X51556Y72998D01*
X51565Y73071D01*
X51575Y73153D01*
X51579Y73244D01*
X51588Y73348D01*
X51593Y73462D01*
X51597Y73590D01*
X51602Y73735D01*
Y74918D01*
D02*
G37*
G36*
X50219Y60167D02*
X50214D01*
X50210D01*
X50196D01*
X50178Y60163D01*
X50128Y60158D01*
X50068Y60144D01*
X50000Y60122D01*
X49927Y60090D01*
X49855Y60044D01*
X49782Y59981D01*
X49773Y59971D01*
X49755Y59944D01*
X49723Y59903D01*
X49691Y59849D01*
X49659Y59780D01*
X49627Y59698D01*
X49609Y59603D01*
X49600Y59498D01*
Y59466D01*
X49604Y59444D01*
Y59412D01*
X49613Y59380D01*
X49627Y59298D01*
X49654Y59203D01*
X49691Y59098D01*
X49746Y58989D01*
X49777Y58930D01*
X49814Y58875D01*
Y58870D01*
X49823Y58866D01*
X49841Y58839D01*
X49877Y58802D01*
X49923Y58757D01*
X49982Y58707D01*
X50050Y58661D01*
X50128Y58620D01*
X50210Y58588D01*
X50219Y58584D01*
X50241Y58579D01*
X50260Y58575D01*
X50282Y58570D01*
X50310Y58566D01*
X50341Y58561D01*
X50378Y58556D01*
X50423Y58552D01*
X50469D01*
X50524Y58547D01*
X50583Y58543D01*
X50651Y58538D01*
X50724D01*
X50801D01*
X51042D01*
Y58543D01*
X51038Y58547D01*
X51033Y58561D01*
X51029Y58584D01*
X51020Y58606D01*
X51010Y58638D01*
X51001Y58675D01*
X50992Y58720D01*
X50978Y58770D01*
X50965Y58825D01*
X50947Y58884D01*
X50933Y58952D01*
X50915Y59025D01*
X50897Y59102D01*
X50874Y59189D01*
X50856Y59280D01*
Y59285D01*
X50851Y59303D01*
X50847Y59325D01*
X50837Y59362D01*
X50828Y59403D01*
X50815Y59448D01*
X50787Y59548D01*
X50756Y59658D01*
X50724Y59767D01*
X50701Y59817D01*
X50683Y59862D01*
X50665Y59903D01*
X50646Y59935D01*
Y59940D01*
X50637Y59944D01*
X50615Y59971D01*
X50578Y60008D01*
X50528Y60049D01*
X50469Y60094D01*
X50396Y60131D01*
X50310Y60158D01*
X50264Y60163D01*
X50219Y60167D01*
D02*
G37*
G36*
X51229Y55021D02*
X51220D01*
X51197D01*
X51161D01*
X51115Y55017D01*
X51056Y55012D01*
X50988Y55007D01*
X50915Y55003D01*
X50833Y54994D01*
X50665Y54966D01*
X50492Y54926D01*
X50405Y54903D01*
X50323Y54871D01*
X50251Y54839D01*
X50182Y54798D01*
X50178Y54794D01*
X50164Y54785D01*
X50137Y54766D01*
X50109Y54739D01*
X50073Y54707D01*
X50032Y54671D01*
X49987Y54625D01*
X49946Y54575D01*
X49900Y54521D01*
X49855Y54457D01*
X49814Y54389D01*
X49777Y54316D01*
X49750Y54234D01*
X49727Y54152D01*
X49709Y54061D01*
X49705Y53966D01*
Y53947D01*
X49709Y53925D01*
Y53897D01*
X49714Y53865D01*
X49723Y53825D01*
X49732Y53779D01*
X49746Y53729D01*
X49764Y53679D01*
X49786Y53624D01*
X49814Y53565D01*
X49850Y53510D01*
X49887Y53451D01*
X49932Y53392D01*
X49987Y53338D01*
X50046Y53283D01*
X50050Y53278D01*
X50064Y53269D01*
X50082Y53256D01*
X50109Y53237D01*
X50146Y53219D01*
X50191Y53192D01*
X50246Y53169D01*
X50310Y53142D01*
X50378Y53115D01*
X50460Y53092D01*
X50546Y53065D01*
X50642Y53046D01*
X50747Y53028D01*
X50865Y53015D01*
X50988Y53005D01*
X51120Y53001D01*
X51124D01*
X51129D01*
X51156D01*
X51192D01*
X51247Y53005D01*
X51311Y53010D01*
X51384Y53015D01*
X51465Y53024D01*
X51556Y53037D01*
X51738Y53069D01*
X51834Y53092D01*
X51925Y53124D01*
X52016Y53156D01*
X52102Y53192D01*
X52180Y53237D01*
X52248Y53288D01*
X52253Y53292D01*
X52262Y53301D01*
X52280Y53315D01*
X52303Y53338D01*
X52330Y53365D01*
X52357Y53401D01*
X52389Y53438D01*
X52421Y53483D01*
X52453Y53533D01*
X52485Y53588D01*
X52512Y53647D01*
X52539Y53711D01*
X52562Y53779D01*
X52580Y53852D01*
X52589Y53929D01*
X52594Y54011D01*
Y54052D01*
X52589Y54084D01*
X52585Y54120D01*
X52576Y54166D01*
X52566Y54211D01*
X52553Y54266D01*
X52535Y54320D01*
X52512Y54380D01*
X52485Y54439D01*
X52448Y54502D01*
X52412Y54562D01*
X52366Y54621D01*
X52312Y54680D01*
X52253Y54734D01*
X52248Y54739D01*
X52239Y54748D01*
X52216Y54762D01*
X52189Y54780D01*
X52152Y54803D01*
X52112Y54826D01*
X52057Y54853D01*
X51998Y54875D01*
X51929Y54903D01*
X51857Y54930D01*
X51770Y54953D01*
X51679Y54976D01*
X51579Y54994D01*
X51470Y55007D01*
X51352Y55017D01*
X51229Y55021D01*
D02*
G37*
G36*
X51611Y47445D02*
X51520D01*
Y45634D01*
X51525D01*
X51543D01*
X51570Y45639D01*
X51606D01*
X51652Y45644D01*
X51702Y45653D01*
X51757Y45662D01*
X51816Y45675D01*
X51943Y45707D01*
X52075Y45757D01*
X52143Y45785D01*
X52202Y45821D01*
X52262Y45862D01*
X52316Y45908D01*
X52321Y45912D01*
X52330Y45921D01*
X52343Y45935D01*
X52362Y45953D01*
X52380Y45980D01*
X52403Y46008D01*
X52430Y46044D01*
X52457Y46085D01*
X52507Y46176D01*
X52553Y46281D01*
X52566Y46340D01*
X52580Y46403D01*
X52589Y46467D01*
X52594Y46535D01*
Y46572D01*
X52589Y46599D01*
X52585Y46635D01*
X52580Y46676D01*
X52571Y46717D01*
X52557Y46767D01*
X52521Y46867D01*
X52498Y46922D01*
X52471Y46977D01*
X52439Y47036D01*
X52398Y47086D01*
X52353Y47140D01*
X52303Y47191D01*
X52298Y47195D01*
X52289Y47200D01*
X52271Y47213D01*
X52248Y47232D01*
X52221Y47250D01*
X52184Y47273D01*
X52143Y47295D01*
X52098Y47318D01*
X52043Y47345D01*
X51984Y47368D01*
X51920Y47386D01*
X51852Y47409D01*
X51775Y47423D01*
X51697Y47436D01*
X51611Y47445D01*
D02*
G37*
G36*
X104475Y318092D02*
X104471D01*
X104466Y318088D01*
X104453Y318083D01*
X104430Y318079D01*
X104407Y318070D01*
X104375Y318060D01*
X104339Y318051D01*
X104293Y318042D01*
X104243Y318029D01*
X104189Y318015D01*
X104130Y317997D01*
X104061Y317983D01*
X103989Y317965D01*
X103911Y317947D01*
X103825Y317924D01*
X103734Y317906D01*
X103729D01*
X103711Y317901D01*
X103688Y317897D01*
X103652Y317887D01*
X103611Y317878D01*
X103565Y317865D01*
X103465Y317838D01*
X103356Y317806D01*
X103247Y317774D01*
X103197Y317751D01*
X103151Y317733D01*
X103110Y317715D01*
X103078Y317696D01*
X103074D01*
X103069Y317687D01*
X103042Y317665D01*
X103006Y317628D01*
X102965Y317578D01*
X102919Y317519D01*
X102883Y317446D01*
X102856Y317360D01*
X102851Y317314D01*
X102847Y317269D01*
Y317264D01*
Y317260D01*
Y317246D01*
X102851Y317228D01*
X102856Y317178D01*
X102869Y317119D01*
X102892Y317050D01*
X102924Y316978D01*
X102969Y316905D01*
X103033Y316832D01*
X103042Y316823D01*
X103069Y316805D01*
X103110Y316773D01*
X103165Y316741D01*
X103233Y316709D01*
X103315Y316677D01*
X103411Y316659D01*
X103515Y316650D01*
X103547D01*
X103570Y316654D01*
X103602D01*
X103634Y316664D01*
X103716Y316677D01*
X103811Y316705D01*
X103916Y316741D01*
X104025Y316795D01*
X104084Y316827D01*
X104139Y316864D01*
X104143D01*
X104148Y316873D01*
X104175Y316891D01*
X104211Y316928D01*
X104257Y316973D01*
X104307Y317032D01*
X104352Y317100D01*
X104393Y317178D01*
X104425Y317260D01*
X104430Y317269D01*
X104434Y317291D01*
X104439Y317310D01*
X104444Y317332D01*
X104448Y317360D01*
X104453Y317392D01*
X104457Y317428D01*
X104462Y317474D01*
Y317519D01*
X104466Y317574D01*
X104471Y317633D01*
X104475Y317701D01*
Y317774D01*
Y317851D01*
Y318092D01*
D02*
G37*
G36*
X90084Y319644D02*
X90047D01*
X90020Y319639D01*
X89984Y319635D01*
X89943Y319630D01*
X89902Y319621D01*
X89852Y319607D01*
X89752Y319571D01*
X89697Y319548D01*
X89642Y319521D01*
X89583Y319489D01*
X89533Y319448D01*
X89479Y319403D01*
X89429Y319353D01*
X89424Y319348D01*
X89419Y319339D01*
X89406Y319321D01*
X89388Y319298D01*
X89369Y319271D01*
X89347Y319234D01*
X89324Y319193D01*
X89301Y319148D01*
X89274Y319093D01*
X89251Y319034D01*
X89233Y318970D01*
X89210Y318902D01*
X89196Y318825D01*
X89183Y318747D01*
X89174Y318661D01*
Y318570D01*
X90985D01*
Y318575D01*
Y318593D01*
X90980Y318620D01*
Y318656D01*
X90975Y318702D01*
X90966Y318752D01*
X90957Y318807D01*
X90944Y318866D01*
X90912Y318993D01*
X90862Y319125D01*
X90834Y319193D01*
X90798Y319252D01*
X90757Y319312D01*
X90712Y319366D01*
X90707Y319371D01*
X90698Y319380D01*
X90684Y319394D01*
X90666Y319412D01*
X90639Y319430D01*
X90611Y319453D01*
X90575Y319480D01*
X90534Y319507D01*
X90443Y319557D01*
X90338Y319603D01*
X90279Y319617D01*
X90216Y319630D01*
X90152Y319639D01*
X90084Y319644D01*
D02*
G37*
G36*
X28978Y319406D02*
X28932D01*
X28900Y319401D01*
X28859Y319397D01*
X28809Y319388D01*
X28759Y319374D01*
X28700Y319360D01*
X28641Y319342D01*
X28577Y319320D01*
X28509Y319288D01*
X28441Y319251D01*
X28377Y319210D01*
X28309Y319160D01*
X28245Y319106D01*
X28181Y319042D01*
X28177Y319037D01*
X28168Y319024D01*
X28154Y319005D01*
X28131Y318974D01*
X28109Y318937D01*
X28081Y318892D01*
X28054Y318837D01*
X28022Y318778D01*
X27995Y318710D01*
X27963Y318633D01*
X27936Y318546D01*
X27913Y318455D01*
X27890Y318350D01*
X27877Y318246D01*
X27867Y318127D01*
X27863Y318005D01*
Y317995D01*
Y317973D01*
Y317941D01*
X27867Y317891D01*
X27872Y317836D01*
X27881Y317768D01*
X27890Y317695D01*
X27904Y317618D01*
X27918Y317536D01*
X27940Y317449D01*
X27968Y317363D01*
X27999Y317277D01*
X28036Y317195D01*
X28077Y317113D01*
X28127Y317035D01*
X28181Y316963D01*
X28186Y316958D01*
X28195Y316949D01*
X28213Y316931D01*
X28241Y316908D01*
X28272Y316881D01*
X28309Y316849D01*
X28354Y316817D01*
X28404Y316785D01*
X28459Y316749D01*
X28518Y316717D01*
X28582Y316685D01*
X28655Y316658D01*
X28727Y316635D01*
X28809Y316617D01*
X28891Y316608D01*
X28978Y316603D01*
X29000D01*
X29023Y316608D01*
X29055D01*
X29096Y316612D01*
X29146Y316621D01*
X29196Y316635D01*
X29255Y316649D01*
X29314Y316667D01*
X29378Y316690D01*
X29446Y316722D01*
X29510Y316753D01*
X29578Y316794D01*
X29642Y316844D01*
X29710Y316899D01*
X29769Y316963D01*
X29774Y316967D01*
X29783Y316981D01*
X29801Y316999D01*
X29820Y317031D01*
X29842Y317067D01*
X29869Y317113D01*
X29901Y317167D01*
X29933Y317227D01*
X29961Y317299D01*
X29992Y317377D01*
X30020Y317463D01*
X30042Y317554D01*
X30061Y317659D01*
X30079Y317768D01*
X30088Y317886D01*
X30092Y318009D01*
Y318018D01*
Y318041D01*
Y318073D01*
X30088Y318118D01*
X30083Y318177D01*
X30074Y318241D01*
X30065Y318314D01*
X30051Y318391D01*
X30033Y318473D01*
X30015Y318555D01*
X29988Y318642D01*
X29956Y318728D01*
X29919Y318814D01*
X29874Y318896D01*
X29829Y318969D01*
X29769Y319042D01*
X29765Y319046D01*
X29756Y319056D01*
X29737Y319074D01*
X29710Y319101D01*
X29683Y319128D01*
X29642Y319156D01*
X29601Y319192D01*
X29551Y319224D01*
X29496Y319256D01*
X29437Y319292D01*
X29369Y319320D01*
X29301Y319351D01*
X29228Y319374D01*
X29146Y319392D01*
X29064Y319401D01*
X28978Y319406D01*
D02*
G37*
G36*
X44985Y319465D02*
X44944D01*
X44912Y319461D01*
X44875Y319456D01*
X44834Y319447D01*
X44784Y319438D01*
X44734Y319424D01*
X44680Y319406D01*
X44621Y319383D01*
X44561Y319356D01*
X44502Y319320D01*
X44443Y319283D01*
X44384Y319238D01*
X44325Y319183D01*
X44270Y319124D01*
X44266Y319119D01*
X44257Y319110D01*
X44243Y319088D01*
X44229Y319060D01*
X44207Y319024D01*
X44184Y318983D01*
X44157Y318928D01*
X44134Y318869D01*
X44107Y318801D01*
X44079Y318724D01*
X44056Y318642D01*
X44038Y318546D01*
X44020Y318446D01*
X44006Y318337D01*
X43997Y318223D01*
X43993Y318096D01*
Y318087D01*
Y318064D01*
Y318027D01*
X43997Y317977D01*
X44002Y317918D01*
X44006Y317850D01*
X44015Y317773D01*
X44029Y317691D01*
X44061Y317518D01*
X44084Y317431D01*
X44111Y317345D01*
X44143Y317258D01*
X44179Y317177D01*
X44220Y317104D01*
X44270Y317035D01*
X44275Y317031D01*
X44284Y317022D01*
X44298Y317004D01*
X44320Y316981D01*
X44348Y316958D01*
X44379Y316931D01*
X44420Y316899D01*
X44461Y316867D01*
X44511Y316835D01*
X44566Y316803D01*
X44684Y316753D01*
X44748Y316731D01*
X44816Y316712D01*
X44889Y316703D01*
X44966Y316699D01*
X44985D01*
X45007Y316703D01*
X45039D01*
X45080Y316708D01*
X45121Y316717D01*
X45171Y316726D01*
X45226Y316744D01*
X45285Y316762D01*
X45344Y316785D01*
X45403Y316812D01*
X45467Y316844D01*
X45531Y316885D01*
X45594Y316931D01*
X45653Y316985D01*
X45713Y317044D01*
X45717Y317049D01*
X45726Y317063D01*
X45740Y317081D01*
X45763Y317108D01*
X45785Y317145D01*
X45808Y317190D01*
X45835Y317240D01*
X45867Y317304D01*
X45895Y317372D01*
X45922Y317445D01*
X45945Y317531D01*
X45972Y317622D01*
X45990Y317723D01*
X46004Y317832D01*
X46013Y317945D01*
X46018Y318068D01*
Y318077D01*
Y318100D01*
Y318137D01*
X46013Y318182D01*
X46008Y318241D01*
X46004Y318309D01*
X45995Y318382D01*
X45981Y318464D01*
X45945Y318637D01*
X45922Y318724D01*
X45895Y318810D01*
X45858Y318892D01*
X45817Y318974D01*
X45772Y319051D01*
X45722Y319119D01*
X45717Y319124D01*
X45708Y319133D01*
X45690Y319151D01*
X45672Y319174D01*
X45640Y319201D01*
X45608Y319229D01*
X45567Y319260D01*
X45522Y319292D01*
X45471Y319324D01*
X45412Y319356D01*
X45353Y319383D01*
X45289Y319410D01*
X45217Y319433D01*
X45144Y319451D01*
X45066Y319461D01*
X44985Y319465D01*
D02*
G37*
G36*
X16347Y57731D02*
Y56148D01*
X19759Y54820D01*
Y56394D01*
X16347Y57731D01*
D02*
G37*
G36*
Y49063D02*
Y47390D01*
X19693Y46087D01*
Y47735D01*
X16347Y49063D01*
D02*
G37*
G36*
X17020Y19904D02*
Y18075D01*
X22866Y15738D01*
Y17559D01*
X17020Y19904D01*
D02*
G37*
G36*
X42086Y299077D02*
X40293D01*
Y298263D01*
X40298Y298203D01*
Y298135D01*
X40303Y298058D01*
X40307Y297980D01*
X40316Y297812D01*
X40334Y297648D01*
X40343Y297571D01*
X40357Y297498D01*
X40371Y297439D01*
X40389Y297385D01*
Y297380D01*
X40394Y297371D01*
X40398Y297362D01*
X40407Y297343D01*
X40430Y297298D01*
X40466Y297239D01*
X40507Y297175D01*
X40562Y297107D01*
X40626Y297043D01*
X40698Y296984D01*
X40703D01*
X40707Y296979D01*
X40721Y296970D01*
X40735Y296961D01*
X40780Y296938D01*
X40839Y296911D01*
X40912Y296884D01*
X40994Y296861D01*
X41090Y296843D01*
X41190Y296838D01*
X41194D01*
X41203D01*
X41222D01*
X41249Y296843D01*
X41276D01*
X41313Y296848D01*
X41390Y296866D01*
X41481Y296888D01*
X41577Y296925D01*
X41672Y296975D01*
X41718Y297007D01*
X41759Y297043D01*
X41763D01*
X41768Y297052D01*
X41795Y297080D01*
X41831Y297121D01*
X41881Y297180D01*
X41927Y297257D01*
X41972Y297343D01*
X42013Y297444D01*
X42041Y297553D01*
Y297562D01*
X42045Y297580D01*
X42050Y297598D01*
Y297626D01*
X42054Y297662D01*
X42059Y297703D01*
X42063Y297753D01*
X42068Y297812D01*
X42072Y297876D01*
X42077Y297949D01*
Y298035D01*
X42082Y298126D01*
X42086Y298231D01*
Y299077D01*
D02*
G37*
G36*
X38219Y293603D02*
X38214D01*
X38210D01*
X38196D01*
X38178Y293599D01*
X38128Y293594D01*
X38069Y293581D01*
X38000Y293558D01*
X37927Y293526D01*
X37855Y293480D01*
X37782Y293417D01*
X37773Y293408D01*
X37755Y293380D01*
X37723Y293339D01*
X37691Y293285D01*
X37659Y293217D01*
X37627Y293135D01*
X37609Y293039D01*
X37600Y292934D01*
Y292903D01*
X37604Y292880D01*
Y292848D01*
X37613Y292816D01*
X37627Y292734D01*
X37655Y292639D01*
X37691Y292534D01*
X37745Y292425D01*
X37777Y292366D01*
X37814Y292311D01*
Y292307D01*
X37823Y292302D01*
X37841Y292275D01*
X37877Y292238D01*
X37923Y292193D01*
X37982Y292143D01*
X38050Y292097D01*
X38128Y292056D01*
X38210Y292024D01*
X38219Y292020D01*
X38241Y292016D01*
X38260Y292011D01*
X38282Y292006D01*
X38310Y292002D01*
X38342Y291997D01*
X38378Y291993D01*
X38423Y291988D01*
X38469D01*
X38524Y291984D01*
X38583Y291979D01*
X38651Y291974D01*
X38724D01*
X38801D01*
X39042D01*
Y291979D01*
X39038Y291984D01*
X39033Y291997D01*
X39029Y292020D01*
X39020Y292043D01*
X39010Y292075D01*
X39001Y292111D01*
X38992Y292157D01*
X38978Y292207D01*
X38965Y292261D01*
X38947Y292320D01*
X38933Y292389D01*
X38915Y292461D01*
X38897Y292539D01*
X38874Y292625D01*
X38856Y292716D01*
Y292721D01*
X38851Y292739D01*
X38847Y292762D01*
X38838Y292798D01*
X38828Y292839D01*
X38815Y292884D01*
X38787Y292985D01*
X38756Y293094D01*
X38724Y293203D01*
X38701Y293253D01*
X38683Y293299D01*
X38665Y293339D01*
X38646Y293371D01*
Y293376D01*
X38637Y293380D01*
X38614Y293408D01*
X38578Y293444D01*
X38528Y293485D01*
X38469Y293531D01*
X38396Y293567D01*
X38310Y293594D01*
X38264Y293599D01*
X38219Y293603D01*
D02*
G37*
G36*
Y285291D02*
X38214D01*
X38210D01*
X38196D01*
X38178Y285286D01*
X38128Y285281D01*
X38069Y285268D01*
X38000Y285245D01*
X37927Y285213D01*
X37855Y285168D01*
X37782Y285104D01*
X37773Y285095D01*
X37755Y285068D01*
X37723Y285027D01*
X37691Y284972D01*
X37659Y284904D01*
X37627Y284822D01*
X37609Y284726D01*
X37600Y284622D01*
Y284590D01*
X37604Y284567D01*
Y284535D01*
X37613Y284503D01*
X37627Y284421D01*
X37655Y284326D01*
X37691Y284221D01*
X37745Y284112D01*
X37777Y284053D01*
X37814Y283998D01*
Y283994D01*
X37823Y283989D01*
X37841Y283962D01*
X37877Y283926D01*
X37923Y283880D01*
X37982Y283830D01*
X38050Y283785D01*
X38128Y283744D01*
X38210Y283712D01*
X38219Y283707D01*
X38241Y283703D01*
X38260Y283698D01*
X38282Y283694D01*
X38310Y283689D01*
X38342Y283684D01*
X38378Y283680D01*
X38423Y283675D01*
X38469D01*
X38524Y283671D01*
X38583Y283666D01*
X38651Y283662D01*
X38724D01*
X38801D01*
X39042D01*
Y283666D01*
X39038Y283671D01*
X39033Y283684D01*
X39029Y283707D01*
X39020Y283730D01*
X39010Y283762D01*
X39001Y283798D01*
X38992Y283844D01*
X38978Y283894D01*
X38965Y283948D01*
X38947Y284008D01*
X38933Y284076D01*
X38915Y284149D01*
X38897Y284226D01*
X38874Y284312D01*
X38856Y284403D01*
Y284408D01*
X38851Y284426D01*
X38847Y284449D01*
X38838Y284485D01*
X38828Y284526D01*
X38815Y284572D01*
X38787Y284672D01*
X38756Y284781D01*
X38724Y284890D01*
X38701Y284940D01*
X38683Y284986D01*
X38665Y285027D01*
X38646Y285058D01*
Y285063D01*
X38637Y285068D01*
X38614Y285095D01*
X38578Y285131D01*
X38528Y285172D01*
X38469Y285218D01*
X38396Y285254D01*
X38310Y285281D01*
X38264Y285286D01*
X38219Y285291D01*
D02*
G37*
G36*
X39611Y275499D02*
X39520D01*
Y273688D01*
X39524D01*
X39543D01*
X39570Y273693D01*
X39606D01*
X39652Y273697D01*
X39702Y273706D01*
X39757Y273715D01*
X39816Y273729D01*
X39943Y273761D01*
X40075Y273811D01*
X40143Y273838D01*
X40203Y273875D01*
X40262Y273916D01*
X40316Y273961D01*
X40321Y273966D01*
X40330Y273975D01*
X40343Y273988D01*
X40362Y274007D01*
X40380Y274034D01*
X40403Y274061D01*
X40430Y274098D01*
X40457Y274138D01*
X40507Y274230D01*
X40553Y274334D01*
X40567Y274393D01*
X40580Y274457D01*
X40589Y274521D01*
X40594Y274589D01*
Y274625D01*
X40589Y274653D01*
X40585Y274689D01*
X40580Y274730D01*
X40571Y274771D01*
X40557Y274821D01*
X40521Y274921D01*
X40498Y274976D01*
X40471Y275030D01*
X40439Y275089D01*
X40398Y275139D01*
X40353Y275194D01*
X40303Y275244D01*
X40298Y275249D01*
X40289Y275253D01*
X40271Y275267D01*
X40248Y275285D01*
X40221Y275303D01*
X40184Y275326D01*
X40143Y275349D01*
X40098Y275372D01*
X40043Y275399D01*
X39984Y275422D01*
X39920Y275440D01*
X39852Y275463D01*
X39775Y275476D01*
X39697Y275490D01*
X39611Y275499D01*
D02*
G37*
G36*
X38219Y259383D02*
X38214D01*
X38210D01*
X38196D01*
X38178Y259378D01*
X38128Y259374D01*
X38069Y259360D01*
X38000Y259337D01*
X37927Y259306D01*
X37855Y259260D01*
X37782Y259196D01*
X37773Y259187D01*
X37755Y259160D01*
X37723Y259119D01*
X37691Y259064D01*
X37659Y258996D01*
X37627Y258914D01*
X37609Y258819D01*
X37600Y258714D01*
Y258682D01*
X37604Y258659D01*
Y258628D01*
X37613Y258596D01*
X37627Y258514D01*
X37655Y258418D01*
X37691Y258314D01*
X37745Y258204D01*
X37777Y258145D01*
X37814Y258091D01*
Y258086D01*
X37823Y258082D01*
X37841Y258054D01*
X37877Y258018D01*
X37923Y257972D01*
X37982Y257922D01*
X38050Y257877D01*
X38128Y257836D01*
X38210Y257804D01*
X38219Y257799D01*
X38241Y257795D01*
X38260Y257790D01*
X38282Y257786D01*
X38310Y257781D01*
X38342Y257777D01*
X38378Y257772D01*
X38423Y257768D01*
X38469D01*
X38524Y257763D01*
X38583Y257758D01*
X38651Y257754D01*
X38724D01*
X38801D01*
X39042D01*
Y257758D01*
X39038Y257763D01*
X39033Y257777D01*
X39029Y257799D01*
X39020Y257822D01*
X39010Y257854D01*
X39001Y257891D01*
X38992Y257936D01*
X38978Y257986D01*
X38965Y258041D01*
X38947Y258100D01*
X38933Y258168D01*
X38915Y258241D01*
X38897Y258318D01*
X38874Y258405D01*
X38856Y258496D01*
Y258500D01*
X38851Y258518D01*
X38847Y258541D01*
X38838Y258577D01*
X38828Y258618D01*
X38815Y258664D01*
X38787Y258764D01*
X38756Y258873D01*
X38724Y258982D01*
X38701Y259033D01*
X38683Y259078D01*
X38665Y259119D01*
X38646Y259151D01*
Y259155D01*
X38637Y259160D01*
X38614Y259187D01*
X38578Y259224D01*
X38528Y259265D01*
X38469Y259310D01*
X38396Y259347D01*
X38310Y259374D01*
X38264Y259378D01*
X38219Y259383D01*
D02*
G37*
G36*
X39229Y254237D02*
X39220D01*
X39197D01*
X39160D01*
X39115Y254232D01*
X39056Y254228D01*
X38988Y254223D01*
X38915Y254219D01*
X38833Y254209D01*
X38665Y254182D01*
X38492Y254141D01*
X38405Y254118D01*
X38323Y254087D01*
X38250Y254055D01*
X38182Y254014D01*
X38178Y254009D01*
X38164Y254000D01*
X38137Y253982D01*
X38109Y253955D01*
X38073Y253923D01*
X38032Y253887D01*
X37987Y253841D01*
X37946Y253791D01*
X37900Y253736D01*
X37855Y253673D01*
X37814Y253604D01*
X37777Y253532D01*
X37750Y253450D01*
X37727Y253368D01*
X37709Y253277D01*
X37705Y253181D01*
Y253163D01*
X37709Y253140D01*
Y253113D01*
X37714Y253081D01*
X37723Y253040D01*
X37732Y252995D01*
X37745Y252945D01*
X37764Y252894D01*
X37786Y252840D01*
X37814Y252781D01*
X37850Y252726D01*
X37887Y252667D01*
X37932Y252608D01*
X37987Y252553D01*
X38046Y252499D01*
X38050Y252494D01*
X38064Y252485D01*
X38082Y252471D01*
X38109Y252453D01*
X38146Y252435D01*
X38191Y252408D01*
X38246Y252385D01*
X38310Y252358D01*
X38378Y252330D01*
X38460Y252308D01*
X38546Y252280D01*
X38642Y252262D01*
X38747Y252244D01*
X38865Y252230D01*
X38988Y252221D01*
X39120Y252217D01*
X39124D01*
X39129D01*
X39156D01*
X39192D01*
X39247Y252221D01*
X39311Y252226D01*
X39384Y252230D01*
X39465Y252239D01*
X39556Y252253D01*
X39738Y252285D01*
X39834Y252308D01*
X39925Y252339D01*
X40016Y252371D01*
X40102Y252408D01*
X40180Y252453D01*
X40248Y252503D01*
X40253Y252508D01*
X40262Y252517D01*
X40280Y252531D01*
X40303Y252553D01*
X40330Y252581D01*
X40357Y252617D01*
X40389Y252653D01*
X40421Y252699D01*
X40453Y252749D01*
X40485Y252803D01*
X40512Y252863D01*
X40539Y252926D01*
X40562Y252995D01*
X40580Y253067D01*
X40589Y253145D01*
X40594Y253227D01*
Y253268D01*
X40589Y253299D01*
X40585Y253336D01*
X40576Y253381D01*
X40567Y253427D01*
X40553Y253482D01*
X40535Y253536D01*
X40512Y253595D01*
X40485Y253654D01*
X40448Y253718D01*
X40412Y253777D01*
X40366Y253836D01*
X40312Y253896D01*
X40253Y253950D01*
X40248Y253955D01*
X40239Y253964D01*
X40216Y253977D01*
X40189Y253996D01*
X40152Y254018D01*
X40112Y254041D01*
X40057Y254068D01*
X39998Y254091D01*
X39930Y254118D01*
X39857Y254146D01*
X39770Y254169D01*
X39679Y254191D01*
X39579Y254209D01*
X39470Y254223D01*
X39352Y254232D01*
X39229Y254237D01*
D02*
G37*
G36*
X39611Y246661D02*
X39520D01*
Y244850D01*
X39524D01*
X39543D01*
X39570Y244855D01*
X39606D01*
X39652Y244859D01*
X39702Y244868D01*
X39757Y244877D01*
X39816Y244891D01*
X39943Y244923D01*
X40075Y244973D01*
X40143Y245000D01*
X40203Y245037D01*
X40262Y245078D01*
X40316Y245123D01*
X40321Y245128D01*
X40330Y245137D01*
X40343Y245150D01*
X40362Y245169D01*
X40380Y245196D01*
X40403Y245223D01*
X40430Y245260D01*
X40457Y245301D01*
X40507Y245392D01*
X40553Y245496D01*
X40567Y245555D01*
X40580Y245619D01*
X40589Y245683D01*
X40594Y245751D01*
Y245787D01*
X40589Y245815D01*
X40585Y245851D01*
X40580Y245892D01*
X40571Y245933D01*
X40557Y245983D01*
X40521Y246083D01*
X40498Y246138D01*
X40471Y246192D01*
X40439Y246252D01*
X40398Y246302D01*
X40353Y246356D01*
X40303Y246406D01*
X40298Y246411D01*
X40289Y246415D01*
X40271Y246429D01*
X40248Y246447D01*
X40221Y246465D01*
X40184Y246488D01*
X40143Y246511D01*
X40098Y246534D01*
X40043Y246561D01*
X39984Y246584D01*
X39920Y246602D01*
X39852Y246625D01*
X39775Y246638D01*
X39697Y246652D01*
X39611Y246661D01*
D02*
G37*
G36*
X6252Y260196D02*
X5176D01*
Y259707D01*
X5179Y259672D01*
Y259631D01*
X5181Y259584D01*
X5184Y259538D01*
X5190Y259437D01*
X5201Y259338D01*
X5206Y259292D01*
X5214Y259248D01*
X5223Y259213D01*
X5233Y259180D01*
Y259177D01*
X5236Y259172D01*
X5239Y259167D01*
X5244Y259156D01*
X5258Y259128D01*
X5280Y259093D01*
X5304Y259055D01*
X5337Y259014D01*
X5375Y258975D01*
X5419Y258940D01*
X5422D01*
X5424Y258937D01*
X5433Y258932D01*
X5441Y258926D01*
X5468Y258913D01*
X5504Y258896D01*
X5547Y258880D01*
X5596Y258866D01*
X5654Y258855D01*
X5714Y258853D01*
X5717D01*
X5722D01*
X5733D01*
X5749Y258855D01*
X5766D01*
X5788Y258858D01*
X5834Y258869D01*
X5889Y258883D01*
X5946Y258904D01*
X6003Y258934D01*
X6031Y258954D01*
X6055Y258975D01*
X6058D01*
X6061Y258981D01*
X6077Y258997D01*
X6099Y259022D01*
X6129Y259057D01*
X6156Y259104D01*
X6183Y259156D01*
X6208Y259216D01*
X6224Y259281D01*
Y259287D01*
X6227Y259298D01*
X6230Y259309D01*
Y259325D01*
X6233Y259347D01*
X6235Y259371D01*
X6238Y259401D01*
X6241Y259437D01*
X6244Y259475D01*
X6246Y259519D01*
Y259571D01*
X6249Y259625D01*
X6252Y259688D01*
Y260196D01*
D02*
G37*
G36*
X6263Y255208D02*
X5389D01*
Y254517D01*
X5392Y254471D01*
Y254332D01*
X5395Y254288D01*
Y254247D01*
X5397Y254209D01*
Y254179D01*
X5400Y254154D01*
Y254146D01*
X5403Y254135D01*
X5405Y254121D01*
X5408Y254105D01*
X5414Y254086D01*
X5427Y254042D01*
X5444Y253993D01*
X5468Y253944D01*
X5498Y253895D01*
X5536Y253849D01*
X5542Y253843D01*
X5556Y253829D01*
X5583Y253813D01*
X5616Y253791D01*
X5657Y253769D01*
X5708Y253753D01*
X5766Y253739D01*
X5831Y253734D01*
X5834D01*
X5839D01*
X5848D01*
X5861Y253736D01*
X5891Y253739D01*
X5932Y253745D01*
X5979Y253758D01*
X6025Y253775D01*
X6072Y253799D01*
X6115Y253832D01*
X6121Y253838D01*
X6132Y253851D01*
X6151Y253873D01*
X6173Y253903D01*
X6197Y253944D01*
X6219Y253993D01*
X6235Y254050D01*
X6249Y254119D01*
Y254132D01*
X6252Y254146D01*
Y254162D01*
X6254Y254184D01*
Y254212D01*
X6257Y254244D01*
Y254329D01*
X6260Y254381D01*
Y254444D01*
X6263Y254512D01*
Y255208D01*
D02*
G37*
G36*
X4761D02*
X3751D01*
Y254364D01*
X3754Y254324D01*
Y254280D01*
X3757Y254192D01*
X3759Y254149D01*
Y254105D01*
X3762Y254067D01*
X3765Y254031D01*
X3770Y254001D01*
X3773Y253977D01*
Y253974D01*
X3776Y253969D01*
Y253960D01*
X3778Y253949D01*
X3789Y253917D01*
X3803Y253878D01*
X3822Y253835D01*
X3849Y253788D01*
X3882Y253745D01*
X3923Y253701D01*
X3926D01*
X3929Y253696D01*
X3945Y253685D01*
X3972Y253666D01*
X4008Y253646D01*
X4054Y253627D01*
X4109Y253608D01*
X4174Y253597D01*
X4245Y253592D01*
X4248D01*
X4253D01*
X4262D01*
X4272D01*
X4305Y253597D01*
X4343Y253603D01*
X4390Y253614D01*
X4436Y253627D01*
X4485Y253649D01*
X4532Y253677D01*
X4535D01*
X4537Y253679D01*
X4551Y253693D01*
X4573Y253709D01*
X4600Y253736D01*
X4627Y253769D01*
X4657Y253810D01*
X4685Y253859D01*
X4707Y253914D01*
Y253917D01*
X4709Y253922D01*
X4712Y253930D01*
X4715Y253947D01*
X4720Y253966D01*
X4723Y253990D01*
X4728Y254021D01*
X4734Y254056D01*
X4739Y254100D01*
X4745Y254149D01*
X4747Y254203D01*
X4753Y254266D01*
X4756Y254334D01*
X4758Y254411D01*
X4761Y254498D01*
Y255208D01*
D02*
G37*
G36*
X6263Y285910D02*
X5389D01*
Y285219D01*
X5392Y285173D01*
Y285033D01*
X5395Y284990D01*
Y284949D01*
X5397Y284910D01*
Y284880D01*
X5400Y284856D01*
Y284848D01*
X5403Y284837D01*
X5405Y284823D01*
X5408Y284807D01*
X5414Y284788D01*
X5427Y284744D01*
X5444Y284695D01*
X5468Y284646D01*
X5498Y284596D01*
X5536Y284550D01*
X5542Y284545D01*
X5556Y284531D01*
X5583Y284515D01*
X5616Y284493D01*
X5657Y284471D01*
X5708Y284454D01*
X5766Y284441D01*
X5831Y284435D01*
X5834D01*
X5839D01*
X5848D01*
X5861Y284438D01*
X5891Y284441D01*
X5932Y284446D01*
X5979Y284460D01*
X6025Y284476D01*
X6072Y284501D01*
X6115Y284534D01*
X6121Y284539D01*
X6132Y284553D01*
X6151Y284575D01*
X6173Y284605D01*
X6197Y284646D01*
X6219Y284695D01*
X6235Y284752D01*
X6249Y284820D01*
Y284834D01*
X6252Y284848D01*
Y284864D01*
X6254Y284886D01*
Y284913D01*
X6257Y284946D01*
Y285031D01*
X6260Y285082D01*
Y285145D01*
X6263Y285213D01*
Y285910D01*
D02*
G37*
G36*
X4761D02*
X3751D01*
Y285066D01*
X3754Y285025D01*
Y284981D01*
X3757Y284894D01*
X3759Y284850D01*
Y284807D01*
X3762Y284769D01*
X3765Y284733D01*
X3770Y284703D01*
X3773Y284678D01*
Y284676D01*
X3776Y284670D01*
Y284662D01*
X3778Y284651D01*
X3789Y284618D01*
X3803Y284580D01*
X3822Y284536D01*
X3849Y284490D01*
X3882Y284446D01*
X3923Y284403D01*
X3926D01*
X3929Y284397D01*
X3945Y284386D01*
X3972Y284367D01*
X4008Y284348D01*
X4054Y284329D01*
X4109Y284310D01*
X4174Y284299D01*
X4245Y284294D01*
X4248D01*
X4253D01*
X4262D01*
X4272D01*
X4305Y284299D01*
X4343Y284304D01*
X4390Y284315D01*
X4436Y284329D01*
X4485Y284351D01*
X4532Y284378D01*
X4535D01*
X4537Y284381D01*
X4551Y284395D01*
X4573Y284411D01*
X4600Y284438D01*
X4627Y284471D01*
X4657Y284512D01*
X4685Y284561D01*
X4707Y284616D01*
Y284618D01*
X4709Y284624D01*
X4712Y284632D01*
X4715Y284648D01*
X4720Y284667D01*
X4723Y284692D01*
X4728Y284722D01*
X4734Y284758D01*
X4739Y284801D01*
X4745Y284850D01*
X4747Y284905D01*
X4753Y284968D01*
X4756Y285036D01*
X4758Y285113D01*
X4761Y285200D01*
Y285910D01*
D02*
G37*
G36*
X6263Y275945D02*
X5389D01*
Y275254D01*
X5392Y275208D01*
Y275069D01*
X5395Y275025D01*
Y274984D01*
X5397Y274946D01*
Y274916D01*
X5400Y274891D01*
Y274883D01*
X5403Y274872D01*
X5405Y274859D01*
X5408Y274842D01*
X5414Y274823D01*
X5427Y274779D01*
X5444Y274730D01*
X5468Y274681D01*
X5498Y274632D01*
X5536Y274586D01*
X5542Y274580D01*
X5556Y274567D01*
X5583Y274550D01*
X5616Y274528D01*
X5657Y274506D01*
X5708Y274490D01*
X5766Y274476D01*
X5831Y274471D01*
X5834D01*
X5839D01*
X5848D01*
X5861Y274474D01*
X5891Y274476D01*
X5932Y274482D01*
X5979Y274496D01*
X6025Y274512D01*
X6072Y274536D01*
X6115Y274569D01*
X6121Y274575D01*
X6132Y274588D01*
X6151Y274610D01*
X6173Y274640D01*
X6197Y274681D01*
X6219Y274730D01*
X6235Y274788D01*
X6249Y274856D01*
Y274869D01*
X6252Y274883D01*
Y274900D01*
X6254Y274921D01*
Y274949D01*
X6257Y274981D01*
Y275066D01*
X6260Y275118D01*
Y275181D01*
X6263Y275249D01*
Y275945D01*
D02*
G37*
G36*
X4761D02*
X3751D01*
Y275101D01*
X3754Y275061D01*
Y275017D01*
X3757Y274930D01*
X3759Y274886D01*
Y274842D01*
X3762Y274804D01*
X3765Y274768D01*
X3770Y274739D01*
X3773Y274714D01*
Y274711D01*
X3776Y274706D01*
Y274697D01*
X3778Y274687D01*
X3789Y274654D01*
X3803Y274616D01*
X3822Y274572D01*
X3849Y274525D01*
X3882Y274482D01*
X3923Y274438D01*
X3926D01*
X3929Y274433D01*
X3945Y274422D01*
X3972Y274403D01*
X4008Y274384D01*
X4054Y274364D01*
X4109Y274345D01*
X4174Y274334D01*
X4245Y274329D01*
X4248D01*
X4253D01*
X4262D01*
X4272D01*
X4305Y274334D01*
X4343Y274340D01*
X4390Y274351D01*
X4436Y274364D01*
X4485Y274386D01*
X4532Y274414D01*
X4535D01*
X4537Y274416D01*
X4551Y274430D01*
X4573Y274446D01*
X4600Y274474D01*
X4627Y274506D01*
X4657Y274547D01*
X4685Y274597D01*
X4707Y274651D01*
Y274654D01*
X4709Y274659D01*
X4712Y274668D01*
X4715Y274684D01*
X4720Y274703D01*
X4723Y274728D01*
X4728Y274758D01*
X4734Y274793D01*
X4739Y274837D01*
X4745Y274886D01*
X4747Y274940D01*
X4753Y275003D01*
X4756Y275072D01*
X4758Y275148D01*
X4761Y275235D01*
Y275945D01*
D02*
G37*
G36*
X6282Y303009D02*
X3781D01*
Y302359D01*
X3784Y302329D01*
Y302296D01*
X3787Y302261D01*
X3789Y302184D01*
X3797Y302108D01*
X3806Y302037D01*
X3811Y302004D01*
X3817Y301977D01*
Y301974D01*
X3819Y301969D01*
X3822Y301958D01*
X3825Y301947D01*
X3830Y301930D01*
X3838Y301911D01*
X3855Y301868D01*
X3874Y301818D01*
X3901Y301769D01*
X3934Y301717D01*
X3972Y301668D01*
X3975Y301665D01*
X3978Y301663D01*
X3983Y301657D01*
X3994Y301646D01*
X4005Y301638D01*
X4021Y301624D01*
X4038Y301611D01*
X4059Y301597D01*
X4084Y301581D01*
X4111Y301564D01*
X4141Y301548D01*
X4174Y301532D01*
X4210Y301515D01*
X4251Y301499D01*
X4292Y301483D01*
X4338Y301469D01*
X4341D01*
X4349Y301466D01*
X4365Y301461D01*
X4384Y301455D01*
X4409Y301450D01*
X4442Y301444D01*
X4477Y301436D01*
X4521Y301428D01*
X4567Y301423D01*
X4619Y301414D01*
X4674Y301409D01*
X4737Y301401D01*
X4802Y301398D01*
X4873Y301393D01*
X4950Y301390D01*
X5029D01*
X5034D01*
X5048D01*
X5070D01*
X5100D01*
X5138Y301393D01*
X5179D01*
X5225Y301395D01*
X5277Y301401D01*
X5329Y301403D01*
X5384Y301409D01*
X5495Y301423D01*
X5550Y301433D01*
X5605Y301442D01*
X5654Y301455D01*
X5700Y301469D01*
X5703D01*
X5711Y301472D01*
X5722Y301477D01*
X5739Y301483D01*
X5758Y301491D01*
X5782Y301502D01*
X5834Y301523D01*
X5894Y301556D01*
X5954Y301592D01*
X6011Y301635D01*
X6066Y301685D01*
X6069Y301687D01*
X6072Y301690D01*
X6080Y301698D01*
X6088Y301709D01*
X6099Y301723D01*
X6110Y301739D01*
X6137Y301780D01*
X6167Y301832D01*
X6197Y301892D01*
X6222Y301963D01*
X6244Y302040D01*
Y302042D01*
X6246Y302048D01*
Y302059D01*
X6249Y302072D01*
X6252Y302091D01*
X6254Y302116D01*
X6260Y302143D01*
X6263Y302179D01*
X6265Y302217D01*
X6271Y302263D01*
X6274Y302315D01*
X6276Y302373D01*
X6279Y302435D01*
Y302506D01*
X6282Y302583D01*
Y303009D01*
D02*
G37*
G36*
X3961Y299430D02*
X3959D01*
X3956D01*
X3948D01*
X3937Y299427D01*
X3907Y299424D01*
X3871Y299416D01*
X3830Y299402D01*
X3787Y299383D01*
X3743Y299356D01*
X3699Y299318D01*
X3694Y299312D01*
X3683Y299296D01*
X3664Y299271D01*
X3645Y299238D01*
X3625Y299198D01*
X3606Y299148D01*
X3595Y299091D01*
X3590Y299028D01*
Y299009D01*
X3593Y298995D01*
Y298976D01*
X3598Y298957D01*
X3606Y298908D01*
X3623Y298851D01*
X3645Y298788D01*
X3677Y298723D01*
X3696Y298687D01*
X3718Y298654D01*
Y298652D01*
X3724Y298649D01*
X3735Y298632D01*
X3757Y298611D01*
X3784Y298583D01*
X3819Y298553D01*
X3860Y298526D01*
X3907Y298501D01*
X3956Y298482D01*
X3961Y298480D01*
X3975Y298477D01*
X3986Y298474D01*
X3999Y298471D01*
X4016Y298469D01*
X4035Y298466D01*
X4057Y298463D01*
X4084Y298460D01*
X4111D01*
X4144Y298458D01*
X4180Y298455D01*
X4221Y298452D01*
X4264D01*
X4311D01*
X4455D01*
Y298455D01*
X4453Y298458D01*
X4450Y298466D01*
X4447Y298480D01*
X4442Y298493D01*
X4436Y298512D01*
X4431Y298534D01*
X4425Y298562D01*
X4417Y298591D01*
X4409Y298624D01*
X4398Y298660D01*
X4390Y298701D01*
X4379Y298744D01*
X4368Y298791D01*
X4354Y298843D01*
X4343Y298897D01*
Y298900D01*
X4341Y298911D01*
X4338Y298924D01*
X4332Y298946D01*
X4327Y298971D01*
X4319Y298998D01*
X4302Y299058D01*
X4283Y299124D01*
X4264Y299189D01*
X4251Y299219D01*
X4240Y299247D01*
X4229Y299271D01*
X4218Y299290D01*
Y299293D01*
X4212Y299296D01*
X4199Y299312D01*
X4177Y299334D01*
X4147Y299359D01*
X4111Y299386D01*
X4068Y299408D01*
X4016Y299424D01*
X3988Y299427D01*
X3961Y299430D01*
D02*
G37*
G36*
Y294737D02*
X3959D01*
X3956D01*
X3948D01*
X3937Y294734D01*
X3907Y294731D01*
X3871Y294723D01*
X3830Y294709D01*
X3787Y294690D01*
X3743Y294663D01*
X3699Y294625D01*
X3694Y294619D01*
X3683Y294603D01*
X3664Y294578D01*
X3645Y294546D01*
X3625Y294505D01*
X3606Y294456D01*
X3595Y294398D01*
X3590Y294335D01*
Y294316D01*
X3593Y294303D01*
Y294284D01*
X3598Y294264D01*
X3606Y294215D01*
X3623Y294158D01*
X3645Y294095D01*
X3677Y294030D01*
X3696Y293994D01*
X3718Y293961D01*
Y293959D01*
X3724Y293956D01*
X3735Y293940D01*
X3757Y293918D01*
X3784Y293890D01*
X3819Y293860D01*
X3860Y293833D01*
X3907Y293809D01*
X3956Y293789D01*
X3961Y293787D01*
X3975Y293784D01*
X3986Y293781D01*
X3999Y293778D01*
X4016Y293776D01*
X4035Y293773D01*
X4057Y293770D01*
X4084Y293768D01*
X4111D01*
X4144Y293765D01*
X4180Y293762D01*
X4221Y293759D01*
X4264D01*
X4311D01*
X4455D01*
Y293762D01*
X4453Y293765D01*
X4450Y293773D01*
X4447Y293787D01*
X4442Y293800D01*
X4436Y293819D01*
X4431Y293841D01*
X4425Y293869D01*
X4417Y293899D01*
X4409Y293931D01*
X4398Y293967D01*
X4390Y294008D01*
X4379Y294052D01*
X4368Y294098D01*
X4354Y294150D01*
X4343Y294204D01*
Y294207D01*
X4341Y294218D01*
X4338Y294232D01*
X4332Y294253D01*
X4327Y294278D01*
X4319Y294305D01*
X4302Y294365D01*
X4283Y294431D01*
X4264Y294496D01*
X4251Y294527D01*
X4240Y294554D01*
X4229Y294578D01*
X4218Y294598D01*
Y294600D01*
X4212Y294603D01*
X4199Y294619D01*
X4177Y294641D01*
X4147Y294666D01*
X4111Y294693D01*
X4068Y294715D01*
X4016Y294731D01*
X3988Y294734D01*
X3961Y294737D01*
D02*
G37*
G36*
X16400Y313186D02*
X15324D01*
Y312697D01*
X15327Y312662D01*
Y312620D01*
X15330Y312574D01*
X15333Y312528D01*
X15338Y312427D01*
X15349Y312328D01*
X15354Y312282D01*
X15362Y312238D01*
X15371Y312203D01*
X15382Y312170D01*
Y312167D01*
X15384Y312162D01*
X15387Y312156D01*
X15393Y312145D01*
X15406Y312118D01*
X15428Y312083D01*
X15453Y312045D01*
X15485Y312003D01*
X15524Y311965D01*
X15567Y311930D01*
X15570D01*
X15573Y311927D01*
X15581Y311922D01*
X15589Y311916D01*
X15616Y311902D01*
X15652Y311886D01*
X15696Y311870D01*
X15745Y311856D01*
X15802Y311845D01*
X15862Y311842D01*
X15865D01*
X15870D01*
X15881D01*
X15898Y311845D01*
X15914D01*
X15936Y311848D01*
X15982Y311859D01*
X16037Y311873D01*
X16094Y311894D01*
X16151Y311924D01*
X16179Y311944D01*
X16203Y311965D01*
X16206D01*
X16209Y311971D01*
X16225Y311987D01*
X16247Y312012D01*
X16277Y312047D01*
X16304Y312094D01*
X16332Y312145D01*
X16356Y312206D01*
X16373Y312271D01*
Y312277D01*
X16375Y312287D01*
X16378Y312298D01*
Y312315D01*
X16381Y312337D01*
X16384Y312361D01*
X16386Y312391D01*
X16389Y312427D01*
X16392Y312465D01*
X16395Y312509D01*
Y312561D01*
X16397Y312615D01*
X16400Y312678D01*
Y313186D01*
D02*
G37*
G36*
Y304684D02*
X15442D01*
Y304035D01*
X15445Y303991D01*
Y303887D01*
X15447Y303830D01*
X15453Y303713D01*
X15455Y303655D01*
X15461Y303601D01*
X15466Y303552D01*
X15472Y303505D01*
X15477Y303467D01*
X15485Y303437D01*
Y303434D01*
X15488Y303431D01*
X15494Y303415D01*
X15507Y303390D01*
X15524Y303358D01*
X15545Y303325D01*
X15573Y303289D01*
X15606Y303254D01*
X15646Y303224D01*
X15652Y303221D01*
X15668Y303210D01*
X15693Y303199D01*
X15726Y303183D01*
X15767Y303169D01*
X15816Y303156D01*
X15870Y303147D01*
X15930Y303145D01*
X15933D01*
X15939D01*
X15949D01*
X15963Y303147D01*
X15980D01*
X15996Y303150D01*
X16040Y303158D01*
X16089Y303169D01*
X16141Y303188D01*
X16190Y303213D01*
X16236Y303248D01*
X16239D01*
X16242Y303254D01*
X16255Y303268D01*
X16274Y303289D01*
X16299Y303322D01*
X16323Y303363D01*
X16348Y303412D01*
X16370Y303470D01*
X16386Y303535D01*
Y303546D01*
X16389Y303557D01*
Y303571D01*
X16392Y303590D01*
Y303611D01*
X16395Y303639D01*
Y303713D01*
X16397Y303756D01*
Y303808D01*
X16400Y303868D01*
Y304684D01*
D02*
G37*
%LPD*%
D10*
X30480Y296697D02*
X30036Y297620D01*
X29036Y297848D01*
X28235Y297209D01*
Y296184D01*
X29036Y295545D01*
X30036Y295774D01*
X30480Y296697D01*
X43591Y128405D02*
X43146Y129329D01*
X42147Y129557D01*
X41345Y128918D01*
Y127893D01*
X42147Y127254D01*
X43146Y127482D01*
X43591Y128405D01*
D11*
X90500Y205906D02*
X90690Y204949D01*
X91232Y204138D01*
X92043Y203596D01*
X93000Y203405D01*
X93957Y203596D01*
X94768Y204138D01*
X95310Y204949D01*
X95500Y205906D01*
X71209Y5906D02*
Y205906D01*
Y5906D02*
X114791D01*
Y205906D01*
X95500D02*
X114791D01*
X71209D02*
X90500D01*
X66252Y229724D02*
X118220D01*
X66252Y281693D02*
X118220D01*
X66252Y229724D02*
Y281693D01*
X118220Y229724D02*
Y281693D01*
X3669Y198315D02*
X54850D01*
X3669Y225087D02*
X54850D01*
X3669Y198315D02*
Y225087D01*
X54850Y198315D02*
Y225087D01*
Y147315D02*
Y174087D01*
X3669Y147315D02*
Y174087D01*
X54850D01*
X3669Y147315D02*
X54850D01*
D12*
X66350Y225394D02*
X65612Y225820D01*
Y224968D01*
X66350Y225394D01*
X3906Y193000D02*
X3167Y193426D01*
Y192574D01*
X3906Y193000D01*
Y142000D02*
X3167Y142426D01*
Y141574D01*
X3906Y142000D01*
D13*
X71370Y233661D02*
X70925Y234585D01*
X69926Y234813D01*
X69125Y234174D01*
Y233149D01*
X69926Y232510D01*
X70925Y232738D01*
X71370Y233661D01*
X8787Y202252D02*
X8343Y203175D01*
X7344Y203403D01*
X6542Y202764D01*
Y201740D01*
X7344Y201100D01*
X8343Y201328D01*
X8787Y202252D01*
Y151252D02*
X8343Y152175D01*
X7344Y152403D01*
X6542Y151764D01*
Y150740D01*
X7344Y150101D01*
X8343Y150329D01*
X8787Y151252D01*
D14*
X12500Y257797D02*
Y264797D01*
X7500Y257797D02*
Y264797D01*
X12500D01*
X8500Y258797D02*
X11500D01*
X10000D02*
Y259797D01*
X48000Y302000D02*
Y312000D01*
Y322000D02*
X78000D01*
Y302000D02*
Y322000D01*
X48000Y302000D02*
X78000D01*
X38000D02*
Y322000D01*
X48000D01*
X38000Y312000D02*
X48000D01*
X38000Y302000D02*
X48000D01*
X47909Y121906D02*
Y132905D01*
Y3906D02*
Y121906D01*
X26909Y3906D02*
X47909D01*
X26909D02*
Y132905D01*
X47909D01*
X102000Y45000D02*
Y57000D01*
X106000D01*
Y45000D02*
Y57000D01*
X102000Y45000D02*
X106000D01*
X130009Y324000D02*
X140009D01*
Y314000D02*
Y324000D01*
X130009Y314000D02*
X140009D01*
X130009D02*
Y324000D01*
X110000Y314010D02*
X130000D01*
X110000Y324010D02*
X130000D01*
X110000Y314010D02*
Y324010D01*
X80000Y302010D02*
Y312010D01*
X130000D01*
X80000Y302010D02*
X130000D01*
X130009Y302000D02*
Y312000D01*
Y302000D02*
X140009D01*
X140009Y312000D01*
X130009D02*
X140009D01*
X10000Y278697D02*
Y279697D01*
X8500Y278697D02*
X11500D01*
X7500Y284697D02*
X12500D01*
X7500Y277697D02*
Y284697D01*
X12500Y277697D02*
Y284697D01*
X10000Y297957D02*
Y298957D01*
X8500Y297957D02*
X11500D01*
X7500Y303957D02*
X12500D01*
X7500Y296957D02*
Y303957D01*
X12500Y296957D02*
Y303957D01*
X22500Y309000D02*
X23500D01*
Y307500D02*
Y310500D01*
X17500Y306500D02*
Y311500D01*
Y306500D02*
X24500D01*
X17500Y311500D02*
X24500D01*
X87900Y26000D02*
Y38000D01*
X86200Y26000D02*
X87900D01*
X86200D02*
Y38000D01*
X87900D01*
X102000Y59000D02*
X106000D01*
Y71000D01*
X102000D02*
X106000D01*
X102000Y59000D02*
Y71000D01*
D15*
X112468Y201240D02*
Y202552D01*
Y201896D01*
X109188D01*
X108532Y202552D01*
Y203208D01*
X109188Y203864D01*
X112468Y199928D02*
X108532D01*
Y197304D01*
X111812Y193369D02*
X112468Y194025D01*
Y195336D01*
X111812Y195993D01*
X109188D01*
X108532Y195336D01*
Y194025D01*
X109188Y193369D01*
X112468Y189433D02*
Y190745D01*
Y190089D01*
X109188D01*
X108532Y190745D01*
Y191401D01*
X109188Y192057D01*
X112468Y188121D02*
X108532D01*
Y185497D01*
X111812Y181562D02*
X112468Y182217D01*
Y183529D01*
X111812Y184185D01*
X109188D01*
X108532Y183529D01*
Y182217D01*
X109188Y181562D01*
X112468Y177626D02*
Y178938D01*
Y178282D01*
X109188D01*
X108532Y178938D01*
Y179594D01*
X109188Y180250D01*
X112468Y176314D02*
X108532D01*
Y173690D01*
X111812Y169754D02*
X112468Y170410D01*
Y171722D01*
X111812Y172378D01*
X109188D01*
X108532Y171722D01*
Y170410D01*
X109188Y169754D01*
X112468Y165819D02*
Y167130D01*
Y166474D01*
X109188D01*
X108532Y167130D01*
Y167786D01*
X109188Y168442D01*
X112468Y164507D02*
X108532D01*
Y161883D01*
X111812Y157947D02*
X112468Y158603D01*
Y159915D01*
X111812Y160571D01*
X109188D01*
X108532Y159915D01*
Y158603D01*
X109188Y157947D01*
X121376Y287205D02*
Y291141D01*
X123344D01*
X124000Y290485D01*
Y289173D01*
X123344Y288517D01*
X121376D01*
X122688D02*
X124000Y287205D01*
X125312D02*
X126624D01*
X125968D01*
Y291141D01*
X125312Y290485D01*
X44791Y241746D02*
X44135Y241090D01*
Y239778D01*
X44791Y239122D01*
X47415D01*
X48071Y239778D01*
Y241090D01*
X47415Y241746D01*
X48071Y243058D02*
Y244370D01*
Y243714D01*
X44135D01*
X44791Y243058D01*
X48071Y246338D02*
Y247650D01*
Y246994D01*
X44135D01*
X44791Y246338D01*
X87618Y220524D02*
Y217244D01*
X88274Y216588D01*
X89586D01*
X90242Y217244D01*
Y220524D01*
X93521Y216588D02*
Y220524D01*
X91554Y218556D01*
X94177D01*
X69740Y280673D02*
X68813Y276034D01*
X71596Y278817D02*
X66957Y277889D01*
X73915Y275570D02*
X73915Y276498D01*
X72987Y277426D01*
X72060D01*
X70204Y275570D01*
Y274643D01*
X71132Y273715D01*
X72060D01*
X72987Y272787D02*
Y271860D01*
X73915Y270932D01*
X74843Y270932D01*
X76698Y272787D01*
X76698Y273715D01*
X75770Y274643D01*
X74843D01*
X74379Y274179D01*
Y273251D01*
X75770Y271860D01*
X79945Y270468D02*
X78089Y272323D01*
X76698Y270932D01*
X78089Y270468D01*
X78553Y270004D01*
Y269077D01*
X77626Y268149D01*
X76698Y268149D01*
X75770Y269077D01*
Y270004D01*
X78089Y266758D02*
X79017Y265830D01*
X78553Y266294D01*
X81336Y269077D01*
X80409D01*
X81800Y263047D02*
X84583Y265830D01*
X81800D01*
X83655Y263975D01*
X84583Y260264D02*
X87366Y263047D01*
X84583D01*
X86438Y261192D01*
X88757Y261655D02*
X87830Y257017D01*
X90613Y259800D02*
X85975Y258872D01*
X91540D02*
X88757Y256089D01*
X90613Y254234D01*
X92932Y254698D02*
X94787Y252843D01*
X94323Y250523D02*
X95251Y249596D01*
X94787Y250060D01*
X97570Y252843D01*
X96643D01*
X98962Y250523D02*
X99889D01*
X100817Y249596D01*
X100817Y248668D01*
X98962Y246813D01*
X98034Y246813D01*
X97106Y247741D01*
Y248668D01*
X98962Y250523D01*
X102209Y248204D02*
X104064Y246349D01*
X103136Y247277D01*
X100353Y244494D01*
X104528Y241247D02*
X106383Y243102D01*
Y244030D01*
X105455Y244957D01*
X104528D01*
X102672Y243102D01*
Y242175D01*
X103600Y241247D01*
X104064Y242638D02*
Y240783D01*
X103600Y241247D02*
X104528Y241247D01*
X104992Y239855D02*
X105919Y238928D01*
X105455Y239391D01*
X108238Y242175D01*
X107311D01*
X109630Y239855D02*
X110558D01*
X111485Y238928D01*
X111485Y238000D01*
X109630Y236145D01*
X108702Y236145D01*
X107775Y237072D01*
Y238000D01*
X109630Y239855D01*
X112413Y237072D02*
X113341D01*
X114268Y236145D01*
X114268Y235217D01*
X112413Y233362D01*
X111485Y233362D01*
X110558Y234289D01*
Y235217D01*
X112413Y237072D01*
X117051Y232434D02*
Y233362D01*
X116123Y234289D01*
X115196D01*
X113341Y232434D01*
Y231506D01*
X114268Y230579D01*
X115196Y230579D01*
X132564Y253918D02*
X131909Y254574D01*
X130597D01*
X129941Y253918D01*
Y251294D01*
X130597Y250638D01*
X131909D01*
X132564Y251294D01*
X133876Y254574D02*
X136500D01*
Y253918D01*
X133876Y251294D01*
Y250638D01*
X132564Y231036D02*
X131909Y231692D01*
X130597D01*
X129941Y231036D01*
Y228413D01*
X130597Y227757D01*
X131909D01*
X132564Y228413D01*
X136500Y231692D02*
X135188Y231036D01*
X133876Y229724D01*
Y228413D01*
X134532Y227757D01*
X135844D01*
X136500Y228413D01*
Y229068D01*
X135844Y229724D01*
X133876D01*
X59366Y152873D02*
Y149594D01*
X60022Y148938D01*
X61334D01*
X61990Y149594D01*
Y152873D01*
X65926D02*
X63302D01*
Y150906D01*
X64613Y151561D01*
X65270D01*
X65926Y150906D01*
Y149594D01*
X65270Y148938D01*
X63958D01*
X63302Y149594D01*
X50720Y188580D02*
Y185300D01*
X51376Y184644D01*
X52688D01*
X53344Y185300D01*
Y188580D01*
X54656Y187924D02*
X55312Y188580D01*
X56624D01*
X57280Y187924D01*
Y187268D01*
X56624Y186612D01*
X55968D01*
X56624D01*
X57280Y185956D01*
Y185300D01*
X56624Y184644D01*
X55312D01*
X54656Y185300D01*
X12049Y213312D02*
X11393Y213968D01*
X10081D01*
X9425Y213312D01*
Y212656D01*
X10081Y212000D01*
X11393D01*
X12049Y211344D01*
Y210688D01*
X11393Y210032D01*
X10081D01*
X9425Y210688D01*
X13361Y210032D02*
Y213968D01*
X15985Y210032D01*
Y213968D01*
X17297D02*
X19920D01*
Y213312D01*
X17297Y210688D01*
Y210032D01*
X23856Y213968D02*
X21232D01*
Y212000D01*
X22544Y212656D01*
X23200D01*
X23856Y212000D01*
Y210688D01*
X23200Y210032D01*
X21888D01*
X21232Y210688D01*
X25168Y210032D02*
X26480D01*
X25824D01*
Y213968D01*
X25168Y213312D01*
X31072Y213968D02*
X29760Y213312D01*
X28448Y212000D01*
Y210688D01*
X29104Y210032D01*
X30416D01*
X31072Y210688D01*
Y211344D01*
X30416Y212000D01*
X28448D01*
X32384Y210032D02*
X33696D01*
X33040D01*
Y213968D01*
X32384Y213312D01*
X35664Y213968D02*
Y210032D01*
X37631D01*
X38287Y210688D01*
Y211344D01*
X37631Y212000D01*
X35664D01*
X37631D01*
X38287Y212656D01*
Y213312D01*
X37631Y213968D01*
X35664D01*
X39599D02*
Y210032D01*
X41567D01*
X42223Y210688D01*
Y213312D01*
X41567Y213968D01*
X39599D01*
X43535D02*
Y210032D01*
X44847Y211344D01*
X46159Y210032D01*
Y213968D01*
X47471Y210032D02*
Y213968D01*
X49439D01*
X50094Y213312D01*
Y212000D01*
X49439Y211344D01*
X47471D01*
X48783D02*
X50094Y210032D01*
X50200Y136968D02*
Y133688D01*
X50857Y133032D01*
X52168D01*
X52824Y133688D01*
Y136968D01*
X56760Y133032D02*
X54136D01*
X56760Y135656D01*
Y136312D01*
X56104Y136968D01*
X54792D01*
X54136Y136312D01*
X11721Y161714D02*
X11065Y162369D01*
X9753D01*
X9097Y161714D01*
Y161057D01*
X9753Y160402D01*
X11065D01*
X11721Y159746D01*
Y159090D01*
X11065Y158434D01*
X9753D01*
X9097Y159090D01*
X13033Y158434D02*
Y162369D01*
X15657Y158434D01*
Y162369D01*
X16969D02*
X19592D01*
Y161714D01*
X16969Y159090D01*
Y158434D01*
X23528Y162369D02*
X20904D01*
Y160402D01*
X22216Y161057D01*
X22872D01*
X23528Y160402D01*
Y159090D01*
X22872Y158434D01*
X21560D01*
X20904Y159090D01*
X24840Y158434D02*
X26152D01*
X25496D01*
Y162369D01*
X24840Y161714D01*
X30744Y162369D02*
X29432Y161714D01*
X28120Y160402D01*
Y159090D01*
X28776Y158434D01*
X30088D01*
X30744Y159090D01*
Y159746D01*
X30088Y160402D01*
X28120D01*
X32056Y161714D02*
X32712Y162369D01*
X34024D01*
X34679Y161714D01*
Y159090D01*
X34024Y158434D01*
X32712D01*
X32056Y159090D01*
Y161714D01*
X35991Y162369D02*
Y158434D01*
X37959D01*
X38615Y159090D01*
Y159746D01*
X37959Y160402D01*
X35991D01*
X37959D01*
X38615Y161057D01*
Y161714D01*
X37959Y162369D01*
X35991D01*
X39927D02*
Y158434D01*
X41895D01*
X42551Y159090D01*
Y161714D01*
X41895Y162369D01*
X39927D01*
X43863D02*
Y158434D01*
X45175Y159746D01*
X46487Y158434D01*
Y162369D01*
X47799Y158434D02*
Y162369D01*
X49766D01*
X50423Y161714D01*
Y160402D01*
X49766Y159746D01*
X47799D01*
X49111D02*
X50423Y158434D01*
X94738Y34436D02*
Y31157D01*
X95394Y30501D01*
X96706D01*
X97362Y31157D01*
Y34436D01*
X98674Y30501D02*
X99986D01*
X99330D01*
Y34436D01*
X98674Y33780D01*
X55361Y294064D02*
Y297999D01*
X57329D01*
X57985Y297343D01*
Y296031D01*
X57329Y295375D01*
X55361D01*
X56673D02*
X57985Y294064D01*
X59297D02*
Y297999D01*
X61921Y294064D01*
Y297999D01*
X63233Y294064D02*
X64544D01*
X63889D01*
Y297999D01*
X63233Y297343D01*
X110720Y269322D02*
Y273258D01*
X112688D01*
X113344Y272602D01*
Y271290D01*
X112688Y270634D01*
X110720D01*
X112032D02*
X113344Y269322D01*
X116624D02*
Y273258D01*
X114656Y271290D01*
X117280D01*
X110720Y275032D02*
Y278968D01*
X112688D01*
X113344Y278312D01*
Y277000D01*
X112688Y276344D01*
X110720D01*
X112032D02*
X113344Y275032D01*
X114656Y278312D02*
X115312Y278968D01*
X116624D01*
X117280Y278312D01*
Y277656D01*
X116624Y277000D01*
X115968D01*
X116624D01*
X117280Y276344D01*
Y275688D01*
X116624Y275032D01*
X115312D01*
X114656Y275688D01*
X120106Y281300D02*
Y285236D01*
X122074D01*
X122730Y284580D01*
Y283268D01*
X122074Y282612D01*
X120106D01*
X121418D02*
X122730Y281300D01*
X126666D02*
X124042D01*
X126666Y283924D01*
Y284580D01*
X126010Y285236D01*
X124698D01*
X124042Y284580D01*
X92344Y49857D02*
Y52481D01*
X91688Y53137D01*
X90376D01*
X89720Y52481D01*
Y49857D01*
X90376Y49201D01*
X91688D01*
X91032Y50513D02*
X92344Y49201D01*
X91688D02*
X92344Y49857D01*
X96280Y49201D02*
X93656D01*
X96280Y51825D01*
Y52481D01*
X95624Y53137D01*
X94312D01*
X93656Y52481D01*
X94000Y63688D02*
Y66312D01*
X93344Y66968D01*
X92032D01*
X91376Y66312D01*
Y63688D01*
X92032Y63032D01*
X93344D01*
X92688Y64344D02*
X94000Y63032D01*
X93344D02*
X94000Y63688D01*
X95312Y63032D02*
X96624D01*
X95968D01*
Y66968D01*
X95312Y66312D01*
X12968Y292409D02*
X9032D01*
Y290442D01*
X9688Y289786D01*
X12312D01*
X12968Y290442D01*
Y292409D01*
X9032Y286506D02*
X12968D01*
X11000Y288474D01*
Y285850D01*
X29590Y310968D02*
Y307032D01*
X31558D01*
X32214Y307688D01*
Y310312D01*
X31558Y310968D01*
X29590D01*
X33526Y310312D02*
X34182Y310968D01*
X35494D01*
X36150Y310312D01*
Y309656D01*
X35494Y309000D01*
X34838D01*
X35494D01*
X36150Y308344D01*
Y307688D01*
X35494Y307032D01*
X34182D01*
X33526Y307688D01*
X12968Y273409D02*
X9032D01*
Y271442D01*
X9688Y270786D01*
X12312D01*
X12968Y271442D01*
Y273409D01*
X9032Y266850D02*
Y269474D01*
X11656Y266850D01*
X12312D01*
X12968Y267506D01*
Y268818D01*
X12312Y269474D01*
X12968Y253410D02*
X9032D01*
Y251442D01*
X9688Y250786D01*
X12312D01*
X12968Y251442D01*
Y253410D01*
X9032Y249474D02*
Y248162D01*
Y248818D01*
X12968D01*
X12312Y249474D01*
X93704Y13312D02*
X93048Y13968D01*
X91736D01*
X91080Y13312D01*
Y10688D01*
X91736Y10032D01*
X93048D01*
X93704Y10688D01*
X95016Y10032D02*
X96328D01*
X95672D01*
Y13968D01*
X95016Y13312D01*
X100920Y10032D02*
X98296D01*
X100920Y12656D01*
Y13312D01*
X100264Y13968D01*
X98952D01*
X98296Y13312D01*
X53147Y274359D02*
X53803Y275015D01*
Y276327D01*
X53147Y276983D01*
X50523D01*
X49867Y276327D01*
Y275015D01*
X50523Y274359D01*
X49867Y273047D02*
Y271735D01*
Y272391D01*
X53803D01*
X53147Y273047D01*
Y269767D02*
X53803Y269111D01*
Y267799D01*
X53147Y267143D01*
X50523D01*
X49867Y267799D01*
Y269111D01*
X50523Y269767D01*
X53147D01*
X88273Y298210D02*
X87617Y298866D01*
X86305D01*
X85649Y298210D01*
Y295586D01*
X86305Y294930D01*
X87617D01*
X88273Y295586D01*
X89585D02*
X90241Y294930D01*
X91553D01*
X92209Y295586D01*
Y298210D01*
X91553Y298866D01*
X90241D01*
X89585Y298210D01*
Y297554D01*
X90241Y296898D01*
X92209D01*
X108646Y298216D02*
X107990Y298872D01*
X106678D01*
X106022Y298216D01*
Y295592D01*
X106678Y294936D01*
X107990D01*
X108646Y295592D01*
X109958Y298216D02*
X110614Y298872D01*
X111925D01*
X112581Y298216D01*
Y297560D01*
X111925Y296904D01*
X112581Y296248D01*
Y295592D01*
X111925Y294936D01*
X110614D01*
X109958Y295592D01*
Y296248D01*
X110614Y296904D01*
X109958Y297560D01*
Y298216D01*
X110614Y296904D02*
X111925D01*
X68521Y215532D02*
X67866Y216188D01*
X66554D01*
X65898Y215532D01*
Y212909D01*
X66554Y212253D01*
X67866D01*
X68521Y212909D01*
X72457Y216188D02*
X69833D01*
Y214220D01*
X71145Y214876D01*
X71801D01*
X72457Y214220D01*
Y212909D01*
X71801Y212253D01*
X70489D01*
X69833Y212909D01*
X96163Y44280D02*
X95507Y44936D01*
X94195D01*
X93539Y44280D01*
Y41657D01*
X94195Y41001D01*
X95507D01*
X96163Y41657D01*
X99443Y41001D02*
Y44936D01*
X97475Y42968D01*
X100099D01*
X95706Y22186D02*
X95050Y22842D01*
X93738D01*
X93082Y22186D01*
Y19562D01*
X93738Y18906D01*
X95050D01*
X95706Y19562D01*
X97018Y22186D02*
X97674Y22842D01*
X98986D01*
X99642Y22186D01*
Y21530D01*
X98986Y20874D01*
X98330D01*
X98986D01*
X99642Y20218D01*
Y19562D01*
X98986Y18906D01*
X97674D01*
X97018Y19562D01*
X19344Y135312D02*
X18688Y135968D01*
X17376D01*
X16720Y135312D01*
Y132688D01*
X17376Y132032D01*
X18688D01*
X19344Y132688D01*
X23280Y132032D02*
X20656D01*
X23280Y134656D01*
Y135312D01*
X22624Y135968D01*
X21312D01*
X20656Y135312D01*
X18000Y239312D02*
X17344Y239968D01*
X16032D01*
X15376Y239312D01*
Y236688D01*
X16032Y236032D01*
X17344D01*
X18000Y236688D01*
X19312Y236032D02*
X20624D01*
X19968D01*
Y239968D01*
X19312Y239312D01*
M02*
